<?xml version="1.0" encoding="UTF-8" standalone="no"?>
<svg width="296px" height="225px" viewBox="0 0 296 225" version="1.1" xmlns="http://www.w3.org/2000/svg" xmlns:xlink="http://www.w3.org/1999/xlink">
    <!-- Generator: Sketch 42 (36781) - http://www.bohemiancoding.com/sketch -->
    <title>Bloc 03</title>
    <desc>Created with Sketch.</desc>
    <defs>
        <rect id="path-1" x="0" y="0" width="290" height="219" rx="4"></rect>
        <filter x="-50%" y="-50%" width="200%" height="200%" filterUnits="objectBoundingBox" id="filter-2">
            <feOffset dx="0" dy="2" in="SourceAlpha" result="shadowOffsetOuter1"></feOffset>
            <feGaussianBlur stdDeviation="1.5" in="shadowOffsetOuter1" result="shadowBlurOuter1"></feGaussianBlur>
            <feComposite in="shadowBlurOuter1" in2="SourceAlpha" operator="out" result="shadowBlurOuter1"></feComposite>
            <feColorMatrix values="0 0 0 0 0.823529412   0 0 0 0 0.854901961   0 0 0 0 0.905882353  0 0 0 0.45 0" type="matrix" in="shadowBlurOuter1"></feColorMatrix>
        </filter>
        <mask id="mask-3" maskContentUnits="userSpaceOnUse" maskUnits="objectBoundingBox" x="0" y="0" width="290" height="219" fill="white">
            <use xlink:href="#path-1"></use>
        </mask>
    </defs>
    <g id="Page-1" stroke="none" stroke-width="1" fill="none" fill-rule="evenodd">
        <g id="Desktop-HD" transform="translate(-865.000000, -395.000000)">
            <g id="PREMIERE-LAME" transform="translate(-155.000000, -21.000000)">
                <g id="Bloc-03" transform="translate(1023.000000, 417.000000)">
                    <g id="Fond-Bloc-">
                        <use fill="black" fill-opacity="1" filter="url(#filter-2)" xlink:href="#path-1"></use>
                        <use stroke-opacity="0.198228034" stroke="#657077" mask="url(#mask-3)" stroke-width="2" fill="#FFFFFF" fill-rule="evenodd" xlink:href="#path-1"></use>
                    </g>
                    <path d="M51.2109375,71 L47.578125,61.5078125 L47.5195312,61.5078125 C47.587891,62.2597694 47.6220703,63.1533151 47.6220703,64.1884766 L47.6220703,71 L46.472168,71 L46.472168,60.2919922 L48.347168,60.2919922 L51.7382812,69.125 L51.796875,69.125 L55.2172852,60.2919922 L57.0776367,60.2919922 L57.0776367,71 L55.8325195,71 L55.8325195,64.1005859 C55.8325195,63.3095664 55.8666989,62.4502 55.9350586,61.5224609 L55.8764648,61.5224609 L52.2143555,71 L51.2109375,71 Z M64.7680664,71 L64.5263672,69.8574219 L64.4677734,69.8574219 C64.0673808,70.3603541 63.6682149,70.7009268 63.2702637,70.8791504 C62.8723125,71.0573739 62.3754913,71.1464844 61.7797852,71.1464844 C60.9838827,71.1464844 60.3601097,70.9414083 59.9084473,70.53125 C59.4567849,70.1210917 59.230957,69.5376014 59.230957,68.7807617 C59.230957,67.1596599 60.5273308,66.310059 63.1201172,66.2319336 L64.4824219,66.1879883 L64.4824219,65.6899414 C64.4824219,65.0600554 64.3469252,64.5949722 64.0759277,64.2946777 C63.8049303,63.9943833 63.371585,63.8442383 62.7758789,63.8442383 C62.1069302,63.8442383 61.3501019,64.0493144 60.5053711,64.4594727 L60.1318359,63.5292969 C60.5273457,63.3144521 60.960691,63.1459967 61.4318848,63.0239258 C61.9030785,62.9018549 62.3754859,62.8408203 62.8491211,62.8408203 C63.8061571,62.8408203 64.5153786,63.0532205 64.9768066,63.4780273 C65.4382347,63.9028342 65.6689453,64.5839797 65.6689453,65.5214844 L65.6689453,71 L64.7680664,71 Z M62.0214844,70.1430664 C62.7783241,70.1430664 63.3728006,69.935549 63.8049316,69.5205078 C64.2370627,69.1054667 64.453125,68.5244178 64.453125,67.7773438 L64.453125,67.0522461 L63.2373047,67.1035156 C62.270503,67.1376955 61.5734885,67.2878405 61.1462402,67.5539551 C60.718992,67.8200697 60.5053711,68.2338839 60.5053711,68.7954102 C60.5053711,69.2348655 60.6384264,69.5693348 60.904541,69.7988281 C61.1706556,70.0283215 61.5429664,70.1430664 62.0214844,70.1430664 Z M69.375,66.8911133 C69.584962,66.5932602 69.904783,66.2026391 70.3344727,65.7192383 L72.9272461,62.9726562 L74.3701172,62.9726562 L71.1181641,66.3930664 L74.597168,71 L73.125,71 L70.2905273,67.2060547 L69.375,67.9970703 L69.375,71 L68.1738281,71 L68.1738281,59.6035156 L69.375,59.6035156 L69.375,65.6459961 C69.375,65.9145521 69.3554689,66.329587 69.3164062,66.8911133 L69.375,66.8911133 Z M79.4384766,71.1464844 C78.2519472,71.1464844 77.3156773,70.7851599 76.6296387,70.0625 C75.9436001,69.3398401 75.6005859,68.3364322 75.6005859,67.0522461 C75.6005859,65.7582943 75.9191863,64.7304726 76.5563965,63.96875 C77.1936067,63.2070274 78.049311,62.8261719 79.1235352,62.8261719 C80.1293996,62.8261719 80.92529,63.1569791 81.5112305,63.8186035 C82.0971709,64.4802279 82.3901367,65.3530219 82.3901367,66.4370117 L82.3901367,67.2060547 L76.8603516,67.2060547 C76.8847657,68.1484422 77.1228005,68.8637671 77.5744629,69.3520508 C78.0261253,69.8403345 78.6621053,70.0844727 79.4824219,70.0844727 C80.346684,70.0844727 81.2011677,69.9038104 82.0458984,69.5424805 L82.0458984,70.6264648 C81.6162088,70.8120126 81.2097187,70.945068 80.826416,71.0256348 C80.4431133,71.1062016 79.9804715,71.1464844 79.4384766,71.1464844 Z M79.1088867,63.8442383 C78.4643522,63.8442383 77.9504414,64.0541971 77.5671387,64.4741211 C77.183836,64.8940451 76.9580082,65.4750939 76.8896484,66.2172852 L81.0864258,66.2172852 C81.0864258,65.4506798 80.9155291,64.8635274 80.5737305,64.4558105 C80.2319319,64.0480937 79.7436555,63.8442383 79.1088867,63.8442383 Z M93.8232422,69.9233398 L93.7573242,69.9233398 C93.195798,70.7387736 92.3559626,71.1464844 91.237793,71.1464844 C90.187983,71.1464844 89.3713408,70.7876012 88.7878418,70.0698242 C88.2043428,69.3520472 87.9125977,68.3315496 87.9125977,67.0083008 C87.9125977,65.685052 88.2055635,64.6572302 88.7915039,63.9248047 C89.3774443,63.1923792 90.1928659,62.8261719 91.237793,62.8261719 C92.3266656,62.8261719 93.1616182,63.2216757 93.7426758,64.0126953 L93.8378906,64.0126953 L93.7866211,63.434082 L93.7573242,62.8701172 L93.7573242,59.6035156 L94.9731445,59.6035156 L94.9731445,71 L93.984375,71 L93.8232422,69.9233398 Z M91.3916016,70.128418 C92.2216838,70.128418 92.8234845,69.9025901 93.1970215,69.4509277 C93.5705585,68.9992653 93.7573242,68.2705128 93.7573242,67.2646484 L93.7573242,67.0083008 C93.7573242,65.8705998 93.5681171,65.0588403 93.1896973,64.572998 C92.8112774,64.0871558 92.2070354,63.8442383 91.3769531,63.8442383 C90.6640589,63.8442383 90.1184101,64.1213351 89.7399902,64.6755371 C89.3615704,65.2297391 89.1723633,66.012202 89.1723633,67.0229492 C89.1723633,68.048345 89.3603497,68.822263 89.7363281,69.3447266 C90.1123066,69.8671901 90.6640589,70.128418 91.3916016,70.128418 Z M100.942383,71.1464844 C99.7558534,71.1464844 98.8195835,70.7851599 98.1335449,70.0625 C97.4475063,69.3398401 97.1044922,68.3364322 97.1044922,67.0522461 C97.1044922,65.7582943 97.4230925,64.7304726 98.0603027,63.96875 C98.697513,63.2070274 99.5532173,62.8261719 100.627441,62.8261719 C101.633306,62.8261719 102.429196,63.1569791 103.015137,63.8186035 C103.601077,64.4802279 103.894043,65.3530219 103.894043,66.4370117 L103.894043,67.2060547 L98.3642578,67.2060547 C98.388672,68.1484422 98.6267067,68.8637671 99.0783691,69.3520508 C99.5300316,69.8403345 100.166012,70.0844727 100.986328,70.0844727 C101.85059,70.0844727 102.705074,69.9038104 103.549805,69.5424805 L103.549805,70.6264648 C103.120115,70.8120126 102.713625,70.945068 102.330322,71.0256348 C101.94702,71.1062016 101.484378,71.1464844 100.942383,71.1464844 Z M100.612793,63.8442383 C99.9682585,63.8442383 99.4543476,64.0541971 99.0710449,64.4741211 C98.6877422,64.8940451 98.4619144,65.4750939 98.3935547,66.2172852 L102.590332,66.2172852 C102.590332,65.4506798 102.419435,64.8635274 102.077637,64.4558105 C101.735838,64.0480937 101.247562,63.8442383 100.612793,63.8442383 Z M109.174805,71.1464844 C108.01269,71.1464844 107.11304,70.7888219 106.47583,70.0734863 C105.83862,69.3581507 105.52002,68.3461979 105.52002,67.0375977 C105.52002,65.6948175 105.843503,64.6572302 106.490479,63.9248047 C107.137454,63.1923792 108.059076,62.8261719 109.255371,62.8261719 C109.641115,62.8261719 110.026854,62.8676754 110.412598,62.9506836 C110.798342,63.0336918 111.101073,63.1313471 111.320801,63.2436523 L110.947266,64.2763672 C110.67871,64.1689448 110.385744,64.0798343 110.068359,64.0090332 C109.750975,63.9382321 109.470216,63.902832 109.226074,63.902832 C107.595207,63.902832 106.779785,64.9428607 106.779785,67.0229492 C106.779785,68.0092823 106.978758,68.7661106 107.376709,69.293457 C107.77466,69.8208034 108.364254,70.0844727 109.145508,70.0844727 C109.814456,70.0844727 110.500485,69.9404311 111.203613,69.6523438 L111.203613,70.7290039 C110.666501,71.0073256 109.990238,71.1464844 109.174805,71.1464844 Z M114.32373,71 L113.10791,71 L113.10791,62.9726562 L114.32373,62.9726562 L114.32373,71 Z M113.005371,60.7973633 C113.005371,60.5190416 113.07373,60.3151862 113.210449,60.185791 C113.347169,60.0563958 113.518065,59.9916992 113.723145,59.9916992 C113.918458,59.9916992 114.086913,60.0576165 114.228516,60.1894531 C114.370118,60.3212897 114.440918,60.5239244 114.440918,60.7973633 C114.440918,61.0708021 114.370118,61.2746575 114.228516,61.4089355 C114.086913,61.5432136 113.918458,61.6103516 113.723145,61.6103516 C113.518065,61.6103516 113.347169,61.5432136 113.210449,61.4089355 C113.07373,61.2746575 113.005371,61.0708021 113.005371,60.7973633 Z M122.080078,68.8100586 C122.080078,69.5571326 121.801761,70.1332988 121.245117,70.5385742 C120.688474,70.9438497 119.907232,71.1464844 118.901367,71.1464844 C117.836909,71.1464844 117.006839,70.978029 116.411133,70.6411133 L116.411133,69.5131836 C116.796877,69.7084971 117.210691,69.8623041 117.652588,69.9746094 C118.094485,70.0869146 118.520506,70.1430664 118.930664,70.1430664 C119.565433,70.1430664 120.053709,70.0417491 120.395508,69.8391113 C120.737306,69.6364736 120.908203,69.3276388 120.908203,68.9125977 C120.908203,68.6000961 120.772706,68.3327648 120.501709,68.1105957 C120.230712,67.8884266 119.702152,67.6259781 118.916016,67.3232422 C118.168942,67.0449205 117.637941,66.802003 117.322998,66.5944824 C117.008055,66.3869619 116.773682,66.1513685 116.619873,65.8876953 C116.466064,65.6240221 116.38916,65.3090839 116.38916,64.9428711 C116.38916,64.2885709 116.655271,63.7722187 117.1875,63.3937988 C117.719729,63.015379 118.449702,62.8261719 119.377441,62.8261719 C120.241704,62.8261719 121.086422,63.0019514 121.911621,63.3535156 L121.479492,64.3422852 C120.673824,64.0102522 119.943851,63.8442383 119.289551,63.8442383 C118.713376,63.8442383 118.27881,63.9345694 117.98584,64.1152344 C117.69287,64.2958993 117.546387,64.5449203 117.546387,64.8623047 C117.546387,65.0771495 117.601318,65.2602531 117.711182,65.4116211 C117.821045,65.562989 117.998046,65.7070306 118.242188,65.84375 C118.486329,65.9804694 118.955075,66.1782214 119.648438,66.4370117 C120.600591,66.7836931 121.243895,67.1328107 121.578369,67.484375 C121.912843,67.8359393 122.080078,68.2778294 122.080078,68.8100586 Z M125.273438,71 L124.057617,71 L124.057617,62.9726562 L125.273438,62.9726562 L125.273438,71 Z M123.955078,60.7973633 C123.955078,60.5190416 124.023437,60.3151862 124.160156,60.185791 C124.296876,60.0563958 124.467772,59.9916992 124.672852,59.9916992 C124.868165,59.9916992 125.03662,60.0576165 125.178223,60.1894531 C125.319825,60.3212897 125.390625,60.5239244 125.390625,60.7973633 C125.390625,61.0708021 125.319825,61.2746575 125.178223,61.4089355 C125.03662,61.5432136 124.868165,61.6103516 124.672852,61.6103516 C124.467772,61.6103516 124.296876,61.5432136 124.160156,61.4089355 C124.023437,61.2746575 123.955078,61.0708021 123.955078,60.7973633 Z M134.780273,66.9790039 C134.780273,68.2876042 134.450687,69.3093225 133.791504,70.0441895 C133.132321,70.7790564 132.221685,71.1464844 131.05957,71.1464844 C130.341793,71.1464844 129.704593,70.978029 129.147949,70.6411133 C128.591306,70.3041975 128.161623,69.8208039 127.858887,69.190918 C127.556151,68.561032 127.404785,67.8237347 127.404785,66.9790039 C127.404785,65.6704036 127.73193,64.6511267 128.38623,63.9211426 C129.040531,63.1911585 129.948725,62.8261719 131.11084,62.8261719 C132.233892,62.8261719 133.126217,63.1997033 133.787842,63.9467773 C134.449466,64.6938514 134.780273,65.7045835 134.780273,66.9790039 Z M128.664551,66.9790039 C128.664551,68.0043997 128.869627,68.7856418 129.279785,69.3227539 C129.689943,69.859866 130.292965,70.128418 131.088867,70.128418 C131.88477,70.128418 132.489012,69.8610867 132.901611,69.326416 C133.314211,68.7917454 133.520508,68.0092825 133.520508,66.9790039 C133.520508,65.958491 133.314211,65.1833523 132.901611,64.6535645 C132.489012,64.1237766 131.879887,63.8588867 131.074219,63.8588867 C130.278316,63.8588867 129.677736,64.1201146 129.272461,64.6425781 C128.867185,65.1650417 128.664551,65.9438425 128.664551,66.9790039 Z M142.404785,71 L142.404785,65.8071289 C142.404785,65.1528288 142.255861,64.6645524 141.958008,64.3422852 C141.660155,64.0200179 141.193851,63.8588867 140.559082,63.8588867 C139.719234,63.8588867 139.104006,64.0859352 138.713379,64.5400391 C138.322752,64.9941429 138.127441,65.7436471 138.127441,66.7885742 L138.127441,71 L136.911621,71 L136.911621,62.9726562 L137.900391,62.9726562 L138.098145,64.0712891 L138.156738,64.0712891 C138.405763,63.6757793 138.754881,63.3693859 139.204102,63.1520996 C139.653323,62.9348134 140.153806,62.8261719 140.705566,62.8261719 C141.672368,62.8261719 142.3999,63.0593238 142.888184,63.5256348 C143.376467,63.9919457 143.620605,64.7377878 143.620605,65.7631836 L143.620605,71 L142.404785,71 Z M151.296387,68.8100586 C151.296387,69.5571326 151.018069,70.1332988 150.461426,70.5385742 C149.904782,70.9438497 149.12354,71.1464844 148.117676,71.1464844 C147.053217,71.1464844 146.223148,70.978029 145.627441,70.6411133 L145.627441,69.5131836 C146.013186,69.7084971 146.427,69.8623041 146.868896,69.9746094 C147.310793,70.0869146 147.736814,70.1430664 148.146973,70.1430664 C148.781741,70.1430664 149.270018,70.0417491 149.611816,69.8391113 C149.953615,69.6364736 150.124512,69.3276388 150.124512,68.9125977 C150.124512,68.6000961 149.989015,68.3327648 149.718018,68.1105957 C149.44702,67.8884266 148.918461,67.6259781 148.132324,67.3232422 C147.38525,67.0449205 146.85425,66.802003 146.539307,66.5944824 C146.224364,66.3869619 145.989991,66.1513685 145.836182,65.8876953 C145.682372,65.6240221 145.605469,65.3090839 145.605469,64.9428711 C145.605469,64.2885709 145.871579,63.7722187 146.403809,63.3937988 C146.936038,63.015379 147.666011,62.8261719 148.59375,62.8261719 C149.458012,62.8261719 150.30273,63.0019514 151.12793,63.3535156 L150.695801,64.3422852 C149.890133,64.0102522 149.16016,63.8442383 148.505859,63.8442383 C147.929685,63.8442383 147.495119,63.9345694 147.202148,64.1152344 C146.909178,64.2958993 146.762695,64.5449203 146.762695,64.8623047 C146.762695,65.0771495 146.817626,65.2602531 146.92749,65.4116211 C147.037354,65.562989 147.214354,65.7070306 147.458496,65.84375 C147.702638,65.9804694 148.171383,66.1782214 148.864746,66.4370117 C149.816899,66.7836931 150.460203,67.1328107 150.794678,67.484375 C151.129152,67.8359393 151.296387,68.2778294 151.296387,68.8100586 Z M159.763184,70.1430664 C159.978028,70.1430664 160.185546,70.1271974 160.385742,70.095459 C160.585939,70.0637205 160.744628,70.0307619 160.861816,69.996582 L160.861816,70.9267578 C160.72998,70.9902347 160.53589,71.0427244 160.279541,71.0842285 C160.023192,71.1257326 159.792481,71.1464844 159.587402,71.1464844 C158.03466,71.1464844 157.258301,70.3286215 157.258301,68.6928711 L157.258301,63.9174805 L156.108398,63.9174805 L156.108398,63.331543 L157.258301,62.8261719 L157.770996,61.1123047 L158.474121,61.1123047 L158.474121,62.9726562 L160.803223,62.9726562 L160.803223,63.9174805 L158.474121,63.9174805 L158.474121,68.6416016 C158.474121,69.1250024 158.588866,69.4960925 158.818359,69.7548828 C159.047853,70.0136732 159.362791,70.1430664 159.763184,70.1430664 Z M169.394531,66.9790039 C169.394531,68.2876042 169.064945,69.3093225 168.405762,70.0441895 C167.746579,70.7790564 166.835943,71.1464844 165.673828,71.1464844 C164.956051,71.1464844 164.31885,70.978029 163.762207,70.6411133 C163.205564,70.3041975 162.77588,69.8208039 162.473145,69.190918 C162.170409,68.561032 162.019043,67.8237347 162.019043,66.9790039 C162.019043,65.6704036 162.346188,64.6511267 163.000488,63.9211426 C163.654788,63.1911585 164.562982,62.8261719 165.725098,62.8261719 C166.84815,62.8261719 167.740475,63.1997033 168.4021,63.9467773 C169.063724,64.6938514 169.394531,65.7045835 169.394531,66.9790039 Z M163.278809,66.9790039 C163.278809,68.0043997 163.483885,68.7856418 163.894043,69.3227539 C164.304201,69.859866 164.907223,70.128418 165.703125,70.128418 C166.499027,70.128418 167.103269,69.8610867 167.515869,69.326416 C167.928469,68.7917454 168.134766,68.0092825 168.134766,66.9790039 C168.134766,65.958491 167.928469,65.1833523 167.515869,64.6535645 C167.103269,64.1237766 166.494145,63.8588867 165.688477,63.8588867 C164.892574,63.8588867 164.291994,64.1201146 163.886719,64.6425781 C163.481443,65.1650417 163.278809,65.9438425 163.278809,66.9790039 Z M178.095703,62.9726562 L178.095703,63.7416992 L176.608887,63.9174805 C176.745606,64.0883798 176.867675,64.3117662 176.975098,64.5876465 C177.08252,64.8635268 177.13623,65.174803 177.13623,65.5214844 C177.13623,66.3076211 176.867678,66.9350563 176.330566,67.4038086 C175.793454,67.8725609 175.056157,68.1069336 174.118652,68.1069336 C173.879393,68.1069336 173.654786,68.0874025 173.444824,68.0483398 C172.927244,68.3217787 172.668457,68.6660135 172.668457,69.0810547 C172.668457,69.3007823 172.758788,69.4631342 172.939453,69.5681152 C173.120118,69.6730962 173.430174,69.7255859 173.869629,69.7255859 L175.290527,69.7255859 C176.159672,69.7255859 176.82739,69.9086896 177.293701,70.2749023 C177.760012,70.6411151 177.993164,71.1733364 177.993164,71.871582 C177.993164,72.7602583 177.636722,73.4377418 176.923828,73.9040527 C176.210934,74.3703637 175.170905,74.6035156 173.803711,74.6035156 C172.753901,74.6035156 171.944583,74.4082051 171.375732,74.0175781 C170.806882,73.6269512 170.522461,73.0751989 170.522461,72.3623047 C170.522461,71.874021 170.678709,71.4516619 170.991211,71.0952148 C171.303713,70.7387677 171.743161,70.4970709 172.30957,70.3701172 C172.104491,70.2773433 171.932374,70.1333018 171.793213,69.9379883 C171.654052,69.7426748 171.584473,69.5156263 171.584473,69.2568359 C171.584473,68.9638657 171.662597,68.7075206 171.818848,68.487793 C171.975098,68.2680653 172.221678,68.0556651 172.558594,67.8505859 C172.143553,67.6796866 171.805421,67.3891622 171.544189,66.9790039 C171.282958,66.5688456 171.152344,66.1001003 171.152344,65.5727539 C171.152344,64.6938433 171.416013,64.0163598 171.943359,63.5402832 C172.470706,63.0642066 173.217769,62.8261719 174.18457,62.8261719 C174.604494,62.8261719 174.982908,62.8749995 175.319824,62.9726562 L178.095703,62.9726562 Z M171.694336,72.3476562 C171.694336,72.7822287 171.87744,73.1118153 172.243652,73.3364258 C172.609865,73.5610363 173.134762,73.6733398 173.818359,73.6733398 C174.838872,73.6733398 175.59448,73.5207535 176.085205,73.2155762 C176.57593,72.9103989 176.821289,72.4965846 176.821289,71.9741211 C176.821289,71.5395486 176.687013,71.238038 176.418457,71.0695801 C176.149901,70.9011222 175.644535,70.8168945 174.902344,70.8168945 L173.444824,70.8168945 C172.893064,70.8168945 172.46338,70.9487292 172.155762,71.2124023 C171.848143,71.4760755 171.694336,71.8544897 171.694336,72.3476562 Z M172.353516,65.543457 C172.353516,66.1049833 172.512205,66.5297837 172.82959,66.8178711 C173.146974,67.1059585 173.588864,67.25 174.155273,67.25 C175.341803,67.25 175.935059,66.6738339 175.935059,65.5214844 C175.935059,64.3154237 175.334479,63.7124023 174.133301,63.7124023 C173.562009,63.7124023 173.12256,63.8662094 172.814941,64.1738281 C172.507323,64.4814469 172.353516,64.9379853 172.353516,65.543457 Z M183.134766,71.1464844 C181.948236,71.1464844 181.011966,70.7851599 180.325928,70.0625 C179.639889,69.3398401 179.296875,68.3364322 179.296875,67.0522461 C179.296875,65.7582943 179.615475,64.7304726 180.252686,63.96875 C180.889896,63.2070274 181.7456,62.8261719 182.819824,62.8261719 C183.825689,62.8261719 184.621579,63.1569791 185.20752,63.8186035 C185.79346,64.4802279 186.086426,65.3530219 186.086426,66.4370117 L186.086426,67.2060547 L180.556641,67.2060547 C180.581055,68.1484422 180.81909,68.8637671 181.270752,69.3520508 C181.722414,69.8403345 182.358394,70.0844727 183.178711,70.0844727 C184.042973,70.0844727 184.897457,69.9038104 185.742188,69.5424805 L185.742188,70.6264648 C185.312498,70.8120126 184.906008,70.945068 184.522705,71.0256348 C184.139402,71.1062016 183.676761,71.1464844 183.134766,71.1464844 Z M182.805176,63.8442383 C182.160641,63.8442383 181.64673,64.0541971 181.263428,64.4741211 C180.880125,64.8940451 180.654297,65.4750939 180.585938,66.2172852 L184.782715,66.2172852 C184.782715,65.4506798 184.611818,64.8635274 184.27002,64.4558105 C183.928221,64.0480937 183.439945,63.8442383 182.805176,63.8442383 Z M190.751953,70.1430664 C190.966798,70.1430664 191.174315,70.1271974 191.374512,70.095459 C191.574708,70.0637205 191.733398,70.0307619 191.850586,69.996582 L191.850586,70.9267578 C191.718749,70.9902347 191.524659,71.0427244 191.268311,71.0842285 C191.011962,71.1257326 190.781251,71.1464844 190.576172,71.1464844 C189.02343,71.1464844 188.24707,70.3286215 188.24707,68.6928711 L188.24707,63.9174805 L187.097168,63.9174805 L187.097168,63.331543 L188.24707,62.8261719 L188.759766,61.1123047 L189.462891,61.1123047 L189.462891,62.9726562 L191.791992,62.9726562 L191.791992,63.9174805 L189.462891,63.9174805 L189.462891,68.6416016 C189.462891,69.1250024 189.577636,69.4960925 189.807129,69.7548828 C190.036622,70.0136732 190.35156,70.1430664 190.751953,70.1430664 Z M198.947754,71 L198.947754,65.8071289 C198.947754,65.1528288 198.79883,64.6645524 198.500977,64.3422852 C198.203124,64.0200179 197.73682,63.8588867 197.102051,63.8588867 C196.25732,63.8588867 195.640871,64.0883766 195.252686,64.5473633 C194.8645,65.00635 194.67041,65.7582956 194.67041,66.8032227 L194.67041,71 L193.45459,71 L193.45459,59.6035156 L194.67041,59.6035156 L194.67041,63.0532227 C194.67041,63.4682638 194.650879,63.8124986 194.611816,64.0859375 L194.685059,64.0859375 C194.924318,63.7001934 195.26489,63.3962413 195.706787,63.1740723 C196.148684,62.9519032 196.652829,62.8408203 197.219238,62.8408203 C198.200689,62.8408203 198.936765,63.0739723 199.42749,63.5402832 C199.918215,64.0065941 200.163574,64.7475535 200.163574,65.7631836 L200.163574,71 L198.947754,71 Z M206.052246,71.1464844 C204.865717,71.1464844 203.929447,70.7851599 203.243408,70.0625 C202.55737,69.3398401 202.214355,68.3364322 202.214355,67.0522461 C202.214355,65.7582943 202.532956,64.7304726 203.170166,63.96875 C203.807376,63.2070274 204.663081,62.8261719 205.737305,62.8261719 C206.743169,62.8261719 207.53906,63.1569791 208.125,63.8186035 C208.71094,64.4802279 209.003906,65.3530219 209.003906,66.4370117 L209.003906,67.2060547 L203.474121,67.2060547 C203.498535,68.1484422 203.73657,68.8637671 204.188232,69.3520508 C204.639895,69.8403345 205.275875,70.0844727 206.096191,70.0844727 C206.960454,70.0844727 207.814937,69.9038104 208.659668,69.5424805 L208.659668,70.6264648 C208.229978,70.8120126 207.823488,70.945068 207.440186,71.0256348 C207.056883,71.1062016 206.594241,71.1464844 206.052246,71.1464844 Z M205.722656,63.8442383 C205.078122,63.8442383 204.564211,64.0541971 204.180908,64.4741211 C203.797606,64.8940451 203.571778,65.4750939 203.503418,66.2172852 L207.700195,66.2172852 C207.700195,65.4506798 207.529299,64.8635274 207.1875,64.4558105 C206.845701,64.0480937 206.357425,63.8442383 205.722656,63.8442383 Z M214.73877,62.8261719 C215.095217,62.8261719 215.415038,62.8554685 215.698242,62.9140625 L215.529785,64.0419922 C215.197752,63.9687496 214.904786,63.9321289 214.650879,63.9321289 C214.001462,63.9321289 213.446047,64.1957981 212.984619,64.7231445 C212.523191,65.2504909 212.29248,65.9072226 212.29248,66.6933594 L212.29248,71 L211.07666,71 L211.07666,62.9726562 L212.080078,62.9726562 L212.219238,64.4594727 L212.277832,64.4594727 C212.575685,63.9370091 212.934568,63.5341811 213.354492,63.2509766 C213.774416,62.967772 214.235837,62.8261719 214.73877,62.8261719 Z M224.831543,62.8408203 C225.886236,62.8408203 226.705319,63.2009241 227.288818,63.9211426 C227.872317,64.641361 228.164062,65.6606379 228.164062,66.9790039 C228.164062,68.2973699 227.869876,69.3215296 227.281494,70.0515137 C226.693112,70.7814978 225.87647,71.1464844 224.831543,71.1464844 C224.309079,71.1464844 223.831789,71.0500498 223.399658,70.8571777 C222.967527,70.6643057 222.604982,70.3676778 222.312012,69.9672852 L222.224121,69.9672852 L221.967773,71 L221.096191,71 L221.096191,59.6035156 L222.312012,59.6035156 L222.312012,62.3720703 C222.312012,62.9921906 222.292481,63.5488257 222.253418,64.0419922 L222.312012,64.0419922 C222.878421,63.2412069 223.718256,62.8408203 224.831543,62.8408203 Z M224.655762,63.8588867 C223.825679,63.8588867 223.227541,64.0969214 222.861328,64.572998 C222.495115,65.0490746 222.312012,65.8510686 222.312012,66.9790039 C222.312012,68.1069392 222.499998,68.9138159 222.875977,69.3996582 C223.251955,69.8855005 223.854976,70.128418 224.685059,70.128418 C225.432133,70.128418 225.988768,69.8562039 226.35498,69.3117676 C226.721193,68.7673313 226.904297,67.9848684 226.904297,66.9643555 C226.904297,65.9194284 226.721193,65.1406276 226.35498,64.6279297 C225.988768,64.1152318 225.422367,63.8588867 224.655762,63.8588867 Z M229.013672,62.9726562 L230.317383,62.9726562 L232.075195,67.550293 C232.460939,68.5952201 232.700195,69.3496071 232.792969,69.8134766 L232.851562,69.8134766 C232.915039,69.5644519 233.048095,69.1384307 233.250732,68.5354004 C233.45337,67.93237 234.116205,66.0781405 235.239258,62.9726562 L236.542969,62.9726562 L233.093262,72.1132812 C232.751463,73.0166061 232.352297,73.6574688 231.895752,74.0358887 C231.439207,74.4143085 230.87891,74.6035156 230.214844,74.6035156 C229.843748,74.6035156 229.477541,74.5620121 229.116211,74.4790039 L229.116211,73.5048828 C229.384767,73.5634769 229.685057,73.5927734 230.01709,73.5927734 C230.852055,73.5927734 231.447752,73.1240281 231.804199,72.1865234 L232.250977,71.0439453 L229.013672,62.9726562 Z M48.8818359,90.1430664 C49.0966808,90.1430664 49.3041982,90.1271974 49.5043945,90.095459 C49.7045908,90.0637205 49.8632807,90.0307619 49.9804688,89.996582 L49.9804688,90.9267578 C49.8486322,90.9902347 49.6545423,91.0427244 49.3981934,91.0842285 C49.1418444,91.1257326 48.9111338,91.1464844 48.7060547,91.1464844 C47.1533125,91.1464844 46.3769531,90.3286215 46.3769531,88.6928711 L46.3769531,83.9174805 L45.2270508,83.9174805 L45.2270508,83.331543 L46.3769531,82.8261719 L46.8896484,81.1123047 L47.5927734,81.1123047 L47.5927734,82.9726562 L49.921875,82.9726562 L49.921875,83.9174805 L47.5927734,83.9174805 L47.5927734,88.6416016 C47.5927734,89.1250024 47.7075184,89.4960925 47.9370117,89.7548828 C48.1665051,90.0136732 48.4814433,90.1430664 48.8818359,90.1430664 Z M54.9755859,91.1464844 C53.7890566,91.1464844 52.8527866,90.7851599 52.166748,90.0625 C51.4807095,89.3398401 51.1376953,88.3364322 51.1376953,87.0522461 C51.1376953,85.7582943 51.4562956,84.7304726 52.0935059,83.96875 C52.7307161,83.2070274 53.5864204,82.8261719 54.6606445,82.8261719 C55.6665089,82.8261719 56.4623994,83.1569791 57.0483398,83.8186035 C57.6342803,84.4802279 57.9272461,85.3530219 57.9272461,86.4370117 L57.9272461,87.2060547 L52.3974609,87.2060547 C52.4218751,88.1484422 52.6599099,88.8637671 53.1115723,89.3520508 C53.5632347,89.8403345 54.1992146,90.0844727 55.0195312,90.0844727 C55.8837934,90.0844727 56.738277,89.9038104 57.5830078,89.5424805 L57.5830078,90.6264648 C57.1533182,90.8120126 56.7468281,90.945068 56.3635254,91.0256348 C55.9802227,91.1062016 55.5175808,91.1464844 54.9755859,91.1464844 Z M54.6459961,83.8442383 C54.0014616,83.8442383 53.4875507,84.0541971 53.104248,84.4741211 C52.7209453,84.8940451 52.4951175,85.4750939 52.4267578,86.2172852 L56.6235352,86.2172852 C56.6235352,85.4506798 56.4526384,84.8635274 56.1108398,84.4558105 C55.7690413,84.0480937 55.2807649,83.8442383 54.6459961,83.8442383 Z M61.9335938,86.8911133 L59.1430664,82.9726562 L60.5273438,82.9726562 L62.644043,86.0488281 L64.753418,82.9726562 L66.1230469,82.9726562 L63.3325195,86.8911133 L66.2695312,91 L64.8925781,91 L62.644043,87.7480469 L60.3735352,91 L58.996582,91 L61.9335938,86.8911133 Z M70.4516602,90.1430664 C70.666505,90.1430664 70.8740224,90.1271974 71.0742188,90.095459 C71.2744151,90.0637205 71.4331049,90.0307619 71.550293,89.996582 L71.550293,90.9267578 C71.4184564,90.9902347 71.2243665,91.0427244 70.9680176,91.0842285 C70.7116686,91.1257326 70.4809581,91.1464844 70.2758789,91.1464844 C68.7231368,91.1464844 67.9467773,90.3286215 67.9467773,88.6928711 L67.9467773,83.9174805 L66.796875,83.9174805 L66.796875,83.331543 L67.9467773,82.8261719 L68.4594727,81.1123047 L69.1625977,81.1123047 L69.1625977,82.9726562 L71.4916992,82.9726562 L71.4916992,83.9174805 L69.1625977,83.9174805 L69.1625977,88.6416016 C69.1625977,89.1250024 69.2773426,89.4960925 69.5068359,89.7548828 C69.7363293,90.0136732 70.0512675,90.1430664 70.4516602,90.1430664 Z M78.8085938,91 L75.7617188,82.9726562 L77.0654297,82.9726562 L78.7939453,87.7333984 C79.1845723,88.8466853 79.4140622,89.5693343 79.4824219,89.9013672 L79.5410156,89.9013672 C79.5947268,89.6425768 79.7644029,89.1066935 80.0500488,88.2937012 C80.3356948,87.4807088 80.9765575,85.7070449 81.9726562,82.9726562 L83.2763672,82.9726562 L80.2294922,91 L78.8085938,91 Z M91.4941406,86.9790039 C91.4941406,88.2876042 91.1645541,89.3093225 90.5053711,90.0441895 C89.8461881,90.7790564 88.9355527,91.1464844 87.7734375,91.1464844 C87.0556605,91.1464844 86.4184598,90.978029 85.8618164,90.6411133 C85.305173,90.3041975 84.8754898,89.8208039 84.5727539,89.190918 C84.270018,88.561032 84.1186523,87.8237347 84.1186523,86.9790039 C84.1186523,85.6704036 84.4457975,84.6511267 85.1000977,83.9211426 C85.7543978,83.1911585 86.6625918,82.8261719 87.824707,82.8261719 C88.9477595,82.8261719 89.8400846,83.1997033 90.501709,83.9467773 C91.1633334,84.6938514 91.4941406,85.7045835 91.4941406,86.9790039 Z M85.378418,86.9790039 C85.378418,88.0043997 85.583494,88.7856418 85.9936523,89.3227539 C86.4038106,89.859866 87.006832,90.128418 87.8027344,90.128418 C88.5986368,90.128418 89.2028788,89.8610867 89.6154785,89.326416 C90.0280782,88.7917454 90.234375,88.0092825 90.234375,86.9790039 C90.234375,85.958491 90.0280782,85.1833523 89.6154785,84.6535645 C89.2028788,84.1237766 88.593754,83.8588867 87.7880859,83.8588867 C86.9921835,83.8588867 86.3916036,84.1201146 85.9863281,84.6425781 C85.5810527,85.1650417 85.378418,85.9438425 85.378418,86.9790039 Z M96.2182617,90.1430664 C96.4331065,90.1430664 96.640624,90.1271974 96.8408203,90.095459 C97.0410166,90.0637205 97.1997064,90.0307619 97.3168945,89.996582 L97.3168945,90.9267578 C97.1850579,90.9902347 96.9909681,91.0427244 96.7346191,91.0842285 C96.4782702,91.1257326 96.2475596,91.1464844 96.0424805,91.1464844 C94.4897383,91.1464844 93.7133789,90.3286215 93.7133789,88.6928711 L93.7133789,83.9174805 L92.5634766,83.9174805 L92.5634766,83.331543 L93.7133789,82.8261719 L94.2260742,81.1123047 L94.9291992,81.1123047 L94.9291992,82.9726562 L97.2583008,82.9726562 L97.2583008,83.9174805 L94.9291992,83.9174805 L94.9291992,88.6416016 C94.9291992,89.1250024 95.0439442,89.4960925 95.2734375,89.7548828 C95.5029308,90.0136732 95.8178691,90.1430664 96.2182617,90.1430664 Z M100.136719,91 L98.9208984,91 L98.9208984,82.9726562 L100.136719,82.9726562 L100.136719,91 Z M98.8183594,80.7973633 C98.8183594,80.5190416 98.8867181,80.3151862 99.0234375,80.185791 C99.1601569,80.0563958 99.3310537,79.9916992 99.5361328,79.9916992 C99.7314463,79.9916992 99.8999016,80.0576165 100.041504,80.1894531 C100.183106,80.3212897 100.253906,80.5239244 100.253906,80.7973633 C100.253906,81.0708021 100.183106,81.2746575 100.041504,81.4089355 C99.8999016,81.5432136 99.7314463,81.6103516 99.5361328,81.6103516 C99.3310537,81.6103516 99.1601569,81.5432136 99.0234375,81.4089355 C98.8867181,81.2746575 98.8183594,81.0708021 98.8183594,80.7973633 Z M108.208008,91 L108.208008,85.8071289 C108.208008,85.1528288 108.059084,84.6645524 107.76123,84.3422852 C107.463377,84.0200179 106.997073,83.8588867 106.362305,83.8588867 C105.522457,83.8588867 104.907229,84.0859352 104.516602,84.5400391 C104.125975,84.9941429 103.930664,85.7436471 103.930664,86.7885742 L103.930664,91 L102.714844,91 L102.714844,82.9726562 L103.703613,82.9726562 L103.901367,84.0712891 L103.959961,84.0712891 C104.208986,83.6757793 104.558103,83.3693859 105.007324,83.1520996 C105.456545,82.9348134 105.957028,82.8261719 106.508789,82.8261719 C107.475591,82.8261719 108.203123,83.0593238 108.691406,83.5256348 C109.17969,83.9919457 109.423828,84.7377878 109.423828,85.7631836 L109.423828,91 L108.208008,91 Z M118.491211,82.9726562 L118.491211,83.7416992 L117.004395,83.9174805 C117.141114,84.0883798 117.263183,84.3117662 117.370605,84.5876465 C117.478028,84.8635268 117.531738,85.174803 117.531738,85.5214844 C117.531738,86.3076211 117.263186,86.9350563 116.726074,87.4038086 C116.188962,87.8725609 115.451665,88.1069336 114.51416,88.1069336 C114.274901,88.1069336 114.050294,88.0874025 113.840332,88.0483398 C113.322751,88.3217787 113.063965,88.6660135 113.063965,89.0810547 C113.063965,89.3007823 113.154296,89.4631342 113.334961,89.5681152 C113.515626,89.6730962 113.825681,89.7255859 114.265137,89.7255859 L115.686035,89.7255859 C116.55518,89.7255859 117.222898,89.9086896 117.689209,90.2749023 C118.15552,90.6411151 118.388672,91.1733364 118.388672,91.871582 C118.388672,92.7602583 118.03223,93.4377418 117.319336,93.9040527 C116.606442,94.3703637 115.566413,94.6035156 114.199219,94.6035156 C113.149409,94.6035156 112.340091,94.4082051 111.77124,94.0175781 C111.20239,93.6269512 110.917969,93.0751989 110.917969,92.3623047 C110.917969,91.874021 111.074217,91.4516619 111.386719,91.0952148 C111.69922,90.7387677 112.138669,90.4970709 112.705078,90.3701172 C112.499999,90.2773433 112.327882,90.1333018 112.188721,89.9379883 C112.04956,89.7426748 111.97998,89.5156263 111.97998,89.2568359 C111.97998,88.9638657 112.058105,88.7075206 112.214355,88.487793 C112.370606,88.2680653 112.617186,88.0556651 112.954102,87.8505859 C112.53906,87.6796866 112.200929,87.3891622 111.939697,86.9790039 C111.678465,86.5688456 111.547852,86.1001003 111.547852,85.5727539 C111.547852,84.6938433 111.811521,84.0163598 112.338867,83.5402832 C112.866214,83.0642066 113.613276,82.8261719 114.580078,82.8261719 C115.000002,82.8261719 115.378416,82.8749995 115.715332,82.9726562 L118.491211,82.9726562 Z M112.089844,92.3476562 C112.089844,92.7822287 112.272947,93.1118153 112.63916,93.3364258 C113.005373,93.5610363 113.53027,93.6733398 114.213867,93.6733398 C115.23438,93.6733398 115.989988,93.5207535 116.480713,93.2155762 C116.971438,92.9103989 117.216797,92.4965846 117.216797,91.9741211 C117.216797,91.5395486 117.082521,91.238038 116.813965,91.0695801 C116.545409,90.9011222 116.040043,90.8168945 115.297852,90.8168945 L113.840332,90.8168945 C113.288571,90.8168945 112.858888,90.9487292 112.55127,91.2124023 C112.243651,91.4760755 112.089844,91.8544897 112.089844,92.3476562 Z M112.749023,85.543457 C112.749023,86.1049833 112.907713,86.5297837 113.225098,86.8178711 C113.542482,87.1059585 113.984372,87.25 114.550781,87.25 C115.737311,87.25 116.330566,86.6738339 116.330566,85.5214844 C116.330566,84.3154237 115.729986,83.7124023 114.528809,83.7124023 C113.957517,83.7124023 113.518068,83.8662094 113.210449,84.1738281 C112.90283,84.4814469 112.749023,84.9379853 112.749023,85.543457 Z M128.972168,91 L128.730469,89.8574219 L128.671875,89.8574219 C128.271482,90.3603541 127.872316,90.7009268 127.474365,90.8791504 C127.076414,91.0573739 126.579593,91.1464844 125.983887,91.1464844 C125.187984,91.1464844 124.564211,90.9414083 124.112549,90.53125 C123.660886,90.1210917 123.435059,89.5376014 123.435059,88.7807617 C123.435059,87.1596599 124.731432,86.310059 127.324219,86.2319336 L128.686523,86.1879883 L128.686523,85.6899414 C128.686523,85.0600554 128.551027,84.5949722 128.280029,84.2946777 C128.009032,83.9943833 127.575687,83.8442383 126.97998,83.8442383 C126.311032,83.8442383 125.554203,84.0493144 124.709473,84.4594727 L124.335938,83.5292969 C124.731447,83.3144521 125.164793,83.1459967 125.635986,83.0239258 C126.10718,82.9018549 126.579587,82.8408203 127.053223,82.8408203 C128.010259,82.8408203 128.71948,83.0532205 129.180908,83.4780273 C129.642336,83.9028342 129.873047,84.5839797 129.873047,85.5214844 L129.873047,91 L128.972168,91 Z M126.225586,90.1430664 C126.982426,90.1430664 127.576902,89.935549 128.009033,89.5205078 C128.441164,89.1054667 128.657227,88.5244178 128.657227,87.7773438 L128.657227,87.0522461 L127.441406,87.1035156 C126.474605,87.1376955 125.77759,87.2878405 125.350342,87.5539551 C124.923094,87.8200697 124.709473,88.2338839 124.709473,88.7954102 C124.709473,89.2348655 124.842528,89.5693348 125.108643,89.7988281 C125.374757,90.0283215 125.747068,90.1430664 126.225586,90.1430664 Z M137.871094,91 L137.871094,85.8071289 C137.871094,85.1528288 137.722169,84.6645524 137.424316,84.3422852 C137.126463,84.0200179 136.660159,83.8588867 136.025391,83.8588867 C135.185543,83.8588867 134.570314,84.0859352 134.179688,84.5400391 C133.789061,84.9941429 133.59375,85.7436471 133.59375,86.7885742 L133.59375,91 L132.37793,91 L132.37793,82.9726562 L133.366699,82.9726562 L133.564453,84.0712891 L133.623047,84.0712891 C133.872072,83.6757793 134.221189,83.3693859 134.67041,83.1520996 C135.119631,82.9348134 135.620114,82.8261719 136.171875,82.8261719 C137.138677,82.8261719 137.866208,83.0593238 138.354492,83.5256348 C138.842776,83.9919457 139.086914,84.7377878 139.086914,85.7631836 L139.086914,91 L137.871094,91 Z M147.04834,89.9233398 L146.982422,89.9233398 C146.420896,90.7387736 145.58106,91.1464844 144.462891,91.1464844 C143.413081,91.1464844 142.596438,90.7876012 142.012939,90.0698242 C141.42944,89.3520472 141.137695,88.3315496 141.137695,87.0083008 C141.137695,85.685052 141.430661,84.6572302 142.016602,83.9248047 C142.602542,83.1923792 143.417964,82.8261719 144.462891,82.8261719 C145.551763,82.8261719 146.386716,83.2216757 146.967773,84.0126953 L147.062988,84.0126953 L147.011719,83.434082 L146.982422,82.8701172 L146.982422,79.6035156 L148.198242,79.6035156 L148.198242,91 L147.209473,91 L147.04834,89.9233398 Z M144.616699,90.128418 C145.446781,90.128418 146.048582,89.9025901 146.422119,89.4509277 C146.795656,88.9992653 146.982422,88.2705128 146.982422,87.2646484 L146.982422,87.0083008 C146.982422,85.8705998 146.793215,85.0588403 146.414795,84.572998 C146.036375,84.0871558 145.432133,83.8442383 144.602051,83.8442383 C143.889157,83.8442383 143.343508,84.1213351 142.965088,84.6755371 C142.586668,85.2297391 142.397461,86.012202 142.397461,87.0229492 C142.397461,88.048345 142.585447,88.822263 142.961426,89.3447266 C143.337404,89.8671901 143.889157,90.128418 144.616699,90.128418 Z M157.265625,90.1430664 C157.48047,90.1430664 157.687987,90.1271974 157.888184,90.095459 C158.08838,90.0637205 158.24707,90.0307619 158.364258,89.996582 L158.364258,90.9267578 C158.232421,90.9902347 158.038331,91.0427244 157.781982,91.0842285 C157.525633,91.1257326 157.294923,91.1464844 157.089844,91.1464844 C155.537102,91.1464844 154.760742,90.3286215 154.760742,88.6928711 L154.760742,83.9174805 L153.61084,83.9174805 L153.61084,83.331543 L154.760742,82.8261719 L155.273438,81.1123047 L155.976562,81.1123047 L155.976562,82.9726562 L158.305664,82.9726562 L158.305664,83.9174805 L155.976562,83.9174805 L155.976562,88.6416016 C155.976562,89.1250024 156.091307,89.4960925 156.320801,89.7548828 C156.550294,90.0136732 156.865232,90.1430664 157.265625,90.1430664 Z M163.359375,91.1464844 C162.172846,91.1464844 161.236576,90.7851599 160.550537,90.0625 C159.864499,89.3398401 159.521484,88.3364322 159.521484,87.0522461 C159.521484,85.7582943 159.840085,84.7304726 160.477295,83.96875 C161.114505,83.2070274 161.970209,82.8261719 163.044434,82.8261719 C164.050298,82.8261719 164.846188,83.1569791 165.432129,83.8186035 C166.018069,84.4802279 166.311035,85.3530219 166.311035,86.4370117 L166.311035,87.2060547 L160.78125,87.2060547 C160.805664,88.1484422 161.043699,88.8637671 161.495361,89.3520508 C161.947024,89.8403345 162.583004,90.0844727 163.40332,90.0844727 C164.267582,90.0844727 165.122066,89.9038104 165.966797,89.5424805 L165.966797,90.6264648 C165.537107,90.8120126 165.130617,90.945068 164.747314,91.0256348 C164.364012,91.1062016 163.90137,91.1464844 163.359375,91.1464844 Z M163.029785,83.8442383 C162.385251,83.8442383 161.87134,84.0541971 161.488037,84.4741211 C161.104734,84.8940451 160.878907,85.4750939 160.810547,86.2172852 L165.007324,86.2172852 C165.007324,85.4506798 164.836427,84.8635274 164.494629,84.4558105 C164.15283,84.0480937 163.664554,83.8442383 163.029785,83.8442383 Z M173.562012,88.8100586 C173.562012,89.5571326 173.283694,90.1332988 172.727051,90.5385742 C172.170407,90.9438497 171.389165,91.1464844 170.383301,91.1464844 C169.318842,91.1464844 168.488773,90.978029 167.893066,90.6411133 L167.893066,89.5131836 C168.278811,89.7084971 168.692625,89.8623041 169.134521,89.9746094 C169.576418,90.0869146 170.002439,90.1430664 170.412598,90.1430664 C171.047366,90.1430664 171.535643,90.0417491 171.877441,89.8391113 C172.21924,89.6364736 172.390137,89.3276388 172.390137,88.9125977 C172.390137,88.6000961 172.25464,88.3327648 171.983643,88.1105957 C171.712645,87.8884266 171.184086,87.6259781 170.397949,87.3232422 C169.650875,87.0449205 169.119875,86.802003 168.804932,86.5944824 C168.489989,86.3869619 168.255616,86.1513685 168.101807,85.8876953 C167.947997,85.6240221 167.871094,85.3090839 167.871094,84.9428711 C167.871094,84.2885709 168.137204,83.7722187 168.669434,83.3937988 C169.201663,83.015379 169.931636,82.8261719 170.859375,82.8261719 C171.723637,82.8261719 172.568355,83.0019514 173.393555,83.3535156 L172.961426,84.3422852 C172.155758,84.0102522 171.425785,83.8442383 170.771484,83.8442383 C170.19531,83.8442383 169.760744,83.9345694 169.467773,84.1152344 C169.174803,84.2958993 169.02832,84.5449203 169.02832,84.8623047 C169.02832,85.0771495 169.083251,85.2602531 169.193115,85.4116211 C169.302979,85.562989 169.479979,85.7070306 169.724121,85.84375 C169.968263,85.9804694 170.437008,86.1782214 171.130371,86.4370117 C172.082524,86.7836931 172.725828,87.1328107 173.060303,87.484375 C173.394777,87.8359393 173.562012,88.2778294 173.562012,88.8100586 Z M178.132324,90.1430664 C178.347169,90.1430664 178.554686,90.1271974 178.754883,90.095459 C178.955079,90.0637205 179.113769,90.0307619 179.230957,89.996582 L179.230957,90.9267578 C179.09912,90.9902347 178.905031,91.0427244 178.648682,91.0842285 C178.392333,91.1257326 178.161622,91.1464844 177.956543,91.1464844 C176.403801,91.1464844 175.627441,90.3286215 175.627441,88.6928711 L175.627441,83.9174805 L174.477539,83.9174805 L174.477539,83.331543 L175.627441,82.8261719 L176.140137,81.1123047 L176.843262,81.1123047 L176.843262,82.9726562 L179.172363,82.9726562 L179.172363,83.9174805 L176.843262,83.9174805 L176.843262,88.6416016 C176.843262,89.1250024 176.958007,89.4960925 177.1875,89.7548828 C177.416993,90.0136732 177.731932,90.1430664 178.132324,90.1430664 Z M50.0244141,111.146484 C49.5019505,111.146484 49.0246604,111.05005 48.5925293,110.857178 C48.1603982,110.664306 47.797853,110.367678 47.5048828,109.967285 L47.4169922,109.967285 C47.4755862,110.436037 47.5048828,110.880369 47.5048828,111.300293 L47.5048828,114.603516 L46.2890625,114.603516 L46.2890625,102.972656 L47.277832,102.972656 L47.4462891,104.071289 L47.5048828,104.071289 C47.8173844,103.631834 48.1811503,103.314454 48.5961914,103.119141 C49.0112325,102.923827 49.487302,102.826172 50.0244141,102.826172 C51.0888725,102.826172 51.9103975,103.189938 52.4890137,103.91748 C53.0676298,104.645023 53.3569336,105.665521 53.3569336,106.979004 C53.3569336,108.29737 53.0627471,109.32153 52.4743652,110.051514 C51.8859834,110.781498 51.0693412,111.146484 50.0244141,111.146484 Z M49.8486328,103.858887 C49.0283162,103.858887 48.4350604,104.085935 48.0688477,104.540039 C47.7026349,104.994143 47.5146485,105.716792 47.5048828,106.708008 L47.5048828,106.979004 C47.5048828,108.106939 47.6928692,108.913816 48.0688477,109.399658 C48.4448261,109.8855 49.0478474,110.128418 49.8779297,110.128418 C50.5712925,110.128418 51.1145,109.847659 51.5075684,109.286133 C51.9006367,108.724607 52.097168,107.950689 52.097168,106.964355 C52.097168,105.963374 51.9006367,105.195559 51.5075684,104.660889 C51.1145,104.126218 50.561527,103.858887 49.8486328,103.858887 Z M60.4174805,111 L60.1757812,109.857422 L60.1171875,109.857422 C59.7167949,110.360354 59.3176289,110.700927 58.9196777,110.87915 C58.5217265,111.057374 58.0249053,111.146484 57.4291992,111.146484 C56.6332968,111.146484 56.0095237,110.941408 55.5578613,110.53125 C55.1061989,110.121092 54.8803711,109.537601 54.8803711,108.780762 C54.8803711,107.15966 56.1767448,106.310059 58.7695312,106.231934 L60.1318359,106.187988 L60.1318359,105.689941 C60.1318359,105.060055 59.9963392,104.594972 59.7253418,104.294678 C59.4543443,103.994383 59.0209991,103.844238 58.425293,103.844238 C57.7563443,103.844238 56.9995159,104.049314 56.1547852,104.459473 L55.78125,103.529297 C56.1767598,103.314452 56.6101051,103.145997 57.0812988,103.023926 C57.5524926,102.901855 58.0249,102.84082 58.4985352,102.84082 C59.4555712,102.84082 60.1647926,103.053221 60.6262207,103.478027 C61.0876488,103.902834 61.3183594,104.58398 61.3183594,105.521484 L61.3183594,111 L60.4174805,111 Z M57.6708984,110.143066 C58.4277382,110.143066 59.0222146,109.935549 59.4543457,109.520508 C59.8864768,109.105467 60.1025391,108.524418 60.1025391,107.777344 L60.1025391,107.052246 L58.8867188,107.103516 C57.919917,107.137695 57.2229025,107.28784 56.7956543,107.553955 C56.3684061,107.82007 56.1547852,108.233884 56.1547852,108.79541 C56.1547852,109.234865 56.2878405,109.569335 56.5539551,109.798828 C56.8200697,110.028321 57.1923804,110.143066 57.6708984,110.143066 Z M67.4853516,102.826172 C67.8417987,102.826172 68.1616197,102.855468 68.4448242,102.914062 L68.2763672,104.041992 C67.9443343,103.96875 67.6513685,103.932129 67.3974609,103.932129 C66.7480436,103.932129 66.1926293,104.195798 65.7312012,104.723145 C65.2697731,105.250491 65.0390625,105.907223 65.0390625,106.693359 L65.0390625,111 L63.8232422,111 L63.8232422,102.972656 L64.8266602,102.972656 L64.9658203,104.459473 L65.0244141,104.459473 C65.3222671,103.937009 65.6811502,103.534181 66.1010742,103.250977 C66.5209982,102.967772 66.9824194,102.826172 67.4853516,102.826172 Z M72.5390625,110.143066 C72.7539073,110.143066 72.9614248,110.127197 73.1616211,110.095459 C73.3618174,110.063721 73.5205072,110.030762 73.6376953,109.996582 L73.6376953,110.926758 C73.5058587,110.990235 73.3117689,111.042724 73.0554199,111.084229 C72.799071,111.125733 72.5683604,111.146484 72.3632812,111.146484 C70.8105391,111.146484 70.0341797,110.328621 70.0341797,108.692871 L70.0341797,103.91748 L68.8842773,103.91748 L68.8842773,103.331543 L70.0341797,102.826172 L70.546875,101.112305 L71.25,101.112305 L71.25,102.972656 L73.5791016,102.972656 L73.5791016,103.91748 L71.25,103.91748 L71.25,108.641602 C71.25,109.125002 71.3647449,109.496092 71.5942383,109.754883 C71.8237316,110.013673 72.1386699,110.143066 72.5390625,110.143066 Z M76.4575195,111 L75.2416992,111 L75.2416992,102.972656 L76.4575195,102.972656 L76.4575195,111 Z M75.1391602,100.797363 C75.1391602,100.519042 75.2075188,100.315186 75.3442383,100.185791 C75.4809577,100.056396 75.6518544,99.9916992 75.8569336,99.9916992 C76.0522471,99.9916992 76.2207024,100.057617 76.3623047,100.189453 C76.503907,100.32129 76.574707,100.523924 76.574707,100.797363 C76.574707,101.070802 76.503907,101.274658 76.3623047,101.408936 C76.2207024,101.543214 76.0522471,101.610352 75.8569336,101.610352 C75.6518544,101.610352 75.4809577,101.543214 75.3442383,101.408936 C75.2075188,101.274658 75.1391602,101.070802 75.1391602,100.797363 Z M82.2436523,111.146484 C81.0815372,111.146484 80.181888,110.788822 79.5446777,110.073486 C78.9074675,109.358151 78.5888672,108.346198 78.5888672,107.037598 C78.5888672,105.694818 78.9123503,104.65723 79.5593262,103.924805 C80.2063021,103.192379 81.1279237,102.826172 82.3242188,102.826172 C82.7099629,102.826172 83.0957012,102.867675 83.4814453,102.950684 C83.8671894,103.033692 84.1699208,103.131347 84.3896484,103.243652 L84.0161133,104.276367 C83.7475573,104.168945 83.4545914,104.079834 83.137207,104.009033 C82.8198226,103.938232 82.5390637,103.902832 82.2949219,103.902832 C80.6640543,103.902832 79.8486328,104.942861 79.8486328,107.022949 C79.8486328,108.009282 80.0476054,108.766111 80.4455566,109.293457 C80.8435078,109.820803 81.4331016,110.084473 82.2143555,110.084473 C82.8833041,110.084473 83.5693324,109.940431 84.2724609,109.652344 L84.2724609,110.729004 C83.7353489,111.007326 83.0590861,111.146484 82.2436523,111.146484 Z M87.3925781,111 L86.1767578,111 L86.1767578,102.972656 L87.3925781,102.972656 L87.3925781,111 Z M86.0742188,100.797363 C86.0742188,100.519042 86.1425774,100.315186 86.2792969,100.185791 C86.4160163,100.056396 86.586913,99.9916992 86.7919922,99.9916992 C86.9873057,99.9916992 87.155761,100.057617 87.2973633,100.189453 C87.4389656,100.32129 87.5097656,100.523924 87.5097656,100.797363 C87.5097656,101.070802 87.4389656,101.274658 87.2973633,101.408936 C87.155761,101.543214 86.9873057,101.610352 86.7919922,101.610352 C86.586913,101.610352 86.4160163,101.543214 86.2792969,101.408936 C86.1425774,101.274658 86.0742188,101.070802 86.0742188,100.797363 Z M93.7060547,111.146484 C93.1835911,111.146484 92.706301,111.05005 92.2741699,110.857178 C91.8420389,110.664306 91.4794937,110.367678 91.1865234,109.967285 L91.0986328,109.967285 C91.1572269,110.436037 91.1865234,110.880369 91.1865234,111.300293 L91.1865234,114.603516 L89.9707031,114.603516 L89.9707031,102.972656 L90.9594727,102.972656 L91.1279297,104.071289 L91.1865234,104.071289 C91.499025,103.631834 91.8627909,103.314454 92.277832,103.119141 C92.6928732,102.923827 93.1689426,102.826172 93.7060547,102.826172 C94.7705131,102.826172 95.5920381,103.189938 96.1706543,103.91748 C96.7492705,104.645023 97.0385742,105.665521 97.0385742,106.979004 C97.0385742,108.29737 96.7443877,109.32153 96.1560059,110.051514 C95.567624,110.781498 94.7509818,111.146484 93.7060547,111.146484 Z M93.5302734,103.858887 C92.7099568,103.858887 92.116701,104.085935 91.7504883,104.540039 C91.3842755,104.994143 91.1962891,105.716792 91.1865234,106.708008 L91.1865234,106.979004 C91.1865234,108.106939 91.3745098,108.913816 91.7504883,109.399658 C92.1264667,109.8855 92.729488,110.128418 93.5595703,110.128418 C94.2529332,110.128418 94.7961406,109.847659 95.189209,109.286133 C95.5822774,108.724607 95.7788086,107.950689 95.7788086,106.964355 C95.7788086,105.963374 95.5822774,105.195559 95.189209,104.660889 C94.7961406,104.126218 94.2431676,103.858887 93.5302734,103.858887 Z M104.099121,111 L103.857422,109.857422 L103.798828,109.857422 C103.398435,110.360354 102.99927,110.700927 102.601318,110.87915 C102.203367,111.057374 101.706546,111.146484 101.11084,111.146484 C100.314937,111.146484 99.6911644,110.941408 99.239502,110.53125 C98.7878395,110.121092 98.5620117,109.537601 98.5620117,108.780762 C98.5620117,107.15966 99.8583855,106.310059 102.451172,106.231934 L103.813477,106.187988 L103.813477,105.689941 C103.813477,105.060055 103.67798,104.594972 103.406982,104.294678 C103.135985,103.994383 102.70264,103.844238 102.106934,103.844238 C101.437985,103.844238 100.681157,104.049314 99.8364258,104.459473 L99.4628906,103.529297 C99.8584004,103.314452 100.291746,103.145997 100.762939,103.023926 C101.234133,102.901855 101.706541,102.84082 102.180176,102.84082 C103.137212,102.84082 103.846433,103.053221 104.307861,103.478027 C104.769289,103.902834 105,104.58398 105,105.521484 L105,111 L104.099121,111 Z M101.352539,110.143066 C102.109379,110.143066 102.703855,109.935549 103.135986,109.520508 C103.568117,109.105467 103.78418,108.524418 103.78418,107.777344 L103.78418,107.052246 L102.568359,107.103516 C101.601558,107.137695 100.904543,107.28784 100.477295,107.553955 C100.050047,107.82007 99.8364258,108.233884 99.8364258,108.79541 C99.8364258,109.234865 99.9694811,109.569335 100.235596,109.798828 C100.50171,110.028321 100.874021,110.143066 101.352539,110.143066 Z M112.998047,111 L112.998047,105.807129 C112.998047,105.152829 112.849123,104.664552 112.55127,104.342285 C112.253416,104.020018 111.787113,103.858887 111.152344,103.858887 C110.312496,103.858887 109.697268,104.085935 109.306641,104.540039 C108.916014,104.994143 108.720703,105.743647 108.720703,106.788574 L108.720703,111 L107.504883,111 L107.504883,102.972656 L108.493652,102.972656 L108.691406,104.071289 L108.75,104.071289 C108.999025,103.675779 109.348142,103.369386 109.797363,103.1521 C110.246584,102.934813 110.747068,102.826172 111.298828,102.826172 C112.26563,102.826172 112.993162,103.059324 113.481445,103.525635 C113.969729,103.991946 114.213867,104.737788 114.213867,105.763184 L114.213867,111 L112.998047,111 Z M119.304199,110.143066 C119.519044,110.143066 119.726561,110.127197 119.926758,110.095459 C120.126954,110.063721 120.285644,110.030762 120.402832,109.996582 L120.402832,110.926758 C120.270995,110.990235 120.076906,111.042724 119.820557,111.084229 C119.564208,111.125733 119.333497,111.146484 119.128418,111.146484 C117.575676,111.146484 116.799316,110.328621 116.799316,108.692871 L116.799316,103.91748 L115.649414,103.91748 L115.649414,103.331543 L116.799316,102.826172 L117.312012,101.112305 L118.015137,101.112305 L118.015137,102.972656 L120.344238,102.972656 L120.344238,103.91748 L118.015137,103.91748 L118.015137,108.641602 C118.015137,109.125002 118.129882,109.496092 118.359375,109.754883 C118.588868,110.013673 118.903807,110.143066 119.304199,110.143066 Z M127.185059,108.810059 C127.185059,109.557133 126.906741,110.133299 126.350098,110.538574 C125.793454,110.94385 125.012212,111.146484 124.006348,111.146484 C122.941889,111.146484 122.111819,110.978029 121.516113,110.641113 L121.516113,109.513184 C121.901857,109.708497 122.315672,109.862304 122.757568,109.974609 C123.199465,110.086915 123.625486,110.143066 124.035645,110.143066 C124.670413,110.143066 125.15869,110.041749 125.500488,109.839111 C125.842287,109.636474 126.013184,109.327639 126.013184,108.912598 C126.013184,108.600096 125.877687,108.332765 125.606689,108.110596 C125.335692,107.888427 124.807133,107.625978 124.020996,107.323242 C123.273922,107.04492 122.742921,106.802003 122.427979,106.594482 C122.113036,106.386962 121.878663,106.151369 121.724854,105.887695 C121.571044,105.624022 121.494141,105.309084 121.494141,104.942871 C121.494141,104.288571 121.760251,103.772219 122.29248,103.393799 C122.82471,103.015379 123.554683,102.826172 124.482422,102.826172 C125.346684,102.826172 126.191402,103.001951 127.016602,103.353516 L126.584473,104.342285 C125.778805,104.010252 125.048831,103.844238 124.394531,103.844238 C123.818356,103.844238 123.383791,103.934569 123.09082,104.115234 C122.79785,104.295899 122.651367,104.54492 122.651367,104.862305 C122.651367,105.07715 122.706298,105.260253 122.816162,105.411621 C122.926026,105.562989 123.103026,105.707031 123.347168,105.84375 C123.59131,105.980469 124.060055,106.178221 124.753418,106.437012 C125.705571,106.783693 126.348875,107.132811 126.68335,107.484375 C127.017824,107.835939 127.185059,108.277829 127.185059,108.810059 Z M130.136719,100.291992 L130.246582,100.453125 C130.119628,100.941409 129.936525,101.50903 129.697266,102.156006 C129.458007,102.802982 129.208986,103.404782 128.950195,103.961426 L128.056641,103.961426 C128.398439,102.569817 128.64746,101.346685 128.803711,100.291992 L130.136719,100.291992 Z M136.809082,106.891113 C137.019044,106.59326 137.338865,106.202639 137.768555,105.719238 L140.361328,102.972656 L141.804199,102.972656 L138.552246,106.393066 L142.03125,111 L140.559082,111 L137.724609,107.206055 L136.809082,107.99707 L136.809082,111 L135.60791,111 L135.60791,99.6035156 L136.809082,99.6035156 L136.809082,105.645996 C136.809082,105.914552 136.789551,106.329587 136.750488,106.891113 L136.809082,106.891113 Z M148.974609,111 L148.974609,105.807129 C148.974609,105.152829 148.825685,104.664552 148.527832,104.342285 C148.229979,104.020018 147.763675,103.858887 147.128906,103.858887 C146.289058,103.858887 145.67383,104.085935 145.283203,104.540039 C144.892576,104.994143 144.697266,105.743647 144.697266,106.788574 L144.697266,111 L143.481445,111 L143.481445,102.972656 L144.470215,102.972656 L144.667969,104.071289 L144.726562,104.071289 C144.975587,103.675779 145.324705,103.369386 145.773926,103.1521 C146.223147,102.934813 146.72363,102.826172 147.275391,102.826172 C148.242192,102.826172 148.969724,103.059324 149.458008,103.525635 C149.946292,103.991946 150.19043,104.737788 150.19043,105.763184 L150.19043,111 L148.974609,111 Z M159.616699,106.979004 C159.616699,108.287604 159.287113,109.309322 158.62793,110.044189 C157.968747,110.779056 157.058111,111.146484 155.895996,111.146484 C155.178219,111.146484 154.541018,110.978029 153.984375,110.641113 C153.427732,110.304198 152.998048,109.820804 152.695312,109.190918 C152.392577,108.561032 152.241211,107.823735 152.241211,106.979004 C152.241211,105.670404 152.568356,104.651127 153.222656,103.921143 C153.876956,103.191158 154.78515,102.826172 155.947266,102.826172 C157.070318,102.826172 157.962643,103.199703 158.624268,103.946777 C159.285892,104.693851 159.616699,105.704583 159.616699,106.979004 Z M153.500977,106.979004 C153.500977,108.0044 153.706053,108.785642 154.116211,109.322754 C154.526369,109.859866 155.129391,110.128418 155.925293,110.128418 C156.721195,110.128418 157.325437,109.861087 157.738037,109.326416 C158.150637,108.791745 158.356934,108.009282 158.356934,106.979004 C158.356934,105.958491 158.150637,105.183352 157.738037,104.653564 C157.325437,104.123777 156.716313,103.858887 155.910645,103.858887 C155.114742,103.858887 154.514162,104.120115 154.108887,104.642578 C153.703611,105.165042 153.500977,105.943842 153.500977,106.979004 Z M168.303223,111 L166.831055,106.290527 C166.738281,106.00244 166.564943,105.34815 166.311035,104.327637 L166.252441,104.327637 C166.057128,105.182133 165.886231,105.841306 165.739746,106.305176 L164.223633,111 L162.817383,111 L160.627441,102.972656 L161.901855,102.972656 C162.419436,104.989268 162.813719,106.524897 163.084717,107.57959 C163.355714,108.634283 163.510742,109.344725 163.549805,109.710938 L163.608398,109.710938 C163.66211,109.432616 163.748779,109.072512 163.868408,108.630615 C163.988038,108.188718 164.091796,107.83838 164.179688,107.57959 L165.651855,102.972656 L166.970215,102.972656 L168.405762,107.57959 C168.679201,108.419438 168.864746,109.124997 168.962402,109.696289 L169.020996,109.696289 C169.040527,109.520507 169.093017,109.249514 169.178467,108.883301 C169.263916,108.517088 169.772945,106.546893 170.705566,102.972656 L171.965332,102.972656 L169.746094,111 L168.303223,111 Z M174.631348,111 L173.415527,111 L173.415527,99.6035156 L174.631348,99.6035156 L174.631348,111 Z M180.600586,111.146484 C179.414057,111.146484 178.477787,110.78516 177.791748,110.0625 C177.105709,109.33984 176.762695,108.336432 176.762695,107.052246 C176.762695,105.758294 177.081296,104.730473 177.718506,103.96875 C178.355716,103.207027 179.21142,102.826172 180.285645,102.826172 C181.291509,102.826172 182.087399,103.156979 182.67334,103.818604 C183.25928,104.480228 183.552246,105.353022 183.552246,106.437012 L183.552246,107.206055 L178.022461,107.206055 C178.046875,108.148442 178.28491,108.863767 178.736572,109.352051 C179.188235,109.840334 179.824215,110.084473 180.644531,110.084473 C181.508793,110.084473 182.363277,109.90381 183.208008,109.54248 L183.208008,110.626465 C182.778318,110.812013 182.371828,110.945068 181.988525,111.025635 C181.605223,111.106202 181.142581,111.146484 180.600586,111.146484 Z M180.270996,103.844238 C179.626462,103.844238 179.112551,104.054197 178.729248,104.474121 C178.345945,104.894045 178.120118,105.475094 178.051758,106.217285 L182.248535,106.217285 C182.248535,105.45068 182.077638,104.863527 181.73584,104.455811 C181.394041,104.048094 180.905765,103.844238 180.270996,103.844238 Z M191.088867,109.92334 L191.022949,109.92334 C190.461423,110.738774 189.621588,111.146484 188.503418,111.146484 C187.453608,111.146484 186.636966,110.787601 186.053467,110.069824 C185.469968,109.352047 185.178223,108.33155 185.178223,107.008301 C185.178223,105.685052 185.471188,104.65723 186.057129,103.924805 C186.643069,103.192379 187.458491,102.826172 188.503418,102.826172 C189.592291,102.826172 190.427243,103.221676 191.008301,104.012695 L191.103516,104.012695 L191.052246,103.434082 L191.022949,102.870117 L191.022949,99.6035156 L192.23877,99.6035156 L192.23877,111 L191.25,111 L191.088867,109.92334 Z M188.657227,110.128418 C189.487309,110.128418 190.089109,109.90259 190.462646,109.450928 C190.836184,108.999265 191.022949,108.270513 191.022949,107.264648 L191.022949,107.008301 C191.022949,105.8706 190.833742,105.05884 190.455322,104.572998 C190.076902,104.087156 189.47266,103.844238 188.642578,103.844238 C187.929684,103.844238 187.384035,104.121335 187.005615,104.675537 C186.627195,105.229739 186.437988,106.012202 186.437988,107.022949 C186.437988,108.048345 186.625975,108.822263 187.001953,109.344727 C187.377932,109.86719 187.929684,110.128418 188.657227,110.128418 Z M201.386719,102.972656 L201.386719,103.741699 L199.899902,103.91748 C200.036622,104.08838 200.158691,104.311766 200.266113,104.587646 C200.373536,104.863527 200.427246,105.174803 200.427246,105.521484 C200.427246,106.307621 200.158694,106.935056 199.621582,107.403809 C199.08447,107.872561 198.347173,108.106934 197.409668,108.106934 C197.170409,108.106934 196.945802,108.087403 196.73584,108.04834 C196.218259,108.321779 195.959473,108.666014 195.959473,109.081055 C195.959473,109.300782 196.049804,109.463134 196.230469,109.568115 C196.411134,109.673096 196.721189,109.725586 197.160645,109.725586 L198.581543,109.725586 C199.450688,109.725586 200.118406,109.90869 200.584717,110.274902 C201.051028,110.641115 201.28418,111.173336 201.28418,111.871582 C201.28418,112.760258 200.927738,113.437742 200.214844,113.904053 C199.50195,114.370364 198.461921,114.603516 197.094727,114.603516 C196.044917,114.603516 195.235599,114.408205 194.666748,114.017578 C194.097898,113.626951 193.813477,113.075199 193.813477,112.362305 C193.813477,111.874021 193.969725,111.451662 194.282227,111.095215 C194.594728,110.738768 195.034177,110.497071 195.600586,110.370117 C195.395507,110.277343 195.223389,110.133302 195.084229,109.937988 C194.945068,109.742675 194.875488,109.515626 194.875488,109.256836 C194.875488,108.963866 194.953612,108.707521 195.109863,108.487793 C195.266114,108.268065 195.512694,108.055665 195.849609,107.850586 C195.434568,107.679687 195.096437,107.389162 194.835205,106.979004 C194.573973,106.568846 194.443359,106.1001 194.443359,105.572754 C194.443359,104.693843 194.707029,104.01636 195.234375,103.540283 C195.761721,103.064207 196.508784,102.826172 197.475586,102.826172 C197.89551,102.826172 198.273924,102.875 198.61084,102.972656 L201.386719,102.972656 Z M194.985352,112.347656 C194.985352,112.782229 195.168455,113.111815 195.534668,113.336426 C195.900881,113.561036 196.425778,113.67334 197.109375,113.67334 C198.129888,113.67334 198.885496,113.520753 199.376221,113.215576 C199.866946,112.910399 200.112305,112.496585 200.112305,111.974121 C200.112305,111.539549 199.978029,111.238038 199.709473,111.06958 C199.440917,110.901122 198.935551,110.816895 198.193359,110.816895 L196.73584,110.816895 C196.184079,110.816895 195.754396,110.948729 195.446777,111.212402 C195.139159,111.476076 194.985352,111.85449 194.985352,112.347656 Z M195.644531,105.543457 C195.644531,106.104983 195.803221,106.529784 196.120605,106.817871 C196.43799,107.105958 196.87988,107.25 197.446289,107.25 C198.632818,107.25 199.226074,106.673834 199.226074,105.521484 C199.226074,104.315424 198.625494,103.712402 197.424316,103.712402 C196.853024,103.712402 196.413576,103.866209 196.105957,104.173828 C195.798338,104.481447 195.644531,104.937985 195.644531,105.543457 Z M206.425781,111.146484 C205.239252,111.146484 204.302982,110.78516 203.616943,110.0625 C202.930905,109.33984 202.587891,108.336432 202.587891,107.052246 C202.587891,105.758294 202.906491,104.730473 203.543701,103.96875 C204.180911,103.207027 205.036616,102.826172 206.11084,102.826172 C207.116704,102.826172 207.912595,103.156979 208.498535,103.818604 C209.084476,104.480228 209.377441,105.353022 209.377441,106.437012 L209.377441,107.206055 L203.847656,107.206055 C203.87207,108.148442 204.110105,108.863767 204.561768,109.352051 C205.01343,109.840334 205.64941,110.084473 206.469727,110.084473 C207.333989,110.084473 208.188472,109.90381 209.033203,109.54248 L209.033203,110.626465 C208.603513,110.812013 208.197023,110.945068 207.813721,111.025635 C207.430418,111.106202 206.967776,111.146484 206.425781,111.146484 Z M206.096191,103.844238 C205.451657,103.844238 204.937746,104.054197 204.554443,104.474121 C204.171141,104.894045 203.945313,105.475094 203.876953,106.217285 L208.07373,106.217285 C208.07373,105.45068 207.902834,104.863527 207.561035,104.455811 C207.219237,104.048094 206.73096,103.844238 206.096191,103.844238 Z M217.104492,111 L214.057617,102.972656 L215.361328,102.972656 L217.089844,107.733398 C217.480471,108.846685 217.709961,109.569334 217.77832,109.901367 L217.836914,109.901367 C217.890625,109.642577 218.060301,109.106694 218.345947,108.293701 C218.631593,107.480709 219.272456,105.707045 220.268555,102.972656 L221.572266,102.972656 L218.525391,111 L217.104492,111 Z M224.077148,111 L222.861328,111 L222.861328,102.972656 L224.077148,102.972656 L224.077148,111 Z M222.758789,100.797363 C222.758789,100.519042 222.827148,100.315186 222.963867,100.185791 C223.100587,100.056396 223.271483,99.9916992 223.476562,99.9916992 C223.671876,99.9916992 223.840331,100.057617 223.981934,100.189453 C224.123536,100.32129 224.194336,100.523924 224.194336,100.797363 C224.194336,101.070802 224.123536,101.274658 223.981934,101.408936 C223.840331,101.543214 223.671876,101.610352 223.476562,101.610352 C223.271483,101.610352 223.100587,101.543214 222.963867,101.408936 C222.827148,101.274658 222.758789,101.070802 222.758789,100.797363 Z M231.591797,111 L231.350098,109.857422 L231.291504,109.857422 C230.891111,110.360354 230.491945,110.700927 230.093994,110.87915 C229.696043,111.057374 229.199222,111.146484 228.603516,111.146484 C227.807613,111.146484 227.18384,110.941408 226.732178,110.53125 C226.280515,110.121092 226.054688,109.537601 226.054688,108.780762 C226.054688,107.15966 227.351061,106.310059 229.943848,106.231934 L231.306152,106.187988 L231.306152,105.689941 C231.306152,105.060055 231.170656,104.594972 230.899658,104.294678 C230.628661,103.994383 230.195315,103.844238 229.599609,103.844238 C228.930661,103.844238 228.173832,104.049314 227.329102,104.459473 L226.955566,103.529297 C227.351076,103.314452 227.784421,103.145997 228.255615,103.023926 C228.726809,102.901855 229.199216,102.84082 229.672852,102.84082 C230.629888,102.84082 231.339109,103.053221 231.800537,103.478027 C232.261965,103.902834 232.492676,104.58398 232.492676,105.521484 L232.492676,111 L231.591797,111 Z M228.845215,110.143066 C229.602055,110.143066 230.196531,109.935549 230.628662,109.520508 C231.060793,109.105467 231.276855,108.524418 231.276855,107.777344 L231.276855,107.052246 L230.061035,107.103516 C229.094233,107.137695 228.397219,107.28784 227.969971,107.553955 C227.542722,107.82007 227.329102,108.233884 227.329102,108.79541 C227.329102,109.234865 227.462157,109.569335 227.728271,109.798828 C227.994386,110.028321 228.366697,110.143066 228.845215,110.143066 Z M52.8588867,122.972656 L52.8588867,123.741699 L51.3720703,123.91748 C51.5087897,124.08838 51.6308588,124.311766 51.7382812,124.587646 C51.8457037,124.863527 51.8994141,125.174803 51.8994141,125.521484 C51.8994141,126.307621 51.6308621,126.935056 51.09375,127.403809 C50.5566379,127.872561 49.8193406,128.106934 48.8818359,128.106934 C48.6425769,128.106934 48.4179698,128.087403 48.2080078,128.04834 C47.6904271,128.321779 47.4316406,128.666014 47.4316406,129.081055 C47.4316406,129.300782 47.5219718,129.463134 47.7026367,129.568115 C47.8833017,129.673096 48.1933572,129.725586 48.6328125,129.725586 L50.0537109,129.725586 C50.9228559,129.725586 51.5905738,129.90869 52.0568848,130.274902 C52.5231957,130.641115 52.7563477,131.173336 52.7563477,131.871582 C52.7563477,132.760258 52.3999059,133.437742 51.6870117,133.904053 C50.9741175,134.370364 49.9340889,134.603516 48.5668945,134.603516 C47.5170846,134.603516 46.7077665,134.408205 46.138916,134.017578 C45.5700655,133.626951 45.2856445,133.075199 45.2856445,132.362305 C45.2856445,131.874021 45.441893,131.451662 45.7543945,131.095215 C46.0668961,130.738768 46.5063448,130.497071 47.0727539,130.370117 C46.8676748,130.277343 46.6955573,130.133302 46.5563965,129.937988 C46.4172356,129.742675 46.3476562,129.515626 46.3476562,129.256836 C46.3476562,128.963866 46.4257805,128.707521 46.5820312,128.487793 C46.738282,128.268065 46.9848616,128.055665 47.3217773,127.850586 C46.9067362,127.679687 46.5686048,127.389162 46.307373,126.979004 C46.0461413,126.568846 45.9155273,126.1001 45.9155273,125.572754 C45.9155273,124.693843 46.1791966,124.01636 46.706543,123.540283 C47.2338894,123.064207 47.9809522,122.826172 48.9477539,122.826172 C49.3676779,122.826172 49.7460921,122.875 50.0830078,122.972656 L52.8588867,122.972656 Z M46.4575195,132.347656 C46.4575195,132.782229 46.6406232,133.111815 47.0068359,133.336426 C47.3730487,133.561036 47.8979458,133.67334 48.581543,133.67334 C49.6020559,133.67334 50.3576636,133.520753 50.8483887,133.215576 C51.3391138,132.910399 51.5844727,132.496585 51.5844727,131.974121 C51.5844727,131.539549 51.4501967,131.238038 51.1816406,131.06958 C50.9130846,130.901122 50.4077186,130.816895 49.6655273,130.816895 L48.2080078,130.816895 C47.6562472,130.816895 47.226564,130.948729 46.9189453,131.212402 C46.6113266,131.476076 46.4575195,131.85449 46.4575195,132.347656 Z M47.1166992,125.543457 C47.1166992,126.104983 47.275389,126.529784 47.5927734,126.817871 C47.9101578,127.105958 48.3520479,127.25 48.918457,127.25 C50.1049864,127.25 50.6982422,126.673834 50.6982422,125.521484 C50.6982422,124.315424 50.0976623,123.712402 48.8964844,123.712402 C48.3251925,123.712402 47.8857437,123.866209 47.578125,124.173828 C47.2705063,124.481447 47.1166992,124.937985 47.1166992,125.543457 Z M58.1689453,122.826172 C58.5253924,122.826172 58.8452134,122.855468 59.128418,122.914062 L58.9599609,124.041992 C58.627928,123.96875 58.3349622,123.932129 58.0810547,123.932129 C57.4316374,123.932129 56.876223,124.195798 56.4147949,124.723145 C55.9533668,125.250491 55.7226562,125.907223 55.7226562,126.693359 L55.7226562,131 L54.5068359,131 L54.5068359,122.972656 L55.5102539,122.972656 L55.6494141,124.459473 L55.7080078,124.459473 C56.0058609,123.937009 56.364744,123.534181 56.784668,123.250977 C57.2045919,122.967772 57.6660131,122.826172 58.1689453,122.826172 Z M67.5585938,126.979004 C67.5585938,128.287604 67.2290072,129.309322 66.5698242,130.044189 C65.9106412,130.779056 65.0000058,131.146484 63.8378906,131.146484 C63.1201136,131.146484 62.4829129,130.978029 61.9262695,130.641113 C61.3696261,130.304198 60.9399429,129.820804 60.637207,129.190918 C60.3344711,128.561032 60.1831055,127.823735 60.1831055,126.979004 C60.1831055,125.670404 60.5102506,124.651127 61.1645508,123.921143 C61.8188509,123.191158 62.727045,122.826172 63.8891602,122.826172 C65.0122126,122.826172 65.9045377,123.199703 66.5661621,123.946777 C67.2277865,124.693851 67.5585938,125.704583 67.5585938,126.979004 Z M61.4428711,126.979004 C61.4428711,128.0044 61.6479472,128.785642 62.0581055,129.322754 C62.4682638,129.859866 63.0712851,130.128418 63.8671875,130.128418 C64.6630899,130.128418 65.2673319,129.861087 65.6799316,129.326416 C66.0925314,128.791745 66.2988281,128.009282 66.2988281,126.979004 C66.2988281,125.958491 66.0925314,125.183352 65.6799316,124.653564 C65.2673319,124.123777 64.6582072,123.858887 63.8525391,123.858887 C63.0566366,123.858887 62.4560567,124.120115 62.0507812,124.642578 C61.6455058,125.165042 61.4428711,125.943842 61.4428711,126.979004 Z M70.8325195,122.972656 L70.8325195,128.180176 C70.8325195,128.834476 70.9814438,129.322752 71.2792969,129.64502 C71.5771499,129.967287 72.0434539,130.128418 72.6782227,130.128418 C73.5180706,130.128418 74.1320781,129.898928 74.5202637,129.439941 C74.9084492,128.980955 75.1025391,128.231451 75.1025391,127.191406 L75.1025391,122.972656 L76.3183594,122.972656 L76.3183594,131 L75.3149414,131 L75.1391602,129.92334 L75.0732422,129.92334 C74.8242175,130.31885 74.478762,130.621581 74.0368652,130.831543 C73.5949685,131.041505 73.0908231,131.146484 72.5244141,131.146484 C71.5478467,131.146484 70.8166528,130.914553 70.3308105,130.450684 C69.8449683,129.986814 69.6020508,129.244634 69.6020508,128.224121 L69.6020508,122.972656 L70.8325195,122.972656 Z M82.6318359,131.146484 C82.1093724,131.146484 81.6320822,131.05005 81.1999512,130.857178 C80.7678201,130.664306 80.4052749,130.367678 80.1123047,129.967285 L80.0244141,129.967285 C80.0830081,130.436037 80.1123047,130.880369 80.1123047,131.300293 L80.1123047,134.603516 L78.8964844,134.603516 L78.8964844,122.972656 L79.8852539,122.972656 L80.0537109,124.071289 L80.1123047,124.071289 C80.4248063,123.631834 80.7885721,123.314454 81.2036133,123.119141 C81.6186544,122.923827 82.0947239,122.826172 82.6318359,122.826172 C83.6962944,122.826172 84.5178194,123.189938 85.0964355,123.91748 C85.6750517,124.645023 85.9643555,125.665521 85.9643555,126.979004 C85.9643555,128.29737 85.670169,129.32153 85.0817871,130.051514 C84.4934053,130.781498 83.676763,131.146484 82.6318359,131.146484 Z M82.4560547,123.858887 C81.6357381,123.858887 81.0424823,124.085935 80.6762695,124.540039 C80.3100568,124.994143 80.1220704,125.716792 80.1123047,126.708008 L80.1123047,126.979004 C80.1123047,128.106939 80.3002911,128.913816 80.6762695,129.399658 C81.052248,129.8855 81.6552693,130.128418 82.4853516,130.128418 C83.1787144,130.128418 83.7219219,129.847659 84.1149902,129.286133 C84.5080586,128.724607 84.7045898,127.950689 84.7045898,126.964355 C84.7045898,125.963374 84.5080586,125.195559 84.1149902,124.660889 C83.7219219,124.126218 83.1689489,123.858887 82.4560547,123.858887 Z M95.0170898,130.128418 C95.8276408,130.128418 96.4184552,129.911135 96.7895508,129.476562 C97.1606464,129.04199 97.3583983,128.309575 97.3828125,127.279297 L97.3828125,127.008301 C97.3828125,125.885248 97.1923847,125.077151 96.8115234,124.583984 C96.4306622,124.090818 95.8276408,123.844238 95.0024414,123.844238 C94.2895472,123.844238 93.7438984,124.121335 93.3654785,124.675537 C92.9870587,125.229739 92.7978516,126.012202 92.7978516,127.022949 C92.7978516,128.033696 92.9846173,128.803952 93.3581543,129.33374 C93.7316913,129.863528 94.2846643,130.128418 95.0170898,130.128418 Z M94.8339844,131.146484 C93.7988229,131.146484 92.9907256,130.782718 92.409668,130.055176 C91.8286104,129.327633 91.5380859,128.312018 91.5380859,127.008301 C91.5380859,125.694818 91.8310518,124.669437 92.4169922,123.932129 C93.0029326,123.194821 93.8183542,122.826172 94.8632812,122.826172 C95.9619196,122.826172 96.8066377,123.241207 97.3974609,124.071289 L97.4633789,124.071289 L97.6391602,122.972656 L98.5986328,122.972656 L98.5986328,134.603516 L97.3828125,134.603516 L97.3828125,131.168457 C97.3828125,130.680173 97.4096677,130.265138 97.4633789,129.92334 L97.3681641,129.92334 C96.8066378,130.738774 95.9619197,131.146484 94.8339844,131.146484 Z M102.319336,122.972656 L102.319336,128.180176 C102.319336,128.834476 102.46826,129.322752 102.766113,129.64502 C103.063966,129.967287 103.53027,130.128418 104.165039,130.128418 C105.004887,130.128418 105.618895,129.898928 106.00708,129.439941 C106.395266,128.980955 106.589355,128.231451 106.589355,127.191406 L106.589355,122.972656 L107.805176,122.972656 L107.805176,131 L106.801758,131 L106.625977,129.92334 L106.560059,129.92334 C106.311034,130.31885 105.965578,130.621581 105.523682,130.831543 C105.081785,131.041505 104.57764,131.146484 104.01123,131.146484 C103.034663,131.146484 102.303469,130.914553 101.817627,130.450684 C101.331785,129.986814 101.088867,129.244634 101.088867,128.224121 L101.088867,122.972656 L102.319336,122.972656 Z M111.599121,131 L110.383301,131 L110.383301,122.972656 L111.599121,122.972656 L111.599121,131 Z M110.280762,120.797363 C110.280762,120.519042 110.34912,120.315186 110.48584,120.185791 C110.622559,120.056396 110.793456,119.991699 110.998535,119.991699 C111.193849,119.991699 111.362304,120.057617 111.503906,120.189453 C111.645509,120.32129 111.716309,120.523924 111.716309,120.797363 C111.716309,121.070802 111.645509,121.274658 111.503906,121.408936 C111.362304,121.543214 111.193849,121.610352 110.998535,121.610352 C110.793456,121.610352 110.622559,121.543214 110.48584,121.408936 C110.34912,121.274658 110.280762,121.070802 110.280762,120.797363 Z M119.311523,131 L113.48877,131 L113.48877,130.172363 L117.868652,123.91748 L113.759766,123.91748 L113.759766,122.972656 L119.20166,122.972656 L119.20166,123.91748 L114.880371,130.055176 L119.311523,130.055176 L119.311523,131 Z M126.328125,131 L120.505371,131 L120.505371,130.172363 L124.885254,123.91748 L120.776367,123.91748 L120.776367,122.972656 L126.218262,122.972656 L126.218262,123.91748 L121.896973,130.055176 L126.328125,130.055176 L126.328125,131 Z M131.601562,131.146484 C130.415033,131.146484 129.478763,130.78516 128.792725,130.0625 C128.106686,129.33984 127.763672,128.336432 127.763672,127.052246 C127.763672,125.758294 128.082272,124.730473 128.719482,123.96875 C129.356693,123.207027 130.212397,122.826172 131.286621,122.826172 C132.292485,122.826172 133.088376,123.156979 133.674316,123.818604 C134.260257,124.480228 134.553223,125.353022 134.553223,126.437012 L134.553223,127.206055 L129.023438,127.206055 C129.047852,128.148442 129.285886,128.863767 129.737549,129.352051 C130.189211,129.840334 130.825191,130.084473 131.645508,130.084473 C132.50977,130.084473 133.364254,129.90381 134.208984,129.54248 L134.208984,130.626465 C133.779295,130.812013 133.372805,130.945068 132.989502,131.025635 C132.606199,131.106202 132.143557,131.146484 131.601562,131.146484 Z M131.271973,123.844238 C130.627438,123.844238 130.113527,124.054197 129.730225,124.474121 C129.346922,124.894045 129.121094,125.475094 129.052734,126.217285 L133.249512,126.217285 C133.249512,125.45068 133.078615,124.863527 132.736816,124.455811 C132.395018,124.048094 131.906741,123.844238 131.271973,123.844238 Z M141.804199,128.810059 C141.804199,129.557133 141.525882,130.133299 140.969238,130.538574 C140.412595,130.94385 139.631353,131.146484 138.625488,131.146484 C137.56103,131.146484 136.73096,130.978029 136.135254,130.641113 L136.135254,129.513184 C136.520998,129.708497 136.934812,129.862304 137.376709,129.974609 C137.818606,130.086915 138.244627,130.143066 138.654785,130.143066 C139.289554,130.143066 139.77783,130.041749 140.119629,129.839111 C140.461427,129.636474 140.632324,129.327639 140.632324,128.912598 C140.632324,128.600096 140.496828,128.332765 140.22583,128.110596 C139.954833,127.888427 139.426273,127.625978 138.640137,127.323242 C137.893063,127.04492 137.362062,126.802003 137.047119,126.594482 C136.732176,126.386962 136.497804,126.151369 136.343994,125.887695 C136.190185,125.624022 136.113281,125.309084 136.113281,124.942871 C136.113281,124.288571 136.379392,123.772219 136.911621,123.393799 C137.44385,123.015379 138.173823,122.826172 139.101562,122.826172 C139.965825,122.826172 140.810543,123.001951 141.635742,123.353516 L141.203613,124.342285 C140.397945,124.010252 139.667972,123.844238 139.013672,123.844238 C138.437497,123.844238 138.002931,123.934569 137.709961,124.115234 C137.416991,124.295899 137.270508,124.54492 137.270508,124.862305 C137.270508,125.07715 137.325439,125.260253 137.435303,125.411621 C137.545167,125.562989 137.722167,125.707031 137.966309,125.84375 C138.21045,125.980469 138.679196,126.178221 139.372559,126.437012 C140.324712,126.783693 140.968016,127.132811 141.30249,127.484375 C141.636965,127.835939 141.804199,128.277829 141.804199,128.810059 Z M143.605957,130.223633 C143.605957,129.896483 143.680419,129.648682 143.829346,129.480225 C143.978272,129.311767 144.191893,129.227539 144.470215,129.227539 C144.753419,129.227539 144.974364,129.311767 145.133057,129.480225 C145.291749,129.648682 145.371094,129.896483 145.371094,130.223633 C145.371094,130.541017 145.290528,130.785155 145.129395,130.956055 C144.968261,131.126954 144.748537,131.212402 144.470215,131.212402 C144.22119,131.212402 144.014893,131.135499 143.851318,130.981689 C143.687743,130.82788 143.605957,130.575197 143.605957,130.223633 Z" id="Make-decisions-toget" fill="#949595"></path>
                    <path d="M58.2368164,195 L57.050293,195 L57.050293,187.368164 C57.050293,186.733395 57.069824,186.132815 57.1088867,185.566406 C57.0063471,185.668946 56.8916022,185.776367 56.7646484,185.888672 C56.6376947,186.000977 56.0566458,186.477047 55.0214844,187.316895 L54.3769531,186.481934 L57.2114258,184.291992 L58.2368164,184.291992 L58.2368164,195 Z" id="1-copy" fill="#949595"></path>
                    <path d="M37.74,196.782609 C33.06,192.782609 30,190.086957 30,186.782609 C30,184.086957 32.16,182 34.95,182 C36.48,182 38.01,182.695652 39,183.826087 C39.99,182.695652 41.52,182 43.05,182 C45.84,182 48,184.086957 48,186.782609 C48,190.086957 44.94,192.782609 40.26,196.782609 L39,198 L37.74,196.782609 Z" id="Like" stroke="#DBD7D7"></path>
                    <path d="M29.4953704,163 L260.50487,163" id="Line" stroke="#F0F0F0" stroke-linecap="square"></path>
                    <g id="Close" transform="translate(263.000000, 17.000000)" fill="#BBBBBB">
                        <polygon id="Shape" points="10 1 9 0 5 4 1 0 0 1 4 5 0 9 1 10 5 6 9 10 10 9 6 5"></polygon>
                    </g>
                </g>
            </g>
        </g>
    </g>
</svg>