<?xml version="1.0" encoding="UTF-8" standalone="no"?>
<svg width="296px" height="186px" viewBox="0 0 296 186" version="1.1" xmlns="http://www.w3.org/2000/svg" xmlns:xlink="http://www.w3.org/1999/xlink">
    <!-- Generator: Sketch 41.2 (35397) - http://www.bohemiancoding.com/sketch -->
    <title>Bloc 01</title>
    <desc>Created with Sketch.</desc>
    <defs>
        <rect id="path-1" x="0" y="0" width="290" height="180" rx="4"></rect>
        <filter x="-50%" y="-50%" width="200%" height="200%" filterUnits="objectBoundingBox" id="filter-2">
            <feOffset dx="0" dy="2" in="SourceAlpha" result="shadowOffsetOuter1"></feOffset>
            <feGaussianBlur stdDeviation="1.5" in="shadowOffsetOuter1" result="shadowBlurOuter1"></feGaussianBlur>
            <feComposite in="shadowBlurOuter1" in2="SourceAlpha" operator="out" result="shadowBlurOuter1"></feComposite>
            <feColorMatrix values="0 0 0 0 0.823529412   0 0 0 0 0.854901961   0 0 0 0 0.905882353  0 0 0 0.445822011 0" type="matrix" in="shadowBlurOuter1"></feColorMatrix>
        </filter>
        <mask id="mask-3" maskContentUnits="userSpaceOnUse" maskUnits="objectBoundingBox" x="0" y="0" width="290" height="180" fill="white">
            <use xlink:href="#path-1"></use>
        </mask>
    </defs>
    <g id="Page-1" stroke="none" stroke-width="1" fill="none" fill-rule="evenodd">
        <g id="Desktop-HD" transform="translate(-139.000000, -353.000000)">
            <g id="PREMIERE-LAME" transform="translate(-53.000000, 0.000000)">
                <g id="Bloc-01" transform="translate(195.000000, 354.000000)">
                    <g id="Fond-Bloc-">
                        <use fill="black" fill-opacity="1" filter="url(#filter-2)" xlink:href="#path-1"></use>
                        <use stroke-opacity="0.198228034" stroke="#657077" mask="url(#mask-3)" stroke-width="2" fill="#FFFFFF" fill-rule="evenodd" xlink:href="#path-1"></use>
                    </g>
                    <text id="Salut,-bienvenue-sur" font-family="OpenSans, Open Sans" font-size="15" font-weight="normal" fill="#949595">
                        <tspan x="17" y="67">Salut, bienvenue sur Inwall !</tspan>
                    </text>
                    <path d="M24.74,156.782609 C20.06,152.782609 17,150.086957 17,146.782609 C17,144.086957 19.16,142 21.95,142 C23.48,142 25.01,142.695652 26,143.826087 C26.99,142.695652 28.52,142 30.05,142 C32.84,142 35,144.086957 35,146.782609 C35,150.086957 31.94,152.782609 27.26,156.782609 L26,158 L24.74,156.782609 Z" id="Like" fill="#DEDEDE"></path>
                    <g id="Pastilles" transform="translate(170.000000, 141.000000)">
                        <g id="Pastille-Verte" fill="#00C3A6">
                            <circle id="Oval-2" cx="9" cy="9" r="6"></circle>
                        </g>
                        <g id="Pastille-Rouge" transform="translate(31.000000, 3.000000)" fill="#FC573C">
                            <circle id="Oval-2" cx="6" cy="6" r="6"></circle>
                        </g>
                        <g id="Pastille-Jaune" transform="translate(59.000000, 3.000000)" fill="#FFD800">
                            <circle id="Oval-2" cx="6" cy="6" r="6"></circle>
                        </g>
                        <g id="Pastille-Jaune" transform="translate(87.000000, 3.000000)" fill="#2CB4E8">
                            <circle id="Oval-2" cx="6" cy="6" r="6"></circle>
                        </g>
                    </g>
                    <path d="M17,123 L272.5,123" id="Line" stroke="#F0F0F0" stroke-linecap="square"></path>
                    <g id="Close" transform="translate(263.000000, 17.000000)" fill="#BBBBBB">
                        <polygon id="Shape" points="10 1 9 0 5 4 1 0 0 1 4 5 0 9 1 10 5 6 9 10 10 9 6 5"></polygon>
                    </g>
                </g>
            </g>
        </g>
    </g>
</svg>