<?xml version="1.0" encoding="UTF-8" standalone="no"?>
<svg width="296px" height="186px" viewBox="0 0 296 186" version="1.1" xmlns="http://www.w3.org/2000/svg" xmlns:xlink="http://www.w3.org/1999/xlink">
    <!-- Generator: Sketch 42 (36781) - http://www.bohemiancoding.com/sketch -->
    <title>Bloc 01</title>
    <desc>Created with Sketch.</desc>
    <defs>
        <rect id="path-1" x="0" y="0" width="290" height="180" rx="4"></rect>
        <filter x="-50%" y="-50%" width="200%" height="200%" filterUnits="objectBoundingBox" id="filter-2">
            <feOffset dx="0" dy="2" in="SourceAlpha" result="shadowOffsetOuter1"></feOffset>
            <feGaussianBlur stdDeviation="1.5" in="shadowOffsetOuter1" result="shadowBlurOuter1"></feGaussianBlur>
            <feComposite in="shadowBlurOuter1" in2="SourceAlpha" operator="out" result="shadowBlurOuter1"></feComposite>
            <feColorMatrix values="0 0 0 0 0.823529412   0 0 0 0 0.854901961   0 0 0 0 0.905882353  0 0 0 0.445822011 0" type="matrix" in="shadowBlurOuter1"></feColorMatrix>
        </filter>
        <mask id="mask-3" maskContentUnits="userSpaceOnUse" maskUnits="objectBoundingBox" x="0" y="0" width="290" height="180" fill="white">
            <use xlink:href="#path-1"></use>
        </mask>
        <rect id="path-4" x="0" y="0" width="290" height="180" rx="4"></rect>
        <filter x="-50%" y="-50%" width="200%" height="200%" filterUnits="objectBoundingBox" id="filter-5">
            <feOffset dx="0" dy="2" in="SourceAlpha" result="shadowOffsetOuter1"></feOffset>
            <feGaussianBlur stdDeviation="1.5" in="shadowOffsetOuter1" result="shadowBlurOuter1"></feGaussianBlur>
            <feComposite in="shadowBlurOuter1" in2="SourceAlpha" operator="out" result="shadowBlurOuter1"></feComposite>
            <feColorMatrix values="0 0 0 0 0.823529412   0 0 0 0 0.854901961   0 0 0 0 0.905882353  0 0 0 0.445822011 0" type="matrix" in="shadowBlurOuter1"></feColorMatrix>
        </filter>
        <mask id="mask-6" maskContentUnits="userSpaceOnUse" maskUnits="objectBoundingBox" x="0" y="0" width="290" height="180" fill="white">
            <use xlink:href="#path-4"></use>
        </mask>
    </defs>
    <g id="Page-1" stroke="none" stroke-width="1" fill="none" fill-rule="evenodd">
        <g id="Desktop-HD" transform="translate(-37.000000, -332.000000)">
            <g id="PREMIERE-LAME" transform="translate(-155.000000, -21.000000)">
                <g id="Bloc-01" transform="translate(195.000000, 354.000000)">
                    <g id="Fond-Bloc-">
                        <use fill="black" fill-opacity="1" filter="url(#filter-2)" xlink:href="#path-1"></use>
                        <use stroke-opacity="0.198228034" stroke="#657077" mask="url(#mask-3)" stroke-width="2" fill="#FFFFFF" fill-rule="evenodd" xlink:href="#path-1"></use>
                    </g>
                    <g id="Fond-Bloc--Copy">
                        <use fill="black" fill-opacity="1" filter="url(#filter-5)" xlink:href="#path-4"></use>
                        <use stroke-opacity="0.198228034" stroke="#657077" mask="url(#mask-6)" stroke-width="2" fill="#FFFFFF" fill-rule="evenodd" xlink:href="#path-4"></use>
                    </g>
                    <path d="M54.6020508,70 L53.3569336,70 L53.3569336,64.9609375 L47.7172852,64.9609375 L47.7172852,70 L46.472168,70 L46.472168,59.2919922 L47.7172852,59.2919922 L47.7172852,63.8476562 L53.3569336,63.8476562 L53.3569336,59.2919922 L54.6020508,59.2919922 L54.6020508,70 Z M60.7470703,70.1464844 C59.5605409,70.1464844 58.624271,69.7851599 57.9382324,69.0625 C57.2521938,68.3398401 56.9091797,67.3364322 56.9091797,66.0522461 C56.9091797,64.7582943 57.22778,63.7304726 57.8649902,62.96875 C58.5022005,62.2070274 59.3579048,61.8261719 60.4321289,61.8261719 C61.4379933,61.8261719 62.2338838,62.1569791 62.8198242,62.8186035 C63.4057646,63.4802279 63.6987305,64.3530219 63.6987305,65.4370117 L63.6987305,66.2060547 L58.1689453,66.2060547 C58.1933595,67.1484422 58.4313942,67.8637671 58.8830566,68.3520508 C59.3347191,68.8403345 59.970699,69.0844727 60.7910156,69.0844727 C61.6552778,69.0844727 62.5097614,68.9038104 63.3544922,68.5424805 L63.3544922,69.6264648 C62.9248025,69.8120126 62.5183125,69.945068 62.1350098,70.0256348 C61.7517071,70.1062016 61.2890652,70.1464844 60.7470703,70.1464844 Z M60.4174805,62.8442383 C59.772946,62.8442383 59.2590351,63.0541971 58.8757324,63.4741211 C58.4924297,63.8940451 58.2666019,64.4750939 58.1982422,65.2172852 L62.3950195,65.2172852 C62.3950195,64.4506798 62.2241228,63.8635274 61.8823242,63.4558105 C61.5405256,63.0480937 61.0522493,62.8442383 60.4174805,62.8442383 Z M64.4970703,61.9726562 L65.8007812,61.9726562 L67.5585938,66.550293 C67.9443379,67.5952201 68.1835933,68.3496071 68.2763672,68.8134766 L68.3349609,68.8134766 C68.3984378,68.5644519 68.5314931,68.1384307 68.7341309,67.5354004 C68.9367686,66.93237 69.5996038,65.0781405 70.7226562,61.9726562 L72.0263672,61.9726562 L68.5766602,71.1132812 C68.2348616,72.0166061 67.8356956,72.6574688 67.3791504,73.0358887 C66.9226051,73.4143085 66.362308,73.6035156 65.6982422,73.6035156 C65.3271466,73.6035156 64.9609393,73.5620121 64.5996094,73.4790039 L64.5996094,72.5048828 C64.8681654,72.5634769 65.1684554,72.5927734 65.5004883,72.5927734 C66.3354534,72.5927734 66.9311506,72.1240281 67.2875977,71.1865234 L67.734375,70.0439453 L64.4970703,61.9726562 Z M74.6044922,68.2568359 L74.7143555,68.425293 C74.5874017,68.9135767 74.4042981,69.4811979 74.1650391,70.1281738 C73.9257801,70.7751497 73.6767591,71.3769503 73.4179688,71.9335938 L72.5024414,71.9335938 C72.634278,71.4257787 72.7795402,70.7983436 72.9382324,70.0512695 C73.0969246,69.3041955 73.2080075,68.7060569 73.2714844,68.2568359 L74.6044922,68.2568359 Z M87.4584961,70 L85.9863281,65.2905273 C85.8935542,65.00244 85.7202161,64.3481496 85.4663086,63.3276367 L85.4077148,63.3276367 C85.2124014,64.1821332 85.0415046,64.8413063 84.8950195,65.3051758 L83.3789062,70 L81.9726562,70 L79.7827148,61.9726562 L81.0571289,61.9726562 C81.5747096,63.9892679 81.9689928,65.5248971 82.2399902,66.5795898 C82.5109877,67.6342826 82.6660154,68.3447247 82.7050781,68.7109375 L82.7636719,68.7109375 C82.8173831,68.4326158 82.9040521,68.072512 83.0236816,67.6306152 C83.1433111,67.1887185 83.2470699,66.8383802 83.3349609,66.5795898 L84.8071289,61.9726562 L86.1254883,61.9726562 L87.5610352,66.5795898 C87.834474,67.4194378 88.020019,68.1249971 88.1176758,68.6962891 L88.1762695,68.6962891 C88.1958009,68.5205069 88.2482906,68.2495135 88.3337402,67.8833008 C88.4191899,67.517088 88.928218,65.5468929 89.8608398,61.9726562 L91.1206055,61.9726562 L88.9013672,70 L87.4584961,70 Z M95.9619141,70.1464844 C94.7753847,70.1464844 93.8391148,69.7851599 93.1530762,69.0625 C92.4670376,68.3398401 92.1240234,67.3364322 92.1240234,66.0522461 C92.1240234,64.7582943 92.4426238,63.7304726 93.079834,62.96875 C93.7170442,62.2070274 94.5727485,61.8261719 95.6469727,61.8261719 C96.6528371,61.8261719 97.4487275,62.1569791 98.034668,62.8186035 C98.6206084,63.4802279 98.9135742,64.3530219 98.9135742,65.4370117 L98.9135742,66.2060547 L93.3837891,66.2060547 C93.4082032,67.1484422 93.646238,67.8637671 94.0979004,68.3520508 C94.5495628,68.8403345 95.1855428,69.0844727 96.0058594,69.0844727 C96.8701215,69.0844727 97.7246052,68.9038104 98.5693359,68.5424805 L98.5693359,69.6264648 C98.1396463,69.8120126 97.7331562,69.945068 97.3498535,70.0256348 C96.9665508,70.1062016 96.503909,70.1464844 95.9619141,70.1464844 Z M95.6323242,62.8442383 C94.9877897,62.8442383 94.4738789,63.0541971 94.0905762,63.4741211 C93.7072735,63.8940451 93.4814457,64.4750939 93.4130859,65.2172852 L97.6098633,65.2172852 C97.6098633,64.4506798 97.4389666,63.8635274 97.097168,63.4558105 C96.7553694,63.0480937 96.267093,62.8442383 95.6323242,62.8442383 Z M102.202148,70 L100.986328,70 L100.986328,58.6035156 L102.202148,58.6035156 L102.202148,70 Z M107.988281,70.1464844 C106.826166,70.1464844 105.926517,69.7888219 105.289307,69.0734863 C104.652096,68.3581507 104.333496,67.3461979 104.333496,66.0375977 C104.333496,64.6948175 104.656979,63.6572302 105.303955,62.9248047 C105.950931,62.1923792 106.872553,61.8261719 108.068848,61.8261719 C108.454592,61.8261719 108.84033,61.8676754 109.226074,61.9506836 C109.611818,62.0336918 109.91455,62.1313471 110.134277,62.2436523 L109.760742,63.2763672 C109.492186,63.1689448 109.19922,63.0798343 108.881836,63.0090332 C108.564452,62.9382321 108.283693,62.902832 108.039551,62.902832 C106.408683,62.902832 105.593262,63.9428607 105.593262,66.0229492 C105.593262,67.0092823 105.792234,67.7661106 106.190186,68.293457 C106.588137,68.8208034 107.17773,69.0844727 107.958984,69.0844727 C108.627933,69.0844727 109.313961,68.9404311 110.01709,68.6523438 L110.01709,69.7290039 C109.479978,70.0073256 108.803715,70.1464844 107.988281,70.1464844 Z M118.850098,65.9790039 C118.850098,67.2876042 118.520511,68.3093225 117.861328,69.0441895 C117.202145,69.7790564 116.29151,70.1464844 115.129395,70.1464844 C114.411618,70.1464844 113.774417,69.978029 113.217773,69.6411133 C112.66113,69.3041975 112.231447,68.8208039 111.928711,68.190918 C111.625975,67.561032 111.474609,66.8237347 111.474609,65.9790039 C111.474609,64.6704036 111.801755,63.6511267 112.456055,62.9211426 C113.110355,62.1911585 114.018549,61.8261719 115.180664,61.8261719 C116.303717,61.8261719 117.196042,62.1997033 117.857666,62.9467773 C118.51929,63.6938514 118.850098,64.7045835 118.850098,65.9790039 Z M112.734375,65.9790039 C112.734375,67.0043997 112.939451,67.7856418 113.349609,68.3227539 C113.759768,68.859866 114.362789,69.128418 115.158691,69.128418 C115.954594,69.128418 116.558836,68.8610867 116.971436,68.326416 C117.384035,67.7917454 117.590332,67.0092825 117.590332,65.9790039 C117.590332,64.958491 117.384035,64.1833523 116.971436,63.6535645 C116.558836,63.1237766 115.949711,62.8588867 115.144043,62.8588867 C114.348141,62.8588867 113.747561,63.1201146 113.342285,63.6425781 C112.93701,64.1650417 112.734375,64.9438425 112.734375,65.9790039 Z M131.213379,70 L131.213379,64.777832 C131.213379,64.1381804 131.076662,63.6584489 130.803223,63.338623 C130.529784,63.0187972 130.104983,62.8588867 129.528809,62.8588867 C128.771969,62.8588867 128.212892,63.0761697 127.851562,63.5107422 C127.490233,63.9453147 127.30957,64.6142533 127.30957,65.5175781 L127.30957,70 L126.09375,70 L126.09375,64.777832 C126.09375,64.1381804 125.957033,63.6584489 125.683594,63.338623 C125.410155,63.0187972 124.982913,62.8588867 124.401855,62.8588867 C123.640133,62.8588867 123.082277,63.0871559 122.728271,63.5437012 C122.374266,64.0002464 122.197266,64.74853 122.197266,65.7885742 L122.197266,70 L120.981445,70 L120.981445,61.9726562 L121.970215,61.9726562 L122.167969,63.0712891 L122.226562,63.0712891 C122.456056,62.6806621 122.779539,62.3754894 123.197021,62.1557617 C123.614504,61.9360341 124.082029,61.8261719 124.599609,61.8261719 C125.854498,61.8261719 126.674803,62.2802689 127.060547,63.1884766 L127.119141,63.1884766 C127.3584,62.7685526 127.705076,62.4365247 128.15918,62.1923828 C128.613284,61.948241 129.130856,61.8261719 129.711914,61.8261719 C130.620122,61.8261719 131.300047,62.0593238 131.751709,62.5256348 C132.203371,62.9919457 132.429199,63.7377878 132.429199,64.7631836 L132.429199,70 L131.213379,70 Z M138.325195,70.1464844 C137.138666,70.1464844 136.202396,69.7851599 135.516357,69.0625 C134.830319,68.3398401 134.487305,67.3364322 134.487305,66.0522461 C134.487305,64.7582943 134.805905,63.7304726 135.443115,62.96875 C136.080325,62.2070274 136.93603,61.8261719 138.010254,61.8261719 C139.016118,61.8261719 139.812009,62.1569791 140.397949,62.8186035 C140.98389,63.4802279 141.276855,64.3530219 141.276855,65.4370117 L141.276855,66.2060547 L135.74707,66.2060547 C135.771484,67.1484422 136.009519,67.8637671 136.461182,68.3520508 C136.912844,68.8403345 137.548824,69.0844727 138.369141,69.0844727 C139.233403,69.0844727 140.087886,68.9038104 140.932617,68.5424805 L140.932617,69.6264648 C140.502928,69.8120126 140.096437,69.945068 139.713135,70.0256348 C139.329832,70.1062016 138.86719,70.1464844 138.325195,70.1464844 Z M137.995605,62.8442383 C137.351071,62.8442383 136.83716,63.0541971 136.453857,63.4741211 C136.070555,63.8940451 135.844727,64.4750939 135.776367,65.2172852 L139.973145,65.2172852 C139.973145,64.4506798 139.802248,63.8635274 139.460449,63.4558105 C139.118651,63.0480937 138.630374,62.8442383 137.995605,62.8442383 Z M149.838867,69.1430664 C150.053712,69.1430664 150.261229,69.1271974 150.461426,69.095459 C150.661622,69.0637205 150.820312,69.0307619 150.9375,68.996582 L150.9375,69.9267578 C150.805663,69.9902347 150.611574,70.0427244 150.355225,70.0842285 C150.098876,70.1257326 149.868165,70.1464844 149.663086,70.1464844 C148.110344,70.1464844 147.333984,69.3286215 147.333984,67.6928711 L147.333984,62.9174805 L146.184082,62.9174805 L146.184082,62.331543 L147.333984,61.8261719 L147.84668,60.1123047 L148.549805,60.1123047 L148.549805,61.9726562 L150.878906,61.9726562 L150.878906,62.9174805 L148.549805,62.9174805 L148.549805,67.6416016 C148.549805,68.1250024 148.66455,68.4960925 148.894043,68.7548828 C149.123536,69.0136732 149.438475,69.1430664 149.838867,69.1430664 Z M159.470215,65.9790039 C159.470215,67.2876042 159.140628,68.3093225 158.481445,69.0441895 C157.822262,69.7790564 156.911627,70.1464844 155.749512,70.1464844 C155.031735,70.1464844 154.394534,69.978029 153.837891,69.6411133 C153.281247,69.3041975 152.851564,68.8208039 152.548828,68.190918 C152.246092,67.561032 152.094727,66.8237347 152.094727,65.9790039 C152.094727,64.6704036 152.421872,63.6511267 153.076172,62.9211426 C153.730472,62.1911585 154.638666,61.8261719 155.800781,61.8261719 C156.923834,61.8261719 157.816159,62.1997033 158.477783,62.9467773 C159.139408,63.6938514 159.470215,64.7045835 159.470215,65.9790039 Z M153.354492,65.9790039 C153.354492,67.0043997 153.559568,67.7856418 153.969727,68.3227539 C154.379885,68.859866 154.982906,69.128418 155.778809,69.128418 C156.574711,69.128418 157.178953,68.8610867 157.591553,68.326416 C158.004152,67.7917454 158.210449,67.0092825 158.210449,65.9790039 C158.210449,64.958491 158.004152,64.1833523 157.591553,63.6535645 C157.178953,63.1237766 156.569828,62.8588867 155.76416,62.8588867 C154.968258,62.8588867 154.367678,63.1201146 153.962402,63.6425781 C153.557127,64.1650417 153.354492,64.9438425 153.354492,65.9790039 Z M165.681152,70 L165.681152,59.2919922 L166.92627,59.2919922 L166.92627,70 L165.681152,70 Z M175.17334,70 L175.17334,64.8071289 C175.17334,64.1528288 175.024416,63.6645524 174.726562,63.3422852 C174.428709,63.0200179 173.962406,62.8588867 173.327637,62.8588867 C172.487789,62.8588867 171.872561,63.0859352 171.481934,63.5400391 C171.091307,63.9941429 170.895996,64.7436471 170.895996,65.7885742 L170.895996,70 L169.680176,70 L169.680176,61.9726562 L170.668945,61.9726562 L170.866699,63.0712891 L170.925293,63.0712891 C171.174318,62.6757793 171.523435,62.3693859 171.972656,62.1520996 C172.421877,61.9348134 172.922361,61.8261719 173.474121,61.8261719 C174.440923,61.8261719 175.168455,62.0593238 175.656738,62.5256348 C176.145022,62.9919457 176.38916,63.7377878 176.38916,64.7631836 L176.38916,70 L175.17334,70 Z M185.441895,70 L183.969727,65.2905273 C183.876953,65.00244 183.703615,64.3481496 183.449707,63.3276367 L183.391113,63.3276367 C183.1958,64.1821332 183.024903,64.8413063 182.878418,65.3051758 L181.362305,70 L179.956055,70 L177.766113,61.9726562 L179.040527,61.9726562 C179.558108,63.9892679 179.952391,65.5248971 180.223389,66.5795898 C180.494386,67.6342826 180.649414,68.3447247 180.688477,68.7109375 L180.74707,68.7109375 C180.800782,68.4326158 180.887451,68.072512 181.00708,67.6306152 C181.12671,67.1887185 181.230468,66.8383802 181.318359,66.5795898 L182.790527,61.9726562 L184.108887,61.9726562 L185.544434,66.5795898 C185.817872,67.4194378 186.003417,68.1249971 186.101074,68.6962891 L186.159668,68.6962891 C186.179199,68.5205069 186.231689,68.2495135 186.317139,67.8833008 C186.402588,67.517088 186.911616,65.5468929 187.844238,61.9726562 L189.104004,61.9726562 L186.884766,70 L185.441895,70 Z M195.490723,70 L195.249023,68.8574219 L195.19043,68.8574219 C194.790037,69.3603541 194.390871,69.7009268 193.99292,69.8791504 C193.594969,70.0573739 193.098148,70.1464844 192.502441,70.1464844 C191.706539,70.1464844 191.082766,69.9414083 190.631104,69.53125 C190.179441,69.1210917 189.953613,68.5376014 189.953613,67.7807617 C189.953613,66.1596599 191.249987,65.310059 193.842773,65.2319336 L195.205078,65.1879883 L195.205078,64.6899414 C195.205078,64.0600554 195.069581,63.5949722 194.798584,63.2946777 C194.527587,62.9943833 194.094241,62.8442383 193.498535,62.8442383 C192.829586,62.8442383 192.072758,63.0493144 191.228027,63.4594727 L190.854492,62.5292969 C191.250002,62.3144521 191.683347,62.1459967 192.154541,62.0239258 C192.625735,61.9018549 193.098142,61.8408203 193.571777,61.8408203 C194.528813,61.8408203 195.238035,62.0532205 195.699463,62.4780273 C196.160891,62.9028342 196.391602,63.5839797 196.391602,64.5214844 L196.391602,70 L195.490723,70 Z M192.744141,69.1430664 C193.50098,69.1430664 194.095457,68.935549 194.527588,68.5205078 C194.959719,68.1054667 195.175781,67.5244178 195.175781,66.7773438 L195.175781,66.0522461 L193.959961,66.1035156 C192.993159,66.1376955 192.296145,66.2878405 191.868896,66.5539551 C191.441648,66.8200697 191.228027,67.2338839 191.228027,67.7954102 C191.228027,68.2348655 191.361083,68.5693348 191.627197,68.7988281 C191.893312,69.0283215 192.265623,69.1430664 192.744141,69.1430664 Z M200.112305,70 L198.896484,70 L198.896484,58.6035156 L200.112305,58.6035156 L200.112305,70 Z M203.90625,70 L202.69043,70 L202.69043,58.6035156 L203.90625,58.6035156 L203.90625,70 Z M215.375977,67.0483398 L214.606934,67.0483398 L214.233398,59.2919922 L215.749512,59.2919922 L215.375977,67.0483398 Z M214.101562,69.2236328 C214.101562,68.559567 214.394528,68.2275391 214.980469,68.2275391 C215.263673,68.2275391 215.482177,68.3129874 215.635986,68.4838867 C215.789796,68.654786 215.866699,68.9013656 215.866699,69.2236328 C215.866699,69.5361344 215.788575,69.7790519 215.632324,69.9523926 C215.476073,70.1257333 215.25879,70.2124023 214.980469,70.2124023 C214.726561,70.2124023 214.516602,70.1354988 214.350586,69.9816895 C214.184569,69.8278801 214.101562,69.5751971 214.101562,69.2236328 Z" id="Hey,-welcome-to-Inwa" fill="#949595"></path>
                    <path d="M60.7709961,155 L53.7324219,155 L53.7324219,153.952637 L56.5522461,151.118164 C57.4116254,150.249019 57.978026,149.628908 58.2514648,149.257812 C58.5249037,148.886717 58.7299798,148.525392 58.8666992,148.173828 C59.0034187,147.822264 59.0717773,147.44385 59.0717773,147.038574 C59.0717773,146.467282 58.8984392,146.014406 58.5517578,145.679932 C58.2050764,145.345457 57.7241242,145.178223 57.1088867,145.178223 C56.6645486,145.178223 56.2434102,145.251464 55.845459,145.397949 C55.4475078,145.544434 55.004397,145.810545 54.5161133,146.196289 L53.871582,145.368652 C54.8579151,144.548336 55.9321231,144.138184 57.0942383,144.138184 C58.1001027,144.138184 58.888669,144.395749 59.4599609,144.910889 C60.0312529,145.426028 60.3168945,146.11816 60.3168945,146.987305 C60.3168945,147.666019 60.1264667,148.337399 59.7456055,149.001465 C59.3647442,149.665531 58.6518607,150.505366 57.6069336,151.520996 L55.2631836,153.813477 L55.2631836,153.87207 L60.7709961,153.87207 L60.7709961,155 Z" id="2-copy" fill="#949595"></path>
                    <path d="M37.74,156.782609 C33.06,152.782609 30,150.086957 30,146.782609 C30,144.086957 32.16,142 34.95,142 C36.48,142 38.01,142.695652 39,143.826087 C39.99,142.695652 41.52,142 43.05,142 C45.84,142 48,144.086957 48,146.782609 C48,150.086957 44.94,152.782609 40.26,156.782609 L39,158 L37.74,156.782609 Z" id="Like" fill="#DDDADA"></path>
                    <g id="Pastilles" transform="translate(161.000000, 141.000000)">
                        <g id="Pastille-Verte" fill="#00C3A6">
                            <circle id="Oval-2" cx="9" cy="9" r="6"></circle>
                        </g>
                        <g id="Pastille-Rouge" transform="translate(31.000000, 3.000000)" fill="#FC573C">
                            <circle id="Oval-2" cx="6" cy="6" r="6"></circle>
                        </g>
                        <g id="Pastille-Jaune" transform="translate(59.000000, 3.000000)" fill="#FFD800">
                            <circle id="Oval-2" cx="6" cy="6" r="6"></circle>
                        </g>
                        <g id="Pastille-Jaune" transform="translate(87.000000, 3.000000)" fill="#2CB4E8">
                            <circle id="Oval-2" cx="6" cy="6" r="6"></circle>
                        </g>
                    </g>
                    <path d="M29.4994939,123 L260.500541,123" id="Line" stroke="#F0F0F0" stroke-linecap="square"></path>
                    <g id="Close" transform="translate(263.000000, 17.000000)" fill="#BBBBBB">
                        <polygon id="Shape" points="10 1 9 0 5 4 1 0 0 1 4 5 0 9 1 10 5 6 9 10 10 9 6 5"></polygon>
                    </g>
                </g>
            </g>
        </g>
    </g>
</svg>