<?xml version="1.0" encoding="UTF-8" standalone="no"?>
<svg width="296px" height="225px" viewBox="0 0 296 225" version="1.1" xmlns="http://www.w3.org/2000/svg" xmlns:xlink="http://www.w3.org/1999/xlink">
    <!-- Generator: Sketch 41.2 (35397) - http://www.bohemiancoding.com/sketch -->
    <title>Bloc 03</title>
    <desc>Created with Sketch.</desc>
    <defs>
        <rect id="path-1" x="0" y="0" width="290" height="219" rx="4"></rect>
        <filter x="-50%" y="-50%" width="200%" height="200%" filterUnits="objectBoundingBox" id="filter-2">
            <feOffset dx="0" dy="2" in="SourceAlpha" result="shadowOffsetOuter1"></feOffset>
            <feGaussianBlur stdDeviation="1.5" in="shadowOffsetOuter1" result="shadowBlurOuter1"></feGaussianBlur>
            <feComposite in="shadowBlurOuter1" in2="SourceAlpha" operator="out" result="shadowBlurOuter1"></feComposite>
            <feColorMatrix values="0 0 0 0 0.823529412   0 0 0 0 0.854901961   0 0 0 0 0.905882353  0 0 0 0.45 0" type="matrix" in="shadowBlurOuter1"></feColorMatrix>
        </filter>
        <mask id="mask-3" maskContentUnits="userSpaceOnUse" maskUnits="objectBoundingBox" x="0" y="0" width="290" height="219" fill="white">
            <use xlink:href="#path-1"></use>
        </mask>
    </defs>
    <g id="Page-1" stroke="none" stroke-width="1" fill="none" fill-rule="evenodd">
        <g id="Desktop-HD" transform="translate(-967.000000, -416.000000)">
            <g id="PREMIERE-LAME" transform="translate(-53.000000, 0.000000)">
                <g id="Bloc-03" transform="translate(1023.000000, 417.000000)">
                    <g id="Fond-Bloc-">
                        <use fill="black" fill-opacity="1" filter="url(#filter-2)" xlink:href="#path-1"></use>
                        <use stroke-opacity="0.198228034" stroke="#657077" mask="url(#mask-3)" stroke-width="2" fill="#FFFFFF" fill-rule="evenodd" xlink:href="#path-1"></use>
                    </g>
                    <text id="Faites-des-choix-col" font-family="OpenSans, Open Sans" font-size="15" font-weight="normal" fill="#949595">
                        <tspan x="17" y="67">Faites des choix collectifs, testez </tspan>
                        <tspan x="17" y="87">les connaissances en votant par </tspan>
                        <tspan x="17" y="107">texto. </tspan>
                    </text>
                    <path d="M24.74,196.782609 C20.06,192.782609 17,190.086957 17,186.782609 C17,184.086957 19.16,182 21.95,182 C23.48,182 25.01,182.695652 26,183.826087 C26.99,182.695652 28.52,182 30.05,182 C32.84,182 35,184.086957 35,186.782609 C35,190.086957 31.94,192.782609 27.26,196.782609 L26,198 L24.74,196.782609 Z" id="Like" fill="#DEDEDE"></path>
                    <path d="M17,163 L272.5,163" id="Line" stroke="#F0F0F0" stroke-linecap="square"></path>
                </g>
            </g>
        </g>
    </g>
</svg>