<?xml version="1.0" encoding="UTF-8" standalone="no"?>
<svg width="296px" height="205px" viewBox="0 0 296 205" version="1.1" xmlns="http://www.w3.org/2000/svg" xmlns:xlink="http://www.w3.org/1999/xlink">
    <!-- Generator: Sketch 42 (36781) - http://www.bohemiancoding.com/sketch -->
    <title>Bloc 04</title>
    <desc>Created with Sketch.</desc>
    <defs>
        <rect id="path-1" x="0" y="0" width="290" height="199" rx="4"></rect>
        <filter x="-50%" y="-50%" width="200%" height="200%" filterUnits="objectBoundingBox" id="filter-2">
            <feOffset dx="0" dy="2" in="SourceAlpha" result="shadowOffsetOuter1"></feOffset>
            <feGaussianBlur stdDeviation="1.5" in="shadowOffsetOuter1" result="shadowBlurOuter1"></feGaussianBlur>
            <feComposite in="shadowBlurOuter1" in2="SourceAlpha" operator="out" result="shadowBlurOuter1"></feComposite>
            <feColorMatrix values="0 0 0 0 0.929411765   0 0 0 0 0.929411765   0 0 0 0 0.929411765  0 0 0 1 0" type="matrix" in="shadowBlurOuter1"></feColorMatrix>
        </filter>
        <mask id="mask-3" maskContentUnits="userSpaceOnUse" maskUnits="objectBoundingBox" x="0" y="0" width="290" height="199" fill="white">
            <use xlink:href="#path-1"></use>
        </mask>
    </defs>
    <g id="Page-1" stroke="none" stroke-width="1" fill="none" fill-rule="evenodd" opacity="0.247434701">
        <g id="Desktop-HD" transform="translate(-904.000000, -803.000000)">
            <g id="PREMIERE-LAME" transform="translate(-155.000000, -21.000000)">
                <g id="Bloc-04" transform="translate(1062.000000, 825.000000)">
                    <g id="Fond-Bloc-">
                        <use fill="black" fill-opacity="1" filter="url(#filter-2)" xlink:href="#path-1"></use>
                        <use stroke-opacity="0.198228034" stroke="#657077" mask="url(#mask-3)" stroke-width="2" fill="#FFFFFF" fill-rule="evenodd" xlink:href="#path-1"></use>
                    </g>
                    <path d="M50.0571289,62.2514648 C48.8803652,62.2514648 47.9514194,62.6433066 47.2702637,63.427002 C46.5891079,64.2106973 46.2485352,65.2836846 46.2485352,66.6459961 C46.2485352,68.0473703 46.576901,69.1301231 47.2336426,69.8942871 C47.8903841,70.6584511 48.8266541,71.0405273 50.0424805,71.0405273 C50.7895545,71.0405273 51.6415968,70.9062513 52.5986328,70.6376953 L52.5986328,71.7290039 C51.8564416,72.0073256 50.9409234,72.1464844 49.8520508,72.1464844 C48.2748945,72.1464844 47.0578656,71.6679735 46.2009277,70.7109375 C45.3439899,69.7539015 44.9155273,68.3940518 44.9155273,66.6313477 C44.9155273,65.5278265 45.1218241,64.5610393 45.5344238,63.730957 C45.9470235,62.9008748 46.5427207,62.2612327 47.3215332,61.8120117 C48.1003457,61.3627907 49.0170846,61.1381836 50.0717773,61.1381836 C51.1948298,61.1381836 52.1762653,61.3432597 53.0161133,61.753418 L52.4887695,62.8227539 C51.6782186,62.4418926 50.8676798,62.2514648 50.0571289,62.2514648 Z M60.2451172,72 L60.2451172,66.8071289 C60.2451172,66.1528288 60.0961929,65.6645524 59.7983398,65.3422852 C59.5004868,65.0200179 59.0341829,64.8588867 58.3994141,64.8588867 C57.5546833,64.8588867 56.9382344,65.0883766 56.5500488,65.5473633 C56.1618633,66.00635 55.9677734,66.7582956 55.9677734,67.8032227 L55.9677734,72 L54.7519531,72 L54.7519531,60.6035156 L55.9677734,60.6035156 L55.9677734,64.0532227 C55.9677734,64.4682638 55.9482424,64.8124986 55.9091797,65.0859375 L55.9824219,65.0859375 C56.2216809,64.7001934 56.5622536,64.3962413 57.0041504,64.1740723 C57.4460471,63.9519032 57.9501925,63.8408203 58.5166016,63.8408203 C59.4980518,63.8408203 60.2341284,64.0739723 60.7248535,64.5402832 C61.2155786,65.0065941 61.4609375,65.7475535 61.4609375,66.7631836 L61.4609375,72 L60.2451172,72 Z M70.887207,67.9790039 C70.887207,69.2876042 70.5576205,70.3093225 69.8984375,71.0441895 C69.2392545,71.7790564 68.3286191,72.1464844 67.1665039,72.1464844 C66.4487269,72.1464844 65.8115262,71.978029 65.2548828,71.6411133 C64.6982394,71.3041975 64.2685562,70.8208039 63.9658203,70.190918 C63.6630844,69.561032 63.5117188,68.8237347 63.5117188,67.9790039 C63.5117188,66.6704036 63.8388639,65.6511267 64.4931641,64.9211426 C65.1474642,64.1911585 66.0556583,63.8261719 67.2177734,63.8261719 C68.3408259,63.8261719 69.233151,64.1997033 69.8947754,64.9467773 C70.5563998,65.6938514 70.887207,66.7045835 70.887207,67.9790039 Z M64.7714844,67.9790039 C64.7714844,69.0043997 64.9765604,69.7856418 65.3867188,70.3227539 C65.7968771,70.859866 66.3998984,71.128418 67.1958008,71.128418 C67.9917032,71.128418 68.5959452,70.8610867 69.0085449,70.326416 C69.4211446,69.7917454 69.6274414,69.0092825 69.6274414,67.9790039 C69.6274414,66.958491 69.4211446,66.1833523 69.0085449,65.6535645 C68.5959452,65.1237766 67.9868204,64.8588867 67.1811523,64.8588867 C66.3852499,64.8588867 65.78467,65.1201146 65.3793945,65.6425781 C64.9741191,66.1650417 64.7714844,66.9438425 64.7714844,67.9790039 Z M79.9472656,67.9790039 C79.9472656,69.2876042 79.6176791,70.3093225 78.9584961,71.0441895 C78.2993131,71.7790564 77.3886777,72.1464844 76.2265625,72.1464844 C75.5087855,72.1464844 74.8715848,71.978029 74.3149414,71.6411133 C73.758298,71.3041975 73.3286148,70.8208039 73.0258789,70.190918 C72.723143,69.561032 72.5717773,68.8237347 72.5717773,67.9790039 C72.5717773,66.6704036 72.8989225,65.6511267 73.5532227,64.9211426 C74.2075228,64.1911585 75.1157168,63.8261719 76.277832,63.8261719 C77.4008845,63.8261719 78.2932096,64.1997033 78.954834,64.9467773 C79.6164584,65.6938514 79.9472656,66.7045835 79.9472656,67.9790039 Z M73.831543,67.9790039 C73.831543,69.0043997 74.036619,69.7856418 74.4467773,70.3227539 C74.8569356,70.859866 75.459957,71.128418 76.2558594,71.128418 C77.0517618,71.128418 77.6560038,70.8610867 78.0686035,70.326416 C78.4812032,69.7917454 78.6875,69.0092825 78.6875,67.9790039 C78.6875,66.958491 78.4812032,66.1833523 78.0686035,65.6535645 C77.6560038,65.1237766 77.046879,64.8588867 76.2412109,64.8588867 C75.4453085,64.8588867 74.8447286,65.1201146 74.4394531,65.6425781 C74.0341777,66.1650417 73.831543,66.9438425 73.831543,67.9790039 Z M87.2568359,69.8100586 C87.2568359,70.5571326 86.9785184,71.1332988 86.421875,71.5385742 C85.8652316,71.9438497 85.0839894,72.1464844 84.078125,72.1464844 C83.0136666,72.1464844 82.1835967,71.978029 81.5878906,71.6411133 L81.5878906,70.5131836 C81.9736347,70.7084971 82.387449,70.8623041 82.8293457,70.9746094 C83.2712424,71.0869146 83.6972636,71.1430664 84.1074219,71.1430664 C84.7421907,71.1430664 85.230467,71.0417491 85.5722656,70.8391113 C85.9140642,70.6364736 86.0849609,70.3276388 86.0849609,69.9125977 C86.0849609,69.6000961 85.9494642,69.3327648 85.6784668,69.1105957 C85.4074693,68.8884266 84.8789102,68.6259781 84.0927734,68.3232422 C83.3456994,68.0449205 82.8146988,67.802003 82.4997559,67.5944824 C82.1848129,67.3869619 81.9504402,67.1513685 81.7966309,66.8876953 C81.6428215,66.6240221 81.565918,66.3090839 81.565918,65.9428711 C81.565918,65.2885709 81.8320286,64.7722187 82.3642578,64.3937988 C82.896487,64.015379 83.6264602,63.8261719 84.5541992,63.8261719 C85.4184614,63.8261719 86.2631795,64.0019514 87.0883789,64.3535156 L86.65625,65.3422852 C85.8505819,65.0102522 85.1206087,64.8442383 84.4663086,64.8442383 C83.8901338,64.8442383 83.4555679,64.9345694 83.1625977,65.1152344 C82.8696274,65.2958993 82.7231445,65.5449203 82.7231445,65.8623047 C82.7231445,66.0771495 82.7780756,66.2602531 82.8879395,66.4116211 C82.9978033,66.562989 83.1748035,66.7070306 83.4189453,66.84375 C83.6630872,66.9804694 84.1318325,67.1782214 84.8251953,67.4370117 C85.7773485,67.7836931 86.4206526,68.1328107 86.755127,68.484375 C87.0896013,68.8359393 87.2568359,69.2778294 87.2568359,69.8100586 Z M92.6254883,72.1464844 C91.4389589,72.1464844 90.502689,71.7851599 89.8166504,71.0625 C89.1306118,70.3398401 88.7875977,69.3364322 88.7875977,68.0522461 C88.7875977,66.7582943 89.106198,65.7304726 89.7434082,64.96875 C90.3806184,64.2070274 91.2363228,63.8261719 92.3105469,63.8261719 C93.3164113,63.8261719 94.1123018,64.1569791 94.6982422,64.8186035 C95.2841826,65.4802279 95.5771484,66.3530219 95.5771484,67.4370117 L95.5771484,68.2060547 L90.0473633,68.2060547 C90.0717775,69.1484422 90.3098122,69.8637671 90.7614746,70.3520508 C91.213137,70.8403345 91.849117,71.0844727 92.6694336,71.0844727 C93.5336957,71.0844727 94.3881794,70.9038104 95.2329102,70.5424805 L95.2329102,71.6264648 C94.8032205,71.8120126 94.3967304,71.945068 94.0134277,72.0256348 C93.630125,72.1062016 93.1674832,72.1464844 92.6254883,72.1464844 Z M92.2958984,64.8442383 C91.651364,64.8442383 91.1374531,65.0541971 90.7541504,65.4741211 C90.3708477,65.8940451 90.1450199,66.4750939 90.0766602,67.2172852 L94.2734375,67.2172852 C94.2734375,66.4506798 94.1025408,65.8635274 93.7607422,65.4558105 C93.4189436,65.0480937 92.9306672,64.8442383 92.2958984,64.8442383 Z M102.762207,72 L101.546387,72 L101.546387,63.9726562 L102.762207,63.9726562 L102.762207,72 Z M101.443848,61.7973633 C101.443848,61.5190416 101.512206,61.3151862 101.648926,61.185791 C101.785645,61.0563958 101.956542,60.9916992 102.161621,60.9916992 C102.356935,60.9916992 102.52539,61.0576165 102.666992,61.1894531 C102.808594,61.3212897 102.879395,61.5239244 102.879395,61.7973633 C102.879395,62.0708021 102.808594,62.2746575 102.666992,62.4089355 C102.52539,62.5432136 102.356935,62.6103516 102.161621,62.6103516 C101.956542,62.6103516 101.785645,62.5432136 101.648926,62.4089355 C101.512206,62.2746575 101.443848,62.0708021 101.443848,61.7973633 Z M108.958496,64.9174805 L106.915039,64.9174805 L106.915039,72 L105.699219,72 L105.699219,64.9174805 L104.263672,64.9174805 L104.263672,64.3681641 L105.699219,63.9287109 L105.699219,63.4819336 C105.699219,61.5092675 106.561027,60.5229492 108.284668,60.5229492 C108.709475,60.5229492 109.207517,60.6083976 109.778809,60.7792969 L109.463867,61.753418 C108.995115,61.60205 108.594728,61.5263672 108.262695,61.5263672 C107.803709,61.5263672 107.464357,61.6789536 107.244629,61.9841309 C107.024901,62.2893082 106.915039,62.7788052 106.915039,63.4526367 L106.915039,63.9726562 L108.958496,63.9726562 L108.958496,64.9174805 Z M113.04541,63.9726562 L114.349121,63.9726562 L116.106934,68.550293 C116.492678,69.5952201 116.731933,70.3496071 116.824707,70.8134766 L116.883301,70.8134766 C116.946778,70.5644519 117.079833,70.1384307 117.282471,69.5354004 C117.485108,68.93237 118.147944,67.0781405 119.270996,63.9726562 L120.574707,63.9726562 L117.125,73.1132812 C116.783201,74.0166061 116.384035,74.6574688 115.92749,75.0358887 C115.470945,75.4143085 114.910648,75.6035156 114.246582,75.6035156 C113.875486,75.6035156 113.509279,75.5620121 113.147949,75.4790039 L113.147949,74.5048828 C113.416505,74.5634769 113.716795,74.5927734 114.048828,74.5927734 C114.883793,74.5927734 115.47949,74.1240281 115.835938,73.1865234 L116.282715,72.0439453 L113.04541,63.9726562 Z M128.807129,67.9790039 C128.807129,69.2876042 128.477542,70.3093225 127.818359,71.0441895 C127.159176,71.7790564 126.248541,72.1464844 125.086426,72.1464844 C124.368649,72.1464844 123.731448,71.978029 123.174805,71.6411133 C122.618161,71.3041975 122.188478,70.8208039 121.885742,70.190918 C121.583006,69.561032 121.431641,68.8237347 121.431641,67.9790039 C121.431641,66.6704036 121.758786,65.6511267 122.413086,64.9211426 C123.067386,64.1911585 123.97558,63.8261719 125.137695,63.8261719 C126.260748,63.8261719 127.153073,64.1997033 127.814697,64.9467773 C128.476322,65.6938514 128.807129,66.7045835 128.807129,67.9790039 Z M122.691406,67.9790039 C122.691406,69.0043997 122.896482,69.7856418 123.306641,70.3227539 C123.716799,70.859866 124.31982,71.128418 125.115723,71.128418 C125.911625,71.128418 126.515867,70.8610867 126.928467,70.326416 C127.341067,69.7917454 127.547363,69.0092825 127.547363,67.9790039 C127.547363,66.958491 127.341067,66.1833523 126.928467,65.6535645 C126.515867,65.1237766 125.906742,64.8588867 125.101074,64.8588867 C124.305172,64.8588867 123.704592,65.1201146 123.299316,65.6425781 C122.894041,66.1650417 122.691406,66.9438425 122.691406,67.9790039 Z M132.081055,63.9726562 L132.081055,69.1801758 C132.081055,69.8344759 132.229979,70.3227523 132.527832,70.6450195 C132.825685,70.9672868 133.291989,71.128418 133.926758,71.128418 C134.766606,71.128418 135.380613,70.8989281 135.768799,70.4399414 C136.156984,69.9809547 136.351074,69.2314505 136.351074,68.1914062 L136.351074,63.9726562 L137.566895,63.9726562 L137.566895,72 L136.563477,72 L136.387695,70.9233398 L136.321777,70.9233398 C136.072753,71.3188496 135.727297,71.621581 135.2854,71.831543 C134.843504,72.041505 134.339358,72.1464844 133.772949,72.1464844 C132.796382,72.1464844 132.065188,71.9145531 131.579346,71.4506836 C131.093503,70.9868141 130.850586,70.244634 130.850586,69.2241211 L130.850586,63.9726562 L132.081055,63.9726562 Z M150.59668,72 L149.124512,67.2905273 C149.031738,67.00244 148.8584,66.3481496 148.604492,65.3276367 L148.545898,65.3276367 C148.350585,66.1821332 148.179688,66.8413063 148.033203,67.3051758 L146.51709,72 L145.11084,72 L142.920898,63.9726562 L144.195312,63.9726562 C144.712893,65.9892679 145.107176,67.5248971 145.378174,68.5795898 C145.649171,69.6342826 145.804199,70.3447247 145.843262,70.7109375 L145.901855,70.7109375 C145.955567,70.4326158 146.042236,70.072512 146.161865,69.6306152 C146.281495,69.1887185 146.385253,68.8383802 146.473145,68.5795898 L147.945312,63.9726562 L149.263672,63.9726562 L150.699219,68.5795898 C150.972658,69.4194378 151.158203,70.1249971 151.255859,70.6962891 L151.314453,70.6962891 C151.333984,70.5205069 151.386474,70.2495135 151.471924,69.8833008 C151.557373,69.517088 152.066402,67.5468929 152.999023,63.9726562 L154.258789,63.9726562 L152.039551,72 L150.59668,72 Z M160.645508,72 L160.403809,70.8574219 L160.345215,70.8574219 C159.944822,71.3603541 159.545656,71.7009268 159.147705,71.8791504 C158.749754,72.0573739 158.252933,72.1464844 157.657227,72.1464844 C156.861324,72.1464844 156.237551,71.9414083 155.785889,71.53125 C155.334226,71.1210917 155.108398,70.5376014 155.108398,69.7807617 C155.108398,68.1596599 156.404772,67.310059 158.997559,67.2319336 L160.359863,67.1879883 L160.359863,66.6899414 C160.359863,66.0600554 160.224367,65.5949722 159.953369,65.2946777 C159.682372,64.9943833 159.249026,64.8442383 158.65332,64.8442383 C157.984372,64.8442383 157.227543,65.0493144 156.382812,65.4594727 L156.009277,64.5292969 C156.404787,64.3144521 156.838132,64.1459967 157.309326,64.0239258 C157.78052,63.9018549 158.252927,63.8408203 158.726562,63.8408203 C159.683599,63.8408203 160.39282,64.0532205 160.854248,64.4780273 C161.315676,64.9028342 161.546387,65.5839797 161.546387,66.5214844 L161.546387,72 L160.645508,72 Z M157.898926,71.1430664 C158.655766,71.1430664 159.250242,70.935549 159.682373,70.5205078 C160.114504,70.1054667 160.330566,69.5244178 160.330566,68.7773438 L160.330566,68.0522461 L159.114746,68.1035156 C158.147944,68.1376955 157.45093,68.2878405 157.023682,68.5539551 C156.596433,68.8200697 156.382812,69.2338839 156.382812,69.7954102 C156.382812,70.2348655 156.515868,70.5693348 156.781982,70.7988281 C157.048097,71.0283215 157.420408,71.1430664 157.898926,71.1430664 Z M169.544434,72 L169.544434,66.8071289 C169.544434,66.1528288 169.395509,65.6645524 169.097656,65.3422852 C168.799803,65.0200179 168.333499,64.8588867 167.69873,64.8588867 C166.858883,64.8588867 166.243654,65.0859352 165.853027,65.5400391 C165.4624,65.9941429 165.26709,66.7436471 165.26709,67.7885742 L165.26709,72 L164.05127,72 L164.05127,63.9726562 L165.040039,63.9726562 L165.237793,65.0712891 L165.296387,65.0712891 C165.545411,64.6757793 165.894529,64.3693859 166.34375,64.1520996 C166.792971,63.9348134 167.293454,63.8261719 167.845215,63.8261719 C168.812017,63.8261719 169.539548,64.0593238 170.027832,64.5256348 C170.516116,64.9919457 170.760254,65.7377878 170.760254,66.7631836 L170.760254,72 L169.544434,72 Z M175.850586,71.1430664 C176.065431,71.1430664 176.272948,71.1271974 176.473145,71.095459 C176.673341,71.0637205 176.832031,71.0307619 176.949219,70.996582 L176.949219,71.9267578 C176.817382,71.9902347 176.623292,72.0427244 176.366943,72.0842285 C176.110594,72.1257326 175.879884,72.1464844 175.674805,72.1464844 C174.122063,72.1464844 173.345703,71.3286215 173.345703,69.6928711 L173.345703,64.9174805 L172.195801,64.9174805 L172.195801,64.331543 L173.345703,63.8261719 L173.858398,62.1123047 L174.561523,62.1123047 L174.561523,63.9726562 L176.890625,63.9726562 L176.890625,64.9174805 L174.561523,64.9174805 L174.561523,69.6416016 C174.561523,70.1250024 174.676268,70.4960925 174.905762,70.7548828 C175.135255,71.0136732 175.450193,71.1430664 175.850586,71.1430664 Z M185.04248,71.1430664 C185.257325,71.1430664 185.464843,71.1271974 185.665039,71.095459 C185.865235,71.0637205 186.023925,71.0307619 186.141113,70.996582 L186.141113,71.9267578 C186.009277,71.9902347 185.815187,72.0427244 185.558838,72.0842285 C185.302489,72.1257326 185.071778,72.1464844 184.866699,72.1464844 C183.313957,72.1464844 182.537598,71.3286215 182.537598,69.6928711 L182.537598,64.9174805 L181.387695,64.9174805 L181.387695,64.331543 L182.537598,63.8261719 L183.050293,62.1123047 L183.753418,62.1123047 L183.753418,63.9726562 L186.08252,63.9726562 L186.08252,64.9174805 L183.753418,64.9174805 L183.753418,69.6416016 C183.753418,70.1250024 183.868163,70.4960925 184.097656,70.7548828 C184.32715,71.0136732 184.642088,71.1430664 185.04248,71.1430664 Z M194.673828,67.9790039 C194.673828,69.2876042 194.344242,70.3093225 193.685059,71.0441895 C193.025876,71.7790564 192.11524,72.1464844 190.953125,72.1464844 C190.235348,72.1464844 189.598147,71.978029 189.041504,71.6411133 C188.48486,71.3041975 188.055177,70.8208039 187.752441,70.190918 C187.449706,69.561032 187.29834,68.8237347 187.29834,67.9790039 C187.29834,66.6704036 187.625485,65.6511267 188.279785,64.9211426 C188.934085,64.1911585 189.842279,63.8261719 191.004395,63.8261719 C192.127447,63.8261719 193.019772,64.1997033 193.681396,64.9467773 C194.343021,65.6938514 194.673828,66.7045835 194.673828,67.9790039 Z M188.558105,67.9790039 C188.558105,69.0043997 188.763182,69.7856418 189.17334,70.3227539 C189.583498,70.859866 190.186519,71.128418 190.982422,71.128418 C191.778324,71.128418 192.382566,70.8610867 192.795166,70.326416 C193.207766,69.7917454 193.414062,69.0092825 193.414062,67.9790039 C193.414062,66.958491 193.207766,66.1833523 192.795166,65.6535645 C192.382566,65.1237766 191.773442,64.8588867 190.967773,64.8588867 C190.171871,64.8588867 189.571291,65.1201146 189.166016,65.6425781 C188.76074,66.1650417 188.558105,66.9438425 188.558105,67.9790039 Z M201.844238,63.9726562 L201.844238,69.1801758 C201.844238,69.8344759 201.993163,70.3227523 202.291016,70.6450195 C202.588869,70.9672868 203.055173,71.128418 203.689941,71.128418 C204.529789,71.128418 205.143797,70.8989281 205.531982,70.4399414 C205.920168,69.9809547 206.114258,69.2314505 206.114258,68.1914062 L206.114258,63.9726562 L207.330078,63.9726562 L207.330078,72 L206.32666,72 L206.150879,70.9233398 L206.084961,70.9233398 C205.835936,71.3188496 205.490481,71.621581 205.048584,71.831543 C204.606687,72.041505 204.102542,72.1464844 203.536133,72.1464844 C202.559565,72.1464844 201.828372,71.9145531 201.342529,71.4506836 C200.856687,70.9868141 200.61377,70.244634 200.61377,69.2241211 L200.61377,63.9726562 L201.844238,63.9726562 Z M215.086426,69.8100586 C215.086426,70.5571326 214.808108,71.1332988 214.251465,71.5385742 C213.694821,71.9438497 212.913579,72.1464844 211.907715,72.1464844 C210.843256,72.1464844 210.013187,71.978029 209.41748,71.6411133 L209.41748,70.5131836 C209.803225,70.7084971 210.217039,70.8623041 210.658936,70.9746094 C211.100832,71.0869146 211.526853,71.1430664 211.937012,71.1430664 C212.571781,71.1430664 213.060057,71.0417491 213.401855,70.8391113 C213.743654,70.6364736 213.914551,70.3276388 213.914551,69.9125977 C213.914551,69.6000961 213.779054,69.3327648 213.508057,69.1105957 C213.237059,68.8884266 212.7085,68.6259781 211.922363,68.3232422 C211.175289,68.0449205 210.644289,67.802003 210.329346,67.5944824 C210.014403,67.3869619 209.78003,67.1513685 209.626221,66.8876953 C209.472411,66.6240221 209.395508,66.3090839 209.395508,65.9428711 C209.395508,65.2885709 209.661618,64.7722187 210.193848,64.3937988 C210.726077,64.015379 211.45605,63.8261719 212.383789,63.8261719 C213.248051,63.8261719 214.092769,64.0019514 214.917969,64.3535156 L214.48584,65.3422852 C213.680172,65.0102522 212.950199,64.8442383 212.295898,64.8442383 C211.719724,64.8442383 211.285158,64.9345694 210.992188,65.1152344 C210.699217,65.2958993 210.552734,65.5449203 210.552734,65.8623047 C210.552734,66.0771495 210.607665,66.2602531 210.717529,66.4116211 C210.827393,66.562989 211.004393,66.7070306 211.248535,66.84375 C211.492677,66.9804694 211.961422,67.1782214 212.654785,67.4370117 C213.606938,67.7836931 214.250242,68.1328107 214.584717,68.484375 C214.919191,68.8359393 215.086426,69.2778294 215.086426,69.8100586 Z M220.455078,72.1464844 C219.268549,72.1464844 218.332279,71.7851599 217.64624,71.0625 C216.960202,70.3398401 216.617188,69.3364322 216.617188,68.0522461 C216.617188,66.7582943 216.935788,65.7304726 217.572998,64.96875 C218.210208,64.2070274 219.065913,63.8261719 220.140137,63.8261719 C221.146001,63.8261719 221.941892,64.1569791 222.527832,64.8186035 C223.113772,65.4802279 223.406738,66.3530219 223.406738,67.4370117 L223.406738,68.2060547 L217.876953,68.2060547 C217.901367,69.1484422 218.139402,69.8637671 218.591064,70.3520508 C219.042727,70.8403345 219.678707,71.0844727 220.499023,71.0844727 C221.363286,71.0844727 222.217769,70.9038104 223.0625,70.5424805 L223.0625,71.6264648 C222.63281,71.8120126 222.22632,71.945068 221.843018,72.0256348 C221.459715,72.1062016 220.997073,72.1464844 220.455078,72.1464844 Z M220.125488,64.8442383 C219.480954,64.8442383 218.967043,65.0541971 218.58374,65.4741211 C218.200438,65.8940451 217.97461,66.4750939 217.90625,67.2172852 L222.103027,67.2172852 C222.103027,66.4506798 221.932131,65.8635274 221.590332,65.4558105 C221.248533,65.0480937 220.760257,64.8442383 220.125488,64.8442383 Z M230.591797,72 L229.375977,72 L229.375977,63.9726562 L230.591797,63.9726562 L230.591797,72 Z M229.273438,61.7973633 C229.273438,61.5190416 229.341796,61.3151862 229.478516,61.185791 C229.615235,61.0563958 229.786132,60.9916992 229.991211,60.9916992 C230.186524,60.9916992 230.35498,61.0576165 230.496582,61.1894531 C230.638184,61.3212897 230.708984,61.5239244 230.708984,61.7973633 C230.708984,62.0708021 230.638184,62.2746575 230.496582,62.4089355 C230.35498,62.5432136 230.186524,62.6103516 229.991211,62.6103516 C229.786132,62.6103516 229.615235,62.5432136 229.478516,62.4089355 C229.341796,62.2746575 229.273438,62.0708021 229.273438,61.7973633 Z M235.762695,71.1430664 C235.97754,71.1430664 236.185058,71.1271974 236.385254,71.095459 C236.58545,71.0637205 236.74414,71.0307619 236.861328,70.996582 L236.861328,71.9267578 C236.729492,71.9902347 236.535402,72.0427244 236.279053,72.0842285 C236.022704,72.1257326 235.791993,72.1464844 235.586914,72.1464844 C234.034172,72.1464844 233.257812,71.3286215 233.257812,69.6928711 L233.257812,64.9174805 L232.10791,64.9174805 L232.10791,64.331543 L233.257812,63.8261719 L233.770508,62.1123047 L234.473633,62.1123047 L234.473633,63.9726562 L236.802734,63.9726562 L236.802734,64.9174805 L234.473633,64.9174805 L234.473633,69.6416016 C234.473633,70.1250024 234.588378,70.4960925 234.817871,70.7548828 C235.047364,71.0136732 235.362303,71.1430664 235.762695,71.1430664 Z M52.2177734,87.9790039 C52.2177734,89.2876042 51.8881869,90.3093225 51.2290039,91.0441895 C50.5698209,91.7790564 49.6591855,92.1464844 48.4970703,92.1464844 C47.7792933,92.1464844 47.1420926,91.978029 46.5854492,91.6411133 C46.0288058,91.3041975 45.5991226,90.8208039 45.2963867,90.190918 C44.9936508,89.561032 44.8422852,88.8237347 44.8422852,87.9790039 C44.8422852,86.6704036 45.1694303,85.6511267 45.8237305,84.9211426 C46.4780306,84.1911585 47.3862247,83.8261719 48.5483398,83.8261719 C49.6713923,83.8261719 50.5637174,84.1997033 51.2253418,84.9467773 C51.8869662,85.6938514 52.2177734,86.7045835 52.2177734,87.9790039 Z M46.1020508,87.9790039 C46.1020508,89.0043997 46.3071269,89.7856418 46.7172852,90.3227539 C47.1274435,90.859866 47.7304648,91.128418 48.5263672,91.128418 C49.3222696,91.128418 49.9265116,90.8610867 50.3391113,90.326416 C50.751711,89.7917454 50.9580078,89.0092825 50.9580078,87.9790039 C50.9580078,86.958491 50.751711,86.1833523 50.3391113,85.6535645 C49.9265116,85.1237766 49.3173868,84.8588867 48.5117188,84.8588867 C47.7158163,84.8588867 47.1152364,85.1201146 46.7099609,85.6425781 C46.3046855,86.1650417 46.1020508,86.9438425 46.1020508,87.9790039 Z M59.8422852,92 L59.8422852,86.8071289 C59.8422852,86.1528288 59.6933609,85.6645524 59.3955078,85.3422852 C59.0976548,85.0200179 58.6313508,84.8588867 57.996582,84.8588867 C57.1567341,84.8588867 56.5415059,85.0859352 56.1508789,85.5400391 C55.760252,85.9941429 55.5649414,86.7436471 55.5649414,87.7885742 L55.5649414,92 L54.3491211,92 L54.3491211,83.9726562 L55.3378906,83.9726562 L55.5356445,85.0712891 L55.5942383,85.0712891 C55.843263,84.6757793 56.1923806,84.3693859 56.6416016,84.1520996 C57.0908226,83.9348134 57.5913058,83.8261719 58.1430664,83.8261719 C59.1098681,83.8261719 59.8373999,84.0593238 60.3256836,84.5256348 C60.8139673,84.9919457 61.0581055,85.7377878 61.0581055,86.7631836 L61.0581055,92 L59.8422852,92 Z M71.1142578,83.8261719 C71.4707049,83.8261719 71.7905259,83.8554685 72.0737305,83.9140625 L71.9052734,85.0419922 C71.5732405,84.9687496 71.2802747,84.9321289 71.0263672,84.9321289 C70.3769499,84.9321289 69.8215355,85.1957981 69.3601074,85.7231445 C68.8986793,86.2504909 68.6679688,86.9072226 68.6679688,87.6933594 L68.6679688,92 L67.4521484,92 L67.4521484,83.9726562 L68.4555664,83.9726562 L68.5947266,85.4594727 L68.6533203,85.4594727 C68.9511734,84.9370091 69.3100565,84.5341811 69.7299805,84.2509766 C70.1499044,83.967772 70.6113256,83.8261719 71.1142578,83.8261719 Z M76.9663086,92.1464844 C75.7797792,92.1464844 74.8435093,91.7851599 74.1574707,91.0625 C73.4714321,90.3398401 73.128418,89.3364322 73.128418,88.0522461 C73.128418,86.7582943 73.4470183,85.7304726 74.0842285,84.96875 C74.7214387,84.2070274 75.5771431,83.8261719 76.6513672,83.8261719 C77.6572316,83.8261719 78.4531221,84.1569791 79.0390625,84.8186035 C79.6250029,85.4802279 79.9179688,86.3530219 79.9179688,87.4370117 L79.9179688,88.2060547 L74.3881836,88.2060547 C74.4125978,89.1484422 74.6506325,89.8637671 75.1022949,90.3520508 C75.5539573,90.8403345 76.1899373,91.0844727 77.0102539,91.0844727 C77.874516,91.0844727 78.7289997,90.9038104 79.5737305,90.5424805 L79.5737305,91.6264648 C79.1440408,91.8120126 78.7375507,91.945068 78.354248,92.0256348 C77.9709453,92.1062016 77.5083035,92.1464844 76.9663086,92.1464844 Z M76.6367188,84.8442383 C75.9921843,84.8442383 75.4782734,85.0541971 75.0949707,85.4741211 C74.711668,85.8940451 74.4858402,86.4750939 74.4174805,87.2172852 L78.6142578,87.2172852 C78.6142578,86.4506798 78.4433611,85.8635274 78.1015625,85.4558105 C77.7597639,85.0480937 77.2714875,84.8442383 76.6367188,84.8442383 Z M88.5605469,83.9726562 L88.5605469,84.7416992 L87.0737305,84.9174805 C87.2104499,85.0883798 87.332519,85.3117662 87.4399414,85.5876465 C87.5473638,85.8635268 87.6010742,86.174803 87.6010742,86.5214844 C87.6010742,87.3076211 87.3325222,87.9350563 86.7954102,88.4038086 C86.2582981,88.8725609 85.5210008,89.1069336 84.5834961,89.1069336 C84.3442371,89.1069336 84.11963,89.0874025 83.909668,89.0483398 C83.3920873,89.3217787 83.1333008,89.6660135 83.1333008,90.0810547 C83.1333008,90.3007823 83.2236319,90.4631342 83.4042969,90.5681152 C83.5849618,90.6730962 83.8950173,90.7255859 84.3344727,90.7255859 L85.7553711,90.7255859 C86.6245161,90.7255859 87.292234,90.9086896 87.7585449,91.2749023 C88.2248558,91.6411151 88.4580078,92.1733364 88.4580078,92.871582 C88.4580078,93.7602583 88.1015661,94.4377418 87.3886719,94.9040527 C86.6757777,95.3703637 85.635749,95.6035156 84.2685547,95.6035156 C83.2187448,95.6035156 82.4094267,95.4082051 81.8405762,95.0175781 C81.2717257,94.6269512 80.9873047,94.0751989 80.9873047,93.3623047 C80.9873047,92.874021 81.1435531,92.4516619 81.4560547,92.0952148 C81.7685563,91.7387677 82.208005,91.4970709 82.7744141,91.3701172 C82.5693349,91.2773433 82.3972175,91.1333018 82.2580566,90.9379883 C82.1188958,90.7426748 82.0493164,90.5156263 82.0493164,90.2568359 C82.0493164,89.9638657 82.1274406,89.7075206 82.2836914,89.487793 C82.4399422,89.2680653 82.6865218,89.0556651 83.0234375,88.8505859 C82.6083964,88.6796866 82.270265,88.3891622 82.0090332,87.9790039 C81.7478014,87.5688456 81.6171875,87.1001003 81.6171875,86.5727539 C81.6171875,85.6938433 81.8808567,85.0163598 82.4082031,84.5402832 C82.9355495,84.0642066 83.6826124,83.8261719 84.6494141,83.8261719 C85.069338,83.8261719 85.4477522,83.8749995 85.784668,83.9726562 L88.5605469,83.9726562 Z M82.1591797,93.3476562 C82.1591797,93.7822287 82.3422833,94.1118153 82.7084961,94.3364258 C83.0747089,94.5610363 83.599606,94.6733398 84.2832031,94.6733398 C85.303716,94.6733398 86.0593237,94.5207535 86.5500488,94.2155762 C87.0407739,93.9103989 87.2861328,93.4965846 87.2861328,92.9741211 C87.2861328,92.5395486 87.1518568,92.238038 86.8833008,92.0695801 C86.6147448,91.9011222 86.1093787,91.8168945 85.3671875,91.8168945 L83.909668,91.8168945 C83.3579074,91.8168945 82.9282242,91.9487292 82.6206055,92.2124023 C82.3129867,92.4760755 82.1591797,92.8544897 82.1591797,93.3476562 Z M82.8183594,86.543457 C82.8183594,87.1049833 82.9770492,87.5297837 83.2944336,87.8178711 C83.611818,88.1059585 84.0537081,88.25 84.6201172,88.25 C85.8066466,88.25 86.3999023,87.6738339 86.3999023,86.5214844 C86.3999023,85.3154237 85.7993224,84.7124023 84.5981445,84.7124023 C84.0268526,84.7124023 83.5874039,84.8662094 83.2797852,85.1738281 C82.9721664,85.4814469 82.8183594,85.9379853 82.8183594,86.543457 Z M91.3510742,83.9726562 L91.3510742,89.1801758 C91.3510742,89.8344759 91.4999985,90.3227523 91.7978516,90.6450195 C92.0957046,90.9672868 92.5620085,91.128418 93.1967773,91.128418 C94.0366253,91.128418 94.6506328,90.8989281 95.0388184,90.4399414 C95.4270039,89.9809547 95.6210938,89.2314505 95.6210938,88.1914062 L95.6210938,83.9726562 L96.8369141,83.9726562 L96.8369141,92 L95.8334961,92 L95.6577148,90.9233398 L95.5917969,90.9233398 C95.3427722,91.3188496 94.9973167,91.621581 94.5554199,91.831543 C94.1135232,92.041505 93.6093778,92.1464844 93.0429688,92.1464844 C92.0664014,92.1464844 91.3352075,91.9145531 90.8493652,91.4506836 C90.363523,90.9868141 90.1206055,90.244634 90.1206055,89.2241211 L90.1206055,83.9726562 L91.3510742,83.9726562 Z M100.630859,92 L99.4150391,92 L99.4150391,80.6035156 L100.630859,80.6035156 L100.630859,92 Z M108.145508,92 L107.903809,90.8574219 L107.845215,90.8574219 C107.444822,91.3603541 107.045656,91.7009268 106.647705,91.8791504 C106.249754,92.0573739 105.752933,92.1464844 105.157227,92.1464844 C104.361324,92.1464844 103.737551,91.9414083 103.285889,91.53125 C102.834226,91.1210917 102.608398,90.5376014 102.608398,89.7807617 C102.608398,88.1596599 103.904772,87.310059 106.497559,87.2319336 L107.859863,87.1879883 L107.859863,86.6899414 C107.859863,86.0600554 107.724367,85.5949722 107.453369,85.2946777 C107.182372,84.9943833 106.749026,84.8442383 106.15332,84.8442383 C105.484372,84.8442383 104.727543,85.0493144 103.882812,85.4594727 L103.509277,84.5292969 C103.904787,84.3144521 104.338132,84.1459967 104.809326,84.0239258 C105.28052,83.9018549 105.752927,83.8408203 106.226562,83.8408203 C107.183599,83.8408203 107.89282,84.0532205 108.354248,84.4780273 C108.815676,84.9028342 109.046387,85.5839797 109.046387,86.5214844 L109.046387,92 L108.145508,92 Z M105.398926,91.1430664 C106.155766,91.1430664 106.750242,90.935549 107.182373,90.5205078 C107.614504,90.1054667 107.830566,89.5244178 107.830566,88.7773438 L107.830566,88.0522461 L106.614746,88.1035156 C105.647944,88.1376955 104.95093,88.2878405 104.523682,88.5539551 C104.096433,88.8200697 103.882812,89.2338839 103.882812,89.7954102 C103.882812,90.2348655 104.015868,90.5693348 104.281982,90.7988281 C104.548097,91.0283215 104.920408,91.1430664 105.398926,91.1430664 Z M115.213379,83.8261719 C115.569826,83.8261719 115.889647,83.8554685 116.172852,83.9140625 L116.004395,85.0419922 C115.672362,84.9687496 115.379396,84.9321289 115.125488,84.9321289 C114.476071,84.9321289 113.920657,85.1957981 113.459229,85.7231445 C112.9978,86.2504909 112.76709,86.9072226 112.76709,87.6933594 L112.76709,92 L111.55127,92 L111.55127,83.9726562 L112.554688,83.9726562 L112.693848,85.4594727 L112.752441,85.4594727 C113.050294,84.9370091 113.409178,84.5341811 113.829102,84.2509766 C114.249026,83.967772 114.710447,83.8261719 115.213379,83.8261719 Z M125.306152,83.8408203 C126.360845,83.8408203 127.179929,84.2009241 127.763428,84.9211426 C128.346927,85.641361 128.638672,86.6606379 128.638672,87.9790039 C128.638672,89.2973699 128.344485,90.3215296 127.756104,91.0515137 C127.167722,91.7814978 126.351079,92.1464844 125.306152,92.1464844 C124.783689,92.1464844 124.306399,92.0500498 123.874268,91.8571777 C123.442137,91.6643057 123.079591,91.3676778 122.786621,90.9672852 L122.69873,90.9672852 L122.442383,92 L121.570801,92 L121.570801,80.6035156 L122.786621,80.6035156 L122.786621,83.3720703 C122.786621,83.9921906 122.76709,84.5488257 122.728027,85.0419922 L122.786621,85.0419922 C123.35303,84.2412069 124.192866,83.8408203 125.306152,83.8408203 Z M125.130371,84.8588867 C124.300289,84.8588867 123.70215,85.0969214 123.335938,85.572998 C122.969725,86.0490746 122.786621,86.8510686 122.786621,87.9790039 C122.786621,89.1069392 122.974607,89.9138159 123.350586,90.3996582 C123.726564,90.8855005 124.329586,91.128418 125.159668,91.128418 C125.906742,91.128418 126.463377,90.8562039 126.82959,90.3117676 C127.195803,89.7673313 127.378906,88.9848684 127.378906,87.9643555 C127.378906,86.9194284 127.195803,86.1406276 126.82959,85.6279297 C126.463377,85.1152318 125.896976,84.8588867 125.130371,84.8588867 Z M135.699219,92 L135.45752,90.8574219 L135.398926,90.8574219 C134.998533,91.3603541 134.599367,91.7009268 134.201416,91.8791504 C133.803465,92.0573739 133.306644,92.1464844 132.710938,92.1464844 C131.915035,92.1464844 131.291262,91.9414083 130.8396,91.53125 C130.387937,91.1210917 130.162109,90.5376014 130.162109,89.7807617 C130.162109,88.1596599 131.458483,87.310059 134.05127,87.2319336 L135.413574,87.1879883 L135.413574,86.6899414 C135.413574,86.0600554 135.278078,85.5949722 135.00708,85.2946777 C134.736083,84.9943833 134.302737,84.8442383 133.707031,84.8442383 C133.038083,84.8442383 132.281254,85.0493144 131.436523,85.4594727 L131.062988,84.5292969 C131.458498,84.3144521 131.891843,84.1459967 132.363037,84.0239258 C132.834231,83.9018549 133.306638,83.8408203 133.780273,83.8408203 C134.737309,83.8408203 135.446531,84.0532205 135.907959,84.4780273 C136.369387,84.9028342 136.600098,85.5839797 136.600098,86.5214844 L136.600098,92 L135.699219,92 Z M132.952637,91.1430664 C133.709476,91.1430664 134.303953,90.935549 134.736084,90.5205078 C135.168215,90.1054667 135.384277,89.5244178 135.384277,88.7773438 L135.384277,88.0522461 L134.168457,88.1035156 C133.201655,88.1376955 132.504641,88.2878405 132.077393,88.5539551 C131.650144,88.8200697 131.436523,89.2338839 131.436523,89.7954102 C131.436523,90.2348655 131.569579,90.5693348 131.835693,90.7988281 C132.101808,91.0283215 132.474119,91.1430664 132.952637,91.1430664 Z M144.283203,89.8100586 C144.283203,90.5571326 144.004886,91.1332988 143.448242,91.5385742 C142.891599,91.9438497 142.110357,92.1464844 141.104492,92.1464844 C140.040034,92.1464844 139.209964,91.978029 138.614258,91.6411133 L138.614258,90.5131836 C139.000002,90.7084971 139.413816,90.8623041 139.855713,90.9746094 C140.29761,91.0869146 140.723631,91.1430664 141.133789,91.1430664 C141.768558,91.1430664 142.256834,91.0417491 142.598633,90.8391113 C142.940431,90.6364736 143.111328,90.3276388 143.111328,89.9125977 C143.111328,89.6000961 142.975831,89.3327648 142.704834,89.1105957 C142.433837,88.8884266 141.905277,88.6259781 141.119141,88.3232422 C140.372067,88.0449205 139.841066,87.802003 139.526123,87.5944824 C139.21118,87.3869619 138.976807,87.1513685 138.822998,86.8876953 C138.669189,86.6240221 138.592285,86.3090839 138.592285,85.9428711 C138.592285,85.2885709 138.858396,84.7722187 139.390625,84.3937988 C139.922854,84.015379 140.652827,83.8261719 141.580566,83.8261719 C142.444829,83.8261719 143.289547,84.0019514 144.114746,84.3535156 L143.682617,85.3422852 C142.876949,85.0102522 142.146976,84.8442383 141.492676,84.8442383 C140.916501,84.8442383 140.481935,84.9345694 140.188965,85.1152344 C139.895995,85.2958993 139.749512,85.5449203 139.749512,85.8623047 C139.749512,86.0771495 139.804443,86.2602531 139.914307,86.4116211 C140.02417,86.562989 140.201171,86.7070306 140.445312,86.84375 C140.689454,86.9804694 141.1582,87.1782214 141.851562,87.4370117 C142.803716,87.7836931 143.44702,88.1328107 143.781494,88.484375 C144.115968,88.8359393 144.283203,89.2778294 144.283203,89.8100586 Z M147.476562,92 L146.260742,92 L146.260742,83.9726562 L147.476562,83.9726562 L147.476562,92 Z M146.158203,81.7973633 C146.158203,81.5190416 146.226562,81.3151862 146.363281,81.185791 C146.500001,81.0563958 146.670897,80.9916992 146.875977,80.9916992 C147.07129,80.9916992 147.239745,81.0576165 147.381348,81.1894531 C147.52295,81.3212897 147.59375,81.5239244 147.59375,81.7973633 C147.59375,82.0708021 147.52295,82.2746575 147.381348,82.4089355 C147.239745,82.5432136 147.07129,82.6103516 146.875977,82.6103516 C146.670897,82.6103516 146.500001,82.5432136 146.363281,82.4089355 C146.226562,82.2746575 146.158203,82.0708021 146.158203,81.7973633 Z M155.23291,89.8100586 C155.23291,90.5571326 154.954593,91.1332988 154.397949,91.5385742 C153.841306,91.9438497 153.060064,92.1464844 152.054199,92.1464844 C150.989741,92.1464844 150.159671,91.978029 149.563965,91.6411133 L149.563965,90.5131836 C149.949709,90.7084971 150.363523,90.8623041 150.80542,90.9746094 C151.247317,91.0869146 151.673338,91.1430664 152.083496,91.1430664 C152.718265,91.1430664 153.206541,91.0417491 153.54834,90.8391113 C153.890138,90.6364736 154.061035,90.3276388 154.061035,89.9125977 C154.061035,89.6000961 153.925538,89.3327648 153.654541,89.1105957 C153.383544,88.8884266 152.854984,88.6259781 152.068848,88.3232422 C151.321774,88.0449205 150.790773,87.802003 150.47583,87.5944824 C150.160887,87.3869619 149.926514,87.1513685 149.772705,86.8876953 C149.618896,86.6240221 149.541992,86.3090839 149.541992,85.9428711 C149.541992,85.2885709 149.808103,84.7722187 150.340332,84.3937988 C150.872561,84.015379 151.602534,83.8261719 152.530273,83.8261719 C153.394536,83.8261719 154.239254,84.0019514 155.064453,84.3535156 L154.632324,85.3422852 C153.826656,85.0102522 153.096683,84.8442383 152.442383,84.8442383 C151.866208,84.8442383 151.431642,84.9345694 151.138672,85.1152344 C150.845702,85.2958993 150.699219,85.5449203 150.699219,85.8623047 C150.699219,86.0771495 150.75415,86.2602531 150.864014,86.4116211 C150.973878,86.562989 151.150878,86.7070306 151.39502,86.84375 C151.639161,86.9804694 152.107907,87.1782214 152.80127,87.4370117 C153.753423,87.7836931 154.396727,88.1328107 154.731201,88.484375 C155.065676,88.8359393 155.23291,89.2778294 155.23291,89.8100586 Z M158.484863,90.2568359 L158.594727,90.425293 C158.467773,90.9135767 158.284669,91.4811979 158.04541,92.1281738 C157.806151,92.7751497 157.55713,93.3769503 157.29834,93.9335938 L156.382812,93.9335938 C156.514649,93.4257787 156.659911,92.7983436 156.818604,92.0512695 C156.977296,91.3041955 157.088379,90.7060569 157.151855,90.2568359 L158.484863,90.2568359 Z M171.712402,87.9790039 C171.712402,89.2876042 171.382816,90.3093225 170.723633,91.0441895 C170.06445,91.7790564 169.153814,92.1464844 167.991699,92.1464844 C167.273922,92.1464844 166.636722,91.978029 166.080078,91.6411133 C165.523435,91.3041975 165.093752,90.8208039 164.791016,90.190918 C164.48828,89.561032 164.336914,88.8237347 164.336914,87.9790039 C164.336914,86.6704036 164.664059,85.6511267 165.318359,84.9211426 C165.97266,84.1911585 166.880854,83.8261719 168.042969,83.8261719 C169.166021,83.8261719 170.058346,84.1997033 170.719971,84.9467773 C171.381595,85.6938514 171.712402,86.7045835 171.712402,87.9790039 Z M165.59668,87.9790039 C165.59668,89.0043997 165.801756,89.7856418 166.211914,90.3227539 C166.622072,90.859866 167.225094,91.128418 168.020996,91.128418 C168.816899,91.128418 169.421141,90.8610867 169.83374,90.326416 C170.24634,89.7917454 170.452637,89.0092825 170.452637,87.9790039 C170.452637,86.958491 170.24634,86.1833523 169.83374,85.6535645 C169.421141,85.1237766 168.812016,84.8588867 168.006348,84.8588867 C167.210445,84.8588867 166.609865,85.1201146 166.20459,85.6425781 C165.799314,86.1650417 165.59668,86.9438425 165.59668,87.9790039 Z M177.505859,83.8261719 C177.862306,83.8261719 178.182127,83.8554685 178.465332,83.9140625 L178.296875,85.0419922 C177.964842,84.9687496 177.671876,84.9321289 177.417969,84.9321289 C176.768551,84.9321289 176.213137,85.1957981 175.751709,85.7231445 C175.290281,86.2504909 175.05957,86.9072226 175.05957,87.6933594 L175.05957,92 L173.84375,92 L173.84375,83.9726562 L174.847168,83.9726562 L174.986328,85.4594727 L175.044922,85.4594727 C175.342775,84.9370091 175.701658,84.5341811 176.121582,84.2509766 C176.541506,83.967772 177.002927,83.8261719 177.505859,83.8261719 Z M187.481445,84.9174805 L185.437988,84.9174805 L185.437988,92 L184.222168,92 L184.222168,84.9174805 L182.786621,84.9174805 L182.786621,84.3681641 L184.222168,83.9287109 L184.222168,83.4819336 C184.222168,81.5092675 185.083976,80.5229492 186.807617,80.5229492 C187.232424,80.5229492 187.730466,80.6083976 188.301758,80.7792969 L187.986816,81.753418 C187.518064,81.60205 187.117677,81.5263672 186.785645,81.5263672 C186.326658,81.5263672 185.987306,81.6789536 185.767578,81.9841309 C185.54785,82.2893082 185.437988,82.7788052 185.437988,83.4526367 L185.437988,83.9726562 L187.481445,83.9726562 L187.481445,84.9174805 Z M195.875,87.9790039 C195.875,89.2876042 195.545413,90.3093225 194.88623,91.0441895 C194.227047,91.7790564 193.316412,92.1464844 192.154297,92.1464844 C191.43652,92.1464844 190.799319,91.978029 190.242676,91.6411133 C189.686032,91.3041975 189.256349,90.8208039 188.953613,90.190918 C188.650877,89.561032 188.499512,88.8237347 188.499512,87.9790039 C188.499512,86.6704036 188.826657,85.6511267 189.480957,84.9211426 C190.135257,84.1911585 191.043451,83.8261719 192.205566,83.8261719 C193.328619,83.8261719 194.220944,84.1997033 194.882568,84.9467773 C195.544193,85.6938514 195.875,86.7045835 195.875,87.9790039 Z M189.759277,87.9790039 C189.759277,89.0043997 189.964353,89.7856418 190.374512,90.3227539 C190.78467,90.859866 191.387691,91.128418 192.183594,91.128418 C192.979496,91.128418 193.583738,90.8610867 193.996338,90.326416 C194.408938,89.7917454 194.615234,89.0092825 194.615234,87.9790039 C194.615234,86.958491 194.408938,86.1833523 193.996338,85.6535645 C193.583738,85.1237766 192.974613,84.8588867 192.168945,84.8588867 C191.373043,84.8588867 190.772463,85.1201146 190.367188,85.6425781 C189.961912,86.1650417 189.759277,86.9438425 189.759277,87.9790039 Z M201.668457,83.8261719 C202.024904,83.8261719 202.344725,83.8554685 202.62793,83.9140625 L202.459473,85.0419922 C202.12744,84.9687496 201.834474,84.9321289 201.580566,84.9321289 C200.931149,84.9321289 200.375735,85.1957981 199.914307,85.7231445 C199.452879,86.2504909 199.222168,86.9072226 199.222168,87.6933594 L199.222168,92 L198.006348,92 L198.006348,83.9726562 L199.009766,83.9726562 L199.148926,85.4594727 L199.20752,85.4594727 C199.505373,84.9370091 199.864256,84.5341811 200.28418,84.2509766 C200.704104,83.967772 201.165525,83.8261719 201.668457,83.8261719 Z M212.962402,92 L212.720703,90.8574219 L212.662109,90.8574219 C212.261717,91.3603541 211.862551,91.7009268 211.4646,91.8791504 C211.066648,92.0573739 210.569827,92.1464844 209.974121,92.1464844 C209.178219,92.1464844 208.554446,91.9414083 208.102783,91.53125 C207.651121,91.1210917 207.425293,90.5376014 207.425293,89.7807617 C207.425293,88.1596599 208.721667,87.310059 211.314453,87.2319336 L212.676758,87.1879883 L212.676758,86.6899414 C212.676758,86.0600554 212.541261,85.5949722 212.270264,85.2946777 C211.999266,84.9943833 211.565921,84.8442383 210.970215,84.8442383 C210.301266,84.8442383 209.544438,85.0493144 208.699707,85.4594727 L208.326172,84.5292969 C208.721682,84.3144521 209.155027,84.1459967 209.626221,84.0239258 C210.097414,83.9018549 210.569822,83.8408203 211.043457,83.8408203 C212.000493,83.8408203 212.709714,84.0532205 213.171143,84.4780273 C213.632571,84.9028342 213.863281,85.5839797 213.863281,86.5214844 L213.863281,92 L212.962402,92 Z M210.21582,91.1430664 C210.97266,91.1430664 211.567137,90.935549 211.999268,90.5205078 C212.431399,90.1054667 212.647461,89.5244178 212.647461,88.7773438 L212.647461,88.0522461 L211.431641,88.1035156 C210.464839,88.1376955 209.767824,88.2878405 209.340576,88.5539551 C208.913328,88.8200697 208.699707,89.2338839 208.699707,89.7954102 C208.699707,90.2348655 208.832762,90.5693348 209.098877,90.7988281 C209.364992,91.0283215 209.737302,91.1430664 210.21582,91.1430664 Z M52.2177734,107.979004 C52.2177734,109.287604 51.8881869,110.309322 51.2290039,111.044189 C50.5698209,111.779056 49.6591855,112.146484 48.4970703,112.146484 C47.7792933,112.146484 47.1420926,111.978029 46.5854492,111.641113 C46.0288058,111.304198 45.5991226,110.820804 45.2963867,110.190918 C44.9936508,109.561032 44.8422852,108.823735 44.8422852,107.979004 C44.8422852,106.670404 45.1694303,105.651127 45.8237305,104.921143 C46.4780306,104.191158 47.3862247,103.826172 48.5483398,103.826172 C49.6713923,103.826172 50.5637174,104.199703 51.2253418,104.946777 C51.8869662,105.693851 52.2177734,106.704583 52.2177734,107.979004 Z M46.1020508,107.979004 C46.1020508,109.0044 46.3071269,109.785642 46.7172852,110.322754 C47.1274435,110.859866 47.7304648,111.128418 48.5263672,111.128418 C49.3222696,111.128418 49.9265116,110.861087 50.3391113,110.326416 C50.751711,109.791745 50.9580078,109.009282 50.9580078,107.979004 C50.9580078,106.958491 50.751711,106.183352 50.3391113,105.653564 C49.9265116,105.123777 49.3173868,104.858887 48.5117188,104.858887 C47.7158163,104.858887 47.1152364,105.120115 46.7099609,105.642578 C46.3046855,106.165042 46.1020508,106.943842 46.1020508,107.979004 Z M59.8422852,112 L59.8422852,106.807129 C59.8422852,106.152829 59.6933609,105.664552 59.3955078,105.342285 C59.0976548,105.020018 58.6313508,104.858887 57.996582,104.858887 C57.1567341,104.858887 56.5415059,105.085935 56.1508789,105.540039 C55.760252,105.994143 55.5649414,106.743647 55.5649414,107.788574 L55.5649414,112 L54.3491211,112 L54.3491211,103.972656 L55.3378906,103.972656 L55.5356445,105.071289 L55.5942383,105.071289 C55.843263,104.675779 56.1923806,104.369386 56.6416016,104.1521 C57.0908226,103.934813 57.5913058,103.826172 58.1430664,103.826172 C59.1098681,103.826172 59.8373999,104.059324 60.3256836,104.525635 C60.8139673,104.991946 61.0581055,105.737788 61.0581055,106.763184 L61.0581055,112 L59.8422852,112 Z M66.9467773,112.146484 C65.760248,112.146484 64.823978,111.78516 64.1379395,111.0625 C63.4519009,110.33984 63.1088867,109.336432 63.1088867,108.052246 C63.1088867,106.758294 63.427487,105.730473 64.0646973,104.96875 C64.7019075,104.207027 65.5576118,103.826172 66.6318359,103.826172 C67.6377003,103.826172 68.4335908,104.156979 69.0195312,104.818604 C69.6054717,105.480228 69.8984375,106.353022 69.8984375,107.437012 L69.8984375,108.206055 L64.3686523,108.206055 C64.3930665,109.148442 64.6311013,109.863767 65.0827637,110.352051 C65.5344261,110.840334 66.1704061,111.084473 66.9907227,111.084473 C67.8549848,111.084473 68.7094684,110.90381 69.5541992,110.54248 L69.5541992,111.626465 C69.1245096,111.812013 68.7180195,111.945068 68.3347168,112.025635 C67.9514141,112.106202 67.4887722,112.146484 66.9467773,112.146484 Z M66.6171875,104.844238 C65.972653,104.844238 65.4587422,105.054197 65.0754395,105.474121 C64.6921368,105.894045 64.4663089,106.475094 64.3979492,107.217285 L68.5947266,107.217285 C68.5947266,106.45068 68.4238298,105.863527 68.0820312,105.455811 C67.7402327,105.048094 67.2519563,104.844238 66.6171875,104.844238 Z M71.2973633,108.535645 L71.2973633,107.422363 L74.8935547,107.422363 L74.8935547,108.535645 L71.2973633,108.535645 Z M83.7265625,107.979004 C83.7265625,109.287604 83.396976,110.309322 82.737793,111.044189 C82.07861,111.779056 81.1679746,112.146484 80.0058594,112.146484 C79.2880823,112.146484 78.6508817,111.978029 78.0942383,111.641113 C77.5375949,111.304198 77.1079117,110.820804 76.8051758,110.190918 C76.5024399,109.561032 76.3510742,108.823735 76.3510742,107.979004 C76.3510742,106.670404 76.6782194,105.651127 77.3325195,104.921143 C77.9868197,104.191158 78.8950137,103.826172 80.0571289,103.826172 C81.1801814,103.826172 82.0725065,104.199703 82.7341309,104.946777 C83.3957553,105.693851 83.7265625,106.704583 83.7265625,107.979004 Z M77.6108398,107.979004 C77.6108398,109.0044 77.8159159,109.785642 78.2260742,110.322754 C78.6362325,110.859866 79.2392538,111.128418 80.0351562,111.128418 C80.8310587,111.128418 81.4353007,110.861087 81.8479004,110.326416 C82.2605001,109.791745 82.4667969,109.009282 82.4667969,107.979004 C82.4667969,106.958491 82.2605001,106.183352 81.8479004,105.653564 C81.4353007,105.123777 80.8261759,104.858887 80.0205078,104.858887 C79.2246054,104.858887 78.6240255,105.120115 78.21875,105.642578 C77.8134745,106.165042 77.6108398,106.943842 77.6108398,107.979004 Z M94.559082,104.91748 L92.515625,104.91748 L92.515625,112 L91.2998047,112 L91.2998047,104.91748 L89.8642578,104.91748 L89.8642578,104.368164 L91.2998047,103.928711 L91.2998047,103.481934 C91.2998047,101.509267 92.1616125,100.522949 93.8852539,100.522949 C94.3100607,100.522949 94.8081026,100.608398 95.3793945,100.779297 L95.0644531,101.753418 C94.5957008,101.60205 94.1953142,101.526367 93.8632812,101.526367 C93.4042946,101.526367 93.0649425,101.678954 92.8452148,101.984131 C92.6254872,102.289308 92.515625,102.778805 92.515625,103.452637 L92.515625,103.972656 L94.559082,103.972656 L94.559082,104.91748 Z M89.4760742,104.91748 L87.4326172,104.91748 L87.4326172,112 L86.2167969,112 L86.2167969,104.91748 L84.78125,104.91748 L84.78125,104.368164 L86.2167969,103.928711 L86.2167969,103.481934 C86.2167969,101.509267 87.0786047,100.522949 88.8022461,100.522949 C89.2270529,100.522949 89.7250948,100.608398 90.2963867,100.779297 L89.9814453,101.753418 C89.512693,101.60205 89.1123063,101.526367 88.7802734,101.526367 C88.3212868,101.526367 87.9819347,101.678954 87.762207,101.984131 C87.5424794,102.289308 87.4326172,102.778805 87.4326172,103.452637 L87.4326172,103.972656 L89.4760742,103.972656 L89.4760742,104.91748 Z M103.318848,112.146484 C102.132318,112.146484 101.196048,111.78516 100.51001,111.0625 C99.8239712,110.33984 99.480957,109.336432 99.480957,108.052246 C99.480957,106.758294 99.7995574,105.730473 100.436768,104.96875 C101.073978,104.207027 101.929682,103.826172 103.003906,103.826172 C104.009771,103.826172 104.805661,104.156979 105.391602,104.818604 C105.977542,105.480228 106.270508,106.353022 106.270508,107.437012 L106.270508,108.206055 L100.740723,108.206055 C100.765137,109.148442 101.003172,109.863767 101.454834,110.352051 C101.906496,110.840334 102.542476,111.084473 103.362793,111.084473 C104.227055,111.084473 105.081539,110.90381 105.92627,110.54248 L105.92627,111.626465 C105.49658,111.812013 105.09009,111.945068 104.706787,112.025635 C104.323484,112.106202 103.860843,112.146484 103.318848,112.146484 Z M102.989258,104.844238 C102.344723,104.844238 101.830812,105.054197 101.44751,105.474121 C101.064207,105.894045 100.838379,106.475094 100.77002,107.217285 L104.966797,107.217285 C104.966797,106.45068 104.7959,105.863527 104.454102,105.455811 C104.112303,105.048094 103.624027,104.844238 102.989258,104.844238 Z M110.101074,112 L107.054199,103.972656 L108.35791,103.972656 L110.086426,108.733398 C110.477053,109.846685 110.706543,110.569334 110.774902,110.901367 L110.833496,110.901367 C110.887207,110.642577 111.056883,110.106694 111.342529,109.293701 C111.628175,108.480709 112.269038,106.707045 113.265137,103.972656 L114.568848,103.972656 L111.521973,112 L110.101074,112 Z M119.249023,112.146484 C118.062494,112.146484 117.126224,111.78516 116.440186,111.0625 C115.754147,110.33984 115.411133,109.336432 115.411133,108.052246 C115.411133,106.758294 115.729733,105.730473 116.366943,104.96875 C117.004154,104.207027 117.859858,103.826172 118.934082,103.826172 C119.939946,103.826172 120.735837,104.156979 121.321777,104.818604 C121.907718,105.480228 122.200684,106.353022 122.200684,107.437012 L122.200684,108.206055 L116.670898,108.206055 C116.695313,109.148442 116.933347,109.863767 117.38501,110.352051 C117.836672,110.840334 118.472652,111.084473 119.292969,111.084473 C120.157231,111.084473 121.011715,110.90381 121.856445,110.54248 L121.856445,111.626465 C121.426756,111.812013 121.020266,111.945068 120.636963,112.025635 C120.25366,112.106202 119.791018,112.146484 119.249023,112.146484 Z M118.919434,104.844238 C118.274899,104.844238 117.760988,105.054197 117.377686,105.474121 C116.994383,105.894045 116.768555,106.475094 116.700195,107.217285 L120.896973,107.217285 C120.896973,106.45068 120.726076,105.863527 120.384277,105.455811 C120.042479,105.048094 119.554202,104.844238 118.919434,104.844238 Z M129.766602,112 L129.766602,106.807129 C129.766602,106.152829 129.617677,105.664552 129.319824,105.342285 C129.021971,105.020018 128.555667,104.858887 127.920898,104.858887 C127.08105,104.858887 126.465822,105.085935 126.075195,105.540039 C125.684568,105.994143 125.489258,106.743647 125.489258,107.788574 L125.489258,112 L124.273438,112 L124.273438,103.972656 L125.262207,103.972656 L125.459961,105.071289 L125.518555,105.071289 C125.767579,104.675779 126.116697,104.369386 126.565918,104.1521 C127.015139,103.934813 127.515622,103.826172 128.067383,103.826172 C129.034185,103.826172 129.761716,104.059324 130.25,104.525635 C130.738284,104.991946 130.982422,105.737788 130.982422,106.763184 L130.982422,112 L129.766602,112 Z M136.072754,111.143066 C136.287599,111.143066 136.495116,111.127197 136.695312,111.095459 C136.895509,111.063721 137.054199,111.030762 137.171387,110.996582 L137.171387,111.926758 C137.03955,111.990235 136.84546,112.042724 136.589111,112.084229 C136.332762,112.125733 136.102052,112.146484 135.896973,112.146484 C134.344231,112.146484 133.567871,111.328621 133.567871,109.692871 L133.567871,104.91748 L132.417969,104.91748 L132.417969,104.331543 L133.567871,103.826172 L134.080566,102.112305 L134.783691,102.112305 L134.783691,103.972656 L137.112793,103.972656 L137.112793,104.91748 L134.783691,104.91748 L134.783691,109.641602 C134.783691,110.125002 134.898436,110.496092 135.12793,110.754883 C135.357423,111.013673 135.672361,111.143066 136.072754,111.143066 Z M143.770508,109.04834 L143.001465,109.04834 L142.62793,101.291992 L144.144043,101.291992 L143.770508,109.04834 Z M142.496094,111.223633 C142.496094,110.559567 142.78906,110.227539 143.375,110.227539 C143.658205,110.227539 143.876708,110.312987 144.030518,110.483887 C144.184327,110.654786 144.26123,110.901366 144.26123,111.223633 C144.26123,111.536134 144.183106,111.779052 144.026855,111.952393 C143.870605,112.125733 143.653322,112.212402 143.375,112.212402 C143.121092,112.212402 142.911134,112.135499 142.745117,111.981689 C142.579101,111.82788 142.496094,111.575197 142.496094,111.223633 Z" id="Choose-if-you-want-t" fill="#949595"></path>
                    <path d="M37.74,175.782609 C33.06,171.782609 30,169.086957 30,165.782609 C30,163.086957 32.16,161 34.95,161 C36.48,161 38.01,161.695652 39,162.826087 C39.99,161.695652 41.52,161 43.05,161 C45.84,161 48,163.086957 48,165.782609 C48,169.086957 44.94,171.782609 40.26,175.782609 L39,177 L37.74,175.782609 Z" id="Like" fill="#FC573C"></path>
                    <path d="M29.4994898,142 L259.504891,142" id="Line" stroke="#F0F0F0" stroke-linecap="square"></path>
                </g>
            </g>
        </g>
    </g>
</svg>