<?xml version="1.0" encoding="UTF-8" standalone="no"?>
<svg width="290px" height="57px" viewBox="0 0 290 57" version="1.1" xmlns="http://www.w3.org/2000/svg" xmlns:xlink="http://www.w3.org/1999/xlink">
    <!-- Generator: Sketch 41.2 (35397) - http://www.bohemiancoding.com/sketch -->
    <title>message 01</title>
    <desc>Created with Sketch.</desc>
    <defs>
        <circle id="path-1" cx="270.5" cy="19.5" r="19.5"></circle>
        <path d="M1.33047337,8.26544172 C0.886747302,8.26509822 0.497494588,7.97616084 0.378106509,7.55851182 C-0.963905325,2.87455912 2.15769231,0.381655405 2.29171598,0.277567568 C2.71793928,-0.0577681644 3.34162782,0.0080567543 3.68476331,0.424591639 C4.0278988,0.841126523 3.96054283,1.45063809 3.53431953,1.78597382 C3.43224852,1.87271368 1.31538462,3.63526774 2.29171598,7.03633784 C2.37606049,7.32924429 2.31443464,7.64386411 2.12536317,7.88562251 C1.9362917,8.12738091 1.64182261,8.26808597 1.33047337,8.26544172 Z" id="path-3"></path>
        <path d="M1.36952663,8.26544172 C0.925800559,8.26509822 0.536547842,7.97616084 0.417159763,7.55851182 C-0.924852071,2.87455912 2.19674556,0.381655405 2.33076923,0.277567568 C2.60648736,0.0606433847 2.97968088,0.00394747711 3.30977138,0.128836644 C3.63986189,0.253725812 3.87670078,0.541226419 3.93107316,0.883039772 C3.98544553,1.22485312 3.84909091,1.56904964 3.57337278,1.78597382 C3.47130178,1.87271368 1.35443787,3.63526774 2.33076923,7.03633784 C2.41438549,7.32779995 2.35354441,7.64070968 2.16636391,7.88188551 C1.97918341,8.12306133 1.68725597,8.26468203 1.37751479,8.26457432 L1.36952663,8.26544172 Z" id="path-5"></path>
    </defs>
    <g id="Page-1" stroke="none" stroke-width="1" fill="none" fill-rule="evenodd">
        <g id="Desktop-HD" transform="translate(-596.000000, -541.000000)">
            <g id="PREMIERE-LAME" transform="translate(-53.000000, 0.000000)">
                <g id="HEADER" transform="translate(53.000000, 0.000000)">
                    <g id="Phone" transform="translate(543.000000, 420.000000)">
                        <g id="message-01" transform="translate(53.000000, 121.000000)">
                            <g id="Message-01">
                                <rect id="Rectangle-16" fill="#50E2C1" x="0" y="0" width="241" height="39" rx="15"></rect>
                                <text id="9:23-AM" font-family="OpenSans, Open Sans" font-size="10" font-weight="normal" fill="#9B9B9B">
                                    <tspan x="200.882242" y="56">9:23 AM</tspan>
                                </text>
                                <text id="Salut,-bienvenue-sur" font-family="OpenSans, Open Sans" font-size="13" font-weight="normal" line-spacing="18" fill="#FFFFFF">
                                    <tspan x="21" y="25">Salut, bienvenue sur Inwall ! </tspan>
                                </text>
                            </g>
                            <mask id="mask-2" fill="white">
                                <use xlink:href="#path-1"></use>
                            </mask>
                            <use id="Mask" fill="#2CB4E8" xlink:href="#path-1"></use>
                            <g id="MrInwall" mask="url(#mask-2)">
                                <g transform="translate(256.000000, 7.000000)" id="Calque_1">
                                    <g>
                                        <g id="Master">
                                            <g id="Calque_1">
                                                <g id="Rectangle-path" transform="translate(0.000000, 9.714865)">
                                                    <g id="Mask" fill="#51E1C1">
                                                        <path d="M0.988757396,6.33547973 C0.469707686,6.33402333 0.0400017597,5.94091308 0.00429791559,5.4348612 C-0.0314059286,4.92880933 0.339025282,4.48178369 0.85295858,4.41072213 C2.11597633,4.2372424 3.54674556,4.0429451 4.51863905,3.28310389 C5.32899408,2.65163767 5.85,1.58647213 6.31686391,0.646211993 C6.46607366,0.328221746 6.7793675,0.113762738 7.13615409,0.0853833358 C7.49294069,0.0570039336 7.83759825,0.219128388 8.03746309,0.509352657 C8.23732795,0.799576927 8.26124185,1.17265605 8.1,1.48498649 C7.57278107,2.55535642 6.91597633,3.88854814 5.75147929,4.79584713 C4.35621302,5.88269764 2.56508876,6.12730405 1.12633136,6.32420355 C1.08079755,6.33108462 1.03482793,6.3348525 0.988757396,6.33547973 Z" id="path-1"></path>
                                                    </g>
                                                    <g id="Clipped" transform="translate(3.106509, 3.382855)" fill="#3BC0A0">
                                                        <g id="Combined-Shape">
                                                            <path d="M0.0234583474,0.588756637 C0.460702285,0.452755169 0.87307564,0.274526 1.23332813,0.0303804859 L1.54049233,2.0805385 C1.1409871,2.26572339 0.727490672,2.40787992 0.312913769,2.52071793 L0.0234583474,0.588756637 Z" id="path-1"></path>
                                                        </g>
                                                    </g>
                                                </g>
                                                <path d="M24.7961538,0.0867398649 C24.7961538,0.777531473 25.3691764,1.33752872 26.0760355,1.33752872 C26.7828946,1.33752872 27.3559172,0.777531473 27.3559172,0.0867398649" id="Shape" fill="#51E1C1"></path>
                                                <path d="M6.76331361,0.0867398649 L26.1514793,0.0867398649 L26.1514793,19.6092813 C26.1514793,20.0907276 25.752112,20.4810169 25.2594675,20.4810169 L5.09378698,20.4810169 C4.60114245,20.4810169 4.20177515,20.0907276 4.20177515,19.6092813 L4.20177515,2.58918497 C4.2017751,1.92534494 4.47167903,1.28870676 4.95208621,0.819382323 C5.43249338,0.35005789 6.084033,0.0865097643 6.76331361,0.0867398649 L6.76331361,0.0867398649 Z" id="Shape" fill="#51E1C1"></path>
                                                <path d="M28.9295858,17.6411537 C28.5729322,17.6414944 28.2436792,17.4542654 28.0677515,17.1510735 C27.4393491,16.0668252 26.7266272,14.8385887 25.6491124,14.2331444 C24.75,13.7283184 23.5428994,13.6433133 22.4778107,13.5687171 C21.938104,13.5237905 21.5356316,13.0631929 21.5747413,12.5352259 C21.6138509,12.007259 22.0800095,11.608114 22.6207101,11.6396225 C23.8340237,11.7263623 25.3428994,11.8313176 26.6343195,12.5564628 C28.1822485,13.4238615 29.0733728,14.9626267 29.789645,16.1995372 C29.9633032,16.4988173 29.9611977,16.8657245 29.7841156,17.1630823 C29.6070335,17.4604401 29.281638,17.6434752 28.9295858,17.6437559 L28.9295858,17.6411537 Z" id="Shape" fill="#51E1C1"></path>
                                                <g id="Rectangle-path" transform="translate(15.710059, 17.261233)">
                                                    <g id="Mask" fill="#51E1C1">
                                                        <path d="M1.33047337,8.26544172 C0.886747302,8.26509822 0.497494588,7.97616084 0.378106509,7.55851182 C-0.963905325,2.87455912 2.15769231,0.381655405 2.29171598,0.277567568 C2.71793928,-0.0577681644 3.34162782,0.0080567543 3.68476331,0.424591639 C4.0278988,0.841126523 3.96054283,1.45063809 3.53431953,1.78597382 C3.43224852,1.87271368 1.31538462,3.63526774 2.29171598,7.03633784 C2.37606049,7.32924429 2.31443464,7.64386411 2.12536317,7.88562251 C1.9362917,8.12738091 1.64182261,8.26808597 1.33047337,8.26544172 Z" id="path-3"></path>
                                                    </g>
                                                    <g id="Clipped">
                                                        <g id="Rectangle-path-Clipped">
                                                            <mask id="mask-4" fill="white">
                                                                <use xlink:href="#path-3"></use>
                                                            </mask>
                                                            <g id="path-3"></g>
                                                            <rect id="Rectangle-path" fill="#36C1A0" mask="url(#mask-4)" x="-6.20857988" y="3.21978378" width="10.254142" height="1.25078885"></rect>
                                                        </g>
                                                    </g>
                                                </g>
                                                <path d="M14.8153846,15.6773632 C14.1582379,15.6768848 13.6256374,15.1563908 13.6251479,14.5141816 C13.6188221,14.3950677 13.680249,14.2822587 13.7848755,14.2208452 C13.889502,14.1594318 14.0202613,14.1594318 14.1248878,14.2208452 C14.2295143,14.2822587 14.2909412,14.3950677 14.2846154,14.5141816 C14.2662045,14.7106613 14.363066,14.9004208 14.5347555,15.0042264 C14.7064449,15.108032 14.9234367,15.108032 15.0951262,15.0042264 C15.2668157,14.9004208 15.3636771,14.7106613 15.3452663,14.5141816 C15.3389404,14.3950677 15.4003673,14.2822587 15.5049938,14.2208452 C15.6096203,14.1594318 15.7403797,14.1594318 15.8450062,14.2208452 C15.9496327,14.2822587 16.0110596,14.3950677 16.0047337,14.5141816 C16.004245,15.1560526 15.4721846,15.6764068 14.8153846,15.6773632 L14.8153846,15.6773632 Z" id="Shape" fill="#000000"></path>
                                                <ellipse id="Oval" fill="#000000" cx="11.6343195" cy="12.461049" rx="0.805029586" ry="0.786730574"></ellipse>
                                                <ellipse id="Oval" fill="#000000" cx="17.9955621" cy="12.461049" rx="0.805029586" ry="0.786730574"></ellipse>
                                                <path d="M18.8005917,8.87348818 C17.2572636,8.87667344 15.9429058,9.97068458 15.6940828,11.4592035 C15.2305249,11.2317834 14.684268,11.2317834 14.2207101,11.4592035 C13.9490227,9.85544486 12.4472555,8.73519812 10.7926392,8.90202594 C9.1380229,9.06885376 7.90192829,10.4651473 7.97101686,12.0893332 C8.04010541,13.713519 9.3905195,15.0047344 11.0535953,15.0367793 C12.7166712,15.0688241 14.1181167,13.8306329 14.2526627,12.2103708 C14.2652908,12.2039724 14.27745,12.1967267 14.2890533,12.1886858 C14.6817271,11.8316238 15.2956117,11.850989 15.6639053,12.2320557 C15.8165088,13.8902314 17.2901063,15.1295826 18.990647,15.0299716 C20.6911878,14.9303607 22.0027537,13.5278655 21.9515923,11.8637479 C21.9004307,10.1996302 20.505072,8.8766161 18.8014793,8.87695777 L18.8005917,8.87348818 Z M11.1133136,14.3892762 C9.73685006,14.3892762 8.62100592,13.2987961 8.62100592,11.9536208 C8.62100592,10.6084454 9.73685006,9.51796537 11.1133136,9.51796537 C12.4897772,9.51796537 13.6056213,10.6084454 13.6056213,11.9536208 C13.6046429,13.2985403 12.489515,14.3887086 11.1133136,14.3901436 L11.1133136,14.3892762 Z M18.8005917,14.3892762 C17.4241282,14.3892762 16.308284,13.2987961 16.308284,11.9536208 C16.308284,10.6084454 17.4241282,9.51796537 18.8005917,9.51796537 C20.1770553,9.51796537 21.2928994,10.6084454 21.2928994,11.9536208 C21.291921,13.2985403 20.1767931,14.3887086 18.8005917,14.3901436 L18.8005917,14.3892762 Z" id="Shape" fill="#36C1A0"></path>
                                                <path d="M18.5813609,14.604391 C16.8406836,14.604391 15.4295858,13.2253687 15.4295858,11.5242584 C15.4295858,9.82314822 16.8406836,8.44412584 18.5813609,8.44412584 C20.3220383,8.44412584 21.7331361,9.82314822 21.7331361,11.5242584 C21.7306917,13.2243783 20.3210248,14.6020022 18.5813609,14.604391 Z M18.5813609,9.08860304 C17.5733166,9.08860304 16.6645307,9.6820314 16.2787689,10.5921735 C15.893007,11.5023155 16.1062383,12.5499344 16.8190333,13.2465269 C17.5318283,13.9431195 18.6038143,14.1515038 19.5351258,13.7745106 C20.4664374,13.3975175 21.0736686,12.5093891 21.0736686,11.5242584 C21.072201,10.1796776 19.9572162,9.09003728 18.5813609,9.08860304 L18.5813609,9.08860304 Z" id="Shape" fill="#FFFFFF"></path>
                                                <path d="M10.8931953,14.604391 C9.15251796,14.604391 7.74142012,13.2253687 7.74142012,11.5242584 C7.74142012,9.82314822 9.15251796,8.44412584 10.8931953,8.44412584 C12.6338726,8.44412584 14.0449704,9.82314822 14.0449704,11.5242584 C14.0430138,13.224576 12.6330615,14.602479 10.8931953,14.604391 Z M10.8931953,9.08860304 C9.88515089,9.08860304 8.97636506,9.6820314 8.5906032,10.5921735 C8.20484132,11.5023155 8.41807259,12.5499344 9.13086763,13.2465269 C9.84366257,13.9431195 10.9156486,14.1515038 11.8469601,13.7745106 C12.7782717,13.3975175 13.385503,12.5093891 13.385503,11.5242584 C13.3840354,10.1796776 12.2690505,9.09003728 10.8931953,9.08860304 L10.8931953,9.08860304 Z" id="Shape" fill="#FFFFFF"></path>
                                                <path d="M9.06213018,11.6934012 C9.00375115,11.6934012 8.94776317,11.6707374 8.90648299,11.6303955 C8.86520281,11.5900537 8.84201183,11.5353383 8.84201183,11.4782863 C8.84252713,11.1137731 8.93846902,10.7554506 9.12071006,10.4374079 C9.15643305,10.3656107 9.22990518,10.3190526 9.31155444,10.3164729 C9.3932037,10.3138932 9.46959959,10.3557162 9.50999334,10.4251087 C9.55038719,10.494501 9.54813453,10.5800483 9.50414201,10.6473184 C9.35848527,10.9020717 9.28208893,11.1890639 9.28224852,11.4808885 C9.28079041,11.5986757 9.18266583,11.6934098 9.06213018,11.6934012 L9.06213018,11.6934012 Z" id="Shape" fill="#FFFFFF"></path>
                                                <path d="M9.69585799,10.2804088 C9.60535464,10.2802436 9.52417837,10.2259585 9.49124325,10.1435766 C9.45830822,10.0611947 9.48032751,9.96750773 9.54674556,9.90742736 L9.60621302,9.85538345 C9.69880642,9.783079 9.83335749,9.79540404 9.91058911,9.88326476 C9.98782074,9.97112539 9.98000086,10.1029731 9.89289941,10.1815253 L9.84497041,10.2231605 C9.80443633,10.2599437 9.75117249,10.2803932 9.69585799,10.2804088 Z" id="Shape" fill="#FFFFFF"></path>
                                                <path d="M16.7502959,11.6422247 L16.7210059,11.6422247 C16.6007235,11.626076 16.516534,11.5177978 16.5328402,11.4002204 C16.5829545,11.0381916 16.7271896,10.6947595 16.9517751,10.402712 C17.0253042,10.3069018 17.1643873,10.2874844 17.262426,10.3593421 C17.3604647,10.4311997 17.3803338,10.5671213 17.3068047,10.6629316 C17.1276374,10.8963814 17.0127337,11.1708391 16.9730769,11.4600709 C16.956167,11.5668509 16.8608288,11.6448029 16.7502959,11.6422247 L16.7502959,11.6422247 Z" id="Shape" fill="#FFFFFF"></path>
                                                <path d="M17.5730769,10.3246461 C17.4769617,10.3248507 17.3918241,10.2640864 17.3627738,10.1745489 C17.3337235,10.0850114 17.3674785,9.98740629 17.4461538,9.93344932 L17.5136095,9.88921199 C17.5797472,9.84439108 17.6656433,9.83841947 17.7376075,9.87363933 C17.8095717,9.90885927 17.8561292,9.9796547 17.8590193,10.0582584 C17.8619095,10.1368621 17.8206713,10.2107406 17.7514793,10.2509172 L17.6991124,10.2856132 C17.6622118,10.3109894 17.6181979,10.3246204 17.5730769,10.3246461 L17.5730769,10.3246461 Z" id="Shape" fill="#FFFFFF"></path>
                                                <path d="M15.6914201,11.9076486 C15.5997307,11.9076865 15.5122001,11.8702624 15.45,11.8044282 C15.2740571,11.6183028 15.0292506,11.5086763 14.7701183,11.4999713 C14.5106449,11.4883471 14.2575028,11.580413 14.0689349,11.7549865 C13.9832324,11.8374457 13.8584291,11.8678416 13.7431528,11.8343312 C13.6278765,11.8008206 13.5403631,11.7087047 13.5147109,11.593875 C13.4890587,11.4790453 13.5293257,11.359667 13.6198225,11.2822542 C13.9383095,10.9939869 14.3609342,10.841177 14.7947147,10.8574441 C15.2284952,10.8737112 15.6378944,11.0577226 15.9328402,11.3689941 C16.0220565,11.4629771 16.0458801,11.5996601 15.9935333,11.7172082 C15.9411864,11.8347564 15.8225992,11.9108711 15.6914201,11.9111182 L15.6914201,11.9076486 Z" id="Shape" fill="#FFFFFF"></path>
                                                <path d="M26.1532544,1.33752872 C26.1532638,0.766422096 26.5491089,0.267849642 27.1151789,0.125971323 C27.681249,-0.0159069947 28.2737672,0.234944645 28.5550296,0.735554054 C28.6264048,0.859858094 28.6255112,1.01171144 28.5526778,1.13520501 C28.4798443,1.25869856 28.3458391,1.33557448 28.2,1.33752872 L26.1532544,1.33752872 Z" id="Shape" fill="#36C1A0"></path>
                                                <g id="Rectangle-path" transform="translate(10.917160, 17.261233)">
                                                    <g id="Mask" fill="#51E1C1">
                                                        <path d="M1.36952663,8.26544172 C0.925800559,8.26509822 0.536547842,7.97616084 0.417159763,7.55851182 C-0.924852071,2.87455912 2.19674556,0.381655405 2.33076923,0.277567568 C2.60648736,0.0606433847 2.97968088,0.00394747711 3.30977138,0.128836644 C3.63986189,0.253725812 3.87670078,0.541226419 3.93107316,0.883039772 C3.98544553,1.22485312 3.84909091,1.56904964 3.57337278,1.78597382 C3.47130178,1.87271368 1.35443787,3.63526774 2.33076923,7.03633784 C2.41438549,7.32779995 2.35354441,7.64070968 2.16636391,7.88188551 C1.97918341,8.12306133 1.68725597,8.26468203 1.37751479,8.26457432 L1.36952663,8.26544172 Z" id="path-5"></path>
                                                    </g>
                                                    <g id="Clipped">
                                                        <g id="Rectangle-path-Clipped">
                                                            <mask id="mask-6" fill="white">
                                                                <use xlink:href="#path-5"></use>
                                                            </mask>
                                                            <g id="path-5"></g>
                                                            <rect id="Rectangle-path" fill="#36C1A0" mask="url(#mask-6)" x="-1.41568047" y="3.21978378" width="10.254142" height="1.25078885"></rect>
                                                        </g>
                                                    </g>
                                                </g>
                                            </g>
                                        </g>
                                    </g>
                                </g>
                            </g>
                        </g>
                    </g>
                </g>
            </g>
        </g>
    </g>
</svg>