<?xml version="1.0" encoding="UTF-8" standalone="no"?>
<svg width="240px" height="103px" viewBox="0 0 240 103" version="1.1" xmlns="http://www.w3.org/2000/svg" xmlns:xlink="http://www.w3.org/1999/xlink">
    <!-- Generator: Sketch 42 (36781) - http://www.bohemiancoding.com/sketch -->
    <title>Message 03</title>
    <desc>Created with Sketch.</desc>
    <defs></defs>
    <g id="Page-1" stroke="none" stroke-width="1" fill="none" fill-rule="evenodd">
        <g id="Desktop-HD" transform="translate(-494.000000, -743.000000)">
            <g id="PREMIERE-LAME" transform="translate(-155.000000, -21.000000)">
                <g id="Phone" transform="translate(596.000000, 420.000000)">
                    <g id="Message-03" transform="translate(53.000000, 344.000000)">
                        <path d="M0,15.0006311 C0,6.71601132 6.71683628,0 14.9903828,0 L240,0 L240,69.9993689 C240,78.2839887 233.283164,85 225.009617,85 L14.9903828,85 C6.71142299,85 0,78.2769361 0,69.9993689 L0,15.0006311 Z" id="Rectangle-16" fill="#50E2C1"></path>
                        <path d="M208.296387,97.9082031 C208.296387,100.701186 207.215668,102.097656 205.054199,102.097656 C204.676593,102.097656 204.377117,102.065104 204.155762,102 L204.155762,101.301758 C204.41618,101.386394 204.712401,101.428711 205.044434,101.428711 C205.825687,101.428711 206.415688,101.187014 206.814453,100.703613 C207.213218,100.220212 207.430501,99.4788461 207.466309,98.4794922 L207.407715,98.4794922 C207.228677,98.7496758 206.99105,98.9555657 206.694824,99.097168 C206.398599,99.2387702 206.064943,99.3095703 205.693848,99.3095703 C205.062334,99.3095703 204.561037,99.1207701 204.189941,98.7431641 C203.818846,98.365558 203.633301,97.8382195 203.633301,97.1611328 C203.633301,96.4189416 203.840818,95.83301 204.255859,95.4033203 C204.670901,94.9736307 205.216956,94.7587891 205.894043,94.7587891 C206.379071,94.7587891 206.803058,94.8832995 207.166016,95.1323242 C207.528973,95.3813489 207.808104,95.744301 208.003418,96.2211914 C208.198731,96.6980818 208.296387,97.2604134 208.296387,97.9082031 Z M205.894043,95.4521484 C205.428546,95.4521484 205.068849,95.6018865 204.814941,95.9013672 C204.561034,96.2008479 204.434082,96.6175104 204.434082,97.1513672 C204.434082,97.6201195 204.551268,97.9887682 204.785645,98.2573242 C205.020021,98.5258802 205.376462,98.6601562 205.85498,98.6601562 C206.151206,98.6601562 206.423827,98.5999355 206.672852,98.4794922 C206.921876,98.3590489 207.118001,98.1946625 207.26123,97.9863281 C207.40446,97.7779938 207.476074,97.559897 207.476074,97.3320312 C207.476074,96.9902327 207.409343,96.6744806 207.275879,96.3847656 C207.142415,96.0950506 206.956056,95.8671883 206.716797,95.7011719 C206.477538,95.5351554 206.203289,95.4521484 205.894043,95.4521484 Z M209.575684,101.482422 C209.575684,101.264322 209.625325,101.099122 209.724609,100.986816 C209.823894,100.874511 209.966308,100.818359 210.151855,100.818359 C210.340658,100.818359 210.487955,100.874511 210.59375,100.986816 C210.699545,101.099122 210.752441,101.264322 210.752441,101.482422 C210.752441,101.694011 210.698731,101.85677 210.591309,101.970703 C210.483886,102.084636 210.337403,102.141602 210.151855,102.141602 C209.985839,102.141602 209.848308,102.090333 209.739258,101.987793 C209.630208,101.885253 209.575684,101.716798 209.575684,101.482422 Z M209.575684,97.1708984 C209.575684,96.7314431 209.767739,96.5117188 210.151855,96.5117188 C210.552248,96.5117188 210.752441,96.7314431 210.752441,97.1708984 C210.752441,97.382488 210.698731,97.5452468 210.591309,97.6591797 C210.483886,97.7731125 210.337403,97.8300781 210.151855,97.8300781 C209.985839,97.8300781 209.848308,97.7788091 209.739258,97.6762695 C209.630208,97.57373 209.575684,97.4052746 209.575684,97.1708984 Z M216.675293,102 L211.98291,102 L211.98291,101.301758 L213.862793,99.4121094 C214.435712,98.8326794 214.813313,98.4192721 214.995605,98.171875 C215.177898,97.9244779 215.314615,97.6835949 215.405762,97.4492188 C215.496908,97.2148426 215.54248,96.9625665 215.54248,96.6923828 C215.54248,96.3115215 215.426922,96.009604 215.195801,95.7866211 C214.96468,95.5636382 214.644045,95.4521484 214.233887,95.4521484 C213.937661,95.4521484 213.656902,95.5009761 213.391602,95.5986328 C213.126301,95.6962896 212.830894,95.8736966 212.505371,96.1308594 L212.075684,95.5791016 C212.733239,95.0322238 213.449378,94.7587891 214.224121,94.7587891 C214.894697,94.7587891 215.420408,94.9304996 215.80127,95.2739258 C216.182131,95.617352 216.372559,96.0787731 216.372559,96.6582031 C216.372559,97.1106793 216.245607,97.558266 215.991699,98.0009766 C215.737792,98.4436871 215.262536,99.0035773 214.565918,99.6806641 L213.003418,101.208984 L213.003418,101.248047 L216.675293,101.248047 L216.675293,102 Z M222.124512,96.5410156 C222.124512,96.9967471 221.996746,97.3694647 221.741211,97.6591797 C221.485676,97.9488947 221.123537,98.1425776 220.654785,98.2402344 L220.654785,98.2792969 C221.227705,98.3509118 221.652505,98.5332017 221.929199,98.8261719 C222.205893,99.1191421 222.344238,99.5032528 222.344238,99.9785156 C222.344238,100.658858 222.108238,101.182127 221.63623,101.54834 C221.164223,101.914553 220.493657,102.097656 219.624512,102.097656 C219.246906,102.097656 218.901043,102.069173 218.586914,102.012207 C218.272785,101.955241 217.967612,101.855144 217.671387,101.711914 L217.671387,100.94043 C217.980633,101.093425 218.31022,101.209798 218.660156,101.289551 C219.010093,101.369304 219.341307,101.40918 219.653809,101.40918 C220.887539,101.40918 221.504395,100.925786 221.504395,99.9589844 C221.504395,99.0930946 220.824063,98.6601562 219.463379,98.6601562 L218.760254,98.6601562 L218.760254,97.9619141 L219.473145,97.9619141 C220.029788,97.9619141 220.470864,97.8390312 220.796387,97.5932617 C221.121909,97.3474923 221.284668,97.0065126 221.284668,96.5703125 C221.284668,96.2220035 221.16504,95.9485687 220.925781,95.75 C220.686522,95.5514313 220.361818,95.4521484 219.95166,95.4521484 C219.639159,95.4521484 219.344565,95.4944657 219.067871,95.5791016 C218.791177,95.6637374 218.475425,95.8199858 218.120605,96.0478516 L217.710449,95.5009766 C218.003419,95.2698556 218.341144,95.0883796 218.723633,94.956543 C219.106122,94.8247064 219.50895,94.7587891 219.932129,94.7587891 C220.625492,94.7587891 221.164223,94.9174789 221.54834,95.2348633 C221.932456,95.5522477 222.124512,95.9876274 222.124512,96.5410156 Z M230.996582,102 L230.10791,99.7294922 L227.246582,99.7294922 L226.367676,102 L225.527832,102 L228.350098,94.8320312 L229.04834,94.8320312 L231.855957,102 L230.996582,102 Z M229.849121,98.9824219 L229.019043,96.7705078 C228.911621,96.4905585 228.800945,96.1471375 228.687012,95.7402344 C228.615397,96.0527359 228.512859,96.396157 228.379395,96.7705078 L227.539551,98.9824219 L229.849121,98.9824219 Z M235.996582,102 L233.574707,95.671875 L233.535645,95.671875 C233.581218,96.1731796 233.604004,96.7688768 233.604004,97.4589844 L233.604004,102 L232.837402,102 L232.837402,94.8613281 L234.087402,94.8613281 L236.348145,100.75 L236.387207,100.75 L238.66748,94.8613281 L239.907715,94.8613281 L239.907715,102 L239.077637,102 L239.077637,97.4003906 C239.077637,96.8730442 239.100423,96.3001333 239.145996,95.6816406 L239.106934,95.6816406 L236.665527,102 L235.996582,102 Z" id="9:23-AM-Copy-3" fill="#9B9B9B"></path>
                        <path d="M26.3828125,30 L23.234375,21.7734375 L23.1835938,21.7734375 C23.2428388,22.4251335 23.2724609,23.1995398 23.2724609,24.0966797 L23.2724609,30 L22.2758789,30 L22.2758789,20.7197266 L23.9008789,20.7197266 L26.8398438,28.375 L26.890625,28.375 L29.8549805,20.7197266 L31.4672852,20.7197266 L31.4672852,30 L30.3881836,30 L30.3881836,24.0205078 C30.3881836,23.3349575 30.4178057,22.5901733 30.4770508,21.7861328 L30.4262695,21.7861328 L27.2524414,30 L26.3828125,30 Z M38.1323242,30 L37.9228516,29.0097656 L37.8720703,29.0097656 C37.5250634,29.4456402 37.1791196,29.7408033 36.8342285,29.8952637 C36.4893375,30.0497241 36.0587591,30.1269531 35.5424805,30.1269531 C34.8526984,30.1269531 34.3120951,29.9492205 33.9206543,29.59375 C33.5292135,29.2382795 33.3334961,28.7325879 33.3334961,28.0766602 C33.3334961,26.6717052 34.45702,25.9353845 36.7041016,25.8676758 L37.8847656,25.8295898 L37.8847656,25.3979492 C37.8847656,24.8520481 37.7673352,24.4489759 37.5324707,24.1887207 C37.2976062,23.9284655 36.9220403,23.7983398 36.4057617,23.7983398 C35.8260062,23.7983398 35.1700883,23.9760724 34.4379883,24.331543 L34.1142578,23.5253906 C34.457033,23.3391918 34.8325989,23.1931971 35.2409668,23.0874023 C35.6493347,22.9816075 36.0587545,22.9287109 36.4692383,22.9287109 C37.2986695,22.9287109 37.9133281,23.1127911 38.3132324,23.480957 C38.7131368,23.8491229 38.9130859,24.4394491 38.9130859,25.2519531 L38.9130859,30 L38.1323242,30 Z M35.7519531,29.2573242 C36.4078809,29.2573242 36.9230938,29.0774758 37.2976074,28.7177734 C37.672121,28.3580711 37.859375,27.8544954 37.859375,27.2070312 L37.859375,26.5786133 L36.8056641,26.6230469 C35.9677692,26.6526694 35.36369,26.7827951 34.9934082,27.0134277 C34.6231264,27.2440604 34.4379883,27.6026994 34.4379883,28.0893555 C34.4379883,28.4702167 34.5533029,28.7600902 34.7839355,28.9589844 C35.0145682,29.1578786 35.3372375,29.2573242 35.7519531,29.2573242 Z M42.125,26.4389648 C42.3069671,26.1808255 42.5841453,25.8422873 42.956543,25.4233398 L45.2036133,23.0429688 L46.4541016,23.0429688 L43.6357422,26.0073242 L46.6508789,30 L45.375,30 L42.918457,26.7119141 L42.125,27.3974609 L42.125,30 L41.0839844,30 L41.0839844,20.1230469 L42.125,20.1230469 L42.125,25.3598633 C42.125,25.5926118 42.1080731,25.9523088 42.0742188,26.4389648 L42.125,26.4389648 Z M50.8466797,30.1269531 C49.8183542,30.1269531 49.0069203,29.8138052 48.4123535,29.1875 C47.8177867,28.5611948 47.5205078,27.6915746 47.5205078,26.5786133 C47.5205078,25.4571884 47.7966281,24.5664096 48.348877,23.90625 C48.9011258,23.2460904 49.6427362,22.9160156 50.5737305,22.9160156 C51.4454796,22.9160156 52.1352514,23.2027152 52.6430664,23.776123 C53.1508814,24.3495309 53.4047852,25.1059523 53.4047852,26.0454102 L53.4047852,26.7119141 L48.6123047,26.7119141 C48.6334636,27.5286499 48.8397604,28.1485981 49.2312012,28.5717773 C49.6226419,28.9949565 50.1738246,29.206543 50.8847656,29.206543 C51.6337928,29.206543 52.3743453,29.049969 53.1064453,28.7368164 L53.1064453,29.6762695 C52.7340476,29.8370776 52.3817562,29.9523922 52.0495605,30.0222168 C51.7173649,30.0920414 51.3164086,30.1269531 50.8466797,30.1269531 Z M50.5610352,23.7983398 C50.0024386,23.7983398 49.5570492,23.9803042 49.2248535,24.3442383 C48.8926578,24.7081724 48.6969404,25.2117481 48.6376953,25.8549805 L52.2749023,25.8549805 C52.2749023,25.1905891 52.1267918,24.6817238 51.8305664,24.3283691 C51.534341,23.9750145 51.1111681,23.7983398 50.5610352,23.7983398 Z M63.3134766,29.0668945 L63.2563477,29.0668945 C62.7696916,29.7736038 62.0418343,30.1269531 61.0727539,30.1269531 C60.1629186,30.1269531 59.455162,29.8159211 58.9494629,29.1938477 C58.4437637,28.5717742 58.190918,27.687343 58.190918,26.5405273 C58.190918,25.3937117 58.4448217,24.5029329 58.9526367,23.8681641 C59.4604518,23.2333953 60.1671504,22.9160156 61.0727539,22.9160156 C62.0164435,22.9160156 62.7400691,23.2587856 63.2436523,23.9443359 L63.3261719,23.9443359 L63.2817383,23.4428711 L63.2563477,22.9541016 L63.2563477,20.1230469 L64.3100586,20.1230469 L64.3100586,30 L63.453125,30 L63.3134766,29.0668945 Z M61.2060547,29.2446289 C61.9254593,29.2446289 62.4470199,29.0489115 62.770752,28.6574707 C63.094484,28.2660299 63.2563477,27.6344445 63.2563477,26.7626953 L63.2563477,26.5405273 C63.2563477,25.5545198 63.0923682,24.8509949 62.7644043,24.4299316 C62.4364404,24.0088683 61.912764,23.7983398 61.1933594,23.7983398 C60.5755177,23.7983398 60.1026221,24.0384904 59.7746582,24.5187988 C59.4466943,24.9991072 59.2827148,25.6772417 59.2827148,26.5532227 C59.2827148,27.441899 59.4456364,28.1126279 59.7714844,28.5654297 C60.0973324,29.0182314 60.5755177,29.2446289 61.2060547,29.2446289 Z M69.4833984,30.1269531 C68.455073,30.1269531 67.643639,29.8138052 67.0490723,29.1875 C66.4545055,28.5611948 66.1572266,27.6915746 66.1572266,26.5786133 C66.1572266,25.4571884 66.4333468,24.5664096 66.9855957,23.90625 C67.5378446,23.2460904 68.279455,22.9160156 69.2104492,22.9160156 C70.0821984,22.9160156 70.7719701,23.2027152 71.2797852,23.776123 C71.7876002,24.3495309 72.0415039,25.1059523 72.0415039,26.0454102 L72.0415039,26.7119141 L67.2490234,26.7119141 C67.2701824,27.5286499 67.4764792,28.1485981 67.8679199,28.5717773 C68.2593607,28.9949565 68.8105433,29.206543 69.5214844,29.206543 C70.2705116,29.206543 71.011064,29.049969 71.7431641,28.7368164 L71.7431641,29.6762695 C71.3707664,29.8370776 71.018475,29.9523922 70.6862793,30.0222168 C70.3540836,30.0920414 69.9531273,30.1269531 69.4833984,30.1269531 Z M69.1977539,23.7983398 C68.6391574,23.7983398 68.1937679,23.9803042 67.8615723,24.3442383 C67.5293766,24.7081724 67.3336592,25.2117481 67.2744141,25.8549805 L70.9116211,25.8549805 C70.9116211,25.1905891 70.7635106,24.6817238 70.4672852,24.3283691 C70.1710597,23.9750145 69.7478869,23.7983398 69.1977539,23.7983398 Z M76.6181641,30.1269531 C75.6109976,30.1269531 74.8313016,29.816979 74.2790527,29.1970215 C73.7268039,28.577064 73.4506836,27.7000382 73.4506836,26.565918 C73.4506836,25.4021752 73.7310356,24.5029329 74.291748,23.8681641 C74.8524605,23.2333953 75.6511992,22.9160156 76.6879883,22.9160156 C77.0222998,22.9160156 77.3566064,22.9519853 77.690918,23.0239258 C78.0252295,23.0958662 78.2875967,23.1805008 78.4780273,23.277832 L78.1542969,24.1728516 C77.9215483,24.0797521 77.6676446,24.0025231 77.3925781,23.9411621 C77.1175116,23.8798011 76.8741873,23.8491211 76.6625977,23.8491211 C75.2491791,23.8491211 74.5424805,24.7504793 74.5424805,26.5532227 C74.5424805,27.4080446 74.7149234,28.0639626 75.0598145,28.5209961 C75.4047055,28.9780296 75.9156867,29.206543 76.5927734,29.206543 C77.1725289,29.206543 77.7670868,29.081707 78.3764648,28.8320312 L78.3764648,29.7651367 C77.9109677,30.0063489 77.3248733,30.1269531 76.6181641,30.1269531 Z M81.0805664,30 L80.0268555,30 L80.0268555,23.0429688 L81.0805664,23.0429688 L81.0805664,30 Z M79.9379883,21.1577148 C79.9379883,20.9165027 79.9972325,20.739828 80.1157227,20.6276855 C80.2342128,20.5155431 80.3823233,20.4594727 80.5600586,20.4594727 C80.7293303,20.4594727 80.8753249,20.516601 80.9980469,20.6308594 C81.1207688,20.7451178 81.1821289,20.9207345 81.1821289,21.1577148 C81.1821289,21.3946952 81.1207688,21.5713699 80.9980469,21.6877441 C80.8753249,21.8041184 80.7293303,21.8623047 80.5600586,21.8623047 C80.3823233,21.8623047 80.2342128,21.8041184 80.1157227,21.6877441 C79.9972325,21.5713699 79.9379883,21.3946952 79.9379883,21.1577148 Z M87.8027344,28.1020508 C87.8027344,28.749515 87.5615258,29.2488589 87.0791016,29.6000977 C86.5966773,29.9513364 85.9196007,30.1269531 85.0478516,30.1269531 C84.1253209,30.1269531 83.4059271,29.9809585 82.8896484,29.6889648 L82.8896484,28.7114258 C83.22396,28.8806975 83.582599,29.0139969 83.9655762,29.1113281 C84.3485533,29.2086593 84.7177717,29.2573242 85.0732422,29.2573242 C85.6233751,29.2573242 86.046548,29.1695159 86.3427734,28.9938965 C86.6389989,28.8182771 86.7871094,28.5506203 86.7871094,28.190918 C86.7871094,27.9200833 86.6696789,27.6883961 86.4348145,27.4958496 C86.19995,27.3033031 85.7418654,27.0758477 85.0605469,26.8134766 C84.4130827,26.5722644 83.9528822,26.3617359 83.6799316,26.1818848 C83.4069811,26.0020336 83.2038581,25.7978527 83.0705566,25.5693359 C82.9372552,25.3408192 82.8706055,25.0678727 82.8706055,24.7504883 C82.8706055,24.1834282 83.1012347,23.7359229 83.5625,23.407959 C84.0237653,23.0799951 84.6564087,22.9160156 85.4604492,22.9160156 C86.2094764,22.9160156 86.9415654,23.0683579 87.6567383,23.3730469 L87.2822266,24.2299805 C86.5839809,23.9422186 85.9513375,23.7983398 85.3842773,23.7983398 C84.8849259,23.7983398 84.5083021,23.8766268 84.2543945,24.0332031 C84.000487,24.1897794 83.8735352,24.4055976 83.8735352,24.6806641 C83.8735352,24.8668629 83.9211421,25.0255527 84.0163574,25.1567383 C84.1115727,25.2879238 84.2649729,25.4127598 84.4765625,25.53125 C84.6881521,25.6497402 85.094398,25.8211252 85.6953125,26.0454102 C86.5205119,26.3458674 87.0780422,26.648436 87.3679199,26.953125 C87.6577977,27.257814 87.8027344,27.6407855 87.8027344,28.1020508 Z M90.5703125,30 L89.5166016,30 L89.5166016,23.0429688 L90.5703125,23.0429688 L90.5703125,30 Z M89.4277344,21.1577148 C89.4277344,20.9165027 89.4869786,20.739828 89.6054688,20.6276855 C89.7239589,20.5155431 89.8720694,20.4594727 90.0498047,20.4594727 C90.2190764,20.4594727 90.365071,20.516601 90.487793,20.6308594 C90.6105149,20.7451178 90.671875,20.9207345 90.671875,21.1577148 C90.671875,21.3946952 90.6105149,21.5713699 90.487793,21.6877441 C90.365071,21.8041184 90.2190764,21.8623047 90.0498047,21.8623047 C89.8720694,21.8623047 89.7239589,21.8041184 89.6054688,21.6877441 C89.4869786,21.5713699 89.4277344,21.3946952 89.4277344,21.1577148 Z M98.8095703,26.5151367 C98.8095703,27.649257 98.5239286,28.5347462 97.9526367,29.1716309 C97.3813448,29.8085156 96.5921274,30.1269531 95.5849609,30.1269531 C94.9628875,30.1269531 94.4106469,29.9809585 93.9282227,29.6889648 C93.4457984,29.3969712 93.0734063,28.9780301 92.8110352,28.4321289 C92.5486641,27.8862277 92.4174805,27.2472367 92.4174805,26.5151367 C92.4174805,25.3810165 92.7010063,24.4976431 93.2680664,23.8649902 C93.8351265,23.2323373 94.622228,22.9160156 95.6293945,22.9160156 C96.6027067,22.9160156 97.3760551,23.2397429 97.9494629,23.887207 C98.5228707,24.5346712 98.8095703,25.410639 98.8095703,26.5151367 Z M93.5092773,26.5151367 C93.5092773,27.403813 93.6870099,28.0808896 94.0424805,28.5463867 C94.397951,29.0118838 94.9205695,29.2446289 95.6103516,29.2446289 C96.3001337,29.2446289 96.8238101,29.0129418 97.1813965,28.5495605 C97.5389829,28.0861793 97.7177734,27.4080448 97.7177734,26.5151367 C97.7177734,25.6306922 97.5389829,24.9589053 97.1813965,24.4997559 C96.8238101,24.0406064 96.2959019,23.8110352 95.5976562,23.8110352 C94.9078742,23.8110352 94.3873715,24.0374326 94.0361328,24.4902344 C93.6848941,24.9430361 93.5092773,25.6179968 93.5092773,26.5151367 Z M105.41748,30 L105.41748,25.4995117 C105.41748,24.9324516 105.288413,24.5092787 105.030273,24.2299805 C104.772134,23.9506822 104.368004,23.8110352 103.817871,23.8110352 C103.090003,23.8110352 102.556805,24.0078105 102.218262,24.4013672 C101.879718,24.7949238 101.710449,25.4444942 101.710449,26.3500977 L101.710449,30 L100.656738,30 L100.656738,23.0429688 L101.513672,23.0429688 L101.685059,23.9951172 L101.73584,23.9951172 C101.951661,23.652342 102.25423,23.3868011 102.643555,23.1984863 C103.03288,23.0101716 103.466632,22.9160156 103.944824,22.9160156 C104.782719,22.9160156 105.413247,23.1180807 105.836426,23.5222168 C106.259605,23.9263529 106.471191,24.5727495 106.471191,25.4614258 L106.471191,30 L105.41748,30 Z M113.123535,28.1020508 C113.123535,28.749515 112.882327,29.2488589 112.399902,29.6000977 C111.917478,29.9513364 111.240401,30.1269531 110.368652,30.1269531 C109.446122,30.1269531 108.726728,29.9809585 108.210449,29.6889648 L108.210449,28.7114258 C108.544761,28.8806975 108.9034,29.0139969 109.286377,29.1113281 C109.669354,29.2086593 110.038572,29.2573242 110.394043,29.2573242 C110.944176,29.2573242 111.367349,29.1695159 111.663574,28.9938965 C111.9598,28.8182771 112.10791,28.5506203 112.10791,28.190918 C112.10791,27.9200833 111.99048,27.6883961 111.755615,27.4958496 C111.520751,27.3033031 111.062666,27.0758477 110.381348,26.8134766 C109.733883,26.5722644 109.273683,26.3617359 109.000732,26.1818848 C108.727782,26.0020336 108.524659,25.7978527 108.391357,25.5693359 C108.258056,25.3408192 108.191406,25.0678727 108.191406,24.7504883 C108.191406,24.1834282 108.422035,23.7359229 108.883301,23.407959 C109.344566,23.0799951 109.97721,22.9160156 110.78125,22.9160156 C111.530277,22.9160156 112.262366,23.0683579 112.977539,23.3730469 L112.603027,24.2299805 C111.904782,23.9422186 111.272138,23.7983398 110.705078,23.7983398 C110.205727,23.7983398 109.829103,23.8766268 109.575195,24.0332031 C109.321288,24.1897794 109.194336,24.4055976 109.194336,24.6806641 C109.194336,24.8668629 109.241943,25.0255527 109.337158,25.1567383 C109.432374,25.2879238 109.585774,25.4127598 109.797363,25.53125 C110.008953,25.6497402 110.415199,25.8211252 111.016113,26.0454102 C111.841313,26.3458674 112.398843,26.648436 112.688721,26.953125 C112.978598,27.257814 113.123535,27.6407855 113.123535,28.1020508 Z M120.461426,29.2573242 C120.647625,29.2573242 120.827473,29.2435711 121.000977,29.2160645 C121.17448,29.1885578 121.312011,29.1599936 121.413574,29.1303711 L121.413574,29.9365234 C121.299316,29.9915367 121.131105,30.0370278 120.908936,30.072998 C120.686766,30.1089683 120.486817,30.1269531 120.309082,30.1269531 C118.963372,30.1269531 118.290527,29.4181386 118.290527,28.0004883 L118.290527,23.8618164 L117.293945,23.8618164 L117.293945,23.3540039 L118.290527,22.9160156 L118.734863,21.4306641 L119.344238,21.4306641 L119.344238,23.0429688 L121.362793,23.0429688 L121.362793,23.8618164 L119.344238,23.8618164 L119.344238,27.9560547 C119.344238,28.3750021 119.443684,28.6966135 119.642578,28.9208984 C119.841472,29.1451834 120.114419,29.2573242 120.461426,29.2573242 Z M128.808594,26.5151367 C128.808594,27.649257 128.522952,28.5347462 127.95166,29.1716309 C127.380368,29.8085156 126.591151,30.1269531 125.583984,30.1269531 C124.961911,30.1269531 124.40967,29.9809585 123.927246,29.6889648 C123.444822,29.3969712 123.07243,28.9780301 122.810059,28.4321289 C122.547687,27.8862277 122.416504,27.2472367 122.416504,26.5151367 C122.416504,25.3810165 122.70003,24.4976431 123.26709,23.8649902 C123.83415,23.2323373 124.621251,22.9160156 125.628418,22.9160156 C126.60173,22.9160156 127.375079,23.2397429 127.948486,23.887207 C128.521894,24.5346712 128.808594,25.410639 128.808594,26.5151367 Z M123.508301,26.5151367 C123.508301,27.403813 123.686033,28.0808896 124.041504,28.5463867 C124.396974,29.0118838 124.919593,29.2446289 125.609375,29.2446289 C126.299157,29.2446289 126.822833,29.0129418 127.18042,28.5495605 C127.538006,28.0861793 127.716797,27.4080448 127.716797,26.5151367 C127.716797,25.6306922 127.538006,24.9589053 127.18042,24.4997559 C126.822833,24.0406064 126.294925,23.8110352 125.59668,23.8110352 C124.906898,23.8110352 124.386395,24.0374326 124.035156,24.4902344 C123.683918,24.9430361 123.508301,25.6179968 123.508301,26.5151367 Z M136.349609,23.0429688 L136.349609,23.7094727 L135.061035,23.8618164 C135.179525,24.0099291 135.285319,24.2035307 135.378418,24.442627 C135.471517,24.6817232 135.518066,24.9514959 135.518066,25.2519531 C135.518066,25.9332716 135.285321,26.4770488 134.819824,26.8833008 C134.354327,27.2895528 133.715336,27.4926758 132.902832,27.4926758 C132.695474,27.4926758 132.500815,27.4757489 132.318848,27.4418945 C131.870278,27.6788749 131.645996,27.9772117 131.645996,28.3369141 C131.645996,28.5273447 131.724283,28.6680497 131.880859,28.7590332 C132.037436,28.8500167 132.30615,28.8955078 132.687012,28.8955078 L133.918457,28.8955078 C134.671716,28.8955078 135.250405,29.0541976 135.654541,29.371582 C136.058677,29.6889664 136.260742,30.1502248 136.260742,30.7553711 C136.260742,31.5255572 135.951826,32.1127096 135.333984,32.5168457 C134.716143,32.9209818 133.814785,33.1230469 132.629883,33.1230469 C131.720048,33.1230469 131.018639,32.9537777 130.525635,32.6152344 C130.032631,32.276691 129.786133,31.7985057 129.786133,31.1806641 C129.786133,30.7574849 129.921548,30.3914403 130.192383,30.0825195 C130.463217,29.7735987 130.844073,29.5641282 131.334961,29.4541016 C131.157226,29.3736975 131.008057,29.2488615 130.887451,29.0795898 C130.766845,28.9103182 130.706543,28.7135428 130.706543,28.4892578 C130.706543,28.2353503 130.774251,28.0131845 130.909668,27.8227539 C131.045085,27.6323233 131.258788,27.4482431 131.550781,27.2705078 C131.191079,27.1223951 130.898032,26.8706072 130.671631,26.5151367 C130.44523,26.1596662 130.332031,25.7534203 130.332031,25.2963867 C130.332031,24.5346642 130.560545,23.9475118 131.017578,23.5349121 C131.474612,23.1223124 132.122066,22.9160156 132.959961,22.9160156 C133.323895,22.9160156 133.651854,22.9583329 133.943848,23.0429688 L136.349609,23.0429688 Z M130.801758,31.1679688 C130.801758,31.5445982 130.960448,31.8302399 131.277832,32.0249023 C131.595216,32.2195648 132.050127,32.3168945 132.642578,32.3168945 C133.527023,32.3168945 134.181883,32.184653 134.607178,31.920166 C135.032473,31.655679 135.245117,31.29704 135.245117,30.8442383 C135.245117,30.4676088 135.128745,30.2062996 134.895996,30.0603027 C134.663248,29.9143059 134.225264,29.8413086 133.582031,29.8413086 L132.318848,29.8413086 C131.840655,29.8413086 131.468263,29.9555653 131.20166,30.184082 C130.935057,30.4125988 130.801758,30.7405578 130.801758,31.1679688 Z M131.373047,25.2709961 C131.373047,25.7576522 131.510578,26.1258126 131.785645,26.3754883 C132.060711,26.625164 132.443682,26.75 132.93457,26.75 C133.962896,26.75 134.477051,26.250656 134.477051,25.2519531 C134.477051,24.2067005 133.956548,23.684082 132.915527,23.684082 C132.420408,23.684082 132.039552,23.8173815 131.772949,24.0839844 C131.506346,24.3505873 131.373047,24.7462539 131.373047,25.2709961 Z M140.716797,30.1269531 C139.688471,30.1269531 138.877037,29.8138052 138.282471,29.1875 C137.687904,28.5611948 137.390625,27.6915746 137.390625,26.5786133 C137.390625,25.4571884 137.666745,24.5664096 138.218994,23.90625 C138.771243,23.2460904 139.512853,22.9160156 140.443848,22.9160156 C141.315597,22.9160156 142.005369,23.2027152 142.513184,23.776123 C143.020999,24.3495309 143.274902,25.1059523 143.274902,26.0454102 L143.274902,26.7119141 L138.482422,26.7119141 C138.503581,27.5286499 138.709878,28.1485981 139.101318,28.5717773 C139.492759,28.9949565 140.043942,29.206543 140.754883,29.206543 C141.50391,29.206543 142.244462,29.049969 142.976562,28.7368164 L142.976562,29.6762695 C142.604165,29.8370776 142.251873,29.9523922 141.919678,30.0222168 C141.587482,30.0920414 141.186526,30.1269531 140.716797,30.1269531 Z M140.431152,23.7983398 C139.872556,23.7983398 139.427166,23.9803042 139.094971,24.3442383 C138.762775,24.7081724 138.567058,25.2117481 138.507812,25.8549805 L142.14502,25.8549805 C142.14502,25.1905891 141.996909,24.6817238 141.700684,24.3283691 C141.404458,23.9750145 140.981285,23.7983398 140.431152,23.7983398 Z M147.318359,29.2573242 C147.504558,29.2573242 147.684407,29.2435711 147.85791,29.2160645 C148.031414,29.1885578 148.168945,29.1599936 148.270508,29.1303711 L148.270508,29.9365234 C148.156249,29.9915367 147.988038,30.0370278 147.765869,30.072998 C147.5437,30.1089683 147.343751,30.1269531 147.166016,30.1269531 C145.820306,30.1269531 145.147461,29.4181386 145.147461,28.0004883 L145.147461,23.8618164 L144.150879,23.8618164 L144.150879,23.3540039 L145.147461,22.9160156 L145.591797,21.4306641 L146.201172,21.4306641 L146.201172,23.0429688 L148.219727,23.0429688 L148.219727,23.8618164 L146.201172,23.8618164 L146.201172,27.9560547 C146.201172,28.3750021 146.300617,28.6966135 146.499512,28.9208984 C146.698406,29.1451834 146.971352,29.2573242 147.318359,29.2573242 Z M154.421387,30 L154.421387,25.4995117 C154.421387,24.9324516 154.292319,24.5092787 154.03418,24.2299805 C153.77604,23.9506822 153.37191,23.8110352 152.821777,23.8110352 C152.089677,23.8110352 151.555422,24.0099264 151.218994,24.4077148 C150.882567,24.8055033 150.714355,25.4571895 150.714355,26.362793 L150.714355,30 L149.660645,30 L149.660645,20.1230469 L150.714355,20.1230469 L150.714355,23.112793 C150.714355,23.4724953 150.697429,23.7708321 150.663574,24.0078125 L150.727051,24.0078125 C150.934409,23.6735009 151.229572,23.4100758 151.612549,23.2175293 C151.995526,23.0249828 152.432452,22.9287109 152.92334,22.9287109 C153.77393,22.9287109 154.411863,23.130776 154.837158,23.5349121 C155.262453,23.9390482 155.475098,24.581213 155.475098,25.4614258 L155.475098,30 L154.421387,30 Z M160.578613,30.1269531 C159.550288,30.1269531 158.738854,29.8138052 158.144287,29.1875 C157.54972,28.5611948 157.252441,27.6915746 157.252441,26.5786133 C157.252441,25.4571884 157.528562,24.5664096 158.080811,23.90625 C158.633059,23.2460904 159.37467,22.9160156 160.305664,22.9160156 C161.177413,22.9160156 161.867185,23.2027152 162.375,23.776123 C162.882815,24.3495309 163.136719,25.1059523 163.136719,26.0454102 L163.136719,26.7119141 L158.344238,26.7119141 C158.365397,27.5286499 158.571694,28.1485981 158.963135,28.5717773 C159.354576,28.9949565 159.905758,29.206543 160.616699,29.206543 C161.365726,29.206543 162.106279,29.049969 162.838379,28.7368164 L162.838379,29.6762695 C162.465981,29.8370776 162.11369,29.9523922 161.781494,30.0222168 C161.449298,30.0920414 161.048342,30.1269531 160.578613,30.1269531 Z M160.292969,23.7983398 C159.734372,23.7983398 159.288983,23.9803042 158.956787,24.3442383 C158.624591,24.7081724 158.428874,25.2117481 158.369629,25.8549805 L162.006836,25.8549805 C162.006836,25.1905891 161.858725,24.6817238 161.5625,24.3283691 C161.266275,23.9750145 160.843102,23.7983398 160.292969,23.7983398 Z M168.106934,22.9160156 C168.415854,22.9160156 168.693033,22.941406 168.938477,22.9921875 L168.79248,23.9697266 C168.504719,23.9062497 168.250815,23.8745117 168.030762,23.8745117 C167.467933,23.8745117 166.986574,24.1030251 166.58667,24.5600586 C166.186766,25.0170921 165.986816,25.5862596 165.986816,26.2675781 L165.986816,30 L164.933105,30 L164.933105,23.0429688 L165.802734,23.0429688 L165.92334,24.331543 L165.974121,24.331543 C166.23226,23.8787412 166.543292,23.5296236 166.907227,23.2841797 C167.271161,23.0387358 167.671059,22.9160156 168.106934,22.9160156 Z M176.854004,22.9287109 C177.768071,22.9287109 178.477943,23.2408009 178.983643,23.8649902 C179.489342,24.4891796 179.742188,25.3725529 179.742188,26.5151367 C179.742188,27.6577206 179.487226,28.5453256 178.977295,29.1779785 C178.467364,29.8106314 177.759607,30.1269531 176.854004,30.1269531 C176.401202,30.1269531 175.987551,30.0433765 175.613037,29.8762207 C175.238524,29.7090649 174.924318,29.4519874 174.67041,29.1049805 L174.594238,29.1049805 L174.37207,30 L173.616699,30 L173.616699,20.1230469 L174.67041,20.1230469 L174.67041,22.5224609 C174.67041,23.0598985 174.653483,23.5423156 174.619629,23.9697266 L174.67041,23.9697266 C175.161298,23.2757127 175.889155,22.9287109 176.854004,22.9287109 Z M176.70166,23.8110352 C175.982256,23.8110352 175.463869,24.0173319 175.146484,24.4299316 C174.8291,24.8425314 174.67041,25.5375928 174.67041,26.5151367 C174.67041,27.4926807 174.833332,28.1919738 175.15918,28.6130371 C175.485028,29.0341004 176.007646,29.2446289 176.727051,29.2446289 C177.374515,29.2446289 177.856932,29.00871 178.174316,28.5368652 C178.491701,28.0650204 178.650391,27.3868859 178.650391,26.5024414 C178.650391,25.5968379 178.491701,24.9218772 178.174316,24.4775391 C177.856932,24.0332009 177.366051,23.8110352 176.70166,23.8110352 Z M180.478516,23.0429688 L181.608398,23.0429688 L183.131836,27.0102539 C183.466148,27.9158574 183.673502,28.5696594 183.753906,28.9716797 L183.804688,28.9716797 C183.859701,28.7558583 183.975015,28.38664 184.150635,27.8640137 C184.326254,27.3413874 184.900711,25.7343885 185.874023,23.0429688 L187.003906,23.0429688 L184.01416,30.9648438 C183.717935,31.7477253 183.371991,32.3031396 182.976318,32.6311035 C182.580646,32.9590674 182.095055,33.1230469 181.519531,33.1230469 C181.197915,33.1230469 180.880535,33.0870772 180.567383,33.0151367 L180.567383,32.1708984 C180.800131,32.2216799 181.060383,32.2470703 181.348145,32.2470703 C182.071781,32.2470703 182.588052,31.8408244 182.896973,31.0283203 L183.28418,30.0380859 L180.478516,23.0429688 Z M193.757812,29.2573242 C193.944011,29.2573242 194.12386,29.2435711 194.297363,29.2160645 C194.470867,29.1885578 194.608398,29.1599936 194.709961,29.1303711 L194.709961,29.9365234 C194.595703,29.9915367 194.427491,30.0370278 194.205322,30.072998 C193.983153,30.1089683 193.783204,30.1269531 193.605469,30.1269531 C192.259759,30.1269531 191.586914,29.4181386 191.586914,28.0004883 L191.586914,23.8618164 L190.590332,23.8618164 L190.590332,23.3540039 L191.586914,22.9160156 L192.03125,21.4306641 L192.640625,21.4306641 L192.640625,23.0429688 L194.65918,23.0429688 L194.65918,23.8618164 L192.640625,23.8618164 L192.640625,27.9560547 C192.640625,28.3750021 192.740071,28.6966135 192.938965,28.9208984 C193.137859,29.1451834 193.410806,29.2573242 193.757812,29.2573242 Z M199.039062,30.1269531 C198.010737,30.1269531 197.199303,29.8138052 196.604736,29.1875 C196.01017,28.5611948 195.712891,27.6915746 195.712891,26.5786133 C195.712891,25.4571884 195.989011,24.5664096 196.54126,23.90625 C197.093509,23.2460904 197.835119,22.9160156 198.766113,22.9160156 C199.637862,22.9160156 200.327634,23.2027152 200.835449,23.776123 C201.343264,24.3495309 201.597168,25.1059523 201.597168,26.0454102 L201.597168,26.7119141 L196.804688,26.7119141 C196.825846,27.5286499 197.032143,28.1485981 197.423584,28.5717773 C197.815025,28.9949565 198.366207,29.206543 199.077148,29.206543 C199.826176,29.206543 200.566728,29.049969 201.298828,28.7368164 L201.298828,29.6762695 C200.92643,29.8370776 200.574139,29.9523922 200.241943,30.0222168 C199.909748,30.0920414 199.508791,30.1269531 199.039062,30.1269531 Z M198.753418,23.7983398 C198.194821,23.7983398 197.749432,23.9803042 197.417236,24.3442383 C197.085041,24.7081724 196.889323,25.2117481 196.830078,25.8549805 L200.467285,25.8549805 C200.467285,25.1905891 200.319175,24.6817238 200.022949,24.3283691 C199.726724,23.9750145 199.303551,23.7983398 198.753418,23.7983398 Z M205.069336,26.4389648 L202.650879,23.0429688 L203.850586,23.0429688 L205.685059,25.7089844 L207.513184,23.0429688 L208.700195,23.0429688 L206.281738,26.4389648 L208.827148,30 L207.633789,30 L205.685059,27.1816406 L203.717285,30 L202.523926,30 L205.069336,26.4389648 Z M212.45166,29.2573242 C212.637859,29.2573242 212.817707,29.2435711 212.991211,29.2160645 C213.164714,29.1885578 213.302246,29.1599936 213.403809,29.1303711 L213.403809,29.9365234 C213.28955,29.9915367 213.121339,30.0370278 212.89917,30.072998 C212.677001,30.1089683 212.477052,30.1269531 212.299316,30.1269531 C210.953607,30.1269531 210.280762,29.4181386 210.280762,28.0004883 L210.280762,23.8618164 L209.28418,23.8618164 L209.28418,23.3540039 L210.280762,22.9160156 L210.725098,21.4306641 L211.334473,21.4306641 L211.334473,23.0429688 L213.353027,23.0429688 L213.353027,23.8618164 L211.334473,23.8618164 L211.334473,27.9560547 C211.334473,28.3750021 211.433918,28.6966135 211.632812,28.9208984 C211.831707,29.1451834 212.104653,29.2573242 212.45166,29.2573242 Z M23.640625,48 L21,41.0429688 L22.1298828,41.0429688 L23.6279297,45.1689453 C23.966473,46.1337939 24.1653643,46.7600897 24.2246094,47.0478516 L24.2753906,47.0478516 C24.3219403,46.8235666 24.4689929,46.3591344 24.7165527,45.654541 C24.9641126,44.9499476 25.5195269,43.4127723 26.3828125,41.0429688 L27.5126953,41.0429688 L24.8720703,48 L23.640625,48 Z M34.6347656,44.5151367 C34.6347656,45.649257 34.349124,46.5347462 33.777832,47.1716309 C33.2065401,47.8085156 32.4173227,48.1269531 31.4101562,48.1269531 C30.7880828,48.1269531 30.2358423,47.9809585 29.753418,47.6889648 C29.2709937,47.3969712 28.8986016,46.9780301 28.6362305,46.4321289 C28.3738594,45.8862277 28.2426758,45.2472367 28.2426758,44.5151367 C28.2426758,43.3810165 28.5262016,42.4976431 29.0932617,41.8649902 C29.6603218,41.2323373 30.4474233,40.9160156 31.4545898,40.9160156 C32.427902,40.9160156 33.2012504,41.2397429 33.7746582,41.887207 C34.348066,42.5346712 34.6347656,43.410639 34.6347656,44.5151367 Z M29.3344727,44.5151367 C29.3344727,45.403813 29.5122053,46.0808896 29.8676758,46.5463867 C30.2231463,47.0118838 30.7457648,47.2446289 31.4355469,47.2446289 C32.125329,47.2446289 32.6490054,47.0129418 33.0065918,46.5495605 C33.3641782,46.0861793 33.5429688,45.4080448 33.5429688,44.5151367 C33.5429688,43.6306922 33.3641782,42.9589053 33.0065918,42.4997559 C32.6490054,42.0406064 32.1210972,41.8110352 31.4228516,41.8110352 C30.7330695,41.8110352 30.2125669,42.0374326 29.8613281,42.4902344 C29.5100894,42.9430361 29.3344727,43.6179968 29.3344727,44.5151367 Z M38.7290039,47.2573242 C38.9152028,47.2573242 39.0950512,47.2435711 39.2685547,47.2160645 C39.4420582,47.1885578 39.5795893,47.1599936 39.6811523,47.1303711 L39.6811523,47.9365234 C39.566894,47.9915367 39.3986828,48.0370278 39.1765137,48.072998 C38.9543446,48.1089683 38.7543954,48.1269531 38.5766602,48.1269531 C37.2309503,48.1269531 36.5581055,47.4181386 36.5581055,46.0004883 L36.5581055,41.8618164 L35.5615234,41.8618164 L35.5615234,41.3540039 L36.5581055,40.9160156 L37.0024414,39.4306641 L37.6118164,39.4306641 L37.6118164,41.0429688 L39.6303711,41.0429688 L39.6303711,41.8618164 L37.6118164,41.8618164 L37.6118164,45.9560547 C37.6118164,46.3750021 37.711262,46.6966135 37.9101562,46.9208984 C38.1090505,47.1451834 38.381997,47.2573242 38.7290039,47.2573242 Z M42.125,48 L41.0712891,48 L41.0712891,41.0429688 L42.125,41.0429688 L42.125,48 Z M40.9824219,39.1577148 C40.9824219,38.9165027 41.0416661,38.739828 41.1601562,38.6276855 C41.2786464,38.5155431 41.4267569,38.4594727 41.6044922,38.4594727 C41.7737639,38.4594727 41.9197585,38.516601 42.0424805,38.6308594 C42.1652024,38.7451178 42.2265625,38.9207345 42.2265625,39.1577148 C42.2265625,39.3946952 42.1652024,39.5713699 42.0424805,39.6877441 C41.9197585,39.8041184 41.7737639,39.8623047 41.6044922,39.8623047 C41.4267569,39.8623047 41.2786464,39.8041184 41.1601562,39.6877441 C41.0416661,39.5713699 40.9824219,39.3946952 40.9824219,39.1577148 Z M49.1201172,48 L49.1201172,43.4995117 C49.1201172,42.9324516 48.9910495,42.5092787 48.7329102,42.2299805 C48.4747708,41.9506822 48.0706408,41.8110352 47.5205078,41.8110352 C46.7926396,41.8110352 46.2594418,42.0078105 45.9208984,42.4013672 C45.5823551,42.7949238 45.4130859,43.4444942 45.4130859,44.3500977 L45.4130859,48 L44.359375,48 L44.359375,41.0429688 L45.2163086,41.0429688 L45.3876953,41.9951172 L45.4384766,41.9951172 C45.654298,41.652342 45.9568665,41.3868011 46.3461914,41.1984863 C46.7355163,41.0101716 47.1692684,40.9160156 47.6474609,40.9160156 C48.4853558,40.9160156 49.1158833,41.1180807 49.5390625,41.5222168 C49.9622417,41.9263529 50.1738281,42.5727495 50.1738281,43.4614258 L50.1738281,48 L49.1201172,48 Z M58.0322266,41.0429688 L58.0322266,41.7094727 L56.7436523,41.8618164 C56.8621425,42.0099291 56.9679357,42.2035307 57.0610352,42.442627 C57.1541346,42.6817232 57.2006836,42.9514959 57.2006836,43.2519531 C57.2006836,43.9332716 56.9679385,44.4770488 56.5024414,44.8833008 C56.0369443,45.2895528 55.3979533,45.4926758 54.5854492,45.4926758 C54.3780914,45.4926758 54.1834319,45.4757489 54.0014648,45.4418945 C53.5528949,45.6788749 53.3286133,45.9772117 53.3286133,46.3369141 C53.3286133,46.5273447 53.4069003,46.6680497 53.5634766,46.7590332 C53.7200529,46.8500167 53.9887676,46.8955078 54.3696289,46.8955078 L55.6010742,46.8955078 C56.3543332,46.8955078 56.9330221,47.0541976 57.3371582,47.371582 C57.7412943,47.6889664 57.9433594,48.1502248 57.9433594,48.7553711 C57.9433594,49.5255572 57.6344432,50.1127096 57.0166016,50.5168457 C56.3987599,50.9209818 55.4974018,51.1230469 54.3125,51.1230469 C53.4026647,51.1230469 52.7012557,50.9537777 52.208252,50.6152344 C51.7152482,50.276691 51.46875,49.7985057 51.46875,49.1806641 C51.46875,48.7574849 51.6041653,48.3914403 51.875,48.0825195 C52.1458347,47.7735987 52.5266903,47.5641282 53.0175781,47.4541016 C52.8398429,47.3736975 52.6906744,47.2488615 52.5700684,47.0795898 C52.4494623,46.9103182 52.3891602,46.7135428 52.3891602,46.4892578 C52.3891602,46.2353503 52.4568678,46.0131845 52.5922852,45.8227539 C52.7277025,45.6323233 52.9414048,45.4482431 53.2333984,45.2705078 C52.8736961,45.1223951 52.5806489,44.8706072 52.354248,44.5151367 C52.1278472,44.1596662 52.0146484,43.7534203 52.0146484,43.2963867 C52.0146484,42.5346642 52.2431618,41.9475118 52.7001953,41.5349121 C53.1572288,41.1223124 53.8046833,40.9160156 54.6425781,40.9160156 C55.0065122,40.9160156 55.3344712,40.9583329 55.6264648,41.0429688 L58.0322266,41.0429688 Z M52.484375,49.1679688 C52.484375,49.5445982 52.6430648,49.8302399 52.9604492,50.0249023 C53.2778336,50.2195648 53.7327444,50.3168945 54.3251953,50.3168945 C55.2096398,50.3168945 55.8644998,50.184653 56.2897949,49.920166 C56.71509,49.655679 56.9277344,49.29704 56.9277344,48.8442383 C56.9277344,48.4676088 56.8113618,48.2062996 56.5786133,48.0603027 C56.3458647,47.9143059 55.9078808,47.8413086 55.2646484,47.8413086 L54.0014648,47.8413086 C53.5232723,47.8413086 53.1508802,47.9555653 52.8842773,48.184082 C52.6176744,48.4125988 52.484375,48.7405578 52.484375,49.1679688 Z M53.0556641,43.2709961 C53.0556641,43.7576522 53.1931952,44.1258126 53.4682617,44.3754883 C53.7433282,44.625164 54.1262996,44.75 54.6171875,44.75 C55.645513,44.75 56.159668,44.250656 56.159668,43.2519531 C56.159668,42.2067005 55.6391654,41.684082 54.5981445,41.684082 C54.1030249,41.684082 53.7221693,41.8173815 53.4555664,42.0839844 C53.1889635,42.3505873 53.0556641,42.7462539 53.0556641,43.2709961 Z M67.1157227,48 L66.90625,47.0097656 L66.8554688,47.0097656 C66.5084618,47.4456402 66.162518,47.7408033 65.817627,47.8952637 C65.4727359,48.0497241 65.0421575,48.1269531 64.5258789,48.1269531 C63.8360968,48.1269531 63.2954935,47.9492205 62.9040527,47.59375 C62.512612,47.2382795 62.3168945,46.7325879 62.3168945,46.0766602 C62.3168945,44.6717052 63.4404185,43.9353845 65.6875,43.8676758 L66.8681641,43.8295898 L66.8681641,43.3979492 C66.8681641,42.8520481 66.7507336,42.4489759 66.5158691,42.1887207 C66.2810047,41.9284655 65.9054388,41.7983398 65.3891602,41.7983398 C64.8094047,41.7983398 64.1534867,41.9760724 63.4213867,42.331543 L63.0976562,41.5253906 C63.4404314,41.3391918 63.8159973,41.1931971 64.2243652,41.0874023 C64.6327332,40.9816075 65.0421529,40.9287109 65.4526367,40.9287109 C66.2820679,40.9287109 66.8967265,41.1127911 67.2966309,41.480957 C67.6965352,41.8491229 67.8964844,42.4394491 67.8964844,43.2519531 L67.8964844,48 L67.1157227,48 Z M64.7353516,47.2573242 C65.3912793,47.2573242 65.9064923,47.0774758 66.2810059,46.7177734 C66.6555195,46.3580711 66.8427734,45.8544954 66.8427734,45.2070312 L66.8427734,44.5786133 L65.7890625,44.6230469 C64.9511677,44.6526694 64.3470884,44.7827951 63.9768066,45.0134277 C63.6065248,45.2440604 63.4213867,45.6026994 63.4213867,46.0893555 C63.4213867,46.4702167 63.5367013,46.7600902 63.767334,46.9589844 C63.9979666,47.1578786 64.3206359,47.2573242 64.7353516,47.2573242 Z M74.828125,48 L74.828125,43.4995117 C74.828125,42.9324516 74.6990573,42.5092787 74.440918,42.2299805 C74.1827787,41.9506822 73.7786486,41.8110352 73.2285156,41.8110352 C72.5006474,41.8110352 71.9674496,42.0078105 71.6289062,42.4013672 C71.2903629,42.7949238 71.1210938,43.4444942 71.1210938,44.3500977 L71.1210938,48 L70.0673828,48 L70.0673828,41.0429688 L70.9243164,41.0429688 L71.0957031,41.9951172 L71.1464844,41.9951172 C71.3623058,41.652342 71.6648744,41.3868011 72.0541992,41.1984863 C72.4435241,41.0101716 72.8772763,40.9160156 73.3554688,40.9160156 C74.1933636,40.9160156 74.8238911,41.1180807 75.2470703,41.5222168 C75.6702495,41.9263529 75.8818359,42.5727495 75.8818359,43.4614258 L75.8818359,48 L74.828125,48 Z M82.7817383,47.0668945 L82.7246094,47.0668945 C82.2379533,47.7736038 81.510096,48.1269531 80.5410156,48.1269531 C79.6311803,48.1269531 78.9234238,47.8159211 78.4177246,47.1938477 C77.9120255,46.5717742 77.6591797,45.687343 77.6591797,44.5405273 C77.6591797,43.3937117 77.9130834,42.5029329 78.4208984,41.8681641 C78.9287135,41.2333953 79.6354121,40.9160156 80.5410156,40.9160156 C81.4847052,40.9160156 82.2083308,41.2587856 82.7119141,41.9443359 L82.7944336,41.9443359 L82.75,41.4428711 L82.7246094,40.9541016 L82.7246094,38.1230469 L83.7783203,38.1230469 L83.7783203,48 L82.9213867,48 L82.7817383,47.0668945 Z M80.6743164,47.2446289 C81.393721,47.2446289 81.9152816,47.0489115 82.2390137,46.6574707 C82.5627458,46.2660299 82.7246094,45.6344445 82.7246094,44.7626953 L82.7246094,44.5405273 C82.7246094,43.5545198 82.5606299,42.8509949 82.232666,42.4299316 C81.9047021,42.0088683 81.3810257,41.7983398 80.6616211,41.7983398 C80.0437795,41.7983398 79.5708838,42.0384904 79.2429199,42.5187988 C78.914956,42.9991072 78.7509766,43.6772417 78.7509766,44.5532227 C78.7509766,45.441899 78.9138981,46.1126279 79.2397461,46.5654297 C79.5655941,47.0182314 80.0437794,47.2446289 80.6743164,47.2446289 Z M91.6367188,47.2573242 C91.8229176,47.2573242 92.0027661,47.2435711 92.1762695,47.2160645 C92.349773,47.1885578 92.4873042,47.1599936 92.5888672,47.1303711 L92.5888672,47.9365234 C92.4746088,47.9915367 92.3063976,48.0370278 92.0842285,48.072998 C91.8620594,48.1089683 91.6621103,48.1269531 91.484375,48.1269531 C90.1386651,48.1269531 89.4658203,47.4181386 89.4658203,46.0004883 L89.4658203,41.8618164 L88.4692383,41.8618164 L88.4692383,41.3540039 L89.4658203,40.9160156 L89.9101562,39.4306641 L90.5195312,39.4306641 L90.5195312,41.0429688 L92.5380859,41.0429688 L92.5380859,41.8618164 L90.5195312,41.8618164 L90.5195312,45.9560547 C90.5195312,46.3750021 90.6189769,46.6966135 90.8178711,46.9208984 C91.0167653,47.1451834 91.2897118,47.2573242 91.6367188,47.2573242 Z M96.9179688,48.1269531 C95.8896433,48.1269531 95.0782094,47.8138052 94.4836426,47.1875 C93.8890758,46.5611948 93.5917969,45.6915746 93.5917969,44.5786133 C93.5917969,43.4571884 93.8679172,42.5664096 94.420166,41.90625 C94.9724149,41.2460904 95.7140253,40.9160156 96.6450195,40.9160156 C97.5167687,40.9160156 98.2065404,41.2027152 98.7143555,41.776123 C99.2221705,42.3495309 99.4760742,43.1059523 99.4760742,44.0454102 L99.4760742,44.7119141 L94.6835938,44.7119141 C94.7047527,45.5286499 94.9110495,46.1485981 95.3024902,46.5717773 C95.693931,46.9949565 96.2451136,47.206543 96.9560547,47.206543 C97.7050819,47.206543 98.4456344,47.049969 99.1777344,46.7368164 L99.1777344,47.6762695 C98.8053367,47.8370776 98.4530453,47.9523922 98.1208496,48.0222168 C97.7886539,48.0920414 97.3876977,48.1269531 96.9179688,48.1269531 Z M96.6323242,41.7983398 C96.0737277,41.7983398 95.6283382,41.9803042 95.2961426,42.3442383 C94.9639469,42.7081724 94.7682295,43.2117481 94.7089844,43.8549805 L98.3461914,43.8549805 C98.3461914,43.1905891 98.1980809,42.6817238 97.9018555,42.3283691 C97.60563,41.9750145 97.1824572,41.7983398 96.6323242,41.7983398 Z M105.760254,46.1020508 C105.760254,46.749515 105.519045,47.2488589 105.036621,47.6000977 C104.554197,47.9513364 103.87712,48.1269531 103.005371,48.1269531 C102.08284,48.1269531 101.363447,47.9809585 100.847168,47.6889648 L100.847168,46.7114258 C101.18148,46.8806975 101.540119,47.0139969 101.923096,47.1113281 C102.306073,47.2086593 102.675291,47.2573242 103.030762,47.2573242 C103.580895,47.2573242 104.004068,47.1695159 104.300293,46.9938965 C104.596518,46.8182771 104.744629,46.5506203 104.744629,46.190918 C104.744629,45.9200833 104.627198,45.6883961 104.392334,45.4958496 C104.15747,45.3033031 103.699385,45.0758477 103.018066,44.8134766 C102.370602,44.5722644 101.910402,44.3617359 101.637451,44.1818848 C101.364501,44.0020336 101.161378,43.7978527 101.028076,43.5693359 C100.894775,43.3408192 100.828125,43.0678727 100.828125,42.7504883 C100.828125,42.1834282 101.058754,41.7359229 101.52002,41.407959 C101.981285,41.0799951 102.613928,40.9160156 103.417969,40.9160156 C104.166996,40.9160156 104.899085,41.0683579 105.614258,41.3730469 L105.239746,42.2299805 C104.5415,41.9422186 103.908857,41.7983398 103.341797,41.7983398 C102.842445,41.7983398 102.465822,41.8766268 102.211914,42.0332031 C101.958007,42.1897794 101.831055,42.4055976 101.831055,42.6806641 C101.831055,42.8668629 101.878662,43.0255527 101.973877,43.1567383 C102.069092,43.2879238 102.222492,43.4127598 102.434082,43.53125 C102.645672,43.6497402 103.051918,43.8211252 103.652832,44.0454102 C104.478031,44.3458674 105.035562,44.648436 105.325439,44.953125 C105.615317,45.257814 105.760254,45.6407855 105.760254,46.1020508 Z M109.721191,47.2573242 C109.90739,47.2573242 110.087239,47.2435711 110.260742,47.2160645 C110.434246,47.1885578 110.571777,47.1599936 110.67334,47.1303711 L110.67334,47.9365234 C110.559081,47.9915367 110.39087,48.0370278 110.168701,48.072998 C109.946532,48.1089683 109.746583,48.1269531 109.568848,48.1269531 C108.223138,48.1269531 107.550293,47.4181386 107.550293,46.0004883 L107.550293,41.8618164 L106.553711,41.8618164 L106.553711,41.3540039 L107.550293,40.9160156 L107.994629,39.4306641 L108.604004,39.4306641 L108.604004,41.0429688 L110.622559,41.0429688 L110.622559,41.8618164 L108.604004,41.8618164 L108.604004,45.9560547 C108.604004,46.3750021 108.70345,46.6966135 108.902344,46.9208984 C109.101238,47.1451834 109.374184,47.2573242 109.721191,47.2573242 Z M118.677734,48.1269531 C118.224933,48.1269531 117.811281,48.0433765 117.436768,47.8762207 C117.062254,47.7090649 116.748048,47.4519874 116.494141,47.1049805 L116.417969,47.1049805 C116.46875,47.5112325 116.494141,47.8963198 116.494141,48.2602539 L116.494141,51.1230469 L115.44043,51.1230469 L115.44043,41.0429688 L116.297363,41.0429688 L116.443359,41.9951172 L116.494141,41.9951172 C116.764975,41.6142559 117.080239,41.3391936 117.439941,41.1699219 C117.799644,41.0006502 118.212237,40.9160156 118.677734,40.9160156 C119.600265,40.9160156 120.312253,41.2312794 120.813721,41.8618164 C121.315188,42.4923534 121.565918,43.3767847 121.565918,44.5151367 C121.565918,45.6577206 121.310956,46.5453256 120.801025,47.1779785 C120.291094,47.8106314 119.583338,48.1269531 118.677734,48.1269531 Z M118.525391,41.8110352 C117.81445,41.8110352 117.300295,42.0078105 116.98291,42.4013672 C116.665526,42.7949238 116.502604,43.4212197 116.494141,44.2802734 L116.494141,44.5151367 C116.494141,45.4926807 116.657062,46.1919738 116.98291,46.6130371 C117.308758,47.0341004 117.831377,47.2446289 118.550781,47.2446289 C119.151696,47.2446289 119.622476,47.0013045 119.963135,46.5146484 C120.303794,46.0279924 120.474121,45.3572634 120.474121,44.5024414 C120.474121,43.634924 120.303794,42.9694847 119.963135,42.5061035 C119.622476,42.0427223 119.143232,41.8110352 118.525391,41.8110352 Z M127.685059,48 L127.475586,47.0097656 L127.424805,47.0097656 C127.077798,47.4456402 126.731854,47.7408033 126.386963,47.8952637 C126.042072,48.0497241 125.611493,48.1269531 125.095215,48.1269531 C124.405433,48.1269531 123.864829,47.9492205 123.473389,47.59375 C123.081948,47.2382795 122.88623,46.7325879 122.88623,46.0766602 C122.88623,44.6717052 124.009754,43.9353845 126.256836,43.8676758 L127.4375,43.8295898 L127.4375,43.3979492 C127.4375,42.8520481 127.32007,42.4489759 127.085205,42.1887207 C126.850341,41.9284655 126.474775,41.7983398 125.958496,41.7983398 C125.378741,41.7983398 124.722823,41.9760724 123.990723,42.331543 L123.666992,41.5253906 C124.009767,41.3391918 124.385333,41.1931971 124.793701,41.0874023 C125.202069,40.9816075 125.611489,40.9287109 126.021973,40.9287109 C126.851404,40.9287109 127.466062,41.1127911 127.865967,41.480957 C128.265871,41.8491229 128.46582,42.4394491 128.46582,43.2519531 L128.46582,48 L127.685059,48 Z M125.304688,47.2573242 C125.960615,47.2573242 126.475828,47.0774758 126.850342,46.7177734 C127.224855,46.3580711 127.412109,45.8544954 127.412109,45.2070312 L127.412109,44.5786133 L126.358398,44.6230469 C125.520504,44.6526694 124.916424,44.7827951 124.546143,45.0134277 C124.175861,45.2440604 123.990723,45.6026994 123.990723,46.0893555 C123.990723,46.4702167 124.106037,46.7600902 124.33667,46.9589844 C124.567303,47.1578786 124.889972,47.2573242 125.304688,47.2573242 Z M133.810547,40.9160156 C134.119468,40.9160156 134.396646,40.941406 134.64209,40.9921875 L134.496094,41.9697266 C134.208332,41.9062497 133.954428,41.8745117 133.734375,41.8745117 C133.171547,41.8745117 132.690188,42.1030251 132.290283,42.5600586 C131.890379,43.0170921 131.69043,43.5862596 131.69043,44.2675781 L131.69043,48 L130.636719,48 L130.636719,41.0429688 L131.506348,41.0429688 L131.626953,42.331543 L131.677734,42.331543 C131.935874,41.8787412 132.246906,41.5296236 132.61084,41.2841797 C132.974774,41.0387358 133.374672,40.9160156 133.810547,40.9160156 Z M138.19043,47.2573242 C138.376629,47.2573242 138.556477,47.2435711 138.72998,47.2160645 C138.903484,47.1885578 139.041015,47.1599936 139.142578,47.1303711 L139.142578,47.9365234 C139.02832,47.9915367 138.860109,48.0370278 138.637939,48.072998 C138.41577,48.1089683 138.215821,48.1269531 138.038086,48.1269531 C136.692376,48.1269531 136.019531,47.4181386 136.019531,46.0004883 L136.019531,41.8618164 L135.022949,41.8618164 L135.022949,41.3540039 L136.019531,40.9160156 L136.463867,39.4306641 L137.073242,39.4306641 L137.073242,41.0429688 L139.091797,41.0429688 L139.091797,41.8618164 L137.073242,41.8618164 L137.073242,45.9560547 C137.073242,46.3750021 137.172688,46.6966135 137.371582,46.9208984 C137.570476,47.1451834 137.843423,47.2573242 138.19043,47.2573242 Z M141.586426,48 L140.532715,48 L140.532715,41.0429688 L141.586426,41.0429688 L141.586426,48 Z M140.443848,39.1577148 C140.443848,38.9165027 140.503092,38.739828 140.621582,38.6276855 C140.740072,38.5155431 140.888183,38.4594727 141.065918,38.4594727 C141.23519,38.4594727 141.381184,38.516601 141.503906,38.6308594 C141.626628,38.7451178 141.687988,38.9207345 141.687988,39.1577148 C141.687988,39.3946952 141.626628,39.5713699 141.503906,39.6877441 C141.381184,39.8041184 141.23519,39.8623047 141.065918,39.8623047 C140.888183,39.8623047 140.740072,39.8041184 140.621582,39.6877441 C140.503092,39.5713699 140.443848,39.3946952 140.443848,39.1577148 Z M146.601074,48.1269531 C145.593908,48.1269531 144.814212,47.816979 144.261963,47.1970215 C143.709714,46.577064 143.433594,45.7000382 143.433594,44.565918 C143.433594,43.4021752 143.713946,42.5029329 144.274658,41.8681641 C144.835371,41.2333953 145.634109,40.9160156 146.670898,40.9160156 C147.00521,40.9160156 147.339517,40.9519853 147.673828,41.0239258 C148.00814,41.0958662 148.270507,41.1805008 148.460938,41.277832 L148.137207,42.1728516 C147.904458,42.0797521 147.650555,42.0025231 147.375488,41.9411621 C147.100422,41.8798011 146.857097,41.8491211 146.645508,41.8491211 C145.232089,41.8491211 144.525391,42.7504793 144.525391,44.5532227 C144.525391,45.4080446 144.697834,46.0639626 145.042725,46.5209961 C145.387616,46.9780296 145.898597,47.206543 146.575684,47.206543 C147.155439,47.206543 147.749997,47.081707 148.359375,46.8320312 L148.359375,47.7651367 C147.893878,48.0063489 147.307783,48.1269531 146.601074,48.1269531 Z M151.063477,48 L150.009766,48 L150.009766,41.0429688 L151.063477,41.0429688 L151.063477,48 Z M149.920898,39.1577148 C149.920898,38.9165027 149.980143,38.739828 150.098633,38.6276855 C150.217123,38.5155431 150.365233,38.4594727 150.542969,38.4594727 C150.71224,38.4594727 150.858235,38.516601 150.980957,38.6308594 C151.103679,38.7451178 151.165039,38.9207345 151.165039,39.1577148 C151.165039,39.3946952 151.103679,39.5713699 150.980957,39.6877441 C150.858235,39.8041184 150.71224,39.8623047 150.542969,39.8623047 C150.365233,39.8623047 150.217123,39.8041184 150.098633,39.6877441 C149.980143,39.5713699 149.920898,39.3946952 149.920898,39.1577148 Z M156.535156,48.1269531 C156.082355,48.1269531 155.668703,48.0433765 155.294189,47.8762207 C154.919676,47.7090649 154.60547,47.4519874 154.351562,47.1049805 L154.275391,47.1049805 C154.326172,47.5112325 154.351562,47.8963198 154.351562,48.2602539 L154.351562,51.1230469 L153.297852,51.1230469 L153.297852,41.0429688 L154.154785,41.0429688 L154.300781,41.9951172 L154.351562,41.9951172 C154.622397,41.6142559 154.937661,41.3391936 155.297363,41.1699219 C155.657066,41.0006502 156.069659,40.9160156 156.535156,40.9160156 C157.457687,40.9160156 158.169675,41.2312794 158.671143,41.8618164 C159.17261,42.4923534 159.42334,43.3767847 159.42334,44.5151367 C159.42334,45.6577206 159.168378,46.5453256 158.658447,47.1779785 C158.148516,47.8106314 157.44076,48.1269531 156.535156,48.1269531 Z M156.382812,41.8110352 C155.671871,41.8110352 155.157716,42.0078105 154.840332,42.4013672 C154.522948,42.7949238 154.360026,43.4212197 154.351562,44.2802734 L154.351562,44.5151367 C154.351562,45.4926807 154.514484,46.1919738 154.840332,46.6130371 C155.16618,47.0341004 155.688798,47.2446289 156.408203,47.2446289 C157.009118,47.2446289 157.479897,47.0013045 157.820557,46.5146484 C158.161216,46.0279924 158.331543,45.3572634 158.331543,44.5024414 C158.331543,43.634924 158.161216,42.9694847 157.820557,42.5061035 C157.479897,42.0427223 157.000654,41.8110352 156.382812,41.8110352 Z M165.54248,48 L165.333008,47.0097656 L165.282227,47.0097656 C164.93522,47.4456402 164.589276,47.7408033 164.244385,47.8952637 C163.899494,48.0497241 163.468915,48.1269531 162.952637,48.1269531 C162.262855,48.1269531 161.722251,47.9492205 161.330811,47.59375 C160.93937,47.2382795 160.743652,46.7325879 160.743652,46.0766602 C160.743652,44.6717052 161.867176,43.9353845 164.114258,43.8676758 L165.294922,43.8295898 L165.294922,43.3979492 C165.294922,42.8520481 165.177491,42.4489759 164.942627,42.1887207 C164.707762,41.9284655 164.332197,41.7983398 163.815918,41.7983398 C163.236162,41.7983398 162.580245,41.9760724 161.848145,42.331543 L161.524414,41.5253906 C161.867189,41.3391918 162.242755,41.1931971 162.651123,41.0874023 C163.059491,40.9816075 163.468911,40.9287109 163.879395,40.9287109 C164.708826,40.9287109 165.323484,41.1127911 165.723389,41.480957 C166.123293,41.8491229 166.323242,42.4394491 166.323242,43.2519531 L166.323242,48 L165.54248,48 Z M163.162109,47.2573242 C163.818037,47.2573242 164.33325,47.0774758 164.707764,46.7177734 C165.082277,46.3580711 165.269531,45.8544954 165.269531,45.2070312 L165.269531,44.5786133 L164.21582,44.6230469 C163.377925,44.6526694 162.773846,44.7827951 162.403564,45.0134277 C162.033283,45.2440604 161.848145,45.6026994 161.848145,46.0893555 C161.848145,46.4702167 161.963459,46.7600902 162.194092,46.9589844 C162.424724,47.1578786 162.747394,47.2573242 163.162109,47.2573242 Z M173.254883,48 L173.254883,43.4995117 C173.254883,42.9324516 173.125815,42.5092787 172.867676,42.2299805 C172.609536,41.9506822 172.205406,41.8110352 171.655273,41.8110352 C170.927405,41.8110352 170.394207,42.0078105 170.055664,42.4013672 C169.717121,42.7949238 169.547852,43.4444942 169.547852,44.3500977 L169.547852,48 L168.494141,48 L168.494141,41.0429688 L169.351074,41.0429688 L169.522461,41.9951172 L169.573242,41.9951172 C169.789064,41.652342 170.091632,41.3868011 170.480957,41.1984863 C170.870282,41.0101716 171.304034,40.9160156 171.782227,40.9160156 C172.620121,40.9160156 173.250649,41.1180807 173.673828,41.5222168 C174.097007,41.9263529 174.308594,42.5727495 174.308594,43.4614258 L174.308594,48 L173.254883,48 Z M178.720215,47.2573242 C178.906414,47.2573242 179.086262,47.2435711 179.259766,47.2160645 C179.433269,47.1885578 179.5708,47.1599936 179.672363,47.1303711 L179.672363,47.9365234 C179.558105,47.9915367 179.389894,48.0370278 179.167725,48.072998 C178.945556,48.1089683 178.745606,48.1269531 178.567871,48.1269531 C177.222161,48.1269531 176.549316,47.4181386 176.549316,46.0004883 L176.549316,41.8618164 L175.552734,41.8618164 L175.552734,41.3540039 L176.549316,40.9160156 L176.993652,39.4306641 L177.603027,39.4306641 L177.603027,41.0429688 L179.621582,41.0429688 L179.621582,41.8618164 L177.603027,41.8618164 L177.603027,45.9560547 C177.603027,46.3750021 177.702473,46.6966135 177.901367,46.9208984 C178.100261,47.1451834 178.373208,47.2573242 178.720215,47.2573242 Z M185.550293,46.1020508 C185.550293,46.749515 185.309084,47.2488589 184.82666,47.6000977 C184.344236,47.9513364 183.667159,48.1269531 182.79541,48.1269531 C181.87288,48.1269531 181.153486,47.9809585 180.637207,47.6889648 L180.637207,46.7114258 C180.971519,46.8806975 181.330158,47.0139969 181.713135,47.1113281 C182.096112,47.2086593 182.46533,47.2573242 182.820801,47.2573242 C183.370934,47.2573242 183.794107,47.1695159 184.090332,46.9938965 C184.386557,46.8182771 184.534668,46.5506203 184.534668,46.190918 C184.534668,45.9200833 184.417238,45.6883961 184.182373,45.4958496 C183.947509,45.3033031 183.489424,45.0758477 182.808105,44.8134766 C182.160641,44.5722644 181.700441,44.3617359 181.42749,44.1818848 C181.15454,44.0020336 180.951417,43.7978527 180.818115,43.5693359 C180.684814,43.3408192 180.618164,43.0678727 180.618164,42.7504883 C180.618164,42.1834282 180.848793,41.7359229 181.310059,41.407959 C181.771324,41.0799951 182.403967,40.9160156 183.208008,40.9160156 C183.957035,40.9160156 184.689124,41.0683579 185.404297,41.3730469 L185.029785,42.2299805 C184.331539,41.9422186 183.698896,41.7983398 183.131836,41.7983398 C182.632484,41.7983398 182.255861,41.8766268 182.001953,42.0332031 C181.748046,42.1897794 181.621094,42.4055976 181.621094,42.6806641 C181.621094,42.8668629 181.668701,43.0255527 181.763916,43.1567383 C181.859131,43.2879238 182.012531,43.4127598 182.224121,43.53125 C182.435711,43.6497402 182.841957,43.8211252 183.442871,44.0454102 C184.268071,44.3458674 184.825601,44.648436 185.115479,44.953125 C185.405356,45.257814 185.550293,45.6407855 185.550293,46.1020508 Z M188.108398,38.7197266 L188.203613,38.859375 C188.093587,39.2825542 187.934897,39.7744926 187.727539,40.3352051 C187.520181,40.8959175 187.304363,41.4174781 187.080078,41.8999023 L186.305664,41.8999023 C186.60189,40.6938416 186.817708,39.6337936 186.953125,38.7197266 L188.108398,38.7197266 Z M23.1582031,62.4389648 C23.3401702,62.1808255 23.6173484,61.8422873 23.9897461,61.4233398 L26.2368164,59.0429688 L27.4873047,59.0429688 L24.6689453,62.0073242 L27.684082,66 L26.4082031,66 L23.9516602,62.7119141 L23.1582031,63.3974609 L23.1582031,66 L22.1171875,66 L22.1171875,56.1230469 L23.1582031,56.1230469 L23.1582031,61.3598633 C23.1582031,61.5926118 23.1412762,61.9523088 23.1074219,62.4389648 L23.1582031,62.4389648 Z M33.7016602,66 L33.7016602,61.4995117 C33.7016602,60.9324516 33.5725924,60.5092787 33.3144531,60.2299805 C33.0563138,59.9506822 32.6521837,59.8110352 32.1020508,59.8110352 C31.3741826,59.8110352 30.8409848,60.0078105 30.5024414,60.4013672 C30.163898,60.7949238 29.9946289,61.4444942 29.9946289,62.3500977 L29.9946289,66 L28.940918,66 L28.940918,59.0429688 L29.7978516,59.0429688 L29.9692383,59.9951172 L30.0200195,59.9951172 C30.2358409,59.652342 30.5384095,59.3868011 30.9277344,59.1984863 C31.3170592,59.0101716 31.7508114,58.9160156 32.2290039,58.9160156 C33.0668987,58.9160156 33.6974263,59.1180807 34.1206055,59.5222168 C34.5437847,59.9263529 34.7553711,60.5727495 34.7553711,61.4614258 L34.7553711,66 L33.7016602,66 Z M42.9248047,62.5151367 C42.9248047,63.649257 42.639163,64.5347462 42.0678711,65.1716309 C41.4965792,65.8085156 40.7073618,66.1269531 39.7001953,66.1269531 C39.0781219,66.1269531 38.5258813,65.9809585 38.043457,65.6889648 C37.5610327,65.3969712 37.1886406,64.9780301 36.9262695,64.4321289 C36.6638984,63.8862277 36.5327148,63.2472367 36.5327148,62.5151367 C36.5327148,61.3810165 36.8162407,60.4976431 37.3833008,59.8649902 C37.9503609,59.2323373 38.7374624,58.9160156 39.7446289,58.9160156 C40.7179411,58.9160156 41.4912895,59.2397429 42.0646973,59.887207 C42.6381051,60.5346712 42.9248047,61.410639 42.9248047,62.5151367 Z M37.6245117,62.5151367 C37.6245117,63.403813 37.8022443,64.0808896 38.1577148,64.5463867 C38.5131854,65.0118838 39.0358038,65.2446289 39.7255859,65.2446289 C40.415368,65.2446289 40.9390444,65.0129418 41.2966309,64.5495605 C41.6542173,64.0861793 41.8330078,63.4080448 41.8330078,62.5151367 C41.8330078,61.6306922 41.6542173,60.9589053 41.2966309,60.4997559 C40.9390444,60.0406064 40.4111363,59.8110352 39.7128906,59.8110352 C39.0231085,59.8110352 38.5026059,60.0374326 38.1513672,60.4902344 C37.8001285,60.9430361 37.6245117,61.6179968 37.6245117,62.5151367 Z M50.453125,66 L49.1772461,61.918457 C49.096842,61.6687813 48.9466157,61.1017297 48.7265625,60.2172852 L48.6757812,60.2172852 C48.5065096,60.9578488 48.3583991,61.5291321 48.2314453,61.9311523 L46.9174805,66 L45.6987305,66 L43.8007812,59.0429688 L44.9052734,59.0429688 C45.3538434,60.7906988 45.6955555,62.1215775 45.9304199,63.0356445 C46.1652844,63.9497116 46.2996418,64.5654281 46.3334961,64.8828125 L46.3842773,64.8828125 C46.4308271,64.6416004 46.5059402,64.3295104 46.6096191,63.9465332 C46.713298,63.563556 46.8032223,63.2599295 46.8793945,63.0356445 L48.1552734,59.0429688 L49.2978516,59.0429688 L50.5419922,63.0356445 C50.7789725,63.7635128 50.9397782,64.3749975 51.0244141,64.8701172 L51.0751953,64.8701172 C51.0921225,64.7177727 51.1376136,64.4829117 51.2116699,64.1655273 C51.2857263,63.8481429 51.726884,62.1406405 52.5351562,59.0429688 L53.6269531,59.0429688 L51.7036133,66 L50.453125,66 Z M55.9375,66 L54.8837891,66 L54.8837891,56.1230469 L55.9375,56.1230469 L55.9375,66 Z M61.1108398,66.1269531 C60.0825144,66.1269531 59.2710804,65.8138052 58.6765137,65.1875 C58.0819469,64.5611948 57.784668,63.6915746 57.784668,62.5786133 C57.784668,61.4571884 58.0607883,60.5664096 58.6130371,59.90625 C59.165286,59.2460904 59.9068964,58.9160156 60.8378906,58.9160156 C61.7096398,58.9160156 62.3994115,59.2027152 62.9072266,59.776123 C63.4150416,60.3495309 63.6689453,61.1059523 63.6689453,62.0454102 L63.6689453,62.7119141 L58.8764648,62.7119141 C58.8976238,63.5286499 59.1039206,64.1485981 59.4953613,64.5717773 C59.8868021,64.9949565 60.4379847,65.206543 61.1489258,65.206543 C61.897953,65.206543 62.6385055,65.049969 63.3706055,64.7368164 L63.3706055,65.6762695 C62.9982078,65.8370776 62.6459164,65.9523922 62.3137207,66.0222168 C61.981525,66.0920414 61.5805688,66.1269531 61.1108398,66.1269531 Z M60.8251953,59.7983398 C60.2665988,59.7983398 59.8212093,59.9803042 59.4890137,60.3442383 C59.156818,60.7081724 58.9611006,61.2117481 58.9018555,61.8549805 L62.5390625,61.8549805 C62.5390625,61.1905891 62.390952,60.6817238 62.0947266,60.3283691 C61.7985011,59.9750145 61.3753283,59.7983398 60.8251953,59.7983398 Z M70.2006836,65.0668945 L70.1435547,65.0668945 C69.6568986,65.7736038 68.9290413,66.1269531 67.9599609,66.1269531 C67.0501257,66.1269531 66.3423691,65.8159211 65.8366699,65.1938477 C65.3309708,64.5717742 65.078125,63.687343 65.078125,62.5405273 C65.078125,61.3937117 65.3320287,60.5029329 65.8398438,59.8681641 C66.3476588,59.2333953 67.0543575,58.9160156 67.9599609,58.9160156 C68.9036506,58.9160156 69.6272761,59.2587856 70.1308594,59.9443359 L70.2133789,59.9443359 L70.1689453,59.4428711 L70.1435547,58.9541016 L70.1435547,56.1230469 L71.1972656,56.1230469 L71.1972656,66 L70.340332,66 L70.2006836,65.0668945 Z M68.0932617,65.2446289 C68.8126664,65.2446289 69.3342269,65.0489115 69.657959,64.6574707 C69.9816911,64.2660299 70.1435547,63.6344445 70.1435547,62.7626953 L70.1435547,62.5405273 C70.1435547,61.5545198 69.9795752,60.8509949 69.6516113,60.4299316 C69.3236474,60.0088683 68.799971,59.7983398 68.0805664,59.7983398 C67.4627248,59.7983398 66.9898291,60.0384904 66.6618652,60.5187988 C66.3339014,60.9991072 66.1699219,61.6772417 66.1699219,62.5532227 C66.1699219,63.441899 66.3328434,64.1126279 66.6586914,64.5654297 C66.9845394,65.0182314 67.4627247,65.2446289 68.0932617,65.2446289 Z M79.1254883,59.0429688 L79.1254883,59.7094727 L77.8369141,59.8618164 C77.9554042,60.0099291 78.0611975,60.2035307 78.1542969,60.442627 C78.2473963,60.6817232 78.2939453,60.9514959 78.2939453,61.2519531 C78.2939453,61.9332716 78.0612002,62.4770488 77.5957031,62.8833008 C77.130206,63.2895528 76.491215,63.4926758 75.6787109,63.4926758 C75.4713531,63.4926758 75.2766936,63.4757489 75.0947266,63.4418945 C74.6461566,63.6788749 74.421875,63.9772117 74.421875,64.3369141 C74.421875,64.5273447 74.500162,64.6680497 74.6567383,64.7590332 C74.8133146,64.8500167 75.0820293,64.8955078 75.4628906,64.8955078 L76.6943359,64.8955078 C77.4475949,64.8955078 78.0262838,65.0541976 78.4304199,65.371582 C78.8345561,65.6889664 79.0366211,66.1502248 79.0366211,66.7553711 C79.0366211,67.5255572 78.7277049,68.1127096 78.1098633,68.5168457 C77.4920217,68.9209818 76.5906635,69.1230469 75.4057617,69.1230469 C74.4959264,69.1230469 73.7945174,68.9537777 73.3015137,68.6152344 C72.8085099,68.276691 72.5620117,67.7985057 72.5620117,67.1806641 C72.5620117,66.7574849 72.697427,66.3914403 72.9682617,66.0825195 C73.2390964,65.7735987 73.619952,65.5641282 74.1108398,65.4541016 C73.9331046,65.3736975 73.7839361,65.2488615 73.6633301,65.0795898 C73.542724,64.9103182 73.4824219,64.7135428 73.4824219,64.4892578 C73.4824219,64.2353503 73.5501295,64.0131845 73.6855469,63.8227539 C73.8209642,63.6323233 74.0346665,63.4482431 74.3266602,63.2705078 C73.9669578,63.1223951 73.6739106,62.8706072 73.4475098,62.5151367 C73.2211089,62.1596662 73.1079102,61.7534203 73.1079102,61.2963867 C73.1079102,60.5346642 73.3364235,59.9475118 73.793457,59.5349121 C74.2504906,59.1223124 74.897945,58.9160156 75.7358398,58.9160156 C76.099774,58.9160156 76.4277329,58.9583329 76.7197266,59.0429688 L79.1254883,59.0429688 Z M73.5776367,67.1679688 C73.5776367,67.5445982 73.7363265,67.8302399 74.0537109,68.0249023 C74.3710953,68.2195648 74.8260062,68.3168945 75.418457,68.3168945 C76.3029016,68.3168945 76.9577615,68.184653 77.3830566,67.920166 C77.8083517,67.655679 78.0209961,67.29704 78.0209961,66.8442383 C78.0209961,66.4676088 77.9046236,66.2062996 77.671875,66.0603027 C77.4391264,65.9143059 77.0011425,65.8413086 76.3579102,65.8413086 L75.0947266,65.8413086 C74.6165341,65.8413086 74.244142,65.9555653 73.9775391,66.184082 C73.7109362,66.4125988 73.5776367,66.7405578 73.5776367,67.1679688 Z M74.1489258,61.2709961 C74.1489258,61.7576522 74.286457,62.1258126 74.5615234,62.3754883 C74.8365899,62.625164 75.2195613,62.75 75.7104492,62.75 C76.7387747,62.75 77.2529297,62.250656 77.2529297,61.2519531 C77.2529297,60.2067005 76.7324271,59.684082 75.6914062,59.684082 C75.1962866,59.684082 74.815431,59.8173815 74.5488281,60.0839844 C74.2822252,60.3505873 74.1489258,60.7462539 74.1489258,61.2709961 Z M83.4926758,66.1269531 C82.4643503,66.1269531 81.6529164,65.8138052 81.0583496,65.1875 C80.4637828,64.5611948 80.1665039,63.6915746 80.1665039,62.5786133 C80.1665039,61.4571884 80.4426242,60.5664096 80.994873,59.90625 C81.5471219,59.2460904 82.2887323,58.9160156 83.2197266,58.9160156 C84.0914757,58.9160156 84.7812475,59.2027152 85.2890625,59.776123 C85.7968775,60.3495309 86.0507812,61.1059523 86.0507812,62.0454102 L86.0507812,62.7119141 L81.2583008,62.7119141 C81.2794597,63.5286499 81.4857565,64.1485981 81.8771973,64.5717773 C82.268638,64.9949565 82.8198207,65.206543 83.5307617,65.206543 C84.2797889,65.206543 85.0203414,65.049969 85.7524414,64.7368164 L85.7524414,65.6762695 C85.3800437,65.8370776 85.0277523,65.9523922 84.6955566,66.0222168 C84.363361,66.0920414 83.9624047,66.1269531 83.4926758,66.1269531 Z M83.2070312,59.7983398 C82.6484347,59.7983398 82.2030453,59.9803042 81.8708496,60.3442383 C81.5386539,60.7081724 81.3429365,61.2117481 81.2836914,61.8549805 L84.9208984,61.8549805 C84.9208984,61.1905891 84.7727879,60.6817238 84.4765625,60.3283691 C84.1803371,59.9750145 83.7571642,59.7983398 83.2070312,59.7983398 Z M92.7475586,66 L90.1069336,59.0429688 L91.2368164,59.0429688 L92.7348633,63.1689453 C93.0734066,64.1337939 93.2722979,64.7600897 93.331543,65.0478516 L93.3823242,65.0478516 C93.4288739,64.8235666 93.5759265,64.3591344 93.8234863,63.654541 C94.0710462,62.9499476 94.6264605,61.4127723 95.4897461,59.0429688 L96.6196289,59.0429688 L93.9790039,66 L92.7475586,66 Z M98.7905273,66 L97.7368164,66 L97.7368164,59.0429688 L98.7905273,59.0429688 L98.7905273,66 Z M97.6479492,57.1577148 C97.6479492,56.9165027 97.7071934,56.739828 97.8256836,56.6276855 C97.9441738,56.5155431 98.0922843,56.4594727 98.2700195,56.4594727 C98.4392912,56.4594727 98.5852858,56.516601 98.7080078,56.6308594 C98.8307298,56.7451178 98.8920898,56.9207345 98.8920898,57.1577148 C98.8920898,57.3946952 98.8307298,57.5713699 98.7080078,57.6877441 C98.5852858,57.8041184 98.4392912,57.8623047 98.2700195,57.8623047 C98.0922843,57.8623047 97.9441738,57.8041184 97.8256836,57.6877441 C97.7071934,57.5713699 97.6479492,57.3946952 97.6479492,57.1577148 Z M105.303223,66 L105.09375,65.0097656 L105.042969,65.0097656 C104.695962,65.4456402 104.350018,65.7408033 104.005127,65.8952637 C103.660236,66.0497241 103.229658,66.1269531 102.713379,66.1269531 C102.023597,66.1269531 101.482993,65.9492205 101.091553,65.59375 C100.700112,65.2382795 100.504395,64.7325879 100.504395,64.0766602 C100.504395,62.6717052 101.627918,61.9353845 103.875,61.8676758 L105.055664,61.8295898 L105.055664,61.3979492 C105.055664,60.8520481 104.938234,60.4489759 104.703369,60.1887207 C104.468505,59.9284655 104.092939,59.7983398 103.57666,59.7983398 C102.996905,59.7983398 102.340987,59.9760724 101.608887,60.331543 L101.285156,59.5253906 C101.627931,59.3391918 102.003497,59.1931971 102.411865,59.0874023 C102.820233,58.9816075 103.229653,58.9287109 103.640137,58.9287109 C104.469568,58.9287109 105.084227,59.1127911 105.484131,59.480957 C105.884035,59.8491229 106.083984,60.4394491 106.083984,61.2519531 L106.083984,66 L105.303223,66 Z M102.922852,65.2573242 C103.578779,65.2573242 104.093992,65.0774758 104.468506,64.7177734 C104.843019,64.3580711 105.030273,63.8544954 105.030273,63.2070312 L105.030273,62.5786133 L103.976562,62.6230469 C103.138668,62.6526694 102.534588,62.7827951 102.164307,63.0134277 C101.794025,63.2440604 101.608887,63.6026994 101.608887,64.0893555 C101.608887,64.4702167 101.724201,64.7600902 101.954834,64.9589844 C102.185467,65.1578786 102.508136,65.2573242 102.922852,65.2573242 Z M117.325684,59.0429688 L117.325684,59.7094727 L116.037109,59.8618164 C116.1556,60.0099291 116.261393,60.2035307 116.354492,60.442627 C116.447592,60.6817232 116.494141,60.9514959 116.494141,61.2519531 C116.494141,61.9332716 116.261396,62.4770488 115.795898,62.8833008 C115.330401,63.2895528 114.69141,63.4926758 113.878906,63.4926758 C113.671548,63.4926758 113.476889,63.4757489 113.294922,63.4418945 C112.846352,63.6788749 112.62207,63.9772117 112.62207,64.3369141 C112.62207,64.5273447 112.700357,64.6680497 112.856934,64.7590332 C113.01351,64.8500167 113.282225,64.8955078 113.663086,64.8955078 L114.894531,64.8955078 C115.64779,64.8955078 116.226479,65.0541976 116.630615,65.371582 C117.034751,65.6889664 117.236816,66.1502248 117.236816,66.7553711 C117.236816,67.5255572 116.9279,68.1127096 116.310059,68.5168457 C115.692217,68.9209818 114.790859,69.1230469 113.605957,69.1230469 C112.696122,69.1230469 111.994713,68.9537777 111.501709,68.6152344 C111.008705,68.276691 110.762207,67.7985057 110.762207,67.1806641 C110.762207,66.7574849 110.897622,66.3914403 111.168457,66.0825195 C111.439292,65.7735987 111.820147,65.5641282 112.311035,65.4541016 C112.1333,65.3736975 111.984131,65.2488615 111.863525,65.0795898 C111.742919,64.9103182 111.682617,64.7135428 111.682617,64.4892578 C111.682617,64.2353503 111.750325,64.0131845 111.885742,63.8227539 C112.02116,63.6323233 112.234862,63.4482431 112.526855,63.2705078 C112.167153,63.1223951 111.874106,62.8706072 111.647705,62.5151367 C111.421304,62.1596662 111.308105,61.7534203 111.308105,61.2963867 C111.308105,60.5346642 111.536619,59.9475118 111.993652,59.5349121 C112.450686,59.1223124 113.09814,58.9160156 113.936035,58.9160156 C114.299969,58.9160156 114.627928,58.9583329 114.919922,59.0429688 L117.325684,59.0429688 Z M111.777832,67.1679688 C111.777832,67.5445982 111.936522,67.8302399 112.253906,68.0249023 C112.571291,68.2195648 113.026201,68.3168945 113.618652,68.3168945 C114.503097,68.3168945 115.157957,68.184653 115.583252,67.920166 C116.008547,67.655679 116.221191,67.29704 116.221191,66.8442383 C116.221191,66.4676088 116.104819,66.2062996 115.87207,66.0603027 C115.639322,65.9143059 115.201338,65.8413086 114.558105,65.8413086 L113.294922,65.8413086 C112.816729,65.8413086 112.444337,65.9555653 112.177734,66.184082 C111.911131,66.4125988 111.777832,66.7405578 111.777832,67.1679688 Z M112.349121,61.2709961 C112.349121,61.7576522 112.486652,62.1258126 112.761719,62.3754883 C113.036785,62.625164 113.419757,62.75 113.910645,62.75 C114.93897,62.75 115.453125,62.250656 115.453125,61.2519531 C115.453125,60.2067005 114.932622,59.684082 113.891602,59.684082 C113.396482,59.684082 113.015626,59.8173815 112.749023,60.0839844 C112.482421,60.3505873 112.349121,60.7462539 112.349121,61.2709961 Z M121.927734,58.9160156 C122.236655,58.9160156 122.513833,58.941406 122.759277,58.9921875 L122.613281,59.9697266 C122.325519,59.9062497 122.071616,59.8745117 121.851562,59.8745117 C121.288734,59.8745117 120.807375,60.1030251 120.407471,60.5600586 C120.007566,61.0170921 119.807617,61.5862596 119.807617,62.2675781 L119.807617,66 L118.753906,66 L118.753906,59.0429688 L119.623535,59.0429688 L119.744141,60.331543 L119.794922,60.331543 C120.053061,59.8787412 120.364093,59.5296236 120.728027,59.2841797 C121.091961,59.0387358 121.49186,58.9160156 121.927734,58.9160156 Z M130.06543,62.5151367 C130.06543,63.649257 129.779788,64.5347462 129.208496,65.1716309 C128.637204,65.8085156 127.847987,66.1269531 126.84082,66.1269531 C126.218747,66.1269531 125.666506,65.9809585 125.184082,65.6889648 C124.701658,65.3969712 124.329266,64.9780301 124.066895,64.4321289 C123.804523,63.8862277 123.67334,63.2472367 123.67334,62.5151367 C123.67334,61.3810165 123.956866,60.4976431 124.523926,59.8649902 C125.090986,59.2323373 125.878087,58.9160156 126.885254,58.9160156 C127.858566,58.9160156 128.631914,59.2397429 129.205322,59.887207 C129.77873,60.5346712 130.06543,61.410639 130.06543,62.5151367 Z M124.765137,62.5151367 C124.765137,63.403813 124.942869,64.0808896 125.29834,64.5463867 C125.65381,65.0118838 126.176429,65.2446289 126.866211,65.2446289 C127.555993,65.2446289 128.079669,65.0129418 128.437256,64.5495605 C128.794842,64.0861793 128.973633,63.4080448 128.973633,62.5151367 C128.973633,61.6306922 128.794842,60.9589053 128.437256,60.4997559 C128.079669,60.0406064 127.551761,59.8110352 126.853516,59.8110352 C126.163734,59.8110352 125.643231,60.0374326 125.291992,60.4902344 C124.940753,60.9430361 124.765137,61.6179968 124.765137,62.5151367 Z M132.902832,59.0429688 L132.902832,63.5561523 C132.902832,64.1232125 133.0319,64.5463853 133.290039,64.8256836 C133.548178,65.1049819 133.952308,65.2446289 134.502441,65.2446289 C135.23031,65.2446289 135.762449,65.0457377 136.098877,64.6479492 C136.435304,64.2501608 136.603516,63.6005904 136.603516,62.6992188 L136.603516,59.0429688 L137.657227,59.0429688 L137.657227,66 L136.787598,66 L136.635254,65.0668945 L136.578125,65.0668945 C136.362304,65.4096697 136.062909,65.6720369 135.679932,65.8540039 C135.296954,66.035971 134.860028,66.1269531 134.369141,66.1269531 C133.522782,66.1269531 132.889081,65.925946 132.468018,65.5239258 C132.046954,65.1219055 131.836426,64.4786828 131.836426,63.5942383 L131.836426,59.0429688 L132.902832,59.0429688 Z M143.128906,66.1269531 C142.676105,66.1269531 142.262453,66.0433765 141.887939,65.8762207 C141.513426,65.7090649 141.19922,65.4519874 140.945312,65.1049805 L140.869141,65.1049805 C140.919922,65.5112325 140.945312,65.8963198 140.945312,66.2602539 L140.945312,69.1230469 L139.891602,69.1230469 L139.891602,59.0429688 L140.748535,59.0429688 L140.894531,59.9951172 L140.945312,59.9951172 C141.216147,59.6142559 141.531411,59.3391936 141.891113,59.1699219 C142.250816,59.0006502 142.663409,58.9160156 143.128906,58.9160156 C144.051437,58.9160156 144.763425,59.2312794 145.264893,59.8618164 C145.76636,60.4923534 146.01709,61.3767847 146.01709,62.5151367 C146.01709,63.6577206 145.762128,64.5453256 145.252197,65.1779785 C144.742266,65.8106314 144.03451,66.1269531 143.128906,66.1269531 Z M142.976562,59.8110352 C142.265621,59.8110352 141.751466,60.0078105 141.434082,60.4013672 C141.116698,60.7949238 140.953776,61.4212197 140.945312,62.2802734 L140.945312,62.5151367 C140.945312,63.4926807 141.108234,64.1919738 141.434082,64.6130371 C141.75993,65.0341004 142.282548,65.2446289 143.001953,65.2446289 C143.602868,65.2446289 144.073647,65.0013045 144.414307,64.5146484 C144.754966,64.0279924 144.925293,63.3572634 144.925293,62.5024414 C144.925293,61.634924 144.754966,60.9694847 144.414307,60.5061035 C144.073647,60.0427223 143.594404,59.8110352 142.976562,59.8110352 Z M153.862793,65.2446289 C154.56527,65.2446289 155.07731,65.056317 155.398926,64.6796875 C155.720542,64.303058 155.891927,63.6682987 155.913086,62.7753906 L155.913086,62.5405273 C155.913086,61.5672152 155.748049,60.8668641 155.417969,60.4394531 C155.087889,60.0120421 154.565271,59.7983398 153.850098,59.7983398 C153.232256,59.7983398 152.75936,60.0384904 152.431396,60.5187988 C152.103433,60.9991072 151.939453,61.6772417 151.939453,62.5532227 C151.939453,63.4292036 152.101317,64.0967588 152.425049,64.5559082 C152.748781,65.0150576 153.228024,65.2446289 153.862793,65.2446289 Z M153.704102,66.1269531 C152.806962,66.1269531 152.106611,65.8116894 151.603027,65.1811523 C151.099444,64.5506153 150.847656,63.6704158 150.847656,62.5405273 C150.847656,61.4021753 151.10156,60.5135123 151.609375,59.8745117 C152.11719,59.2355111 152.823889,58.9160156 153.729492,58.9160156 C154.681645,58.9160156 155.413734,59.2757125 155.925781,59.9951172 L155.98291,59.9951172 L156.135254,59.0429688 L156.966797,59.0429688 L156.966797,69.1230469 L155.913086,69.1230469 L155.913086,66.1459961 C155.913086,65.7228169 155.93636,65.36312 155.98291,65.0668945 L155.900391,65.0668945 C155.413735,65.7736038 154.681646,66.1269531 153.704102,66.1269531 Z M160.191406,59.0429688 L160.191406,63.5561523 C160.191406,64.1232125 160.320474,64.5463853 160.578613,64.8256836 C160.836753,65.1049819 161.240883,65.2446289 161.791016,65.2446289 C162.518884,65.2446289 163.051024,65.0457377 163.387451,64.6479492 C163.723879,64.2501608 163.89209,63.6005904 163.89209,62.6992188 L163.89209,59.0429688 L164.945801,59.0429688 L164.945801,66 L164.076172,66 L163.923828,65.0668945 L163.866699,65.0668945 C163.650878,65.4096697 163.351483,65.6720369 162.968506,65.8540039 C162.585529,66.035971 162.148603,66.1269531 161.657715,66.1269531 C160.811356,66.1269531 160.177655,65.925946 159.756592,65.5239258 C159.335528,65.1219055 159.125,64.4786828 159.125,63.5942383 L159.125,59.0429688 L160.191406,59.0429688 Z M168.233887,66 L167.180176,66 L167.180176,59.0429688 L168.233887,59.0429688 L168.233887,66 Z M167.091309,57.1577148 C167.091309,56.9165027 167.150553,56.739828 167.269043,56.6276855 C167.387533,56.5155431 167.535644,56.4594727 167.713379,56.4594727 C167.882651,56.4594727 168.028645,56.516601 168.151367,56.6308594 C168.274089,56.7451178 168.335449,56.9207345 168.335449,57.1577148 C168.335449,57.3946952 168.274089,57.5713699 168.151367,57.6877441 C168.028645,57.8041184 167.882651,57.8623047 167.713379,57.8623047 C167.535644,57.8623047 167.387533,57.8041184 167.269043,57.6877441 C167.150553,57.5713699 167.091309,57.3946952 167.091309,57.1577148 Z M174.917969,66 L169.871582,66 L169.871582,65.2827148 L173.66748,59.8618164 L170.106445,59.8618164 L170.106445,59.0429688 L174.822754,59.0429688 L174.822754,59.8618164 L171.077637,65.1811523 L174.917969,65.1811523 L174.917969,66 Z M180.999023,66 L175.952637,66 L175.952637,65.2827148 L179.748535,59.8618164 L176.1875,59.8618164 L176.1875,59.0429688 L180.903809,59.0429688 L180.903809,59.8618164 L177.158691,65.1811523 L180.999023,65.1811523 L180.999023,66 Z M185.569336,66.1269531 C184.54101,66.1269531 183.729577,65.8138052 183.13501,65.1875 C182.540443,64.5611948 182.243164,63.6915746 182.243164,62.5786133 C182.243164,61.4571884 182.519284,60.5664096 183.071533,59.90625 C183.623782,59.2460904 184.365392,58.9160156 185.296387,58.9160156 C186.168136,58.9160156 186.857908,59.2027152 187.365723,59.776123 C187.873538,60.3495309 188.127441,61.1059523 188.127441,62.0454102 L188.127441,62.7119141 L183.334961,62.7119141 C183.35612,63.5286499 183.562417,64.1485981 183.953857,64.5717773 C184.345298,64.9949565 184.896481,65.206543 185.607422,65.206543 C186.356449,65.206543 187.097002,65.049969 187.829102,64.7368164 L187.829102,65.6762695 C187.456704,65.8370776 187.104412,65.9523922 186.772217,66.0222168 C186.440021,66.0920414 186.039065,66.1269531 185.569336,66.1269531 Z M185.283691,59.7983398 C184.725095,59.7983398 184.279705,59.9803042 183.94751,60.3442383 C183.615314,60.7081724 183.419597,61.2117481 183.360352,61.8549805 L186.997559,61.8549805 C186.997559,61.1905891 186.849448,60.6817238 186.553223,60.3283691 C186.256997,59.9750145 185.833824,59.7983398 185.283691,59.7983398 Z M194.411621,64.1020508 C194.411621,64.749515 194.170413,65.2488589 193.687988,65.6000977 C193.205564,65.9513364 192.528487,66.1269531 191.656738,66.1269531 C190.734208,66.1269531 190.014814,65.9809585 189.498535,65.6889648 L189.498535,64.7114258 C189.832847,64.8806975 190.191486,65.0139969 190.574463,65.1113281 C190.95744,65.2086593 191.326658,65.2573242 191.682129,65.2573242 C192.232262,65.2573242 192.655435,65.1695159 192.95166,64.9938965 C193.247886,64.8182771 193.395996,64.5506203 193.395996,64.190918 C193.395996,63.9200833 193.278566,63.6883961 193.043701,63.4958496 C192.808837,63.3033031 192.350752,63.0758477 191.669434,62.8134766 C191.021969,62.5722644 190.561769,62.3617359 190.288818,62.1818848 C190.015868,62.0020336 189.812745,61.7978527 189.679443,61.5693359 C189.546142,61.3408192 189.479492,61.0678727 189.479492,60.7504883 C189.479492,60.1834282 189.710121,59.7359229 190.171387,59.407959 C190.632652,59.0799951 191.265295,58.9160156 192.069336,58.9160156 C192.818363,58.9160156 193.550452,59.0683579 194.265625,59.3730469 L193.891113,60.2299805 C193.192868,59.9422186 192.560224,59.7983398 191.993164,59.7983398 C191.493813,59.7983398 191.117189,59.8766268 190.863281,60.0332031 C190.609374,60.1897794 190.482422,60.4055976 190.482422,60.6806641 C190.482422,60.8668629 190.530029,61.0255527 190.625244,61.1567383 C190.720459,61.2879238 190.87386,61.4127598 191.085449,61.53125 C191.297039,61.6497402 191.703285,61.8211252 192.304199,62.0454102 C193.129399,62.3458674 193.686929,62.648436 193.976807,62.953125 C194.266684,63.257814 194.411621,63.6407855 194.411621,64.1020508 Z M195.973145,65.3271484 C195.973145,65.0436184 196.037678,64.8288582 196.166748,64.6828613 C196.295818,64.5368645 196.480956,64.4638672 196.722168,64.4638672 C196.967612,64.4638672 197.159098,64.5368645 197.296631,64.6828613 C197.434164,64.8288582 197.50293,65.0436184 197.50293,65.3271484 C197.50293,65.6022149 197.433106,65.8138013 197.293457,65.9619141 C197.153808,66.1100268 196.96338,66.184082 196.722168,66.184082 C196.506347,66.184082 196.327556,66.1174323 196.185791,65.9841309 C196.044026,65.8508294 195.973145,65.6318375 195.973145,65.3271484 Z" id="Make-decisions-toget" fill="#FFFFFF"></path>
                    </g>
                </g>
            </g>
        </g>
    </g>
</svg>