<?xml version="1.0" encoding="UTF-8" standalone="no"?>
<svg width="296px" height="186px" viewBox="0 0 296 186" version="1.1" xmlns="http://www.w3.org/2000/svg" xmlns:xlink="http://www.w3.org/1999/xlink">
    <!-- Generator: Sketch 41.2 (35397) - http://www.bohemiancoding.com/sketch -->
    <title>Bloc 01</title>
    <desc>Created with Sketch.</desc>
    <defs>
        <rect id="path-1" x="0" y="0" width="290" height="180" rx="4"></rect>
        <filter x="-50%" y="-50%" width="200%" height="200%" filterUnits="objectBoundingBox" id="filter-2">
            <feOffset dx="0" dy="2" in="SourceAlpha" result="shadowOffsetOuter1"></feOffset>
            <feGaussianBlur stdDeviation="1.5" in="shadowOffsetOuter1" result="shadowBlurOuter1"></feGaussianBlur>
            <feComposite in="shadowBlurOuter1" in2="SourceAlpha" operator="out" result="shadowBlurOuter1"></feComposite>
            <feColorMatrix values="0 0 0 0 0.823529412   0 0 0 0 0.854901961   0 0 0 0 0.905882353  0 0 0 0.445822011 0" type="matrix" in="shadowBlurOuter1"></feColorMatrix>
        </filter>
        <mask id="mask-3" maskContentUnits="userSpaceOnUse" maskUnits="objectBoundingBox" x="0" y="0" width="290" height="180" fill="white">
            <use xlink:href="#path-1"></use>
        </mask>
    </defs>
    <g id="Page-1" stroke="none" stroke-width="1" fill="none" fill-rule="evenodd">
        <g id="Desktop-HD" transform="translate(-37.000000, -332.000000)">
            <g id="PREMIERE-LAME" transform="translate(-155.000000, -21.000000)">
                <g id="Bloc-01" transform="translate(195.000000, 354.000000)">
                    <g id="Fond-Bloc-">
                        <use fill="black" fill-opacity="1" filter="url(#filter-2)" xlink:href="#path-1"></use>
                        <use stroke-opacity="0.198228034" stroke="#657077" mask="url(#mask-3)" stroke-width="2" fill="#FFFFFF" fill-rule="evenodd" xlink:href="#path-1"></use>
                    </g>
                    <path d="M52.5146484,67.1508789 C52.5146484,68.0932664 52.172855,68.8281224 51.4892578,69.3554688 C50.8056606,69.8828151 49.8779355,70.1464844 48.7060547,70.1464844 C47.4365171,70.1464844 46.4599644,69.9829118 45.7763672,69.6557617 L45.7763672,68.4545898 C46.2158225,68.6401376 46.6943333,68.7866206 47.2119141,68.894043 C47.7294948,69.0014654 48.242185,69.0551758 48.75,69.0551758 C49.5800823,69.0551758 50.205076,68.8977067 50.625,68.5827637 C51.044924,68.2678207 51.2548828,67.8295927 51.2548828,67.2680664 C51.2548828,66.8969708 51.1804207,66.5930188 51.0314941,66.3562012 C50.8825676,66.1193836 50.6335467,65.9008799 50.2844238,65.7006836 C49.935301,65.5004873 49.4043004,65.2734388 48.6914062,65.0195312 C47.6953075,64.6630842 46.9836447,64.2407251 46.5563965,63.7524414 C46.1291483,63.2641577 45.9155273,62.6269571 45.9155273,61.8408203 C45.9155273,61.0156209 46.2255828,60.3588892 46.8457031,59.8706055 C47.4658234,59.3823218 48.2861277,59.1381836 49.3066406,59.1381836 C50.3710991,59.1381836 51.3500932,59.3334941 52.2436523,59.7241211 L51.8554688,60.8081055 C50.9716753,60.4370099 50.1123089,60.2514648 49.2773438,60.2514648 C48.6181608,60.2514648 48.1030292,60.393065 47.7319336,60.6762695 C47.360838,60.9594741 47.175293,61.3525365 47.175293,61.8554688 C47.175293,62.2265644 47.2436517,62.5305164 47.3803711,62.767334 C47.5170905,63.0041516 47.7478011,63.2214346 48.0725098,63.4191895 C48.3972184,63.6169443 48.8940396,63.835448 49.5629883,64.074707 C50.6860408,64.4750997 51.4587381,64.9047829 51.8811035,65.3637695 C52.3034689,65.8227562 52.5146484,66.4184534 52.5146484,67.1508789 Z M59.4580078,70 L59.2163086,68.8574219 L59.1577148,68.8574219 C58.7573222,69.3603541 58.3581563,69.7009268 57.9602051,69.8791504 C57.5622539,70.0573739 57.0654327,70.1464844 56.4697266,70.1464844 C55.6738241,70.1464844 55.0500511,69.9414083 54.5983887,69.53125 C54.1467263,69.1210917 53.9208984,68.5376014 53.9208984,67.7807617 C53.9208984,66.1596599 55.2172722,65.310059 57.8100586,65.2319336 L59.1723633,65.1879883 L59.1723633,64.6899414 C59.1723633,64.0600554 59.0368666,63.5949722 58.7658691,63.2946777 C58.4948717,62.9943833 58.0615264,62.8442383 57.4658203,62.8442383 C56.7968717,62.8442383 56.0400433,63.0493144 55.1953125,63.4594727 L54.8217773,62.5292969 C55.2172871,62.3144521 55.6506324,62.1459967 56.1218262,62.0239258 C56.5930199,61.9018549 57.0654273,61.8408203 57.5390625,61.8408203 C58.4960985,61.8408203 59.20532,62.0532205 59.666748,62.4780273 C60.1281761,62.9028342 60.3588867,63.5839797 60.3588867,64.5214844 L60.3588867,70 L59.4580078,70 Z M56.7114258,69.1430664 C57.4682655,69.1430664 58.062742,68.935549 58.494873,68.5205078 C58.9270041,68.1054667 59.1430664,67.5244178 59.1430664,66.7773438 L59.1430664,66.0522461 L57.9272461,66.1035156 C56.9604444,66.1376955 56.2634299,66.2878405 55.8361816,66.5539551 C55.4089334,66.8200697 55.1953125,67.2338839 55.1953125,67.7954102 C55.1953125,68.2348655 55.3283678,68.5693348 55.5944824,68.7988281 C55.860597,69.0283215 56.2329078,69.1430664 56.7114258,69.1430664 Z M64.0795898,70 L62.8637695,70 L62.8637695,58.6035156 L64.0795898,58.6035156 L64.0795898,70 Z M67.800293,61.9726562 L67.800293,67.1801758 C67.800293,67.8344759 67.9492173,68.3227523 68.2470703,68.6450195 C68.5449234,68.9672868 69.0112273,69.128418 69.6459961,69.128418 C70.485844,69.128418 71.0998516,68.8989281 71.4880371,68.4399414 C71.8762226,67.9809547 72.0703125,67.2314505 72.0703125,66.1914062 L72.0703125,61.9726562 L73.2861328,61.9726562 L73.2861328,70 L72.2827148,70 L72.1069336,68.9233398 L72.0410156,68.9233398 C71.7919909,69.3188496 71.4465354,69.621581 71.0046387,69.831543 C70.5627419,70.041505 70.0585966,70.1464844 69.4921875,70.1464844 C68.5156201,70.1464844 67.7844263,69.9145531 67.298584,69.4506836 C66.8127417,68.9868141 66.5698242,68.244634 66.5698242,67.2241211 L66.5698242,61.9726562 L67.800293,61.9726562 Z M78.4570312,69.1430664 C78.6718761,69.1430664 78.8793935,69.1271974 79.0795898,69.095459 C79.2797862,69.0637205 79.438476,69.0307619 79.5556641,68.996582 L79.5556641,69.9267578 C79.4238275,69.9902347 79.2297376,70.0427244 78.9733887,70.0842285 C78.7170397,70.1257326 78.4863292,70.1464844 78.28125,70.1464844 C76.7285079,70.1464844 75.9521484,69.3286215 75.9521484,67.6928711 L75.9521484,62.9174805 L74.8022461,62.9174805 L74.8022461,62.331543 L75.9521484,61.8261719 L76.4648438,60.1123047 L77.1679688,60.1123047 L77.1679688,61.9726562 L79.4970703,61.9726562 L79.4970703,62.9174805 L77.1679688,62.9174805 L77.1679688,67.6416016 C77.1679688,68.1250024 77.2827137,68.4960925 77.512207,68.7548828 C77.7417004,69.0136732 78.0566386,69.1430664 78.4570312,69.1430664 Z M82.434082,68.2568359 L82.5439453,68.425293 C82.4169916,68.9135767 82.2338879,69.4811979 81.9946289,70.1281738 C81.7553699,70.7751497 81.506349,71.3769503 81.2475586,71.9335938 L80.3320312,71.9335938 C80.4638678,71.4257787 80.6091301,70.7983436 80.7678223,70.0512695 C80.9265145,69.3041955 81.0375973,68.7060569 81.1010742,68.2568359 L82.434082,68.2568359 Z M92.4682617,61.8408203 C93.5229545,61.8408203 94.3420381,62.2009241 94.9255371,62.9211426 C95.5090361,63.641361 95.8007812,64.6606379 95.8007812,65.9790039 C95.8007812,67.2973699 95.5065947,68.3215296 94.9182129,69.0515137 C94.329831,69.7814978 93.5131888,70.1464844 92.4682617,70.1464844 C91.9457982,70.1464844 91.468508,70.0500498 91.036377,69.8571777 C90.6042459,69.6643057 90.2417007,69.3676778 89.9487305,68.9672852 L89.8608398,68.9672852 L89.6044922,70 L88.7329102,70 L88.7329102,58.6035156 L89.9487305,58.6035156 L89.9487305,61.3720703 C89.9487305,61.9921906 89.9291994,62.5488257 89.8901367,63.0419922 L89.9487305,63.0419922 C90.5151396,62.2412069 91.3549749,61.8408203 92.4682617,61.8408203 Z M92.2924805,62.8588867 C91.4623982,62.8588867 90.8642596,63.0969214 90.4980469,63.572998 C90.1318341,64.0490746 89.9487305,64.8510686 89.9487305,65.9790039 C89.9487305,67.1069392 90.1367169,67.9138159 90.5126953,68.3996582 C90.8886738,68.8855005 91.4916951,69.128418 92.3217773,69.128418 C93.0688514,69.128418 93.6254865,68.8562039 93.9916992,68.3117676 C94.357912,67.7673313 94.5410156,66.9848684 94.5410156,65.9643555 C94.5410156,64.9194284 94.357912,64.1406276 93.9916992,63.6279297 C93.6254865,63.1152318 93.0590859,62.8588867 92.2924805,62.8588867 Z M99.140625,70 L97.9248047,70 L97.9248047,61.9726562 L99.140625,61.9726562 L99.140625,70 Z M97.8222656,59.7973633 C97.8222656,59.5190416 97.8906243,59.3151862 98.0273438,59.185791 C98.1640632,59.0563958 98.3349599,58.9916992 98.5400391,58.9916992 C98.7353525,58.9916992 98.9038079,59.0576165 99.0454102,59.1894531 C99.1870124,59.3212897 99.2578125,59.5239244 99.2578125,59.7973633 C99.2578125,60.0708021 99.1870124,60.2746575 99.0454102,60.4089355 C98.9038079,60.5432136 98.7353525,60.6103516 98.5400391,60.6103516 C98.3349599,60.6103516 98.1640632,60.5432136 98.0273438,60.4089355 C97.8906243,60.2746575 97.8222656,60.0708021 97.8222656,59.7973633 Z M105.109863,70.1464844 C103.923334,70.1464844 102.987064,69.7851599 102.301025,69.0625 C101.614987,68.3398401 101.271973,67.3364322 101.271973,66.0522461 C101.271973,64.7582943 101.590573,63.7304726 102.227783,62.96875 C102.864993,62.2070274 103.720698,61.8261719 104.794922,61.8261719 C105.800786,61.8261719 106.596677,62.1569791 107.182617,62.8186035 C107.768558,63.4802279 108.061523,64.3530219 108.061523,65.4370117 L108.061523,66.2060547 L102.531738,66.2060547 C102.556152,67.1484422 102.794187,67.8637671 103.24585,68.3520508 C103.697512,68.8403345 104.333492,69.0844727 105.153809,69.0844727 C106.018071,69.0844727 106.872554,68.9038104 107.717285,68.5424805 L107.717285,69.6264648 C107.287596,69.8120126 106.881105,69.945068 106.497803,70.0256348 C106.1145,70.1062016 105.651858,70.1464844 105.109863,70.1464844 Z M104.780273,62.8442383 C104.135739,62.8442383 103.621828,63.0541971 103.238525,63.4741211 C102.855223,63.8940451 102.629395,64.4750939 102.561035,65.2172852 L106.757812,65.2172852 C106.757812,64.4506798 106.586916,63.8635274 106.245117,63.4558105 C105.903319,63.0480937 105.415042,62.8442383 104.780273,62.8442383 Z M115.627441,70 L115.627441,64.8071289 C115.627441,64.1528288 115.478517,63.6645524 115.180664,63.3422852 C114.882811,63.0200179 114.416507,62.8588867 113.781738,62.8588867 C112.94189,62.8588867 112.326662,63.0859352 111.936035,63.5400391 C111.545408,63.9941429 111.350098,64.7436471 111.350098,65.7885742 L111.350098,70 L110.134277,70 L110.134277,61.9726562 L111.123047,61.9726562 L111.320801,63.0712891 L111.379395,63.0712891 C111.628419,62.6757793 111.977537,62.3693859 112.426758,62.1520996 C112.875979,61.9348134 113.376462,61.8261719 113.928223,61.8261719 C114.895024,61.8261719 115.622556,62.0593238 116.11084,62.5256348 C116.599124,62.9919457 116.843262,63.7377878 116.843262,64.7631836 L116.843262,70 L115.627441,70 Z M121.098633,70 L118.051758,61.9726562 L119.355469,61.9726562 L121.083984,66.7333984 C121.474611,67.8466853 121.704101,68.5693343 121.772461,68.9013672 L121.831055,68.9013672 C121.884766,68.6425768 122.054442,68.1066935 122.340088,67.2937012 C122.625734,66.4807088 123.266597,64.7070449 124.262695,61.9726562 L125.566406,61.9726562 L122.519531,70 L121.098633,70 Z M130.246582,70.1464844 C129.060053,70.1464844 128.123783,69.7851599 127.437744,69.0625 C126.751706,68.3398401 126.408691,67.3364322 126.408691,66.0522461 C126.408691,64.7582943 126.727292,63.7304726 127.364502,62.96875 C128.001712,62.2070274 128.857417,61.8261719 129.931641,61.8261719 C130.937505,61.8261719 131.733396,62.1569791 132.319336,62.8186035 C132.905276,63.4802279 133.198242,64.3530219 133.198242,65.4370117 L133.198242,66.2060547 L127.668457,66.2060547 C127.692871,67.1484422 127.930906,67.8637671 128.382568,68.3520508 C128.834231,68.8403345 129.470211,69.0844727 130.290527,69.0844727 C131.154789,69.0844727 132.009273,68.9038104 132.854004,68.5424805 L132.854004,69.6264648 C132.424314,69.8120126 132.017824,69.945068 131.634521,70.0256348 C131.251219,70.1062016 130.788577,70.1464844 130.246582,70.1464844 Z M129.916992,62.8442383 C129.272458,62.8442383 128.758547,63.0541971 128.375244,63.4741211 C127.991941,63.8940451 127.766114,64.4750939 127.697754,65.2172852 L131.894531,65.2172852 C131.894531,64.4506798 131.723635,63.8635274 131.381836,63.4558105 C131.040037,63.0480937 130.551761,62.8442383 129.916992,62.8442383 Z M140.76416,70 L140.76416,64.8071289 C140.76416,64.1528288 140.615236,63.6645524 140.317383,63.3422852 C140.01953,63.0200179 139.553226,62.8588867 138.918457,62.8588867 C138.078609,62.8588867 137.463381,63.0859352 137.072754,63.5400391 C136.682127,63.9941429 136.486816,64.7436471 136.486816,65.7885742 L136.486816,70 L135.270996,70 L135.270996,61.9726562 L136.259766,61.9726562 L136.45752,63.0712891 L136.516113,63.0712891 C136.765138,62.6757793 137.114256,62.3693859 137.563477,62.1520996 C138.012698,61.9348134 138.513181,61.8261719 139.064941,61.8261719 C140.031743,61.8261719 140.759275,62.0593238 141.247559,62.5256348 C141.735842,62.9919457 141.97998,63.7377878 141.97998,64.7631836 L141.97998,70 L140.76416,70 Z M145.620117,61.9726562 L145.620117,67.1801758 C145.620117,67.8344759 145.769041,68.3227523 146.066895,68.6450195 C146.364748,68.9672868 146.831052,69.128418 147.46582,69.128418 C148.305668,69.128418 148.919676,68.8989281 149.307861,68.4399414 C149.696047,67.9809547 149.890137,67.2314505 149.890137,66.1914062 L149.890137,61.9726562 L151.105957,61.9726562 L151.105957,70 L150.102539,70 L149.926758,68.9233398 L149.86084,68.9233398 C149.611815,69.3188496 149.26636,69.621581 148.824463,69.831543 C148.382566,70.041505 147.878421,70.1464844 147.312012,70.1464844 C146.335444,70.1464844 145.60425,69.9145531 145.118408,69.4506836 C144.632566,68.9868141 144.389648,68.244634 144.389648,67.2241211 L144.389648,61.9726562 L145.620117,61.9726562 Z M157.075195,70.1464844 C155.888666,70.1464844 154.952396,69.7851599 154.266357,69.0625 C153.580319,68.3398401 153.237305,67.3364322 153.237305,66.0522461 C153.237305,64.7582943 153.555905,63.7304726 154.193115,62.96875 C154.830325,62.2070274 155.68603,61.8261719 156.760254,61.8261719 C157.766118,61.8261719 158.562009,62.1569791 159.147949,62.8186035 C159.73389,63.4802279 160.026855,64.3530219 160.026855,65.4370117 L160.026855,66.2060547 L154.49707,66.2060547 C154.521484,67.1484422 154.759519,67.8637671 155.211182,68.3520508 C155.662844,68.8403345 156.298824,69.0844727 157.119141,69.0844727 C157.983403,69.0844727 158.837886,68.9038104 159.682617,68.5424805 L159.682617,69.6264648 C159.252928,69.8120126 158.846437,69.945068 158.463135,70.0256348 C158.079832,70.1062016 157.61719,70.1464844 157.075195,70.1464844 Z M156.745605,62.8442383 C156.101071,62.8442383 155.58716,63.0541971 155.203857,63.4741211 C154.820555,63.8940451 154.594727,64.4750939 154.526367,65.2172852 L158.723145,65.2172852 C158.723145,64.4506798 158.552248,63.8635274 158.210449,63.4558105 C157.868651,63.0480937 157.380374,62.8442383 156.745605,62.8442383 Z M171.174316,67.8100586 C171.174316,68.5571326 170.895999,69.1332988 170.339355,69.5385742 C169.782712,69.9438497 169.00147,70.1464844 167.995605,70.1464844 C166.931147,70.1464844 166.101077,69.978029 165.505371,69.6411133 L165.505371,68.5131836 C165.891115,68.7084971 166.304929,68.8623041 166.746826,68.9746094 C167.188723,69.0869146 167.614744,69.1430664 168.024902,69.1430664 C168.659671,69.1430664 169.147948,69.0417491 169.489746,68.8391113 C169.831545,68.6364736 170.002441,68.3276388 170.002441,67.9125977 C170.002441,67.6000961 169.866945,67.3327648 169.595947,67.1105957 C169.32495,66.8884266 168.796391,66.6259781 168.010254,66.3232422 C167.26318,66.0449205 166.732179,65.802003 166.417236,65.5944824 C166.102293,65.3869619 165.867921,65.1513685 165.714111,64.8876953 C165.560302,64.6240221 165.483398,64.3090839 165.483398,63.9428711 C165.483398,63.2885709 165.749509,62.7722187 166.281738,62.3937988 C166.813968,62.015379 167.543941,61.8261719 168.47168,61.8261719 C169.335942,61.8261719 170.18066,62.0019514 171.005859,62.3535156 L170.57373,63.3422852 C169.768062,63.0102522 169.038089,62.8442383 168.383789,62.8442383 C167.807614,62.8442383 167.373048,62.9345694 167.080078,63.1152344 C166.787108,63.2958993 166.640625,63.5449203 166.640625,63.8623047 C166.640625,64.0771495 166.695556,64.2602531 166.80542,64.4116211 C166.915284,64.562989 167.092284,64.7070306 167.336426,64.84375 C167.580568,64.9804694 168.049313,65.1782214 168.742676,65.4370117 C169.694829,65.7836931 170.338133,66.1328107 170.672607,66.484375 C171.007082,66.8359393 171.174316,67.2778294 171.174316,67.8100586 Z M174.294434,61.9726562 L174.294434,67.1801758 C174.294434,67.8344759 174.443358,68.3227523 174.741211,68.6450195 C175.039064,68.9672868 175.505368,69.128418 176.140137,69.128418 C176.979985,69.128418 177.593992,68.8989281 177.982178,68.4399414 C178.370363,67.9809547 178.564453,67.2314505 178.564453,66.1914062 L178.564453,61.9726562 L179.780273,61.9726562 L179.780273,70 L178.776855,70 L178.601074,68.9233398 L178.535156,68.9233398 C178.286132,69.3188496 177.940676,69.621581 177.498779,69.831543 C177.056883,70.041505 176.552737,70.1464844 175.986328,70.1464844 C175.009761,70.1464844 174.278567,69.9145531 173.792725,69.4506836 C173.306882,68.9868141 173.063965,68.244634 173.063965,67.2241211 L173.063965,61.9726562 L174.294434,61.9726562 Z M186.020508,61.8261719 C186.376955,61.8261719 186.696776,61.8554685 186.97998,61.9140625 L186.811523,63.0419922 C186.479491,62.9687496 186.186525,62.9321289 185.932617,62.9321289 C185.2832,62.9321289 184.727786,63.1957981 184.266357,63.7231445 C183.804929,64.2504909 183.574219,64.9072226 183.574219,65.6933594 L183.574219,70 L182.358398,70 L182.358398,61.9726562 L183.361816,61.9726562 L183.500977,63.4594727 L183.55957,63.4594727 C183.857423,62.9370091 184.216306,62.5341811 184.63623,62.2509766 C185.056154,61.967772 185.517576,61.8261719 186.020508,61.8261719 Z M192.561035,70 L192.561035,59.2919922 L193.806152,59.2919922 L193.806152,70 L192.561035,70 Z M202.053223,70 L202.053223,64.8071289 C202.053223,64.1528288 201.904298,63.6645524 201.606445,63.3422852 C201.308592,63.0200179 200.842288,62.8588867 200.20752,62.8588867 C199.367672,62.8588867 198.752443,63.0859352 198.361816,63.5400391 C197.971189,63.9941429 197.775879,64.7436471 197.775879,65.7885742 L197.775879,70 L196.560059,70 L196.560059,61.9726562 L197.548828,61.9726562 L197.746582,63.0712891 L197.805176,63.0712891 C198.0542,62.6757793 198.403318,62.3693859 198.852539,62.1520996 C199.30176,61.9348134 199.802243,61.8261719 200.354004,61.8261719 C201.320806,61.8261719 202.048337,62.0593238 202.536621,62.5256348 C203.024905,62.9919457 203.269043,63.7377878 203.269043,64.7631836 L203.269043,70 L202.053223,70 Z M212.321777,70 L210.849609,65.2905273 C210.756835,65.00244 210.583497,64.3481496 210.32959,63.3276367 L210.270996,63.3276367 C210.075683,64.1821332 209.904786,64.8413063 209.758301,65.3051758 L208.242188,70 L206.835938,70 L204.645996,61.9726562 L205.92041,61.9726562 C206.437991,63.9892679 206.832274,65.5248971 207.103271,66.5795898 C207.374269,67.6342826 207.529297,68.3447247 207.568359,68.7109375 L207.626953,68.7109375 C207.680664,68.4326158 207.767333,68.072512 207.886963,67.6306152 C208.006592,67.1887185 208.110351,66.8383802 208.198242,66.5795898 L209.67041,61.9726562 L210.98877,61.9726562 L212.424316,66.5795898 C212.697755,67.4194378 212.8833,68.1249971 212.980957,68.6962891 L213.039551,68.6962891 C213.059082,68.5205069 213.111572,68.2495135 213.197021,67.8833008 C213.282471,67.517088 213.791499,65.5468929 214.724121,61.9726562 L215.983887,61.9726562 L213.764648,70 L212.321777,70 Z M222.370605,70 L222.128906,68.8574219 L222.070312,68.8574219 C221.66992,69.3603541 221.270754,69.7009268 220.872803,69.8791504 C220.474852,70.0573739 219.97803,70.1464844 219.382324,70.1464844 C218.586422,70.1464844 217.962649,69.9414083 217.510986,69.53125 C217.059324,69.1210917 216.833496,68.5376014 216.833496,67.7807617 C216.833496,66.1596599 218.12987,65.310059 220.722656,65.2319336 L222.084961,65.1879883 L222.084961,64.6899414 C222.084961,64.0600554 221.949464,63.5949722 221.678467,63.2946777 C221.407469,62.9943833 220.974124,62.8442383 220.378418,62.8442383 C219.709469,62.8442383 218.952641,63.0493144 218.10791,63.4594727 L217.734375,62.5292969 C218.129885,62.3144521 218.56323,62.1459967 219.034424,62.0239258 C219.505618,61.9018549 219.978025,61.8408203 220.45166,61.8408203 C221.408696,61.8408203 222.117918,62.0532205 222.579346,62.4780273 C223.040774,62.9028342 223.271484,63.5839797 223.271484,64.5214844 L223.271484,70 L222.370605,70 Z M219.624023,69.1430664 C220.380863,69.1430664 220.97534,68.935549 221.407471,68.5205078 C221.839602,68.1054667 222.055664,67.5244178 222.055664,66.7773438 L222.055664,66.0522461 L220.839844,66.1035156 C219.873042,66.1376955 219.176028,66.2878405 218.748779,66.5539551 C218.321531,66.8200697 218.10791,67.2338839 218.10791,67.7954102 C218.10791,68.2348655 218.240965,68.5693348 218.50708,68.7988281 C218.773195,69.0283215 219.145505,69.1430664 219.624023,69.1430664 Z M226.992188,70 L225.776367,70 L225.776367,58.6035156 L226.992188,58.6035156 L226.992188,70 Z M230.786133,70 L229.570312,70 L229.570312,58.6035156 L230.786133,58.6035156 L230.786133,70 Z M238.359375,67.0483398 L237.590332,67.0483398 L237.216797,59.2919922 L238.73291,59.2919922 L238.359375,67.0483398 Z M237.084961,69.2236328 C237.084961,68.559567 237.377927,68.2275391 237.963867,68.2275391 C238.247072,68.2275391 238.465575,68.3129874 238.619385,68.4838867 C238.773194,68.654786 238.850098,68.9013656 238.850098,69.2236328 C238.850098,69.5361344 238.771973,69.7790519 238.615723,69.9523926 C238.459472,70.1257333 238.242189,70.2124023 237.963867,70.2124023 C237.70996,70.2124023 237.500001,70.1354988 237.333984,69.9816895 C237.167968,69.8278801 237.084961,69.5751971 237.084961,69.2236328 Z" id="Salut,-bienvenue-sur-Copy" fill="#949595"></path>
                    <path d="M60.7709961,155 L53.7324219,155 L53.7324219,153.952637 L56.5522461,151.118164 C57.4116254,150.249019 57.978026,149.628908 58.2514648,149.257812 C58.5249037,148.886717 58.7299798,148.525392 58.8666992,148.173828 C59.0034187,147.822264 59.0717773,147.44385 59.0717773,147.038574 C59.0717773,146.467282 58.8984392,146.014406 58.5517578,145.679932 C58.2050764,145.345457 57.7241242,145.178223 57.1088867,145.178223 C56.6645486,145.178223 56.2434102,145.251464 55.845459,145.397949 C55.4475078,145.544434 55.004397,145.810545 54.5161133,146.196289 L53.871582,145.368652 C54.8579151,144.548336 55.9321231,144.138184 57.0942383,144.138184 C58.1001027,144.138184 58.888669,144.395749 59.4599609,144.910889 C60.0312529,145.426028 60.3168945,146.11816 60.3168945,146.987305 C60.3168945,147.666019 60.1264667,148.337399 59.7456055,149.001465 C59.3647442,149.665531 58.6518607,150.505366 57.6069336,151.520996 L55.2631836,153.813477 L55.2631836,153.87207 L60.7709961,153.87207 L60.7709961,155 Z" id="2-copy" fill="#949595"></path>
                    <path d="M37.74,156.782609 C33.06,152.782609 30,150.086957 30,146.782609 C30,144.086957 32.16,142 34.95,142 C36.48,142 38.01,142.695652 39,143.826087 C39.99,142.695652 41.52,142 43.05,142 C45.84,142 48,144.086957 48,146.782609 C48,150.086957 44.94,152.782609 40.26,156.782609 L39,158 L37.74,156.782609 Z" id="Like" fill="#DDDADA"></path>
                    <g id="Pastilles" transform="translate(161.000000, 141.000000)">
                        <g id="Pastille-Verte" fill="#00C3A6">
                            <circle id="Oval-2" cx="9" cy="9" r="6"></circle>
                        </g>
                        <g id="Pastille-Rouge" transform="translate(31.000000, 3.000000)" fill="#FC573C">
                            <circle id="Oval-2" cx="6" cy="6" r="6"></circle>
                        </g>
                        <g id="Pastille-Jaune" transform="translate(59.000000, 3.000000)" fill="#FFD800">
                            <circle id="Oval-2" cx="6" cy="6" r="6"></circle>
                        </g>
                        <g id="Pastille-Jaune" transform="translate(87.000000, 3.000000)" fill="#2CB4E8">
                            <circle id="Oval-2" cx="6" cy="6" r="6"></circle>
                        </g>
                    </g>
                    <path d="M29.4994939,123 L260.500541,123" id="Line" stroke="#F0F0F0" stroke-linecap="square"></path>
                    <g id="Close" transform="translate(263.000000, 17.000000)" fill="#BBBBBB">
                        <polygon id="Shape" points="10 1 9 0 5 4 1 0 0 1 4 5 0 9 1 10 5 6 9 10 10 9 6 5"></polygon>
                    </g>
                </g>
            </g>
        </g>
    </g>
</svg>