<?xml version="1.0" encoding="UTF-8" standalone="no"?>
<svg width="296px" height="245px" viewBox="0 0 296 245" version="1.1" xmlns="http://www.w3.org/2000/svg" xmlns:xlink="http://www.w3.org/1999/xlink">
    <!-- Generator: Sketch 41.2 (35397) - http://www.bohemiancoding.com/sketch -->
    <title>Bloc 02</title>
    <desc>Created with Sketch.</desc>
    <defs>
        <rect id="path-1" x="0" y="0" width="290" height="239" rx="4"></rect>
        <filter x="-50%" y="-50%" width="200%" height="200%" filterUnits="objectBoundingBox" id="filter-2">
            <feOffset dx="0" dy="2" in="SourceAlpha" result="shadowOffsetOuter1"></feOffset>
            <feGaussianBlur stdDeviation="1.5" in="shadowOffsetOuter1" result="shadowBlurOuter1"></feGaussianBlur>
            <feComposite in="shadowBlurOuter1" in2="SourceAlpha" operator="out" result="shadowBlurOuter1"></feComposite>
            <feColorMatrix values="0 0 0 0 0.823529412   0 0 0 0 0.854901961   0 0 0 0 0.905882353  0 0 0 0.45 0" type="matrix" in="shadowBlurOuter1"></feColorMatrix>
        </filter>
        <mask id="mask-3" maskContentUnits="userSpaceOnUse" maskUnits="objectBoundingBox" x="0" y="0" width="290" height="239" fill="white">
            <use xlink:href="#path-1"></use>
        </mask>
    </defs>
    <g id="Page-1" stroke="none" stroke-width="1" fill="none" fill-rule="evenodd">
        <g id="Desktop-HD" transform="translate(-130.000000, -571.000000)">
            <g id="PREMIERE-LAME" transform="translate(-155.000000, -21.000000)">
                <g id="Bloc-02" transform="translate(288.000000, 593.000000)">
                    <g id="Fond-Bloc-">
                        <use fill="black" fill-opacity="1" filter="url(#filter-2)" xlink:href="#path-1"></use>
                        <use stroke-opacity="0.198228034" stroke="#657077" mask="url(#mask-3)" stroke-width="2" fill="#FFFFFF" fill-rule="evenodd" xlink:href="#path-1"></use>
                    </g>
                    <path d="M60.3681641,207.811523 C60.3681641,208.495121 60.1765156,209.054197 59.7932129,209.48877 C59.4099102,209.923342 58.8667027,210.213866 58.1635742,210.360352 L58.1635742,210.418945 C59.0229535,210.526368 59.6601542,210.799802 60.0751953,211.239258 C60.4902365,211.678713 60.6977539,212.254879 60.6977539,212.967773 C60.6977539,213.988286 60.3437535,214.773191 59.6357422,215.32251 C58.9277308,215.871829 57.9218815,216.146484 56.6181641,216.146484 C56.051755,216.146484 55.5329613,216.10376 55.0617676,216.018311 C54.5905738,215.932861 54.1328147,215.782716 53.6884766,215.567871 L53.6884766,214.410645 C54.1523461,214.640138 54.6467259,214.814697 55.1716309,214.934326 C55.6965358,215.053956 56.193357,215.11377 56.6621094,215.11377 C58.5127046,215.11377 59.4379883,214.388679 59.4379883,212.938477 C59.4379883,211.639642 58.4174907,210.990234 56.3764648,210.990234 L55.3217773,210.990234 L55.3217773,209.942871 L56.3911133,209.942871 C57.2260784,209.942871 57.8876929,209.758547 58.3759766,209.389893 C58.8642603,209.021238 59.1083984,208.509769 59.1083984,207.855469 C59.1083984,207.333005 58.9289569,206.922853 58.5700684,206.625 C58.2111798,206.327147 57.7241242,206.178223 57.1088867,206.178223 C56.6401344,206.178223 56.1982443,206.241699 55.7832031,206.368652 C55.368162,206.495606 54.8945339,206.729979 54.3623047,207.071777 L53.7470703,206.251465 C54.1865256,205.904783 54.6931124,205.632569 55.2668457,205.434814 C55.840579,205.23706 56.444821,205.138184 57.0795898,205.138184 C58.1196341,205.138184 58.9277315,205.376218 59.5039062,205.852295 C60.080081,206.328372 60.3681641,206.981441 60.3681641,207.811523 Z" id="3-copy" fill="#949595"></path>
                    <path d="M37.74,216.782609 C33.06,212.782609 30,210.086957 30,206.782609 C30,204.086957 32.16,202 34.95,202 C36.48,202 38.01,202.695652 39,203.826087 C39.99,202.695652 41.52,202 43.05,202 C45.84,202 48,204.086957 48,206.782609 C48,210.086957 44.94,212.782609 40.26,216.782609 L39,218 L37.74,216.782609 Z" id="Like" fill="#DDDADA"></path>
                    <path d="M30.4994792,183 L270.5,183" id="Line" stroke="#F0F0F0" stroke-linecap="square"></path>
                    <path d="M52.203125,71 L50.8701172,67.5942383 L46.578125,67.5942383 L45.2597656,71 L44,71 L48.2333984,60.2480469 L49.2807617,60.2480469 L53.4921875,71 L52.203125,71 Z M50.4819336,66.4736328 L49.2368164,63.1557617 C49.0756828,62.7358377 48.9096688,62.2207062 48.7387695,61.6103516 C48.6313471,62.0791039 48.4775401,62.5942355 48.2773438,63.1557617 L47.0175781,66.4736328 L50.4819336,66.4736328 Z M56.5390625,71 L53.4921875,62.9726562 L54.7958984,62.9726562 L56.5244141,67.7333984 C56.915041,68.8466853 57.1445309,69.5693343 57.2128906,69.9013672 L57.2714844,69.9013672 C57.3251956,69.6425768 57.4948716,69.1066935 57.7805176,68.2937012 C58.0661635,67.4807088 58.7070263,65.7070449 59.703125,62.9726562 L61.0068359,62.9726562 L57.9599609,71 L56.5390625,71 Z M65.6870117,71.1464844 C64.5004823,71.1464844 63.5642124,70.7851599 62.8781738,70.0625 C62.1921352,69.3398401 61.8491211,68.3364322 61.8491211,67.0522461 C61.8491211,65.7582943 62.1677214,64.7304726 62.8049316,63.96875 C63.4421419,63.2070274 64.2978462,62.8261719 65.3720703,62.8261719 C66.3779347,62.8261719 67.1738252,63.1569791 67.7597656,63.8186035 C68.3457061,64.4802279 68.6386719,65.3530219 68.6386719,66.4370117 L68.6386719,67.2060547 L63.1088867,67.2060547 C63.1333009,68.1484422 63.3713356,68.8637671 63.822998,69.3520508 C64.2746605,69.8403345 64.9106404,70.0844727 65.730957,70.0844727 C66.5952192,70.0844727 67.4497028,69.9038104 68.2944336,69.5424805 L68.2944336,70.6264648 C67.8647439,70.8120126 67.4582539,70.945068 67.0749512,71.0256348 C66.6916485,71.1062016 66.2290066,71.1464844 65.6870117,71.1464844 Z M65.3574219,63.8442383 C64.7128874,63.8442383 64.1989765,64.0541971 63.8156738,64.4741211 C63.4323711,64.8940451 63.2065433,65.4750939 63.1381836,66.2172852 L67.3349609,66.2172852 C67.3349609,65.4506798 67.1640642,64.8635274 66.8222656,64.4558105 C66.480467,64.0480937 65.9921907,63.8442383 65.3574219,63.8442383 Z M73.9194336,71.1464844 C72.7573184,71.1464844 71.8576692,70.7888219 71.220459,70.0734863 C70.5832488,69.3581507 70.2646484,68.3461979 70.2646484,67.0375977 C70.2646484,65.6948175 70.5881315,64.6572302 71.2351074,63.9248047 C71.8820833,63.1923792 72.803705,62.8261719 74,62.8261719 C74.3857441,62.8261719 74.7714824,62.8676754 75.1572266,62.9506836 C75.5429707,63.0336918 75.845702,63.1313471 76.0654297,63.2436523 L75.6918945,64.2763672 C75.4233385,64.1689448 75.1303727,64.0798343 74.8129883,64.0090332 C74.4956039,63.9382321 74.214845,63.902832 73.9707031,63.902832 C72.3398356,63.902832 71.5244141,64.9428607 71.5244141,67.0229492 C71.5244141,68.0092823 71.7233867,68.7661106 72.1213379,69.293457 C72.5192891,69.8208034 73.1088828,70.0844727 73.8901367,70.0844727 C74.5590854,70.0844727 75.2451137,69.9404311 75.9482422,69.6523438 L75.9482422,70.7290039 C75.4111301,71.0073256 74.7348674,71.1464844 73.9194336,71.1464844 Z M81.9321289,71 L81.9321289,60.2919922 L83.1772461,60.2919922 L83.1772461,71 L81.9321289,71 Z M91.4243164,71 L91.4243164,65.8071289 C91.4243164,65.1528288 91.2753921,64.6645524 90.9775391,64.3422852 C90.679686,64.0200179 90.2133821,63.8588867 89.5786133,63.8588867 C88.7387653,63.8588867 88.1235371,64.0859352 87.7329102,64.5400391 C87.3422832,64.9941429 87.1469727,65.7436471 87.1469727,66.7885742 L87.1469727,71 L85.9311523,71 L85.9311523,62.9726562 L86.9199219,62.9726562 L87.1176758,64.0712891 L87.1762695,64.0712891 C87.4252942,63.6757793 87.7744118,63.3693859 88.2236328,63.1520996 C88.6728538,62.9348134 89.1733371,62.8261719 89.7250977,62.8261719 C90.6918994,62.8261719 91.4194312,63.0593238 91.9077148,63.5256348 C92.3959985,63.9919457 92.6401367,64.7377878 92.6401367,65.7631836 L92.6401367,71 L91.4243164,71 Z M101.692871,71 L100.220703,66.2905273 C100.127929,66.00244 99.9545911,65.3481496 99.7006836,64.3276367 L99.6420898,64.3276367 C99.4467764,65.1821332 99.2758796,65.8413063 99.1293945,66.3051758 L97.6132812,71 L96.2070312,71 L94.0170898,62.9726562 L95.2915039,62.9726562 C95.8090846,64.9892679 96.2033678,66.5248971 96.4743652,67.5795898 C96.7453627,68.6342826 96.9003904,69.3447247 96.9394531,69.7109375 L96.9980469,69.7109375 C97.0517581,69.4326158 97.1384271,69.072512 97.2580566,68.6306152 C97.3776861,68.1887185 97.4814449,67.8383802 97.5693359,67.5795898 L99.0415039,62.9726562 L100.359863,62.9726562 L101.79541,67.5795898 C102.068849,68.4194378 102.254394,69.1249971 102.352051,69.6962891 L102.410645,69.6962891 C102.430176,69.5205069 102.482666,69.2495135 102.568115,68.8833008 C102.653565,68.517088 103.162593,66.5468929 104.095215,62.9726562 L105.35498,62.9726562 L103.135742,71 L101.692871,71 Z M111.741699,71 L111.5,69.8574219 L111.441406,69.8574219 C111.041014,70.3603541 110.641848,70.7009268 110.243896,70.8791504 C109.845945,71.0573739 109.349124,71.1464844 108.753418,71.1464844 C107.957516,71.1464844 107.333742,70.9414083 106.88208,70.53125 C106.430418,70.1210917 106.20459,69.5376014 106.20459,68.7807617 C106.20459,67.1596599 107.500964,66.310059 110.09375,66.2319336 L111.456055,66.1879883 L111.456055,65.6899414 C111.456055,65.0600554 111.320558,64.5949722 111.049561,64.2946777 C110.778563,63.9943833 110.345218,63.8442383 109.749512,63.8442383 C109.080563,63.8442383 108.323735,64.0493144 107.479004,64.4594727 L107.105469,63.5292969 C107.500979,63.3144521 107.934324,63.1459967 108.405518,63.0239258 C108.876711,62.9018549 109.349119,62.8408203 109.822754,62.8408203 C110.77979,62.8408203 111.489011,63.0532205 111.950439,63.4780273 C112.411868,63.9028342 112.642578,64.5839797 112.642578,65.5214844 L112.642578,71 L111.741699,71 Z M108.995117,70.1430664 C109.751957,70.1430664 110.346433,69.935549 110.778564,69.5205078 C111.210696,69.1054667 111.426758,68.5244178 111.426758,67.7773438 L111.426758,67.0522461 L110.210938,67.1035156 C109.244136,67.1376955 108.547121,67.2878405 108.119873,67.5539551 C107.692625,67.8200697 107.479004,68.2338839 107.479004,68.7954102 C107.479004,69.2348655 107.612059,69.5693348 107.878174,69.7988281 C108.144288,70.0283215 108.516599,70.1430664 108.995117,70.1430664 Z M116.363281,71 L115.147461,71 L115.147461,59.6035156 L116.363281,59.6035156 L116.363281,71 Z M120.157227,71 L118.941406,71 L118.941406,59.6035156 L120.157227,59.6035156 L120.157227,71 Z M124.009766,69.2568359 L124.119629,69.425293 C123.992675,69.9135767 123.809572,70.4811979 123.570312,71.1281738 C123.331053,71.7751497 123.082033,72.3769503 122.823242,72.9335938 L121.907715,72.9335938 C122.039551,72.4257787 122.184814,71.7983436 122.343506,71.0512695 C122.502198,70.3041955 122.613281,69.7060569 122.676758,69.2568359 L124.009766,69.2568359 Z M133.926758,63.9174805 L131.883301,63.9174805 L131.883301,71 L130.66748,71 L130.66748,63.9174805 L129.231934,63.9174805 L129.231934,63.3681641 L130.66748,62.9287109 L130.66748,62.4819336 C130.66748,60.5092675 131.529288,59.5229492 133.25293,59.5229492 C133.677736,59.5229492 134.175778,59.6083976 134.74707,59.7792969 L134.432129,60.753418 C133.963377,60.60205 133.56299,60.5263672 133.230957,60.5263672 C132.77197,60.5263672 132.432618,60.6789536 132.212891,60.9841309 C131.993163,61.2893082 131.883301,61.7788052 131.883301,62.4526367 L131.883301,62.9726562 L133.926758,62.9726562 L133.926758,63.9174805 Z M140.328125,71 L140.086426,69.8574219 L140.027832,69.8574219 C139.627439,70.3603541 139.228273,70.7009268 138.830322,70.8791504 C138.432371,71.0573739 137.93555,71.1464844 137.339844,71.1464844 C136.543941,71.1464844 135.920168,70.9414083 135.468506,70.53125 C135.016843,70.1210917 134.791016,69.5376014 134.791016,68.7807617 C134.791016,67.1596599 136.087389,66.310059 138.680176,66.2319336 L140.04248,66.1879883 L140.04248,65.6899414 C140.04248,65.0600554 139.906984,64.5949722 139.635986,64.2946777 C139.364989,63.9943833 138.931644,63.8442383 138.335938,63.8442383 C137.666989,63.8442383 136.91016,64.0493144 136.06543,64.4594727 L135.691895,63.5292969 C136.087404,63.3144521 136.52075,63.1459967 136.991943,63.0239258 C137.463137,62.9018549 137.935545,62.8408203 138.40918,62.8408203 C139.366216,62.8408203 140.075437,63.0532205 140.536865,63.4780273 C140.998293,63.9028342 141.229004,64.5839797 141.229004,65.5214844 L141.229004,71 L140.328125,71 Z M137.581543,70.1430664 C138.338383,70.1430664 138.932859,69.935549 139.36499,69.5205078 C139.797121,69.1054667 140.013184,68.5244178 140.013184,67.7773438 L140.013184,67.0522461 L138.797363,67.1035156 C137.830562,67.1376955 137.133547,67.2878405 136.706299,67.5539551 C136.279051,67.8200697 136.06543,68.2338839 136.06543,68.7954102 C136.06543,69.2348655 136.198485,69.5693348 136.4646,69.7988281 C136.730714,70.0283215 137.103025,70.1430664 137.581543,70.1430664 Z M146.941895,71.1464844 C145.779779,71.1464844 144.88013,70.7888219 144.24292,70.0734863 C143.60571,69.3581507 143.287109,68.3461979 143.287109,67.0375977 C143.287109,65.6948175 143.610592,64.6572302 144.257568,63.9248047 C144.904544,63.1923792 145.826166,62.8261719 147.022461,62.8261719 C147.408205,62.8261719 147.793943,62.8676754 148.179688,62.9506836 C148.565432,63.0336918 148.868163,63.1313471 149.087891,63.2436523 L148.714355,64.2763672 C148.445799,64.1689448 148.152834,64.0798343 147.835449,64.0090332 C147.518065,63.9382321 147.237306,63.902832 146.993164,63.902832 C145.362297,63.902832 144.546875,64.9428607 144.546875,67.0229492 C144.546875,68.0092823 144.745848,68.7661106 145.143799,69.293457 C145.54175,69.8208034 146.131344,70.0844727 146.912598,70.0844727 C147.581546,70.0844727 148.267575,69.9404311 148.970703,69.6523438 L148.970703,70.7290039 C148.433591,71.0073256 147.757328,71.1464844 146.941895,71.1464844 Z M152.09082,71 L150.875,71 L150.875,62.9726562 L152.09082,62.9726562 L152.09082,71 Z M150.772461,60.7973633 C150.772461,60.5190416 150.84082,60.3151862 150.977539,60.185791 C151.114258,60.0563958 151.285155,59.9916992 151.490234,59.9916992 C151.685548,59.9916992 151.854003,60.0576165 151.995605,60.1894531 C152.137208,60.3212897 152.208008,60.5239244 152.208008,60.7973633 C152.208008,61.0708021 152.137208,61.2746575 151.995605,61.4089355 C151.854003,61.5432136 151.685548,61.6103516 151.490234,61.6103516 C151.285155,61.6103516 151.114258,61.5432136 150.977539,61.4089355 C150.84082,61.2746575 150.772461,61.0708021 150.772461,60.7973633 Z M155.884766,71 L154.668945,71 L154.668945,59.6035156 L155.884766,59.6035156 L155.884766,71 Z M159.678711,71 L158.462891,71 L158.462891,62.9726562 L159.678711,62.9726562 L159.678711,71 Z M158.360352,60.7973633 C158.360352,60.5190416 158.42871,60.3151862 158.56543,60.185791 C158.702149,60.0563958 158.873046,59.9916992 159.078125,59.9916992 C159.273438,59.9916992 159.441894,60.0576165 159.583496,60.1894531 C159.725098,60.3212897 159.795898,60.5239244 159.795898,60.7973633 C159.795898,61.0708021 159.725098,61.2746575 159.583496,61.4089355 C159.441894,61.5432136 159.273438,61.6103516 159.078125,61.6103516 C158.873046,61.6103516 158.702149,61.5432136 158.56543,61.4089355 C158.42871,61.2746575 158.360352,61.0708021 158.360352,60.7973633 Z M164.849609,70.1430664 C165.064454,70.1430664 165.271972,70.1271974 165.472168,70.095459 C165.672364,70.0637205 165.831054,70.0307619 165.948242,69.996582 L165.948242,70.9267578 C165.816406,70.9902347 165.622316,71.0427244 165.365967,71.0842285 C165.109618,71.1257326 164.878907,71.1464844 164.673828,71.1464844 C163.121086,71.1464844 162.344727,70.3286215 162.344727,68.6928711 L162.344727,63.9174805 L161.194824,63.9174805 L161.194824,63.331543 L162.344727,62.8261719 L162.857422,61.1123047 L163.560547,61.1123047 L163.560547,62.9726562 L165.889648,62.9726562 L165.889648,63.9174805 L163.560547,63.9174805 L163.560547,68.6416016 C163.560547,69.1250024 163.675292,69.4960925 163.904785,69.7548828 C164.134278,70.0136732 164.449217,70.1430664 164.849609,70.1430664 Z M170.943359,71.1464844 C169.75683,71.1464844 168.82056,70.7851599 168.134521,70.0625 C167.448483,69.3398401 167.105469,68.3364322 167.105469,67.0522461 C167.105469,65.7582943 167.424069,64.7304726 168.061279,63.96875 C168.69849,63.2070274 169.554194,62.8261719 170.628418,62.8261719 C171.634282,62.8261719 172.430173,63.1569791 173.016113,63.8186035 C173.602054,64.4802279 173.89502,65.3530219 173.89502,66.4370117 L173.89502,67.2060547 L168.365234,67.2060547 C168.389649,68.1484422 168.627683,68.8637671 169.079346,69.3520508 C169.531008,69.8403345 170.166988,70.0844727 170.987305,70.0844727 C171.851567,70.0844727 172.70605,69.9038104 173.550781,69.5424805 L173.550781,70.6264648 C173.121092,70.8120126 172.714602,70.945068 172.331299,71.0256348 C171.947996,71.1062016 171.485354,71.1464844 170.943359,71.1464844 Z M170.61377,63.8442383 C169.969235,63.8442383 169.455324,64.0541971 169.072021,64.4741211 C168.688719,64.8940451 168.462891,65.4750939 168.394531,66.2172852 L172.591309,66.2172852 C172.591309,65.4506798 172.420412,64.8635274 172.078613,64.4558105 C171.736815,64.0480937 171.248538,63.8442383 170.61377,63.8442383 Z M181.102051,71 L175.279297,71 L175.279297,70.1723633 L179.65918,63.9174805 L175.550293,63.9174805 L175.550293,62.9726562 L180.992188,62.9726562 L180.992188,63.9174805 L176.670898,70.0551758 L181.102051,70.0551758 L181.102051,71 Z M46.5048828,91 L45.2890625,91 L45.2890625,79.6035156 L46.5048828,79.6035156 L46.5048828,91 Z M50.0571289,80.2919922 L50.1669922,80.453125 C50.0400384,80.9414087 49.8569348,81.50903 49.6176758,82.1560059 C49.3784168,82.8029818 49.1293958,83.4047824 48.8706055,83.9614258 L47.9770508,83.9614258 C48.3188494,82.5698173 48.5678703,81.346685 48.7241211,80.2919922 L50.0571289,80.2919922 Z M55.0229492,91.1464844 C53.8364198,91.1464844 52.9001499,90.7851599 52.2141113,90.0625 C51.5280727,89.3398401 51.1850586,88.3364322 51.1850586,87.0522461 C51.1850586,85.7582943 51.5036589,84.7304726 52.1408691,83.96875 C52.7780794,83.2070274 53.6337837,82.8261719 54.7080078,82.8261719 C55.7138722,82.8261719 56.5097627,83.1569791 57.0957031,83.8186035 C57.6816436,84.4802279 57.9746094,85.3530219 57.9746094,86.4370117 L57.9746094,87.2060547 L52.4448242,87.2060547 C52.4692384,88.1484422 52.7072731,88.8637671 53.1589355,89.3520508 C53.610598,89.8403345 54.2465779,90.0844727 55.0668945,90.0844727 C55.9311567,90.0844727 56.7856403,89.9038104 57.6303711,89.5424805 L57.6303711,90.6264648 C57.2006814,90.8120126 56.7941914,90.945068 56.4108887,91.0256348 C56.027586,91.1062016 55.5649441,91.1464844 55.0229492,91.1464844 Z M54.6933594,83.8442383 C54.0488249,83.8442383 53.534914,84.0541971 53.1516113,84.4741211 C52.7683086,84.8940451 52.5424808,85.4750939 52.4741211,86.2172852 L56.6708984,86.2172852 C56.6708984,85.4506798 56.5000017,84.8635274 56.1582031,84.4558105 C55.8164045,84.0480937 55.3281282,83.8442383 54.6933594,83.8442383 Z M53.7924805,81.7275391 C54.0268566,81.4248032 54.2795397,81.0585959 54.5505371,80.6289062 C54.8215346,80.1992166 55.0351555,79.8256852 55.1914062,79.5083008 L56.6708984,79.5083008 L56.6708984,79.6621094 C56.4560536,79.9794938 56.1362326,80.3701149 55.7114258,80.8339844 C55.286619,81.2978539 54.9179703,81.656737 54.6054688,81.9106445 L53.7924805,81.9106445 L53.7924805,81.7275391 Z M63.2553711,91.1464844 C62.0932559,91.1464844 61.1936067,90.7888219 60.5563965,90.0734863 C59.9191863,89.3581507 59.6005859,88.3461979 59.6005859,87.0375977 C59.6005859,85.6948175 59.924069,84.6572302 60.5710449,83.9248047 C61.2180208,83.1923792 62.1396425,82.8261719 63.3359375,82.8261719 C63.7216816,82.8261719 64.1074199,82.8676754 64.4931641,82.9506836 C64.8789082,83.0336918 65.1816395,83.1313471 65.4013672,83.2436523 L65.027832,84.2763672 C64.759276,84.1689448 64.4663102,84.0798343 64.1489258,84.0090332 C63.8315414,83.9382321 63.5507825,83.902832 63.3066406,83.902832 C61.6757731,83.902832 60.8603516,84.9428607 60.8603516,87.0229492 C60.8603516,88.0092823 61.0593242,88.7661106 61.4572754,89.293457 C61.8552266,89.8208034 62.4448203,90.0844727 63.2260742,90.0844727 C63.8950229,90.0844727 64.5810512,89.9404311 65.2841797,89.6523438 L65.2841797,90.7290039 C64.7470676,91.0073256 64.0708049,91.1464844 63.2553711,91.1464844 Z M72.6816406,91 L72.6816406,85.8071289 C72.6816406,85.1528288 72.5327163,84.6645524 72.2348633,84.3422852 C71.9370102,84.0200179 71.4707063,83.8588867 70.8359375,83.8588867 C69.9912067,83.8588867 69.3747578,84.0883766 68.9865723,84.5473633 C68.5983867,85.00635 68.4042969,85.7582956 68.4042969,86.8032227 L68.4042969,91 L67.1884766,91 L67.1884766,79.6035156 L68.4042969,79.6035156 L68.4042969,83.0532227 C68.4042969,83.4682638 68.3847658,83.8124986 68.3457031,84.0859375 L68.4189453,84.0859375 C68.6582043,83.7001934 68.9987771,83.3962413 69.4406738,83.1740723 C69.8825706,82.9519032 70.3867159,82.8408203 70.953125,82.8408203 C71.9345752,82.8408203 72.6706518,83.0739723 73.161377,83.5402832 C73.6521021,84.0065941 73.8974609,84.7475535 73.8974609,85.7631836 L73.8974609,91 L72.6816406,91 Z M81.331543,91 L81.0898438,89.8574219 L81.03125,89.8574219 C80.6308574,90.3603541 80.2316914,90.7009268 79.8337402,90.8791504 C79.435789,91.0573739 78.9389678,91.1464844 78.3432617,91.1464844 C77.5473593,91.1464844 76.9235862,90.9414083 76.4719238,90.53125 C76.0202614,90.1210917 75.7944336,89.5376014 75.7944336,88.7807617 C75.7944336,87.1596599 77.0908073,86.310059 79.6835938,86.2319336 L81.0458984,86.1879883 L81.0458984,85.6899414 C81.0458984,85.0600554 80.9104017,84.5949722 80.6394043,84.2946777 C80.3684068,83.9943833 79.9350616,83.8442383 79.3393555,83.8442383 C78.6704068,83.8442383 77.9135784,84.0493144 77.0688477,84.4594727 L76.6953125,83.5292969 C77.0908223,83.3144521 77.5241676,83.1459967 77.9953613,83.0239258 C78.4665551,82.9018549 78.9389625,82.8408203 79.4125977,82.8408203 C80.3696337,82.8408203 81.0788551,83.0532205 81.5402832,83.4780273 C82.0017113,83.9028342 82.2324219,84.5839797 82.2324219,85.5214844 L82.2324219,91 L81.331543,91 Z M78.5849609,90.1430664 C79.3418007,90.1430664 79.9362771,89.935549 80.3684082,89.5205078 C80.8005393,89.1054667 81.0166016,88.5244178 81.0166016,87.7773438 L81.0166016,87.0522461 L79.8007812,87.1035156 C78.8339795,87.1376955 78.136965,87.2878405 77.7097168,87.5539551 C77.2824686,87.8200697 77.0688477,88.2338839 77.0688477,88.7954102 C77.0688477,89.2348655 77.201903,89.5693348 77.4680176,89.7988281 C77.7341322,90.0283215 78.1064429,90.1430664 78.5849609,90.1430664 Z M90.2304688,91 L90.2304688,85.8071289 C90.2304688,85.1528288 90.0815445,84.6645524 89.7836914,84.3422852 C89.4858384,84.0200179 89.0195344,83.8588867 88.3847656,83.8588867 C87.5449177,83.8588867 86.9296895,84.0859352 86.5390625,84.5400391 C86.1484355,84.9941429 85.953125,85.7436471 85.953125,86.7885742 L85.953125,91 L84.7373047,91 L84.7373047,82.9726562 L85.7260742,82.9726562 L85.9238281,84.0712891 L85.9824219,84.0712891 C86.2314466,83.6757793 86.5805642,83.3693859 87.0297852,83.1520996 C87.4790062,82.9348134 87.9794894,82.8261719 88.53125,82.8261719 C89.4980517,82.8261719 90.2255835,83.0593238 90.7138672,83.5256348 C91.2021509,83.9919457 91.4462891,84.7377878 91.4462891,85.7631836 L91.4462891,91 L90.2304688,91 Z M100.513672,82.9726562 L100.513672,83.7416992 L99.0268555,83.9174805 C99.1635749,84.0883798 99.285644,84.3117662 99.3930664,84.5876465 C99.5004888,84.8635268 99.5541992,85.174803 99.5541992,85.5214844 C99.5541992,86.3076211 99.2856472,86.9350563 98.7485352,87.4038086 C98.2114231,87.8725609 97.4741258,88.1069336 96.5366211,88.1069336 C96.2973621,88.1069336 96.072755,88.0874025 95.862793,88.0483398 C95.3452123,88.3217787 95.0864258,88.6660135 95.0864258,89.0810547 C95.0864258,89.3007823 95.1767569,89.4631342 95.3574219,89.5681152 C95.5380868,89.6730962 95.8481423,89.7255859 96.2875977,89.7255859 L97.7084961,89.7255859 C98.5776411,89.7255859 99.245359,89.9086896 99.7116699,90.2749023 C100.177981,90.6411151 100.411133,91.1733364 100.411133,91.871582 C100.411133,92.7602583 100.054691,93.4377418 99.3417969,93.9040527 C98.6289027,94.3703637 97.588874,94.6035156 96.2216797,94.6035156 C95.1718698,94.6035156 94.3625517,94.4082051 93.7937012,94.0175781 C93.2248507,93.6269512 92.9404297,93.0751989 92.9404297,92.3623047 C92.9404297,91.874021 93.0966781,91.4516619 93.4091797,91.0952148 C93.7216813,90.7387677 94.16113,90.4970709 94.7275391,90.3701172 C94.5224599,90.2773433 94.3503425,90.1333018 94.2111816,89.9379883 C94.0720208,89.7426748 94.0024414,89.5156263 94.0024414,89.2568359 C94.0024414,88.9638657 94.0805656,88.7075206 94.2368164,88.487793 C94.3930672,88.2680653 94.6396468,88.0556651 94.9765625,87.8505859 C94.5615214,87.6796866 94.22339,87.3891622 93.9621582,86.9790039 C93.7009264,86.5688456 93.5703125,86.1001003 93.5703125,85.5727539 C93.5703125,84.6938433 93.8339817,84.0163598 94.3613281,83.5402832 C94.8886745,83.0642066 95.6357374,82.8261719 96.6025391,82.8261719 C97.022463,82.8261719 97.4008772,82.8749995 97.737793,82.9726562 L100.513672,82.9726562 Z M94.1123047,92.3476562 C94.1123047,92.7822287 94.2954083,93.1118153 94.6616211,93.3364258 C95.0278339,93.5610363 95.552731,93.6733398 96.2363281,93.6733398 C97.256841,93.6733398 98.0124487,93.5207535 98.5031738,93.2155762 C98.9938989,92.9103989 99.2392578,92.4965846 99.2392578,91.9741211 C99.2392578,91.5395486 99.1049818,91.238038 98.8364258,91.0695801 C98.5678698,90.9011222 98.0625037,90.8168945 97.3203125,90.8168945 L95.862793,90.8168945 C95.3110324,90.8168945 94.8813492,90.9487292 94.5737305,91.2124023 C94.2661117,91.4760755 94.1123047,91.8544897 94.1123047,92.3476562 Z M94.7714844,85.543457 C94.7714844,86.1049833 94.9301742,86.5297837 95.2475586,86.8178711 C95.564943,87.1059585 96.0068331,87.25 96.5732422,87.25 C97.7597716,87.25 98.3530273,86.6738339 98.3530273,85.5214844 C98.3530273,84.3154237 97.7524474,83.7124023 96.5512695,83.7124023 C95.9799776,83.7124023 95.5405289,83.8662094 95.2329102,84.1738281 C94.9252914,84.4814469 94.7714844,84.9379853 94.7714844,85.543457 Z M105.552734,91.1464844 C104.366205,91.1464844 103.429935,90.7851599 102.743896,90.0625 C102.057858,89.3398401 101.714844,88.3364322 101.714844,87.0522461 C101.714844,85.7582943 102.033444,84.7304726 102.670654,83.96875 C103.307865,83.2070274 104.163569,82.8261719 105.237793,82.8261719 C106.243657,82.8261719 107.039548,83.1569791 107.625488,83.8186035 C108.211429,84.4802279 108.504395,85.3530219 108.504395,86.4370117 L108.504395,87.2060547 L102.974609,87.2060547 C102.999024,88.1484422 103.237058,88.8637671 103.688721,89.3520508 C104.140383,89.8403345 104.776363,90.0844727 105.59668,90.0844727 C106.460942,90.0844727 107.315425,89.9038104 108.160156,89.5424805 L108.160156,90.6264648 C107.730467,90.8120126 107.323977,90.945068 106.940674,91.0256348 C106.557371,91.1062016 106.094729,91.1464844 105.552734,91.1464844 Z M105.223145,83.8442383 C104.57861,83.8442383 104.064699,84.0541971 103.681396,84.4741211 C103.298094,84.8940451 103.072266,85.4750939 103.003906,86.2172852 L107.200684,86.2172852 C107.200684,85.4506798 107.029787,84.8635274 106.687988,84.4558105 C106.34619,84.0480937 105.857913,83.8442383 105.223145,83.8442383 Z M119.9375,89.9233398 L119.871582,89.9233398 C119.310056,90.7387736 118.47022,91.1464844 117.352051,91.1464844 C116.302241,91.1464844 115.485599,90.7876012 114.9021,90.0698242 C114.318601,89.3520472 114.026855,88.3315496 114.026855,87.0083008 C114.026855,85.685052 114.319821,84.6572302 114.905762,83.9248047 C115.491702,83.1923792 116.307124,82.8261719 117.352051,82.8261719 C118.440923,82.8261719 119.275876,83.2216757 119.856934,84.0126953 L119.952148,84.0126953 L119.900879,83.434082 L119.871582,82.8701172 L119.871582,79.6035156 L121.087402,79.6035156 L121.087402,91 L120.098633,91 L119.9375,89.9233398 Z M117.505859,90.128418 C118.335942,90.128418 118.937742,89.9025901 119.311279,89.4509277 C119.684816,88.9992653 119.871582,88.2705128 119.871582,87.2646484 L119.871582,87.0083008 C119.871582,85.8705998 119.682375,85.0588403 119.303955,84.572998 C118.925535,84.0871558 118.321293,83.8442383 117.491211,83.8442383 C116.778317,83.8442383 116.232668,84.1213351 115.854248,84.6755371 C115.475828,85.2297391 115.286621,86.012202 115.286621,87.0229492 C115.286621,88.048345 115.474607,88.822263 115.850586,89.3447266 C116.226564,89.8671901 116.778317,90.128418 117.505859,90.128418 Z M128.602051,91 L128.360352,89.8574219 L128.301758,89.8574219 C127.901365,90.3603541 127.502199,90.7009268 127.104248,90.8791504 C126.706297,91.0573739 126.209476,91.1464844 125.61377,91.1464844 C124.817867,91.1464844 124.194094,90.9414083 123.742432,90.53125 C123.290769,90.1210917 123.064941,89.5376014 123.064941,88.7807617 C123.064941,87.1596599 124.361315,86.310059 126.954102,86.2319336 L128.316406,86.1879883 L128.316406,85.6899414 C128.316406,85.0600554 128.18091,84.5949722 127.909912,84.2946777 C127.638915,83.9943833 127.205569,83.8442383 126.609863,83.8442383 C125.940915,83.8442383 125.184086,84.0493144 124.339355,84.4594727 L123.96582,83.5292969 C124.36133,83.3144521 124.794675,83.1459967 125.265869,83.0239258 C125.737063,82.9018549 126.20947,82.8408203 126.683105,82.8408203 C127.640142,82.8408203 128.349363,83.0532205 128.810791,83.4780273 C129.272219,83.9028342 129.50293,84.5839797 129.50293,85.5214844 L129.50293,91 L128.602051,91 Z M125.855469,90.1430664 C126.612308,90.1430664 127.206785,89.935549 127.638916,89.5205078 C128.071047,89.1054667 128.287109,88.5244178 128.287109,87.7773438 L128.287109,87.0522461 L127.071289,87.1035156 C126.104487,87.1376955 125.407473,87.2878405 124.980225,87.5539551 C124.552976,87.8200697 124.339355,88.2338839 124.339355,88.7954102 C124.339355,89.2348655 124.472411,89.5693348 124.738525,89.7988281 C125.00464,90.0283215 125.376951,90.1430664 125.855469,90.1430664 Z M137.500977,91 L137.500977,85.8071289 C137.500977,85.1528288 137.352052,84.6645524 137.054199,84.3422852 C136.756346,84.0200179 136.290042,83.8588867 135.655273,83.8588867 C134.815425,83.8588867 134.200197,84.0859352 133.80957,84.5400391 C133.418943,84.9941429 133.223633,85.7436471 133.223633,86.7885742 L133.223633,91 L132.007812,91 L132.007812,82.9726562 L132.996582,82.9726562 L133.194336,84.0712891 L133.25293,84.0712891 C133.501954,83.6757793 133.851072,83.3693859 134.300293,83.1520996 C134.749514,82.9348134 135.249997,82.8261719 135.801758,82.8261719 C136.76856,82.8261719 137.496091,83.0593238 137.984375,83.5256348 C138.472659,83.9919457 138.716797,84.7377878 138.716797,85.7631836 L138.716797,91 L137.500977,91 Z M146.392578,88.8100586 C146.392578,89.5571326 146.114261,90.1332988 145.557617,90.5385742 C145.000974,90.9438497 144.219732,91.1464844 143.213867,91.1464844 C142.149409,91.1464844 141.319339,90.978029 140.723633,90.6411133 L140.723633,89.5131836 C141.109377,89.7084971 141.523191,89.8623041 141.965088,89.9746094 C142.406985,90.0869146 142.833006,90.1430664 143.243164,90.1430664 C143.877933,90.1430664 144.366209,90.0417491 144.708008,89.8391113 C145.049806,89.6364736 145.220703,89.3276388 145.220703,88.9125977 C145.220703,88.6000961 145.085206,88.3327648 144.814209,88.1105957 C144.543212,87.8884266 144.014652,87.6259781 143.228516,87.3232422 C142.481442,87.0449205 141.950441,86.802003 141.635498,86.5944824 C141.320555,86.3869619 141.086182,86.1513685 140.932373,85.8876953 C140.778564,85.6240221 140.70166,85.3090839 140.70166,84.9428711 C140.70166,84.2885709 140.967771,83.7722187 141.5,83.3937988 C142.032229,83.015379 142.762202,82.8261719 143.689941,82.8261719 C144.554204,82.8261719 145.398922,83.0019514 146.224121,83.3535156 L145.791992,84.3422852 C144.986324,84.0102522 144.256351,83.8442383 143.602051,83.8442383 C143.025876,83.8442383 142.59131,83.9345694 142.29834,84.1152344 C142.00537,84.2958993 141.858887,84.5449203 141.858887,84.8623047 C141.858887,85.0771495 141.913818,85.2602531 142.023682,85.4116211 C142.133545,85.562989 142.310546,85.7070306 142.554688,85.84375 C142.798829,85.9804694 143.267575,86.1782214 143.960938,86.4370117 C144.913091,86.7836931 145.556395,87.1328107 145.890869,87.484375 C146.225343,87.8359393 146.392578,88.2778294 146.392578,88.8100586 Z M154.024414,91 L150.977539,82.9726562 L152.28125,82.9726562 L154.009766,87.7333984 C154.400393,88.8466853 154.629882,89.5693343 154.698242,89.9013672 L154.756836,89.9013672 C154.810547,89.6425768 154.980223,89.1066935 155.265869,88.2937012 C155.551515,87.4807088 156.192378,85.7070449 157.188477,82.9726562 L158.492188,82.9726562 L155.445312,91 L154.024414,91 Z M166.709961,86.9790039 C166.709961,88.2876042 166.380374,89.3093225 165.721191,90.0441895 C165.062008,90.7790564 164.151373,91.1464844 162.989258,91.1464844 C162.271481,91.1464844 161.63428,90.978029 161.077637,90.6411133 C160.520993,90.3041975 160.09131,89.8208039 159.788574,89.190918 C159.485838,88.561032 159.334473,87.8237347 159.334473,86.9790039 C159.334473,85.6704036 159.661618,84.6511267 160.315918,83.9211426 C160.970218,83.1911585 161.878412,82.8261719 163.040527,82.8261719 C164.16358,82.8261719 165.055905,83.1997033 165.717529,83.9467773 C166.379154,84.6938514 166.709961,85.7045835 166.709961,86.9790039 Z M160.594238,86.9790039 C160.594238,88.0043997 160.799314,88.7856418 161.209473,89.3227539 C161.619631,89.859866 162.222652,90.128418 163.018555,90.128418 C163.814457,90.128418 164.418699,89.8610867 164.831299,89.326416 C165.243899,88.7917454 165.450195,88.0092825 165.450195,86.9790039 C165.450195,85.958491 165.243899,85.1833523 164.831299,84.6535645 C164.418699,84.1237766 163.809574,83.8588867 163.003906,83.8588867 C162.208004,83.8588867 161.607424,84.1201146 161.202148,84.6425781 C160.796873,85.1650417 160.594238,85.9438425 160.594238,86.9790039 Z M174.019531,88.8100586 C174.019531,89.5571326 173.741214,90.1332988 173.18457,90.5385742 C172.627927,90.9438497 171.846685,91.1464844 170.84082,91.1464844 C169.776362,91.1464844 168.946292,90.978029 168.350586,90.6411133 L168.350586,89.5131836 C168.73633,89.7084971 169.150144,89.8623041 169.592041,89.9746094 C170.033938,90.0869146 170.459959,90.1430664 170.870117,90.1430664 C171.504886,90.1430664 171.993162,90.0417491 172.334961,89.8391113 C172.67676,89.6364736 172.847656,89.3276388 172.847656,88.9125977 C172.847656,88.6000961 172.71216,88.3327648 172.441162,88.1105957 C172.170165,87.8884266 171.641605,87.6259781 170.855469,87.3232422 C170.108395,87.0449205 169.577394,86.802003 169.262451,86.5944824 C168.947508,86.3869619 168.713136,86.1513685 168.559326,85.8876953 C168.405517,85.6240221 168.328613,85.3090839 168.328613,84.9428711 C168.328613,84.2885709 168.594724,83.7722187 169.126953,83.3937988 C169.659182,83.015379 170.389156,82.8261719 171.316895,82.8261719 C172.181157,82.8261719 173.025875,83.0019514 173.851074,83.3535156 L173.418945,84.3422852 C172.613277,84.0102522 171.883304,83.8442383 171.229004,83.8442383 C170.652829,83.8442383 170.218263,83.9345694 169.925293,84.1152344 C169.632323,84.2958993 169.48584,84.5449203 169.48584,84.8623047 C169.48584,85.0771495 169.540771,85.2602531 169.650635,85.4116211 C169.760499,85.562989 169.937499,85.7070306 170.181641,85.84375 C170.425782,85.9804694 170.894528,86.1782214 171.587891,86.4370117 C172.540044,86.7836931 173.183348,87.1328107 173.517822,87.484375 C173.852297,87.8359393 174.019531,88.2778294 174.019531,88.8100586 Z M183.555664,82.8261719 C183.912111,82.8261719 184.231932,82.8554685 184.515137,82.9140625 L184.34668,84.0419922 C184.014647,83.9687496 183.721681,83.9321289 183.467773,83.9321289 C182.818356,83.9321289 182.262942,84.1957981 181.801514,84.7231445 C181.340086,85.2504909 181.109375,85.9072226 181.109375,86.6933594 L181.109375,91 L179.893555,91 L179.893555,82.9726562 L180.896973,82.9726562 L181.036133,84.4594727 L181.094727,84.4594727 C181.39258,83.9370091 181.751463,83.5341811 182.171387,83.2509766 C182.591311,82.967772 183.052732,82.8261719 183.555664,82.8261719 Z M189.407715,91.1464844 C188.221185,91.1464844 187.284916,90.7851599 186.598877,90.0625 C185.912838,89.3398401 185.569824,88.3364322 185.569824,87.0522461 C185.569824,85.7582943 185.888425,84.7304726 186.525635,83.96875 C187.162845,83.2070274 188.018549,82.8261719 189.092773,82.8261719 C190.098638,82.8261719 190.894528,83.1569791 191.480469,83.8186035 C192.066409,84.4802279 192.359375,85.3530219 192.359375,86.4370117 L192.359375,87.2060547 L186.82959,87.2060547 C186.854004,88.1484422 187.092039,88.8637671 187.543701,89.3520508 C187.995364,89.8403345 188.631344,90.0844727 189.45166,90.0844727 C190.315922,90.0844727 191.170406,89.9038104 192.015137,89.5424805 L192.015137,90.6264648 C191.585447,90.8120126 191.178957,90.945068 190.795654,91.0256348 C190.412352,91.1062016 189.94971,91.1464844 189.407715,91.1464844 Z M189.078125,83.8442383 C188.433591,83.8442383 187.91968,84.0541971 187.536377,84.4741211 C187.153074,84.8940451 186.927246,85.4750939 186.858887,86.2172852 L191.055664,86.2172852 C191.055664,85.4506798 190.884767,84.8635274 190.542969,84.4558105 C190.20117,84.0480937 189.712894,83.8442383 189.078125,83.8442383 Z M188.177246,81.7275391 C188.411622,81.4248032 188.664305,81.0585959 188.935303,80.6289062 C189.2063,80.1992166 189.419921,79.8256852 189.576172,79.5083008 L191.055664,79.5083008 L191.055664,79.6621094 C190.840819,79.9794938 190.520998,80.3701149 190.096191,80.8339844 C189.671385,81.2978539 189.302736,81.656737 188.990234,81.9106445 L188.177246,81.9106445 L188.177246,81.7275391 Z M195.574707,82.9726562 L195.574707,88.1801758 C195.574707,88.8344759 195.723631,89.3227523 196.021484,89.6450195 C196.319337,89.9672868 196.785641,90.128418 197.42041,90.128418 C198.260258,90.128418 198.874266,89.8989281 199.262451,89.4399414 C199.650637,88.9809547 199.844727,88.2314505 199.844727,87.1914062 L199.844727,82.9726562 L201.060547,82.9726562 L201.060547,91 L200.057129,91 L199.881348,89.9233398 L199.81543,89.9233398 C199.566405,90.3188496 199.220949,90.621581 198.779053,90.831543 C198.337156,91.041505 197.833011,91.1464844 197.266602,91.1464844 C196.290034,91.1464844 195.55884,90.9145531 195.072998,90.4506836 C194.587156,89.9868141 194.344238,89.244634 194.344238,88.2241211 L194.344238,82.9726562 L195.574707,82.9726562 Z M209.131836,91 L209.131836,85.8071289 C209.131836,85.1528288 208.982912,84.6645524 208.685059,84.3422852 C208.387206,84.0200179 207.920902,83.8588867 207.286133,83.8588867 C206.446285,83.8588867 205.831057,84.0859352 205.44043,84.5400391 C205.049803,84.9941429 204.854492,85.7436471 204.854492,86.7885742 L204.854492,91 L203.638672,91 L203.638672,82.9726562 L204.627441,82.9726562 L204.825195,84.0712891 L204.883789,84.0712891 C205.132814,83.6757793 205.481931,83.3693859 205.931152,83.1520996 C206.380373,82.9348134 206.880857,82.8261719 207.432617,82.8261719 C208.399419,82.8261719 209.126951,83.0593238 209.615234,83.5256348 C210.103518,83.9919457 210.347656,84.7377878 210.347656,85.7631836 L210.347656,91 L209.131836,91 Z M214.061035,91 L212.845215,91 L212.845215,82.9726562 L214.061035,82.9726562 L214.061035,91 Z M212.742676,80.7973633 C212.742676,80.5190416 212.811034,80.3151862 212.947754,80.185791 C213.084473,80.0563958 213.25537,79.9916992 213.460449,79.9916992 C213.655763,79.9916992 213.824218,80.0576165 213.96582,80.1894531 C214.107423,80.3212897 214.178223,80.5239244 214.178223,80.7973633 C214.178223,81.0708021 214.107423,81.2746575 213.96582,81.4089355 C213.824218,81.5432136 213.655763,81.6103516 213.460449,81.6103516 C213.25537,81.6103516 213.084473,81.5432136 212.947754,81.4089355 C212.811034,81.2746575 212.742676,81.0708021 212.742676,80.7973633 Z M223.567871,86.9790039 C223.567871,88.2876042 223.238285,89.3093225 222.579102,90.0441895 C221.919919,90.7790564 221.009283,91.1464844 219.847168,91.1464844 C219.129391,91.1464844 218.49219,90.978029 217.935547,90.6411133 C217.378903,90.3041975 216.94922,89.8208039 216.646484,89.190918 C216.343748,88.561032 216.192383,87.8237347 216.192383,86.9790039 C216.192383,85.6704036 216.519528,84.6511267 217.173828,83.9211426 C217.828128,83.1911585 218.736322,82.8261719 219.898438,82.8261719 C221.02149,82.8261719 221.913815,83.1997033 222.575439,83.9467773 C223.237064,84.6938514 223.567871,85.7045835 223.567871,86.9790039 Z M217.452148,86.9790039 C217.452148,88.0043997 217.657225,88.7856418 218.067383,89.3227539 C218.477541,89.859866 219.080562,90.128418 219.876465,90.128418 C220.672367,90.128418 221.276609,89.8610867 221.689209,89.326416 C222.101809,88.7917454 222.308105,88.0092825 222.308105,86.9790039 C222.308105,85.958491 222.101809,85.1833523 221.689209,84.6535645 C221.276609,84.1237766 220.667484,83.8588867 219.861816,83.8588867 C219.065914,83.8588867 218.465334,84.1201146 218.060059,84.6425781 C217.654783,85.1650417 217.452148,85.9438425 217.452148,86.9790039 Z M231.192383,91 L231.192383,85.8071289 C231.192383,85.1528288 231.043459,84.6645524 230.745605,84.3422852 C230.447752,84.0200179 229.981448,83.8588867 229.34668,83.8588867 C228.506832,83.8588867 227.891604,84.0859352 227.500977,84.5400391 C227.11035,84.9941429 226.915039,85.7436471 226.915039,86.7885742 L226.915039,91 L225.699219,91 L225.699219,82.9726562 L226.687988,82.9726562 L226.885742,84.0712891 L226.944336,84.0712891 C227.193361,83.6757793 227.542478,83.3693859 227.991699,83.1520996 C228.44092,82.9348134 228.941403,82.8261719 229.493164,82.8261719 C230.459966,82.8261719 231.187498,83.0593238 231.675781,83.5256348 C232.164065,83.9919457 232.408203,84.7377878 232.408203,85.7631836 L232.408203,91 L231.192383,91 Z M240.083984,88.8100586 C240.083984,89.5571326 239.805667,90.1332988 239.249023,90.5385742 C238.69238,90.9438497 237.911138,91.1464844 236.905273,91.1464844 C235.840815,91.1464844 235.010745,90.978029 234.415039,90.6411133 L234.415039,89.5131836 C234.800783,89.7084971 235.214597,89.8623041 235.656494,89.9746094 C236.098391,90.0869146 236.524412,90.1430664 236.93457,90.1430664 C237.569339,90.1430664 238.057615,90.0417491 238.399414,89.8391113 C238.741213,89.6364736 238.912109,89.3276388 238.912109,88.9125977 C238.912109,88.6000961 238.776613,88.3327648 238.505615,88.1105957 C238.234618,87.8884266 237.706059,87.6259781 236.919922,87.3232422 C236.172848,87.0449205 235.641847,86.802003 235.326904,86.5944824 C235.011961,86.3869619 234.777589,86.1513685 234.623779,85.8876953 C234.46997,85.6240221 234.393066,85.3090839 234.393066,84.9428711 C234.393066,84.2885709 234.659177,83.7722187 235.191406,83.3937988 C235.723635,83.015379 236.453609,82.8261719 237.381348,82.8261719 C238.24561,82.8261719 239.090328,83.0019514 239.915527,83.3535156 L239.483398,84.3422852 C238.67773,84.0102522 237.947757,83.8442383 237.293457,83.8442383 C236.717282,83.8442383 236.282716,83.9345694 235.989746,84.1152344 C235.696776,84.2958993 235.550293,84.5449203 235.550293,84.8623047 C235.550293,85.0771495 235.605224,85.2602531 235.715088,85.4116211 C235.824952,85.562989 236.001952,85.7070306 236.246094,85.84375 C236.490236,85.9804694 236.958981,86.1782214 237.652344,86.4370117 C238.604497,86.7836931 239.247801,87.1328107 239.582275,87.484375 C239.91675,87.8359393 240.083984,88.2778294 240.083984,88.8100586 Z M243.335938,89.2568359 L243.445801,89.425293 C243.318847,89.9135767 243.135743,90.4811979 242.896484,91.1281738 C242.657225,91.7751497 242.408204,92.3769503 242.149414,92.9335938 L241.233887,92.9335938 C241.365723,92.4257787 241.510986,91.7983436 241.669678,91.0512695 C241.82837,90.3041955 241.939453,89.7060569 242.00293,89.2568359 L243.335938,89.2568359 Z M48.4970703,111.146484 C47.3349551,111.146484 46.4353059,110.788822 45.7980957,110.073486 C45.1608855,109.358151 44.8422852,108.346198 44.8422852,107.037598 C44.8422852,105.694818 45.1657682,104.65723 45.8127441,103.924805 C46.45972,103.192379 47.3813417,102.826172 48.5776367,102.826172 C48.9633808,102.826172 49.3491192,102.867675 49.7348633,102.950684 C50.1206074,103.033692 50.4233387,103.131347 50.6430664,103.243652 L50.2695312,104.276367 C50.0009752,104.168945 49.7080094,104.079834 49.390625,104.009033 C49.0732406,103.938232 48.7924817,103.902832 48.5483398,103.902832 C46.9174723,103.902832 46.1020508,104.942861 46.1020508,107.022949 C46.1020508,108.009282 46.3010234,108.766111 46.6989746,109.293457 C47.0969258,109.820803 47.6865195,110.084473 48.4677734,110.084473 C49.1367221,110.084473 49.8227504,109.940431 50.5258789,109.652344 L50.5258789,110.729004 C49.9887668,111.007326 49.3125041,111.146484 48.4970703,111.146484 Z M59.3588867,106.979004 C59.3588867,108.287604 59.0293002,109.309322 58.3701172,110.044189 C57.7109342,110.779056 56.8002988,111.146484 55.6381836,111.146484 C54.9204066,111.146484 54.2832059,110.978029 53.7265625,110.641113 C53.1699191,110.304198 52.7402359,109.820804 52.4375,109.190918 C52.1347641,108.561032 51.9833984,107.823735 51.9833984,106.979004 C51.9833984,105.670404 52.3105436,104.651127 52.9648438,103.921143 C53.6191439,103.191158 54.5273379,102.826172 55.6894531,102.826172 C56.8125056,102.826172 57.7048307,103.199703 58.3664551,103.946777 C59.0280795,104.693851 59.3588867,105.704583 59.3588867,106.979004 Z M53.2431641,106.979004 C53.2431641,108.0044 53.4482401,108.785642 53.8583984,109.322754 C54.2685567,109.859866 54.8715781,110.128418 55.6674805,110.128418 C56.4633829,110.128418 57.0676249,109.861087 57.4802246,109.326416 C57.8928243,108.791745 58.0991211,108.009282 58.0991211,106.979004 C58.0991211,105.958491 57.8928243,105.183352 57.4802246,104.653564 C57.0676249,104.123777 56.4585001,103.858887 55.652832,103.858887 C54.8569296,103.858887 54.2563497,104.120115 53.8510742,104.642578 C53.4457988,105.165042 53.2431641,105.943842 53.2431641,106.979004 Z M66.9833984,111 L66.9833984,105.807129 C66.9833984,105.152829 66.8344741,104.664552 66.5366211,104.342285 C66.238768,104.020018 65.7724641,103.858887 65.1376953,103.858887 C64.2978474,103.858887 63.6826191,104.085935 63.2919922,104.540039 C62.9013652,104.994143 62.7060547,105.743647 62.7060547,106.788574 L62.7060547,111 L61.4902344,111 L61.4902344,102.972656 L62.4790039,102.972656 L62.6767578,104.071289 L62.7353516,104.071289 C62.9843762,103.675779 63.3334938,103.369386 63.7827148,103.1521 C64.2319358,102.934813 64.7324191,102.826172 65.2841797,102.826172 C66.2509814,102.826172 66.9785132,103.059324 67.4667969,103.525635 C67.9550806,103.991946 68.1992188,104.737788 68.1992188,105.763184 L68.1992188,111 L66.9833984,111 Z M74.3149414,103.91748 L72.2714844,103.91748 L72.2714844,111 L71.0556641,111 L71.0556641,103.91748 L69.6201172,103.91748 L69.6201172,103.368164 L71.0556641,102.928711 L71.0556641,102.481934 C71.0556641,100.509267 71.9174719,99.5229492 73.6411133,99.5229492 C74.0659201,99.5229492 74.563962,99.6083976 75.1352539,99.7792969 L74.8203125,100.753418 C74.3515602,100.60205 73.9511735,100.526367 73.6191406,100.526367 C73.160154,100.526367 72.8208019,100.678954 72.6010742,100.984131 C72.3813466,101.289308 72.2714844,101.778805 72.2714844,102.452637 L72.2714844,102.972656 L74.3149414,102.972656 L74.3149414,103.91748 Z M79.1708984,111.146484 C77.9843691,111.146484 77.0480991,110.78516 76.3620605,110.0625 C75.676022,109.33984 75.3330078,108.336432 75.3330078,107.052246 C75.3330078,105.758294 75.6516081,104.730473 76.2888184,103.96875 C76.9260286,103.207027 77.7817329,102.826172 78.855957,102.826172 C79.8618214,102.826172 80.6577119,103.156979 81.2436523,103.818604 C81.8295928,104.480228 82.1225586,105.353022 82.1225586,106.437012 L82.1225586,107.206055 L76.5927734,107.206055 C76.6171876,108.148442 76.8552224,108.863767 77.3068848,109.352051 C77.7585472,109.840334 78.3945271,110.084473 79.2148438,110.084473 C80.0791059,110.084473 80.9335895,109.90381 81.7783203,109.54248 L81.7783203,110.626465 C81.3486307,110.812013 80.9421406,110.945068 80.5588379,111.025635 C80.1755352,111.106202 79.7128933,111.146484 79.1708984,111.146484 Z M78.8413086,103.844238 C78.1967741,103.844238 77.6828632,104.054197 77.2995605,104.474121 C76.9162578,104.894045 76.69043,105.475094 76.6220703,106.217285 L80.8188477,106.217285 C80.8188477,105.45068 80.6479509,104.863527 80.3061523,104.455811 C79.9643538,104.048094 79.4760774,103.844238 78.8413086,103.844238 Z M77.9404297,101.727539 C78.1748059,101.424803 78.4274889,101.058596 78.6984863,100.628906 C78.9694838,100.199217 79.1831047,99.8256852 79.3393555,99.5083008 L80.8188477,99.5083008 L80.8188477,99.6621094 C80.6040028,99.9794938 80.2841818,100.370115 79.859375,100.833984 C79.4345682,101.297854 79.0659195,101.656737 78.753418,101.910645 L77.9404297,101.910645 L77.9404297,101.727539 Z M87.8574219,102.826172 C88.213869,102.826172 88.53369,102.855468 88.8168945,102.914062 L88.6484375,104.041992 C88.3164046,103.96875 88.0234388,103.932129 87.7695312,103.932129 C87.1201139,103.932129 86.5646996,104.195798 86.1032715,104.723145 C85.6418434,105.250491 85.4111328,105.907223 85.4111328,106.693359 L85.4111328,111 L84.1953125,111 L84.1953125,102.972656 L85.1987305,102.972656 L85.3378906,104.459473 L85.3964844,104.459473 C85.6943374,103.937009 86.0532206,103.534181 86.4731445,103.250977 C86.8930685,102.967772 87.3544897,102.826172 87.8574219,102.826172 Z M93.7094727,111.146484 C92.5229433,111.146484 91.5866734,110.78516 90.9006348,110.0625 C90.2145962,109.33984 89.871582,108.336432 89.871582,107.052246 C89.871582,105.758294 90.1901824,104.730473 90.8273926,103.96875 C91.4646028,103.207027 92.3203071,102.826172 93.3945312,102.826172 C94.4003957,102.826172 95.1962861,103.156979 95.7822266,103.818604 C96.368167,104.480228 96.6611328,105.353022 96.6611328,106.437012 L96.6611328,107.206055 L91.1313477,107.206055 C91.1557618,108.148442 91.3937966,108.863767 91.845459,109.352051 C92.2971214,109.840334 92.9331014,110.084473 93.753418,110.084473 C94.6176801,110.084473 95.4721637,109.90381 96.3168945,109.54248 L96.3168945,110.626465 C95.8872049,110.812013 95.4807148,110.945068 95.0974121,111.025635 C94.7141094,111.106202 94.2514676,111.146484 93.7094727,111.146484 Z M93.3798828,103.844238 C92.7353483,103.844238 92.2214375,104.054197 91.8381348,104.474121 C91.4548321,104.894045 91.2290042,105.475094 91.1606445,106.217285 L95.3574219,106.217285 C95.3574219,105.45068 95.1865251,104.863527 94.8447266,104.455811 C94.502928,104.048094 94.0146516,103.844238 93.3798828,103.844238 Z M104.227051,111 L104.227051,105.807129 C104.227051,105.152829 104.078126,104.664552 103.780273,104.342285 C103.48242,104.020018 103.016116,103.858887 102.381348,103.858887 C101.5415,103.858887 100.926271,104.085935 100.535645,104.540039 C100.145018,104.994143 99.949707,105.743647 99.949707,106.788574 L99.949707,111 L98.7338867,111 L98.7338867,102.972656 L99.7226562,102.972656 L99.9204102,104.071289 L99.9790039,104.071289 C100.228029,103.675779 100.577146,103.369386 101.026367,103.1521 C101.475588,102.934813 101.976071,102.826172 102.527832,102.826172 C103.494634,102.826172 104.222166,103.059324 104.710449,103.525635 C105.198733,103.991946 105.442871,104.737788 105.442871,105.763184 L105.442871,111 L104.227051,111 Z M111.148438,111.146484 C109.986322,111.146484 109.086673,110.788822 108.449463,110.073486 C107.812253,109.358151 107.493652,108.346198 107.493652,107.037598 C107.493652,105.694818 107.817135,104.65723 108.464111,103.924805 C109.111087,103.192379 110.032709,102.826172 111.229004,102.826172 C111.614748,102.826172 112.000486,102.867675 112.38623,102.950684 C112.771975,103.033692 113.074706,103.131347 113.294434,103.243652 L112.920898,104.276367 C112.652342,104.168945 112.359377,104.079834 112.041992,104.009033 C111.724608,103.938232 111.443849,103.902832 111.199707,103.902832 C109.56884,103.902832 108.753418,104.942861 108.753418,107.022949 C108.753418,108.009282 108.952391,108.766111 109.350342,109.293457 C109.748293,109.820803 110.337887,110.084473 111.119141,110.084473 C111.788089,110.084473 112.474118,109.940431 113.177246,109.652344 L113.177246,110.729004 C112.640134,111.007326 111.963871,111.146484 111.148438,111.146484 Z M118.472656,111.146484 C117.286127,111.146484 116.349857,110.78516 115.663818,110.0625 C114.97778,109.33984 114.634766,108.336432 114.634766,107.052246 C114.634766,105.758294 114.953366,104.730473 115.590576,103.96875 C116.227786,103.207027 117.083491,102.826172 118.157715,102.826172 C119.163579,102.826172 119.95947,103.156979 120.54541,103.818604 C121.131351,104.480228 121.424316,105.353022 121.424316,106.437012 L121.424316,107.206055 L115.894531,107.206055 C115.918945,108.148442 116.15698,108.863767 116.608643,109.352051 C117.060305,109.840334 117.696285,110.084473 118.516602,110.084473 C119.380864,110.084473 120.235347,109.90381 121.080078,109.54248 L121.080078,110.626465 C120.650388,110.812013 120.243898,110.945068 119.860596,111.025635 C119.477293,111.106202 119.014651,111.146484 118.472656,111.146484 Z M118.143066,103.844238 C117.498532,103.844238 116.984621,104.054197 116.601318,104.474121 C116.218016,104.894045 115.992188,105.475094 115.923828,106.217285 L120.120605,106.217285 C120.120605,105.45068 119.949709,104.863527 119.60791,104.455811 C119.266112,104.048094 118.777835,103.844238 118.143066,103.844238 Z M128.675293,108.810059 C128.675293,109.557133 128.396975,110.133299 127.840332,110.538574 C127.283689,110.94385 126.502446,111.146484 125.496582,111.146484 C124.432124,111.146484 123.602054,110.978029 123.006348,110.641113 L123.006348,109.513184 C123.392092,109.708497 123.805906,109.862304 124.247803,109.974609 C124.689699,110.086915 125.115721,110.143066 125.525879,110.143066 C126.160648,110.143066 126.648924,110.041749 126.990723,109.839111 C127.332521,109.636474 127.503418,109.327639 127.503418,108.912598 C127.503418,108.600096 127.367921,108.332765 127.096924,108.110596 C126.825926,107.888427 126.297367,107.625978 125.51123,107.323242 C124.764156,107.04492 124.233156,106.802003 123.918213,106.594482 C123.60327,106.386962 123.368897,106.151369 123.215088,105.887695 C123.061279,105.624022 122.984375,105.309084 122.984375,104.942871 C122.984375,104.288571 123.250486,103.772219 123.782715,103.393799 C124.314944,103.015379 125.044917,102.826172 125.972656,102.826172 C126.836918,102.826172 127.681636,103.001951 128.506836,103.353516 L128.074707,104.342285 C127.269039,104.010252 126.539066,103.844238 125.884766,103.844238 C125.308591,103.844238 124.874025,103.934569 124.581055,104.115234 C124.288084,104.295899 124.141602,104.54492 124.141602,104.862305 C124.141602,105.07715 124.196533,105.260253 124.306396,105.411621 C124.41626,105.562989 124.59326,105.707031 124.837402,105.84375 C125.081544,105.980469 125.55029,106.178221 126.243652,106.437012 C127.195806,106.783693 127.83911,107.132811 128.173584,107.484375 C128.508058,107.835939 128.675293,108.277829 128.675293,108.810059 Z M131.927246,109.256836 L132.037109,109.425293 C131.910156,109.913577 131.727052,110.481198 131.487793,111.128174 C131.248534,111.77515 130.999513,112.37695 130.740723,112.933594 L129.825195,112.933594 C129.957032,112.425779 130.102294,111.798344 130.260986,111.05127 C130.419679,110.304195 130.530761,109.706057 130.594238,109.256836 L131.927246,109.256836 Z M141.844238,103.91748 L139.800781,103.91748 L139.800781,111 L138.584961,111 L138.584961,103.91748 L137.149414,103.91748 L137.149414,103.368164 L138.584961,102.928711 L138.584961,102.481934 C138.584961,100.509267 139.446769,99.5229492 141.17041,99.5229492 C141.595217,99.5229492 142.093259,99.6083976 142.664551,99.7792969 L142.349609,100.753418 C141.880857,100.60205 141.48047,100.526367 141.148438,100.526367 C140.689451,100.526367 140.350099,100.678954 140.130371,100.984131 C139.910643,101.289308 139.800781,101.778805 139.800781,102.452637 L139.800781,102.972656 L141.844238,102.972656 L141.844238,103.91748 Z M150.237793,106.979004 C150.237793,108.287604 149.908206,109.309322 149.249023,110.044189 C148.58984,110.779056 147.679205,111.146484 146.51709,111.146484 C145.799313,111.146484 145.162112,110.978029 144.605469,110.641113 C144.048825,110.304198 143.619142,109.820804 143.316406,109.190918 C143.01367,108.561032 142.862305,107.823735 142.862305,106.979004 C142.862305,105.670404 143.18945,104.651127 143.84375,103.921143 C144.49805,103.191158 145.406244,102.826172 146.568359,102.826172 C147.691412,102.826172 148.583737,103.199703 149.245361,103.946777 C149.906986,104.693851 150.237793,105.704583 150.237793,106.979004 Z M144.12207,106.979004 C144.12207,108.0044 144.327146,108.785642 144.737305,109.322754 C145.147463,109.859866 145.750484,110.128418 146.546387,110.128418 C147.342289,110.128418 147.946531,109.861087 148.359131,109.326416 C148.771731,108.791745 148.978027,108.009282 148.978027,106.979004 C148.978027,105.958491 148.771731,105.183352 148.359131,104.653564 C147.946531,104.123777 147.337406,103.858887 146.531738,103.858887 C145.735836,103.858887 145.135256,104.120115 144.72998,104.642578 C144.324705,105.165042 144.12207,105.943842 144.12207,106.979004 Z M156.03125,102.826172 C156.387697,102.826172 156.707518,102.855468 156.990723,102.914062 L156.822266,104.041992 C156.490233,103.96875 156.197267,103.932129 155.943359,103.932129 C155.293942,103.932129 154.738528,104.195798 154.2771,104.723145 C153.815672,105.250491 153.584961,105.907223 153.584961,106.693359 L153.584961,111 L152.369141,111 L152.369141,102.972656 L153.372559,102.972656 L153.511719,104.459473 L153.570312,104.459473 C153.868166,103.937009 154.227049,103.534181 154.646973,103.250977 C155.066897,102.967772 155.528318,102.826172 156.03125,102.826172 Z M168.724121,111 L168.724121,105.777832 C168.724121,105.13818 168.587404,104.658449 168.313965,104.338623 C168.040526,104.018797 167.615726,103.858887 167.039551,103.858887 C166.282711,103.858887 165.723635,104.07617 165.362305,104.510742 C165.000975,104.945315 164.820312,105.614253 164.820312,106.517578 L164.820312,111 L163.604492,111 L163.604492,105.777832 C163.604492,105.13818 163.467775,104.658449 163.194336,104.338623 C162.920897,104.018797 162.493655,103.858887 161.912598,103.858887 C161.150875,103.858887 160.593019,104.087156 160.239014,104.543701 C159.885008,105.000246 159.708008,105.74853 159.708008,106.788574 L159.708008,111 L158.492188,111 L158.492188,102.972656 L159.480957,102.972656 L159.678711,104.071289 L159.737305,104.071289 C159.966798,103.680662 160.290281,103.375489 160.707764,103.155762 C161.125246,102.936034 161.592771,102.826172 162.110352,102.826172 C163.365241,102.826172 164.185545,103.280269 164.571289,104.188477 L164.629883,104.188477 C164.869142,103.768553 165.215818,103.436525 165.669922,103.192383 C166.124026,102.948241 166.641599,102.826172 167.222656,102.826172 C168.130864,102.826172 168.810789,103.059324 169.262451,103.525635 C169.714114,103.991946 169.939941,104.737788 169.939941,105.763184 L169.939941,111 L168.724121,111 Z M177.381348,111 L177.139648,109.857422 L177.081055,109.857422 C176.680662,110.360354 176.281496,110.700927 175.883545,110.87915 C175.485594,111.057374 174.988773,111.146484 174.393066,111.146484 C173.597164,111.146484 172.973391,110.941408 172.521729,110.53125 C172.070066,110.121092 171.844238,109.537601 171.844238,108.780762 C171.844238,107.15966 173.140612,106.310059 175.733398,106.231934 L177.095703,106.187988 L177.095703,105.689941 C177.095703,105.060055 176.960206,104.594972 176.689209,104.294678 C176.418212,103.994383 175.984866,103.844238 175.38916,103.844238 C174.720211,103.844238 173.963383,104.049314 173.118652,104.459473 L172.745117,103.529297 C173.140627,103.314452 173.573972,103.145997 174.045166,103.023926 C174.51636,102.901855 174.988767,102.84082 175.462402,102.84082 C176.419438,102.84082 177.12866,103.053221 177.590088,103.478027 C178.051516,103.902834 178.282227,104.58398 178.282227,105.521484 L178.282227,111 L177.381348,111 Z M174.634766,110.143066 C175.391605,110.143066 175.986082,109.935549 176.418213,109.520508 C176.850344,109.105467 177.066406,108.524418 177.066406,107.777344 L177.066406,107.052246 L175.850586,107.103516 C174.883784,107.137695 174.18677,107.28784 173.759521,107.553955 C173.332273,107.82007 173.118652,108.233884 173.118652,108.79541 C173.118652,109.234865 173.251708,109.569335 173.517822,109.798828 C173.783937,110.028321 174.156248,110.143066 174.634766,110.143066 Z M183.379883,110.143066 C183.594728,110.143066 183.802245,110.127197 184.002441,110.095459 C184.202638,110.063721 184.361328,110.030762 184.478516,109.996582 L184.478516,110.926758 C184.346679,110.990235 184.152589,111.042724 183.89624,111.084229 C183.639891,111.125733 183.409181,111.146484 183.204102,111.146484 C181.651359,111.146484 180.875,110.328621 180.875,108.692871 L180.875,103.91748 L179.725098,103.91748 L179.725098,103.331543 L180.875,102.826172 L181.387695,101.112305 L182.09082,101.112305 L182.09082,102.972656 L184.419922,102.972656 L184.419922,103.91748 L182.09082,103.91748 L182.09082,108.641602 C182.09082,109.125002 182.205565,109.496092 182.435059,109.754883 C182.664552,110.013673 182.97949,110.143066 183.379883,110.143066 Z M187.29834,111 L186.08252,111 L186.08252,102.972656 L187.29834,102.972656 L187.29834,111 Z M185.97998,100.797363 C185.97998,100.519042 186.048339,100.315186 186.185059,100.185791 C186.321778,100.056396 186.492675,99.9916992 186.697754,99.9916992 C186.893067,99.9916992 187.061523,100.057617 187.203125,100.189453 C187.344727,100.32129 187.415527,100.523924 187.415527,100.797363 C187.415527,101.070802 187.344727,101.274658 187.203125,101.408936 C187.061523,101.543214 186.893067,101.610352 186.697754,101.610352 C186.492675,101.610352 186.321778,101.543214 186.185059,101.408936 C186.048339,101.274658 185.97998,101.070802 185.97998,100.797363 Z M196.805176,106.979004 C196.805176,108.287604 196.475589,109.309322 195.816406,110.044189 C195.157223,110.779056 194.246588,111.146484 193.084473,111.146484 C192.366696,111.146484 191.729495,110.978029 191.172852,110.641113 C190.616208,110.304198 190.186525,109.820804 189.883789,109.190918 C189.581053,108.561032 189.429688,107.823735 189.429688,106.979004 C189.429688,105.670404 189.756833,104.651127 190.411133,103.921143 C191.065433,103.191158 191.973627,102.826172 193.135742,102.826172 C194.258795,102.826172 195.15112,103.199703 195.812744,103.946777 C196.474369,104.693851 196.805176,105.704583 196.805176,106.979004 Z M190.689453,106.979004 C190.689453,108.0044 190.894529,108.785642 191.304688,109.322754 C191.714846,109.859866 192.317867,110.128418 193.11377,110.128418 C193.909672,110.128418 194.513914,109.861087 194.926514,109.326416 C195.339113,108.791745 195.54541,108.009282 195.54541,106.979004 C195.54541,105.958491 195.339113,105.183352 194.926514,104.653564 C194.513914,104.123777 193.904789,103.858887 193.099121,103.858887 C192.303219,103.858887 191.702639,104.120115 191.297363,104.642578 C190.892088,105.165042 190.689453,105.943842 190.689453,106.979004 Z M204.429688,111 L204.429688,105.807129 C204.429688,105.152829 204.280763,104.664552 203.98291,104.342285 C203.685057,104.020018 203.218753,103.858887 202.583984,103.858887 C201.744136,103.858887 201.128908,104.085935 200.738281,104.540039 C200.347654,104.994143 200.152344,105.743647 200.152344,106.788574 L200.152344,111 L198.936523,111 L198.936523,102.972656 L199.925293,102.972656 L200.123047,104.071289 L200.181641,104.071289 C200.430665,103.675779 200.779783,103.369386 201.229004,103.1521 C201.678225,102.934813 202.178708,102.826172 202.730469,102.826172 C203.69727,102.826172 204.424802,103.059324 204.913086,103.525635 C205.40137,103.991946 205.645508,104.737788 205.645508,105.763184 L205.645508,111 L204.429688,111 Z M213.321289,108.810059 C213.321289,109.557133 213.042972,110.133299 212.486328,110.538574 C211.929685,110.94385 211.148443,111.146484 210.142578,111.146484 C209.07812,111.146484 208.24805,110.978029 207.652344,110.641113 L207.652344,109.513184 C208.038088,109.708497 208.451902,109.862304 208.893799,109.974609 C209.335696,110.086915 209.761717,110.143066 210.171875,110.143066 C210.806644,110.143066 211.29492,110.041749 211.636719,109.839111 C211.978517,109.636474 212.149414,109.327639 212.149414,108.912598 C212.149414,108.600096 212.013917,108.332765 211.74292,108.110596 C211.471922,107.888427 210.943363,107.625978 210.157227,107.323242 C209.410153,107.04492 208.879152,106.802003 208.564209,106.594482 C208.249266,106.386962 208.014893,106.151369 207.861084,105.887695 C207.707275,105.624022 207.630371,105.309084 207.630371,104.942871 C207.630371,104.288571 207.896482,103.772219 208.428711,103.393799 C208.96094,103.015379 209.690913,102.826172 210.618652,102.826172 C211.482914,102.826172 212.327633,103.001951 213.152832,103.353516 L212.720703,104.342285 C211.915035,104.010252 211.185062,103.844238 210.530762,103.844238 C209.954587,103.844238 209.520021,103.934569 209.227051,104.115234 C208.934081,104.295899 208.787598,104.54492 208.787598,104.862305 C208.787598,105.07715 208.842529,105.260253 208.952393,105.411621 C209.062256,105.562989 209.239257,105.707031 209.483398,105.84375 C209.72754,105.980469 210.196286,106.178221 210.889648,106.437012 C211.841802,106.783693 212.485106,107.132811 212.81958,107.484375 C213.154054,107.835939 213.321289,108.277829 213.321289,108.810059 Z M215.123047,110.223633 C215.123047,109.896483 215.197509,109.648682 215.346436,109.480225 C215.495362,109.311767 215.708983,109.227539 215.987305,109.227539 C216.270509,109.227539 216.491454,109.311767 216.650146,109.480225 C216.808839,109.648682 216.888184,109.896483 216.888184,110.223633 C216.888184,110.541017 216.807618,110.785155 216.646484,110.956055 C216.485351,111.126954 216.265626,111.212402 215.987305,111.212402 C215.73828,111.212402 215.531983,111.135499 215.368408,110.981689 C215.204833,110.82788 215.123047,110.575197 215.123047,110.223633 Z M219.004883,110.223633 C219.004883,109.896483 219.079345,109.648682 219.228271,109.480225 C219.377198,109.311767 219.590819,109.227539 219.869141,109.227539 C220.152345,109.227539 220.37329,109.311767 220.531982,109.480225 C220.690675,109.648682 220.77002,109.896483 220.77002,110.223633 C220.77002,110.541017 220.689454,110.785155 220.52832,110.956055 C220.367187,111.126954 220.147462,111.212402 219.869141,111.212402 C219.620116,111.212402 219.413819,111.135499 219.250244,110.981689 C219.086669,110.82788 219.004883,110.575197 219.004883,110.223633 Z M222.894043,110.223633 C222.894043,109.896483 222.968505,109.648682 223.117432,109.480225 C223.266358,109.311767 223.479979,109.227539 223.758301,109.227539 C224.041505,109.227539 224.26245,109.311767 224.421143,109.480225 C224.579835,109.648682 224.65918,109.896483 224.65918,110.223633 C224.65918,110.541017 224.578614,110.785155 224.41748,110.956055 C224.256347,111.126954 224.036622,111.212402 223.758301,111.212402 C223.509276,111.212402 223.302979,111.135499 223.139404,110.981689 C222.975829,110.82788 222.894043,110.575197 222.894043,110.223633 Z M51.8588867,122.972656 L51.8588867,123.741699 L50.3720703,123.91748 C50.5087897,124.08838 50.6308588,124.311766 50.7382812,124.587646 C50.8457037,124.863527 50.8994141,125.174803 50.8994141,125.521484 C50.8994141,126.307621 50.6308621,126.935056 50.09375,127.403809 C49.5566379,127.872561 48.8193406,128.106934 47.8818359,128.106934 C47.6425769,128.106934 47.4179698,128.087403 47.2080078,128.04834 C46.6904271,128.321779 46.4316406,128.666014 46.4316406,129.081055 C46.4316406,129.300782 46.5219718,129.463134 46.7026367,129.568115 C46.8833017,129.673096 47.1933572,129.725586 47.6328125,129.725586 L49.0537109,129.725586 C49.9228559,129.725586 50.5905738,129.90869 51.0568848,130.274902 C51.5231957,130.641115 51.7563477,131.173336 51.7563477,131.871582 C51.7563477,132.760258 51.3999059,133.437742 50.6870117,133.904053 C49.9741175,134.370364 48.9340889,134.603516 47.5668945,134.603516 C46.5170846,134.603516 45.7077665,134.408205 45.138916,134.017578 C44.5700655,133.626951 44.2856445,133.075199 44.2856445,132.362305 C44.2856445,131.874021 44.441893,131.451662 44.7543945,131.095215 C45.0668961,130.738768 45.5063448,130.497071 46.0727539,130.370117 C45.8676748,130.277343 45.6955573,130.133302 45.5563965,129.937988 C45.4172356,129.742675 45.3476562,129.515626 45.3476562,129.256836 C45.3476562,128.963866 45.4257805,128.707521 45.5820312,128.487793 C45.738282,128.268065 45.9848616,128.055665 46.3217773,127.850586 C45.9067362,127.679687 45.5686048,127.389162 45.307373,126.979004 C45.0461413,126.568846 44.9155273,126.1001 44.9155273,125.572754 C44.9155273,124.693843 45.1791966,124.01636 45.706543,123.540283 C46.2338894,123.064207 46.9809522,122.826172 47.9477539,122.826172 C48.3676779,122.826172 48.7460921,122.875 49.0830078,122.972656 L51.8588867,122.972656 Z M45.4575195,132.347656 C45.4575195,132.782229 45.6406232,133.111815 46.0068359,133.336426 C46.3730487,133.561036 46.8979458,133.67334 47.581543,133.67334 C48.6020559,133.67334 49.3576636,133.520753 49.8483887,133.215576 C50.3391138,132.910399 50.5844727,132.496585 50.5844727,131.974121 C50.5844727,131.539549 50.4501967,131.238038 50.1816406,131.06958 C49.9130846,130.901122 49.4077186,130.816895 48.6655273,130.816895 L47.2080078,130.816895 C46.6562472,130.816895 46.226564,130.948729 45.9189453,131.212402 C45.6113266,131.476076 45.4575195,131.85449 45.4575195,132.347656 Z M46.1166992,125.543457 C46.1166992,126.104983 46.275389,126.529784 46.5927734,126.817871 C46.9101578,127.105958 47.3520479,127.25 47.918457,127.25 C49.1049864,127.25 49.6982422,126.673834 49.6982422,125.521484 C49.6982422,124.315424 49.0976623,123.712402 47.8964844,123.712402 C47.3251925,123.712402 46.8857437,123.866209 46.578125,124.173828 C46.2705063,124.481447 46.1166992,124.937985 46.1166992,125.543457 Z M57.1689453,122.826172 C57.5253924,122.826172 57.8452134,122.855468 58.128418,122.914062 L57.9599609,124.041992 C57.627928,123.96875 57.3349622,123.932129 57.0810547,123.932129 C56.4316374,123.932129 55.876223,124.195798 55.4147949,124.723145 C54.9533668,125.250491 54.7226562,125.907223 54.7226562,126.693359 L54.7226562,131 L53.5068359,131 L53.5068359,122.972656 L54.5102539,122.972656 L54.6494141,124.459473 L54.7080078,124.459473 C55.0058609,123.937009 55.364744,123.534181 55.784668,123.250977 C56.2045919,122.967772 56.6660131,122.826172 57.1689453,122.826172 Z M64.5664062,131 L64.324707,129.857422 L64.2661133,129.857422 C63.8657207,130.360354 63.4665547,130.700927 63.0686035,130.87915 C62.6706523,131.057374 62.1738311,131.146484 61.578125,131.146484 C60.7822226,131.146484 60.1584495,130.941408 59.7067871,130.53125 C59.2551247,130.121092 59.0292969,129.537601 59.0292969,128.780762 C59.0292969,127.15966 60.3256706,126.310059 62.918457,126.231934 L64.2807617,126.187988 L64.2807617,125.689941 C64.2807617,125.060055 64.145265,124.594972 63.8742676,124.294678 C63.6032701,123.994383 63.1699249,123.844238 62.5742188,123.844238 C61.9052701,123.844238 61.1484417,124.049314 60.3037109,124.459473 L59.9301758,123.529297 C60.3256856,123.314452 60.7590308,123.145997 61.2302246,123.023926 C61.7014184,122.901855 62.1738258,122.84082 62.6474609,122.84082 C63.604497,122.84082 64.3137184,123.053221 64.7751465,123.478027 C65.2365746,123.902834 65.4672852,124.58398 65.4672852,125.521484 L65.4672852,131 L64.5664062,131 Z M61.8198242,130.143066 C62.5766639,130.143066 63.1711404,129.935549 63.6032715,129.520508 C64.0354026,129.105467 64.2514648,128.524418 64.2514648,127.777344 L64.2514648,127.052246 L63.0356445,127.103516 C62.0688428,127.137695 61.3718283,127.28784 60.9445801,127.553955 C60.5173318,127.82007 60.3037109,128.233884 60.3037109,128.79541 C60.3037109,129.234865 60.4367662,129.569335 60.7028809,129.798828 C60.9689955,130.028321 61.3413062,130.143066 61.8198242,130.143066 Z M60.0107422,121.742188 C60.6308625,121.078122 61.0654284,120.589845 61.3144531,120.277344 C61.5634778,119.964842 61.7441401,119.708497 61.8564453,119.508301 L63.0722656,119.508301 C63.179688,119.71338 63.3664537,119.97827 63.6325684,120.302979 C63.898683,120.627687 64.336911,121.107419 64.9472656,121.742188 L64.9472656,121.910645 L64.0756836,121.910645 C63.6459939,121.642089 63.1064486,121.187991 62.4570312,120.54834 C61.7929654,121.20264 61.2583028,121.656737 60.8530273,121.910645 L60.0107422,121.910645 L60.0107422,121.742188 Z M71.1801758,131.146484 C70.0180606,131.146484 69.1184114,130.788822 68.4812012,130.073486 C67.843991,129.358151 67.5253906,128.346198 67.5253906,127.037598 C67.5253906,125.694818 67.8488737,124.65723 68.4958496,123.924805 C69.1428255,123.192379 70.0644471,122.826172 71.2607422,122.826172 C71.6464863,122.826172 72.0322246,122.867675 72.4179688,122.950684 C72.8037129,123.033692 73.1064442,123.131347 73.3261719,123.243652 L72.9526367,124.276367 C72.6840807,124.168945 72.3911149,124.079834 72.0737305,124.009033 C71.7563461,123.938232 71.4755872,123.902832 71.2314453,123.902832 C69.6005778,123.902832 68.7851562,124.942861 68.7851562,127.022949 C68.7851562,128.009282 68.9841289,128.766111 69.3820801,129.293457 C69.7800313,129.820803 70.369625,130.084473 71.1508789,130.084473 C71.8198276,130.084473 72.5058559,129.940431 73.2089844,129.652344 L73.2089844,130.729004 C72.6718723,131.007326 71.9956095,131.146484 71.1801758,131.146484 Z M78.5043945,131.146484 C77.3178652,131.146484 76.3815952,130.78516 75.6955566,130.0625 C75.0095181,129.33984 74.6665039,128.336432 74.6665039,127.052246 C74.6665039,125.758294 74.9851042,124.730473 75.6223145,123.96875 C76.2595247,123.207027 77.115229,122.826172 78.1894531,122.826172 C79.1953175,122.826172 79.991208,123.156979 80.5771484,123.818604 C81.1630889,124.480228 81.4560547,125.353022 81.4560547,126.437012 L81.4560547,127.206055 L75.9262695,127.206055 C75.9506837,128.148442 76.1887184,128.863767 76.6403809,129.352051 C77.0920433,129.840334 77.7280232,130.084473 78.5483398,130.084473 C79.412602,130.084473 80.2670856,129.90381 81.1118164,129.54248 L81.1118164,130.626465 C80.6821268,130.812013 80.2756367,130.945068 79.892334,131.025635 C79.5090313,131.106202 79.0463894,131.146484 78.5043945,131.146484 Z M78.1748047,123.844238 C77.5302702,123.844238 77.0163593,124.054197 76.6330566,124.474121 C76.2497539,124.894045 76.0239261,125.475094 75.9555664,126.217285 L80.1523438,126.217285 C80.1523438,125.45068 79.981447,124.863527 79.6396484,124.455811 C79.2978499,124.048094 78.8095735,123.844238 78.1748047,123.844238 Z M92.3618164,131 L92.1201172,129.857422 L92.0615234,129.857422 C91.6611308,130.360354 91.2619649,130.700927 90.8640137,130.87915 C90.4660625,131.057374 89.9692413,131.146484 89.3735352,131.146484 C88.5776327,131.146484 87.9538597,130.941408 87.5021973,130.53125 C87.0505349,130.121092 86.824707,129.537601 86.824707,128.780762 C86.824707,127.15966 88.1210808,126.310059 90.7138672,126.231934 L92.0761719,126.187988 L92.0761719,125.689941 C92.0761719,125.060055 91.9406752,124.594972 91.6696777,124.294678 C91.3986803,123.994383 90.965335,123.844238 90.3696289,123.844238 C89.7006802,123.844238 88.9438519,124.049314 88.0991211,124.459473 L87.7255859,123.529297 C88.1210957,123.314452 88.554441,123.145997 89.0256348,123.023926 C89.4968285,122.901855 89.9692359,122.84082 90.4428711,122.84082 C91.3999071,122.84082 92.1091286,123.053221 92.5705566,123.478027 C93.0319847,123.902834 93.2626953,124.58398 93.2626953,125.521484 L93.2626953,131 L92.3618164,131 Z M89.6152344,130.143066 C90.3720741,130.143066 90.9665506,129.935549 91.3986816,129.520508 C91.8308127,129.105467 92.046875,128.524418 92.046875,127.777344 L92.046875,127.052246 L90.8310547,127.103516 C89.864253,127.137695 89.1672385,127.28784 88.7399902,127.553955 C88.312742,127.82007 88.0991211,128.233884 88.0991211,128.79541 C88.0991211,129.234865 88.2321764,129.569335 88.498291,129.798828 C88.7644056,130.028321 89.1367164,130.143066 89.6152344,130.143066 Z M91.0581055,121.910645 L90.2524414,121.910645 C89.935057,121.656737 89.5590842,121.295412 89.1245117,120.82666 C88.6899392,120.357908 88.375001,119.969728 88.1796875,119.662109 L88.1796875,119.508301 L89.6665039,119.508301 C89.8227547,119.845217 90.0400377,120.234617 90.3183594,120.676514 C90.5966811,121.11841 90.8432606,121.468749 91.0581055,121.727539 L91.0581055,121.910645 Z M100.879883,131 L99.6640625,131 L99.6640625,119.603516 L100.879883,119.603516 L100.879883,131 Z M104.432129,120.291992 L104.541992,120.453125 C104.415038,120.941409 104.231935,121.50903 103.992676,122.156006 C103.753417,122.802982 103.504396,123.404782 103.245605,123.961426 L102.352051,123.961426 C102.693849,122.569817 102.94287,121.346685 103.099121,120.291992 L104.432129,120.291992 Z M109.397949,131.146484 C108.21142,131.146484 107.27515,130.78516 106.589111,130.0625 C105.903073,129.33984 105.560059,128.336432 105.560059,127.052246 C105.560059,125.758294 105.878659,124.730473 106.515869,123.96875 C107.153079,123.207027 108.008784,122.826172 109.083008,122.826172 C110.088872,122.826172 110.884763,123.156979 111.470703,123.818604 C112.056644,124.480228 112.349609,125.353022 112.349609,126.437012 L112.349609,127.206055 L106.819824,127.206055 C106.844238,128.148442 107.082273,128.863767 107.533936,129.352051 C107.985598,129.840334 108.621578,130.084473 109.441895,130.084473 C110.306157,130.084473 111.16064,129.90381 112.005371,129.54248 L112.005371,130.626465 C111.575681,130.812013 111.169191,130.945068 110.785889,131.025635 C110.402586,131.106202 109.939944,131.146484 109.397949,131.146484 Z M109.068359,123.844238 C108.423825,123.844238 107.909914,124.054197 107.526611,124.474121 C107.143309,124.894045 106.917481,125.475094 106.849121,126.217285 L111.045898,126.217285 C111.045898,125.45068 110.875002,124.863527 110.533203,124.455811 C110.191405,124.048094 109.703128,123.844238 109.068359,123.844238 Z M119.915527,131 L119.915527,125.807129 C119.915527,125.152829 119.766603,124.664552 119.46875,124.342285 C119.170897,124.020018 118.704593,123.858887 118.069824,123.858887 C117.229976,123.858887 116.614748,124.085935 116.224121,124.540039 C115.833494,124.994143 115.638184,125.743647 115.638184,126.788574 L115.638184,131 L114.422363,131 L114.422363,122.972656 L115.411133,122.972656 L115.608887,124.071289 L115.66748,124.071289 C115.916505,123.675779 116.265623,123.369386 116.714844,123.1521 C117.164065,122.934813 117.664548,122.826172 118.216309,122.826172 C119.18311,122.826172 119.910642,123.059324 120.398926,123.525635 C120.887209,123.991946 121.131348,124.737788 121.131348,125.763184 L121.131348,131 L119.915527,131 Z M125.386719,131 L122.339844,122.972656 L123.643555,122.972656 L125.37207,127.733398 C125.762697,128.846685 125.992187,129.569334 126.060547,129.901367 L126.119141,129.901367 C126.172852,129.642577 126.342528,129.106694 126.628174,128.293701 C126.91382,127.480709 127.554683,125.707045 128.550781,122.972656 L129.854492,122.972656 L126.807617,131 L125.386719,131 Z M138.072266,126.979004 C138.072266,128.287604 137.742679,129.309322 137.083496,130.044189 C136.424313,130.779056 135.513678,131.146484 134.351562,131.146484 C133.633785,131.146484 132.996585,130.978029 132.439941,130.641113 C131.883298,130.304198 131.453615,129.820804 131.150879,129.190918 C130.848143,128.561032 130.696777,127.823735 130.696777,126.979004 C130.696777,125.670404 131.023923,124.651127 131.678223,123.921143 C132.332523,123.191158 133.240717,122.826172 134.402832,122.826172 C135.525885,122.826172 136.41821,123.199703 137.079834,123.946777 C137.741458,124.693851 138.072266,125.704583 138.072266,126.979004 Z M131.956543,126.979004 C131.956543,128.0044 132.161619,128.785642 132.571777,129.322754 C132.981936,129.859866 133.584957,130.128418 134.380859,130.128418 C135.176762,130.128418 135.781004,129.861087 136.193604,129.326416 C136.606203,128.791745 136.8125,128.009282 136.8125,126.979004 C136.8125,125.958491 136.606203,125.183352 136.193604,124.653564 C135.781004,124.123777 135.171879,123.858887 134.366211,123.858887 C133.570309,123.858887 132.969729,124.120115 132.564453,124.642578 C132.159178,125.165042 131.956543,125.943842 131.956543,126.979004 Z M141.419434,131 L140.203613,131 L140.203613,122.972656 L141.419434,122.972656 L141.419434,131 Z M140.101074,120.797363 C140.101074,120.519042 140.169433,120.315186 140.306152,120.185791 C140.442872,120.056396 140.613769,119.991699 140.818848,119.991699 C141.014161,119.991699 141.182616,120.057617 141.324219,120.189453 C141.465821,120.32129 141.536621,120.523924 141.536621,120.797363 C141.536621,121.070802 141.465821,121.274658 141.324219,121.408936 C141.182616,121.543214 141.014161,121.610352 140.818848,121.610352 C140.613769,121.610352 140.442872,121.543214 140.306152,121.408936 C140.169433,121.274658 140.101074,121.070802 140.101074,120.797363 Z M153.35791,129.92334 L153.291992,129.92334 C152.730466,130.738774 151.890631,131.146484 150.772461,131.146484 C149.722651,131.146484 148.906009,130.787601 148.32251,130.069824 C147.739011,129.352047 147.447266,128.33155 147.447266,127.008301 C147.447266,125.685052 147.740231,124.65723 148.326172,123.924805 C148.912112,123.192379 149.727534,122.826172 150.772461,122.826172 C151.861334,122.826172 152.696286,123.221676 153.277344,124.012695 L153.372559,124.012695 L153.321289,123.434082 L153.291992,122.870117 L153.291992,119.603516 L154.507812,119.603516 L154.507812,131 L153.519043,131 L153.35791,129.92334 Z M150.92627,130.128418 C151.756352,130.128418 152.358152,129.90259 152.731689,129.450928 C153.105226,128.999265 153.291992,128.270513 153.291992,127.264648 L153.291992,127.008301 C153.291992,125.8706 153.102785,125.05884 152.724365,124.572998 C152.345945,124.087156 151.741703,123.844238 150.911621,123.844238 C150.198727,123.844238 149.653078,124.121335 149.274658,124.675537 C148.896238,125.229739 148.707031,126.012202 148.707031,127.022949 C148.707031,128.048345 148.895018,128.822263 149.270996,129.344727 C149.646975,129.86719 150.198727,130.128418 150.92627,130.128418 Z M160.477051,131.146484 C159.290521,131.146484 158.354251,130.78516 157.668213,130.0625 C156.982174,129.33984 156.63916,128.336432 156.63916,127.052246 C156.63916,125.758294 156.95776,124.730473 157.594971,123.96875 C158.232181,123.207027 159.087885,122.826172 160.162109,122.826172 C161.167974,122.826172 161.963864,123.156979 162.549805,123.818604 C163.135745,124.480228 163.428711,125.353022 163.428711,126.437012 L163.428711,127.206055 L157.898926,127.206055 C157.92334,128.148442 158.161375,128.863767 158.613037,129.352051 C159.0647,129.840334 159.700679,130.084473 160.520996,130.084473 C161.385258,130.084473 162.239742,129.90381 163.084473,129.54248 L163.084473,130.626465 C162.654783,130.812013 162.248293,130.945068 161.86499,131.025635 C161.481688,131.106202 161.019046,131.146484 160.477051,131.146484 Z M160.147461,123.844238 C159.502926,123.844238 158.989016,124.054197 158.605713,124.474121 C158.22241,124.894045 157.996582,125.475094 157.928223,126.217285 L162.125,126.217285 C162.125,125.45068 161.954103,124.863527 161.612305,124.455811 C161.270506,124.048094 160.78223,123.844238 160.147461,123.844238 Z M174.576172,128.810059 C174.576172,129.557133 174.297854,130.133299 173.741211,130.538574 C173.184568,130.94385 172.403325,131.146484 171.397461,131.146484 C170.333002,131.146484 169.502933,130.978029 168.907227,130.641113 L168.907227,129.513184 C169.292971,129.708497 169.706785,129.862304 170.148682,129.974609 C170.590578,130.086915 171.0166,130.143066 171.426758,130.143066 C172.061527,130.143066 172.549803,130.041749 172.891602,129.839111 C173.2334,129.636474 173.404297,129.327639 173.404297,128.912598 C173.404297,128.600096 173.2688,128.332765 172.997803,128.110596 C172.726805,127.888427 172.198246,127.625978 171.412109,127.323242 C170.665035,127.04492 170.134035,126.802003 169.819092,126.594482 C169.504149,126.386962 169.269776,126.151369 169.115967,125.887695 C168.962157,125.624022 168.885254,125.309084 168.885254,124.942871 C168.885254,124.288571 169.151365,123.772219 169.683594,123.393799 C170.215823,123.015379 170.945796,122.826172 171.873535,122.826172 C172.737797,122.826172 173.582515,123.001951 174.407715,123.353516 L173.975586,124.342285 C173.169918,124.010252 172.439945,123.844238 171.785645,123.844238 C171.20947,123.844238 170.774904,123.934569 170.481934,124.115234 C170.188963,124.295899 170.04248,124.54492 170.04248,124.862305 C170.04248,125.07715 170.097412,125.260253 170.207275,125.411621 C170.317139,125.562989 170.494139,125.707031 170.738281,125.84375 C170.982423,125.980469 171.451168,126.178221 172.144531,126.437012 C173.096684,126.783693 173.739989,127.132811 174.074463,127.484375 C174.408937,127.835939 174.576172,128.277829 174.576172,128.810059 Z M177.769531,131 L176.553711,131 L176.553711,122.972656 L177.769531,122.972656 L177.769531,131 Z M176.451172,120.797363 C176.451172,120.519042 176.519531,120.315186 176.65625,120.185791 C176.792969,120.056396 176.963866,119.991699 177.168945,119.991699 C177.364259,119.991699 177.532714,120.057617 177.674316,120.189453 C177.815919,120.32129 177.886719,120.523924 177.886719,120.797363 C177.886719,121.070802 177.815919,121.274658 177.674316,121.408936 C177.532714,121.543214 177.364259,121.610352 177.168945,121.610352 C176.963866,121.610352 176.792969,121.543214 176.65625,121.408936 C176.519531,121.274658 176.451172,121.070802 176.451172,120.797363 Z M190.57959,131 L190.57959,125.777832 C190.57959,125.13818 190.442872,124.658449 190.169434,124.338623 C189.895995,124.018797 189.471194,123.858887 188.89502,123.858887 C188.13818,123.858887 187.579103,124.07617 187.217773,124.510742 C186.856444,124.945315 186.675781,125.614253 186.675781,126.517578 L186.675781,131 L185.459961,131 L185.459961,125.777832 C185.459961,125.13818 185.323244,124.658449 185.049805,124.338623 C184.776366,124.018797 184.349124,123.858887 183.768066,123.858887 C183.006344,123.858887 182.448488,124.087156 182.094482,124.543701 C181.740477,125.000246 181.563477,125.74853 181.563477,126.788574 L181.563477,131 L180.347656,131 L180.347656,122.972656 L181.336426,122.972656 L181.53418,124.071289 L181.592773,124.071289 C181.822267,123.680662 182.14575,123.375489 182.563232,123.155762 C182.980715,122.936034 183.44824,122.826172 183.96582,122.826172 C185.220709,122.826172 186.041014,123.280269 186.426758,124.188477 L186.485352,124.188477 C186.724611,123.768553 187.071287,123.436525 187.525391,123.192383 C187.979494,122.948241 188.497067,122.826172 189.078125,122.826172 C189.986333,122.826172 190.666258,123.059324 191.11792,123.525635 C191.569582,123.991946 191.79541,124.737788 191.79541,125.763184 L191.79541,131 L190.57959,131 Z M198.035645,131.146484 C197.513181,131.146484 197.035891,131.05005 196.60376,130.857178 C196.171629,130.664306 195.809083,130.367678 195.516113,129.967285 L195.428223,129.967285 C195.486817,130.436037 195.516113,130.880369 195.516113,131.300293 L195.516113,134.603516 L194.300293,134.603516 L194.300293,122.972656 L195.289062,122.972656 L195.45752,124.071289 L195.516113,124.071289 C195.828615,123.631834 196.192381,123.314454 196.607422,123.119141 C197.022463,122.923827 197.498532,122.826172 198.035645,122.826172 C199.100103,122.826172 199.921628,123.189938 200.500244,123.91748 C201.07886,124.645023 201.368164,125.665521 201.368164,126.979004 C201.368164,128.29737 201.073978,129.32153 200.485596,130.051514 C199.897214,130.781498 199.080572,131.146484 198.035645,131.146484 Z M197.859863,123.858887 C197.039547,123.858887 196.446291,124.085935 196.080078,124.540039 C195.713865,124.994143 195.525879,125.716792 195.516113,126.708008 L195.516113,126.979004 C195.516113,128.106939 195.7041,128.913816 196.080078,129.399658 C196.456057,129.8855 197.059078,130.128418 197.88916,130.128418 C198.582523,130.128418 199.12573,129.847659 199.518799,129.286133 C199.911867,128.724607 200.108398,127.950689 200.108398,126.964355 C200.108398,125.963374 199.911867,125.195559 199.518799,124.660889 C199.12573,124.126218 198.572757,123.858887 197.859863,123.858887 Z M204.708008,131 L203.492188,131 L203.492188,119.603516 L204.708008,119.603516 L204.708008,131 Z M210.677246,131.146484 C209.490717,131.146484 208.554447,130.78516 207.868408,130.0625 C207.18237,129.33984 206.839355,128.336432 206.839355,127.052246 C206.839355,125.758294 207.157956,124.730473 207.795166,123.96875 C208.432376,123.207027 209.288081,122.826172 210.362305,122.826172 C211.368169,122.826172 212.16406,123.156979 212.75,123.818604 C213.33594,124.480228 213.628906,125.353022 213.628906,126.437012 L213.628906,127.206055 L208.099121,127.206055 C208.123535,128.148442 208.36157,128.863767 208.813232,129.352051 C209.264895,129.840334 209.900875,130.084473 210.721191,130.084473 C211.585454,130.084473 212.439937,129.90381 213.284668,129.54248 L213.284668,130.626465 C212.854978,130.812013 212.448488,130.945068 212.065186,131.025635 C211.681883,131.106202 211.219241,131.146484 210.677246,131.146484 Z M210.347656,123.844238 C209.703122,123.844238 209.189211,124.054197 208.805908,124.474121 C208.422606,124.894045 208.196778,125.475094 208.128418,126.217285 L212.325195,126.217285 C212.325195,125.45068 212.154299,124.863527 211.8125,124.455811 C211.470701,124.048094 210.982425,123.844238 210.347656,123.844238 Z M220.879883,128.810059 C220.879883,129.557133 220.601565,130.133299 220.044922,130.538574 C219.488278,130.94385 218.707036,131.146484 217.701172,131.146484 C216.636713,131.146484 215.806644,130.978029 215.210938,130.641113 L215.210938,129.513184 C215.596682,129.708497 216.010496,129.862304 216.452393,129.974609 C216.894289,130.086915 217.32031,130.143066 217.730469,130.143066 C218.365238,130.143066 218.853514,130.041749 219.195312,129.839111 C219.537111,129.636474 219.708008,129.327639 219.708008,128.912598 C219.708008,128.600096 219.572511,128.332765 219.301514,128.110596 C219.030516,127.888427 218.501957,127.625978 217.71582,127.323242 C216.968746,127.04492 216.437746,126.802003 216.122803,126.594482 C215.80786,126.386962 215.573487,126.151369 215.419678,125.887695 C215.265868,125.624022 215.188965,125.309084 215.188965,124.942871 C215.188965,124.288571 215.455075,123.772219 215.987305,123.393799 C216.519534,123.015379 217.249507,122.826172 218.177246,122.826172 C219.041508,122.826172 219.886226,123.001951 220.711426,123.353516 L220.279297,124.342285 C219.473629,124.010252 218.743656,123.844238 218.089355,123.844238 C217.513181,123.844238 217.078615,123.934569 216.785645,124.115234 C216.492674,124.295899 216.346191,124.54492 216.346191,124.862305 C216.346191,125.07715 216.401122,125.260253 216.510986,125.411621 C216.62085,125.562989 216.79785,125.707031 217.041992,125.84375 C217.286134,125.980469 217.754879,126.178221 218.448242,126.437012 C219.400395,126.783693 220.043699,127.132811 220.378174,127.484375 C220.712648,127.835939 220.879883,128.277829 220.879883,128.810059 Z M47.8818359,150.143066 C48.0966808,150.143066 48.3041982,150.127197 48.5043945,150.095459 C48.7045908,150.063721 48.8632807,150.030762 48.9804688,149.996582 L48.9804688,150.926758 C48.8486322,150.990235 48.6545423,151.042724 48.3981934,151.084229 C48.1418444,151.125733 47.9111338,151.146484 47.7060547,151.146484 C46.1533125,151.146484 45.3769531,150.328621 45.3769531,148.692871 L45.3769531,143.91748 L44.2270508,143.91748 L44.2270508,143.331543 L45.3769531,142.826172 L45.8896484,141.112305 L46.5927734,141.112305 L46.5927734,142.972656 L48.921875,142.972656 L48.921875,143.91748 L46.5927734,143.91748 L46.5927734,148.641602 C46.5927734,149.125002 46.7075184,149.496092 46.9370117,149.754883 C47.1665051,150.013673 47.4814433,150.143066 47.8818359,150.143066 Z M53.9755859,151.146484 C52.7890566,151.146484 51.8527866,150.78516 51.166748,150.0625 C50.4807095,149.33984 50.1376953,148.336432 50.1376953,147.052246 C50.1376953,145.758294 50.4562956,144.730473 51.0935059,143.96875 C51.7307161,143.207027 52.5864204,142.826172 53.6606445,142.826172 C54.6665089,142.826172 55.4623994,143.156979 56.0483398,143.818604 C56.6342803,144.480228 56.9272461,145.353022 56.9272461,146.437012 L56.9272461,147.206055 L51.3974609,147.206055 C51.4218751,148.148442 51.6599099,148.863767 52.1115723,149.352051 C52.5632347,149.840334 53.1992146,150.084473 54.0195312,150.084473 C54.8837934,150.084473 55.738277,149.90381 56.5830078,149.54248 L56.5830078,150.626465 C56.1533182,150.812013 55.7468281,150.945068 55.3635254,151.025635 C54.9802227,151.106202 54.5175808,151.146484 53.9755859,151.146484 Z M53.6459961,143.844238 C53.0014616,143.844238 52.4875507,144.054197 52.104248,144.474121 C51.7209453,144.894045 51.4951175,145.475094 51.4267578,146.217285 L55.6235352,146.217285 C55.6235352,145.45068 55.4526384,144.863527 55.1108398,144.455811 C54.7690413,144.048094 54.2807649,143.844238 53.6459961,143.844238 Z M60.9335938,146.891113 L58.1430664,142.972656 L59.5273438,142.972656 L61.644043,146.048828 L63.753418,142.972656 L65.1230469,142.972656 L62.3325195,146.891113 L65.2695312,151 L63.8925781,151 L61.644043,147.748047 L59.3735352,151 L57.996582,151 L60.9335938,146.891113 Z M69.4516602,150.143066 C69.666505,150.143066 69.8740224,150.127197 70.0742188,150.095459 C70.2744151,150.063721 70.4331049,150.030762 70.550293,149.996582 L70.550293,150.926758 C70.4184564,150.990235 70.2243665,151.042724 69.9680176,151.084229 C69.7116686,151.125733 69.4809581,151.146484 69.2758789,151.146484 C67.7231368,151.146484 66.9467773,150.328621 66.9467773,148.692871 L66.9467773,143.91748 L65.796875,143.91748 L65.796875,143.331543 L66.9467773,142.826172 L67.4594727,141.112305 L68.1625977,141.112305 L68.1625977,142.972656 L70.4916992,142.972656 L70.4916992,143.91748 L68.1625977,143.91748 L68.1625977,148.641602 C68.1625977,149.125002 68.2773426,149.496092 68.5068359,149.754883 C68.7363293,150.013673 69.0512675,150.143066 69.4516602,150.143066 Z M79.0830078,146.979004 C79.0830078,148.287604 78.7534213,149.309322 78.0942383,150.044189 C77.4350553,150.779056 76.5244199,151.146484 75.3623047,151.146484 C74.6445277,151.146484 74.007327,150.978029 73.4506836,150.641113 C72.8940402,150.304198 72.464357,149.820804 72.1616211,149.190918 C71.8588852,148.561032 71.7075195,147.823735 71.7075195,146.979004 C71.7075195,145.670404 72.0346647,144.651127 72.6889648,143.921143 C73.343265,143.191158 74.251459,142.826172 75.4135742,142.826172 C76.5366267,142.826172 77.4289518,143.199703 78.0905762,143.946777 C78.7522006,144.693851 79.0830078,145.704583 79.0830078,146.979004 Z M72.9672852,146.979004 C72.9672852,148.0044 73.1723612,148.785642 73.5825195,149.322754 C73.9926778,149.859866 74.5956991,150.128418 75.3916016,150.128418 C76.187504,150.128418 76.791746,149.861087 77.2043457,149.326416 C77.6169454,148.791745 77.8232422,148.009282 77.8232422,146.979004 C77.8232422,145.958491 77.6169454,145.183352 77.2043457,144.653564 C76.791746,144.123777 76.1826212,143.858887 75.3769531,143.858887 C74.5810507,143.858887 73.9804708,144.120115 73.5751953,144.642578 C73.1699198,145.165042 72.9672852,145.943842 72.9672852,146.979004 Z M86.3925781,148.810059 C86.3925781,149.557133 86.1142606,150.133299 85.5576172,150.538574 C85.0009738,150.94385 84.2197316,151.146484 83.2138672,151.146484 C82.1494087,151.146484 81.3193389,150.978029 80.7236328,150.641113 L80.7236328,149.513184 C81.1093769,149.708497 81.5231911,149.862304 81.9650879,149.974609 C82.4069846,150.086915 82.8330058,150.143066 83.2431641,150.143066 C83.8779329,150.143066 84.3662092,150.041749 84.7080078,149.839111 C85.0498064,149.636474 85.2207031,149.327639 85.2207031,148.912598 C85.2207031,148.600096 85.0852064,148.332765 84.814209,148.110596 C84.5432115,147.888427 84.0146524,147.625978 83.2285156,147.323242 C82.4814416,147.04492 81.950441,146.802003 81.635498,146.594482 C81.3205551,146.386962 81.0861824,146.151369 80.932373,145.887695 C80.7785637,145.624022 80.7016602,145.309084 80.7016602,144.942871 C80.7016602,144.288571 80.9677708,143.772219 81.5,143.393799 C82.0322292,143.015379 82.7622024,142.826172 83.6899414,142.826172 C84.5542035,142.826172 85.3989217,143.001951 86.2241211,143.353516 L85.7919922,144.342285 C84.9863241,144.010252 84.2563509,143.844238 83.6020508,143.844238 C83.025876,143.844238 82.5913101,143.934569 82.2983398,144.115234 C82.0053696,144.295899 81.8588867,144.54492 81.8588867,144.862305 C81.8588867,145.07715 81.9138178,145.260253 82.0236816,145.411621 C82.1335455,145.562989 82.3105457,145.707031 82.5546875,145.84375 C82.7988293,145.980469 83.2675747,146.178221 83.9609375,146.437012 C84.9130907,146.783693 85.5563948,147.132811 85.8908691,147.484375 C86.2253435,147.835939 86.3925781,148.277829 86.3925781,148.810059 Z M88.1943359,150.223633 C88.1943359,149.896483 88.2687981,149.648682 88.4177246,149.480225 C88.5666511,149.311767 88.780272,149.227539 89.0585938,149.227539 C89.3417983,149.227539 89.5627433,149.311767 89.7214355,149.480225 C89.8801277,149.648682 89.9594727,149.896483 89.9594727,150.223633 C89.9594727,150.541017 89.8789071,150.785155 89.7177734,150.956055 C89.5566398,151.126954 89.3369155,151.212402 89.0585938,151.212402 C88.8095691,151.212402 88.6032723,151.135499 88.4396973,150.981689 C88.2761222,150.82788 88.1943359,150.575197 88.1943359,150.223633 Z" id="Avec-Inwall,-facilit-Copy" fill="#949595"></path>
                </g>
            </g>
        </g>
    </g>
</svg>