<?xml version="1.0" encoding="UTF-8" standalone="no"?>
<svg width="296px" height="225px" viewBox="0 0 296 225" version="1.1" xmlns="http://www.w3.org/2000/svg" xmlns:xlink="http://www.w3.org/1999/xlink">
    <!-- Generator: Sketch 41.2 (35397) - http://www.bohemiancoding.com/sketch -->
    <title>Bloc 03</title>
    <desc>Created with Sketch.</desc>
    <defs>
        <rect id="path-1" x="0" y="0" width="290" height="219" rx="4"></rect>
        <filter x="-50%" y="-50%" width="200%" height="200%" filterUnits="objectBoundingBox" id="filter-2">
            <feOffset dx="0" dy="2" in="SourceAlpha" result="shadowOffsetOuter1"></feOffset>
            <feGaussianBlur stdDeviation="1.5" in="shadowOffsetOuter1" result="shadowBlurOuter1"></feGaussianBlur>
            <feComposite in="shadowBlurOuter1" in2="SourceAlpha" operator="out" result="shadowBlurOuter1"></feComposite>
            <feColorMatrix values="0 0 0 0 0.823529412   0 0 0 0 0.854901961   0 0 0 0 0.905882353  0 0 0 0.45 0" type="matrix" in="shadowBlurOuter1"></feColorMatrix>
        </filter>
        <mask id="mask-3" maskContentUnits="userSpaceOnUse" maskUnits="objectBoundingBox" x="0" y="0" width="290" height="219" fill="white">
            <use xlink:href="#path-1"></use>
        </mask>
    </defs>
    <g id="Page-1" stroke="none" stroke-width="1" fill="none" fill-rule="evenodd">
        <g id="Desktop-HD" transform="translate(-865.000000, -395.000000)">
            <g id="PREMIERE-LAME" transform="translate(-155.000000, -21.000000)">
                <g id="Bloc-03" transform="translate(1023.000000, 417.000000)">
                    <g id="Fond-Bloc-">
                        <use fill="black" fill-opacity="1" filter="url(#filter-2)" xlink:href="#path-1"></use>
                        <use stroke-opacity="0.198228034" stroke="#657077" mask="url(#mask-3)" stroke-width="2" fill="#FFFFFF" fill-rule="evenodd" xlink:href="#path-1"></use>
                    </g>
                    <path d="M47.7172852,71 L46.472168,71 L46.472168,60.2919922 L52.4414062,60.2919922 L52.4414062,61.3979492 L47.7172852,61.3979492 L47.7172852,65.3164062 L52.1557617,65.3164062 L52.1557617,66.4223633 L47.7172852,66.4223633 L47.7172852,71 Z M58.9672852,71 L58.7255859,69.8574219 L58.6669922,69.8574219 C58.2665996,70.3603541 57.8674336,70.7009268 57.4694824,70.8791504 C57.0715312,71.0573739 56.57471,71.1464844 55.9790039,71.1464844 C55.1831015,71.1464844 54.5593284,70.9414083 54.107666,70.53125 C53.6560036,70.1210917 53.4301758,69.5376014 53.4301758,68.7807617 C53.4301758,67.1596599 54.7265495,66.310059 57.3193359,66.2319336 L58.6816406,66.1879883 L58.6816406,65.6899414 C58.6816406,65.0600554 58.5461439,64.5949722 58.2751465,64.2946777 C58.004149,63.9943833 57.5708038,63.8442383 56.9750977,63.8442383 C56.306149,63.8442383 55.5493206,64.0493144 54.7045898,64.4594727 L54.3310547,63.5292969 C54.7265645,63.3144521 55.1599098,63.1459967 55.6311035,63.0239258 C56.1022973,62.9018549 56.5747047,62.8408203 57.0483398,62.8408203 C58.0053759,62.8408203 58.7145973,63.0532205 59.1760254,63.4780273 C59.6374535,63.9028342 59.8681641,64.5839797 59.8681641,65.5214844 L59.8681641,71 L58.9672852,71 Z M56.2207031,70.1430664 C56.9775428,70.1430664 57.5720193,69.935549 58.0041504,69.5205078 C58.4362815,69.1054667 58.6523438,68.5244178 58.6523438,67.7773438 L58.6523438,67.0522461 L57.4365234,67.1035156 C56.4697217,67.1376955 55.7727072,67.2878405 55.345459,67.5539551 C54.9182108,67.8200697 54.7045898,68.2338839 54.7045898,68.7954102 C54.7045898,69.2348655 54.8376452,69.5693348 55.1037598,69.7988281 C55.3698744,70.0283215 55.7421851,70.1430664 56.2207031,70.1430664 Z M63.5888672,71 L62.3730469,71 L62.3730469,62.9726562 L63.5888672,62.9726562 L63.5888672,71 Z M62.2705078,60.7973633 C62.2705078,60.5190416 62.3388665,60.3151862 62.4755859,60.185791 C62.6123054,60.0563958 62.7832021,59.9916992 62.9882812,59.9916992 C63.1835947,59.9916992 63.3520501,60.0576165 63.4936523,60.1894531 C63.6352546,60.3212897 63.7060547,60.5239244 63.7060547,60.7973633 C63.7060547,61.0708021 63.6352546,61.2746575 63.4936523,61.4089355 C63.3520501,61.5432136 63.1835947,61.6103516 62.9882812,61.6103516 C62.7832021,61.6103516 62.6123054,61.5432136 62.4755859,61.4089355 C62.3388665,61.2746575 62.2705078,61.0708021 62.2705078,60.7973633 Z M68.7597656,70.1430664 C68.9746104,70.1430664 69.1821279,70.1271974 69.3823242,70.095459 C69.5825205,70.0637205 69.7412104,70.0307619 69.8583984,69.996582 L69.8583984,70.9267578 C69.7265618,70.9902347 69.532472,71.0427244 69.276123,71.0842285 C69.0197741,71.1257326 68.7890635,71.1464844 68.5839844,71.1464844 C67.0312422,71.1464844 66.2548828,70.3286215 66.2548828,68.6928711 L66.2548828,63.9174805 L65.1049805,63.9174805 L65.1049805,63.331543 L66.2548828,62.8261719 L66.7675781,61.1123047 L67.4707031,61.1123047 L67.4707031,62.9726562 L69.7998047,62.9726562 L69.7998047,63.9174805 L67.4707031,63.9174805 L67.4707031,68.6416016 C67.4707031,69.1250024 67.5854481,69.4960925 67.8149414,69.7548828 C68.0444347,70.0136732 68.359373,70.1430664 68.7597656,70.1430664 Z M74.8535156,71.1464844 C73.6669863,71.1464844 72.7307163,70.7851599 72.0446777,70.0625 C71.3586391,69.3398401 71.015625,68.3364322 71.015625,67.0522461 C71.015625,65.7582943 71.3342253,64.7304726 71.9714355,63.96875 C72.6086458,63.2070274 73.4643501,62.8261719 74.5385742,62.8261719 C75.5444386,62.8261719 76.3403291,63.1569791 76.9262695,63.8186035 C77.51221,64.4802279 77.8051758,65.3530219 77.8051758,66.4370117 L77.8051758,67.2060547 L72.2753906,67.2060547 C72.2998048,68.1484422 72.5378395,68.8637671 72.989502,69.3520508 C73.4411644,69.8403345 74.0771443,70.0844727 74.8974609,70.0844727 C75.7617231,70.0844727 76.6162067,69.9038104 77.4609375,69.5424805 L77.4609375,70.6264648 C77.0312479,70.8120126 76.6247578,70.945068 76.2414551,71.0256348 C75.8581524,71.1062016 75.3955105,71.1464844 74.8535156,71.1464844 Z M74.5239258,63.8442383 C73.8793913,63.8442383 73.3654804,64.0541971 72.9821777,64.4741211 C72.598875,64.8940451 72.3730472,65.4750939 72.3046875,66.2172852 L76.5014648,66.2172852 C76.5014648,65.4506798 76.3305681,64.8635274 75.9887695,64.4558105 C75.6469709,64.0480937 75.1586946,63.8442383 74.5239258,63.8442383 Z M85.0561523,68.8100586 C85.0561523,69.5571326 84.7778348,70.1332988 84.2211914,70.5385742 C83.664548,70.9438497 82.8833058,71.1464844 81.8774414,71.1464844 C80.812983,71.1464844 79.9829131,70.978029 79.387207,70.6411133 L79.387207,69.5131836 C79.7729511,69.7084971 80.1867654,69.8623041 80.6286621,69.9746094 C81.0705589,70.0869146 81.49658,70.1430664 81.9067383,70.1430664 C82.5415071,70.1430664 83.0297834,70.0417491 83.371582,69.8391113 C83.7133806,69.6364736 83.8842773,69.3276388 83.8842773,68.9125977 C83.8842773,68.6000961 83.7487807,68.3327648 83.4777832,68.1105957 C83.2067858,67.8884266 82.6782266,67.6259781 81.8920898,67.3232422 C81.1450158,67.0449205 80.6140152,66.802003 80.2990723,66.5944824 C79.9841293,66.3869619 79.7497566,66.1513685 79.5959473,65.8876953 C79.4421379,65.6240221 79.3652344,65.3090839 79.3652344,64.9428711 C79.3652344,64.2885709 79.631345,63.7722187 80.1635742,63.3937988 C80.6958034,63.015379 81.4257766,62.8261719 82.3535156,62.8261719 C83.2177778,62.8261719 84.0624959,63.0019514 84.8876953,63.3535156 L84.4555664,64.3422852 C83.6498983,64.0102522 82.9199251,63.8442383 82.265625,63.8442383 C81.6894502,63.8442383 81.2548843,63.9345694 80.9619141,64.1152344 C80.6689438,64.2958993 80.5224609,64.5449203 80.5224609,64.8623047 C80.5224609,65.0771495 80.577392,65.2602531 80.6872559,65.4116211 C80.7971197,65.562989 80.9741199,65.7070306 81.2182617,65.84375 C81.4624036,65.9804694 81.9311489,66.1782214 82.6245117,66.4370117 C83.5766649,66.7836931 84.219969,67.1328107 84.5544434,67.484375 C84.8889177,67.8359393 85.0561523,68.2778294 85.0561523,68.8100586 Z M96.394043,69.9233398 L96.328125,69.9233398 C95.7665988,70.7387736 94.9267634,71.1464844 93.8085938,71.1464844 C92.7587838,71.1464844 91.9421416,70.7876012 91.3586426,70.0698242 C90.7751436,69.3520472 90.4833984,68.3315496 90.4833984,67.0083008 C90.4833984,65.685052 90.7763643,64.6572302 91.3623047,63.9248047 C91.9482451,63.1923792 92.7636667,62.8261719 93.8085938,62.8261719 C94.8974664,62.8261719 95.732419,63.2216757 96.3134766,64.0126953 L96.4086914,64.0126953 L96.3574219,63.434082 L96.328125,62.8701172 L96.328125,59.6035156 L97.5439453,59.6035156 L97.5439453,71 L96.5551758,71 L96.394043,69.9233398 Z M93.9624023,70.128418 C94.7924846,70.128418 95.3942852,69.9025901 95.7678223,69.4509277 C96.1413593,68.9992653 96.328125,68.2705128 96.328125,67.2646484 L96.328125,67.0083008 C96.328125,65.8705998 96.1389179,65.0588403 95.760498,64.572998 C95.3820782,64.0871558 94.7778362,63.8442383 93.9477539,63.8442383 C93.2348597,63.8442383 92.6892109,64.1213351 92.310791,64.6755371 C91.9323712,65.2297391 91.7431641,66.012202 91.7431641,67.0229492 C91.7431641,68.048345 91.9311505,68.822263 92.3071289,69.3447266 C92.6831073,69.8671901 93.2348596,70.128418 93.9624023,70.128418 Z M103.513184,71.1464844 C102.326654,71.1464844 101.390384,70.7851599 100.704346,70.0625 C100.018307,69.3398401 99.675293,68.3364322 99.675293,67.0522461 C99.675293,65.7582943 99.9938933,64.7304726 100.631104,63.96875 C101.268314,63.2070274 102.124018,62.8261719 103.198242,62.8261719 C104.204107,62.8261719 104.999997,63.1569791 105.585938,63.8186035 C106.171878,64.4802279 106.464844,65.3530219 106.464844,66.4370117 L106.464844,67.2060547 L100.935059,67.2060547 C100.959473,68.1484422 101.197508,68.8637671 101.64917,69.3520508 C102.100832,69.8403345 102.736812,70.0844727 103.557129,70.0844727 C104.421391,70.0844727 105.275875,69.9038104 106.120605,69.5424805 L106.120605,70.6264648 C105.690916,70.8120126 105.284426,70.945068 104.901123,71.0256348 C104.51782,71.1062016 104.055178,71.1464844 103.513184,71.1464844 Z M103.183594,63.8442383 C102.539059,63.8442383 102.025148,64.0541971 101.641846,64.4741211 C101.258543,64.8940451 101.032715,65.4750939 100.964355,66.2172852 L105.161133,66.2172852 C105.161133,65.4506798 104.990236,64.8635274 104.648438,64.4558105 C104.306639,64.0480937 103.818363,63.8442383 103.183594,63.8442383 Z M113.71582,68.8100586 C113.71582,69.5571326 113.437503,70.1332988 112.880859,70.5385742 C112.324216,70.9438497 111.542974,71.1464844 110.537109,71.1464844 C109.472651,71.1464844 108.642581,70.978029 108.046875,70.6411133 L108.046875,69.5131836 C108.432619,69.7084971 108.846433,69.8623041 109.28833,69.9746094 C109.730227,70.0869146 110.156248,70.1430664 110.566406,70.1430664 C111.201175,70.1430664 111.689451,70.0417491 112.03125,69.8391113 C112.373049,69.6364736 112.543945,69.3276388 112.543945,68.9125977 C112.543945,68.6000961 112.408449,68.3327648 112.137451,68.1105957 C111.866454,67.8884266 111.337895,67.6259781 110.551758,67.3232422 C109.804684,67.0449205 109.273683,66.802003 108.95874,66.5944824 C108.643797,66.3869619 108.409425,66.1513685 108.255615,65.8876953 C108.101806,65.6240221 108.024902,65.3090839 108.024902,64.9428711 C108.024902,64.2885709 108.291013,63.7722187 108.823242,63.3937988 C109.355471,63.015379 110.085445,62.8261719 111.013184,62.8261719 C111.877446,62.8261719 112.722164,63.0019514 113.547363,63.3535156 L113.115234,64.3422852 C112.309566,64.0102522 111.579593,63.8442383 110.925293,63.8442383 C110.349118,63.8442383 109.914552,63.9345694 109.621582,64.1152344 C109.328612,64.2958993 109.182129,64.5449203 109.182129,64.8623047 C109.182129,65.0771495 109.23706,65.2602531 109.346924,65.4116211 C109.456788,65.562989 109.633788,65.7070306 109.87793,65.84375 C110.122072,65.9804694 110.590817,66.1782214 111.28418,66.4370117 C112.236333,66.7836931 112.879637,67.1328107 113.214111,67.484375 C113.548586,67.8359393 113.71582,68.2778294 113.71582,68.8100586 Z M122.797852,71.1464844 C121.635736,71.1464844 120.736087,70.7888219 120.098877,70.0734863 C119.461667,69.3581507 119.143066,68.3461979 119.143066,67.0375977 C119.143066,65.6948175 119.466549,64.6572302 120.113525,63.9248047 C120.760501,63.1923792 121.682123,62.8261719 122.878418,62.8261719 C123.264162,62.8261719 123.6499,62.8676754 124.035645,62.9506836 C124.421389,63.0336918 124.72412,63.1313471 124.943848,63.2436523 L124.570312,64.2763672 C124.301756,64.1689448 124.008791,64.0798343 123.691406,64.0090332 C123.374022,63.9382321 123.093263,63.902832 122.849121,63.902832 C121.218254,63.902832 120.402832,64.9428607 120.402832,67.0229492 C120.402832,68.0092823 120.601805,68.7661106 120.999756,69.293457 C121.397707,69.8208034 121.987301,70.0844727 122.768555,70.0844727 C123.437503,70.0844727 124.123532,69.9404311 124.82666,69.6523438 L124.82666,70.7290039 C124.289548,71.0073256 123.613285,71.1464844 122.797852,71.1464844 Z M132.224121,71 L132.224121,65.8071289 C132.224121,65.1528288 132.075197,64.6645524 131.777344,64.3422852 C131.479491,64.0200179 131.013187,63.8588867 130.378418,63.8588867 C129.533687,63.8588867 128.917238,64.0883766 128.529053,64.5473633 C128.140867,65.00635 127.946777,65.7582956 127.946777,66.8032227 L127.946777,71 L126.730957,71 L126.730957,59.6035156 L127.946777,59.6035156 L127.946777,63.0532227 C127.946777,63.4682638 127.927246,63.8124986 127.888184,64.0859375 L127.961426,64.0859375 C128.200685,63.7001934 128.541258,63.3962413 128.983154,63.1740723 C129.425051,62.9519032 129.929196,62.8408203 130.495605,62.8408203 C131.477056,62.8408203 132.213132,63.0739723 132.703857,63.5402832 C133.194583,64.0065941 133.439941,64.7475535 133.439941,65.7631836 L133.439941,71 L132.224121,71 Z M142.866211,66.9790039 C142.866211,68.2876042 142.536624,69.3093225 141.877441,70.0441895 C141.218258,70.7790564 140.307623,71.1464844 139.145508,71.1464844 C138.427731,71.1464844 137.79053,70.978029 137.233887,70.6411133 C136.677243,70.3041975 136.24756,69.8208039 135.944824,69.190918 C135.642088,68.561032 135.490723,67.8237347 135.490723,66.9790039 C135.490723,65.6704036 135.817868,64.6511267 136.472168,63.9211426 C137.126468,63.1911585 138.034662,62.8261719 139.196777,62.8261719 C140.31983,62.8261719 141.212155,63.1997033 141.873779,63.9467773 C142.535404,64.6938514 142.866211,65.7045835 142.866211,66.9790039 Z M136.750488,66.9790039 C136.750488,68.0043997 136.955564,68.7856418 137.365723,69.3227539 C137.775881,69.859866 138.378902,70.128418 139.174805,70.128418 C139.970707,70.128418 140.574949,69.8610867 140.987549,69.326416 C141.400149,68.7917454 141.606445,68.0092825 141.606445,66.9790039 C141.606445,65.958491 141.400149,65.1833523 140.987549,64.6535645 C140.574949,64.1237766 139.965824,63.8588867 139.160156,63.8588867 C138.364254,63.8588867 137.763674,64.1201146 137.358398,64.6425781 C136.953123,65.1650417 136.750488,65.9438425 136.750488,66.9790039 Z M146.213379,71 L144.997559,71 L144.997559,62.9726562 L146.213379,62.9726562 L146.213379,71 Z M144.89502,60.7973633 C144.89502,60.5190416 144.963378,60.3151862 145.100098,60.185791 C145.236817,60.0563958 145.407714,59.9916992 145.612793,59.9916992 C145.808106,59.9916992 145.976562,60.0576165 146.118164,60.1894531 C146.259766,60.3212897 146.330566,60.5239244 146.330566,60.7973633 C146.330566,61.0708021 146.259766,61.2746575 146.118164,61.4089355 C145.976562,61.5432136 145.808106,61.6103516 145.612793,61.6103516 C145.407714,61.6103516 145.236817,61.5432136 145.100098,61.4089355 C144.963378,61.2746575 144.89502,61.0708021 144.89502,60.7973633 Z M150.725098,66.8911133 L147.93457,62.9726562 L149.318848,62.9726562 L151.435547,66.0488281 L153.544922,62.9726562 L154.914551,62.9726562 L152.124023,66.8911133 L155.061035,71 L153.684082,71 L151.435547,67.7480469 L149.165039,71 L147.788086,71 L150.725098,66.8911133 Z M163.754883,71.1464844 C162.592768,71.1464844 161.693118,70.7888219 161.055908,70.0734863 C160.418698,69.3581507 160.100098,68.3461979 160.100098,67.0375977 C160.100098,65.6948175 160.423581,64.6572302 161.070557,63.9248047 C161.717533,63.1923792 162.639154,62.8261719 163.835449,62.8261719 C164.221193,62.8261719 164.606932,62.8676754 164.992676,62.9506836 C165.37842,63.0336918 165.681151,63.1313471 165.900879,63.2436523 L165.527344,64.2763672 C165.258788,64.1689448 164.965822,64.0798343 164.648438,64.0090332 C164.331053,63.9382321 164.050294,63.902832 163.806152,63.902832 C162.175285,63.902832 161.359863,64.9428607 161.359863,67.0229492 C161.359863,68.0092823 161.558836,68.7661106 161.956787,69.293457 C162.354738,69.8208034 162.944332,70.0844727 163.725586,70.0844727 C164.394535,70.0844727 165.080563,69.9404311 165.783691,69.6523438 L165.783691,70.7290039 C165.246579,71.0073256 164.570317,71.1464844 163.754883,71.1464844 Z M174.616699,66.9790039 C174.616699,68.2876042 174.287113,69.3093225 173.62793,70.0441895 C172.968747,70.7790564 172.058111,71.1464844 170.895996,71.1464844 C170.178219,71.1464844 169.541018,70.978029 168.984375,70.6411133 C168.427732,70.3041975 167.998048,69.8208039 167.695312,69.190918 C167.392577,68.561032 167.241211,67.8237347 167.241211,66.9790039 C167.241211,65.6704036 167.568356,64.6511267 168.222656,63.9211426 C168.876956,63.1911585 169.78515,62.8261719 170.947266,62.8261719 C172.070318,62.8261719 172.962643,63.1997033 173.624268,63.9467773 C174.285892,64.6938514 174.616699,65.7045835 174.616699,66.9790039 Z M168.500977,66.9790039 C168.500977,68.0043997 168.706053,68.7856418 169.116211,69.3227539 C169.526369,69.859866 170.129391,70.128418 170.925293,70.128418 C171.721195,70.128418 172.325437,69.8610867 172.738037,69.326416 C173.150637,68.7917454 173.356934,68.0092825 173.356934,66.9790039 C173.356934,65.958491 173.150637,65.1833523 172.738037,64.6535645 C172.325437,64.1237766 171.716313,63.8588867 170.910645,63.8588867 C170.114742,63.8588867 169.514162,64.1201146 169.108887,64.6425781 C168.703611,65.1650417 168.500977,65.9438425 168.500977,66.9790039 Z M177.963867,71 L176.748047,71 L176.748047,59.6035156 L177.963867,59.6035156 L177.963867,71 Z M181.757812,71 L180.541992,71 L180.541992,59.6035156 L181.757812,59.6035156 L181.757812,71 Z M187.727051,71.1464844 C186.540521,71.1464844 185.604251,70.7851599 184.918213,70.0625 C184.232174,69.3398401 183.88916,68.3364322 183.88916,67.0522461 C183.88916,65.7582943 184.20776,64.7304726 184.844971,63.96875 C185.482181,63.2070274 186.337885,62.8261719 187.412109,62.8261719 C188.417974,62.8261719 189.213864,63.1569791 189.799805,63.8186035 C190.385745,64.4802279 190.678711,65.3530219 190.678711,66.4370117 L190.678711,67.2060547 L185.148926,67.2060547 C185.17334,68.1484422 185.411375,68.8637671 185.863037,69.3520508 C186.3147,69.8403345 186.950679,70.0844727 187.770996,70.0844727 C188.635258,70.0844727 189.489742,69.9038104 190.334473,69.5424805 L190.334473,70.6264648 C189.904783,70.8120126 189.498293,70.945068 189.11499,71.0256348 C188.731688,71.1062016 188.269046,71.1464844 187.727051,71.1464844 Z M187.397461,63.8442383 C186.752926,63.8442383 186.239016,64.0541971 185.855713,64.4741211 C185.47241,64.8940451 185.246582,65.4750939 185.178223,66.2172852 L189.375,66.2172852 C189.375,65.4506798 189.204103,64.8635274 188.862305,64.4558105 C188.520506,64.0480937 188.03223,63.8442383 187.397461,63.8442383 Z M195.959473,71.1464844 C194.797357,71.1464844 193.897708,70.7888219 193.260498,70.0734863 C192.623288,69.3581507 192.304688,68.3461979 192.304688,67.0375977 C192.304688,65.6948175 192.628171,64.6572302 193.275146,63.9248047 C193.922122,63.1923792 194.843744,62.8261719 196.040039,62.8261719 C196.425783,62.8261719 196.811522,62.8676754 197.197266,62.9506836 C197.58301,63.0336918 197.885741,63.1313471 198.105469,63.2436523 L197.731934,64.2763672 C197.463378,64.1689448 197.170412,64.0798343 196.853027,64.0090332 C196.535643,63.9382321 196.254884,63.902832 196.010742,63.902832 C194.379875,63.902832 193.564453,64.9428607 193.564453,67.0229492 C193.564453,68.0092823 193.763426,68.7661106 194.161377,69.293457 C194.559328,69.8208034 195.148922,70.0844727 195.930176,70.0844727 C196.599124,70.0844727 197.285153,69.9404311 197.988281,69.6523438 L197.988281,70.7290039 C197.451169,71.0073256 196.774906,71.1464844 195.959473,71.1464844 Z M202.485352,70.1430664 C202.700196,70.1430664 202.907714,70.1271974 203.10791,70.095459 C203.308106,70.0637205 203.466796,70.0307619 203.583984,69.996582 L203.583984,70.9267578 C203.452148,70.9902347 203.258058,71.0427244 203.001709,71.0842285 C202.74536,71.1257326 202.514649,71.1464844 202.30957,71.1464844 C200.756828,71.1464844 199.980469,70.3286215 199.980469,68.6928711 L199.980469,63.9174805 L198.830566,63.9174805 L198.830566,63.331543 L199.980469,62.8261719 L200.493164,61.1123047 L201.196289,61.1123047 L201.196289,62.9726562 L203.525391,62.9726562 L203.525391,63.9174805 L201.196289,63.9174805 L201.196289,68.6416016 C201.196289,69.1250024 201.311034,69.4960925 201.540527,69.7548828 C201.770021,70.0136732 202.084959,70.1430664 202.485352,70.1430664 Z M206.403809,71 L205.187988,71 L205.187988,62.9726562 L206.403809,62.9726562 L206.403809,71 Z M205.085449,60.7973633 C205.085449,60.5190416 205.153808,60.3151862 205.290527,60.185791 C205.427247,60.0563958 205.598144,59.9916992 205.803223,59.9916992 C205.998536,59.9916992 206.166991,60.0576165 206.308594,60.1894531 C206.450196,60.3212897 206.520996,60.5239244 206.520996,60.7973633 C206.520996,61.0708021 206.450196,61.2746575 206.308594,61.4089355 C206.166991,61.5432136 205.998536,61.6103516 205.803223,61.6103516 C205.598144,61.6103516 205.427247,61.5432136 205.290527,61.4089355 C205.153808,61.2746575 205.085449,61.0708021 205.085449,60.7973633 Z M212.600098,63.9174805 L210.556641,63.9174805 L210.556641,71 L209.34082,71 L209.34082,63.9174805 L207.905273,63.9174805 L207.905273,63.3681641 L209.34082,62.9287109 L209.34082,62.4819336 C209.34082,60.5092675 210.202628,59.5229492 211.92627,59.5229492 C212.351076,59.5229492 212.849118,59.6083976 213.42041,59.7792969 L213.105469,60.753418 C212.636716,60.60205 212.23633,60.5263672 211.904297,60.5263672 C211.44531,60.5263672 211.105958,60.6789536 210.88623,60.9841309 C210.666503,61.2893082 210.556641,61.7788052 210.556641,62.4526367 L210.556641,62.9726562 L212.600098,62.9726562 L212.600098,63.9174805 Z M219.243164,68.8100586 C219.243164,69.5571326 218.964847,70.1332988 218.408203,70.5385742 C217.85156,70.9438497 217.070318,71.1464844 216.064453,71.1464844 C214.999995,71.1464844 214.169925,70.978029 213.574219,70.6411133 L213.574219,69.5131836 C213.959963,69.7084971 214.373777,69.8623041 214.815674,69.9746094 C215.257571,70.0869146 215.683592,70.1430664 216.09375,70.1430664 C216.728519,70.1430664 217.216795,70.0417491 217.558594,69.8391113 C217.900392,69.6364736 218.071289,69.3276388 218.071289,68.9125977 C218.071289,68.6000961 217.935792,68.3327648 217.664795,68.1105957 C217.393797,67.8884266 216.865238,67.6259781 216.079102,67.3232422 C215.332028,67.0449205 214.801027,66.802003 214.486084,66.5944824 C214.171141,66.3869619 213.936768,66.1513685 213.782959,65.8876953 C213.62915,65.6240221 213.552246,65.3090839 213.552246,64.9428711 C213.552246,64.2885709 213.818357,63.7722187 214.350586,63.3937988 C214.882815,63.015379 215.612788,62.8261719 216.540527,62.8261719 C217.404789,62.8261719 218.249508,63.0019514 219.074707,63.3535156 L218.642578,64.3422852 C217.83691,64.0102522 217.106937,63.8442383 216.452637,63.8442383 C215.876462,63.8442383 215.441896,63.9345694 215.148926,64.1152344 C214.855956,64.2958993 214.709473,64.5449203 214.709473,64.8623047 C214.709473,65.0771495 214.764404,65.2602531 214.874268,65.4116211 C214.984131,65.562989 215.161132,65.7070306 215.405273,65.84375 C215.649415,65.9804694 216.118161,66.1782214 216.811523,66.4370117 C217.763677,66.7836931 218.406981,67.1328107 218.741455,67.484375 C219.075929,67.8359393 219.243164,68.2778294 219.243164,68.8100586 Z M222.495117,69.2568359 L222.60498,69.425293 C222.478027,69.9135767 222.294923,70.4811979 222.055664,71.1281738 C221.816405,71.7751497 221.567384,72.3769503 221.308594,72.9335938 L220.393066,72.9335938 C220.524903,72.4257787 220.670165,71.7983436 220.828857,71.0512695 C220.98755,70.3041955 221.098632,69.7060569 221.162109,69.2568359 L222.495117,69.2568359 Z M48.8818359,90.1430664 C49.0966808,90.1430664 49.3041982,90.1271974 49.5043945,90.095459 C49.7045908,90.0637205 49.8632807,90.0307619 49.9804688,89.996582 L49.9804688,90.9267578 C49.8486322,90.9902347 49.6545423,91.0427244 49.3981934,91.0842285 C49.1418444,91.1257326 48.9111338,91.1464844 48.7060547,91.1464844 C47.1533125,91.1464844 46.3769531,90.3286215 46.3769531,88.6928711 L46.3769531,83.9174805 L45.2270508,83.9174805 L45.2270508,83.331543 L46.3769531,82.8261719 L46.8896484,81.1123047 L47.5927734,81.1123047 L47.5927734,82.9726562 L49.921875,82.9726562 L49.921875,83.9174805 L47.5927734,83.9174805 L47.5927734,88.6416016 C47.5927734,89.1250024 47.7075184,89.4960925 47.9370117,89.7548828 C48.1665051,90.0136732 48.4814433,90.1430664 48.8818359,90.1430664 Z M54.9755859,91.1464844 C53.7890566,91.1464844 52.8527866,90.7851599 52.166748,90.0625 C51.4807095,89.3398401 51.1376953,88.3364322 51.1376953,87.0522461 C51.1376953,85.7582943 51.4562956,84.7304726 52.0935059,83.96875 C52.7307161,83.2070274 53.5864204,82.8261719 54.6606445,82.8261719 C55.6665089,82.8261719 56.4623994,83.1569791 57.0483398,83.8186035 C57.6342803,84.4802279 57.9272461,85.3530219 57.9272461,86.4370117 L57.9272461,87.2060547 L52.3974609,87.2060547 C52.4218751,88.1484422 52.6599099,88.8637671 53.1115723,89.3520508 C53.5632347,89.8403345 54.1992146,90.0844727 55.0195312,90.0844727 C55.8837934,90.0844727 56.738277,89.9038104 57.5830078,89.5424805 L57.5830078,90.6264648 C57.1533182,90.8120126 56.7468281,90.945068 56.3635254,91.0256348 C55.9802227,91.1062016 55.5175808,91.1464844 54.9755859,91.1464844 Z M54.6459961,83.8442383 C54.0014616,83.8442383 53.4875507,84.0541971 53.104248,84.4741211 C52.7209453,84.8940451 52.4951175,85.4750939 52.4267578,86.2172852 L56.6235352,86.2172852 C56.6235352,85.4506798 56.4526384,84.8635274 56.1108398,84.4558105 C55.7690413,84.0480937 55.2807649,83.8442383 54.6459961,83.8442383 Z M65.1782227,88.8100586 C65.1782227,89.5571326 64.8999051,90.1332988 64.3432617,90.5385742 C63.7866183,90.9438497 63.0053761,91.1464844 61.9995117,91.1464844 C60.9350533,91.1464844 60.1049834,90.978029 59.5092773,90.6411133 L59.5092773,89.5131836 C59.8950215,89.7084971 60.3088357,89.8623041 60.7507324,89.9746094 C61.1926292,90.0869146 61.6186503,90.1430664 62.0288086,90.1430664 C62.6635774,90.1430664 63.1518538,90.0417491 63.4936523,89.8391113 C63.8354509,89.6364736 64.0063477,89.3276388 64.0063477,88.9125977 C64.0063477,88.6000961 63.870851,88.3327648 63.5998535,88.1105957 C63.3288561,87.8884266 62.8002969,87.6259781 62.0141602,87.3232422 C61.2670861,87.0449205 60.7360856,86.802003 60.4211426,86.5944824 C60.1061996,86.3869619 59.8718269,86.1513685 59.7180176,85.8876953 C59.5642082,85.6240221 59.4873047,85.3090839 59.4873047,84.9428711 C59.4873047,84.2885709 59.7534153,83.7722187 60.2856445,83.3937988 C60.8178738,83.015379 61.5478469,82.8261719 62.4755859,82.8261719 C63.3398481,82.8261719 64.1845662,83.0019514 65.0097656,83.3535156 L64.5776367,84.3422852 C63.7719686,84.0102522 63.0419955,83.8442383 62.3876953,83.8442383 C61.8115206,83.8442383 61.3769546,83.9345694 61.0839844,84.1152344 C60.7910142,84.2958993 60.6445312,84.5449203 60.6445312,84.8623047 C60.6445312,85.0771495 60.6994623,85.2602531 60.8093262,85.4116211 C60.91919,85.562989 61.0961902,85.7070306 61.340332,85.84375 C61.5844739,85.9804694 62.0532192,86.1782214 62.746582,86.4370117 C63.6987352,86.7836931 64.3420393,87.1328107 64.6765137,87.484375 C65.010988,87.8359393 65.1782227,88.2778294 65.1782227,88.8100586 Z M69.7485352,90.1430664 C69.96338,90.1430664 70.1708974,90.1271974 70.3710938,90.095459 C70.5712901,90.0637205 70.7299799,90.0307619 70.847168,89.996582 L70.847168,90.9267578 C70.7153314,90.9902347 70.5212415,91.0427244 70.2648926,91.0842285 C70.0085436,91.1257326 69.7778331,91.1464844 69.5727539,91.1464844 C68.0200118,91.1464844 67.2436523,90.3286215 67.2436523,88.6928711 L67.2436523,83.9174805 L66.09375,83.9174805 L66.09375,83.331543 L67.2436523,82.8261719 L67.7563477,81.1123047 L68.4594727,81.1123047 L68.4594727,82.9726562 L70.7885742,82.9726562 L70.7885742,83.9174805 L68.4594727,83.9174805 L68.4594727,88.6416016 C68.4594727,89.1250024 68.5742176,89.4960925 68.8037109,89.7548828 C69.0332043,90.0136732 69.3481425,90.1430664 69.7485352,90.1430664 Z M75.8422852,91.1464844 C74.6557558,91.1464844 73.7194859,90.7851599 73.0334473,90.0625 C72.3474087,89.3398401 72.0043945,88.3364322 72.0043945,87.0522461 C72.0043945,85.7582943 72.3229949,84.7304726 72.9602051,83.96875 C73.5974153,83.2070274 74.4531196,82.8261719 75.5273438,82.8261719 C76.5332082,82.8261719 77.3290986,83.1569791 77.9150391,83.8186035 C78.5009795,84.4802279 78.7939453,85.3530219 78.7939453,86.4370117 L78.7939453,87.2060547 L73.2641602,87.2060547 C73.2885743,88.1484422 73.5266091,88.8637671 73.9782715,89.3520508 C74.4299339,89.8403345 75.0659139,90.0844727 75.8862305,90.0844727 C76.7504926,90.0844727 77.6049762,89.9038104 78.449707,89.5424805 L78.449707,90.6264648 C78.0200174,90.8120126 77.6135273,90.945068 77.2302246,91.0256348 C76.8469219,91.1062016 76.3842801,91.1464844 75.8422852,91.1464844 Z M75.5126953,83.8442383 C74.8681608,83.8442383 74.35425,84.0541971 73.9709473,84.4741211 C73.5876446,84.8940451 73.3618167,85.4750939 73.293457,86.2172852 L77.4902344,86.2172852 C77.4902344,85.4506798 77.3193376,84.8635274 76.9775391,84.4558105 C76.6357405,84.0480937 76.1474641,83.8442383 75.5126953,83.8442383 Z M86.0009766,91 L80.1782227,91 L80.1782227,90.1723633 L84.5581055,83.9174805 L80.4492188,83.9174805 L80.4492188,82.9726562 L85.8911133,82.9726562 L85.8911133,83.9174805 L81.5698242,90.0551758 L86.0009766,90.0551758 L86.0009766,91 Z M92.9956055,91 L91.7797852,91 L91.7797852,79.6035156 L92.9956055,79.6035156 L92.9956055,91 Z M98.9648438,91.1464844 C97.7783144,91.1464844 96.8420444,90.7851599 96.1560059,90.0625 C95.4699673,89.3398401 95.1269531,88.3364322 95.1269531,87.0522461 C95.1269531,85.7582943 95.4455535,84.7304726 96.0827637,83.96875 C96.7199739,83.2070274 97.5756782,82.8261719 98.6499023,82.8261719 C99.6557667,82.8261719 100.451657,83.1569791 101.037598,83.8186035 C101.623538,84.4802279 101.916504,85.3530219 101.916504,86.4370117 L101.916504,87.2060547 L96.3867188,87.2060547 C96.4111329,88.1484422 96.6491677,88.8637671 97.1008301,89.3520508 C97.5524925,89.8403345 98.1884725,90.0844727 99.0087891,90.0844727 C99.8730512,90.0844727 100.727535,89.9038104 101.572266,89.5424805 L101.572266,90.6264648 C101.142576,90.8120126 100.736086,90.945068 100.352783,91.0256348 C99.9694805,91.1062016 99.5068386,91.1464844 98.9648438,91.1464844 Z M98.6352539,83.8442383 C97.9907194,83.8442383 97.4768086,84.0541971 97.0935059,84.4741211 C96.7102032,84.8940451 96.4843753,85.4750939 96.4160156,86.2172852 L100.612793,86.2172852 C100.612793,85.4506798 100.441896,84.8635274 100.100098,84.4558105 C99.7582991,84.0480937 99.2700227,83.8442383 98.6352539,83.8442383 Z M109.16748,88.8100586 C109.16748,89.5571326 108.889163,90.1332988 108.33252,90.5385742 C107.775876,90.9438497 106.994634,91.1464844 105.98877,91.1464844 C104.924311,91.1464844 104.094241,90.978029 103.498535,90.6411133 L103.498535,89.5131836 C103.884279,89.7084971 104.298093,89.8623041 104.73999,89.9746094 C105.181887,90.0869146 105.607908,90.1430664 106.018066,90.1430664 C106.652835,90.1430664 107.141112,90.0417491 107.48291,89.8391113 C107.824709,89.6364736 107.995605,89.3276388 107.995605,88.9125977 C107.995605,88.6000961 107.860109,88.3327648 107.589111,88.1105957 C107.318114,87.8884266 106.789555,87.6259781 106.003418,87.3232422 C105.256344,87.0449205 104.725343,86.802003 104.4104,86.5944824 C104.095457,86.3869619 103.861085,86.1513685 103.707275,85.8876953 C103.553466,85.6240221 103.476562,85.3090839 103.476562,84.9428711 C103.476562,84.2885709 103.742673,83.7722187 104.274902,83.3937988 C104.807132,83.015379 105.537105,82.8261719 106.464844,82.8261719 C107.329106,82.8261719 108.173824,83.0019514 108.999023,83.3535156 L108.566895,84.3422852 C107.761226,84.0102522 107.031253,83.8442383 106.376953,83.8442383 C105.800778,83.8442383 105.366212,83.9345694 105.073242,84.1152344 C104.780272,84.2958993 104.633789,84.5449203 104.633789,84.8623047 C104.633789,85.0771495 104.68872,85.2602531 104.798584,85.4116211 C104.908448,85.562989 105.085448,85.7070306 105.32959,85.84375 C105.573732,85.9804694 106.042477,86.1782214 106.73584,86.4370117 C107.687993,86.7836931 108.331297,87.1328107 108.665771,87.484375 C109.000246,87.8359393 109.16748,88.2778294 109.16748,88.8100586 Z M118.249512,91.1464844 C117.087397,91.1464844 116.187747,90.7888219 115.550537,90.0734863 C114.913327,89.3581507 114.594727,88.3461979 114.594727,87.0375977 C114.594727,85.6948175 114.91821,84.6572302 115.565186,83.9248047 C116.212161,83.1923792 117.133783,82.8261719 118.330078,82.8261719 C118.715822,82.8261719 119.101561,82.8676754 119.487305,82.9506836 C119.873049,83.0336918 120.17578,83.1313471 120.395508,83.2436523 L120.021973,84.2763672 C119.753417,84.1689448 119.460451,84.0798343 119.143066,84.0090332 C118.825682,83.9382321 118.544923,83.902832 118.300781,83.902832 C116.669914,83.902832 115.854492,84.9428607 115.854492,87.0229492 C115.854492,88.0092823 116.053465,88.7661106 116.451416,89.293457 C116.849367,89.8208034 117.438961,90.0844727 118.220215,90.0844727 C118.889164,90.0844727 119.575192,89.9404311 120.27832,89.6523438 L120.27832,90.7290039 C119.741208,91.0073256 119.064945,91.1464844 118.249512,91.1464844 Z M129.111328,86.9790039 C129.111328,88.2876042 128.781742,89.3093225 128.122559,90.0441895 C127.463376,90.7790564 126.55274,91.1464844 125.390625,91.1464844 C124.672848,91.1464844 124.035647,90.978029 123.479004,90.6411133 C122.92236,90.3041975 122.492677,89.8208039 122.189941,89.190918 C121.887206,88.561032 121.73584,87.8237347 121.73584,86.9790039 C121.73584,85.6704036 122.062985,84.6511267 122.717285,83.9211426 C123.371585,83.1911585 124.279779,82.8261719 125.441895,82.8261719 C126.564947,82.8261719 127.457272,83.1997033 128.118896,83.9467773 C128.780521,84.6938514 129.111328,85.7045835 129.111328,86.9790039 Z M122.995605,86.9790039 C122.995605,88.0043997 123.200682,88.7856418 123.61084,89.3227539 C124.020998,89.859866 124.624019,90.128418 125.419922,90.128418 C126.215824,90.128418 126.820066,89.8610867 127.232666,89.326416 C127.645266,88.7917454 127.851562,88.0092825 127.851562,86.9790039 C127.851562,85.958491 127.645266,85.1833523 127.232666,84.6535645 C126.820066,84.1237766 126.210942,83.8588867 125.405273,83.8588867 C124.609371,83.8588867 124.008791,84.1201146 123.603516,84.6425781 C123.19824,85.1650417 122.995605,85.9438425 122.995605,86.9790039 Z M136.73584,91 L136.73584,85.8071289 C136.73584,85.1528288 136.586916,84.6645524 136.289062,84.3422852 C135.991209,84.0200179 135.524906,83.8588867 134.890137,83.8588867 C134.050289,83.8588867 133.435061,84.0859352 133.044434,84.5400391 C132.653807,84.9941429 132.458496,85.7436471 132.458496,86.7885742 L132.458496,91 L131.242676,91 L131.242676,82.9726562 L132.231445,82.9726562 L132.429199,84.0712891 L132.487793,84.0712891 C132.736818,83.6757793 133.085935,83.3693859 133.535156,83.1520996 C133.984377,82.9348134 134.484861,82.8261719 135.036621,82.8261719 C136.003423,82.8261719 136.730955,83.0593238 137.219238,83.5256348 C137.707522,83.9919457 137.95166,84.7377878 137.95166,85.7631836 L137.95166,91 L136.73584,91 Z M145.942383,91 L145.942383,85.8071289 C145.942383,85.1528288 145.793459,84.6645524 145.495605,84.3422852 C145.197752,84.0200179 144.731448,83.8588867 144.09668,83.8588867 C143.256832,83.8588867 142.641604,84.0859352 142.250977,84.5400391 C141.86035,84.9941429 141.665039,85.7436471 141.665039,86.7885742 L141.665039,91 L140.449219,91 L140.449219,82.9726562 L141.437988,82.9726562 L141.635742,84.0712891 L141.694336,84.0712891 C141.943361,83.6757793 142.292478,83.3693859 142.741699,83.1520996 C143.19092,82.9348134 143.691403,82.8261719 144.243164,82.8261719 C145.209966,82.8261719 145.937498,83.0593238 146.425781,83.5256348 C146.914065,83.9919457 147.158203,84.7377878 147.158203,85.7631836 L147.158203,91 L145.942383,91 Z M154.592285,91 L154.350586,89.8574219 L154.291992,89.8574219 C153.8916,90.3603541 153.492434,90.7009268 153.094482,90.8791504 C152.696531,91.0573739 152.19971,91.1464844 151.604004,91.1464844 C150.808101,91.1464844 150.184328,90.9414083 149.732666,90.53125 C149.281004,90.1210917 149.055176,89.5376014 149.055176,88.7807617 C149.055176,87.1596599 150.35155,86.310059 152.944336,86.2319336 L154.306641,86.1879883 L154.306641,85.6899414 C154.306641,85.0600554 154.171144,84.5949722 153.900146,84.2946777 C153.629149,83.9943833 153.195804,83.8442383 152.600098,83.8442383 C151.931149,83.8442383 151.174321,84.0493144 150.32959,84.4594727 L149.956055,83.5292969 C150.351564,83.3144521 150.78491,83.1459967 151.256104,83.0239258 C151.727297,82.9018549 152.199705,82.8408203 152.67334,82.8408203 C153.630376,82.8408203 154.339597,83.0532205 154.801025,83.4780273 C155.262453,83.9028342 155.493164,84.5839797 155.493164,85.5214844 L155.493164,91 L154.592285,91 Z M151.845703,90.1430664 C152.602543,90.1430664 153.197019,89.935549 153.62915,89.5205078 C154.061281,89.1054667 154.277344,88.5244178 154.277344,87.7773438 L154.277344,87.0522461 L153.061523,87.1035156 C152.094722,87.1376955 151.397707,87.2878405 150.970459,87.5539551 C150.543211,87.8200697 150.32959,88.2338839 150.32959,88.7954102 C150.32959,89.2348655 150.462645,89.5693348 150.72876,89.7988281 C150.994874,90.0283215 151.367185,90.1430664 151.845703,90.1430664 Z M159.213867,91 L157.998047,91 L157.998047,82.9726562 L159.213867,82.9726562 L159.213867,91 Z M157.895508,80.7973633 C157.895508,80.5190416 157.963867,80.3151862 158.100586,80.185791 C158.237305,80.0563958 158.408202,79.9916992 158.613281,79.9916992 C158.808595,79.9916992 158.97705,80.0576165 159.118652,80.1894531 C159.260255,80.3212897 159.331055,80.5239244 159.331055,80.7973633 C159.331055,81.0708021 159.260255,81.2746575 159.118652,81.4089355 C158.97705,81.5432136 158.808595,81.6103516 158.613281,81.6103516 C158.408202,81.6103516 158.237305,81.5432136 158.100586,81.4089355 C157.963867,81.2746575 157.895508,81.0708021 157.895508,80.7973633 Z M166.970215,88.8100586 C166.970215,89.5571326 166.691897,90.1332988 166.135254,90.5385742 C165.57861,90.9438497 164.797368,91.1464844 163.791504,91.1464844 C162.727045,91.1464844 161.896976,90.978029 161.30127,90.6411133 L161.30127,89.5131836 C161.687014,89.7084971 162.100828,89.8623041 162.542725,89.9746094 C162.984621,90.0869146 163.410642,90.1430664 163.820801,90.1430664 C164.45557,90.1430664 164.943846,90.0417491 165.285645,89.8391113 C165.627443,89.6364736 165.79834,89.3276388 165.79834,88.9125977 C165.79834,88.6000961 165.662843,88.3327648 165.391846,88.1105957 C165.120848,87.8884266 164.592289,87.6259781 163.806152,87.3232422 C163.059078,87.0449205 162.528078,86.802003 162.213135,86.5944824 C161.898192,86.3869619 161.663819,86.1513685 161.51001,85.8876953 C161.3562,85.6240221 161.279297,85.3090839 161.279297,84.9428711 C161.279297,84.2885709 161.545407,83.7722187 162.077637,83.3937988 C162.609866,83.015379 163.339839,82.8261719 164.267578,82.8261719 C165.13184,82.8261719 165.976558,83.0019514 166.801758,83.3535156 L166.369629,84.3422852 C165.563961,84.0102522 164.833988,83.8442383 164.179688,83.8442383 C163.603513,83.8442383 163.168947,83.9345694 162.875977,84.1152344 C162.583006,84.2958993 162.436523,84.5449203 162.436523,84.8623047 C162.436523,85.0771495 162.491455,85.2602531 162.601318,85.4116211 C162.711182,85.562989 162.888182,85.7070306 163.132324,85.84375 C163.376466,85.9804694 163.845211,86.1782214 164.538574,86.4370117 C165.490727,86.7836931 166.134032,87.1328107 166.468506,87.484375 C166.80298,87.8359393 166.970215,88.2778294 166.970215,88.8100586 Z M174.125977,88.8100586 C174.125977,89.5571326 173.847659,90.1332988 173.291016,90.5385742 C172.734372,90.9438497 171.95313,91.1464844 170.947266,91.1464844 C169.882807,91.1464844 169.052737,90.978029 168.457031,90.6411133 L168.457031,89.5131836 C168.842775,89.7084971 169.25659,89.8623041 169.698486,89.9746094 C170.140383,90.0869146 170.566404,90.1430664 170.976562,90.1430664 C171.611331,90.1430664 172.099608,90.0417491 172.441406,89.8391113 C172.783205,89.6364736 172.954102,89.3276388 172.954102,88.9125977 C172.954102,88.6000961 172.818605,88.3327648 172.547607,88.1105957 C172.27661,87.8884266 171.748051,87.6259781 170.961914,87.3232422 C170.21484,87.0449205 169.683839,86.802003 169.368896,86.5944824 C169.053954,86.3869619 168.819581,86.1513685 168.665771,85.8876953 C168.511962,85.6240221 168.435059,85.3090839 168.435059,84.9428711 C168.435059,84.2885709 168.701169,83.7722187 169.233398,83.3937988 C169.765628,83.015379 170.495601,82.8261719 171.42334,82.8261719 C172.287602,82.8261719 173.13232,83.0019514 173.95752,83.3535156 L173.525391,84.3422852 C172.719723,84.0102522 171.989749,83.8442383 171.335449,83.8442383 C170.759274,83.8442383 170.324708,83.9345694 170.031738,84.1152344 C169.738768,84.2958993 169.592285,84.5449203 169.592285,84.8623047 C169.592285,85.0771495 169.647216,85.2602531 169.75708,85.4116211 C169.866944,85.562989 170.043944,85.7070306 170.288086,85.84375 C170.532228,85.9804694 171.000973,86.1782214 171.694336,86.4370117 C172.646489,86.7836931 173.289793,87.1328107 173.624268,87.484375 C173.958742,87.8359393 174.125977,88.2778294 174.125977,88.8100586 Z M181.040039,91 L180.79834,89.8574219 L180.739746,89.8574219 C180.339353,90.3603541 179.940188,90.7009268 179.542236,90.8791504 C179.144285,91.0573739 178.647464,91.1464844 178.051758,91.1464844 C177.255855,91.1464844 176.632082,90.9414083 176.18042,90.53125 C175.728758,90.1210917 175.50293,89.5376014 175.50293,88.7807617 C175.50293,87.1596599 176.799303,86.310059 179.39209,86.2319336 L180.754395,86.1879883 L180.754395,85.6899414 C180.754395,85.0600554 180.618898,84.5949722 180.3479,84.2946777 C180.076903,83.9943833 179.643558,83.8442383 179.047852,83.8442383 C178.378903,83.8442383 177.622075,84.0493144 176.777344,84.4594727 L176.403809,83.5292969 C176.799318,83.3144521 177.232664,83.1459967 177.703857,83.0239258 C178.175051,82.9018549 178.647459,82.8408203 179.121094,82.8408203 C180.07813,82.8408203 180.787351,83.0532205 181.248779,83.4780273 C181.710207,83.9028342 181.940918,84.5839797 181.940918,85.5214844 L181.940918,91 L181.040039,91 Z M178.293457,90.1430664 C179.050297,90.1430664 179.644773,89.935549 180.076904,89.5205078 C180.509035,89.1054667 180.725098,88.5244178 180.725098,87.7773438 L180.725098,87.0522461 L179.509277,87.1035156 C178.542476,87.1376955 177.845461,87.2878405 177.418213,87.5539551 C176.990965,87.8200697 176.777344,88.2338839 176.777344,88.7954102 C176.777344,89.2348655 176.910399,89.5693348 177.176514,89.7988281 C177.442628,90.0283215 177.814939,90.1430664 178.293457,90.1430664 Z M189.938965,91 L189.938965,85.8071289 C189.938965,85.1528288 189.790041,84.6645524 189.492188,84.3422852 C189.194334,84.0200179 188.728031,83.8588867 188.093262,83.8588867 C187.253414,83.8588867 186.638186,84.0859352 186.247559,84.5400391 C185.856932,84.9941429 185.661621,85.7436471 185.661621,86.7885742 L185.661621,91 L184.445801,91 L184.445801,82.9726562 L185.43457,82.9726562 L185.632324,84.0712891 L185.690918,84.0712891 C185.939943,83.6757793 186.28906,83.3693859 186.738281,83.1520996 C187.187502,82.9348134 187.687986,82.8261719 188.239746,82.8261719 C189.206548,82.8261719 189.93408,83.0593238 190.422363,83.5256348 C190.910647,83.9919457 191.154785,84.7377878 191.154785,85.7631836 L191.154785,91 L189.938965,91 Z M196.860352,91.1464844 C195.698236,91.1464844 194.798587,90.7888219 194.161377,90.0734863 C193.524167,89.3581507 193.205566,88.3461979 193.205566,87.0375977 C193.205566,85.6948175 193.529049,84.6572302 194.176025,83.9248047 C194.823001,83.1923792 195.744623,82.8261719 196.940918,82.8261719 C197.326662,82.8261719 197.7124,82.8676754 198.098145,82.9506836 C198.483889,83.0336918 198.78662,83.1313471 199.006348,83.2436523 L198.632812,84.2763672 C198.364256,84.1689448 198.071291,84.0798343 197.753906,84.0090332 C197.436522,83.9382321 197.155763,83.902832 196.911621,83.902832 C195.280754,83.902832 194.465332,84.9428607 194.465332,87.0229492 C194.465332,88.0092823 194.664305,88.7661106 195.062256,89.293457 C195.460207,89.8208034 196.049801,90.0844727 196.831055,90.0844727 C197.500003,90.0844727 198.186032,89.9404311 198.88916,89.6523438 L198.88916,90.7290039 C198.352048,91.0073256 197.675785,91.1464844 196.860352,91.1464844 Z M204.18457,91.1464844 C202.998041,91.1464844 202.061771,90.7851599 201.375732,90.0625 C200.689694,89.3398401 200.34668,88.3364322 200.34668,87.0522461 C200.34668,85.7582943 200.66528,84.7304726 201.30249,83.96875 C201.9397,83.2070274 202.795405,82.8261719 203.869629,82.8261719 C204.875493,82.8261719 205.671384,83.1569791 206.257324,83.8186035 C206.843265,84.4802279 207.13623,85.3530219 207.13623,86.4370117 L207.13623,87.2060547 L201.606445,87.2060547 C201.630859,88.1484422 201.868894,88.8637671 202.320557,89.3520508 C202.772219,89.8403345 203.408199,90.0844727 204.228516,90.0844727 C205.092778,90.0844727 205.947261,89.9038104 206.791992,89.5424805 L206.791992,90.6264648 C206.362303,90.8120126 205.955812,90.945068 205.57251,91.0256348 C205.189207,91.1062016 204.726565,91.1464844 204.18457,91.1464844 Z M203.85498,83.8442383 C203.210446,83.8442383 202.696535,84.0541971 202.313232,84.4741211 C201.92993,84.8940451 201.704102,85.4750939 201.635742,86.2172852 L205.83252,86.2172852 C205.83252,85.4506798 205.661623,84.8635274 205.319824,84.4558105 C204.978026,84.0480937 204.489749,83.8442383 203.85498,83.8442383 Z M214.387207,88.8100586 C214.387207,89.5571326 214.10889,90.1332988 213.552246,90.5385742 C212.995603,90.9438497 212.21436,91.1464844 211.208496,91.1464844 C210.144038,91.1464844 209.313968,90.978029 208.718262,90.6411133 L208.718262,89.5131836 C209.104006,89.7084971 209.51782,89.8623041 209.959717,89.9746094 C210.401614,90.0869146 210.827635,90.1430664 211.237793,90.1430664 C211.872562,90.1430664 212.360838,90.0417491 212.702637,89.8391113 C213.044435,89.6364736 213.215332,89.3276388 213.215332,88.9125977 C213.215332,88.6000961 213.079835,88.3327648 212.808838,88.1105957 C212.53784,87.8884266 212.009281,87.6259781 211.223145,87.3232422 C210.47607,87.0449205 209.94507,86.802003 209.630127,86.5944824 C209.315184,86.3869619 209.080811,86.1513685 208.927002,85.8876953 C208.773193,85.6240221 208.696289,85.3090839 208.696289,84.9428711 C208.696289,84.2885709 208.9624,83.7722187 209.494629,83.3937988 C210.026858,83.015379 210.756831,82.8261719 211.68457,82.8261719 C212.548832,82.8261719 213.393551,83.0019514 214.21875,83.3535156 L213.786621,84.3422852 C212.980953,84.0102522 212.25098,83.8442383 211.59668,83.8442383 C211.020505,83.8442383 210.585939,83.9345694 210.292969,84.1152344 C209.999999,84.2958993 209.853516,84.5449203 209.853516,84.8623047 C209.853516,85.0771495 209.908447,85.2602531 210.018311,85.4116211 C210.128174,85.562989 210.305175,85.7070306 210.549316,85.84375 C210.793458,85.9804694 211.262204,86.1782214 211.955566,86.4370117 C212.90772,86.7836931 213.551024,87.1328107 213.885498,87.484375 C214.219972,87.8359393 214.387207,88.2778294 214.387207,88.8100586 Z M223.652344,91.1464844 C222.465814,91.1464844 221.529544,90.7851599 220.843506,90.0625 C220.157467,89.3398401 219.814453,88.3364322 219.814453,87.0522461 C219.814453,85.7582943 220.133053,84.7304726 220.770264,83.96875 C221.407474,83.2070274 222.263178,82.8261719 223.337402,82.8261719 C224.343267,82.8261719 225.139157,83.1569791 225.725098,83.8186035 C226.311038,84.4802279 226.604004,85.3530219 226.604004,86.4370117 L226.604004,87.2060547 L221.074219,87.2060547 C221.098633,88.1484422 221.336668,88.8637671 221.78833,89.3520508 C222.239992,89.8403345 222.875972,90.0844727 223.696289,90.0844727 C224.560551,90.0844727 225.415035,89.9038104 226.259766,89.5424805 L226.259766,90.6264648 C225.830076,90.8120126 225.423586,90.945068 225.040283,91.0256348 C224.656981,91.1062016 224.194339,91.1464844 223.652344,91.1464844 Z M223.322754,83.8442383 C222.678219,83.8442383 222.164309,84.0541971 221.781006,84.4741211 C221.397703,84.8940451 221.171875,85.4750939 221.103516,86.2172852 L225.300293,86.2172852 C225.300293,85.4506798 225.129396,84.8635274 224.787598,84.4558105 C224.445799,84.0480937 223.957523,83.8442383 223.322754,83.8442383 Z M234.169922,91 L234.169922,85.8071289 C234.169922,85.1528288 234.020998,84.6645524 233.723145,84.3422852 C233.425291,84.0200179 232.958988,83.8588867 232.324219,83.8588867 C231.484371,83.8588867 230.869143,84.0859352 230.478516,84.5400391 C230.087889,84.9941429 229.892578,85.7436471 229.892578,86.7885742 L229.892578,91 L228.676758,91 L228.676758,82.9726562 L229.665527,82.9726562 L229.863281,84.0712891 L229.921875,84.0712891 C230.1709,83.6757793 230.520017,83.3693859 230.969238,83.1520996 C231.418459,82.9348134 231.918943,82.8261719 232.470703,82.8261719 C233.437505,82.8261719 234.165037,83.0593238 234.65332,83.5256348 C235.141604,83.9919457 235.385742,84.7377878 235.385742,85.7631836 L235.385742,91 L234.169922,91 Z M48.046875,111 L45,102.972656 L46.3037109,102.972656 L48.0322266,107.733398 C48.4228535,108.846685 48.6523434,109.569334 48.7207031,109.901367 L48.7792969,109.901367 C48.8330081,109.642577 49.0026841,109.106694 49.2883301,108.293701 C49.573976,107.480709 50.2148388,105.707045 51.2109375,102.972656 L52.5146484,102.972656 L49.4677734,111 L48.046875,111 Z M60.7324219,106.979004 C60.7324219,108.287604 60.4028353,109.309322 59.7436523,110.044189 C59.0844694,110.779056 58.1738339,111.146484 57.0117188,111.146484 C56.2939417,111.146484 55.6567411,110.978029 55.1000977,110.641113 C54.5434542,110.304198 54.113771,109.820804 53.8110352,109.190918 C53.5082993,108.561032 53.3569336,107.823735 53.3569336,106.979004 C53.3569336,105.670404 53.6840788,104.651127 54.3383789,103.921143 C54.9926791,103.191158 55.9008731,102.826172 57.0629883,102.826172 C58.1860408,102.826172 59.0783658,103.199703 59.7399902,103.946777 C60.4016146,104.693851 60.7324219,105.704583 60.7324219,106.979004 Z M54.6166992,106.979004 C54.6166992,108.0044 54.8217753,108.785642 55.2319336,109.322754 C55.6420919,109.859866 56.2451132,110.128418 57.0410156,110.128418 C57.836918,110.128418 58.44116,109.861087 58.8537598,109.326416 C59.2663595,108.791745 59.4726562,108.009282 59.4726562,106.979004 C59.4726562,105.958491 59.2663595,105.183352 58.8537598,104.653564 C58.44116,104.123777 57.8320353,103.858887 57.0263672,103.858887 C56.2304648,103.858887 55.6298848,104.120115 55.2246094,104.642578 C54.8193339,105.165042 54.6166992,105.943842 54.6166992,106.979004 Z M65.456543,110.143066 C65.6713878,110.143066 65.8789052,110.127197 66.0791016,110.095459 C66.2792979,110.063721 66.4379877,110.030762 66.5551758,109.996582 L66.5551758,110.926758 C66.4233392,110.990235 66.2292493,111.042724 65.9729004,111.084229 C65.7165515,111.125733 65.4858409,111.146484 65.2807617,111.146484 C63.7280196,111.146484 62.9516602,110.328621 62.9516602,108.692871 L62.9516602,103.91748 L61.8017578,103.91748 L61.8017578,103.331543 L62.9516602,102.826172 L63.4643555,101.112305 L64.1674805,101.112305 L64.1674805,102.972656 L66.496582,102.972656 L66.496582,103.91748 L64.1674805,103.91748 L64.1674805,108.641602 C64.1674805,109.125002 64.2822254,109.496092 64.5117188,109.754883 C64.7412121,110.013673 65.0561503,110.143066 65.456543,110.143066 Z M73.0957031,111 L72.8540039,109.857422 L72.7954102,109.857422 C72.3950175,110.360354 71.9958516,110.700927 71.5979004,110.87915 C71.1999492,111.057374 70.703128,111.146484 70.1074219,111.146484 C69.3115195,111.146484 68.6877464,110.941408 68.236084,110.53125 C67.7844216,110.121092 67.5585938,109.537601 67.5585938,108.780762 C67.5585938,107.15966 68.8549675,106.310059 71.4477539,106.231934 L72.8100586,106.187988 L72.8100586,105.689941 C72.8100586,105.060055 72.6745619,104.594972 72.4035645,104.294678 C72.132567,103.994383 71.6992217,103.844238 71.1035156,103.844238 C70.434567,103.844238 69.6777386,104.049314 68.8330078,104.459473 L68.4594727,103.529297 C68.8549824,103.314452 69.2883277,103.145997 69.7595215,103.023926 C70.2307152,102.901855 70.7031226,102.84082 71.1767578,102.84082 C72.1337938,102.84082 72.8430153,103.053221 73.3044434,103.478027 C73.7658714,103.902834 73.996582,104.58398 73.996582,105.521484 L73.996582,111 L73.0957031,111 Z M70.3491211,110.143066 C71.1059608,110.143066 71.7004373,109.935549 72.1325684,109.520508 C72.5646994,109.105467 72.7807617,108.524418 72.7807617,107.777344 L72.7807617,107.052246 L71.5649414,107.103516 C70.5981397,107.137695 69.9011252,107.28784 69.473877,107.553955 C69.0466287,107.82007 68.8330078,108.233884 68.8330078,108.79541 C68.8330078,109.234865 68.9660631,109.569335 69.2321777,109.798828 C69.4982923,110.028321 69.8706031,110.143066 70.3491211,110.143066 Z M81.9946289,111 L81.9946289,105.807129 C81.9946289,105.152829 81.8457046,104.664552 81.5478516,104.342285 C81.2499985,104.020018 80.7836946,103.858887 80.1489258,103.858887 C79.3090778,103.858887 78.6938496,104.085935 78.3032227,104.540039 C77.9125957,104.994143 77.7172852,105.743647 77.7172852,106.788574 L77.7172852,111 L76.5014648,111 L76.5014648,102.972656 L77.4902344,102.972656 L77.6879883,104.071289 L77.746582,104.071289 C77.9956067,103.675779 78.3447243,103.369386 78.7939453,103.1521 C79.2431663,102.934813 79.7436496,102.826172 80.2954102,102.826172 C81.2622119,102.826172 81.9897437,103.059324 82.4780273,103.525635 C82.966311,103.991946 83.2104492,104.737788 83.2104492,105.763184 L83.2104492,111 L81.9946289,111 Z M88.3007812,110.143066 C88.5156261,110.143066 88.7231435,110.127197 88.9233398,110.095459 C89.1235362,110.063721 89.282226,110.030762 89.3994141,109.996582 L89.3994141,110.926758 C89.2675775,110.990235 89.0734876,111.042724 88.8171387,111.084229 C88.5607897,111.125733 88.3300792,111.146484 88.125,111.146484 C86.5722579,111.146484 85.7958984,110.328621 85.7958984,108.692871 L85.7958984,103.91748 L84.6459961,103.91748 L84.6459961,103.331543 L85.7958984,102.826172 L86.3085938,101.112305 L87.0117188,101.112305 L87.0117188,102.972656 L89.3408203,102.972656 L89.3408203,103.91748 L87.0117188,103.91748 L87.0117188,108.641602 C87.0117188,109.125002 87.1264637,109.496092 87.355957,109.754883 C87.5854504,110.013673 87.9003886,110.143066 88.3007812,110.143066 Z M98.6352539,111.146484 C98.1127904,111.146484 97.6355002,111.05005 97.2033691,110.857178 C96.7712381,110.664306 96.4086929,110.367678 96.1157227,109.967285 L96.027832,109.967285 C96.0864261,110.436037 96.1157227,110.880369 96.1157227,111.300293 L96.1157227,114.603516 L94.8999023,114.603516 L94.8999023,102.972656 L95.8886719,102.972656 L96.0571289,104.071289 L96.1157227,104.071289 C96.4282242,103.631834 96.7919901,103.314454 97.2070312,103.119141 C97.6220724,102.923827 98.0981418,102.826172 98.6352539,102.826172 C99.6997124,102.826172 100.521237,103.189938 101.099854,103.91748 C101.67847,104.645023 101.967773,105.665521 101.967773,106.979004 C101.967773,108.29737 101.673587,109.32153 101.085205,110.051514 C100.496823,110.781498 99.680181,111.146484 98.6352539,111.146484 Z M98.4594727,103.858887 C97.6391561,103.858887 97.0459003,104.085935 96.6796875,104.540039 C96.3134747,104.994143 96.1254883,105.716792 96.1157227,106.708008 L96.1157227,106.979004 C96.1157227,108.106939 96.3037091,108.913816 96.6796875,109.399658 C97.0556659,109.8855 97.6586873,110.128418 98.4887695,110.128418 C99.1821324,110.128418 99.7253398,109.847659 100.118408,109.286133 C100.511477,108.724607 100.708008,107.950689 100.708008,106.964355 C100.708008,105.963374 100.511477,105.195559 100.118408,104.660889 C99.7253398,104.126218 99.1723668,103.858887 98.4594727,103.858887 Z M109.02832,111 L108.786621,109.857422 L108.728027,109.857422 C108.327635,110.360354 107.928469,110.700927 107.530518,110.87915 C107.132566,111.057374 106.635745,111.146484 106.040039,111.146484 C105.244137,111.146484 104.620364,110.941408 104.168701,110.53125 C103.717039,110.121092 103.491211,109.537601 103.491211,108.780762 C103.491211,107.15966 104.787585,106.310059 107.380371,106.231934 L108.742676,106.187988 L108.742676,105.689941 C108.742676,105.060055 108.607179,104.594972 108.336182,104.294678 C108.065184,103.994383 107.631839,103.844238 107.036133,103.844238 C106.367184,103.844238 105.610356,104.049314 104.765625,104.459473 L104.39209,103.529297 C104.7876,103.314452 105.220945,103.145997 105.692139,103.023926 C106.163332,102.901855 106.63574,102.84082 107.109375,102.84082 C108.066411,102.84082 108.775632,103.053221 109.237061,103.478027 C109.698489,103.902834 109.929199,104.58398 109.929199,105.521484 L109.929199,111 L109.02832,111 Z M106.281738,110.143066 C107.038578,110.143066 107.633054,109.935549 108.065186,109.520508 C108.497317,109.105467 108.713379,108.524418 108.713379,107.777344 L108.713379,107.052246 L107.497559,107.103516 C106.530757,107.137695 105.833742,107.28784 105.406494,107.553955 C104.979246,107.82007 104.765625,108.233884 104.765625,108.79541 C104.765625,109.234865 104.89868,109.569335 105.164795,109.798828 C105.43091,110.028321 105.80322,110.143066 106.281738,110.143066 Z M116.096191,102.826172 C116.452639,102.826172 116.77246,102.855468 117.055664,102.914062 L116.887207,104.041992 C116.555174,103.96875 116.262208,103.932129 116.008301,103.932129 C115.358883,103.932129 114.803469,104.195798 114.342041,104.723145 C113.880613,105.250491 113.649902,105.907223 113.649902,106.693359 L113.649902,111 L112.434082,111 L112.434082,102.972656 L113.4375,102.972656 L113.57666,104.459473 L113.635254,104.459473 C113.933107,103.937009 114.29199,103.534181 114.711914,103.250977 C115.131838,102.967772 115.593259,102.826172 116.096191,102.826172 Z M48.8818359,130.143066 C49.0966808,130.143066 49.3041982,130.127197 49.5043945,130.095459 C49.7045908,130.063721 49.8632807,130.030762 49.9804688,129.996582 L49.9804688,130.926758 C49.8486322,130.990235 49.6545423,131.042724 49.3981934,131.084229 C49.1418444,131.125733 48.9111338,131.146484 48.7060547,131.146484 C47.1533125,131.146484 46.3769531,130.328621 46.3769531,128.692871 L46.3769531,123.91748 L45.2270508,123.91748 L45.2270508,123.331543 L46.3769531,122.826172 L46.8896484,121.112305 L47.5927734,121.112305 L47.5927734,122.972656 L49.921875,122.972656 L49.921875,123.91748 L47.5927734,123.91748 L47.5927734,128.641602 C47.5927734,129.125002 47.7075184,129.496092 47.9370117,129.754883 C48.1665051,130.013673 48.4814433,130.143066 48.8818359,130.143066 Z M54.9755859,131.146484 C53.7890566,131.146484 52.8527866,130.78516 52.166748,130.0625 C51.4807095,129.33984 51.1376953,128.336432 51.1376953,127.052246 C51.1376953,125.758294 51.4562956,124.730473 52.0935059,123.96875 C52.7307161,123.207027 53.5864204,122.826172 54.6606445,122.826172 C55.6665089,122.826172 56.4623994,123.156979 57.0483398,123.818604 C57.6342803,124.480228 57.9272461,125.353022 57.9272461,126.437012 L57.9272461,127.206055 L52.3974609,127.206055 C52.4218751,128.148442 52.6599099,128.863767 53.1115723,129.352051 C53.5632347,129.840334 54.1992146,130.084473 55.0195312,130.084473 C55.8837934,130.084473 56.738277,129.90381 57.5830078,129.54248 L57.5830078,130.626465 C57.1533182,130.812013 56.7468281,130.945068 56.3635254,131.025635 C55.9802227,131.106202 55.5175808,131.146484 54.9755859,131.146484 Z M54.6459961,123.844238 C54.0014616,123.844238 53.4875507,124.054197 53.104248,124.474121 C52.7209453,124.894045 52.4951175,125.475094 52.4267578,126.217285 L56.6235352,126.217285 C56.6235352,125.45068 56.4526384,124.863527 56.1108398,124.455811 C55.7690413,124.048094 55.2807649,123.844238 54.6459961,123.844238 Z M61.9335938,126.891113 L59.1430664,122.972656 L60.5273438,122.972656 L62.644043,126.048828 L64.753418,122.972656 L66.1230469,122.972656 L63.3325195,126.891113 L66.2695312,131 L64.8925781,131 L62.644043,127.748047 L60.3735352,131 L58.996582,131 L61.9335938,126.891113 Z M70.4516602,130.143066 C70.666505,130.143066 70.8740224,130.127197 71.0742188,130.095459 C71.2744151,130.063721 71.4331049,130.030762 71.550293,129.996582 L71.550293,130.926758 C71.4184564,130.990235 71.2243665,131.042724 70.9680176,131.084229 C70.7116686,131.125733 70.4809581,131.146484 70.2758789,131.146484 C68.7231368,131.146484 67.9467773,130.328621 67.9467773,128.692871 L67.9467773,123.91748 L66.796875,123.91748 L66.796875,123.331543 L67.9467773,122.826172 L68.4594727,121.112305 L69.1625977,121.112305 L69.1625977,122.972656 L71.4916992,122.972656 L71.4916992,123.91748 L69.1625977,123.91748 L69.1625977,128.641602 C69.1625977,129.125002 69.2773426,129.496092 69.5068359,129.754883 C69.7363293,130.013673 70.0512675,130.143066 70.4516602,130.143066 Z M80.0830078,126.979004 C80.0830078,128.287604 79.7534213,129.309322 79.0942383,130.044189 C78.4350553,130.779056 77.5244199,131.146484 76.3623047,131.146484 C75.6445277,131.146484 75.007327,130.978029 74.4506836,130.641113 C73.8940402,130.304198 73.464357,129.820804 73.1616211,129.190918 C72.8588852,128.561032 72.7075195,127.823735 72.7075195,126.979004 C72.7075195,125.670404 73.0346647,124.651127 73.6889648,123.921143 C74.343265,123.191158 75.251459,122.826172 76.4135742,122.826172 C77.5366267,122.826172 78.4289518,123.199703 79.0905762,123.946777 C79.7522006,124.693851 80.0830078,125.704583 80.0830078,126.979004 Z M73.9672852,126.979004 C73.9672852,128.0044 74.1723612,128.785642 74.5825195,129.322754 C74.9926778,129.859866 75.5956991,130.128418 76.3916016,130.128418 C77.187504,130.128418 77.791746,129.861087 78.2043457,129.326416 C78.6169454,128.791745 78.8232422,128.009282 78.8232422,126.979004 C78.8232422,125.958491 78.6169454,125.183352 78.2043457,124.653564 C77.791746,124.123777 77.1826212,123.858887 76.3769531,123.858887 C75.5810507,123.858887 74.9804708,124.120115 74.5751953,124.642578 C74.1699198,125.165042 73.9672852,125.943842 73.9672852,126.979004 Z M82.0385742,130.223633 C82.0385742,129.896483 82.1130364,129.648682 82.2619629,129.480225 C82.4108894,129.311767 82.6245103,129.227539 82.902832,129.227539 C83.1860366,129.227539 83.4069816,129.311767 83.5656738,129.480225 C83.724366,129.648682 83.8037109,129.896483 83.8037109,130.223633 C83.8037109,130.541017 83.7231453,130.785155 83.5620117,130.956055 C83.4008781,131.126954 83.1811537,131.212402 82.902832,131.212402 C82.6538073,131.212402 82.4475106,131.135499 82.2839355,130.981689 C82.1203605,130.82788 82.0385742,130.575197 82.0385742,130.223633 Z" id="Faites-des-choix-col-Copy" fill="#949595"></path>
                    <path d="M58.2368164,195 L57.050293,195 L57.050293,187.368164 C57.050293,186.733395 57.069824,186.132815 57.1088867,185.566406 C57.0063471,185.668946 56.8916022,185.776367 56.7646484,185.888672 C56.6376947,186.000977 56.0566458,186.477047 55.0214844,187.316895 L54.3769531,186.481934 L57.2114258,184.291992 L58.2368164,184.291992 L58.2368164,195 Z" id="1-copy" fill="#949595"></path>
                    <path d="M37.74,196.782609 C33.06,192.782609 30,190.086957 30,186.782609 C30,184.086957 32.16,182 34.95,182 C36.48,182 38.01,182.695652 39,183.826087 C39.99,182.695652 41.52,182 43.05,182 C45.84,182 48,184.086957 48,186.782609 C48,190.086957 44.94,192.782609 40.26,196.782609 L39,198 L37.74,196.782609 Z" id="Like" stroke="#DBD7D7"></path>
                    <path d="M29.4953704,163 L260.50487,163" id="Line" stroke="#F0F0F0" stroke-linecap="square"></path>
                </g>
            </g>
        </g>
    </g>
</svg>