<?xml version="1.0" encoding="UTF-8" standalone="no"?>
<svg width="296px" height="205px" viewBox="0 0 296 205" version="1.1" xmlns="http://www.w3.org/2000/svg" xmlns:xlink="http://www.w3.org/1999/xlink">
    <!-- Generator: Sketch 41.2 (35397) - http://www.bohemiancoding.com/sketch -->
    <title>Bloc 04</title>
    <desc>Created with Sketch.</desc>
    <defs>
        <rect id="path-1" x="0" y="0" width="290" height="199" rx="4"></rect>
        <filter x="-50%" y="-50%" width="200%" height="200%" filterUnits="objectBoundingBox" id="filter-2">
            <feOffset dx="0" dy="2" in="SourceAlpha" result="shadowOffsetOuter1"></feOffset>
            <feGaussianBlur stdDeviation="1.5" in="shadowOffsetOuter1" result="shadowBlurOuter1"></feGaussianBlur>
            <feComposite in="shadowBlurOuter1" in2="SourceAlpha" operator="out" result="shadowBlurOuter1"></feComposite>
            <feColorMatrix values="0 0 0 0 0.929411765   0 0 0 0 0.929411765   0 0 0 0 0.929411765  0 0 0 1 0" type="matrix" in="shadowBlurOuter1"></feColorMatrix>
        </filter>
        <mask id="mask-3" maskContentUnits="userSpaceOnUse" maskUnits="objectBoundingBox" x="0" y="0" width="290" height="199" fill="white">
            <use xlink:href="#path-1"></use>
        </mask>
    </defs>
    <g id="Page-1" stroke="none" stroke-width="1" fill="none" fill-rule="evenodd" opacity="0.247434701">
        <g id="Desktop-HD" transform="translate(-904.000000, -803.000000)">
            <g id="PREMIERE-LAME" transform="translate(-155.000000, -21.000000)">
                <g id="Bloc-04" transform="translate(1062.000000, 825.000000)">
                    <g id="Fond-Bloc-">
                        <use fill="black" fill-opacity="1" filter="url(#filter-2)" xlink:href="#path-1"></use>
                        <use stroke-opacity="0.198228034" stroke="#657077" mask="url(#mask-3)" stroke-width="2" fill="#FFFFFF" fill-rule="evenodd" xlink:href="#path-1"></use>
                    </g>
                    <path d="M51.4414062,72 L45.472168,72 L45.472168,61.2919922 L51.4414062,61.2919922 L51.4414062,62.3979492 L46.7172852,62.3979492 L46.7172852,65.8476562 L51.1557617,65.8476562 L51.1557617,66.9462891 L46.7172852,66.9462891 L46.7172852,70.8867188 L51.4414062,70.8867188 L51.4414062,72 Z M59.1245117,72 L59.1245117,66.8071289 C59.1245117,66.1528288 58.9755874,65.6645524 58.6777344,65.3422852 C58.3798813,65.0200179 57.9135774,64.8588867 57.2788086,64.8588867 C56.4389606,64.8588867 55.8237324,65.0859352 55.4331055,65.5400391 C55.0424785,65.9941429 54.847168,66.7436471 54.847168,67.7885742 L54.847168,72 L53.6313477,72 L53.6313477,63.9726562 L54.6201172,63.9726562 L54.8178711,65.0712891 L54.8764648,65.0712891 C55.1254895,64.6757793 55.4746071,64.3693859 55.9238281,64.1520996 C56.3730491,63.9348134 56.8735324,63.8261719 57.425293,63.8261719 C58.3920947,63.8261719 59.1196265,64.0593238 59.6079102,64.5256348 C60.0961938,64.9919457 60.340332,65.7377878 60.340332,66.7631836 L60.340332,72 L59.1245117,72 Z M67.8769531,63.9726562 L67.8769531,69.1801758 C67.8769531,69.8344759 68.0258774,70.3227523 68.3237305,70.6450195 C68.6215835,70.9672868 69.0878875,71.128418 69.7226562,71.128418 C70.5625042,71.128418 71.1765117,70.8989281 71.5646973,70.4399414 C71.9528828,69.9809547 72.1469727,69.2314505 72.1469727,68.1914062 L72.1469727,63.9726562 L73.362793,63.9726562 L73.362793,72 L72.359375,72 L72.1835938,70.9233398 L72.1176758,70.9233398 C71.8686511,71.3188496 71.5231956,71.621581 71.0812988,71.831543 C70.6394021,72.041505 70.1352567,72.1464844 69.5688477,72.1464844 C68.5922803,72.1464844 67.8610864,71.9145531 67.3752441,71.4506836 C66.8894019,70.9868141 66.6464844,70.244634 66.6464844,69.2241211 L66.6464844,63.9726562 L67.8769531,63.9726562 Z M81.1191406,69.8100586 C81.1191406,70.5571326 80.8408231,71.1332988 80.2841797,71.5385742 C79.7275363,71.9438497 78.9462941,72.1464844 77.9404297,72.1464844 C76.8759712,72.1464844 76.0459014,71.978029 75.4501953,71.6411133 L75.4501953,70.5131836 C75.8359394,70.7084971 76.2497536,70.8623041 76.6916504,70.9746094 C77.1335471,71.0869146 77.5595683,71.1430664 77.9697266,71.1430664 C78.6044954,71.1430664 79.0927717,71.0417491 79.4345703,70.8391113 C79.7763689,70.6364736 79.9472656,70.3276388 79.9472656,69.9125977 C79.9472656,69.6000961 79.8117689,69.3327648 79.5407715,69.1105957 C79.269774,68.8884266 78.7412149,68.6259781 77.9550781,68.3232422 C77.2080041,68.0449205 76.6770035,67.802003 76.3620605,67.5944824 C76.0471176,67.3869619 75.8127449,67.1513685 75.6589355,66.8876953 C75.5051262,66.6240221 75.4282227,66.3090839 75.4282227,65.9428711 C75.4282227,65.2885709 75.6943333,64.7722187 76.2265625,64.3937988 C76.7587917,64.015379 77.4887649,63.8261719 78.4165039,63.8261719 C79.280766,63.8261719 80.1254842,64.0019514 80.9506836,64.3535156 L80.5185547,65.3422852 C79.7128866,65.0102522 78.9829134,64.8442383 78.3286133,64.8442383 C77.7524385,64.8442383 77.3178726,64.9345694 77.0249023,65.1152344 C76.7319321,65.2958993 76.5854492,65.5449203 76.5854492,65.8623047 C76.5854492,66.0771495 76.6403803,66.2602531 76.7502441,66.4116211 C76.860108,66.562989 77.0371082,66.7070306 77.28125,66.84375 C77.5253918,66.9804694 77.9941372,67.1782214 78.6875,67.4370117 C79.6396532,67.7836931 80.2829573,68.1328107 80.6174316,68.484375 C80.951906,68.8359393 81.1191406,69.2778294 81.1191406,69.8100586 Z M88.0332031,72 L87.7915039,70.8574219 L87.7329102,70.8574219 C87.3325175,71.3603541 86.9333516,71.7009268 86.5354004,71.8791504 C86.1374492,72.0573739 85.640628,72.1464844 85.0449219,72.1464844 C84.2490195,72.1464844 83.6252464,71.9414083 83.173584,71.53125 C82.7219216,71.1210917 82.4960938,70.5376014 82.4960938,69.7807617 C82.4960938,68.1596599 83.7924675,67.310059 86.3852539,67.2319336 L87.7475586,67.1879883 L87.7475586,66.6899414 C87.7475586,66.0600554 87.6120619,65.5949722 87.3410645,65.2946777 C87.070067,64.9943833 86.6367217,64.8442383 86.0410156,64.8442383 C85.372067,64.8442383 84.6152386,65.0493144 83.7705078,65.4594727 L83.3969727,64.5292969 C83.7924824,64.3144521 84.2258277,64.1459967 84.6970215,64.0239258 C85.1682152,63.9018549 85.6406226,63.8408203 86.1142578,63.8408203 C87.0712938,63.8408203 87.7805153,64.0532205 88.2419434,64.4780273 C88.7033714,64.9028342 88.934082,65.5839797 88.934082,66.5214844 L88.934082,72 L88.0332031,72 Z M85.2866211,71.1430664 C86.0434608,71.1430664 86.6379373,70.935549 87.0700684,70.5205078 C87.5021994,70.1054667 87.7182617,69.5244178 87.7182617,68.7773438 L87.7182617,68.0522461 L86.5024414,68.1035156 C85.5356397,68.1376955 84.8386252,68.2878405 84.411377,68.5539551 C83.9841287,68.8200697 83.7705078,69.2338839 83.7705078,69.7954102 C83.7705078,70.2348655 83.9035631,70.5693348 84.1696777,70.7988281 C84.4357923,71.0283215 84.8081031,71.1430664 85.2866211,71.1430664 Z M98.0087891,63.9726562 L98.0087891,64.7416992 L96.5219727,64.9174805 C96.6586921,65.0883798 96.7807612,65.3117662 96.8881836,65.5876465 C96.995606,65.8635268 97.0493164,66.174803 97.0493164,66.5214844 C97.0493164,67.3076211 96.7807644,67.9350563 96.2436523,68.4038086 C95.7065403,68.8725609 94.969243,69.1069336 94.0317383,69.1069336 C93.7924793,69.1069336 93.5678721,69.0874025 93.3579102,69.0483398 C92.8403294,69.3217787 92.581543,69.6660135 92.581543,70.0810547 C92.581543,70.3007823 92.6718741,70.4631342 92.8525391,70.5681152 C93.033204,70.6730962 93.3432595,70.7255859 93.7827148,70.7255859 L95.2036133,70.7255859 C96.0727583,70.7255859 96.7404762,70.9086896 97.2067871,71.2749023 C97.673098,71.6411151 97.90625,72.1733364 97.90625,72.871582 C97.90625,73.7602583 97.5498083,74.4377418 96.8369141,74.9040527 C96.1240199,75.3703637 95.0839912,75.6035156 93.7167969,75.6035156 C92.6669869,75.6035156 91.8576689,75.4082051 91.2888184,75.0175781 C90.7199679,74.6269512 90.4355469,74.0751989 90.4355469,73.3623047 C90.4355469,72.874021 90.5917953,72.4516619 90.9042969,72.0952148 C91.2167984,71.7387677 91.6562472,71.4970709 92.2226562,71.3701172 C92.0175771,71.2773433 91.8454597,71.1333018 91.7062988,70.9379883 C91.567138,70.7426748 91.4975586,70.5156263 91.4975586,70.2568359 C91.4975586,69.9638657 91.5756828,69.7075206 91.7319336,69.487793 C91.8881844,69.2680653 92.1347639,69.0556651 92.4716797,68.8505859 C92.0566385,68.6796866 91.7185072,68.3891622 91.4572754,67.9790039 C91.1960436,67.5688456 91.0654297,67.1001003 91.0654297,66.5727539 C91.0654297,65.6938433 91.3290989,65.0163598 91.8564453,64.5402832 C92.3837917,64.0642066 93.1308545,63.8261719 94.0976562,63.8261719 C94.5175802,63.8261719 94.8959944,63.8749995 95.2329102,63.9726562 L98.0087891,63.9726562 Z M91.6074219,73.3476562 C91.6074219,73.7822287 91.7905255,74.1118153 92.1567383,74.3364258 C92.522951,74.5610363 93.0478481,74.6733398 93.7314453,74.6733398 C94.7519582,74.6733398 95.5075659,74.5207535 95.998291,74.2155762 C96.4890161,73.9103989 96.734375,73.4965846 96.734375,72.9741211 C96.734375,72.5395486 96.600099,72.238038 96.331543,72.0695801 C96.0629869,71.9011222 95.5576209,71.8168945 94.8154297,71.8168945 L93.3579102,71.8168945 C92.8061496,71.8168945 92.3764664,71.9487292 92.0688477,72.2124023 C91.7612289,72.4760755 91.6074219,72.8544897 91.6074219,73.3476562 Z M92.2666016,66.543457 C92.2666016,67.1049833 92.4252914,67.5297837 92.7426758,67.8178711 C93.0600602,68.1059585 93.5019503,68.25 94.0683594,68.25 C95.2548887,68.25 95.8481445,67.6738339 95.8481445,66.5214844 C95.8481445,65.3154237 95.2475646,64.7124023 94.0463867,64.7124023 C93.4750948,64.7124023 93.0356461,64.8662094 92.7280273,65.1738281 C92.4204086,65.4814469 92.2666016,65.9379853 92.2666016,66.543457 Z M103.047852,72.1464844 C101.861322,72.1464844 100.925052,71.7851599 100.239014,71.0625 C99.5529751,70.3398401 99.2099609,69.3364322 99.2099609,68.0522461 C99.2099609,66.7582943 99.5285613,65.7304726 100.165771,64.96875 C100.802982,64.2070274 101.658686,63.8261719 102.73291,63.8261719 C103.738775,63.8261719 104.534665,64.1569791 105.120605,64.8186035 C105.706546,65.4802279 105.999512,66.3530219 105.999512,67.4370117 L105.999512,68.2060547 L100.469727,68.2060547 C100.494141,69.1484422 100.732175,69.8637671 101.183838,70.3520508 C101.6355,70.8403345 102.27148,71.0844727 103.091797,71.0844727 C103.956059,71.0844727 104.810543,70.9038104 105.655273,70.5424805 L105.655273,71.6264648 C105.225584,71.8120126 104.819094,71.945068 104.435791,72.0256348 C104.052488,72.1062016 103.589846,72.1464844 103.047852,72.1464844 Z M102.718262,64.8442383 C102.073727,64.8442383 101.559816,65.0541971 101.176514,65.4741211 C100.793211,65.8940451 100.567383,66.4750939 100.499023,67.2172852 L104.695801,67.2172852 C104.695801,66.4506798 104.524904,65.8635274 104.183105,65.4558105 C103.841307,65.0480937 103.353031,64.8442383 102.718262,64.8442383 Z M115.000977,71.128418 C115.811527,71.128418 116.402342,70.911135 116.773438,70.4765625 C117.144533,70.04199 117.342285,69.3095755 117.366699,68.2792969 L117.366699,68.0083008 C117.366699,66.8852483 117.176271,66.0771509 116.79541,65.5839844 C116.414549,65.0908178 115.811528,64.8442383 114.986328,64.8442383 C114.273434,64.8442383 113.727785,65.1213351 113.349365,65.6755371 C112.970945,66.2297391 112.781738,67.012202 112.781738,68.0229492 C112.781738,69.0336965 112.968504,69.8039524 113.342041,70.3337402 C113.715578,70.863528 114.268551,71.128418 115.000977,71.128418 Z M114.817871,72.1464844 C113.78271,72.1464844 112.974612,71.7827185 112.393555,71.0551758 C111.812497,70.3276331 111.521973,69.3120182 111.521973,68.0083008 C111.521973,66.6948177 111.814938,65.6694373 112.400879,64.9321289 C112.986819,64.1948205 113.802241,63.8261719 114.847168,63.8261719 C115.945806,63.8261719 116.790524,64.2412068 117.381348,65.0712891 L117.447266,65.0712891 L117.623047,63.9726562 L118.58252,63.9726562 L118.58252,75.6035156 L117.366699,75.6035156 L117.366699,72.168457 C117.366699,71.6801733 117.393554,71.2651384 117.447266,70.9233398 L117.352051,70.9233398 C116.790525,71.7387736 115.945806,72.1464844 114.817871,72.1464844 Z M122.303223,63.9726562 L122.303223,69.1801758 C122.303223,69.8344759 122.452147,70.3227523 122.75,70.6450195 C123.047853,70.9672868 123.514157,71.128418 124.148926,71.128418 C124.988774,71.128418 125.602781,70.8989281 125.990967,70.4399414 C126.379152,69.9809547 126.573242,69.2314505 126.573242,68.1914062 L126.573242,63.9726562 L127.789062,63.9726562 L127.789062,72 L126.785645,72 L126.609863,70.9233398 L126.543945,70.9233398 C126.294921,71.3188496 125.949465,71.621581 125.507568,71.831543 C125.065672,72.041505 124.561526,72.1464844 123.995117,72.1464844 C123.01855,72.1464844 122.287356,71.9145531 121.801514,71.4506836 C121.315671,70.9868141 121.072754,70.244634 121.072754,69.2241211 L121.072754,63.9726562 L122.303223,63.9726562 Z M137.295898,67.9790039 C137.295898,69.2876042 136.966312,70.3093225 136.307129,71.0441895 C135.647946,71.7790564 134.73731,72.1464844 133.575195,72.1464844 C132.857418,72.1464844 132.220218,71.978029 131.663574,71.6411133 C131.106931,71.3041975 130.677248,70.8208039 130.374512,70.190918 C130.071776,69.561032 129.92041,68.8237347 129.92041,67.9790039 C129.92041,66.6704036 130.247555,65.6511267 130.901855,64.9211426 C131.556156,64.1911585 132.46435,63.8261719 133.626465,63.8261719 C134.749517,63.8261719 135.641842,64.1997033 136.303467,64.9467773 C136.965091,65.6938514 137.295898,66.7045835 137.295898,67.9790039 Z M131.180176,67.9790039 C131.180176,69.0043997 131.385252,69.7856418 131.79541,70.3227539 C132.205568,70.859866 132.80859,71.128418 133.604492,71.128418 C134.400395,71.128418 135.004637,70.8610867 135.417236,70.326416 C135.829836,69.7917454 136.036133,69.0092825 136.036133,67.9790039 C136.036133,66.958491 135.829836,66.1833523 135.417236,65.6535645 C135.004637,65.1237766 134.395512,64.8588867 133.589844,64.8588867 C132.793941,64.8588867 132.193361,65.1201146 131.788086,65.6425781 C131.38281,66.1650417 131.180176,66.9438425 131.180176,67.9790039 Z M142.02002,71.1430664 C142.234864,71.1430664 142.442382,71.1271974 142.642578,71.095459 C142.842774,71.0637205 143.001464,71.0307619 143.118652,70.996582 L143.118652,71.9267578 C142.986816,71.9902347 142.792726,72.0427244 142.536377,72.0842285 C142.280028,72.1257326 142.049317,72.1464844 141.844238,72.1464844 C140.291496,72.1464844 139.515137,71.3286215 139.515137,69.6928711 L139.515137,64.9174805 L138.365234,64.9174805 L138.365234,64.331543 L139.515137,63.8261719 L140.027832,62.1123047 L140.730957,62.1123047 L140.730957,63.9726562 L143.060059,63.9726562 L143.060059,64.9174805 L140.730957,64.9174805 L140.730957,69.6416016 C140.730957,70.1250024 140.845702,70.4960925 141.075195,70.7548828 C141.304689,71.0136732 141.619627,71.1430664 142.02002,71.1430664 Z M145.938477,72 L144.722656,72 L144.722656,63.9726562 L145.938477,63.9726562 L145.938477,72 Z M144.620117,61.7973633 C144.620117,61.5190416 144.688476,61.3151862 144.825195,61.185791 C144.961915,61.0563958 145.132811,60.9916992 145.337891,60.9916992 C145.533204,60.9916992 145.701659,61.0576165 145.843262,61.1894531 C145.984864,61.3212897 146.055664,61.5239244 146.055664,61.7973633 C146.055664,62.0708021 145.984864,62.2746575 145.843262,62.4089355 C145.701659,62.5432136 145.533204,62.6103516 145.337891,62.6103516 C145.132811,62.6103516 144.961915,62.5432136 144.825195,62.4089355 C144.688476,62.2746575 144.620117,62.0708021 144.620117,61.7973633 Z M153.980469,70.9233398 L153.914551,70.9233398 C153.353025,71.7387736 152.513189,72.1464844 151.39502,72.1464844 C150.34521,72.1464844 149.528567,71.7876012 148.945068,71.0698242 C148.361569,70.3520472 148.069824,69.3315496 148.069824,68.0083008 C148.069824,66.685052 148.36279,65.6572302 148.94873,64.9248047 C149.534671,64.1923792 150.350092,63.8261719 151.39502,63.8261719 C152.483892,63.8261719 153.318845,64.2216757 153.899902,65.0126953 L153.995117,65.0126953 L153.943848,64.434082 L153.914551,63.8701172 L153.914551,60.6035156 L155.130371,60.6035156 L155.130371,72 L154.141602,72 L153.980469,70.9233398 Z M151.548828,71.128418 C152.37891,71.128418 152.980711,70.9025901 153.354248,70.4509277 C153.727785,69.9992653 153.914551,69.2705128 153.914551,68.2646484 L153.914551,68.0083008 C153.914551,66.8705998 153.725344,66.0588403 153.346924,65.572998 C152.968504,65.0871558 152.364262,64.8442383 151.53418,64.8442383 C150.821285,64.8442383 150.275637,65.1213351 149.897217,65.6755371 C149.518797,66.2297391 149.32959,67.012202 149.32959,68.0229492 C149.32959,69.048345 149.517576,69.822263 149.893555,70.3447266 C150.269533,70.8671901 150.821285,71.128418 151.548828,71.128418 Z M158.924316,72 L157.708496,72 L157.708496,63.9726562 L158.924316,63.9726562 L158.924316,72 Z M157.605957,61.7973633 C157.605957,61.5190416 157.674316,61.3151862 157.811035,61.185791 C157.947755,61.0563958 158.118651,60.9916992 158.32373,60.9916992 C158.519044,60.9916992 158.687499,61.0576165 158.829102,61.1894531 C158.970704,61.3212897 159.041504,61.5239244 159.041504,61.7973633 C159.041504,62.0708021 158.970704,62.2746575 158.829102,62.4089355 C158.687499,62.5432136 158.519044,62.6103516 158.32373,62.6103516 C158.118651,62.6103516 157.947755,62.5432136 157.811035,62.4089355 C157.674316,62.2746575 157.605957,62.0708021 157.605957,61.7973633 Z M164.893555,72.1464844 C163.707025,72.1464844 162.770755,71.7851599 162.084717,71.0625 C161.398678,70.3398401 161.055664,69.3364322 161.055664,68.0522461 C161.055664,66.7582943 161.374264,65.7304726 162.011475,64.96875 C162.648685,64.2070274 163.504389,63.8261719 164.578613,63.8261719 C165.584478,63.8261719 166.380368,64.1569791 166.966309,64.8186035 C167.552249,65.4802279 167.845215,66.3530219 167.845215,67.4370117 L167.845215,68.2060547 L162.31543,68.2060547 C162.339844,69.1484422 162.577879,69.8637671 163.029541,70.3520508 C163.481203,70.8403345 164.117183,71.0844727 164.9375,71.0844727 C165.801762,71.0844727 166.656246,70.9038104 167.500977,70.5424805 L167.500977,71.6264648 C167.071287,71.8120126 166.664797,71.945068 166.281494,72.0256348 C165.898191,72.1062016 165.43555,72.1464844 164.893555,72.1464844 Z M164.563965,64.8442383 C163.91943,64.8442383 163.405519,65.0541971 163.022217,65.4741211 C162.638914,65.8940451 162.413086,66.4750939 162.344727,67.2172852 L166.541504,67.2172852 C166.541504,66.4506798 166.370607,65.8635274 166.028809,65.4558105 C165.68701,65.0480937 165.198734,64.8442383 164.563965,64.8442383 Z M175.411133,72 L175.411133,66.8071289 C175.411133,66.1528288 175.262209,65.6645524 174.964355,65.3422852 C174.666502,65.0200179 174.200198,64.8588867 173.56543,64.8588867 C172.725582,64.8588867 172.110354,65.0859352 171.719727,65.5400391 C171.3291,65.9941429 171.133789,66.7436471 171.133789,67.7885742 L171.133789,72 L169.917969,72 L169.917969,63.9726562 L170.906738,63.9726562 L171.104492,65.0712891 L171.163086,65.0712891 C171.412111,64.6757793 171.761228,64.3693859 172.210449,64.1520996 C172.65967,63.9348134 173.160153,63.8261719 173.711914,63.8261719 C174.678716,63.8261719 175.406248,64.0593238 175.894531,64.5256348 C176.382815,64.9919457 176.626953,65.7377878 176.626953,66.7631836 L176.626953,72 L175.411133,72 Z M189.949707,67.9790039 C189.949707,69.2876042 189.62012,70.3093225 188.960938,71.0441895 C188.301755,71.7790564 187.391119,72.1464844 186.229004,72.1464844 C185.511227,72.1464844 184.874026,71.978029 184.317383,71.6411133 C183.760739,71.3041975 183.331056,70.8208039 183.02832,70.190918 C182.725584,69.561032 182.574219,68.8237347 182.574219,67.9790039 C182.574219,66.6704036 182.901364,65.6511267 183.555664,64.9211426 C184.209964,64.1911585 185.118158,63.8261719 186.280273,63.8261719 C187.403326,63.8261719 188.295651,64.1997033 188.957275,64.9467773 C189.6189,65.6938514 189.949707,66.7045835 189.949707,67.9790039 Z M183.833984,67.9790039 C183.833984,69.0043997 184.03906,69.7856418 184.449219,70.3227539 C184.859377,70.859866 185.462398,71.128418 186.258301,71.128418 C187.054203,71.128418 187.658445,70.8610867 188.071045,70.326416 C188.483645,69.7917454 188.689941,69.0092825 188.689941,67.9790039 C188.689941,66.958491 188.483645,66.1833523 188.071045,65.6535645 C187.658445,65.1237766 187.04932,64.8588867 186.243652,64.8588867 C185.44775,64.8588867 184.84717,65.1201146 184.441895,65.6425781 C184.036619,66.1650417 183.833984,66.9438425 183.833984,67.9790039 Z M193.223633,63.9726562 L193.223633,69.1801758 C193.223633,69.8344759 193.372557,70.3227523 193.67041,70.6450195 C193.968263,70.9672868 194.434567,71.128418 195.069336,71.128418 C195.909184,71.128418 196.523191,70.8989281 196.911377,70.4399414 C197.299562,69.9809547 197.493652,69.2314505 197.493652,68.1914062 L197.493652,63.9726562 L198.709473,63.9726562 L198.709473,72 L197.706055,72 L197.530273,70.9233398 L197.464355,70.9233398 C197.215331,71.3188496 196.869875,71.621581 196.427979,71.831543 C195.986082,72.041505 195.481936,72.1464844 194.915527,72.1464844 C193.93896,72.1464844 193.207766,71.9145531 192.721924,71.4506836 C192.236082,70.9868141 191.993164,70.244634 191.993164,69.2241211 L191.993164,63.9726562 L193.223633,63.9726562 Z M48.6801758,92.1464844 C47.4936464,92.1464844 46.5573765,91.7851599 45.8713379,91.0625 C45.1852993,90.3398401 44.8422852,89.3364322 44.8422852,88.0522461 C44.8422852,86.7582943 45.1608855,85.7304726 45.7980957,84.96875 C46.4353059,84.2070274 47.2910103,83.8261719 48.3652344,83.8261719 C49.3710988,83.8261719 50.1669893,84.1569791 50.7529297,84.8186035 C51.3388701,85.4802279 51.6318359,86.3530219 51.6318359,87.4370117 L51.6318359,88.2060547 L46.1020508,88.2060547 C46.126465,89.1484422 46.3644997,89.8637671 46.8161621,90.3520508 C47.2678245,90.8403345 47.9038045,91.0844727 48.7241211,91.0844727 C49.5883832,91.0844727 50.4428669,90.9038104 51.2875977,90.5424805 L51.2875977,91.6264648 C50.857908,91.8120126 50.4514179,91.945068 50.0681152,92.0256348 C49.6848125,92.1062016 49.2221707,92.1464844 48.6801758,92.1464844 Z M48.3505859,84.8442383 C47.7060515,84.8442383 47.1921406,85.0541971 46.8088379,85.4741211 C46.4255352,85.8940451 46.1997074,86.4750939 46.1313477,87.2172852 L50.328125,87.2172852 C50.328125,86.4506798 50.1572283,85.8635274 49.8154297,85.4558105 C49.4736311,85.0480937 48.9853547,84.8442383 48.3505859,84.8442383 Z M47.449707,82.7275391 C47.6840832,82.4248032 47.9367662,82.0585959 48.2077637,81.6289062 C48.4787611,81.1992166 48.692382,80.8256852 48.8486328,80.5083008 L50.328125,80.5083008 L50.328125,80.6621094 C50.1132802,80.9794938 49.7934592,81.3701149 49.3686523,81.8339844 C48.9438455,82.2978539 48.5751969,82.656737 48.2626953,82.9106445 L47.449707,82.9106445 L47.449707,82.7275391 Z M55.4624023,92 L52.4155273,83.9726562 L53.7192383,83.9726562 L55.4477539,88.7333984 C55.8383809,89.8466853 56.0678708,90.5693343 56.1362305,90.9013672 L56.1948242,90.9013672 C56.2485354,90.6425768 56.4182115,90.1066935 56.7038574,89.2937012 C56.9895034,88.4807088 57.6303661,86.7070449 58.6264648,83.9726562 L59.9301758,83.9726562 L56.8833008,92 L55.4624023,92 Z M64.6103516,92.1464844 C63.4238222,92.1464844 62.4875523,91.7851599 61.8015137,91.0625 C61.1154751,90.3398401 60.7724609,89.3364322 60.7724609,88.0522461 C60.7724609,86.7582943 61.0910613,85.7304726 61.7282715,84.96875 C62.3654817,84.2070274 63.221186,83.8261719 64.2954102,83.8261719 C65.3012746,83.8261719 66.097165,84.1569791 66.6831055,84.8186035 C67.2690459,85.4802279 67.5620117,86.3530219 67.5620117,87.4370117 L67.5620117,88.2060547 L62.0322266,88.2060547 C62.0566407,89.1484422 62.2946755,89.8637671 62.7463379,90.3520508 C63.1980003,90.8403345 63.8339803,91.0844727 64.6542969,91.0844727 C65.518559,91.0844727 66.3730427,90.9038104 67.2177734,90.5424805 L67.2177734,91.6264648 C66.7880838,91.8120126 66.3815937,91.945068 65.998291,92.0256348 C65.6149883,92.1062016 65.1523465,92.1464844 64.6103516,92.1464844 Z M64.2807617,84.8442383 C63.6362272,84.8442383 63.1223164,85.0541971 62.7390137,85.4741211 C62.355711,85.8940451 62.1298832,86.4750939 62.0615234,87.2172852 L66.2583008,87.2172852 C66.2583008,86.4506798 66.0874041,85.8635274 65.7456055,85.4558105 C65.4038069,85.0480937 64.9155305,84.8442383 64.2807617,84.8442383 Z M63.3798828,82.7275391 C63.614259,82.4248032 63.866942,82.0585959 64.1379395,81.6289062 C64.4089369,81.1992166 64.6225578,80.8256852 64.7788086,80.5083008 L66.2583008,80.5083008 L66.2583008,80.6621094 C66.043456,80.9794938 65.7236349,81.3701149 65.2988281,81.8339844 C64.8740213,82.2978539 64.5053727,82.656737 64.1928711,82.9106445 L63.3798828,82.9106445 L63.3798828,82.7275391 Z M75.1279297,92 L75.1279297,86.8071289 C75.1279297,86.1528288 74.9790054,85.6645524 74.6811523,85.3422852 C74.3832993,85.0200179 73.9169954,84.8588867 73.2822266,84.8588867 C72.4423786,84.8588867 71.8271504,85.0859352 71.4365234,85.5400391 C71.0458965,85.9941429 70.8505859,86.7436471 70.8505859,87.7885742 L70.8505859,92 L69.6347656,92 L69.6347656,83.9726562 L70.6235352,83.9726562 L70.8212891,85.0712891 L70.8798828,85.0712891 C71.1289075,84.6757793 71.4780251,84.3693859 71.9272461,84.1520996 C72.3764671,83.9348134 72.8769504,83.8261719 73.4287109,83.8261719 C74.3955126,83.8261719 75.1230444,84.0593238 75.6113281,84.5256348 C76.0996118,84.9919457 76.34375,85.7377878 76.34375,86.7631836 L76.34375,92 L75.1279297,92 Z M82.2324219,92.1464844 C81.0458925,92.1464844 80.1096226,91.7851599 79.423584,91.0625 C78.7375454,90.3398401 78.3945312,89.3364322 78.3945312,88.0522461 C78.3945312,86.7582943 78.7131316,85.7304726 79.3503418,84.96875 C79.987552,84.2070274 80.8432563,83.8261719 81.9174805,83.8261719 C82.9233449,83.8261719 83.7192354,84.1569791 84.3051758,84.8186035 C84.8911162,85.4802279 85.184082,86.3530219 85.184082,87.4370117 L85.184082,88.2060547 L79.6542969,88.2060547 C79.6787111,89.1484422 79.9167458,89.8637671 80.3684082,90.3520508 C80.8200706,90.8403345 81.4560506,91.0844727 82.2763672,91.0844727 C83.1406293,91.0844727 83.995113,90.9038104 84.8398438,90.5424805 L84.8398438,91.6264648 C84.4101541,91.8120126 84.003664,91.945068 83.6203613,92.0256348 C83.2370586,92.1062016 82.7744168,92.1464844 82.2324219,92.1464844 Z M81.902832,84.8442383 C81.2582976,84.8442383 80.7443867,85.0541971 80.361084,85.4741211 C79.9777813,85.8940451 79.7519535,86.4750939 79.6835938,87.2172852 L83.8803711,87.2172852 C83.8803711,86.4506798 83.7094744,85.8635274 83.3676758,85.4558105 C83.0258772,85.0480937 82.5376008,84.8442383 81.902832,84.8442383 Z M97.4887695,92 L97.4887695,86.777832 C97.4887695,86.1381804 97.3520521,85.6584489 97.0786133,85.338623 C96.8051744,85.0187972 96.380374,84.8588867 95.8041992,84.8588867 C95.0473595,84.8588867 94.4882831,85.0761697 94.1269531,85.5107422 C93.7656232,85.9453147 93.5849609,86.6142533 93.5849609,87.5175781 L93.5849609,92 L92.3691406,92 L92.3691406,86.777832 C92.3691406,86.1381804 92.2324232,85.6584489 91.9589844,85.338623 C91.6855455,85.0187972 91.2583037,84.8588867 90.6772461,84.8588867 C89.9155235,84.8588867 89.3576678,85.0871559 89.0036621,85.5437012 C88.6496564,86.0002464 88.4726562,86.74853 88.4726562,87.7885742 L88.4726562,92 L87.2568359,92 L87.2568359,83.9726562 L88.2456055,83.9726562 L88.4433594,85.0712891 L88.5019531,85.0712891 C88.7314465,84.6806621 89.0549296,84.3754894 89.4724121,84.1557617 C89.8898947,83.9360341 90.3574193,83.8261719 90.875,83.8261719 C92.1298891,83.8261719 92.9501934,84.2802689 93.3359375,85.1884766 L93.3945312,85.1884766 C93.6337903,84.7685526 93.9804665,84.4365247 94.4345703,84.1923828 C94.8886741,83.948241 95.4062471,83.8261719 95.9873047,83.8261719 C96.8955124,83.8261719 97.5754372,84.0593238 98.0270996,84.5256348 C98.478762,84.9919457 98.7045898,85.7377878 98.7045898,86.7631836 L98.7045898,92 L97.4887695,92 Z M104.600586,92.1464844 C103.414057,92.1464844 102.477787,91.7851599 101.791748,91.0625 C101.105709,90.3398401 100.762695,89.3364322 100.762695,88.0522461 C100.762695,86.7582943 101.081296,85.7304726 101.718506,84.96875 C102.355716,84.2070274 103.21142,83.8261719 104.285645,83.8261719 C105.291509,83.8261719 106.087399,84.1569791 106.67334,84.8186035 C107.25928,85.4802279 107.552246,86.3530219 107.552246,87.4370117 L107.552246,88.2060547 L102.022461,88.2060547 C102.046875,89.1484422 102.28491,89.8637671 102.736572,90.3520508 C103.188235,90.8403345 103.824215,91.0844727 104.644531,91.0844727 C105.508793,91.0844727 106.363277,90.9038104 107.208008,90.5424805 L107.208008,91.6264648 C106.778318,91.8120126 106.371828,91.945068 105.988525,92.0256348 C105.605223,92.1062016 105.142581,92.1464844 104.600586,92.1464844 Z M104.270996,84.8442383 C103.626462,84.8442383 103.112551,85.0541971 102.729248,85.4741211 C102.345945,85.8940451 102.120118,86.4750939 102.051758,87.2172852 L106.248535,87.2172852 C106.248535,86.4506798 106.077638,85.8635274 105.73584,85.4558105 C105.394041,85.0480937 104.905765,84.8442383 104.270996,84.8442383 Z M115.118164,92 L115.118164,86.8071289 C115.118164,86.1528288 114.96924,85.6645524 114.671387,85.3422852 C114.373534,85.0200179 113.90723,84.8588867 113.272461,84.8588867 C112.432613,84.8588867 111.817385,85.0859352 111.426758,85.5400391 C111.036131,85.9941429 110.84082,86.7436471 110.84082,87.7885742 L110.84082,92 L109.625,92 L109.625,83.9726562 L110.61377,83.9726562 L110.811523,85.0712891 L110.870117,85.0712891 C111.119142,84.6757793 111.468259,84.3693859 111.91748,84.1520996 C112.366701,83.9348134 112.867185,83.8261719 113.418945,83.8261719 C114.385747,83.8261719 115.113279,84.0593238 115.601562,84.5256348 C116.089846,84.9919457 116.333984,85.7377878 116.333984,86.7631836 L116.333984,92 L115.118164,92 Z M121.424316,91.1430664 C121.639161,91.1430664 121.846679,91.1271974 122.046875,91.095459 C122.247071,91.0637205 122.405761,91.0307619 122.522949,90.996582 L122.522949,91.9267578 C122.391113,91.9902347 122.197023,92.0427244 121.940674,92.0842285 C121.684325,92.1257326 121.453614,92.1464844 121.248535,92.1464844 C119.695793,92.1464844 118.919434,91.3286215 118.919434,89.6928711 L118.919434,84.9174805 L117.769531,84.9174805 L117.769531,84.331543 L118.919434,83.8261719 L119.432129,82.1123047 L120.135254,82.1123047 L120.135254,83.9726562 L122.464355,83.9726562 L122.464355,84.9174805 L120.135254,84.9174805 L120.135254,89.6416016 C120.135254,90.1250024 120.249999,90.4960925 120.479492,90.7548828 C120.708986,91.0136732 121.023924,91.1430664 121.424316,91.1430664 Z M125.342773,92 L124.126953,92 L124.126953,83.9726562 L125.342773,83.9726562 L125.342773,92 Z M124.024414,81.7973633 C124.024414,81.5190416 124.092773,81.3151862 124.229492,81.185791 C124.366212,81.0563958 124.537108,80.9916992 124.742188,80.9916992 C124.937501,80.9916992 125.105956,81.0576165 125.247559,81.1894531 C125.389161,81.3212897 125.459961,81.5239244 125.459961,81.7973633 C125.459961,82.0708021 125.389161,82.2746575 125.247559,82.4089355 C125.105956,82.5432136 124.937501,82.6103516 124.742188,82.6103516 C124.537108,82.6103516 124.366212,82.5432136 124.229492,82.4089355 C124.092773,82.2746575 124.024414,82.0708021 124.024414,81.7973633 Z M131.312012,92.1464844 C130.125482,92.1464844 129.189212,91.7851599 128.503174,91.0625 C127.817135,90.3398401 127.474121,89.3364322 127.474121,88.0522461 C127.474121,86.7582943 127.792721,85.7304726 128.429932,84.96875 C129.067142,84.2070274 129.922846,83.8261719 130.99707,83.8261719 C132.002935,83.8261719 132.798825,84.1569791 133.384766,84.8186035 C133.970706,85.4802279 134.263672,86.3530219 134.263672,87.4370117 L134.263672,88.2060547 L128.733887,88.2060547 C128.758301,89.1484422 128.996336,89.8637671 129.447998,90.3520508 C129.89966,90.8403345 130.53564,91.0844727 131.355957,91.0844727 C132.220219,91.0844727 133.074703,90.9038104 133.919434,90.5424805 L133.919434,91.6264648 C133.489744,91.8120126 133.083254,91.945068 132.699951,92.0256348 C132.316648,92.1062016 131.854007,92.1464844 131.312012,92.1464844 Z M130.982422,84.8442383 C130.337887,84.8442383 129.823977,85.0541971 129.440674,85.4741211 C129.057371,85.8940451 128.831543,86.4750939 128.763184,87.2172852 L132.959961,87.2172852 C132.959961,86.4506798 132.789064,85.8635274 132.447266,85.4558105 C132.105467,85.0480937 131.617191,84.8442383 130.982422,84.8442383 Z M137.552246,92 L136.336426,92 L136.336426,80.6035156 L137.552246,80.6035156 L137.552246,92 Z M141.404785,90.2568359 L141.514648,90.425293 C141.387695,90.9135767 141.204591,91.4811979 140.965332,92.1281738 C140.726073,92.7751497 140.477052,93.3769503 140.218262,93.9335938 L139.302734,93.9335938 C139.434571,93.4257787 139.579833,92.7983436 139.738525,92.0512695 C139.897218,91.3041955 140.0083,90.7060569 140.071777,90.2568359 L141.404785,90.2568359 Z M150.911621,92.1464844 C149.749506,92.1464844 148.849857,91.7888219 148.212646,91.0734863 C147.575436,90.3581507 147.256836,89.3461979 147.256836,88.0375977 C147.256836,86.6948175 147.580319,85.6572302 148.227295,84.9248047 C148.874271,84.1923792 149.795892,83.8261719 150.992188,83.8261719 C151.377932,83.8261719 151.76367,83.8676754 152.149414,83.9506836 C152.535158,84.0336918 152.83789,84.1313471 153.057617,84.2436523 L152.684082,85.2763672 C152.415526,85.1689448 152.12256,85.0798343 151.805176,85.0090332 C151.487791,84.9382321 151.207032,84.902832 150.962891,84.902832 C149.332023,84.902832 148.516602,85.9428607 148.516602,88.0229492 C148.516602,89.0092823 148.715574,89.7661106 149.113525,90.293457 C149.511477,90.8208034 150.10107,91.0844727 150.882324,91.0844727 C151.551273,91.0844727 152.237301,90.9404311 152.94043,90.6523438 L152.94043,91.7290039 C152.403318,92.0073256 151.727055,92.1464844 150.911621,92.1464844 Z M160.337891,92 L160.337891,86.8071289 C160.337891,86.1528288 160.188966,85.6645524 159.891113,85.3422852 C159.59326,85.0200179 159.126956,84.8588867 158.492188,84.8588867 C157.647457,84.8588867 157.031008,85.0883766 156.642822,85.5473633 C156.254637,86.00635 156.060547,86.7582956 156.060547,87.8032227 L156.060547,92 L154.844727,92 L154.844727,80.6035156 L156.060547,80.6035156 L156.060547,84.0532227 C156.060547,84.4682638 156.041016,84.8124986 156.001953,85.0859375 L156.075195,85.0859375 C156.314454,84.7001934 156.655027,84.3962413 157.096924,84.1740723 C157.538821,83.9519032 158.042966,83.8408203 158.609375,83.8408203 C159.590825,83.8408203 160.326902,84.0739723 160.817627,84.5402832 C161.308352,85.0065941 161.553711,85.7475535 161.553711,86.7631836 L161.553711,92 L160.337891,92 Z M170.97998,87.9790039 C170.97998,89.2876042 170.650394,90.3093225 169.991211,91.0441895 C169.332028,91.7790564 168.421393,92.1464844 167.259277,92.1464844 C166.5415,92.1464844 165.9043,91.978029 165.347656,91.6411133 C164.791013,91.3041975 164.36133,90.8208039 164.058594,90.190918 C163.755858,89.561032 163.604492,88.8237347 163.604492,87.9790039 C163.604492,86.6704036 163.931637,85.6511267 164.585938,84.9211426 C165.240238,84.1911585 166.148432,83.8261719 167.310547,83.8261719 C168.433599,83.8261719 169.325924,84.1997033 169.987549,84.9467773 C170.649173,85.6938514 170.97998,86.7045835 170.97998,87.9790039 Z M164.864258,87.9790039 C164.864258,89.0043997 165.069334,89.7856418 165.479492,90.3227539 C165.88965,90.859866 166.492672,91.128418 167.288574,91.128418 C168.084477,91.128418 168.688719,90.8610867 169.101318,90.326416 C169.513918,89.7917454 169.720215,89.0092825 169.720215,87.9790039 C169.720215,86.958491 169.513918,86.1833523 169.101318,85.6535645 C168.688719,85.1237766 168.079594,84.8588867 167.273926,84.8588867 C166.478023,84.8588867 165.877443,85.1201146 165.472168,85.6425781 C165.066893,86.1650417 164.864258,86.9438425 164.864258,87.9790039 Z M174.327148,92 L173.111328,92 L173.111328,83.9726562 L174.327148,83.9726562 L174.327148,92 Z M173.008789,81.7973633 C173.008789,81.5190416 173.077148,81.3151862 173.213867,81.185791 C173.350587,81.0563958 173.521483,80.9916992 173.726562,80.9916992 C173.921876,80.9916992 174.090331,81.0576165 174.231934,81.1894531 C174.373536,81.3212897 174.444336,81.5239244 174.444336,81.7973633 C174.444336,82.0708021 174.373536,82.2746575 174.231934,82.4089355 C174.090331,82.5432136 173.921876,82.6103516 173.726562,82.6103516 C173.521483,82.6103516 173.350587,82.5432136 173.213867,82.4089355 C173.077148,82.2746575 173.008789,82.0708021 173.008789,81.7973633 Z M182.083496,89.8100586 C182.083496,90.5571326 181.805179,91.1332988 181.248535,91.5385742 C180.691892,91.9438497 179.91065,92.1464844 178.904785,92.1464844 C177.840327,92.1464844 177.010257,91.978029 176.414551,91.6411133 L176.414551,90.5131836 C176.800295,90.7084971 177.214109,90.8623041 177.656006,90.9746094 C178.097903,91.0869146 178.523924,91.1430664 178.934082,91.1430664 C179.568851,91.1430664 180.057127,91.0417491 180.398926,90.8391113 C180.740724,90.6364736 180.911621,90.3276388 180.911621,89.9125977 C180.911621,89.6000961 180.776124,89.3327648 180.505127,89.1105957 C180.23413,88.8884266 179.70557,88.6259781 178.919434,88.3232422 C178.17236,88.0449205 177.641359,87.802003 177.326416,87.5944824 C177.011473,87.3869619 176.7771,87.1513685 176.623291,86.8876953 C176.469482,86.6240221 176.392578,86.3090839 176.392578,85.9428711 C176.392578,85.2885709 176.658689,84.7722187 177.190918,84.3937988 C177.723147,84.015379 178.45312,83.8261719 179.380859,83.8261719 C180.245122,83.8261719 181.08984,84.0019514 181.915039,84.3535156 L181.48291,85.3422852 C180.677242,85.0102522 179.947269,84.8442383 179.292969,84.8442383 C178.716794,84.8442383 178.282228,84.9345694 177.989258,85.1152344 C177.696288,85.2958993 177.549805,85.5449203 177.549805,85.8623047 C177.549805,86.0771495 177.604736,86.2602531 177.7146,86.4116211 C177.824463,86.562989 178.001464,86.7070306 178.245605,86.84375 C178.489747,86.9804694 178.958493,87.1782214 179.651855,87.4370117 C180.604009,87.7836931 181.247313,88.1328107 181.581787,88.484375 C181.916261,88.8359393 182.083496,89.2778294 182.083496,89.8100586 Z M185.276855,92 L184.061035,92 L184.061035,83.9726562 L185.276855,83.9726562 L185.276855,92 Z M183.958496,81.7973633 C183.958496,81.5190416 184.026855,81.3151862 184.163574,81.185791 C184.300294,81.0563958 184.47119,80.9916992 184.67627,80.9916992 C184.871583,80.9916992 185.040038,81.0576165 185.181641,81.1894531 C185.323243,81.3212897 185.394043,81.5239244 185.394043,81.7973633 C185.394043,82.0708021 185.323243,82.2746575 185.181641,82.4089355 C185.040038,82.5432136 184.871583,82.6103516 184.67627,82.6103516 C184.47119,82.6103516 184.300294,82.5432136 184.163574,82.4089355 C184.026855,82.2746575 183.958496,82.0708021 183.958496,81.7973633 Z M193.033203,89.8100586 C193.033203,90.5571326 192.754886,91.1332988 192.198242,91.5385742 C191.641599,91.9438497 190.860357,92.1464844 189.854492,92.1464844 C188.790034,92.1464844 187.959964,91.978029 187.364258,91.6411133 L187.364258,90.5131836 C187.750002,90.7084971 188.163816,90.8623041 188.605713,90.9746094 C189.04761,91.0869146 189.473631,91.1430664 189.883789,91.1430664 C190.518558,91.1430664 191.006834,91.0417491 191.348633,90.8391113 C191.690431,90.6364736 191.861328,90.3276388 191.861328,89.9125977 C191.861328,89.6000961 191.725831,89.3327648 191.454834,89.1105957 C191.183837,88.8884266 190.655277,88.6259781 189.869141,88.3232422 C189.122067,88.0449205 188.591066,87.802003 188.276123,87.5944824 C187.96118,87.3869619 187.726807,87.1513685 187.572998,86.8876953 C187.419189,86.6240221 187.342285,86.3090839 187.342285,85.9428711 C187.342285,85.2885709 187.608396,84.7722187 188.140625,84.3937988 C188.672854,84.015379 189.402827,83.8261719 190.330566,83.8261719 C191.194829,83.8261719 192.039547,84.0019514 192.864746,84.3535156 L192.432617,85.3422852 C191.626949,85.0102522 190.896976,84.8442383 190.242676,84.8442383 C189.666501,84.8442383 189.231935,84.9345694 188.938965,85.1152344 C188.645995,85.2958993 188.499512,85.5449203 188.499512,85.8623047 C188.499512,86.0771495 188.554443,86.2602531 188.664307,86.4116211 C188.77417,86.562989 188.951171,86.7070306 189.195312,86.84375 C189.439454,86.9804694 189.9082,87.1782214 190.601562,87.4370117 C191.553716,87.7836931 192.19702,88.1328107 192.531494,88.484375 C192.865968,88.8359393 193.033203,89.2778294 193.033203,89.8100586 Z M200.188965,89.8100586 C200.188965,90.5571326 199.910647,91.1332988 199.354004,91.5385742 C198.79736,91.9438497 198.016118,92.1464844 197.010254,92.1464844 C195.945795,92.1464844 195.115726,91.978029 194.52002,91.6411133 L194.52002,90.5131836 C194.905764,90.7084971 195.319578,90.8623041 195.761475,90.9746094 C196.203371,91.0869146 196.629392,91.1430664 197.039551,91.1430664 C197.67432,91.1430664 198.162596,91.0417491 198.504395,90.8391113 C198.846193,90.6364736 199.01709,90.3276388 199.01709,89.9125977 C199.01709,89.6000961 198.881593,89.3327648 198.610596,89.1105957 C198.339598,88.8884266 197.811039,88.6259781 197.024902,88.3232422 C196.277828,88.0449205 195.746828,87.802003 195.431885,87.5944824 C195.116942,87.3869619 194.882569,87.1513685 194.72876,86.8876953 C194.57495,86.6240221 194.498047,86.3090839 194.498047,85.9428711 C194.498047,85.2885709 194.764157,84.7722187 195.296387,84.3937988 C195.828616,84.015379 196.558589,83.8261719 197.486328,83.8261719 C198.35059,83.8261719 199.195308,84.0019514 200.020508,84.3535156 L199.588379,85.3422852 C198.782711,85.0102522 198.052738,84.8442383 197.398438,84.8442383 C196.822263,84.8442383 196.387697,84.9345694 196.094727,85.1152344 C195.801756,85.2958993 195.655273,85.5449203 195.655273,85.8623047 C195.655273,86.0771495 195.710205,86.2602531 195.820068,86.4116211 C195.929932,86.562989 196.106932,86.7070306 196.351074,86.84375 C196.595216,86.9804694 197.063961,87.1782214 197.757324,87.4370117 C198.709477,87.7836931 199.352782,88.1328107 199.687256,88.484375 C200.02173,88.8359393 200.188965,89.2778294 200.188965,89.8100586 Z M205.557617,92.1464844 C204.371088,92.1464844 203.434818,91.7851599 202.748779,91.0625 C202.062741,90.3398401 201.719727,89.3364322 201.719727,88.0522461 C201.719727,86.7582943 202.038327,85.7304726 202.675537,84.96875 C203.312747,84.2070274 204.168452,83.8261719 205.242676,83.8261719 C206.24854,83.8261719 207.044431,84.1569791 207.630371,84.8186035 C208.216312,85.4802279 208.509277,86.3530219 208.509277,87.4370117 L208.509277,88.2060547 L202.979492,88.2060547 C203.003906,89.1484422 203.241941,89.8637671 203.693604,90.3520508 C204.145266,90.8403345 204.781246,91.0844727 205.601562,91.0844727 C206.465825,91.0844727 207.320308,90.9038104 208.165039,90.5424805 L208.165039,91.6264648 C207.735349,91.8120126 207.328859,91.945068 206.945557,92.0256348 C206.562254,92.1062016 206.099612,92.1464844 205.557617,92.1464844 Z M205.228027,84.8442383 C204.583493,84.8442383 204.069582,85.0541971 203.686279,85.4741211 C203.302977,85.8940451 203.077149,86.4750939 203.008789,87.2172852 L207.205566,87.2172852 C207.205566,86.4506798 207.03467,85.8635274 206.692871,85.4558105 C206.351073,85.0480937 205.862796,84.8442383 205.228027,84.8442383 Z M215.716309,92 L209.893555,92 L209.893555,91.1723633 L214.273438,84.9174805 L210.164551,84.9174805 L210.164551,83.9726562 L215.606445,83.9726562 L215.606445,84.9174805 L211.285156,91.0551758 L215.716309,91.0551758 L215.716309,92 Z M47.046875,112 L44,103.972656 L45.3037109,103.972656 L47.0322266,108.733398 C47.4228535,109.846685 47.6523434,110.569334 47.7207031,110.901367 L47.7792969,110.901367 C47.8330081,110.642577 48.0026841,110.106694 48.2883301,109.293701 C48.573976,108.480709 49.2148388,106.707045 50.2109375,103.972656 L51.5146484,103.972656 L48.4677734,112 L47.046875,112 Z M59.7324219,107.979004 C59.7324219,109.287604 59.4028353,110.309322 58.7436523,111.044189 C58.0844694,111.779056 57.1738339,112.146484 56.0117188,112.146484 C55.2939417,112.146484 54.6567411,111.978029 54.1000977,111.641113 C53.5434542,111.304198 53.113771,110.820804 52.8110352,110.190918 C52.5082993,109.561032 52.3569336,108.823735 52.3569336,107.979004 C52.3569336,106.670404 52.6840788,105.651127 53.3383789,104.921143 C53.9926791,104.191158 54.9008731,103.826172 56.0629883,103.826172 C57.1860408,103.826172 58.0783658,104.199703 58.7399902,104.946777 C59.4016146,105.693851 59.7324219,106.704583 59.7324219,107.979004 Z M53.6166992,107.979004 C53.6166992,109.0044 53.8217753,109.785642 54.2319336,110.322754 C54.6420919,110.859866 55.2451132,111.128418 56.0410156,111.128418 C56.836918,111.128418 57.44116,110.861087 57.8537598,110.326416 C58.2663595,109.791745 58.4726562,109.009282 58.4726562,107.979004 C58.4726562,106.958491 58.2663595,106.183352 57.8537598,105.653564 C57.44116,105.123777 56.8320353,104.858887 56.0263672,104.858887 C55.2304648,104.858887 54.6298848,105.120115 54.2246094,105.642578 C53.8193339,106.165042 53.6166992,106.943842 53.6166992,107.979004 Z M64.456543,111.143066 C64.6713878,111.143066 64.8789052,111.127197 65.0791016,111.095459 C65.2792979,111.063721 65.4379877,111.030762 65.5551758,110.996582 L65.5551758,111.926758 C65.4233392,111.990235 65.2292493,112.042724 64.9729004,112.084229 C64.7165515,112.125733 64.4858409,112.146484 64.2807617,112.146484 C62.7280196,112.146484 61.9516602,111.328621 61.9516602,109.692871 L61.9516602,104.91748 L60.8017578,104.91748 L60.8017578,104.331543 L61.9516602,103.826172 L62.4643555,102.112305 L63.1674805,102.112305 L63.1674805,103.972656 L65.496582,103.972656 L65.496582,104.91748 L63.1674805,104.91748 L63.1674805,109.641602 C63.1674805,110.125002 63.2822254,110.496092 63.5117188,110.754883 C63.7412121,111.013673 64.0561503,111.143066 64.456543,111.143066 Z M70.8212891,103.826172 C71.1777362,103.826172 71.4975572,103.855468 71.7807617,103.914062 L71.6123047,105.041992 C71.2802718,104.96875 70.987306,104.932129 70.7333984,104.932129 C70.0839811,104.932129 69.5285668,105.195798 69.0671387,105.723145 C68.6057106,106.250491 68.375,106.907223 68.375,107.693359 L68.375,112 L67.1591797,112 L67.1591797,103.972656 L68.1625977,103.972656 L68.3017578,105.459473 L68.3603516,105.459473 C68.6582046,104.937009 69.0170877,104.534181 69.4370117,104.250977 C69.8569357,103.967772 70.3183569,103.826172 70.8212891,103.826172 Z M76.6733398,112.146484 C75.4868105,112.146484 74.5505405,111.78516 73.864502,111.0625 C73.1784634,110.33984 72.8354492,109.336432 72.8354492,108.052246 C72.8354492,106.758294 73.1540495,105.730473 73.7912598,104.96875 C74.42847,104.207027 75.2841743,103.826172 76.3583984,103.826172 C77.3642628,103.826172 78.1601533,104.156979 78.7460938,104.818604 C79.3320342,105.480228 79.625,106.353022 79.625,107.437012 L79.625,108.206055 L74.0952148,108.206055 C74.119629,109.148442 74.3576638,109.863767 74.8093262,110.352051 C75.2609886,110.840334 75.8969686,111.084473 76.7172852,111.084473 C77.5815473,111.084473 78.4360309,110.90381 79.2807617,110.54248 L79.2807617,111.626465 C78.8510721,111.812013 78.444582,111.945068 78.0612793,112.025635 C77.6779766,112.106202 77.2153347,112.146484 76.6733398,112.146484 Z M76.34375,104.844238 C75.6992155,104.844238 75.1853047,105.054197 74.802002,105.474121 C74.4186993,105.894045 74.1928714,106.475094 74.1245117,107.217285 L78.3212891,107.217285 C78.3212891,106.45068 78.1503923,105.863527 77.8085938,105.455811 C77.4667952,105.048094 76.9785188,104.844238 76.34375,104.844238 Z M89.2124023,104.91748 L87.1689453,104.91748 L87.1689453,112 L85.953125,112 L85.953125,104.91748 L84.5175781,104.91748 L84.5175781,104.368164 L85.953125,103.928711 L85.953125,103.481934 C85.953125,101.509267 86.8149328,100.522949 88.5385742,100.522949 C88.963381,100.522949 89.4614229,100.608398 90.0327148,100.779297 L89.7177734,101.753418 C89.2490211,101.60205 88.8486345,101.526367 88.5166016,101.526367 C88.0576149,101.526367 87.7182628,101.678954 87.4985352,101.984131 C87.2788075,102.289308 87.1689453,102.778805 87.1689453,103.452637 L87.1689453,103.972656 L89.2124023,103.972656 L89.2124023,104.91748 Z M97.605957,107.979004 C97.605957,109.287604 97.2763705,110.309322 96.6171875,111.044189 C95.9580045,111.779056 95.0473691,112.146484 93.8852539,112.146484 C93.1674769,112.146484 92.5302762,111.978029 91.9736328,111.641113 C91.4169894,111.304198 90.9873062,110.820804 90.6845703,110.190918 C90.3818344,109.561032 90.2304688,108.823735 90.2304688,107.979004 C90.2304688,106.670404 90.5576139,105.651127 91.2119141,104.921143 C91.8662142,104.191158 92.7744083,103.826172 93.9365234,103.826172 C95.0595759,103.826172 95.951901,104.199703 96.6135254,104.946777 C97.2751498,105.693851 97.605957,106.704583 97.605957,107.979004 Z M91.4902344,107.979004 C91.4902344,109.0044 91.6953104,109.785642 92.1054688,110.322754 C92.5156271,110.859866 93.1186484,111.128418 93.9145508,111.128418 C94.7104532,111.128418 95.3146952,110.861087 95.7272949,110.326416 C96.1398946,109.791745 96.3461914,109.009282 96.3461914,107.979004 C96.3461914,106.958491 96.1398946,106.183352 95.7272949,105.653564 C95.3146952,105.123777 94.7055704,104.858887 93.8999023,104.858887 C93.1039999,104.858887 92.50342,105.120115 92.0981445,105.642578 C91.6928691,106.165042 91.4902344,106.943842 91.4902344,107.979004 Z M103.399414,103.826172 C103.755861,103.826172 104.075682,103.855468 104.358887,103.914062 L104.19043,105.041992 C103.858397,104.96875 103.565431,104.932129 103.311523,104.932129 C102.662106,104.932129 102.106692,105.195798 101.645264,105.723145 C101.183836,106.250491 100.953125,106.907223 100.953125,107.693359 L100.953125,112 L99.7373047,112 L99.7373047,103.972656 L100.740723,103.972656 L100.879883,105.459473 L100.938477,105.459473 C101.23633,104.937009 101.595213,104.534181 102.015137,104.250977 C102.435061,103.967772 102.896482,103.826172 103.399414,103.826172 Z M116.092285,112 L116.092285,106.777832 C116.092285,106.13818 115.955568,105.658449 115.682129,105.338623 C115.40869,105.018797 114.98389,104.858887 114.407715,104.858887 C113.650875,104.858887 113.091799,105.07617 112.730469,105.510742 C112.369139,105.945315 112.188477,106.614253 112.188477,107.517578 L112.188477,112 L110.972656,112 L110.972656,106.777832 C110.972656,106.13818 110.835939,105.658449 110.5625,105.338623 C110.289061,105.018797 109.861819,104.858887 109.280762,104.858887 C108.519039,104.858887 107.961183,105.087156 107.607178,105.543701 C107.253172,106.000246 107.076172,106.74853 107.076172,107.788574 L107.076172,112 L105.860352,112 L105.860352,103.972656 L106.849121,103.972656 L107.046875,105.071289 L107.105469,105.071289 C107.334962,104.680662 107.658445,104.375489 108.075928,104.155762 C108.49341,103.936034 108.960935,103.826172 109.478516,103.826172 C110.733405,103.826172 111.553709,104.280269 111.939453,105.188477 L111.998047,105.188477 C112.237306,104.768553 112.583982,104.436525 113.038086,104.192383 C113.49219,103.948241 114.009763,103.826172 114.59082,103.826172 C115.499028,103.826172 116.178953,104.059324 116.630615,104.525635 C117.082278,104.991946 117.308105,105.737788 117.308105,106.763184 L117.308105,112 L116.092285,112 Z M120.955566,103.972656 L120.955566,109.180176 C120.955566,109.834476 121.104491,110.322752 121.402344,110.64502 C121.700197,110.967287 122.166501,111.128418 122.80127,111.128418 C123.641117,111.128418 124.255125,110.898928 124.643311,110.439941 C125.031496,109.980955 125.225586,109.231451 125.225586,108.191406 L125.225586,103.972656 L126.441406,103.972656 L126.441406,112 L125.437988,112 L125.262207,110.92334 L125.196289,110.92334 C124.947264,111.31885 124.601809,111.621581 124.159912,111.831543 C123.718015,112.041505 123.21387,112.146484 122.647461,112.146484 C121.670894,112.146484 120.9397,111.914553 120.453857,111.450684 C119.968015,110.986814 119.725098,110.244634 119.725098,109.224121 L119.725098,103.972656 L120.955566,103.972656 Z M130.235352,112 L129.019531,112 L129.019531,100.603516 L130.235352,100.603516 L130.235352,112 Z M136.20459,112.146484 C135.01806,112.146484 134.081791,111.78516 133.395752,111.0625 C132.709713,110.33984 132.366699,109.336432 132.366699,108.052246 C132.366699,106.758294 132.6853,105.730473 133.32251,104.96875 C133.95972,104.207027 134.815424,103.826172 135.889648,103.826172 C136.895513,103.826172 137.691403,104.156979 138.277344,104.818604 C138.863284,105.480228 139.15625,106.353022 139.15625,107.437012 L139.15625,108.206055 L133.626465,108.206055 C133.650879,109.148442 133.888914,109.863767 134.340576,110.352051 C134.792239,110.840334 135.428219,111.084473 136.248535,111.084473 C137.112797,111.084473 137.967281,110.90381 138.812012,110.54248 L138.812012,111.626465 C138.382322,111.812013 137.975832,111.945068 137.592529,112.025635 C137.209227,112.106202 136.746585,112.146484 136.20459,112.146484 Z M135.875,104.844238 C135.230466,104.844238 134.716555,105.054197 134.333252,105.474121 C133.949949,105.894045 133.724121,106.475094 133.655762,107.217285 L137.852539,107.217285 C137.852539,106.45068 137.681642,105.863527 137.339844,105.455811 C136.998045,105.048094 136.509769,104.844238 135.875,104.844238 Z M146.224121,109.04834 L145.455078,109.04834 L145.081543,101.291992 L146.597656,101.291992 L146.224121,109.04834 Z M144.949707,111.223633 C144.949707,110.559567 145.242673,110.227539 145.828613,110.227539 C146.111818,110.227539 146.330321,110.312987 146.484131,110.483887 C146.63794,110.654786 146.714844,110.901366 146.714844,111.223633 C146.714844,111.536134 146.63672,111.779052 146.480469,111.952393 C146.324218,112.125733 146.106935,112.212402 145.828613,112.212402 C145.574706,112.212402 145.364747,112.135499 145.19873,111.981689 C145.032714,111.82788 144.949707,111.575197 144.949707,111.223633 Z" id="En-usage-quotidien-o-Copy" fill="#949595"></path>
                    <path d="M37.74,175.782609 C33.06,171.782609 30,169.086957 30,165.782609 C30,163.086957 32.16,161 34.95,161 C36.48,161 38.01,161.695652 39,162.826087 C39.99,161.695652 41.52,161 43.05,161 C45.84,161 48,163.086957 48,165.782609 C48,169.086957 44.94,171.782609 40.26,175.782609 L39,177 L37.74,175.782609 Z" id="Like" fill="#FC573C"></path>
                    <path d="M29.4994898,142 L259.504891,142" id="Line" stroke="#F0F0F0" stroke-linecap="square"></path>
                </g>
            </g>
        </g>
    </g>
</svg>