<?xml version="1.0" encoding="UTF-8" standalone="no"?>
<svg width="240px" height="122px" viewBox="0 0 240 122" version="1.1" xmlns="http://www.w3.org/2000/svg" xmlns:xlink="http://www.w3.org/1999/xlink">
    <!-- Generator: Sketch 41.2 (35397) - http://www.bohemiancoding.com/sketch -->
    <title>Message 02</title>
    <desc>Created with Sketch.</desc>
    <defs></defs>
    <g id="Page-1" stroke="none" stroke-width="1" fill="none" fill-rule="evenodd">
        <g id="Desktop-HD" transform="translate(-494.000000, -599.000000)">
            <g id="PREMIERE-LAME" transform="translate(-155.000000, -21.000000)">
                <g id="Phone" transform="translate(596.000000, 420.000000)">
                    <g id="Message-02" transform="translate(53.000000, 200.000000)">
                        <rect id="Rectangle-16" fill="#50E2C1" x="0" y="0" width="240" height="104" rx="15"></rect>
                        <path d="M208.296387,116.908203 C208.296387,119.701186 207.215668,121.097656 205.054199,121.097656 C204.676593,121.097656 204.377117,121.065104 204.155762,121 L204.155762,120.301758 C204.41618,120.386394 204.712401,120.428711 205.044434,120.428711 C205.825687,120.428711 206.415688,120.187014 206.814453,119.703613 C207.213218,119.220212 207.430501,118.478846 207.466309,117.479492 L207.407715,117.479492 C207.228677,117.749676 206.99105,117.955566 206.694824,118.097168 C206.398599,118.23877 206.064943,118.30957 205.693848,118.30957 C205.062334,118.30957 204.561037,118.12077 204.189941,117.743164 C203.818846,117.365558 203.633301,116.83822 203.633301,116.161133 C203.633301,115.418942 203.840818,114.83301 204.255859,114.40332 C204.670901,113.973631 205.216956,113.758789 205.894043,113.758789 C206.379071,113.758789 206.803058,113.8833 207.166016,114.132324 C207.528973,114.381349 207.808104,114.744301 208.003418,115.221191 C208.198731,115.698082 208.296387,116.260413 208.296387,116.908203 Z M205.894043,114.452148 C205.428546,114.452148 205.068849,114.601887 204.814941,114.901367 C204.561034,115.200848 204.434082,115.61751 204.434082,116.151367 C204.434082,116.62012 204.551268,116.988768 204.785645,117.257324 C205.020021,117.52588 205.376462,117.660156 205.85498,117.660156 C206.151206,117.660156 206.423827,117.599935 206.672852,117.479492 C206.921876,117.359049 207.118001,117.194662 207.26123,116.986328 C207.40446,116.777994 207.476074,116.559897 207.476074,116.332031 C207.476074,115.990233 207.409343,115.674481 207.275879,115.384766 C207.142415,115.095051 206.956056,114.867188 206.716797,114.701172 C206.477538,114.535155 206.203289,114.452148 205.894043,114.452148 Z M209.575684,120.482422 C209.575684,120.264322 209.625325,120.099122 209.724609,119.986816 C209.823894,119.874511 209.966308,119.818359 210.151855,119.818359 C210.340658,119.818359 210.487955,119.874511 210.59375,119.986816 C210.699545,120.099122 210.752441,120.264322 210.752441,120.482422 C210.752441,120.694011 210.698731,120.85677 210.591309,120.970703 C210.483886,121.084636 210.337403,121.141602 210.151855,121.141602 C209.985839,121.141602 209.848308,121.090333 209.739258,120.987793 C209.630208,120.885253 209.575684,120.716798 209.575684,120.482422 Z M209.575684,116.170898 C209.575684,115.731443 209.767739,115.511719 210.151855,115.511719 C210.552248,115.511719 210.752441,115.731443 210.752441,116.170898 C210.752441,116.382488 210.698731,116.545247 210.591309,116.65918 C210.483886,116.773113 210.337403,116.830078 210.151855,116.830078 C209.985839,116.830078 209.848308,116.778809 209.739258,116.67627 C209.630208,116.57373 209.575684,116.405275 209.575684,116.170898 Z M216.675293,121 L211.98291,121 L211.98291,120.301758 L213.862793,118.412109 C214.435712,117.832679 214.813313,117.419272 214.995605,117.171875 C215.177898,116.924478 215.314615,116.683595 215.405762,116.449219 C215.496908,116.214843 215.54248,115.962566 215.54248,115.692383 C215.54248,115.311522 215.426922,115.009604 215.195801,114.786621 C214.96468,114.563638 214.644045,114.452148 214.233887,114.452148 C213.937661,114.452148 213.656902,114.500976 213.391602,114.598633 C213.126301,114.69629 212.830894,114.873697 212.505371,115.130859 L212.075684,114.579102 C212.733239,114.032224 213.449378,113.758789 214.224121,113.758789 C214.894697,113.758789 215.420408,113.9305 215.80127,114.273926 C216.182131,114.617352 216.372559,115.078773 216.372559,115.658203 C216.372559,116.110679 216.245607,116.558266 215.991699,117.000977 C215.737792,117.443687 215.262536,118.003577 214.565918,118.680664 L213.003418,120.208984 L213.003418,120.248047 L216.675293,120.248047 L216.675293,121 Z M222.124512,115.541016 C222.124512,115.996747 221.996746,116.369465 221.741211,116.65918 C221.485676,116.948895 221.123537,117.142578 220.654785,117.240234 L220.654785,117.279297 C221.227705,117.350912 221.652505,117.533202 221.929199,117.826172 C222.205893,118.119142 222.344238,118.503253 222.344238,118.978516 C222.344238,119.658858 222.108238,120.182127 221.63623,120.54834 C221.164223,120.914553 220.493657,121.097656 219.624512,121.097656 C219.246906,121.097656 218.901043,121.069173 218.586914,121.012207 C218.272785,120.955241 217.967612,120.855144 217.671387,120.711914 L217.671387,119.94043 C217.980633,120.093425 218.31022,120.209798 218.660156,120.289551 C219.010093,120.369304 219.341307,120.40918 219.653809,120.40918 C220.887539,120.40918 221.504395,119.925786 221.504395,118.958984 C221.504395,118.093095 220.824063,117.660156 219.463379,117.660156 L218.760254,117.660156 L218.760254,116.961914 L219.473145,116.961914 C220.029788,116.961914 220.470864,116.839031 220.796387,116.593262 C221.121909,116.347492 221.284668,116.006513 221.284668,115.570312 C221.284668,115.222003 221.16504,114.948569 220.925781,114.75 C220.686522,114.551431 220.361818,114.452148 219.95166,114.452148 C219.639159,114.452148 219.344565,114.494466 219.067871,114.579102 C218.791177,114.663737 218.475425,114.819986 218.120605,115.047852 L217.710449,114.500977 C218.003419,114.269856 218.341144,114.08838 218.723633,113.956543 C219.106122,113.824706 219.50895,113.758789 219.932129,113.758789 C220.625492,113.758789 221.164223,113.917479 221.54834,114.234863 C221.932456,114.552248 222.124512,114.987627 222.124512,115.541016 Z M230.996582,121 L230.10791,118.729492 L227.246582,118.729492 L226.367676,121 L225.527832,121 L228.350098,113.832031 L229.04834,113.832031 L231.855957,121 L230.996582,121 Z M229.849121,117.982422 L229.019043,115.770508 C228.911621,115.490558 228.800945,115.147137 228.687012,114.740234 C228.615397,115.052736 228.512859,115.396157 228.379395,115.770508 L227.539551,117.982422 L229.849121,117.982422 Z M235.996582,121 L233.574707,114.671875 L233.535645,114.671875 C233.581218,115.17318 233.604004,115.768877 233.604004,116.458984 L233.604004,121 L232.837402,121 L232.837402,113.861328 L234.087402,113.861328 L236.348145,119.75 L236.387207,119.75 L238.66748,113.861328 L239.907715,113.861328 L239.907715,121 L239.077637,121 L239.077637,116.400391 C239.077637,115.873044 239.100423,115.300133 239.145996,114.681641 L239.106934,114.681641 L236.665527,121 L235.996582,121 Z" id="9:23-AM-Copy-2" fill="#9B9B9B"></path>
                        <path d="M28.109375,30 L26.9541016,27.0483398 L23.234375,27.0483398 L22.0917969,30 L21,30 L24.6689453,20.6816406 L25.5766602,20.6816406 L29.2265625,30 L28.109375,30 Z M26.6176758,26.0771484 L25.5385742,23.2016602 C25.3989251,22.837726 25.2550463,22.3912787 25.1069336,21.8623047 C25.0138342,22.2685567 24.8805347,22.7150041 24.7070312,23.2016602 L23.6152344,26.0771484 L26.6176758,26.0771484 Z M31.8671875,30 L29.2265625,23.0429688 L30.3564453,23.0429688 L31.8544922,27.1689453 C32.1930355,28.1337939 32.3919268,28.7600897 32.4511719,29.0478516 L32.5019531,29.0478516 C32.5485028,28.8235666 32.6955554,28.3591344 32.9431152,27.654541 C33.1906751,26.9499476 33.7460894,25.4127723 34.609375,23.0429688 L35.7392578,23.0429688 L33.0986328,30 L31.8671875,30 Z M39.7954102,30.1269531 C38.7670847,30.1269531 37.9556508,29.8138052 37.361084,29.1875 C36.7665172,28.5611948 36.4692383,27.6915746 36.4692383,26.5786133 C36.4692383,25.4571884 36.7453586,24.5664096 37.2976074,23.90625 C37.8498563,23.2460904 38.5914667,22.9160156 39.5224609,22.9160156 C40.3942101,22.9160156 41.0839818,23.2027152 41.5917969,23.776123 C42.0996119,24.3495309 42.3535156,25.1059523 42.3535156,26.0454102 L42.3535156,26.7119141 L37.5610352,26.7119141 C37.5821941,27.5286499 37.7884909,28.1485981 38.1799316,28.5717773 C38.5713724,28.9949565 39.122555,29.206543 39.8334961,29.206543 C40.5825233,29.206543 41.3230758,29.049969 42.0551758,28.7368164 L42.0551758,29.6762695 C41.6827781,29.8370776 41.3304867,29.9523922 40.998291,30.0222168 C40.6660953,30.0920414 40.2651391,30.1269531 39.7954102,30.1269531 Z M39.5097656,23.7983398 C38.9511691,23.7983398 38.5057797,23.9803042 38.173584,24.3442383 C37.8413883,24.7081724 37.6456709,25.2117481 37.5864258,25.8549805 L41.2236328,25.8549805 C41.2236328,25.1905891 41.0755223,24.6817238 40.7792969,24.3283691 C40.4830714,23.9750145 40.0598986,23.7983398 39.5097656,23.7983398 Z M46.9301758,30.1269531 C45.9230093,30.1269531 45.1433133,29.816979 44.5910645,29.1970215 C44.0388156,28.577064 43.7626953,27.7000382 43.7626953,26.565918 C43.7626953,25.4021752 44.0430473,24.5029329 44.6037598,23.8681641 C45.1644722,23.2333953 45.963211,22.9160156 47,22.9160156 C47.3343116,22.9160156 47.6686181,22.9519853 48.0029297,23.0239258 C48.3372413,23.0958662 48.5996084,23.1805008 48.7900391,23.277832 L48.4663086,24.1728516 C48.23356,24.0797521 47.9796563,24.0025231 47.7045898,23.9411621 C47.4295234,23.8798011 47.186199,23.8491211 46.9746094,23.8491211 C45.5611908,23.8491211 44.8544922,24.7504793 44.8544922,26.5532227 C44.8544922,27.4080446 45.0269351,28.0639626 45.3718262,28.5209961 C45.7167172,28.9780296 46.2276984,29.206543 46.9047852,29.206543 C47.4845407,29.206543 48.0790985,29.081707 48.6884766,28.8320312 L48.6884766,29.7651367 C48.2229794,30.0063489 47.636885,30.1269531 46.9301758,30.1269531 Z M53.8745117,30 L53.8745117,20.7197266 L54.9536133,20.7197266 L54.9536133,30 L53.8745117,30 Z M62.1010742,30 L62.1010742,25.4995117 C62.1010742,24.9324516 61.9720065,24.5092787 61.7138672,24.2299805 C61.4557279,23.9506822 61.0515978,23.8110352 60.5014648,23.8110352 C59.7735966,23.8110352 59.2403988,24.0078105 58.9018555,24.4013672 C58.5633121,24.7949238 58.394043,25.4444942 58.394043,26.3500977 L58.394043,30 L57.340332,30 L57.340332,23.0429688 L58.1972656,23.0429688 L58.3686523,23.9951172 L58.4194336,23.9951172 C58.635255,23.652342 58.9378236,23.3868011 59.3271484,23.1984863 C59.7164733,23.0101716 60.1502255,22.9160156 60.628418,22.9160156 C61.4663128,22.9160156 62.0968403,23.1180807 62.5200195,23.5222168 C62.9431987,23.9263529 63.1547852,24.5727495 63.1547852,25.4614258 L63.1547852,30 L62.1010742,30 Z M71.0004883,30 L69.7246094,25.918457 C69.6442053,25.6687813 69.493979,25.1017297 69.2739258,24.2172852 L69.2231445,24.2172852 C69.0538729,24.9578488 68.9057624,25.5291321 68.7788086,25.9311523 L67.4648438,30 L66.2460938,30 L64.3481445,23.0429688 L65.4526367,23.0429688 C65.9012067,24.7906988 66.2429187,26.1215775 66.4777832,27.0356445 C66.7126477,27.9497116 66.847005,28.5654281 66.8808594,28.8828125 L66.9316406,28.8828125 C66.9781903,28.6416004 67.0533035,28.3295104 67.1569824,27.9465332 C67.2606613,27.563556 67.3505856,27.2599295 67.4267578,27.0356445 L68.7026367,23.0429688 L69.8452148,23.0429688 L71.0893555,27.0356445 C71.3263358,27.7635128 71.4871415,28.3749975 71.5717773,28.8701172 L71.6225586,28.8701172 C71.6394858,28.7177727 71.6849768,28.4829117 71.7590332,28.1655273 C71.8330896,27.8481429 72.2742473,26.1406405 73.0825195,23.0429688 L74.1743164,23.0429688 L72.2509766,30 L71.0004883,30 Z M79.7094727,30 L79.5,29.0097656 L79.4492188,29.0097656 C79.1022118,29.4456402 78.756268,29.7408033 78.411377,29.8952637 C78.0664859,30.0497241 77.6359075,30.1269531 77.1196289,30.1269531 C76.4298468,30.1269531 75.8892435,29.9492205 75.4978027,29.59375 C75.106362,29.2382795 74.9106445,28.7325879 74.9106445,28.0766602 C74.9106445,26.6717052 76.0341685,25.9353845 78.28125,25.8676758 L79.4619141,25.8295898 L79.4619141,25.3979492 C79.4619141,24.8520481 79.3444836,24.4489759 79.1096191,24.1887207 C78.8747547,23.9284655 78.4991888,23.7983398 77.9829102,23.7983398 C77.4031547,23.7983398 76.7472367,23.9760724 76.0151367,24.331543 L75.6914062,23.5253906 C76.0341814,23.3391918 76.4097473,23.1931971 76.8181152,23.0874023 C77.2264832,22.9816075 77.6359029,22.9287109 78.0463867,22.9287109 C78.8758179,22.9287109 79.4904765,23.1127911 79.8903809,23.480957 C80.2902852,23.8491229 80.4902344,24.4394491 80.4902344,25.2519531 L80.4902344,30 L79.7094727,30 Z M77.3291016,29.2573242 C77.9850293,29.2573242 78.5002423,29.0774758 78.8747559,28.7177734 C79.2492695,28.3580711 79.4365234,27.8544954 79.4365234,27.2070312 L79.4365234,26.5786133 L78.3828125,26.6230469 C77.5449177,26.6526694 76.9408384,26.7827951 76.5705566,27.0134277 C76.2002748,27.2440604 76.0151367,27.6026994 76.0151367,28.0893555 C76.0151367,28.4702167 76.1304513,28.7600902 76.361084,28.9589844 C76.5917166,29.1578786 76.9143859,29.2573242 77.3291016,29.2573242 Z M83.7148438,30 L82.6611328,30 L82.6611328,20.1230469 L83.7148438,20.1230469 L83.7148438,30 Z M87.0029297,30 L85.9492188,30 L85.9492188,20.1230469 L87.0029297,20.1230469 L87.0029297,30 Z M90.3417969,28.4892578 L90.4370117,28.6352539 C90.3269851,29.0584331 90.1682953,29.5503715 89.9609375,30.111084 C89.7535797,30.6717964 89.5377615,31.193357 89.3134766,31.6757812 L88.5200195,31.6757812 C88.6342779,31.2356749 88.7601718,30.6918978 88.8977051,30.0444336 C89.0352383,29.3969694 89.1315101,28.8785827 89.1865234,28.4892578 L90.3417969,28.4892578 Z M98.9365234,23.8618164 L97.1655273,23.8618164 L97.1655273,30 L96.1118164,30 L96.1118164,23.8618164 L94.8676758,23.8618164 L94.8676758,23.3857422 L96.1118164,23.0048828 L96.1118164,22.6176758 C96.1118164,20.9080318 96.8587165,20.0532227 98.3525391,20.0532227 C98.720705,20.0532227 99.1523413,20.1272779 99.6474609,20.2753906 L99.3745117,21.1196289 C98.9682597,20.9884434 98.6212579,20.9228516 98.3334961,20.9228516 C97.9357076,20.9228516 97.6416025,21.0550931 97.4511719,21.3195801 C97.2607412,21.5840671 97.1655273,22.0082979 97.1655273,22.5922852 L97.1655273,23.0429688 L98.9365234,23.0429688 L98.9365234,23.8618164 Z M104.484375,30 L104.274902,29.0097656 L104.224121,29.0097656 C103.877114,29.4456402 103.53117,29.7408033 103.186279,29.8952637 C102.841388,30.0497241 102.41081,30.1269531 101.894531,30.1269531 C101.204749,30.1269531 100.664146,29.9492205 100.272705,29.59375 C99.8812643,29.2382795 99.6855469,28.7325879 99.6855469,28.0766602 C99.6855469,26.6717052 100.809071,25.9353845 103.056152,25.8676758 L104.236816,25.8295898 L104.236816,25.3979492 C104.236816,24.8520481 104.119386,24.4489759 103.884521,24.1887207 C103.649657,23.9284655 103.274091,23.7983398 102.757812,23.7983398 C102.178057,23.7983398 101.522139,23.9760724 100.790039,24.331543 L100.466309,23.5253906 C100.809084,23.3391918 101.18465,23.1931971 101.593018,23.0874023 C102.001386,22.9816075 102.410805,22.9287109 102.821289,22.9287109 C103.65072,22.9287109 104.265379,23.1127911 104.665283,23.480957 C105.065188,23.8491229 105.265137,24.4394491 105.265137,25.2519531 L105.265137,30 L104.484375,30 Z M102.104004,29.2573242 C102.759932,29.2573242 103.275145,29.0774758 103.649658,28.7177734 C104.024172,28.3580711 104.211426,27.8544954 104.211426,27.2070312 L104.211426,26.5786133 L103.157715,26.6230469 C102.31982,26.6526694 101.715741,26.7827951 101.345459,27.0134277 C100.975177,27.2440604 100.790039,27.6026994 100.790039,28.0893555 C100.790039,28.4702167 100.905354,28.7600902 101.135986,28.9589844 C101.366619,29.1578786 101.689288,29.2573242 102.104004,29.2573242 Z M110.216309,30.1269531 C109.209142,30.1269531 108.429446,29.816979 107.877197,29.1970215 C107.324948,28.577064 107.048828,27.7000382 107.048828,26.565918 C107.048828,25.4021752 107.32918,24.5029329 107.889893,23.8681641 C108.450605,23.2333953 109.249344,22.9160156 110.286133,22.9160156 C110.620444,22.9160156 110.954751,22.9519853 111.289062,23.0239258 C111.623374,23.0958662 111.885741,23.1805008 112.076172,23.277832 L111.752441,24.1728516 C111.519693,24.0797521 111.265789,24.0025231 110.990723,23.9411621 C110.715656,23.8798011 110.472332,23.8491211 110.260742,23.8491211 C108.847324,23.8491211 108.140625,24.7504793 108.140625,26.5532227 C108.140625,27.4080446 108.313068,28.0639626 108.657959,28.5209961 C109.00285,28.9780296 109.513831,29.206543 110.190918,29.206543 C110.770673,29.206543 111.365231,29.081707 111.974609,28.8320312 L111.974609,29.7651367 C111.509112,30.0063489 110.923018,30.1269531 110.216309,30.1269531 Z M114.678711,30 L113.625,30 L113.625,23.0429688 L114.678711,23.0429688 L114.678711,30 Z M113.536133,21.1577148 C113.536133,20.9165027 113.595377,20.739828 113.713867,20.6276855 C113.832357,20.5155431 113.980468,20.4594727 114.158203,20.4594727 C114.327475,20.4594727 114.473469,20.516601 114.596191,20.6308594 C114.718913,20.7451178 114.780273,20.9207345 114.780273,21.1577148 C114.780273,21.3946952 114.718913,21.5713699 114.596191,21.6877441 C114.473469,21.8041184 114.327475,21.8623047 114.158203,21.8623047 C113.980468,21.8623047 113.832357,21.8041184 113.713867,21.6877441 C113.595377,21.5713699 113.536133,21.3946952 113.536133,21.1577148 Z M117.966797,30 L116.913086,30 L116.913086,20.1230469 L117.966797,20.1230469 L117.966797,30 Z M121.254883,30 L120.201172,30 L120.201172,23.0429688 L121.254883,23.0429688 L121.254883,30 Z M120.112305,21.1577148 C120.112305,20.9165027 120.171549,20.739828 120.290039,20.6276855 C120.408529,20.5155431 120.55664,20.4594727 120.734375,20.4594727 C120.903647,20.4594727 121.049641,20.516601 121.172363,20.6308594 C121.295085,20.7451178 121.356445,20.9207345 121.356445,21.1577148 C121.356445,21.3946952 121.295085,21.5713699 121.172363,21.6877441 C121.049641,21.8041184 120.903647,21.8623047 120.734375,21.8623047 C120.55664,21.8623047 120.408529,21.8041184 120.290039,21.6877441 C120.171549,21.5713699 120.112305,21.3946952 120.112305,21.1577148 Z M125.736328,29.2573242 C125.922527,29.2573242 126.102375,29.2435711 126.275879,29.2160645 C126.449382,29.1885578 126.586914,29.1599936 126.688477,29.1303711 L126.688477,29.9365234 C126.574218,29.9915367 126.406007,30.0370278 126.183838,30.072998 C125.961669,30.1089683 125.76172,30.1269531 125.583984,30.1269531 C124.238275,30.1269531 123.56543,29.4181386 123.56543,28.0004883 L123.56543,23.8618164 L122.568848,23.8618164 L122.568848,23.3540039 L123.56543,22.9160156 L124.009766,21.4306641 L124.619141,21.4306641 L124.619141,23.0429688 L126.637695,23.0429688 L126.637695,23.8618164 L124.619141,23.8618164 L124.619141,27.9560547 C124.619141,28.3750021 124.718586,28.6966135 124.91748,28.9208984 C125.116375,29.1451834 125.389321,29.2573242 125.736328,29.2573242 Z M131.017578,30.1269531 C129.989253,30.1269531 129.177819,29.8138052 128.583252,29.1875 C127.988685,28.5611948 127.691406,27.6915746 127.691406,26.5786133 C127.691406,25.4571884 127.967527,24.5664096 128.519775,23.90625 C129.072024,23.2460904 129.813635,22.9160156 130.744629,22.9160156 C131.616378,22.9160156 132.30615,23.2027152 132.813965,23.776123 C133.32178,24.3495309 133.575684,25.1059523 133.575684,26.0454102 L133.575684,26.7119141 L128.783203,26.7119141 C128.804362,27.5286499 129.010659,28.1485981 129.4021,28.5717773 C129.79354,28.9949565 130.344723,29.206543 131.055664,29.206543 C131.804691,29.206543 132.545244,29.049969 133.277344,28.7368164 L133.277344,29.6762695 C132.904946,29.8370776 132.552655,29.9523922 132.220459,30.0222168 C131.888263,30.0920414 131.487307,30.1269531 131.017578,30.1269531 Z M130.731934,23.7983398 C130.173337,23.7983398 129.727948,23.9803042 129.395752,24.3442383 C129.063556,24.7081724 128.867839,25.2117481 128.808594,25.8549805 L132.445801,25.8549805 C132.445801,25.1905891 132.29769,24.6817238 132.001465,24.3283691 C131.705239,23.9750145 131.282067,23.7983398 130.731934,23.7983398 Z M139.821777,30 L134.775391,30 L134.775391,29.2827148 L138.571289,23.8618164 L135.010254,23.8618164 L135.010254,23.0429688 L139.726562,23.0429688 L139.726562,23.8618164 L135.981445,29.1811523 L139.821777,29.1811523 L139.821777,30 Z M145.883789,30 L144.830078,30 L144.830078,20.1230469 L145.883789,20.1230469 L145.883789,30 Z M148.962402,20.7197266 L149.057617,20.859375 C148.947591,21.2825542 148.788901,21.7744926 148.581543,22.3352051 C148.374185,22.8959175 148.158367,23.4174781 147.934082,23.8999023 L147.159668,23.8999023 C147.455893,22.6938416 147.671712,21.6337936 147.807129,20.7197266 L148.962402,20.7197266 Z M153.266113,30.1269531 C152.237788,30.1269531 151.426354,29.8138052 150.831787,29.1875 C150.23722,28.5611948 149.939941,27.6915746 149.939941,26.5786133 C149.939941,25.4571884 150.216062,24.5664096 150.768311,23.90625 C151.320559,23.2460904 152.06217,22.9160156 152.993164,22.9160156 C153.864913,22.9160156 154.554685,23.2027152 155.0625,23.776123 C155.570315,24.3495309 155.824219,25.1059523 155.824219,26.0454102 L155.824219,26.7119141 L151.031738,26.7119141 C151.052897,27.5286499 151.259194,28.1485981 151.650635,28.5717773 C152.042076,28.9949565 152.593258,29.206543 153.304199,29.206543 C154.053226,29.206543 154.793779,29.049969 155.525879,28.7368164 L155.525879,29.6762695 C155.153481,29.8370776 154.80119,29.9523922 154.468994,30.0222168 C154.136798,30.0920414 153.735842,30.1269531 153.266113,30.1269531 Z M152.980469,23.7983398 C152.421872,23.7983398 151.976483,23.9803042 151.644287,24.3442383 C151.312091,24.7081724 151.116374,25.2117481 151.057129,25.8549805 L154.694336,25.8549805 C154.694336,25.1905891 154.546225,24.6817238 154.25,24.3283691 C153.953775,23.9750145 153.530602,23.7983398 152.980469,23.7983398 Z M152.199707,21.9638672 C152.402833,21.7014961 152.621825,21.3841164 152.856689,21.0117188 C153.091554,20.6393211 153.276692,20.3155938 153.412109,20.0405273 L154.694336,20.0405273 L154.694336,20.1738281 C154.508137,20.4488946 154.230959,20.7874329 153.862793,21.1894531 C153.494627,21.5914734 153.175132,21.9025054 152.904297,22.1225586 L152.199707,22.1225586 L152.199707,21.9638672 Z M160.400879,30.1269531 C159.393712,30.1269531 158.614016,29.816979 158.061768,29.1970215 C157.509519,28.577064 157.233398,27.7000382 157.233398,26.565918 C157.233398,25.4021752 157.51375,24.5029329 158.074463,23.8681641 C158.635175,23.2333953 159.433914,22.9160156 160.470703,22.9160156 C160.805015,22.9160156 161.139321,22.9519853 161.473633,23.0239258 C161.807944,23.0958662 162.070312,23.1805008 162.260742,23.277832 L161.937012,24.1728516 C161.704263,24.0797521 161.450359,24.0025231 161.175293,23.9411621 C160.900226,23.8798011 160.656902,23.8491211 160.445312,23.8491211 C159.031894,23.8491211 158.325195,24.7504793 158.325195,26.5532227 C158.325195,27.4080446 158.497638,28.0639626 158.842529,28.5209961 C159.18742,28.9780296 159.698402,29.206543 160.375488,29.206543 C160.955244,29.206543 161.549802,29.081707 162.15918,28.8320312 L162.15918,29.7651367 C161.693683,30.0063489 161.107588,30.1269531 160.400879,30.1269531 Z M168.570312,30 L168.570312,25.4995117 C168.570312,24.9324516 168.441245,24.5092787 168.183105,24.2299805 C167.924966,23.9506822 167.520836,23.8110352 166.970703,23.8110352 C166.238603,23.8110352 165.704347,24.0099264 165.36792,24.4077148 C165.031492,24.8055033 164.863281,25.4571895 164.863281,26.362793 L164.863281,30 L163.80957,30 L163.80957,20.1230469 L164.863281,20.1230469 L164.863281,23.112793 C164.863281,23.4724953 164.846354,23.7708321 164.8125,24.0078125 L164.875977,24.0078125 C165.083334,23.6735009 165.378497,23.4100758 165.761475,23.2175293 C166.144452,23.0249828 166.581378,22.9287109 167.072266,22.9287109 C167.922856,22.9287109 168.560789,23.130776 168.986084,23.5349121 C169.411379,23.9390482 169.624023,24.581213 169.624023,25.4614258 L169.624023,30 L168.570312,30 Z M176.066895,30 L175.857422,29.0097656 L175.806641,29.0097656 C175.459634,29.4456402 175.11369,29.7408033 174.768799,29.8952637 C174.423908,30.0497241 173.993329,30.1269531 173.477051,30.1269531 C172.787269,30.1269531 172.246665,29.9492205 171.855225,29.59375 C171.463784,29.2382795 171.268066,28.7325879 171.268066,28.0766602 C171.268066,26.6717052 172.39159,25.9353845 174.638672,25.8676758 L175.819336,25.8295898 L175.819336,25.3979492 C175.819336,24.8520481 175.701905,24.4489759 175.467041,24.1887207 C175.232177,23.9284655 174.856611,23.7983398 174.340332,23.7983398 C173.760577,23.7983398 173.104659,23.9760724 172.372559,24.331543 L172.048828,23.5253906 C172.391603,23.3391918 172.767169,23.1931971 173.175537,23.0874023 C173.583905,22.9816075 173.993325,22.9287109 174.403809,22.9287109 C175.23324,22.9287109 175.847898,23.1127911 176.247803,23.480957 C176.647707,23.8491229 176.847656,24.4394491 176.847656,25.2519531 L176.847656,30 L176.066895,30 Z M173.686523,29.2573242 C174.342451,29.2573242 174.857664,29.0774758 175.232178,28.7177734 C175.606691,28.3580711 175.793945,27.8544954 175.793945,27.2070312 L175.793945,26.5786133 L174.740234,26.6230469 C173.90234,26.6526694 173.29826,26.7827951 172.927979,27.0134277 C172.557697,27.2440604 172.372559,27.6026994 172.372559,28.0893555 C172.372559,28.4702167 172.487873,28.7600902 172.718506,28.9589844 C172.949139,29.1578786 173.271808,29.2573242 173.686523,29.2573242 Z M183.779297,30 L183.779297,25.4995117 C183.779297,24.9324516 183.650229,24.5092787 183.39209,24.2299805 C183.133951,23.9506822 182.72982,23.8110352 182.179688,23.8110352 C181.451819,23.8110352 180.918621,24.0078105 180.580078,24.4013672 C180.241535,24.7949238 180.072266,25.4444942 180.072266,26.3500977 L180.072266,30 L179.018555,30 L179.018555,23.0429688 L179.875488,23.0429688 L180.046875,23.9951172 L180.097656,23.9951172 C180.313478,23.652342 180.616046,23.3868011 181.005371,23.1984863 C181.394696,23.0101716 181.828448,22.9160156 182.306641,22.9160156 C183.144535,22.9160156 183.775063,23.1180807 184.198242,23.5222168 C184.621421,23.9263529 184.833008,24.5727495 184.833008,25.4614258 L184.833008,30 L183.779297,30 Z M192.691406,23.0429688 L192.691406,23.7094727 L191.402832,23.8618164 C191.521322,24.0099291 191.627115,24.2035307 191.720215,24.442627 C191.813314,24.6817232 191.859863,24.9514959 191.859863,25.2519531 C191.859863,25.9332716 191.627118,26.4770488 191.161621,26.8833008 C190.696124,27.2895528 190.057133,27.4926758 189.244629,27.4926758 C189.037271,27.4926758 188.842612,27.4757489 188.660645,27.4418945 C188.212075,27.6788749 187.987793,27.9772117 187.987793,28.3369141 C187.987793,28.5273447 188.06608,28.6680497 188.222656,28.7590332 C188.379233,28.8500167 188.647947,28.8955078 189.028809,28.8955078 L190.260254,28.8955078 C191.013513,28.8955078 191.592202,29.0541976 191.996338,29.371582 C192.400474,29.6889664 192.602539,30.1502248 192.602539,30.7553711 C192.602539,31.5255572 192.293623,32.1127096 191.675781,32.5168457 C191.05794,32.9209818 190.156581,33.1230469 188.97168,33.1230469 C188.061844,33.1230469 187.360435,32.9537777 186.867432,32.6152344 C186.374428,32.276691 186.12793,31.7985057 186.12793,31.1806641 C186.12793,30.7574849 186.263345,30.3914403 186.53418,30.0825195 C186.805014,29.7735987 187.18587,29.5641282 187.676758,29.4541016 C187.499023,29.3736975 187.349854,29.2488615 187.229248,29.0795898 C187.108642,28.9103182 187.04834,28.7135428 187.04834,28.4892578 C187.04834,28.2353503 187.116047,28.0131845 187.251465,27.8227539 C187.386882,27.6323233 187.600584,27.4482431 187.892578,27.2705078 C187.532876,27.1223951 187.239829,26.8706072 187.013428,26.5151367 C186.787027,26.1596662 186.673828,25.7534203 186.673828,25.2963867 C186.673828,24.5346642 186.902341,23.9475118 187.359375,23.5349121 C187.816409,23.1223124 188.463863,22.9160156 189.301758,22.9160156 C189.665692,22.9160156 189.993651,22.9583329 190.285645,23.0429688 L192.691406,23.0429688 Z M187.143555,31.1679688 C187.143555,31.5445982 187.302245,31.8302399 187.619629,32.0249023 C187.937013,32.2195648 188.391924,32.3168945 188.984375,32.3168945 C189.86882,32.3168945 190.52368,32.184653 190.948975,31.920166 C191.37427,31.655679 191.586914,31.29704 191.586914,30.8442383 C191.586914,30.4676088 191.470542,30.2062996 191.237793,30.0603027 C191.005044,29.9143059 190.567061,29.8413086 189.923828,29.8413086 L188.660645,29.8413086 C188.182452,29.8413086 187.81006,29.9555653 187.543457,30.184082 C187.276854,30.4125988 187.143555,30.7405578 187.143555,31.1679688 Z M187.714844,25.2709961 C187.714844,25.7576522 187.852375,26.1258126 188.127441,26.3754883 C188.402508,26.625164 188.785479,26.75 189.276367,26.75 C190.304693,26.75 190.818848,26.250656 190.818848,25.2519531 C190.818848,24.2067005 190.298345,23.684082 189.257324,23.684082 C188.762205,23.684082 188.381349,23.8173815 188.114746,24.0839844 C187.848143,24.3505873 187.714844,24.7462539 187.714844,25.2709961 Z M197.058594,30.1269531 C196.030268,30.1269531 195.218834,29.8138052 194.624268,29.1875 C194.029701,28.5611948 193.732422,27.6915746 193.732422,26.5786133 C193.732422,25.4571884 194.008542,24.5664096 194.560791,23.90625 C195.11304,23.2460904 195.85465,22.9160156 196.785645,22.9160156 C197.657394,22.9160156 198.347165,23.2027152 198.85498,23.776123 C199.362796,24.3495309 199.616699,25.1059523 199.616699,26.0454102 L199.616699,26.7119141 L194.824219,26.7119141 C194.845378,27.5286499 195.051674,28.1485981 195.443115,28.5717773 C195.834556,28.9949565 196.385739,29.206543 197.09668,29.206543 C197.845707,29.206543 198.586259,29.049969 199.318359,28.7368164 L199.318359,29.6762695 C198.945962,29.8370776 198.59367,29.9523922 198.261475,30.0222168 C197.929279,30.0920414 197.528323,30.1269531 197.058594,30.1269531 Z M196.772949,23.7983398 C196.214353,23.7983398 195.768963,23.9803042 195.436768,24.3442383 C195.104572,24.7081724 194.908854,25.2117481 194.849609,25.8549805 L198.486816,25.8549805 C198.486816,25.1905891 198.338706,24.6817238 198.04248,24.3283691 C197.746255,23.9750145 197.323082,23.7983398 196.772949,23.7983398 Z M26.8525391,47.0668945 L26.7954102,47.0668945 C26.3087541,47.7736038 25.5808968,48.1269531 24.6118164,48.1269531 C23.7019811,48.1269531 22.9942245,47.8159211 22.4885254,47.1938477 C21.9828262,46.5717742 21.7299805,45.687343 21.7299805,44.5405273 C21.7299805,43.3937117 21.9838842,42.5029329 22.4916992,41.8681641 C22.9995143,41.2333953 23.7062129,40.9160156 24.6118164,40.9160156 C25.555506,40.9160156 26.2791316,41.2587856 26.7827148,41.9443359 L26.8652344,41.9443359 L26.8208008,41.4428711 L26.7954102,40.9541016 L26.7954102,38.1230469 L27.8491211,38.1230469 L27.8491211,48 L26.9921875,48 L26.8525391,47.0668945 Z M24.7451172,47.2446289 C25.4645218,47.2446289 25.9860824,47.0489115 26.3098145,46.6574707 C26.6335465,46.2660299 26.7954102,45.6344445 26.7954102,44.7626953 L26.7954102,44.5405273 C26.7954102,43.5545198 26.6314307,42.8509949 26.3034668,42.4299316 C25.9755029,42.0088683 25.4518265,41.7983398 24.7324219,41.7983398 C24.1145802,41.7983398 23.6416846,42.0384904 23.3137207,42.5187988 C22.9857568,42.9991072 22.8217773,43.6772417 22.8217773,44.5532227 C22.8217773,45.441899 22.9846989,46.1126279 23.3105469,46.5654297 C23.6363949,47.0182314 24.1145802,47.2446289 24.7451172,47.2446289 Z M34.3618164,48 L34.1523438,47.0097656 L34.1015625,47.0097656 C33.7545556,47.4456402 33.4086118,47.7408033 33.0637207,47.8952637 C32.7188297,48.0497241 32.2882513,48.1269531 31.7719727,48.1269531 C31.0821906,48.1269531 30.5415872,47.9492205 30.1501465,47.59375 C29.7587057,47.2382795 29.5629883,46.7325879 29.5629883,46.0766602 C29.5629883,44.6717052 30.6865122,43.9353845 32.9335938,43.8676758 L34.1142578,43.8295898 L34.1142578,43.3979492 C34.1142578,42.8520481 33.9968273,42.4489759 33.7619629,42.1887207 C33.5270984,41.9284655 33.1515325,41.7983398 32.6352539,41.7983398 C32.0554984,41.7983398 31.3995805,41.9760724 30.6674805,42.331543 L30.34375,41.5253906 C30.6865252,41.3391918 31.0620911,41.1931971 31.470459,41.0874023 C31.8788269,40.9816075 32.2882466,40.9287109 32.6987305,40.9287109 C33.5281617,40.9287109 34.1428203,41.1127911 34.5427246,41.480957 C34.942629,41.8491229 35.1425781,42.4394491 35.1425781,43.2519531 L35.1425781,48 L34.3618164,48 Z M31.9814453,47.2573242 C32.6373731,47.2573242 33.152586,47.0774758 33.5270996,46.7177734 C33.9016132,46.3580711 34.0888672,45.8544954 34.0888672,45.2070312 L34.0888672,44.5786133 L33.0351562,44.6230469 C32.1972614,44.6526694 31.5931822,44.7827951 31.2229004,45.0134277 C30.8526186,45.2440604 30.6674805,45.6026994 30.6674805,46.0893555 C30.6674805,46.4702167 30.7827951,46.7600902 31.0134277,46.9589844 C31.2440604,47.1578786 31.5667297,47.2573242 31.9814453,47.2573242 Z M42.0742188,48 L42.0742188,43.4995117 C42.0742188,42.9324516 41.945151,42.5092787 41.6870117,42.2299805 C41.4288724,41.9506822 41.0247423,41.8110352 40.4746094,41.8110352 C39.7467412,41.8110352 39.2135434,42.0078105 38.875,42.4013672 C38.5364566,42.7949238 38.3671875,43.4444942 38.3671875,44.3500977 L38.3671875,48 L37.3134766,48 L37.3134766,41.0429688 L38.1704102,41.0429688 L38.3417969,41.9951172 L38.3925781,41.9951172 C38.6083995,41.652342 38.9109681,41.3868011 39.300293,41.1984863 C39.6896178,41.0101716 40.12337,40.9160156 40.6015625,40.9160156 C41.4394573,40.9160156 42.0699849,41.1180807 42.4931641,41.5222168 C42.9163433,41.9263529 43.1279297,42.5727495 43.1279297,43.4614258 L43.1279297,48 L42.0742188,48 Z M49.7802734,46.1020508 C49.7802734,46.749515 49.5390649,47.2488589 49.0566406,47.6000977 C48.5742163,47.9513364 47.8971398,48.1269531 47.0253906,48.1269531 C46.10286,48.1269531 45.3834661,47.9809585 44.8671875,47.6889648 L44.8671875,46.7114258 C45.2014991,46.8806975 45.5601381,47.0139969 45.9431152,47.1113281 C46.3260924,47.2086593 46.6953107,47.2573242 47.0507812,47.2573242 C47.6009142,47.2573242 48.0240871,47.1695159 48.3203125,46.9938965 C48.6165379,46.8182771 48.7646484,46.5506203 48.7646484,46.190918 C48.7646484,45.9200833 48.647218,45.6883961 48.4123535,45.4958496 C48.1774891,45.3033031 47.7194044,45.0758477 47.0380859,44.8134766 C46.3906218,44.5722644 45.9304213,44.3617359 45.6574707,44.1818848 C45.3845201,44.0020336 45.1813972,43.7978527 45.0480957,43.5693359 C44.9147943,43.3408192 44.8481445,43.0678727 44.8481445,42.7504883 C44.8481445,42.1834282 45.0787737,41.7359229 45.5400391,41.407959 C46.0013044,41.0799951 46.6339478,40.9160156 47.4379883,40.9160156 C48.1870155,40.9160156 48.9191045,41.0683579 49.6342773,41.3730469 L49.2597656,42.2299805 C48.5615199,41.9422186 47.9288765,41.7983398 47.3618164,41.7983398 C46.862465,41.7983398 46.4858411,41.8766268 46.2319336,42.0332031 C45.9780261,42.1897794 45.8510742,42.4055976 45.8510742,42.6806641 C45.8510742,42.8668629 45.8986812,43.0255527 45.9938965,43.1567383 C46.0891118,43.2879238 46.242512,43.4127598 46.4541016,43.53125 C46.6656912,43.6497402 47.0719371,43.8211252 47.6728516,44.0454102 C48.498051,44.3458674 49.0555812,44.648436 49.345459,44.953125 C49.6353367,45.257814 49.7802734,45.6407855 49.7802734,46.1020508 Z M56.3945312,48 L53.7539062,41.0429688 L54.8837891,41.0429688 L56.3818359,45.1689453 C56.7203793,46.1337939 56.9192705,46.7600897 56.9785156,47.0478516 L57.0292969,47.0478516 C57.0758466,46.8235666 57.2228992,46.3591344 57.470459,45.654541 C57.7180188,44.9499476 58.2734332,43.4127723 59.1367188,41.0429688 L60.2666016,41.0429688 L57.6259766,48 L56.3945312,48 Z M67.3886719,44.5151367 C67.3886719,45.649257 67.1030302,46.5347462 66.5317383,47.1716309 C65.9604464,47.8085156 65.171229,48.1269531 64.1640625,48.1269531 C63.5419891,48.1269531 62.9897485,47.9809585 62.5073242,47.6889648 C62.0248999,47.3969712 61.6525078,46.9780301 61.3901367,46.4321289 C61.1277656,45.8862277 60.996582,45.2472367 60.996582,44.5151367 C60.996582,43.3810165 61.2801078,42.4976431 61.847168,41.8649902 C62.4142281,41.2323373 63.2013296,40.9160156 64.2084961,40.9160156 C65.1818083,40.9160156 65.9551566,41.2397429 66.5285645,41.887207 C67.1019723,42.5346712 67.3886719,43.410639 67.3886719,44.5151367 Z M62.0883789,44.5151367 C62.0883789,45.403813 62.2661115,46.0808896 62.621582,46.5463867 C62.9770526,47.0118838 63.499671,47.2446289 64.1894531,47.2446289 C64.8792352,47.2446289 65.4029116,47.0129418 65.760498,46.5495605 C66.1180845,46.0861793 66.296875,45.4080448 66.296875,44.5151367 C66.296875,43.6306922 66.1180845,42.9589053 65.760498,42.4997559 C65.4029116,42.0406064 64.8750035,41.8110352 64.1767578,41.8110352 C63.4869757,41.8110352 62.9664731,42.0374326 62.6152344,42.4902344 C62.2639956,42.9430361 62.0883789,43.6179968 62.0883789,44.5151367 Z M73.7236328,46.1020508 C73.7236328,46.749515 73.4824243,47.2488589 73,47.6000977 C72.5175757,47.9513364 71.8404992,48.1269531 70.96875,48.1269531 C70.0462193,48.1269531 69.3268255,47.9809585 68.8105469,47.6889648 L68.8105469,46.7114258 C69.1448584,46.8806975 69.5034974,47.0139969 69.8864746,47.1113281 C70.2694518,47.2086593 70.6386701,47.2573242 70.9941406,47.2573242 C71.5442736,47.2573242 71.9674464,47.1695159 72.2636719,46.9938965 C72.5598973,46.8182771 72.7080078,46.5506203 72.7080078,46.190918 C72.7080078,45.9200833 72.5905773,45.6883961 72.3557129,45.4958496 C72.1208484,45.3033031 71.6627638,45.0758477 70.9814453,44.8134766 C70.3339811,44.5722644 69.8737807,44.3617359 69.6008301,44.1818848 C69.3278795,44.0020336 69.1247565,43.7978527 68.9914551,43.5693359 C68.8581536,43.3408192 68.7915039,43.0678727 68.7915039,42.7504883 C68.7915039,42.1834282 69.0221331,41.7359229 69.4833984,41.407959 C69.9446638,41.0799951 70.5773072,40.9160156 71.3813477,40.9160156 C72.1303748,40.9160156 72.8624639,41.0683579 73.5776367,41.3730469 L73.203125,42.2299805 C72.5048793,41.9422186 71.8722359,41.7983398 71.3051758,41.7983398 C70.8058243,41.7983398 70.4292005,41.8766268 70.175293,42.0332031 C69.9213854,42.1897794 69.7944336,42.4055976 69.7944336,42.6806641 C69.7944336,42.8668629 69.8420405,43.0255527 69.9372559,43.1567383 C70.0324712,43.2879238 70.1858713,43.4127598 70.3974609,43.53125 C70.6090505,43.6497402 71.0152965,43.8211252 71.6162109,44.0454102 C72.4414104,44.3458674 72.9989406,44.648436 73.2888184,44.953125 C73.5786961,45.257814 73.7236328,45.6407855 73.7236328,46.1020508 Z M81.9882812,40.9160156 C82.2972021,40.9160156 82.5743803,40.941406 82.8198242,40.9921875 L82.6738281,41.9697266 C82.3860663,41.9062497 82.1321626,41.8745117 81.9121094,41.8745117 C81.349281,41.8745117 80.8679219,42.1030251 80.4680176,42.5600586 C80.0681132,43.0170921 79.8681641,43.5862596 79.8681641,44.2675781 L79.8681641,48 L78.8144531,48 L78.8144531,41.0429688 L79.684082,41.0429688 L79.8046875,42.331543 L79.8554688,42.331543 C80.1136081,41.8787412 80.4246401,41.5296236 80.7885742,41.2841797 C81.1525083,41.0387358 81.5524067,40.9160156 81.9882812,40.9160156 Z M87.0600586,48.1269531 C86.0317331,48.1269531 85.2202992,47.8138052 84.6257324,47.1875 C84.0311656,46.5611948 83.7338867,45.6915746 83.7338867,44.5786133 C83.7338867,43.4571884 84.010007,42.5664096 84.5622559,41.90625 C85.1145047,41.2460904 85.8561151,40.9160156 86.7871094,40.9160156 C87.6588585,40.9160156 88.3486303,41.2027152 88.8564453,41.776123 C89.3642604,42.3495309 89.6181641,43.1059523 89.6181641,44.0454102 L89.6181641,44.7119141 L84.8256836,44.7119141 C84.8468426,45.5286499 85.0531393,46.1485981 85.4445801,46.5717773 C85.8360208,46.9949565 86.3872035,47.206543 87.0981445,47.206543 C87.8471717,47.206543 88.5877242,47.049969 89.3198242,46.7368164 L89.3198242,47.6762695 C88.9474265,47.8370776 88.5951351,47.9523922 88.2629395,48.0222168 C87.9307438,48.0920414 87.5297875,48.1269531 87.0600586,48.1269531 Z M86.7744141,41.7983398 C86.2158175,41.7983398 85.7704281,41.9803042 85.4382324,42.3442383 C85.1060368,42.7081724 84.9103193,43.2117481 84.8510742,43.8549805 L88.4882812,43.8549805 C88.4882812,43.1905891 88.3401708,42.6817238 88.0439453,42.3283691 C87.7477199,41.9750145 87.324547,41.7983398 86.7744141,41.7983398 Z M85.9936523,39.9638672 C86.1967784,39.7014961 86.4157703,39.3841164 86.6506348,39.0117188 C86.8854992,38.6393211 87.0706373,38.3155938 87.2060547,38.0405273 L88.4882812,38.0405273 L88.4882812,38.1738281 C88.3020824,38.4488946 88.0249042,38.7874329 87.6567383,39.1894531 C87.2885724,39.5914734 86.9690769,39.9025054 86.6982422,40.1225586 L85.9936523,40.1225586 L85.9936523,39.9638672 Z M92.4047852,41.0429688 L92.4047852,45.5561523 C92.4047852,46.1232125 92.5338529,46.5463853 92.7919922,46.8256836 C93.0501315,47.1049819 93.4542616,47.2446289 94.0043945,47.2446289 C94.7322628,47.2446289 95.2644026,47.0457377 95.6008301,46.6479492 C95.9372575,46.2501608 96.1054688,45.6005904 96.1054688,44.6992188 L96.1054688,41.0429688 L97.1591797,41.0429688 L97.1591797,48 L96.2895508,48 L96.137207,47.0668945 L96.0800781,47.0668945 C95.8642567,47.4096697 95.5648619,47.6720369 95.1818848,47.8540039 C94.7989076,48.035971 94.3619816,48.1269531 93.8710938,48.1269531 C93.0247354,48.1269531 92.391034,47.925946 91.9699707,47.5239258 C91.5489074,47.1219055 91.3383789,46.4786828 91.3383789,45.5942383 L91.3383789,41.0429688 L92.4047852,41.0429688 Z M104.154297,48 L104.154297,43.4995117 C104.154297,42.9324516 104.025229,42.5092787 103.76709,42.2299805 C103.508951,41.9506822 103.10482,41.8110352 102.554688,41.8110352 C101.826819,41.8110352 101.293621,42.0078105 100.955078,42.4013672 C100.616535,42.7949238 100.447266,43.4444942 100.447266,44.3500977 L100.447266,48 L99.3935547,48 L99.3935547,41.0429688 L100.250488,41.0429688 L100.421875,41.9951172 L100.472656,41.9951172 C100.688478,41.652342 100.991046,41.3868011 101.380371,41.1984863 C101.769696,41.0101716 102.203448,40.9160156 102.681641,40.9160156 C103.519535,40.9160156 104.150063,41.1180807 104.573242,41.5222168 C104.996421,41.9263529 105.208008,42.5727495 105.208008,43.4614258 L105.208008,48 L104.154297,48 Z M108.42627,48 L107.372559,48 L107.372559,41.0429688 L108.42627,41.0429688 L108.42627,48 Z M107.283691,39.1577148 C107.283691,38.9165027 107.342936,38.739828 107.461426,38.6276855 C107.579916,38.5155431 107.728026,38.4594727 107.905762,38.4594727 C108.075033,38.4594727 108.221028,38.516601 108.34375,38.6308594 C108.466472,38.7451178 108.527832,38.9207345 108.527832,39.1577148 C108.527832,39.3946952 108.466472,39.5713699 108.34375,39.6877441 C108.221028,39.8041184 108.075033,39.8623047 107.905762,39.8623047 C107.728026,39.8623047 107.579916,39.8041184 107.461426,39.6877441 C107.342936,39.5713699 107.283691,39.3946952 107.283691,39.1577148 Z M116.665527,44.5151367 C116.665527,45.649257 116.379886,46.5347462 115.808594,47.1716309 C115.237302,47.8085156 114.448084,48.1269531 113.440918,48.1269531 C112.818845,48.1269531 112.266604,47.9809585 111.78418,47.6889648 C111.301755,47.3969712 110.929363,46.9780301 110.666992,46.4321289 C110.404621,45.8862277 110.273438,45.2472367 110.273438,44.5151367 C110.273438,43.3810165 110.556963,42.4976431 111.124023,41.8649902 C111.691084,41.2323373 112.478185,40.9160156 113.485352,40.9160156 C114.458664,40.9160156 115.232012,41.2397429 115.80542,41.887207 C116.378828,42.5346712 116.665527,43.410639 116.665527,44.5151367 Z M111.365234,44.5151367 C111.365234,45.403813 111.542967,46.0808896 111.898438,46.5463867 C112.253908,47.0118838 112.776526,47.2446289 113.466309,47.2446289 C114.156091,47.2446289 114.679767,47.0129418 115.037354,46.5495605 C115.39494,46.0861793 115.57373,45.4080448 115.57373,44.5151367 C115.57373,43.6306922 115.39494,42.9589053 115.037354,42.4997559 C114.679767,42.0406064 114.151859,41.8110352 113.453613,41.8110352 C112.763831,41.8110352 112.243329,42.0374326 111.89209,42.4902344 C111.540851,42.9430361 111.365234,43.6179968 111.365234,44.5151367 Z M123.273438,48 L123.273438,43.4995117 C123.273438,42.9324516 123.14437,42.5092787 122.88623,42.2299805 C122.628091,41.9506822 122.223961,41.8110352 121.673828,41.8110352 C120.94596,41.8110352 120.412762,42.0078105 120.074219,42.4013672 C119.735675,42.7949238 119.566406,43.4444942 119.566406,44.3500977 L119.566406,48 L118.512695,48 L118.512695,41.0429688 L119.369629,41.0429688 L119.541016,41.9951172 L119.591797,41.9951172 C119.807618,41.652342 120.110187,41.3868011 120.499512,41.1984863 C120.888837,41.0101716 121.322589,40.9160156 121.800781,40.9160156 C122.638676,40.9160156 123.269204,41.1180807 123.692383,41.5222168 C124.115562,41.9263529 124.327148,42.5727495 124.327148,43.4614258 L124.327148,48 L123.273438,48 Z M130.979492,46.1020508 C130.979492,46.749515 130.738284,47.2488589 130.255859,47.6000977 C129.773435,47.9513364 129.096359,48.1269531 128.224609,48.1269531 C127.302079,48.1269531 126.582685,47.9809585 126.066406,47.6889648 L126.066406,46.7114258 C126.400718,46.8806975 126.759357,47.0139969 127.142334,47.1113281 C127.525311,47.2086593 127.894529,47.2573242 128.25,47.2573242 C128.800133,47.2573242 129.223306,47.1695159 129.519531,46.9938965 C129.815757,46.8182771 129.963867,46.5506203 129.963867,46.190918 C129.963867,45.9200833 129.846437,45.6883961 129.611572,45.4958496 C129.376708,45.3033031 128.918623,45.0758477 128.237305,44.8134766 C127.589841,44.5722644 127.12964,44.3617359 126.856689,44.1818848 C126.583739,44.0020336 126.380616,43.7978527 126.247314,43.5693359 C126.114013,43.3408192 126.047363,43.0678727 126.047363,42.7504883 C126.047363,42.1834282 126.277992,41.7359229 126.739258,41.407959 C127.200523,41.0799951 127.833167,40.9160156 128.637207,40.9160156 C129.386234,40.9160156 130.118323,41.0683579 130.833496,41.3730469 L130.458984,42.2299805 C129.760739,41.9422186 129.128095,41.7983398 128.561035,41.7983398 C128.061684,41.7983398 127.68506,41.8766268 127.431152,42.0332031 C127.177245,42.1897794 127.050293,42.4055976 127.050293,42.6806641 C127.050293,42.8668629 127.0979,43.0255527 127.193115,43.1567383 C127.288331,43.2879238 127.441731,43.4127598 127.65332,43.53125 C127.86491,43.6497402 128.271156,43.8211252 128.87207,44.0454102 C129.69727,44.3458674 130.2548,44.648436 130.544678,44.953125 C130.834555,45.257814 130.979492,45.6407855 130.979492,46.1020508 Z M133.797852,46.4892578 L133.893066,46.6352539 C133.78304,47.0584331 133.62435,47.5503715 133.416992,48.111084 C133.209634,48.6717964 132.993816,49.193357 132.769531,49.6757812 L131.976074,49.6757812 C132.090333,49.2356749 132.216227,48.6918978 132.35376,48.0444336 C132.491293,47.3969694 132.587565,46.8785827 132.642578,46.4892578 L133.797852,46.4892578 Z M142.037109,48.1269531 C141.029943,48.1269531 140.250247,47.816979 139.697998,47.1970215 C139.145749,46.577064 138.869629,45.7000382 138.869629,44.565918 C138.869629,43.4021752 139.149981,42.5029329 139.710693,41.8681641 C140.271406,41.2333953 141.070145,40.9160156 142.106934,40.9160156 C142.441245,40.9160156 142.775552,40.9519853 143.109863,41.0239258 C143.444175,41.0958662 143.706542,41.1805008 143.896973,41.277832 L143.573242,42.1728516 C143.340494,42.0797521 143.08659,42.0025231 142.811523,41.9411621 C142.536457,41.8798011 142.293133,41.8491211 142.081543,41.8491211 C140.668124,41.8491211 139.961426,42.7504793 139.961426,44.5532227 C139.961426,45.4080446 140.133869,46.0639626 140.47876,46.5209961 C140.823651,46.9780296 141.334632,47.206543 142.011719,47.206543 C142.591474,47.206543 143.186032,47.081707 143.79541,46.8320312 L143.79541,47.7651367 C143.329913,48.0063489 142.743819,48.1269531 142.037109,48.1269531 Z M151.450684,44.5151367 C151.450684,45.649257 151.165042,46.5347462 150.59375,47.1716309 C150.022458,47.8085156 149.233241,48.1269531 148.226074,48.1269531 C147.604001,48.1269531 147.05176,47.9809585 146.569336,47.6889648 C146.086912,47.3969712 145.71452,46.9780301 145.452148,46.4321289 C145.189777,45.8862277 145.058594,45.2472367 145.058594,44.5151367 C145.058594,43.3810165 145.34212,42.4976431 145.90918,41.8649902 C146.47624,41.2323373 147.263341,40.9160156 148.270508,40.9160156 C149.24382,40.9160156 150.017168,41.2397429 150.590576,41.887207 C151.163984,42.5346712 151.450684,43.410639 151.450684,44.5151367 Z M146.150391,44.5151367 C146.150391,45.403813 146.328123,46.0808896 146.683594,46.5463867 C147.039064,47.0118838 147.561683,47.2446289 148.251465,47.2446289 C148.941247,47.2446289 149.464923,47.0129418 149.82251,46.5495605 C150.180096,46.0861793 150.358887,45.4080448 150.358887,44.5151367 C150.358887,43.6306922 150.180096,42.9589053 149.82251,42.4997559 C149.464923,42.0406064 148.937015,41.8110352 148.23877,41.8110352 C147.548987,41.8110352 147.028485,42.0374326 146.677246,42.4902344 C146.326007,42.9430361 146.150391,43.6179968 146.150391,44.5151367 Z M158.058594,48 L158.058594,43.4995117 C158.058594,42.9324516 157.929526,42.5092787 157.671387,42.2299805 C157.413247,41.9506822 157.009117,41.8110352 156.458984,41.8110352 C155.731116,41.8110352 155.197918,42.0078105 154.859375,42.4013672 C154.520832,42.7949238 154.351562,43.4444942 154.351562,44.3500977 L154.351562,48 L153.297852,48 L153.297852,41.0429688 L154.154785,41.0429688 L154.326172,41.9951172 L154.376953,41.9951172 C154.592775,41.652342 154.895343,41.3868011 155.284668,41.1984863 C155.673993,41.0101716 156.107745,40.9160156 156.585938,40.9160156 C157.423832,40.9160156 158.05436,41.1180807 158.477539,41.5222168 C158.900718,41.9263529 159.112305,42.5727495 159.112305,43.4614258 L159.112305,48 L158.058594,48 Z M164.412598,41.8618164 L162.641602,41.8618164 L162.641602,48 L161.587891,48 L161.587891,41.8618164 L160.34375,41.8618164 L160.34375,41.3857422 L161.587891,41.0048828 L161.587891,40.6176758 C161.587891,38.9080318 162.334791,38.0532227 163.828613,38.0532227 C164.196779,38.0532227 164.628415,38.1272779 165.123535,38.2753906 L164.850586,39.1196289 C164.444334,38.9884434 164.097332,38.9228516 163.80957,38.9228516 C163.411782,38.9228516 163.117677,39.0550931 162.927246,39.3195801 C162.736815,39.5840671 162.641602,40.0082979 162.641602,40.5922852 L162.641602,41.0429688 L164.412598,41.0429688 L164.412598,41.8618164 Z M168.621094,48.1269531 C167.592768,48.1269531 166.781334,47.8138052 166.186768,47.1875 C165.592201,46.5611948 165.294922,45.6915746 165.294922,44.5786133 C165.294922,43.4571884 165.571042,42.5664096 166.123291,41.90625 C166.67554,41.2460904 167.41715,40.9160156 168.348145,40.9160156 C169.219894,40.9160156 169.909665,41.2027152 170.41748,41.776123 C170.925296,42.3495309 171.179199,43.1059523 171.179199,44.0454102 L171.179199,44.7119141 L166.386719,44.7119141 C166.407878,45.5286499 166.614174,46.1485981 167.005615,46.5717773 C167.397056,46.9949565 167.948239,47.206543 168.65918,47.206543 C169.408207,47.206543 170.148759,47.049969 170.880859,46.7368164 L170.880859,47.6762695 C170.508462,47.8370776 170.15617,47.9523922 169.823975,48.0222168 C169.491779,48.0920414 169.090823,48.1269531 168.621094,48.1269531 Z M168.335449,41.7983398 C167.776853,41.7983398 167.331463,41.9803042 166.999268,42.3442383 C166.667072,42.7081724 166.471354,43.2117481 166.412109,43.8549805 L170.049316,43.8549805 C170.049316,43.1905891 169.901206,42.6817238 169.60498,42.3283691 C169.308755,41.9750145 168.885582,41.7983398 168.335449,41.7983398 Z M167.554688,39.9638672 C167.757814,39.7014961 167.976805,39.3841164 168.21167,39.0117188 C168.446534,38.6393211 168.631673,38.3155938 168.76709,38.0405273 L170.049316,38.0405273 L170.049316,38.1738281 C169.863118,38.4488946 169.585939,38.7874329 169.217773,39.1894531 C168.849608,39.5914734 168.530112,39.9025054 168.259277,40.1225586 L167.554688,40.1225586 L167.554688,39.9638672 Z M176.149414,40.9160156 C176.458335,40.9160156 176.735513,40.941406 176.980957,40.9921875 L176.834961,41.9697266 C176.547199,41.9062497 176.293295,41.8745117 176.073242,41.8745117 C175.510414,41.8745117 175.029055,42.1030251 174.62915,42.5600586 C174.229246,43.0170921 174.029297,43.5862596 174.029297,44.2675781 L174.029297,48 L172.975586,48 L172.975586,41.0429688 L173.845215,41.0429688 L173.96582,42.331543 L174.016602,42.331543 C174.274741,41.8787412 174.585773,41.5296236 174.949707,41.2841797 C175.313641,41.0387358 175.713539,40.9160156 176.149414,40.9160156 Z M181.221191,48.1269531 C180.192866,48.1269531 179.381432,47.8138052 178.786865,47.1875 C178.192298,46.5611948 177.89502,45.6915746 177.89502,44.5786133 C177.89502,43.4571884 178.17114,42.5664096 178.723389,41.90625 C179.275638,41.2460904 180.017248,40.9160156 180.948242,40.9160156 C181.819991,40.9160156 182.509763,41.2027152 183.017578,41.776123 C183.525393,42.3495309 183.779297,43.1059523 183.779297,44.0454102 L183.779297,44.7119141 L178.986816,44.7119141 C179.007975,45.5286499 179.214272,46.1485981 179.605713,46.5717773 C179.997154,46.9949565 180.548336,47.206543 181.259277,47.206543 C182.008305,47.206543 182.748857,47.049969 183.480957,46.7368164 L183.480957,47.6762695 C183.108559,47.8370776 182.756268,47.9523922 182.424072,48.0222168 C182.091877,48.0920414 181.69092,48.1269531 181.221191,48.1269531 Z M180.935547,41.7983398 C180.37695,41.7983398 179.931561,41.9803042 179.599365,42.3442383 C179.26717,42.7081724 179.071452,43.2117481 179.012207,43.8549805 L182.649414,43.8549805 C182.649414,43.1905891 182.501304,42.6817238 182.205078,42.3283691 C181.908853,41.9750145 181.48568,41.7983398 180.935547,41.7983398 Z M190.336426,48 L190.336426,43.4995117 C190.336426,42.9324516 190.207358,42.5092787 189.949219,42.2299805 C189.691079,41.9506822 189.286949,41.8110352 188.736816,41.8110352 C188.008948,41.8110352 187.47575,42.0078105 187.137207,42.4013672 C186.798664,42.7949238 186.629395,43.4444942 186.629395,44.3500977 L186.629395,48 L185.575684,48 L185.575684,41.0429688 L186.432617,41.0429688 L186.604004,41.9951172 L186.654785,41.9951172 C186.870607,41.652342 187.173175,41.3868011 187.5625,41.1984863 C187.951825,41.0101716 188.385577,40.9160156 188.86377,40.9160156 C189.701664,40.9160156 190.332192,41.1180807 190.755371,41.5222168 C191.17855,41.9263529 191.390137,42.5727495 191.390137,43.4614258 L191.390137,48 L190.336426,48 Z M196.334961,48.1269531 C195.327794,48.1269531 194.548098,47.816979 193.99585,47.1970215 C193.443601,46.577064 193.16748,45.7000382 193.16748,44.565918 C193.16748,43.4021752 193.447832,42.5029329 194.008545,41.8681641 C194.569257,41.2333953 195.367996,40.9160156 196.404785,40.9160156 C196.739097,40.9160156 197.073403,40.9519853 197.407715,41.0239258 C197.742026,41.0958662 198.004394,41.1805008 198.194824,41.277832 L197.871094,42.1728516 C197.638345,42.0797521 197.384441,42.0025231 197.109375,41.9411621 C196.834309,41.8798011 196.590984,41.8491211 196.379395,41.8491211 C194.965976,41.8491211 194.259277,42.7504793 194.259277,44.5532227 C194.259277,45.4080446 194.43172,46.0639626 194.776611,46.5209961 C195.121502,46.9780296 195.632484,47.206543 196.30957,47.206543 C196.889326,47.206543 197.483884,47.081707 198.093262,46.8320312 L198.093262,47.7651367 C197.627765,48.0063489 197.04167,48.1269531 196.334961,48.1269531 Z M202.682617,48.1269531 C201.654292,48.1269531 200.842858,47.8138052 200.248291,47.1875 C199.653724,46.5611948 199.356445,45.6915746 199.356445,44.5786133 C199.356445,43.4571884 199.632566,42.5664096 200.184814,41.90625 C200.737063,41.2460904 201.478674,40.9160156 202.409668,40.9160156 C203.281417,40.9160156 203.971189,41.2027152 204.479004,41.776123 C204.986819,42.3495309 205.240723,43.1059523 205.240723,44.0454102 L205.240723,44.7119141 L200.448242,44.7119141 C200.469401,45.5286499 200.675698,46.1485981 201.067139,46.5717773 C201.458579,46.9949565 202.009762,47.206543 202.720703,47.206543 C203.46973,47.206543 204.210283,47.049969 204.942383,46.7368164 L204.942383,47.6762695 C204.569985,47.8370776 204.217694,47.9523922 203.885498,48.0222168 C203.553302,48.0920414 203.152346,48.1269531 202.682617,48.1269531 Z M202.396973,41.7983398 C201.838376,41.7983398 201.392987,41.9803042 201.060791,42.3442383 C200.728595,42.7081724 200.532878,43.2117481 200.473633,43.8549805 L204.11084,43.8549805 C204.11084,43.1905891 203.962729,42.6817238 203.666504,42.3283691 C203.370278,41.9750145 202.947106,41.7983398 202.396973,41.7983398 Z M211.524902,46.1020508 C211.524902,46.749515 211.283694,47.2488589 210.80127,47.6000977 C210.318845,47.9513364 209.641769,48.1269531 208.77002,48.1269531 C207.847489,48.1269531 207.128095,47.9809585 206.611816,47.6889648 L206.611816,46.7114258 C206.946128,46.8806975 207.304767,47.0139969 207.687744,47.1113281 C208.070721,47.2086593 208.43994,47.2573242 208.79541,47.2573242 C209.345543,47.2573242 209.768716,47.1695159 210.064941,46.9938965 C210.361167,46.8182771 210.509277,46.5506203 210.509277,46.190918 C210.509277,45.9200833 210.391847,45.6883961 210.156982,45.4958496 C209.922118,45.3033031 209.464033,45.0758477 208.782715,44.8134766 C208.135251,44.5722644 207.67505,44.3617359 207.4021,44.1818848 C207.129149,44.0020336 206.926026,43.7978527 206.792725,43.5693359 C206.659423,43.3408192 206.592773,43.0678727 206.592773,42.7504883 C206.592773,42.1834282 206.823403,41.7359229 207.284668,41.407959 C207.745933,41.0799951 208.378577,40.9160156 209.182617,40.9160156 C209.931644,40.9160156 210.663733,41.0683579 211.378906,41.3730469 L211.004395,42.2299805 C210.306149,41.9422186 209.673505,41.7983398 209.106445,41.7983398 C208.607094,41.7983398 208.23047,41.8766268 207.976562,42.0332031 C207.722655,42.1897794 207.595703,42.4055976 207.595703,42.6806641 C207.595703,42.8668629 207.64331,43.0255527 207.738525,43.1567383 C207.833741,43.2879238 207.987141,43.4127598 208.19873,43.53125 C208.41032,43.6497402 208.816566,43.8211252 209.41748,44.0454102 C210.24268,44.3458674 210.80021,44.648436 211.090088,44.953125 C211.379966,45.257814 211.524902,45.6407855 211.524902,46.1020508 Z M214.343262,46.4892578 L214.438477,46.6352539 C214.32845,47.0584331 214.16976,47.5503715 213.962402,48.111084 C213.755045,48.6717964 213.539226,49.193357 213.314941,49.6757812 L212.521484,49.6757812 C212.635743,49.2356749 212.761637,48.6918978 212.89917,48.0444336 C213.036703,47.3969694 213.132975,46.8785827 213.187988,46.4892578 L214.343262,46.4892578 Z M25.2529297,59.8618164 L23.4819336,59.8618164 L23.4819336,66 L22.4282227,66 L22.4282227,59.8618164 L21.184082,59.8618164 L21.184082,59.3857422 L22.4282227,59.0048828 L22.4282227,58.6176758 C22.4282227,56.9080318 23.1751227,56.0532227 24.6689453,56.0532227 C25.0371112,56.0532227 25.4687475,56.1272779 25.9638672,56.2753906 L25.690918,57.1196289 C25.2846659,56.9884434 24.9376642,56.9228516 24.6499023,56.9228516 C24.2521139,56.9228516 23.9580088,57.0550931 23.7675781,57.3195801 C23.5771475,57.5840671 23.4819336,58.0082979 23.4819336,58.5922852 L23.4819336,59.0429688 L25.2529297,59.0429688 L25.2529297,59.8618164 Z M32.5273438,62.5151367 C32.5273438,63.649257 32.2417021,64.5347462 31.6704102,65.1716309 C31.0991182,65.8085156 30.3099009,66.1269531 29.3027344,66.1269531 C28.680661,66.1269531 28.1284204,65.9809585 27.6459961,65.6889648 C27.1635718,65.3969712 26.7911797,64.9780301 26.5288086,64.4321289 C26.2664375,63.8862277 26.1352539,63.2472367 26.1352539,62.5151367 C26.1352539,61.3810165 26.4187797,60.4976431 26.9858398,59.8649902 C27.5529,59.2323373 28.3400015,58.9160156 29.347168,58.9160156 C30.3204801,58.9160156 31.0938285,59.2397429 31.6672363,59.887207 C32.2406441,60.5346712 32.5273438,61.410639 32.5273438,62.5151367 Z M27.2270508,62.5151367 C27.2270508,63.403813 27.4047834,64.0808896 27.7602539,64.5463867 C28.1157244,65.0118838 28.6383429,65.2446289 29.328125,65.2446289 C30.0179071,65.2446289 30.5415835,65.0129418 30.8991699,64.5495605 C31.2567563,64.0861793 31.4355469,63.4080448 31.4355469,62.5151367 C31.4355469,61.6306922 31.2567563,60.9589053 30.8991699,60.4997559 C30.5415835,60.0406064 30.0136754,59.8110352 29.3154297,59.8110352 C28.6256476,59.8110352 28.105145,60.0374326 27.7539062,60.4902344 C27.4026675,60.9430361 27.2270508,61.6179968 27.2270508,62.5151367 Z M37.5483398,58.9160156 C37.8572607,58.9160156 38.1344389,58.941406 38.3798828,58.9921875 L38.2338867,59.9697266 C37.9461249,59.9062497 37.6922212,59.8745117 37.472168,59.8745117 C36.9093396,59.8745117 36.4279805,60.1030251 36.0280762,60.5600586 C35.6281718,61.0170921 35.4282227,61.5862596 35.4282227,62.2675781 L35.4282227,66 L34.3745117,66 L34.3745117,59.0429688 L35.2441406,59.0429688 L35.3647461,60.331543 L35.4155273,60.331543 C35.6736667,59.8787412 35.9846987,59.5296236 36.3486328,59.2841797 C36.7125669,59.0387358 37.1124653,58.9160156 37.5483398,58.9160156 Z M48.5488281,66 L48.5488281,61.4741211 C48.5488281,60.9197563 48.4303397,60.503989 48.1933594,60.2268066 C47.956379,59.9496243 47.5882186,59.8110352 47.0888672,59.8110352 C46.4329394,59.8110352 45.9484065,59.9993471 45.6352539,60.3759766 C45.3221013,60.752606 45.1655273,61.3323529 45.1655273,62.1152344 L45.1655273,66 L44.1118164,66 L44.1118164,61.4741211 C44.1118164,60.9197563 43.993328,60.503989 43.7563477,60.2268066 C43.5193673,59.9496243 43.1490911,59.8110352 42.6455078,59.8110352 C41.9853483,59.8110352 41.5018733,60.0088685 41.1950684,60.404541 C40.8882634,60.8002136 40.7348633,61.448726 40.7348633,62.3500977 L40.7348633,66 L39.6811523,66 L39.6811523,59.0429688 L40.5380859,59.0429688 L40.7094727,59.9951172 L40.7602539,59.9951172 C40.9591481,59.6565738 41.2395001,59.3920908 41.6013184,59.2016602 C41.9631366,59.0112295 42.3683246,58.9160156 42.8168945,58.9160156 C43.9044651,58.9160156 44.6153955,59.3095664 44.949707,60.0966797 L45.0004883,60.0966797 C45.2078461,59.7327456 45.5082988,59.444988 45.9018555,59.2333984 C46.2954121,59.0218088 46.7439753,58.9160156 47.2475586,58.9160156 C48.0346719,58.9160156 48.6239401,59.1180807 49.0153809,59.5222168 C49.4068216,59.9263529 49.6025391,60.5727495 49.6025391,61.4614258 L49.6025391,66 L48.5488281,66 Z M56.0517578,66 L55.8422852,65.0097656 L55.7915039,65.0097656 C55.444497,65.4456402 55.0985532,65.7408033 54.7536621,65.8952637 C54.4087711,66.0497241 53.9781927,66.1269531 53.4619141,66.1269531 C52.772132,66.1269531 52.2315286,65.9492205 51.8400879,65.59375 C51.4486471,65.2382795 51.2529297,64.7325879 51.2529297,64.0766602 C51.2529297,62.6717052 52.3764536,61.9353845 54.6235352,61.8676758 L55.8041992,61.8295898 L55.8041992,61.3979492 C55.8041992,60.8520481 55.6867688,60.4489759 55.4519043,60.1887207 C55.2170398,59.9284655 54.8414739,59.7983398 54.3251953,59.7983398 C53.7454398,59.7983398 53.0895219,59.9760724 52.3574219,60.331543 L52.0336914,59.5253906 C52.3764666,59.3391918 52.7520325,59.1931971 53.1604004,59.0874023 C53.5687683,58.9816075 53.9781881,58.9287109 54.3886719,58.9287109 C55.2181031,58.9287109 55.8327617,59.1127911 56.232666,59.480957 C56.6325704,59.8491229 56.8325195,60.4394491 56.8325195,61.2519531 L56.8325195,66 L56.0517578,66 Z M53.6713867,65.2573242 C54.3273145,65.2573242 54.8425274,65.0774758 55.217041,64.7177734 C55.5915546,64.3580711 55.7788086,63.8544954 55.7788086,63.2070312 L55.7788086,62.5786133 L54.7250977,62.6230469 C53.8872028,62.6526694 53.2831236,62.7827951 52.9128418,63.0134277 C52.54256,63.2440604 52.3574219,63.6026994 52.3574219,64.0893555 C52.3574219,64.4702167 52.4727365,64.7600902 52.7033691,64.9589844 C52.9340018,65.1578786 53.2566711,65.2573242 53.6713867,65.2573242 Z M61.2504883,65.2573242 C61.4366871,65.2573242 61.6165356,65.2435711 61.7900391,65.2160645 C61.9635425,65.1885578 62.1010737,65.1599936 62.2026367,65.1303711 L62.2026367,65.9365234 C62.0883783,65.9915367 61.9201671,66.0370278 61.697998,66.072998 C61.475829,66.1089683 61.2758798,66.1269531 61.0981445,66.1269531 C59.7524347,66.1269531 59.0795898,65.4181386 59.0795898,64.0004883 L59.0795898,59.8618164 L58.0830078,59.8618164 L58.0830078,59.3540039 L59.0795898,58.9160156 L59.5239258,57.4306641 L60.1333008,57.4306641 L60.1333008,59.0429688 L62.1518555,59.0429688 L62.1518555,59.8618164 L60.1333008,59.8618164 L60.1333008,63.9560547 C60.1333008,64.3750021 60.2327464,64.6966135 60.4316406,64.9208984 C60.6305348,65.1451834 60.9034813,65.2573242 61.2504883,65.2573242 Z M64.6464844,66 L63.5927734,66 L63.5927734,59.0429688 L64.6464844,59.0429688 L64.6464844,66 Z M63.5039062,57.1577148 C63.5039062,56.9165027 63.5631504,56.739828 63.6816406,56.6276855 C63.8001308,56.5155431 63.9482413,56.4594727 64.1259766,56.4594727 C64.2952482,56.4594727 64.4412429,56.516601 64.5639648,56.6308594 C64.6866868,56.7451178 64.7480469,56.9207345 64.7480469,57.1577148 C64.7480469,57.3946952 64.6866868,57.5713699 64.5639648,57.6877441 C64.4412429,57.8041184 64.2952482,57.8623047 64.1259766,57.8623047 C63.9482413,57.8623047 63.8001308,57.8041184 63.6816406,57.6877441 C63.5631504,57.5713699 63.5039062,57.3946952 63.5039062,57.1577148 Z M72.8857422,62.5151367 C72.8857422,63.649257 72.6001005,64.5347462 72.0288086,65.1716309 C71.4575167,65.8085156 70.6682993,66.1269531 69.6611328,66.1269531 C69.0390594,66.1269531 68.4868188,65.9809585 68.0043945,65.6889648 C67.5219702,65.3969712 67.1495781,64.9780301 66.887207,64.4321289 C66.6248359,63.8862277 66.4936523,63.2472367 66.4936523,62.5151367 C66.4936523,61.3810165 66.7771782,60.4976431 67.3442383,59.8649902 C67.9112984,59.2323373 68.6983999,58.9160156 69.7055664,58.9160156 C70.6788786,58.9160156 71.452227,59.2397429 72.0256348,59.887207 C72.5990426,60.5346712 72.8857422,61.410639 72.8857422,62.5151367 Z M67.5854492,62.5151367 C67.5854492,63.403813 67.7631818,64.0808896 68.1186523,64.5463867 C68.4741229,65.0118838 68.9967413,65.2446289 69.6865234,65.2446289 C70.3763055,65.2446289 70.8999819,65.0129418 71.2575684,64.5495605 C71.6151548,64.0861793 71.7939453,63.4080448 71.7939453,62.5151367 C71.7939453,61.6306922 71.6151548,60.9589053 71.2575684,60.4997559 C70.8999819,60.0406064 70.3720738,59.8110352 69.6738281,59.8110352 C68.984046,59.8110352 68.4635434,60.0374326 68.1123047,60.4902344 C67.761066,60.9430361 67.5854492,61.6179968 67.5854492,62.5151367 Z M79.4936523,66 L79.4936523,61.4995117 C79.4936523,60.9324516 79.3645846,60.5092787 79.1064453,60.2299805 C78.848306,59.9506822 78.4441759,59.8110352 77.894043,59.8110352 C77.1661747,59.8110352 76.632977,60.0078105 76.2944336,60.4013672 C75.9558902,60.7949238 75.7866211,61.4444942 75.7866211,62.3500977 L75.7866211,66 L74.7329102,66 L74.7329102,59.0429688 L75.5898438,59.0429688 L75.7612305,59.9951172 L75.8120117,59.9951172 C76.0278331,59.652342 76.3304017,59.3868011 76.7197266,59.1984863 C77.1090514,59.0101716 77.5428036,58.9160156 78.0209961,58.9160156 C78.8588909,58.9160156 79.4894185,59.1180807 79.9125977,59.5222168 C80.3357769,59.9263529 80.5473633,60.5727495 80.5473633,61.4614258 L80.5473633,66 L79.4936523,66 Z M87.199707,64.1020508 C87.199707,64.749515 86.9584985,65.2488589 86.4760742,65.6000977 C85.9936499,65.9513364 85.3165734,66.1269531 84.4448242,66.1269531 C83.5222936,66.1269531 82.8028997,65.9809585 82.2866211,65.6889648 L82.2866211,64.7114258 C82.6209327,64.8806975 82.9795717,65.0139969 83.3625488,65.1113281 C83.745526,65.2086593 84.1147443,65.2573242 84.4702148,65.2573242 C85.0203478,65.2573242 85.4435207,65.1695159 85.7397461,64.9938965 C86.0359715,64.8182771 86.184082,64.5506203 86.184082,64.190918 C86.184082,63.9200833 86.0666516,63.6883961 85.8317871,63.4958496 C85.5969227,63.3033031 85.138838,63.0758477 84.4575195,62.8134766 C83.8100554,62.5722644 83.3498549,62.3617359 83.0769043,62.1818848 C82.8039537,62.0020336 82.6008307,61.7978527 82.4675293,61.5693359 C82.3342278,61.3408192 82.2675781,61.0678727 82.2675781,60.7504883 C82.2675781,60.1834282 82.4982073,59.7359229 82.9594727,59.407959 C83.420738,59.0799951 84.0533814,58.9160156 84.8574219,58.9160156 C85.6064491,58.9160156 86.3385381,59.0683579 87.0537109,59.3730469 L86.6791992,60.2299805 C85.9809535,59.9422186 85.3483101,59.7983398 84.78125,59.7983398 C84.2818985,59.7983398 83.9052747,59.8766268 83.6513672,60.0332031 C83.3974597,60.1897794 83.2705078,60.4055976 83.2705078,60.6806641 C83.2705078,60.8668629 83.3181148,61.0255527 83.4133301,61.1567383 C83.5085454,61.2879238 83.6619456,61.4127598 83.8735352,61.53125 C84.0851248,61.6497402 84.4913707,61.8211252 85.0922852,62.0454102 C85.9174846,62.3458674 86.4750148,62.648436 86.7648926,62.953125 C87.0547703,63.257814 87.199707,63.6407855 87.199707,64.1020508 Z M88.7612305,65.3271484 C88.7612305,65.0436184 88.8257643,64.8288582 88.954834,64.6828613 C89.0839036,64.5368645 89.2690418,64.4638672 89.5102539,64.4638672 C89.7556978,64.4638672 89.9471836,64.5368645 90.0847168,64.6828613 C90.22225,64.8288582 90.2910156,65.0436184 90.2910156,65.3271484 C90.2910156,65.6022149 90.2211921,65.8138013 90.081543,65.9619141 C89.9418938,66.1100268 89.751466,66.184082 89.5102539,66.184082 C89.2944325,66.184082 89.115642,66.1174323 88.973877,65.9841309 C88.8321119,65.8508294 88.7612305,65.6318375 88.7612305,65.3271484 Z M92.1254883,65.3271484 C92.1254883,65.0436184 92.1900221,64.8288582 92.3190918,64.6828613 C92.4481615,64.5368645 92.6332996,64.4638672 92.8745117,64.4638672 C93.1199557,64.4638672 93.3114414,64.5368645 93.4489746,64.6828613 C93.5865078,64.8288582 93.6552734,65.0436184 93.6552734,65.3271484 C93.6552734,65.6022149 93.5854499,65.8138013 93.4458008,65.9619141 C93.3061516,66.1100268 93.1157239,66.184082 92.8745117,66.184082 C92.6586903,66.184082 92.4798998,66.1174323 92.3381348,65.9841309 C92.1963697,65.8508294 92.1254883,65.6318375 92.1254883,65.3271484 Z M95.4960938,65.3271484 C95.4960938,65.0436184 95.5606276,64.8288582 95.6896973,64.6828613 C95.8187669,64.5368645 96.003905,64.4638672 96.2451172,64.4638672 C96.4905611,64.4638672 96.6820468,64.5368645 96.8195801,64.6828613 C96.9571133,64.8288582 97.0258789,65.0436184 97.0258789,65.3271484 C97.0258789,65.6022149 96.9560554,65.8138013 96.8164062,65.9619141 C96.6767571,66.1100268 96.4863293,66.184082 96.2451172,66.184082 C96.0292958,66.184082 95.8505053,66.1174323 95.7087402,65.9841309 C95.5669752,65.8508294 95.4960938,65.6318375 95.4960938,65.3271484 Z M108.178711,59.0429688 L108.178711,59.7094727 L106.890137,59.8618164 C107.008627,60.0099291 107.11442,60.2035307 107.20752,60.442627 C107.300619,60.6817232 107.347168,60.9514959 107.347168,61.2519531 C107.347168,61.9332716 107.114423,62.4770488 106.648926,62.8833008 C106.183429,63.2895528 105.544438,63.4926758 104.731934,63.4926758 C104.524576,63.4926758 104.329916,63.4757489 104.147949,63.4418945 C103.699379,63.6788749 103.475098,63.9772117 103.475098,64.3369141 C103.475098,64.5273447 103.553385,64.6680497 103.709961,64.7590332 C103.866537,64.8500167 104.135252,64.8955078 104.516113,64.8955078 L105.747559,64.8955078 C106.500818,64.8955078 107.079506,65.0541976 107.483643,65.371582 C107.887779,65.6889664 108.089844,66.1502248 108.089844,66.7553711 C108.089844,67.5255572 107.780928,68.1127096 107.163086,68.5168457 C106.545244,68.9209818 105.643886,69.1230469 104.458984,69.1230469 C103.549149,69.1230469 102.84774,68.9537777 102.354736,68.6152344 C101.861733,68.276691 101.615234,67.7985057 101.615234,67.1806641 C101.615234,66.7574849 101.75065,66.3914403 102.021484,66.0825195 C102.292319,65.7735987 102.673175,65.5641282 103.164062,65.4541016 C102.986327,65.3736975 102.837159,65.2488615 102.716553,65.0795898 C102.595947,64.9103182 102.535645,64.7135428 102.535645,64.4892578 C102.535645,64.2353503 102.603352,64.0131845 102.73877,63.8227539 C102.874187,63.6323233 103.087889,63.4482431 103.379883,63.2705078 C103.02018,63.1223951 102.727133,62.8706072 102.500732,62.5151367 C102.274332,62.1596662 102.161133,61.7534203 102.161133,61.2963867 C102.161133,60.5346642 102.389646,59.9475118 102.84668,59.5349121 C103.303713,59.1223124 103.951168,58.9160156 104.789062,58.9160156 C105.152997,58.9160156 105.480956,58.9583329 105.772949,59.0429688 L108.178711,59.0429688 Z M102.630859,67.1679688 C102.630859,67.5445982 102.789549,67.8302399 103.106934,68.0249023 C103.424318,68.2195648 103.879229,68.3168945 104.47168,68.3168945 C105.356124,68.3168945 106.010984,68.184653 106.436279,67.920166 C106.861574,67.655679 107.074219,67.29704 107.074219,66.8442383 C107.074219,66.4676088 106.957846,66.2062996 106.725098,66.0603027 C106.492349,65.9143059 106.054365,65.8413086 105.411133,65.8413086 L104.147949,65.8413086 C103.669757,65.8413086 103.297365,65.9555653 103.030762,66.184082 C102.764159,66.4125988 102.630859,66.7405578 102.630859,67.1679688 Z M103.202148,61.2709961 C103.202148,61.7576522 103.33968,62.1258126 103.614746,62.3754883 C103.889813,62.625164 104.272784,62.75 104.763672,62.75 C105.791997,62.75 106.306152,62.250656 106.306152,61.2519531 C106.306152,60.2067005 105.78565,59.684082 104.744629,59.684082 C104.249509,59.684082 103.868654,59.8173815 103.602051,60.0839844 C103.335448,60.3505873 103.202148,60.7462539 103.202148,61.2709961 Z M112.780762,58.9160156 C113.089683,58.9160156 113.366861,58.941406 113.612305,58.9921875 L113.466309,59.9697266 C113.178547,59.9062497 112.924643,59.8745117 112.70459,59.8745117 C112.141762,59.8745117 111.660402,60.1030251 111.260498,60.5600586 C110.860594,61.0170921 110.660645,61.5862596 110.660645,62.2675781 L110.660645,66 L109.606934,66 L109.606934,59.0429688 L110.476562,59.0429688 L110.597168,60.331543 L110.647949,60.331543 C110.906089,59.8787412 111.217121,59.5296236 111.581055,59.2841797 C111.944989,59.0387358 112.344887,58.9160156 112.780762,58.9160156 Z M119.191895,66 L118.982422,65.0097656 L118.931641,65.0097656 C118.584634,65.4456402 118.23869,65.7408033 117.893799,65.8952637 C117.548908,66.0497241 117.118329,66.1269531 116.602051,66.1269531 C115.912269,66.1269531 115.371665,65.9492205 114.980225,65.59375 C114.588784,65.2382795 114.393066,64.7325879 114.393066,64.0766602 C114.393066,62.6717052 115.51659,61.9353845 117.763672,61.8676758 L118.944336,61.8295898 L118.944336,61.3979492 C118.944336,60.8520481 118.826905,60.4489759 118.592041,60.1887207 C118.357177,59.9284655 117.981611,59.7983398 117.465332,59.7983398 C116.885577,59.7983398 116.229659,59.9760724 115.497559,60.331543 L115.173828,59.5253906 C115.516603,59.3391918 115.892169,59.1931971 116.300537,59.0874023 C116.708905,58.9816075 117.118325,58.9287109 117.528809,58.9287109 C118.35824,58.9287109 118.972898,59.1127911 119.372803,59.480957 C119.772707,59.8491229 119.972656,60.4394491 119.972656,61.2519531 L119.972656,66 L119.191895,66 Z M116.811523,65.2573242 C117.467451,65.2573242 117.982664,65.0774758 118.357178,64.7177734 C118.731691,64.3580711 118.918945,63.8544954 118.918945,63.2070312 L118.918945,62.5786133 L117.865234,62.6230469 C117.02734,62.6526694 116.42326,62.7827951 116.052979,63.0134277 C115.682697,63.2440604 115.497559,63.6026994 115.497559,64.0893555 C115.497559,64.4702167 115.612873,64.7600902 115.843506,64.9589844 C116.074139,65.1578786 116.396808,65.2573242 116.811523,65.2573242 Z M115.243652,57.9765625 C115.78109,57.4010388 116.157714,56.9778659 116.373535,56.7070312 C116.589357,56.4361966 116.745931,56.2140308 116.843262,56.0405273 L117.896973,56.0405273 C117.990072,56.2182626 118.151936,56.4478339 118.382568,56.729248 C118.613201,57.0106622 118.992999,57.4264295 119.521973,57.9765625 L119.521973,58.1225586 L118.766602,58.1225586 C118.394204,57.88981 117.926598,57.4962593 117.36377,56.9418945 C116.788246,57.5089547 116.324872,57.9025054 115.973633,58.1225586 L115.243652,58.1225586 L115.243652,57.9765625 Z M124.923828,66.1269531 C123.916662,66.1269531 123.136966,65.816979 122.584717,65.1970215 C122.032468,64.577064 121.756348,63.7000382 121.756348,62.565918 C121.756348,61.4021752 122.0367,60.5029329 122.597412,59.8681641 C123.158125,59.2333953 123.956863,58.9160156 124.993652,58.9160156 C125.327964,58.9160156 125.66227,58.9519853 125.996582,59.0239258 C126.330894,59.0958662 126.593261,59.1805008 126.783691,59.277832 L126.459961,60.1728516 C126.227212,60.0797521 125.973309,60.0025231 125.698242,59.9411621 C125.423176,59.8798011 125.179851,59.8491211 124.968262,59.8491211 C123.554843,59.8491211 122.848145,60.7504793 122.848145,62.5532227 C122.848145,63.4080446 123.020587,64.0639626 123.365479,64.5209961 C123.71037,64.9780296 124.221351,65.206543 124.898438,65.206543 C125.478193,65.206543 126.072751,65.081707 126.682129,64.8320312 L126.682129,65.7651367 C126.216632,66.0063489 125.630537,66.1269531 124.923828,66.1269531 Z M131.271484,66.1269531 C130.243159,66.1269531 129.431725,65.8138052 128.837158,65.1875 C128.242591,64.5611948 127.945312,63.6915746 127.945312,62.5786133 C127.945312,61.4571884 128.221433,60.5664096 128.773682,59.90625 C129.32593,59.2460904 130.067541,58.9160156 130.998535,58.9160156 C131.870284,58.9160156 132.560056,59.2027152 133.067871,59.776123 C133.575686,60.3495309 133.82959,61.1059523 133.82959,62.0454102 L133.82959,62.7119141 L129.037109,62.7119141 C129.058268,63.5286499 129.264565,64.1485981 129.656006,64.5717773 C130.047447,64.9949565 130.598629,65.206543 131.30957,65.206543 C132.058597,65.206543 132.79915,65.049969 133.53125,64.7368164 L133.53125,65.6762695 C133.158852,65.8370776 132.806561,65.9523922 132.474365,66.0222168 C132.14217,66.0920414 131.741213,66.1269531 131.271484,66.1269531 Z M130.98584,59.7983398 C130.427243,59.7983398 129.981854,59.9803042 129.649658,60.3442383 C129.317463,60.7081724 129.121745,61.2117481 129.0625,61.8549805 L132.699707,61.8549805 C132.699707,61.1905891 132.551597,60.6817238 132.255371,60.3283691 C131.959146,59.9750145 131.535973,59.7983398 130.98584,59.7983398 Z M143.28125,66 L143.071777,65.0097656 L143.020996,65.0097656 C142.673989,65.4456402 142.328045,65.7408033 141.983154,65.8952637 C141.638263,66.0497241 141.207685,66.1269531 140.691406,66.1269531 C140.001624,66.1269531 139.461021,65.9492205 139.06958,65.59375 C138.678139,65.2382795 138.482422,64.7325879 138.482422,64.0766602 C138.482422,62.6717052 139.605946,61.9353845 141.853027,61.8676758 L143.033691,61.8295898 L143.033691,61.3979492 C143.033691,60.8520481 142.916261,60.4489759 142.681396,60.1887207 C142.446532,59.9284655 142.070966,59.7983398 141.554688,59.7983398 C140.974932,59.7983398 140.319014,59.9760724 139.586914,60.331543 L139.263184,59.5253906 C139.605959,59.3391918 139.981525,59.1931971 140.389893,59.0874023 C140.798261,58.9816075 141.20768,58.9287109 141.618164,58.9287109 C142.447595,58.9287109 143.062254,59.1127911 143.462158,59.480957 C143.862063,59.8491229 144.062012,60.4394491 144.062012,61.2519531 L144.062012,66 L143.28125,66 Z M140.900879,65.2573242 C141.556807,65.2573242 142.07202,65.0774758 142.446533,64.7177734 C142.821047,64.3580711 143.008301,63.8544954 143.008301,63.2070312 L143.008301,62.5786133 L141.95459,62.6230469 C141.116695,62.6526694 140.512616,62.7827951 140.142334,63.0134277 C139.772052,63.2440604 139.586914,63.6026994 139.586914,64.0893555 C139.586914,64.4702167 139.702229,64.7600902 139.932861,64.9589844 C140.163494,65.1578786 140.486163,65.2573242 140.900879,65.2573242 Z M142.151367,58.1225586 L141.453125,58.1225586 C141.178059,57.9025054 140.852215,57.5893575 140.475586,57.1831055 C140.098956,56.7768534 139.82601,56.440431 139.656738,56.1738281 L139.656738,56.0405273 L140.945312,56.0405273 C141.08073,56.332521 141.269042,56.6700013 141.510254,57.0529785 C141.751466,57.4359557 141.965168,57.7395822 142.151367,57.9638672 L142.151367,58.1225586 Z M150.663574,66 L149.609863,66 L149.609863,56.1230469 L150.663574,56.1230469 L150.663574,66 Z M153.742188,56.7197266 L153.837402,56.859375 C153.727376,57.2825542 153.568686,57.7744926 153.361328,58.3352051 C153.15397,58.8959175 152.938152,59.4174781 152.713867,59.8999023 L151.939453,59.8999023 C152.235679,58.6938416 152.451497,57.6337936 152.586914,56.7197266 L153.742188,56.7197266 Z M158.045898,66.1269531 C157.017573,66.1269531 156.206139,65.8138052 155.611572,65.1875 C155.017005,64.5611948 154.719727,63.6915746 154.719727,62.5786133 C154.719727,61.4571884 154.995847,60.5664096 155.548096,59.90625 C156.100345,59.2460904 156.841955,58.9160156 157.772949,58.9160156 C158.644698,58.9160156 159.33447,59.2027152 159.842285,59.776123 C160.3501,60.3495309 160.604004,61.1059523 160.604004,62.0454102 L160.604004,62.7119141 L155.811523,62.7119141 C155.832682,63.5286499 156.038979,64.1485981 156.43042,64.5717773 C156.821861,64.9949565 157.373043,65.206543 158.083984,65.206543 C158.833012,65.206543 159.573564,65.049969 160.305664,64.7368164 L160.305664,65.6762695 C159.933266,65.8370776 159.580975,65.9523922 159.248779,66.0222168 C158.916584,66.0920414 158.515627,66.1269531 158.045898,66.1269531 Z M157.760254,59.7983398 C157.201657,59.7983398 156.756268,59.9803042 156.424072,60.3442383 C156.091877,60.7081724 155.896159,61.2117481 155.836914,61.8549805 L159.474121,61.8549805 C159.474121,61.1905891 159.326011,60.6817238 159.029785,60.3283691 C158.73356,59.9750145 158.310387,59.7983398 157.760254,59.7983398 Z M167.161133,66 L167.161133,61.4995117 C167.161133,60.9324516 167.032065,60.5092787 166.773926,60.2299805 C166.515786,59.9506822 166.111656,59.8110352 165.561523,59.8110352 C164.833655,59.8110352 164.300457,60.0078105 163.961914,60.4013672 C163.623371,60.7949238 163.454102,61.4444942 163.454102,62.3500977 L163.454102,66 L162.400391,66 L162.400391,59.0429688 L163.257324,59.0429688 L163.428711,59.9951172 L163.479492,59.9951172 C163.695314,59.652342 163.997882,59.3868011 164.387207,59.1984863 C164.776532,59.0101716 165.210284,58.9160156 165.688477,58.9160156 C166.526371,58.9160156 167.156899,59.1180807 167.580078,59.5222168 C168.003257,59.9263529 168.214844,60.5727495 168.214844,61.4614258 L168.214844,66 L167.161133,66 Z M171.902832,66 L169.262207,59.0429688 L170.39209,59.0429688 L171.890137,63.1689453 C172.22868,64.1337939 172.427571,64.7600897 172.486816,65.0478516 L172.537598,65.0478516 C172.584147,64.8235666 172.7312,64.3591344 172.97876,63.654541 C173.22632,62.9499476 173.781734,61.4127723 174.64502,59.0429688 L175.774902,59.0429688 L173.134277,66 L171.902832,66 Z M182.896973,62.5151367 C182.896973,63.649257 182.611331,64.5347462 182.040039,65.1716309 C181.468747,65.8085156 180.67953,66.1269531 179.672363,66.1269531 C179.05029,66.1269531 178.498049,65.9809585 178.015625,65.6889648 C177.533201,65.3969712 177.160809,64.9780301 176.898438,64.4321289 C176.636066,63.8862277 176.504883,63.2472367 176.504883,62.5151367 C176.504883,61.3810165 176.788409,60.4976431 177.355469,59.8649902 C177.922529,59.2323373 178.70963,58.9160156 179.716797,58.9160156 C180.690109,58.9160156 181.463457,59.2397429 182.036865,59.887207 C182.610273,60.5346712 182.896973,61.410639 182.896973,62.5151367 Z M177.59668,62.5151367 C177.59668,63.403813 177.774412,64.0808896 178.129883,64.5463867 C178.485353,65.0118838 179.007972,65.2446289 179.697754,65.2446289 C180.387536,65.2446289 180.911212,65.0129418 181.268799,64.5495605 C181.626385,64.0861793 181.805176,63.4080448 181.805176,62.5151367 C181.805176,61.6306922 181.626385,60.9589053 181.268799,60.4997559 C180.911212,60.0406064 180.383304,59.8110352 179.685059,59.8110352 C178.995276,59.8110352 178.474774,60.0374326 178.123535,60.4902344 C177.772296,60.9430361 177.59668,61.6179968 177.59668,62.5151367 Z M185.797852,66 L184.744141,66 L184.744141,59.0429688 L185.797852,59.0429688 L185.797852,66 Z M184.655273,57.1577148 C184.655273,56.9165027 184.714518,56.739828 184.833008,56.6276855 C184.951498,56.5155431 185.099608,56.4594727 185.277344,56.4594727 C185.446615,56.4594727 185.59261,56.516601 185.715332,56.6308594 C185.838054,56.7451178 185.899414,56.9207345 185.899414,57.1577148 C185.899414,57.3946952 185.838054,57.5713699 185.715332,57.6877441 C185.59261,57.8041184 185.446615,57.8623047 185.277344,57.8623047 C185.099608,57.8623047 184.951498,57.8041184 184.833008,57.6877441 C184.714518,57.5713699 184.655273,57.3946952 184.655273,57.1577148 Z M196.144531,65.0668945 L196.087402,65.0668945 C195.600746,65.7736038 194.872889,66.1269531 193.903809,66.1269531 C192.993973,66.1269531 192.286217,65.8159211 191.780518,65.1938477 C191.274818,64.5717742 191.021973,63.687343 191.021973,62.5405273 C191.021973,61.3937117 191.275876,60.5029329 191.783691,59.8681641 C192.291506,59.2333953 192.998205,58.9160156 193.903809,58.9160156 C194.847498,58.9160156 195.571124,59.2587856 196.074707,59.9443359 L196.157227,59.9443359 L196.112793,59.4428711 L196.087402,58.9541016 L196.087402,56.1230469 L197.141113,56.1230469 L197.141113,66 L196.28418,66 L196.144531,65.0668945 Z M194.037109,65.2446289 C194.756514,65.2446289 195.278075,65.0489115 195.601807,64.6574707 C195.925539,64.2660299 196.087402,63.6344445 196.087402,62.7626953 L196.087402,62.5405273 C196.087402,61.5545198 195.923423,60.8509949 195.595459,60.4299316 C195.267495,60.0088683 194.743819,59.7983398 194.024414,59.7983398 C193.406572,59.7983398 192.933677,60.0384904 192.605713,60.5187988 C192.277749,60.9991072 192.11377,61.6772417 192.11377,62.5532227 C192.11377,63.441899 192.276691,64.1126279 192.602539,64.5654297 C192.928387,65.0182314 193.406572,65.2446289 194.037109,65.2446289 Z M202.314453,66.1269531 C201.286128,66.1269531 200.474694,65.8138052 199.880127,65.1875 C199.28556,64.5611948 198.988281,63.6915746 198.988281,62.5786133 C198.988281,61.4571884 199.264402,60.5664096 199.81665,59.90625 C200.368899,59.2460904 201.11051,58.9160156 202.041504,58.9160156 C202.913253,58.9160156 203.603025,59.2027152 204.11084,59.776123 C204.618655,60.3495309 204.872559,61.1059523 204.872559,62.0454102 L204.872559,62.7119141 L200.080078,62.7119141 C200.101237,63.5286499 200.307534,64.1485981 200.698975,64.5717773 C201.090415,64.9949565 201.641598,65.206543 202.352539,65.206543 C203.101566,65.206543 203.842119,65.049969 204.574219,64.7368164 L204.574219,65.6762695 C204.201821,65.8370776 203.84953,65.9523922 203.517334,66.0222168 C203.185138,66.0920414 202.784182,66.1269531 202.314453,66.1269531 Z M202.028809,59.7983398 C201.470212,59.7983398 201.024823,59.9803042 200.692627,60.3442383 C200.360431,60.7081724 200.164714,61.2117481 200.105469,61.8549805 L203.742676,61.8549805 C203.742676,61.1905891 203.594565,60.6817238 203.29834,60.3283691 C203.002114,59.9750145 202.578942,59.7983398 202.028809,59.7983398 Z M26.6049805,82.1020508 C26.6049805,82.749515 26.3637719,83.2488589 25.8813477,83.6000977 C25.3989234,83.9513364 24.7218468,84.1269531 23.8500977,84.1269531 C22.927567,84.1269531 22.2081732,83.9809585 21.6918945,83.6889648 L21.6918945,82.7114258 C22.0262061,82.8806975 22.3848451,83.0139969 22.7678223,83.1113281 C23.1507994,83.2086593 23.5200178,83.2573242 23.8754883,83.2573242 C24.4256212,83.2573242 24.8487941,83.1695159 25.1450195,82.9938965 C25.441245,82.8182771 25.5893555,82.5506203 25.5893555,82.190918 C25.5893555,81.9200833 25.471925,81.6883961 25.2370605,81.4958496 C25.0021961,81.3033031 24.5441115,81.0758477 23.862793,80.8134766 C23.2153288,80.5722644 22.7551283,80.3617359 22.4821777,80.1818848 C22.2092272,80.0020336 22.0061042,79.7978527 21.8728027,79.5693359 C21.7395013,79.3408192 21.6728516,79.0678727 21.6728516,78.7504883 C21.6728516,78.1834282 21.9034808,77.7359229 22.3647461,77.407959 C22.8260114,77.0799951 23.4586548,76.9160156 24.2626953,76.9160156 C25.0117225,76.9160156 25.7438115,77.0683579 26.4589844,77.3730469 L26.0844727,78.2299805 C25.386227,77.9422186 24.7535836,77.7983398 24.1865234,77.7983398 C23.687172,77.7983398 23.3105481,77.8766268 23.0566406,78.0332031 C22.8027331,78.1897794 22.6757812,78.4055976 22.6757812,78.6806641 C22.6757812,78.8668629 22.7233882,79.0255527 22.8186035,79.1567383 C22.9138188,79.2879238 23.067219,79.4127598 23.2788086,79.53125 C23.4903982,79.6497402 23.8966441,79.8211252 24.4975586,80.0454102 C25.322758,80.3458674 25.8802883,80.648436 26.170166,80.953125 C26.4600438,81.257814 26.6049805,81.6407855 26.6049805,82.1020508 Z M29.3725586,84 L28.3188477,84 L28.3188477,77.0429688 L29.3725586,77.0429688 L29.3725586,84 Z M28.2299805,75.1577148 C28.2299805,74.9165027 28.2892247,74.739828 28.4077148,74.6276855 C28.526205,74.5155431 28.6743155,74.4594727 28.8520508,74.4594727 C29.0213225,74.4594727 29.1673171,74.516601 29.2900391,74.6308594 C29.412761,74.7451178 29.4741211,74.9207345 29.4741211,75.1577148 C29.4741211,75.3946952 29.412761,75.5713699 29.2900391,75.6877441 C29.1673171,75.8041184 29.0213225,75.8623047 28.8520508,75.8623047 C28.6743155,75.8623047 28.526205,75.8041184 28.4077148,75.6877441 C28.2892247,75.5713699 28.2299805,75.3946952 28.2299805,75.1577148 Z M40.4746094,84 L40.4746094,79.4741211 C40.4746094,78.9197563 40.356121,78.503989 40.1191406,78.2268066 C39.8821603,77.9496243 39.5139999,77.8110352 39.0146484,77.8110352 C38.3587207,77.8110352 37.8741878,77.9993471 37.5610352,78.3759766 C37.2478825,78.752606 37.0913086,79.3323529 37.0913086,80.1152344 L37.0913086,84 L36.0375977,84 L36.0375977,79.4741211 C36.0375977,78.9197563 35.9191093,78.503989 35.6821289,78.2268066 C35.4451486,77.9496243 35.0748723,77.8110352 34.5712891,77.8110352 C33.9111295,77.8110352 33.4276545,78.0088685 33.1208496,78.404541 C32.8140447,78.8002136 32.6606445,79.448726 32.6606445,80.3500977 L32.6606445,84 L31.6069336,84 L31.6069336,77.0429688 L32.4638672,77.0429688 L32.6352539,77.9951172 L32.6860352,77.9951172 C32.8849294,77.6565738 33.1652814,77.3920908 33.5270996,77.2016602 C33.8889178,77.0112295 34.2941058,76.9160156 34.7426758,76.9160156 C35.8302463,76.9160156 36.5411767,77.3095664 36.8754883,78.0966797 L36.9262695,78.0966797 C37.1336273,77.7327456 37.4340801,77.444988 37.8276367,77.2333984 C38.2211934,77.0218088 38.6697566,76.9160156 39.1733398,76.9160156 C39.9604532,76.9160156 40.5497214,77.1180807 40.9411621,77.5222168 C41.3326029,77.9263529 41.5283203,78.5727495 41.5283203,79.4614258 L41.5283203,84 L40.4746094,84 Z M46.9365234,84.1269531 C46.4837217,84.1269531 46.0700702,84.0433765 45.6955566,83.8762207 C45.321043,83.7090649 45.0068372,83.4519874 44.7529297,83.1049805 L44.6767578,83.1049805 C44.7275393,83.5112325 44.7529297,83.8963198 44.7529297,84.2602539 L44.7529297,87.1230469 L43.6992188,87.1230469 L43.6992188,77.0429688 L44.5561523,77.0429688 L44.7021484,77.9951172 L44.7529297,77.9951172 C45.0237644,77.6142559 45.3390281,77.3391936 45.6987305,77.1699219 C46.0584328,77.0006502 46.4710263,76.9160156 46.9365234,76.9160156 C47.8590541,76.9160156 48.5710424,77.2312794 49.0725098,77.8618164 C49.5739771,78.4923534 49.824707,79.3767847 49.824707,80.5151367 C49.824707,81.6577206 49.5697454,82.5453256 49.0598145,83.1779785 C48.5498835,83.8106314 47.8421269,84.1269531 46.9365234,84.1269531 Z M46.7841797,77.8110352 C46.0732386,77.8110352 45.5590836,78.0078105 45.2416992,78.4013672 C44.9243148,78.7949238 44.7613933,79.4212197 44.7529297,80.2802734 L44.7529297,80.5151367 C44.7529297,81.4926807 44.9158512,82.1919738 45.2416992,82.6130371 C45.5675472,83.0341004 46.0901657,83.2446289 46.8095703,83.2446289 C47.4104848,83.2446289 47.8812646,83.0013045 48.2219238,82.5146484 C48.5625831,82.0279924 48.7329102,81.3572634 48.7329102,80.5024414 C48.7329102,79.634924 48.5625831,78.9694847 48.2219238,78.5061035 C47.8812646,78.0427223 47.4020213,77.8110352 46.7841797,77.8110352 Z M52.7192383,84 L51.6655273,84 L51.6655273,74.1230469 L52.7192383,74.1230469 L52.7192383,84 Z M57.8925781,84.1269531 C56.8642527,84.1269531 56.0528187,83.8138052 55.458252,83.1875 C54.8636852,82.5611948 54.5664062,81.6915746 54.5664062,80.5786133 C54.5664062,79.4571884 54.8425265,78.5664096 55.3947754,77.90625 C55.9470242,77.2460904 56.6886347,76.9160156 57.6196289,76.9160156 C58.4913781,76.9160156 59.1811498,77.2027152 59.6889648,77.776123 C60.1967799,78.3495309 60.4506836,79.1059523 60.4506836,80.0454102 L60.4506836,80.7119141 L55.6582031,80.7119141 C55.6793621,81.5286499 55.8856589,82.1485981 56.2770996,82.5717773 C56.6685404,82.9949565 57.219723,83.206543 57.9306641,83.206543 C58.6796912,83.206543 59.4202437,83.049969 60.1523438,82.7368164 L60.1523438,83.6762695 C59.7799461,83.8370776 59.4276547,83.9523922 59.095459,84.0222168 C58.7632633,84.0920414 58.362307,84.1269531 57.8925781,84.1269531 Z M57.6069336,77.7983398 C57.0483371,77.7983398 56.6029476,77.9803042 56.270752,78.3442383 C55.9385563,78.7081724 55.7428388,79.2117481 55.6835938,79.8549805 L59.3208008,79.8549805 C59.3208008,79.1905891 59.1726903,78.6817238 58.8764648,78.3283691 C58.5802394,77.9750145 58.1570666,77.7983398 57.6069336,77.7983398 Z M66.7348633,82.1020508 C66.7348633,82.749515 66.4936548,83.2488589 66.0112305,83.6000977 C65.5288062,83.9513364 64.8517296,84.1269531 63.9799805,84.1269531 C63.0574498,84.1269531 62.338056,83.9809585 61.8217773,83.6889648 L61.8217773,82.7114258 C62.1560889,82.8806975 62.5147279,83.0139969 62.8977051,83.1113281 C63.2806823,83.2086593 63.6499006,83.2573242 64.0053711,83.2573242 C64.5555041,83.2573242 64.9786769,83.1695159 65.2749023,82.9938965 C65.5711278,82.8182771 65.7192383,82.5506203 65.7192383,82.190918 C65.7192383,81.9200833 65.6018078,81.6883961 65.3669434,81.4958496 C65.1320789,81.3033031 64.6739943,81.0758477 63.9926758,80.8134766 C63.3452116,80.5722644 62.8850111,80.3617359 62.6120605,80.1818848 C62.33911,80.0020336 62.135987,79.7978527 62.0026855,79.5693359 C61.8693841,79.3408192 61.8027344,79.0678727 61.8027344,78.7504883 C61.8027344,78.1834282 62.0333636,77.7359229 62.4946289,77.407959 C62.9558942,77.0799951 63.5885376,76.9160156 64.3925781,76.9160156 C65.1416053,76.9160156 65.8736943,77.0683579 66.5888672,77.3730469 L66.2143555,78.2299805 C65.5161098,77.9422186 64.8834664,77.7983398 64.3164062,77.7983398 C63.8170548,77.7983398 63.440431,77.8766268 63.1865234,78.0332031 C62.9326159,78.1897794 62.8056641,78.4055976 62.8056641,78.6806641 C62.8056641,78.8668629 62.853271,79.0255527 62.9484863,79.1567383 C63.0437016,79.2879238 63.1971018,79.4127598 63.4086914,79.53125 C63.620281,79.6497402 64.0265269,79.8211252 64.6274414,80.0454102 C65.4526408,80.3458674 66.0101711,80.648436 66.3000488,80.953125 C66.5899266,81.257814 66.7348633,81.6407855 66.7348633,82.1020508 Z M74.0727539,83.2573242 C74.2589528,83.2573242 74.4388012,83.2435711 74.6123047,83.2160645 C74.7858082,83.1885578 74.9233393,83.1599936 75.0249023,83.1303711 L75.0249023,83.9365234 C74.910644,83.9915367 74.7424328,84.0370278 74.5202637,84.072998 C74.2980946,84.1089683 74.0981454,84.1269531 73.9204102,84.1269531 C72.5747003,84.1269531 71.9018555,83.4181386 71.9018555,82.0004883 L71.9018555,77.8618164 L70.9052734,77.8618164 L70.9052734,77.3540039 L71.9018555,76.9160156 L72.3461914,75.4306641 L72.9555664,75.4306641 L72.9555664,77.0429688 L74.9741211,77.0429688 L74.9741211,77.8618164 L72.9555664,77.8618164 L72.9555664,81.9560547 C72.9555664,82.3750021 73.055012,82.6966135 73.2539062,82.9208984 C73.4528005,83.1451834 73.725747,83.2573242 74.0727539,83.2573242 Z M79.3540039,84.1269531 C78.3256785,84.1269531 77.5142445,83.8138052 76.9196777,83.1875 C76.325111,82.5611948 76.027832,81.6915746 76.027832,80.5786133 C76.027832,79.4571884 76.3039523,78.5664096 76.8562012,77.90625 C77.40845,77.2460904 78.1500604,76.9160156 79.0810547,76.9160156 C79.9528038,76.9160156 80.6425756,77.2027152 81.1503906,77.776123 C81.6582057,78.3495309 81.9121094,79.1059523 81.9121094,80.0454102 L81.9121094,80.7119141 L77.1196289,80.7119141 C77.1407879,81.5286499 77.3470846,82.1485981 77.7385254,82.5717773 C78.1299661,82.9949565 78.6811488,83.206543 79.3920898,83.206543 C80.141117,83.206543 80.8816695,83.049969 81.6137695,82.7368164 L81.6137695,83.6762695 C81.2413718,83.8370776 80.8890804,83.9523922 80.5568848,84.0222168 C80.2246891,84.0920414 79.8237328,84.1269531 79.3540039,84.1269531 Z M79.0683594,77.7983398 C78.5097628,77.7983398 78.0643734,77.9803042 77.7321777,78.3442383 C77.3999821,78.7081724 77.2042646,79.2117481 77.1450195,79.8549805 L80.7822266,79.8549805 C80.7822266,79.1905891 80.6341161,78.6817238 80.3378906,78.3283691 C80.0416652,77.9750145 79.6184923,77.7983398 79.0683594,77.7983398 Z M85.3842773,80.4389648 L82.9658203,77.0429688 L84.1655273,77.0429688 L86,79.7089844 L87.828125,77.0429688 L89.0151367,77.0429688 L86.5966797,80.4389648 L89.1420898,84 L87.9487305,84 L86,81.1816406 L84.0322266,84 L82.8388672,84 L85.3842773,80.4389648 Z M92.7666016,83.2573242 C92.9528004,83.2573242 93.1326489,83.2435711 93.3061523,83.2160645 C93.4796558,83.1885578 93.617187,83.1599936 93.71875,83.1303711 L93.71875,83.9365234 C93.6044916,83.9915367 93.4362804,84.0370278 93.2141113,84.072998 C92.9919422,84.1089683 92.7919931,84.1269531 92.6142578,84.1269531 C91.268548,84.1269531 90.5957031,83.4181386 90.5957031,82.0004883 L90.5957031,77.8618164 L89.5991211,77.8618164 L89.5991211,77.3540039 L90.5957031,76.9160156 L91.0400391,75.4306641 L91.6494141,75.4306641 L91.6494141,77.0429688 L93.6679688,77.0429688 L93.6679688,77.8618164 L91.6494141,77.8618164 L91.6494141,81.9560547 C91.6494141,82.3750021 91.7488597,82.6966135 91.9477539,82.9208984 C92.1466481,83.1451834 92.4195946,83.2573242 92.7666016,83.2573242 Z M101.11377,80.5151367 C101.11377,81.649257 100.828128,82.5347462 100.256836,83.1716309 C99.685544,83.8085156 98.8963267,84.1269531 97.8891602,84.1269531 C97.2670867,84.1269531 96.7148462,83.9809585 96.2324219,83.6889648 C95.7499976,83.3969712 95.3776055,82.9780301 95.1152344,82.4321289 C94.8528633,81.8862277 94.7216797,81.2472367 94.7216797,80.5151367 C94.7216797,79.3810165 95.0052055,78.4976431 95.5722656,77.8649902 C96.1393258,77.2323373 96.9264273,76.9160156 97.9335938,76.9160156 C98.9069059,76.9160156 99.6802543,77.2397429 100.253662,77.887207 C100.82707,78.5346712 101.11377,79.410639 101.11377,80.5151367 Z M95.8134766,80.5151367 C95.8134766,81.403813 95.9912092,82.0808896 96.3466797,82.5463867 C96.7021502,83.0118838 97.2247687,83.2446289 97.9145508,83.2446289 C98.6043329,83.2446289 99.1280093,83.0129418 99.4855957,82.5495605 C99.8431821,82.0861793 100.021973,81.4080448 100.021973,80.5151367 C100.021973,79.6306922 99.8431821,78.9589053 99.4855957,78.4997559 C99.1280093,78.0406064 98.6001011,77.8110352 97.9018555,77.8110352 C97.2120734,77.8110352 96.6915708,78.0374326 96.340332,78.4902344 C95.9890933,78.9430361 95.8134766,79.6179968 95.8134766,80.5151367 Z M107.44873,82.1020508 C107.44873,82.749515 107.207522,83.2488589 106.725098,83.6000977 C106.242673,83.9513364 105.565597,84.1269531 104.693848,84.1269531 C103.771317,84.1269531 103.051923,83.9809585 102.535645,83.6889648 L102.535645,82.7114258 C102.869956,82.8806975 103.228595,83.0139969 103.611572,83.1113281 C103.994549,83.2086593 104.363768,83.2573242 104.719238,83.2573242 C105.269371,83.2573242 105.692544,83.1695159 105.98877,82.9938965 C106.284995,82.8182771 106.433105,82.5506203 106.433105,82.190918 C106.433105,81.9200833 106.315675,81.6883961 106.080811,81.4958496 C105.845946,81.3033031 105.387861,81.0758477 104.706543,80.8134766 C104.059079,80.5722644 103.598878,80.3617359 103.325928,80.1818848 C103.052977,80.0020336 102.849854,79.7978527 102.716553,79.5693359 C102.583251,79.3408192 102.516602,79.0678727 102.516602,78.7504883 C102.516602,78.1834282 102.747231,77.7359229 103.208496,77.407959 C103.669761,77.0799951 104.302405,76.9160156 105.106445,76.9160156 C105.855472,76.9160156 106.587562,77.0683579 107.302734,77.3730469 L106.928223,78.2299805 C106.229977,77.9422186 105.597334,77.7983398 105.030273,77.7983398 C104.530922,77.7983398 104.154298,77.8766268 103.900391,78.0332031 C103.646483,78.1897794 103.519531,78.4055976 103.519531,78.6806641 C103.519531,78.8668629 103.567138,79.0255527 103.662354,79.1567383 C103.757569,79.2879238 103.910969,79.4127598 104.122559,79.53125 C104.334148,79.6497402 104.740394,79.8211252 105.341309,80.0454102 C106.166508,80.3458674 106.724038,80.648436 107.013916,80.953125 C107.303794,81.257814 107.44873,81.6407855 107.44873,82.1020508 Z M109.010254,83.3271484 C109.010254,83.0436184 109.074788,82.8288582 109.203857,82.6828613 C109.332927,82.5368645 109.518065,82.4638672 109.759277,82.4638672 C110.004721,82.4638672 110.196207,82.5368645 110.33374,82.6828613 C110.471273,82.8288582 110.540039,83.0436184 110.540039,83.3271484 C110.540039,83.6022149 110.470216,83.8138013 110.330566,83.9619141 C110.190917,84.1100268 110.000489,84.184082 109.759277,84.184082 C109.543456,84.184082 109.364665,84.1174323 109.2229,83.9841309 C109.081135,83.8508294 109.010254,83.6318375 109.010254,83.3271484 Z" id="Avec-Inwall,-facilit-Copy-2" fill="#FFFFFF"></path>
                    </g>
                </g>
            </g>
        </g>
    </g>
</svg>