<?xml version="1.0" encoding="UTF-8" standalone="no"?>
<svg width="240px" height="103px" viewBox="0 0 240 103" version="1.1" xmlns="http://www.w3.org/2000/svg" xmlns:xlink="http://www.w3.org/1999/xlink">
    <!-- Generator: Sketch 41.2 (35397) - http://www.bohemiancoding.com/sketch -->
    <title>Message 03</title>
    <desc>Created with Sketch.</desc>
    <defs></defs>
    <g id="Page-1" stroke="none" stroke-width="1" fill="none" fill-rule="evenodd">
        <g id="Desktop-HD" transform="translate(-494.000000, -743.000000)">
            <g id="PREMIERE-LAME" transform="translate(-155.000000, -21.000000)">
                <g id="Phone" transform="translate(596.000000, 420.000000)">
                    <g id="Message-03" transform="translate(53.000000, 344.000000)">
                        <rect id="Rectangle-16" fill="#50E2C1" x="0" y="0" width="240" height="85" rx="15"></rect>
                        <path d="M208.296387,97.9082031 C208.296387,100.701186 207.215668,102.097656 205.054199,102.097656 C204.676593,102.097656 204.377117,102.065104 204.155762,102 L204.155762,101.301758 C204.41618,101.386394 204.712401,101.428711 205.044434,101.428711 C205.825687,101.428711 206.415688,101.187014 206.814453,100.703613 C207.213218,100.220212 207.430501,99.4788461 207.466309,98.4794922 L207.407715,98.4794922 C207.228677,98.7496758 206.99105,98.9555657 206.694824,99.097168 C206.398599,99.2387702 206.064943,99.3095703 205.693848,99.3095703 C205.062334,99.3095703 204.561037,99.1207701 204.189941,98.7431641 C203.818846,98.365558 203.633301,97.8382195 203.633301,97.1611328 C203.633301,96.4189416 203.840818,95.83301 204.255859,95.4033203 C204.670901,94.9736307 205.216956,94.7587891 205.894043,94.7587891 C206.379071,94.7587891 206.803058,94.8832995 207.166016,95.1323242 C207.528973,95.3813489 207.808104,95.744301 208.003418,96.2211914 C208.198731,96.6980818 208.296387,97.2604134 208.296387,97.9082031 Z M205.894043,95.4521484 C205.428546,95.4521484 205.068849,95.6018865 204.814941,95.9013672 C204.561034,96.2008479 204.434082,96.6175104 204.434082,97.1513672 C204.434082,97.6201195 204.551268,97.9887682 204.785645,98.2573242 C205.020021,98.5258802 205.376462,98.6601562 205.85498,98.6601562 C206.151206,98.6601562 206.423827,98.5999355 206.672852,98.4794922 C206.921876,98.3590489 207.118001,98.1946625 207.26123,97.9863281 C207.40446,97.7779938 207.476074,97.559897 207.476074,97.3320312 C207.476074,96.9902327 207.409343,96.6744806 207.275879,96.3847656 C207.142415,96.0950506 206.956056,95.8671883 206.716797,95.7011719 C206.477538,95.5351554 206.203289,95.4521484 205.894043,95.4521484 Z M209.575684,101.482422 C209.575684,101.264322 209.625325,101.099122 209.724609,100.986816 C209.823894,100.874511 209.966308,100.818359 210.151855,100.818359 C210.340658,100.818359 210.487955,100.874511 210.59375,100.986816 C210.699545,101.099122 210.752441,101.264322 210.752441,101.482422 C210.752441,101.694011 210.698731,101.85677 210.591309,101.970703 C210.483886,102.084636 210.337403,102.141602 210.151855,102.141602 C209.985839,102.141602 209.848308,102.090333 209.739258,101.987793 C209.630208,101.885253 209.575684,101.716798 209.575684,101.482422 Z M209.575684,97.1708984 C209.575684,96.7314431 209.767739,96.5117188 210.151855,96.5117188 C210.552248,96.5117188 210.752441,96.7314431 210.752441,97.1708984 C210.752441,97.382488 210.698731,97.5452468 210.591309,97.6591797 C210.483886,97.7731125 210.337403,97.8300781 210.151855,97.8300781 C209.985839,97.8300781 209.848308,97.7788091 209.739258,97.6762695 C209.630208,97.57373 209.575684,97.4052746 209.575684,97.1708984 Z M216.675293,102 L211.98291,102 L211.98291,101.301758 L213.862793,99.4121094 C214.435712,98.8326794 214.813313,98.4192721 214.995605,98.171875 C215.177898,97.9244779 215.314615,97.6835949 215.405762,97.4492188 C215.496908,97.2148426 215.54248,96.9625665 215.54248,96.6923828 C215.54248,96.3115215 215.426922,96.009604 215.195801,95.7866211 C214.96468,95.5636382 214.644045,95.4521484 214.233887,95.4521484 C213.937661,95.4521484 213.656902,95.5009761 213.391602,95.5986328 C213.126301,95.6962896 212.830894,95.8736966 212.505371,96.1308594 L212.075684,95.5791016 C212.733239,95.0322238 213.449378,94.7587891 214.224121,94.7587891 C214.894697,94.7587891 215.420408,94.9304996 215.80127,95.2739258 C216.182131,95.617352 216.372559,96.0787731 216.372559,96.6582031 C216.372559,97.1106793 216.245607,97.558266 215.991699,98.0009766 C215.737792,98.4436871 215.262536,99.0035773 214.565918,99.6806641 L213.003418,101.208984 L213.003418,101.248047 L216.675293,101.248047 L216.675293,102 Z M222.124512,96.5410156 C222.124512,96.9967471 221.996746,97.3694647 221.741211,97.6591797 C221.485676,97.9488947 221.123537,98.1425776 220.654785,98.2402344 L220.654785,98.2792969 C221.227705,98.3509118 221.652505,98.5332017 221.929199,98.8261719 C222.205893,99.1191421 222.344238,99.5032528 222.344238,99.9785156 C222.344238,100.658858 222.108238,101.182127 221.63623,101.54834 C221.164223,101.914553 220.493657,102.097656 219.624512,102.097656 C219.246906,102.097656 218.901043,102.069173 218.586914,102.012207 C218.272785,101.955241 217.967612,101.855144 217.671387,101.711914 L217.671387,100.94043 C217.980633,101.093425 218.31022,101.209798 218.660156,101.289551 C219.010093,101.369304 219.341307,101.40918 219.653809,101.40918 C220.887539,101.40918 221.504395,100.925786 221.504395,99.9589844 C221.504395,99.0930946 220.824063,98.6601562 219.463379,98.6601562 L218.760254,98.6601562 L218.760254,97.9619141 L219.473145,97.9619141 C220.029788,97.9619141 220.470864,97.8390312 220.796387,97.5932617 C221.121909,97.3474923 221.284668,97.0065126 221.284668,96.5703125 C221.284668,96.2220035 221.16504,95.9485687 220.925781,95.75 C220.686522,95.5514313 220.361818,95.4521484 219.95166,95.4521484 C219.639159,95.4521484 219.344565,95.4944657 219.067871,95.5791016 C218.791177,95.6637374 218.475425,95.8199858 218.120605,96.0478516 L217.710449,95.5009766 C218.003419,95.2698556 218.341144,95.0883796 218.723633,94.956543 C219.106122,94.8247064 219.50895,94.7587891 219.932129,94.7587891 C220.625492,94.7587891 221.164223,94.9174789 221.54834,95.2348633 C221.932456,95.5522477 222.124512,95.9876274 222.124512,96.5410156 Z M230.996582,102 L230.10791,99.7294922 L227.246582,99.7294922 L226.367676,102 L225.527832,102 L228.350098,94.8320312 L229.04834,94.8320312 L231.855957,102 L230.996582,102 Z M229.849121,98.9824219 L229.019043,96.7705078 C228.911621,96.4905585 228.800945,96.1471375 228.687012,95.7402344 C228.615397,96.0527359 228.512859,96.396157 228.379395,96.7705078 L227.539551,98.9824219 L229.849121,98.9824219 Z M235.996582,102 L233.574707,95.671875 L233.535645,95.671875 C233.581218,96.1731796 233.604004,96.7688768 233.604004,97.4589844 L233.604004,102 L232.837402,102 L232.837402,94.8613281 L234.087402,94.8613281 L236.348145,100.75 L236.387207,100.75 L238.66748,94.8613281 L239.907715,94.8613281 L239.907715,102 L239.077637,102 L239.077637,97.4003906 C239.077637,96.8730442 239.100423,96.3001333 239.145996,95.6816406 L239.106934,95.6816406 L236.665527,102 L235.996582,102 Z" id="9:23-AM-Copy-3" fill="#9B9B9B"></path>
                        <path d="M23.3549805,30 L22.2758789,30 L22.2758789,20.7197266 L27.4492188,20.7197266 L27.4492188,21.6782227 L23.3549805,21.6782227 L23.3549805,25.0742188 L27.2016602,25.0742188 L27.2016602,26.0327148 L23.3549805,26.0327148 L23.3549805,30 Z M33.1049805,30 L32.8955078,29.0097656 L32.8447266,29.0097656 C32.4977196,29.4456402 32.1517758,29.7408033 31.8068848,29.8952637 C31.4619937,30.0497241 31.0314153,30.1269531 30.5151367,30.1269531 C29.8253546,30.1269531 29.2847513,29.9492205 28.8933105,29.59375 C28.5018698,29.2382795 28.3061523,28.7325879 28.3061523,28.0766602 C28.3061523,26.6717052 29.4296763,25.9353845 31.6767578,25.8676758 L32.8574219,25.8295898 L32.8574219,25.3979492 C32.8574219,24.8520481 32.7399914,24.4489759 32.505127,24.1887207 C32.2702625,23.9284655 31.8946966,23.7983398 31.378418,23.7983398 C30.7986625,23.7983398 30.1427445,23.9760724 29.4106445,24.331543 L29.0869141,23.5253906 C29.4296892,23.3391918 29.8052551,23.1931971 30.213623,23.0874023 C30.621991,22.9816075 31.0314107,22.9287109 31.4418945,22.9287109 C32.2713258,22.9287109 32.8859843,23.1127911 33.2858887,23.480957 C33.685793,23.8491229 33.8857422,24.4394491 33.8857422,25.2519531 L33.8857422,30 L33.1049805,30 Z M30.7246094,29.2573242 C31.3805371,29.2573242 31.8957501,29.0774758 32.2702637,28.7177734 C32.6447773,28.3580711 32.8320312,27.8544954 32.8320312,27.2070312 L32.8320312,26.5786133 L31.7783203,26.6230469 C30.9404255,26.6526694 30.3363463,26.7827951 29.9660645,27.0134277 C29.5957827,27.2440604 29.4106445,27.6026994 29.4106445,28.0893555 C29.4106445,28.4702167 29.5259591,28.7600902 29.7565918,28.9589844 C29.9872245,29.1578786 30.3098938,29.2573242 30.7246094,29.2573242 Z M37.1103516,30 L36.0566406,30 L36.0566406,23.0429688 L37.1103516,23.0429688 L37.1103516,30 Z M35.9677734,21.1577148 C35.9677734,20.9165027 36.0270176,20.739828 36.1455078,20.6276855 C36.263998,20.5155431 36.4121085,20.4594727 36.5898438,20.4594727 C36.7591154,20.4594727 36.9051101,20.516601 37.027832,20.6308594 C37.150554,20.7451178 37.2119141,20.9207345 37.2119141,21.1577148 C37.2119141,21.3946952 37.150554,21.5713699 37.027832,21.6877441 C36.9051101,21.8041184 36.7591154,21.8623047 36.5898438,21.8623047 C36.4121085,21.8623047 36.263998,21.8041184 36.1455078,21.6877441 C36.0270176,21.5713699 35.9677734,21.3946952 35.9677734,21.1577148 Z M41.5917969,29.2573242 C41.7779957,29.2573242 41.9578442,29.2435711 42.1313477,29.2160645 C42.3048511,29.1885578 42.4423823,29.1599936 42.5439453,29.1303711 L42.5439453,29.9365234 C42.4296869,29.9915367 42.2614757,30.0370278 42.0393066,30.072998 C41.8171376,30.1089683 41.6171884,30.1269531 41.4394531,30.1269531 C40.0937433,30.1269531 39.4208984,29.4181386 39.4208984,28.0004883 L39.4208984,23.8618164 L38.4243164,23.8618164 L38.4243164,23.3540039 L39.4208984,22.9160156 L39.8652344,21.4306641 L40.4746094,21.4306641 L40.4746094,23.0429688 L42.4931641,23.0429688 L42.4931641,23.8618164 L40.4746094,23.8618164 L40.4746094,27.9560547 C40.4746094,28.3750021 40.574055,28.6966135 40.7729492,28.9208984 C40.9718434,29.1451834 41.2447899,29.2573242 41.5917969,29.2573242 Z M46.8730469,30.1269531 C45.8447214,30.1269531 45.0332875,29.8138052 44.4387207,29.1875 C43.8441539,28.5611948 43.546875,27.6915746 43.546875,26.5786133 C43.546875,25.4571884 43.8229953,24.5664096 44.3752441,23.90625 C44.927493,23.2460904 45.6691034,22.9160156 46.6000977,22.9160156 C47.4718468,22.9160156 48.1616186,23.2027152 48.6694336,23.776123 C49.1772486,24.3495309 49.4311523,25.1059523 49.4311523,26.0454102 L49.4311523,26.7119141 L44.6386719,26.7119141 C44.6598308,27.5286499 44.8661276,28.1485981 45.2575684,28.5717773 C45.6490091,28.9949565 46.2001918,29.206543 46.9111328,29.206543 C47.66016,29.206543 48.4007125,29.049969 49.1328125,28.7368164 L49.1328125,29.6762695 C48.7604148,29.8370776 48.4081234,29.9523922 48.0759277,30.0222168 C47.7437321,30.0920414 47.3427758,30.1269531 46.8730469,30.1269531 Z M46.5874023,23.7983398 C46.0288058,23.7983398 45.5834164,23.9803042 45.2512207,24.3442383 C44.919025,24.7081724 44.7233076,25.2117481 44.6640625,25.8549805 L48.3012695,25.8549805 C48.3012695,25.1905891 48.153159,24.6817238 47.8569336,24.3283691 C47.5607082,23.9750145 47.1375353,23.7983398 46.5874023,23.7983398 Z M55.715332,28.1020508 C55.715332,28.749515 55.4741235,29.2488589 54.9916992,29.6000977 C54.5092749,29.9513364 53.8321984,30.1269531 52.9604492,30.1269531 C52.0379186,30.1269531 51.3185247,29.9809585 50.8022461,29.6889648 L50.8022461,28.7114258 C51.1365577,28.8806975 51.4951967,29.0139969 51.8781738,29.1113281 C52.261151,29.2086593 52.6303693,29.2573242 52.9858398,29.2573242 C53.5359728,29.2573242 53.9591457,29.1695159 54.2553711,28.9938965 C54.5515965,28.8182771 54.699707,28.5506203 54.699707,28.190918 C54.699707,27.9200833 54.5822766,27.6883961 54.3474121,27.4958496 C54.1125477,27.3033031 53.654463,27.0758477 52.9731445,26.8134766 C52.3256804,26.5722644 51.8654799,26.3617359 51.5925293,26.1818848 C51.3195787,26.0020336 51.1164557,25.7978527 50.9831543,25.5693359 C50.8498528,25.3408192 50.7832031,25.0678727 50.7832031,24.7504883 C50.7832031,24.1834282 51.0138323,23.7359229 51.4750977,23.407959 C51.936363,23.0799951 52.5690064,22.9160156 53.3730469,22.9160156 C54.1220741,22.9160156 54.8541631,23.0683579 55.5693359,23.3730469 L55.1948242,24.2299805 C54.4965785,23.9422186 53.8639351,23.7983398 53.296875,23.7983398 C52.7975235,23.7983398 52.4208997,23.8766268 52.1669922,24.0332031 C51.9130847,24.1897794 51.7861328,24.4055976 51.7861328,24.6806641 C51.7861328,24.8668629 51.8337398,25.0255527 51.9289551,25.1567383 C52.0241704,25.2879238 52.1775706,25.4127598 52.3891602,25.53125 C52.6007498,25.6497402 53.0069957,25.8211252 53.6079102,26.0454102 C54.4331096,26.3458674 54.9906398,26.648436 55.2805176,26.953125 C55.5703953,27.257814 55.715332,27.6407855 55.715332,28.1020508 Z M65.5415039,29.0668945 L65.484375,29.0668945 C64.9977189,29.7736038 64.2698616,30.1269531 63.3007812,30.1269531 C62.390946,30.1269531 61.6831894,29.8159211 61.1774902,29.1938477 C60.6717911,28.5717742 60.4189453,27.687343 60.4189453,26.5405273 C60.4189453,25.3937117 60.672849,24.5029329 61.1806641,23.8681641 C61.6884791,23.2333953 62.3951778,22.9160156 63.3007812,22.9160156 C64.2444709,22.9160156 64.9680964,23.2587856 65.4716797,23.9443359 L65.5541992,23.9443359 L65.5097656,23.4428711 L65.484375,22.9541016 L65.484375,20.1230469 L66.5380859,20.1230469 L66.5380859,30 L65.6811523,30 L65.5415039,29.0668945 Z M63.434082,29.2446289 C64.1534867,29.2446289 64.6750472,29.0489115 64.9987793,28.6574707 C65.3225114,28.2660299 65.484375,27.6344445 65.484375,26.7626953 L65.484375,26.5405273 C65.484375,25.5545198 65.3203955,24.8509949 64.9924316,24.4299316 C64.6644678,24.0088683 64.1407914,23.7983398 63.4213867,23.7983398 C62.8035451,23.7983398 62.3306494,24.0384904 62.0026855,24.5187988 C61.6747217,24.9991072 61.5107422,25.6772417 61.5107422,26.5532227 C61.5107422,27.441899 61.6736637,28.1126279 61.9995117,28.5654297 C62.3253597,29.0182314 62.803545,29.2446289 63.434082,29.2446289 Z M71.7114258,30.1269531 C70.6831003,30.1269531 69.8716664,29.8138052 69.2770996,29.1875 C68.6825328,28.5611948 68.3852539,27.6915746 68.3852539,26.5786133 C68.3852539,25.4571884 68.6613742,24.5664096 69.213623,23.90625 C69.7658719,23.2460904 70.5074823,22.9160156 71.4384766,22.9160156 C72.3102257,22.9160156 72.9999975,23.2027152 73.5078125,23.776123 C74.0156275,24.3495309 74.2695312,25.1059523 74.2695312,26.0454102 L74.2695312,26.7119141 L69.4770508,26.7119141 C69.4982097,27.5286499 69.7045065,28.1485981 70.0959473,28.5717773 C70.487388,28.9949565 71.0385707,29.206543 71.7495117,29.206543 C72.4985389,29.206543 73.2390914,29.049969 73.9711914,28.7368164 L73.9711914,29.6762695 C73.5987937,29.8370776 73.2465023,29.9523922 72.9143066,30.0222168 C72.582111,30.0920414 72.1811547,30.1269531 71.7114258,30.1269531 Z M71.4257812,23.7983398 C70.8671847,23.7983398 70.4217953,23.9803042 70.0895996,24.3442383 C69.7574039,24.7081724 69.5616865,25.2117481 69.5024414,25.8549805 L73.1396484,25.8549805 C73.1396484,25.1905891 72.9915379,24.6817238 72.6953125,24.3283691 C72.3990871,23.9750145 71.9759142,23.7983398 71.4257812,23.7983398 Z M80.5537109,28.1020508 C80.5537109,28.749515 80.3125024,29.2488589 79.8300781,29.6000977 C79.3476538,29.9513364 78.6705773,30.1269531 77.7988281,30.1269531 C76.8762975,30.1269531 76.1569036,29.9809585 75.640625,29.6889648 L75.640625,28.7114258 C75.9749366,28.8806975 76.3335756,29.0139969 76.7165527,29.1113281 C77.0995299,29.2086593 77.4687482,29.2573242 77.8242188,29.2573242 C78.3743517,29.2573242 78.7975246,29.1695159 79.09375,28.9938965 C79.3899754,28.8182771 79.5380859,28.5506203 79.5380859,28.190918 C79.5380859,27.9200833 79.4206555,27.6883961 79.185791,27.4958496 C78.9509266,27.3033031 78.4928419,27.0758477 77.8115234,26.8134766 C77.1640593,26.5722644 76.7038588,26.3617359 76.4309082,26.1818848 C76.1579576,26.0020336 75.9548347,25.7978527 75.8215332,25.5693359 C75.6882318,25.3408192 75.621582,25.0678727 75.621582,24.7504883 C75.621582,24.1834282 75.8522112,23.7359229 76.3134766,23.407959 C76.7747419,23.0799951 77.4073853,22.9160156 78.2114258,22.9160156 C78.960453,22.9160156 79.692542,23.0683579 80.4077148,23.3730469 L80.0332031,24.2299805 C79.3349574,23.9422186 78.702314,23.7983398 78.1352539,23.7983398 C77.6359025,23.7983398 77.2592786,23.8766268 77.0053711,24.0332031 C76.7514636,24.1897794 76.6245117,24.4055976 76.6245117,24.6806641 C76.6245117,24.8668629 76.6721187,25.0255527 76.767334,25.1567383 C76.8625493,25.2879238 77.0159495,25.4127598 77.2275391,25.53125 C77.4391287,25.6497402 77.8453746,25.8211252 78.4462891,26.0454102 C79.2714885,26.3458674 79.8290187,26.648436 80.1188965,26.953125 C80.4087742,27.257814 80.5537109,27.6407855 80.5537109,28.1020508 Z M88.4248047,30.1269531 C87.4176382,30.1269531 86.6379422,29.816979 86.0856934,29.1970215 C85.5334445,28.577064 85.2573242,27.7000382 85.2573242,26.565918 C85.2573242,25.4021752 85.5376762,24.5029329 86.0983887,23.8681641 C86.6591011,23.2333953 87.4578399,22.9160156 88.4946289,22.9160156 C88.8289405,22.9160156 89.163247,22.9519853 89.4975586,23.0239258 C89.8318702,23.0958662 90.0942373,23.1805008 90.284668,23.277832 L89.9609375,24.1728516 C89.7281889,24.0797521 89.4742852,24.0025231 89.1992188,23.9411621 C88.9241523,23.8798011 88.6808279,23.8491211 88.4692383,23.8491211 C87.0558198,23.8491211 86.3491211,24.7504793 86.3491211,26.5532227 C86.3491211,27.4080446 86.521564,28.0639626 86.8664551,28.5209961 C87.2113461,28.9780296 87.7223273,29.206543 88.3994141,29.206543 C88.9791696,29.206543 89.5737274,29.081707 90.1831055,28.8320312 L90.1831055,29.7651367 C89.7176083,30.0063489 89.131514,30.1269531 88.4248047,30.1269531 Z M96.5942383,30 L96.5942383,25.4995117 C96.5942383,24.9324516 96.4651706,24.5092787 96.2070312,24.2299805 C95.9488919,23.9506822 95.5447619,23.8110352 94.9946289,23.8110352 C94.2625289,23.8110352 93.7282732,24.0099264 93.3918457,24.4077148 C93.0554182,24.8055033 92.887207,25.4571895 92.887207,26.362793 L92.887207,30 L91.8334961,30 L91.8334961,20.1230469 L92.887207,20.1230469 L92.887207,23.112793 C92.887207,23.4724953 92.8702801,23.7708321 92.8364258,24.0078125 L92.8999023,24.0078125 C93.1072602,23.6735009 93.4024232,23.4100758 93.7854004,23.2175293 C94.1683776,23.0249828 94.6053035,22.9287109 95.0961914,22.9287109 C95.9467816,22.9287109 96.5847147,23.130776 97.0100098,23.5349121 C97.4353049,23.9390482 97.6479492,24.581213 97.6479492,25.4614258 L97.6479492,30 L96.5942383,30 Z M105.817383,26.5151367 C105.817383,27.649257 105.531741,28.5347462 104.960449,29.1716309 C104.389157,29.8085156 103.59994,30.1269531 102.592773,30.1269531 C101.9707,30.1269531 101.418459,29.9809585 100.936035,29.6889648 C100.453611,29.3969712 100.081219,28.9780301 99.8188477,28.4321289 C99.5564766,27.8862277 99.425293,27.2472367 99.425293,26.5151367 C99.425293,25.3810165 99.7088188,24.4976431 100.275879,23.8649902 C100.842939,23.2323373 101.630041,22.9160156 102.637207,22.9160156 C103.610519,22.9160156 104.383868,23.2397429 104.957275,23.887207 C105.530683,24.5346712 105.817383,25.410639 105.817383,26.5151367 Z M100.51709,26.5151367 C100.51709,27.403813 100.694822,28.0808896 101.050293,28.5463867 C101.405763,29.0118838 101.928382,29.2446289 102.618164,29.2446289 C103.307946,29.2446289 103.831623,29.0129418 104.189209,28.5495605 C104.546795,28.0861793 104.725586,27.4080448 104.725586,26.5151367 C104.725586,25.6306922 104.546795,24.9589053 104.189209,24.4997559 C103.831623,24.0406064 103.303714,23.8110352 102.605469,23.8110352 C101.915687,23.8110352 101.395184,24.0374326 101.043945,24.4902344 C100.692707,24.9430361 100.51709,25.6179968 100.51709,26.5151367 Z M108.718262,30 L107.664551,30 L107.664551,23.0429688 L108.718262,23.0429688 L108.718262,30 Z M107.575684,21.1577148 C107.575684,20.9165027 107.634928,20.739828 107.753418,20.6276855 C107.871908,20.5155431 108.020019,20.4594727 108.197754,20.4594727 C108.367026,20.4594727 108.51302,20.516601 108.635742,20.6308594 C108.758464,20.7451178 108.819824,20.9207345 108.819824,21.1577148 C108.819824,21.3946952 108.758464,21.5713699 108.635742,21.6877441 C108.51302,21.8041184 108.367026,21.8623047 108.197754,21.8623047 C108.020019,21.8623047 107.871908,21.8041184 107.753418,21.6877441 C107.634928,21.5713699 107.575684,21.3946952 107.575684,21.1577148 Z M112.628418,26.4389648 L110.209961,23.0429688 L111.409668,23.0429688 L113.244141,25.7089844 L115.072266,23.0429688 L116.259277,23.0429688 L113.84082,26.4389648 L116.38623,30 L115.192871,30 L113.244141,27.1816406 L111.276367,30 L110.083008,30 L112.628418,26.4389648 Z M123.920898,30.1269531 C122.913732,30.1269531 122.134036,29.816979 121.581787,29.1970215 C121.029538,28.577064 120.753418,27.7000382 120.753418,26.565918 C120.753418,25.4021752 121.03377,24.5029329 121.594482,23.8681641 C122.155195,23.2333953 122.953934,22.9160156 123.990723,22.9160156 C124.325034,22.9160156 124.659341,22.9519853 124.993652,23.0239258 C125.327964,23.0958662 125.590331,23.1805008 125.780762,23.277832 L125.457031,24.1728516 C125.224283,24.0797521 124.970379,24.0025231 124.695312,23.9411621 C124.420246,23.8798011 124.176922,23.8491211 123.965332,23.8491211 C122.551914,23.8491211 121.845215,24.7504793 121.845215,26.5532227 C121.845215,27.4080446 122.017658,28.0639626 122.362549,28.5209961 C122.70744,28.9780296 123.218421,29.206543 123.895508,29.206543 C124.475263,29.206543 125.069821,29.081707 125.679199,28.8320312 L125.679199,29.7651367 C125.213702,30.0063489 124.627608,30.1269531 123.920898,30.1269531 Z M133.334473,26.5151367 C133.334473,27.649257 133.048831,28.5347462 132.477539,29.1716309 C131.906247,29.8085156 131.11703,30.1269531 130.109863,30.1269531 C129.48779,30.1269531 128.935549,29.9809585 128.453125,29.6889648 C127.970701,29.3969712 127.598309,28.9780301 127.335938,28.4321289 C127.073566,27.8862277 126.942383,27.2472367 126.942383,26.5151367 C126.942383,25.3810165 127.225909,24.4976431 127.792969,23.8649902 C128.360029,23.2323373 129.14713,22.9160156 130.154297,22.9160156 C131.127609,22.9160156 131.900957,23.2397429 132.474365,23.887207 C133.047773,24.5346712 133.334473,25.410639 133.334473,26.5151367 Z M128.03418,26.5151367 C128.03418,27.403813 128.211912,28.0808896 128.567383,28.5463867 C128.922853,29.0118838 129.445472,29.2446289 130.135254,29.2446289 C130.825036,29.2446289 131.348712,29.0129418 131.706299,28.5495605 C132.063885,28.0861793 132.242676,27.4080448 132.242676,26.5151367 C132.242676,25.6306922 132.063885,24.9589053 131.706299,24.4997559 C131.348712,24.0406064 130.820804,23.8110352 130.122559,23.8110352 C129.432776,23.8110352 128.912274,24.0374326 128.561035,24.4902344 C128.209796,24.9430361 128.03418,25.6179968 128.03418,26.5151367 Z M136.235352,30 L135.181641,30 L135.181641,20.1230469 L136.235352,20.1230469 L136.235352,30 Z M139.523438,30 L138.469727,30 L138.469727,20.1230469 L139.523438,20.1230469 L139.523438,30 Z M144.696777,30.1269531 C143.668452,30.1269531 142.857018,29.8138052 142.262451,29.1875 C141.667884,28.5611948 141.370605,27.6915746 141.370605,26.5786133 C141.370605,25.4571884 141.646726,24.5664096 142.198975,23.90625 C142.751223,23.2460904 143.492834,22.9160156 144.423828,22.9160156 C145.295577,22.9160156 145.985349,23.2027152 146.493164,23.776123 C147.000979,24.3495309 147.254883,25.1059523 147.254883,26.0454102 L147.254883,26.7119141 L142.462402,26.7119141 C142.483561,27.5286499 142.689858,28.1485981 143.081299,28.5717773 C143.47274,28.9949565 144.023922,29.206543 144.734863,29.206543 C145.48389,29.206543 146.224443,29.049969 146.956543,28.7368164 L146.956543,29.6762695 C146.584145,29.8370776 146.231854,29.9523922 145.899658,30.0222168 C145.567463,30.0920414 145.166506,30.1269531 144.696777,30.1269531 Z M144.411133,23.7983398 C143.852536,23.7983398 143.407147,23.9803042 143.074951,24.3442383 C142.742756,24.7081724 142.547038,25.2117481 142.487793,25.8549805 L146.125,25.8549805 C146.125,25.1905891 145.97689,24.6817238 145.680664,24.3283691 C145.384439,23.9750145 144.961266,23.7983398 144.411133,23.7983398 Z M151.831543,30.1269531 C150.824376,30.1269531 150.04468,29.816979 149.492432,29.1970215 C148.940183,28.577064 148.664062,27.7000382 148.664062,26.565918 C148.664062,25.4021752 148.944415,24.5029329 149.505127,23.8681641 C150.065839,23.2333953 150.864578,22.9160156 151.901367,22.9160156 C152.235679,22.9160156 152.569985,22.9519853 152.904297,23.0239258 C153.238608,23.0958662 153.500976,23.1805008 153.691406,23.277832 L153.367676,24.1728516 C153.134927,24.0797521 152.881024,24.0025231 152.605957,23.9411621 C152.330891,23.8798011 152.087566,23.8491211 151.875977,23.8491211 C150.462558,23.8491211 149.755859,24.7504793 149.755859,26.5532227 C149.755859,27.4080446 149.928302,28.0639626 150.273193,28.5209961 C150.618084,28.9780296 151.129066,29.206543 151.806152,29.206543 C152.385908,29.206543 152.980466,29.081707 153.589844,28.8320312 L153.589844,29.7651367 C153.124347,30.0063489 152.538252,30.1269531 151.831543,30.1269531 Z M157.487305,29.2573242 C157.673504,29.2573242 157.853352,29.2435711 158.026855,29.2160645 C158.200359,29.1885578 158.33789,29.1599936 158.439453,29.1303711 L158.439453,29.9365234 C158.325195,29.9915367 158.156984,30.0370278 157.934814,30.072998 C157.712645,30.1089683 157.512696,30.1269531 157.334961,30.1269531 C155.989251,30.1269531 155.316406,29.4181386 155.316406,28.0004883 L155.316406,23.8618164 L154.319824,23.8618164 L154.319824,23.3540039 L155.316406,22.9160156 L155.760742,21.4306641 L156.370117,21.4306641 L156.370117,23.0429688 L158.388672,23.0429688 L158.388672,23.8618164 L156.370117,23.8618164 L156.370117,27.9560547 C156.370117,28.3750021 156.469563,28.6966135 156.668457,28.9208984 C156.867351,29.1451834 157.140298,29.2573242 157.487305,29.2573242 Z M160.883301,30 L159.82959,30 L159.82959,23.0429688 L160.883301,23.0429688 L160.883301,30 Z M159.740723,21.1577148 C159.740723,20.9165027 159.799967,20.739828 159.918457,20.6276855 C160.036947,20.5155431 160.185058,20.4594727 160.362793,20.4594727 C160.532065,20.4594727 160.678059,20.516601 160.800781,20.6308594 C160.923503,20.7451178 160.984863,20.9207345 160.984863,21.1577148 C160.984863,21.3946952 160.923503,21.5713699 160.800781,21.6877441 C160.678059,21.8041184 160.532065,21.8623047 160.362793,21.8623047 C160.185058,21.8623047 160.036947,21.8041184 159.918457,21.6877441 C159.799967,21.5713699 159.740723,21.3946952 159.740723,21.1577148 Z M166.253418,23.8618164 L164.482422,23.8618164 L164.482422,30 L163.428711,30 L163.428711,23.8618164 L162.18457,23.8618164 L162.18457,23.3857422 L163.428711,23.0048828 L163.428711,22.6176758 C163.428711,20.9080318 164.175611,20.0532227 165.669434,20.0532227 C166.037599,20.0532227 166.469236,20.1272779 166.964355,20.2753906 L166.691406,21.1196289 C166.285154,20.9884434 165.938152,20.9228516 165.650391,20.9228516 C165.252602,20.9228516 164.958497,21.0550931 164.768066,21.3195801 C164.577636,21.5840671 164.482422,22.0082979 164.482422,22.5922852 L164.482422,23.0429688 L166.253418,23.0429688 L166.253418,23.8618164 Z M172.010742,28.1020508 C172.010742,28.749515 171.769534,29.2488589 171.287109,29.6000977 C170.804685,29.9513364 170.127609,30.1269531 169.255859,30.1269531 C168.333329,30.1269531 167.613935,29.9809585 167.097656,29.6889648 L167.097656,28.7114258 C167.431968,28.8806975 167.790607,29.0139969 168.173584,29.1113281 C168.556561,29.2086593 168.925779,29.2573242 169.28125,29.2573242 C169.831383,29.2573242 170.254556,29.1695159 170.550781,28.9938965 C170.847007,28.8182771 170.995117,28.5506203 170.995117,28.190918 C170.995117,27.9200833 170.877687,27.6883961 170.642822,27.4958496 C170.407958,27.3033031 169.949873,27.0758477 169.268555,26.8134766 C168.621091,26.5722644 168.16089,26.3617359 167.887939,26.1818848 C167.614989,26.0020336 167.411866,25.7978527 167.278564,25.5693359 C167.145263,25.3408192 167.078613,25.0678727 167.078613,24.7504883 C167.078613,24.1834282 167.309242,23.7359229 167.770508,23.407959 C168.231773,23.0799951 168.864417,22.9160156 169.668457,22.9160156 C170.417484,22.9160156 171.149573,23.0683579 171.864746,23.3730469 L171.490234,24.2299805 C170.791989,23.9422186 170.159345,23.7983398 169.592285,23.7983398 C169.092934,23.7983398 168.71631,23.8766268 168.462402,24.0332031 C168.208495,24.1897794 168.081543,24.4055976 168.081543,24.6806641 C168.081543,24.8668629 168.12915,25.0255527 168.224365,25.1567383 C168.319581,25.2879238 168.472981,25.4127598 168.68457,25.53125 C168.89616,25.6497402 169.302406,25.8211252 169.90332,26.0454102 C170.72852,26.3458674 171.28605,26.648436 171.575928,26.953125 C171.865805,27.257814 172.010742,27.6407855 172.010742,28.1020508 Z M174.829102,28.4892578 L174.924316,28.6352539 C174.81429,29.0584331 174.6556,29.5503715 174.448242,30.111084 C174.240884,30.6717964 174.025066,31.193357 173.800781,31.6757812 L173.007324,31.6757812 C173.121583,31.2356749 173.247477,30.6918978 173.38501,30.0444336 C173.522543,29.3969694 173.618815,28.8785827 173.673828,28.4892578 L174.829102,28.4892578 Z M182.535156,29.2573242 C182.721355,29.2573242 182.901204,29.2435711 183.074707,29.2160645 C183.248211,29.1885578 183.385742,29.1599936 183.487305,29.1303711 L183.487305,29.9365234 C183.373046,29.9915367 183.204835,30.0370278 182.982666,30.072998 C182.760497,30.1089683 182.560548,30.1269531 182.382812,30.1269531 C181.037103,30.1269531 180.364258,29.4181386 180.364258,28.0004883 L180.364258,23.8618164 L179.367676,23.8618164 L179.367676,23.3540039 L180.364258,22.9160156 L180.808594,21.4306641 L181.417969,21.4306641 L181.417969,23.0429688 L183.436523,23.0429688 L183.436523,23.8618164 L181.417969,23.8618164 L181.417969,27.9560547 C181.417969,28.3750021 181.517414,28.6966135 181.716309,28.9208984 C181.915203,29.1451834 182.188149,29.2573242 182.535156,29.2573242 Z M187.816406,30.1269531 C186.788081,30.1269531 185.976647,29.8138052 185.38208,29.1875 C184.787513,28.5611948 184.490234,27.6915746 184.490234,26.5786133 C184.490234,25.4571884 184.766355,24.5664096 185.318604,23.90625 C185.870852,23.2460904 186.612463,22.9160156 187.543457,22.9160156 C188.415206,22.9160156 189.104978,23.2027152 189.612793,23.776123 C190.120608,24.3495309 190.374512,25.1059523 190.374512,26.0454102 L190.374512,26.7119141 L185.582031,26.7119141 C185.60319,27.5286499 185.809487,28.1485981 186.200928,28.5717773 C186.592368,28.9949565 187.143551,29.206543 187.854492,29.206543 C188.603519,29.206543 189.344072,29.049969 190.076172,28.7368164 L190.076172,29.6762695 C189.703774,29.8370776 189.351483,29.9523922 189.019287,30.0222168 C188.687091,30.0920414 188.286135,30.1269531 187.816406,30.1269531 Z M187.530762,23.7983398 C186.972165,23.7983398 186.526776,23.9803042 186.19458,24.3442383 C185.862384,24.7081724 185.666667,25.2117481 185.607422,25.8549805 L189.244629,25.8549805 C189.244629,25.1905891 189.096518,24.6817238 188.800293,24.3283691 C188.504068,23.9750145 188.080895,23.7983398 187.530762,23.7983398 Z M196.658691,28.1020508 C196.658691,28.749515 196.417483,29.2488589 195.935059,29.6000977 C195.452634,29.9513364 194.775558,30.1269531 193.903809,30.1269531 C192.981278,30.1269531 192.261884,29.9809585 191.745605,29.6889648 L191.745605,28.7114258 C192.079917,28.8806975 192.438556,29.0139969 192.821533,29.1113281 C193.20451,29.2086593 193.573729,29.2573242 193.929199,29.2573242 C194.479332,29.2573242 194.902505,29.1695159 195.19873,28.9938965 C195.494956,28.8182771 195.643066,28.5506203 195.643066,28.190918 C195.643066,27.9200833 195.525636,27.6883961 195.290771,27.4958496 C195.055907,27.3033031 194.597822,27.0758477 193.916504,26.8134766 C193.26904,26.5722644 192.808839,26.3617359 192.535889,26.1818848 C192.262938,26.0020336 192.059815,25.7978527 191.926514,25.5693359 C191.793212,25.3408192 191.726562,25.0678727 191.726562,24.7504883 C191.726562,24.1834282 191.957192,23.7359229 192.418457,23.407959 C192.879722,23.0799951 193.512366,22.9160156 194.316406,22.9160156 C195.065433,22.9160156 195.797522,23.0683579 196.512695,23.3730469 L196.138184,24.2299805 C195.439938,23.9422186 194.807295,23.7983398 194.240234,23.7983398 C193.740883,23.7983398 193.364259,23.8766268 193.110352,24.0332031 C192.856444,24.1897794 192.729492,24.4055976 192.729492,24.6806641 C192.729492,24.8668629 192.777099,25.0255527 192.872314,25.1567383 C192.96753,25.2879238 193.12093,25.4127598 193.33252,25.53125 C193.544109,25.6497402 193.950355,25.8211252 194.55127,26.0454102 C195.376469,26.3458674 195.933999,26.648436 196.223877,26.953125 C196.513755,27.257814 196.658691,27.6407855 196.658691,28.1020508 Z M200.619629,29.2573242 C200.805828,29.2573242 200.985676,29.2435711 201.15918,29.2160645 C201.332683,29.1885578 201.470214,29.1599936 201.571777,29.1303711 L201.571777,29.9365234 C201.457519,29.9915367 201.289308,30.0370278 201.067139,30.072998 C200.84497,30.1089683 200.64502,30.1269531 200.467285,30.1269531 C199.121575,30.1269531 198.44873,29.4181386 198.44873,28.0004883 L198.44873,23.8618164 L197.452148,23.8618164 L197.452148,23.3540039 L198.44873,22.9160156 L198.893066,21.4306641 L199.502441,21.4306641 L199.502441,23.0429688 L201.520996,23.0429688 L201.520996,23.8618164 L199.502441,23.8618164 L199.502441,27.9560547 C199.502441,28.3750021 199.601887,28.6966135 199.800781,28.9208984 C199.999675,29.1451834 200.272622,29.2573242 200.619629,29.2573242 Z M205.900879,30.1269531 C204.872553,30.1269531 204.06112,29.8138052 203.466553,29.1875 C202.871986,28.5611948 202.574707,27.6915746 202.574707,26.5786133 C202.574707,25.4571884 202.850827,24.5664096 203.403076,23.90625 C203.955325,23.2460904 204.696935,22.9160156 205.62793,22.9160156 C206.499679,22.9160156 207.189451,23.2027152 207.697266,23.776123 C208.205081,24.3495309 208.458984,25.1059523 208.458984,26.0454102 L208.458984,26.7119141 L203.666504,26.7119141 C203.687663,27.5286499 203.89396,28.1485981 204.2854,28.5717773 C204.676841,28.9949565 205.228024,29.206543 205.938965,29.206543 C206.687992,29.206543 207.428545,29.049969 208.160645,28.7368164 L208.160645,29.6762695 C207.788247,29.8370776 207.435955,29.9523922 207.10376,30.0222168 C206.771564,30.0920414 206.370608,30.1269531 205.900879,30.1269531 Z M205.615234,23.7983398 C205.056638,23.7983398 204.611248,23.9803042 204.279053,24.3442383 C203.946857,24.7081724 203.75114,25.2117481 203.691895,25.8549805 L207.329102,25.8549805 C207.329102,25.1905891 207.180991,24.6817238 206.884766,24.3283691 C206.58854,23.9750145 206.165367,23.7983398 205.615234,23.7983398 Z M214.705078,30 L209.658691,30 L209.658691,29.2827148 L213.45459,23.8618164 L209.893555,23.8618164 L209.893555,23.0429688 L214.609863,23.0429688 L214.609863,23.8618164 L210.864746,29.1811523 L214.705078,29.1811523 L214.705078,30 Z M23.1708984,48 L22.1171875,48 L22.1171875,38.1230469 L23.1708984,38.1230469 L23.1708984,48 Z M28.3442383,48.1269531 C27.3159128,48.1269531 26.5044789,47.8138052 25.9099121,47.1875 C25.3153453,46.5611948 25.0180664,45.6915746 25.0180664,44.5786133 C25.0180664,43.4571884 25.2941867,42.5664096 25.8464355,41.90625 C26.3986844,41.2460904 27.1402948,40.9160156 28.0712891,40.9160156 C28.9430382,40.9160156 29.63281,41.2027152 30.140625,41.776123 C30.64844,42.3495309 30.9023438,43.1059523 30.9023438,44.0454102 L30.9023438,44.7119141 L26.1098633,44.7119141 C26.1310222,45.5286499 26.337319,46.1485981 26.7287598,46.5717773 C27.1202005,46.9949565 27.6713832,47.206543 28.3823242,47.206543 C29.1313514,47.206543 29.8719039,47.049969 30.6040039,46.7368164 L30.6040039,47.6762695 C30.2316062,47.8370776 29.8793148,47.9523922 29.5471191,48.0222168 C29.2149235,48.0920414 28.8139672,48.1269531 28.3442383,48.1269531 Z M28.0585938,41.7983398 C27.4999972,41.7983398 27.0546078,41.9803042 26.7224121,42.3442383 C26.3902164,42.7081724 26.194499,43.2117481 26.1352539,43.8549805 L29.7724609,43.8549805 C29.7724609,43.1905891 29.6243504,42.6817238 29.328125,42.3283691 C29.0318996,41.9750145 28.6087267,41.7983398 28.0585938,41.7983398 Z M37.1865234,46.1020508 C37.1865234,46.749515 36.9453149,47.2488589 36.4628906,47.6000977 C35.9804663,47.9513364 35.3033898,48.1269531 34.4316406,48.1269531 C33.50911,48.1269531 32.7897161,47.9809585 32.2734375,47.6889648 L32.2734375,46.7114258 C32.6077491,46.8806975 32.9663881,47.0139969 33.3493652,47.1113281 C33.7323424,47.2086593 34.1015607,47.2573242 34.4570312,47.2573242 C35.0071642,47.2573242 35.4303371,47.1695159 35.7265625,46.9938965 C36.0227879,46.8182771 36.1708984,46.5506203 36.1708984,46.190918 C36.1708984,45.9200833 36.053468,45.6883961 35.8186035,45.4958496 C35.5837391,45.3033031 35.1256544,45.0758477 34.4443359,44.8134766 C33.7968718,44.5722644 33.3366713,44.3617359 33.0637207,44.1818848 C32.7907701,44.0020336 32.5876472,43.7978527 32.4543457,43.5693359 C32.3210443,43.3408192 32.2543945,43.0678727 32.2543945,42.7504883 C32.2543945,42.1834282 32.4850237,41.7359229 32.9462891,41.407959 C33.4075544,41.0799951 34.0401978,40.9160156 34.8442383,40.9160156 C35.5932655,40.9160156 36.3253545,41.0683579 37.0405273,41.3730469 L36.6660156,42.2299805 C35.9677699,41.9422186 35.3351265,41.7983398 34.7680664,41.7983398 C34.268715,41.7983398 33.8920911,41.8766268 33.6381836,42.0332031 C33.3842761,42.1897794 33.2573242,42.4055976 33.2573242,42.6806641 C33.2573242,42.8668629 33.3049312,43.0255527 33.4001465,43.1567383 C33.4953618,43.2879238 33.648762,43.4127598 33.8603516,43.53125 C34.0719412,43.6497402 34.4781871,43.8211252 35.0791016,44.0454102 C35.904301,44.3458674 36.4618312,44.648436 36.751709,44.953125 C37.0415867,45.257814 37.1865234,45.6407855 37.1865234,46.1020508 Z M45.0576172,48.1269531 C44.0504507,48.1269531 43.2707547,47.816979 42.7185059,47.1970215 C42.166257,46.577064 41.8901367,45.7000382 41.8901367,44.565918 C41.8901367,43.4021752 42.1704887,42.5029329 42.7312012,41.8681641 C43.2919136,41.2333953 44.0906524,40.9160156 45.1274414,40.9160156 C45.461753,40.9160156 45.7960595,40.9519853 46.1303711,41.0239258 C46.4646827,41.0958662 46.7270498,41.1805008 46.9174805,41.277832 L46.59375,42.1728516 C46.3610014,42.0797521 46.1070977,42.0025231 45.8320312,41.9411621 C45.5569648,41.8798011 45.3136404,41.8491211 45.1020508,41.8491211 C43.6886323,41.8491211 42.9819336,42.7504793 42.9819336,44.5532227 C42.9819336,45.4080446 43.1543765,46.0639626 43.4992676,46.5209961 C43.8441586,46.9780296 44.3551398,47.206543 45.0322266,47.206543 C45.6119821,47.206543 46.2065399,47.081707 46.815918,46.8320312 L46.815918,47.7651367 C46.3504208,48.0063489 45.7643265,48.1269531 45.0576172,48.1269531 Z M54.4711914,44.5151367 C54.4711914,45.649257 54.1855497,46.5347462 53.6142578,47.1716309 C53.0429659,47.8085156 52.2537485,48.1269531 51.246582,48.1269531 C50.6245086,48.1269531 50.072268,47.9809585 49.5898438,47.6889648 C49.1074195,47.3969712 48.7350274,46.9780301 48.4726562,46.4321289 C48.2102851,45.8862277 48.0791016,45.2472367 48.0791016,44.5151367 C48.0791016,43.3810165 48.3626274,42.4976431 48.9296875,41.8649902 C49.4967476,41.2323373 50.2838491,40.9160156 51.2910156,40.9160156 C52.2643278,40.9160156 53.0376762,41.2397429 53.611084,41.887207 C54.1844918,42.5346712 54.4711914,43.410639 54.4711914,44.5151367 Z M49.1708984,44.5151367 C49.1708984,45.403813 49.348631,46.0808896 49.7041016,46.5463867 C50.0595721,47.0118838 50.5821906,47.2446289 51.2719727,47.2446289 C51.9617548,47.2446289 52.4854312,47.0129418 52.8430176,46.5495605 C53.200604,46.0861793 53.3793945,45.4080448 53.3793945,44.5151367 C53.3793945,43.6306922 53.200604,42.9589053 52.8430176,42.4997559 C52.4854312,42.0406064 51.957523,41.8110352 51.2592773,41.8110352 C50.5694952,41.8110352 50.0489926,42.0374326 49.6977539,42.4902344 C49.3465152,42.9430361 49.1708984,43.6179968 49.1708984,44.5151367 Z M61.0791016,48 L61.0791016,43.4995117 C61.0791016,42.9324516 60.9500338,42.5092787 60.6918945,42.2299805 C60.4337552,41.9506822 60.0296251,41.8110352 59.4794922,41.8110352 C58.751624,41.8110352 58.2184262,42.0078105 57.8798828,42.4013672 C57.5413395,42.7949238 57.3720703,43.4444942 57.3720703,44.3500977 L57.3720703,48 L56.3183594,48 L56.3183594,41.0429688 L57.175293,41.0429688 L57.3466797,41.9951172 L57.3974609,41.9951172 C57.6132823,41.652342 57.9158509,41.3868011 58.3051758,41.1984863 C58.6945006,41.0101716 59.1282528,40.9160156 59.6064453,40.9160156 C60.4443401,40.9160156 61.0748677,41.1180807 61.4980469,41.5222168 C61.9212261,41.9263529 62.1328125,42.5727495 62.1328125,43.4614258 L62.1328125,48 L61.0791016,48 Z M69.0581055,48 L69.0581055,43.4995117 C69.0581055,42.9324516 68.9290377,42.5092787 68.6708984,42.2299805 C68.4127591,41.9506822 68.0086291,41.8110352 67.4584961,41.8110352 C66.7306279,41.8110352 66.1974301,42.0078105 65.8588867,42.4013672 C65.5203434,42.7949238 65.3510742,43.4444942 65.3510742,44.3500977 L65.3510742,48 L64.2973633,48 L64.2973633,41.0429688 L65.1542969,41.0429688 L65.3256836,41.9951172 L65.3764648,41.9951172 C65.5922862,41.652342 65.8948548,41.3868011 66.2841797,41.1984863 C66.6735046,41.0101716 67.1072567,40.9160156 67.5854492,40.9160156 C68.423344,40.9160156 69.0538716,41.1180807 69.4770508,41.5222168 C69.90023,41.9263529 70.1118164,42.5727495 70.1118164,43.4614258 L70.1118164,48 L69.0581055,48 Z M76.5546875,48 L76.3452148,47.0097656 L76.2944336,47.0097656 C75.9474267,47.4456402 75.6014828,47.7408033 75.2565918,47.8952637 C74.9117007,48.0497241 74.4811224,48.1269531 73.9648438,48.1269531 C73.2750617,48.1269531 72.7344583,47.9492205 72.3430176,47.59375 C71.9515768,47.2382795 71.7558594,46.7325879 71.7558594,46.0766602 C71.7558594,44.6717052 72.8793833,43.9353845 75.1264648,43.8676758 L76.3071289,43.8295898 L76.3071289,43.3979492 C76.3071289,42.8520481 76.1896984,42.4489759 75.954834,42.1887207 C75.7199695,41.9284655 75.3444036,41.7983398 74.828125,41.7983398 C74.2483695,41.7983398 73.5924516,41.9760724 72.8603516,42.331543 L72.5366211,41.5253906 C72.8793962,41.3391918 73.2549622,41.1931971 73.6633301,41.0874023 C74.071698,40.9816075 74.4811177,40.9287109 74.8916016,40.9287109 C75.7210328,40.9287109 76.3356914,41.1127911 76.7355957,41.480957 C77.1355,41.8491229 77.3354492,42.4394491 77.3354492,43.2519531 L77.3354492,48 L76.5546875,48 Z M74.1743164,47.2573242 C74.8302442,47.2573242 75.3454571,47.0774758 75.7199707,46.7177734 C76.0944843,46.3580711 76.2817383,45.8544954 76.2817383,45.2070312 L76.2817383,44.5786133 L75.2280273,44.6230469 C74.3901325,44.6526694 73.7860533,44.7827951 73.4157715,45.0134277 C73.0454897,45.2440604 72.8603516,45.6026994 72.8603516,46.0893555 C72.8603516,46.4702167 72.9756662,46.7600902 73.2062988,46.9589844 C73.4369315,47.1578786 73.7596008,47.2573242 74.1743164,47.2573242 Z M80.5600586,48 L79.5063477,48 L79.5063477,41.0429688 L80.5600586,41.0429688 L80.5600586,48 Z M79.4174805,39.1577148 C79.4174805,38.9165027 79.4767247,38.739828 79.5952148,38.6276855 C79.713705,38.5155431 79.8618155,38.4594727 80.0395508,38.4594727 C80.2088225,38.4594727 80.3548171,38.516601 80.4775391,38.6308594 C80.600261,38.7451178 80.6616211,38.9207345 80.6616211,39.1577148 C80.6616211,39.3946952 80.600261,39.5713699 80.4775391,39.6877441 C80.3548171,39.8041184 80.2088225,39.8623047 80.0395508,39.8623047 C79.8618155,39.8623047 79.713705,39.8041184 79.5952148,39.6877441 C79.4767247,39.5713699 79.4174805,39.3946952 79.4174805,39.1577148 Z M87.2822266,46.1020508 C87.2822266,46.749515 87.041018,47.2488589 86.5585938,47.6000977 C86.0761695,47.9513364 85.3990929,48.1269531 84.5273438,48.1269531 C83.6048131,48.1269531 82.8854192,47.9809585 82.3691406,47.6889648 L82.3691406,46.7114258 C82.7034522,46.8806975 83.0620912,47.0139969 83.4450684,47.1113281 C83.8280455,47.2086593 84.1972638,47.2573242 84.5527344,47.2573242 C85.1028673,47.2573242 85.5260402,47.1695159 85.8222656,46.9938965 C86.1184911,46.8182771 86.2666016,46.5506203 86.2666016,46.190918 C86.2666016,45.9200833 86.1491711,45.6883961 85.9143066,45.4958496 C85.6794422,45.3033031 85.2213576,45.0758477 84.5400391,44.8134766 C83.8925749,44.5722644 83.4323744,44.3617359 83.1594238,44.1818848 C82.8864732,44.0020336 82.6833503,43.7978527 82.5500488,43.5693359 C82.4167474,43.3408192 82.3500977,43.0678727 82.3500977,42.7504883 C82.3500977,42.1834282 82.5807269,41.7359229 83.0419922,41.407959 C83.5032575,41.0799951 84.1359009,40.9160156 84.9399414,40.9160156 C85.6889686,40.9160156 86.4210576,41.0683579 87.1362305,41.3730469 L86.7617188,42.2299805 C86.0634731,41.9422186 85.4308297,41.7983398 84.8637695,41.7983398 C84.3644181,41.7983398 83.9877942,41.8766268 83.7338867,42.0332031 C83.4799792,42.1897794 83.3530273,42.4055976 83.3530273,42.6806641 C83.3530273,42.8668629 83.4006343,43.0255527 83.4958496,43.1567383 C83.5910649,43.2879238 83.7444651,43.4127598 83.9560547,43.53125 C84.1676443,43.6497402 84.5738902,43.8211252 85.1748047,44.0454102 C86.0000041,44.3458674 86.5575344,44.648436 86.8474121,44.953125 C87.1372899,45.257814 87.2822266,45.6407855 87.2822266,46.1020508 Z M93.4838867,46.1020508 C93.4838867,46.749515 93.2426782,47.2488589 92.7602539,47.6000977 C92.2778296,47.9513364 91.6007531,48.1269531 90.7290039,48.1269531 C89.8064733,48.1269531 89.0870794,47.9809585 88.5708008,47.6889648 L88.5708008,46.7114258 C88.9051123,46.8806975 89.2637513,47.0139969 89.6467285,47.1113281 C90.0297057,47.2086593 90.398924,47.2573242 90.7543945,47.2573242 C91.3045275,47.2573242 91.7277003,47.1695159 92.0239258,46.9938965 C92.3201512,46.8182771 92.4682617,46.5506203 92.4682617,46.190918 C92.4682617,45.9200833 92.3508313,45.6883961 92.1159668,45.4958496 C91.8811023,45.3033031 91.4230177,45.0758477 90.7416992,44.8134766 C90.094235,44.5722644 89.6340346,44.3617359 89.361084,44.1818848 C89.0881334,44.0020336 88.8850104,43.7978527 88.751709,43.5693359 C88.6184075,43.3408192 88.5517578,43.0678727 88.5517578,42.7504883 C88.5517578,42.1834282 88.782387,41.7359229 89.2436523,41.407959 C89.7049177,41.0799951 90.3375611,40.9160156 91.1416016,40.9160156 C91.8906287,40.9160156 92.6227178,41.0683579 93.3378906,41.3730469 L92.9633789,42.2299805 C92.2651332,41.9422186 91.6324898,41.7983398 91.0654297,41.7983398 C90.5660782,41.7983398 90.1894544,41.8766268 89.9355469,42.0332031 C89.6816394,42.1897794 89.5546875,42.4055976 89.5546875,42.6806641 C89.5546875,42.8668629 89.6022944,43.0255527 89.6975098,43.1567383 C89.7927251,43.2879238 89.9461252,43.4127598 90.1577148,43.53125 C90.3693044,43.6497402 90.7755504,43.8211252 91.3764648,44.0454102 C92.2016643,44.3458674 92.7591945,44.648436 93.0490723,44.953125 C93.33895,45.257814 93.4838867,45.6407855 93.4838867,46.1020508 Z M99.4760742,48 L99.2666016,47.0097656 L99.2158203,47.0097656 C98.8688134,47.4456402 98.5228696,47.7408033 98.1779785,47.8952637 C97.8330875,48.0497241 97.4025091,48.1269531 96.8862305,48.1269531 C96.1964484,48.1269531 95.6558451,47.9492205 95.2644043,47.59375 C94.8729635,47.2382795 94.6772461,46.7325879 94.6772461,46.0766602 C94.6772461,44.6717052 95.80077,43.9353845 98.0478516,43.8676758 L99.2285156,43.8295898 L99.2285156,43.3979492 C99.2285156,42.8520481 99.1110852,42.4489759 98.8762207,42.1887207 C98.6413562,41.9284655 98.2657903,41.7983398 97.7495117,41.7983398 C97.1697562,41.7983398 96.5138383,41.9760724 95.7817383,42.331543 L95.4580078,41.5253906 C95.800783,41.3391918 96.1763489,41.1931971 96.5847168,41.0874023 C96.9930847,40.9816075 97.4025045,40.9287109 97.8129883,40.9287109 C98.6424195,40.9287109 99.2570781,41.1127911 99.6569824,41.480957 C100.056887,41.8491229 100.256836,42.4394491 100.256836,43.2519531 L100.256836,48 L99.4760742,48 Z M97.0957031,47.2573242 C97.7516309,47.2573242 98.2668438,47.0774758 98.6413574,46.7177734 C99.015871,46.3580711 99.203125,45.8544954 99.203125,45.2070312 L99.203125,44.5786133 L98.1494141,44.6230469 C97.3115192,44.6526694 96.70744,44.7827951 96.3371582,45.0134277 C95.9668764,45.2440604 95.7817383,45.6026994 95.7817383,46.0893555 C95.7817383,46.4702167 95.8970529,46.7600902 96.1276855,46.9589844 C96.3583182,47.1578786 96.6809875,47.2573242 97.0957031,47.2573242 Z M107.188477,48 L107.188477,43.4995117 C107.188477,42.9324516 107.059409,42.5092787 106.80127,42.2299805 C106.54313,41.9506822 106.139,41.8110352 105.588867,41.8110352 C104.860999,41.8110352 104.327801,42.0078105 103.989258,42.4013672 C103.650714,42.7949238 103.481445,43.4444942 103.481445,44.3500977 L103.481445,48 L102.427734,48 L102.427734,41.0429688 L103.284668,41.0429688 L103.456055,41.9951172 L103.506836,41.9951172 C103.722657,41.652342 104.025226,41.3868011 104.414551,41.1984863 C104.803876,41.0101716 105.237628,40.9160156 105.71582,40.9160156 C106.553715,40.9160156 107.184243,41.1180807 107.607422,41.5222168 C108.030601,41.9263529 108.242188,42.5727495 108.242188,43.4614258 L108.242188,48 L107.188477,48 Z M113.187012,48.1269531 C112.179845,48.1269531 111.400149,47.816979 110.8479,47.1970215 C110.295652,46.577064 110.019531,45.7000382 110.019531,44.565918 C110.019531,43.4021752 110.299883,42.5029329 110.860596,41.8681641 C111.421308,41.2333953 112.220047,40.9160156 113.256836,40.9160156 C113.591148,40.9160156 113.925454,40.9519853 114.259766,41.0239258 C114.594077,41.0958662 114.856444,41.1805008 115.046875,41.277832 L114.723145,42.1728516 C114.490396,42.0797521 114.236492,42.0025231 113.961426,41.9411621 C113.686359,41.8798011 113.443035,41.8491211 113.231445,41.8491211 C111.818027,41.8491211 111.111328,42.7504793 111.111328,44.5532227 C111.111328,45.4080446 111.283771,46.0639626 111.628662,46.5209961 C111.973553,46.9780296 112.484534,47.206543 113.161621,47.206543 C113.741377,47.206543 114.335934,47.081707 114.945312,46.8320312 L114.945312,47.7651367 C114.479815,48.0063489 113.893721,48.1269531 113.187012,48.1269531 Z M119.534668,48.1269531 C118.506343,48.1269531 117.694909,47.8138052 117.100342,47.1875 C116.505775,46.5611948 116.208496,45.6915746 116.208496,44.5786133 C116.208496,43.4571884 116.484616,42.5664096 117.036865,41.90625 C117.589114,41.2460904 118.330725,40.9160156 119.261719,40.9160156 C120.133468,40.9160156 120.82324,41.2027152 121.331055,41.776123 C121.83887,42.3495309 122.092773,43.1059523 122.092773,44.0454102 L122.092773,44.7119141 L117.300293,44.7119141 C117.321452,45.5286499 117.527749,46.1485981 117.919189,46.5717773 C118.31063,46.9949565 118.861813,47.206543 119.572754,47.206543 C120.321781,47.206543 121.062334,47.049969 121.794434,46.7368164 L121.794434,47.6762695 C121.422036,47.8370776 121.069744,47.9523922 120.737549,48.0222168 C120.405353,48.0920414 120.004397,48.1269531 119.534668,48.1269531 Z M119.249023,41.7983398 C118.690427,41.7983398 118.245037,41.9803042 117.912842,42.3442383 C117.580646,42.7081724 117.384929,43.2117481 117.325684,43.8549805 L120.962891,43.8549805 C120.962891,43.1905891 120.81478,42.6817238 120.518555,42.3283691 C120.222329,41.9750145 119.799156,41.7983398 119.249023,41.7983398 Z M128.376953,46.1020508 C128.376953,46.749515 128.135745,47.2488589 127.65332,47.6000977 C127.170896,47.9513364 126.493819,48.1269531 125.62207,48.1269531 C124.69954,48.1269531 123.980146,47.9809585 123.463867,47.6889648 L123.463867,46.7114258 C123.798179,46.8806975 124.156818,47.0139969 124.539795,47.1113281 C124.922772,47.2086593 125.29199,47.2573242 125.647461,47.2573242 C126.197594,47.2573242 126.620767,47.1695159 126.916992,46.9938965 C127.213218,46.8182771 127.361328,46.5506203 127.361328,46.190918 C127.361328,45.9200833 127.243898,45.6883961 127.009033,45.4958496 C126.774169,45.3033031 126.316084,45.0758477 125.634766,44.8134766 C124.987301,44.5722644 124.527101,44.3617359 124.25415,44.1818848 C123.9812,44.0020336 123.778077,43.7978527 123.644775,43.5693359 C123.511474,43.3408192 123.444824,43.0678727 123.444824,42.7504883 C123.444824,42.1834282 123.675453,41.7359229 124.136719,41.407959 C124.597984,41.0799951 125.230627,40.9160156 126.034668,40.9160156 C126.783695,40.9160156 127.515784,41.0683579 128.230957,41.3730469 L127.856445,42.2299805 C127.1582,41.9422186 126.525556,41.7983398 125.958496,41.7983398 C125.459145,41.7983398 125.082521,41.8766268 124.828613,42.0332031 C124.574706,42.1897794 124.447754,42.4055976 124.447754,42.6806641 C124.447754,42.8668629 124.495361,43.0255527 124.590576,43.1567383 C124.685791,43.2879238 124.839192,43.4127598 125.050781,43.53125 C125.262371,43.6497402 125.668617,43.8211252 126.269531,44.0454102 C127.094731,44.3458674 127.652261,44.648436 127.942139,44.953125 C128.232016,45.257814 128.376953,45.6407855 128.376953,46.1020508 Z M136.406738,48.1269531 C135.378413,48.1269531 134.566979,47.8138052 133.972412,47.1875 C133.377845,46.5611948 133.080566,45.6915746 133.080566,44.5786133 C133.080566,43.4571884 133.356687,42.5664096 133.908936,41.90625 C134.461184,41.2460904 135.202795,40.9160156 136.133789,40.9160156 C137.005538,40.9160156 137.69531,41.2027152 138.203125,41.776123 C138.71094,42.3495309 138.964844,43.1059523 138.964844,44.0454102 L138.964844,44.7119141 L134.172363,44.7119141 C134.193522,45.5286499 134.399819,46.1485981 134.79126,46.5717773 C135.182701,46.9949565 135.733883,47.206543 136.444824,47.206543 C137.193851,47.206543 137.934404,47.049969 138.666504,46.7368164 L138.666504,47.6762695 C138.294106,47.8370776 137.941815,47.9523922 137.609619,48.0222168 C137.277423,48.0920414 136.876467,48.1269531 136.406738,48.1269531 Z M136.121094,41.7983398 C135.562497,41.7983398 135.117108,41.9803042 134.784912,42.3442383 C134.452716,42.7081724 134.256999,43.2117481 134.197754,43.8549805 L137.834961,43.8549805 C137.834961,43.1905891 137.68685,42.6817238 137.390625,42.3283691 C137.0944,41.9750145 136.671227,41.7983398 136.121094,41.7983398 Z M145.521973,48 L145.521973,43.4995117 C145.521973,42.9324516 145.392905,42.5092787 145.134766,42.2299805 C144.876626,41.9506822 144.472496,41.8110352 143.922363,41.8110352 C143.194495,41.8110352 142.661297,42.0078105 142.322754,42.4013672 C141.984211,42.7949238 141.814941,43.4444942 141.814941,44.3500977 L141.814941,48 L140.76123,48 L140.76123,41.0429688 L141.618164,41.0429688 L141.789551,41.9951172 L141.840332,41.9951172 C142.056153,41.652342 142.358722,41.3868011 142.748047,41.1984863 C143.137372,41.0101716 143.571124,40.9160156 144.049316,40.9160156 C144.887211,40.9160156 145.517739,41.1180807 145.940918,41.5222168 C146.364097,41.9263529 146.575684,42.5727495 146.575684,43.4614258 L146.575684,48 L145.521973,48 Z M153.640625,48 L151,41.0429688 L152.129883,41.0429688 L153.62793,45.1689453 C153.966473,46.1337939 154.165364,46.7600897 154.224609,47.0478516 L154.275391,47.0478516 C154.32194,46.8235666 154.468993,46.3591344 154.716553,45.654541 C154.964113,44.9499476 155.519527,43.4127723 156.382812,41.0429688 L157.512695,41.0429688 L154.87207,48 L153.640625,48 Z M164.634766,44.5151367 C164.634766,45.649257 164.349124,46.5347462 163.777832,47.1716309 C163.20654,47.8085156 162.417323,48.1269531 161.410156,48.1269531 C160.788083,48.1269531 160.235842,47.9809585 159.753418,47.6889648 C159.270994,47.3969712 158.898602,46.9780301 158.63623,46.4321289 C158.373859,45.8862277 158.242676,45.2472367 158.242676,44.5151367 C158.242676,43.3810165 158.526202,42.4976431 159.093262,41.8649902 C159.660322,41.2323373 160.447423,40.9160156 161.45459,40.9160156 C162.427902,40.9160156 163.20125,41.2397429 163.774658,41.887207 C164.348066,42.5346712 164.634766,43.410639 164.634766,44.5151367 Z M159.334473,44.5151367 C159.334473,45.403813 159.512205,46.0808896 159.867676,46.5463867 C160.223146,47.0118838 160.745765,47.2446289 161.435547,47.2446289 C162.125329,47.2446289 162.649005,47.0129418 163.006592,46.5495605 C163.364178,46.0861793 163.542969,45.4080448 163.542969,44.5151367 C163.542969,43.6306922 163.364178,42.9589053 163.006592,42.4997559 C162.649005,42.0406064 162.121097,41.8110352 161.422852,41.8110352 C160.733069,41.8110352 160.212567,42.0374326 159.861328,42.4902344 C159.510089,42.9430361 159.334473,43.6179968 159.334473,44.5151367 Z M168.729004,47.2573242 C168.915203,47.2573242 169.095051,47.2435711 169.268555,47.2160645 C169.442058,47.1885578 169.579589,47.1599936 169.681152,47.1303711 L169.681152,47.9365234 C169.566894,47.9915367 169.398683,48.0370278 169.176514,48.072998 C168.954345,48.1089683 168.754395,48.1269531 168.57666,48.1269531 C167.23095,48.1269531 166.558105,47.4181386 166.558105,46.0004883 L166.558105,41.8618164 L165.561523,41.8618164 L165.561523,41.3540039 L166.558105,40.9160156 L167.002441,39.4306641 L167.611816,39.4306641 L167.611816,41.0429688 L169.630371,41.0429688 L169.630371,41.8618164 L167.611816,41.8618164 L167.611816,45.9560547 C167.611816,46.3750021 167.711262,46.6966135 167.910156,46.9208984 C168.10905,47.1451834 168.381997,47.2573242 168.729004,47.2573242 Z M175.349609,48 L175.140137,47.0097656 L175.089355,47.0097656 C174.742349,47.4456402 174.396405,47.7408033 174.051514,47.8952637 C173.706623,48.0497241 173.276044,48.1269531 172.759766,48.1269531 C172.069984,48.1269531 171.52938,47.9492205 171.137939,47.59375 C170.746499,47.2382795 170.550781,46.7325879 170.550781,46.0766602 C170.550781,44.6717052 171.674305,43.9353845 173.921387,43.8676758 L175.102051,43.8295898 L175.102051,43.3979492 C175.102051,42.8520481 174.98462,42.4489759 174.749756,42.1887207 C174.514891,41.9284655 174.139325,41.7983398 173.623047,41.7983398 C173.043291,41.7983398 172.387373,41.9760724 171.655273,42.331543 L171.331543,41.5253906 C171.674318,41.3391918 172.049884,41.1931971 172.458252,41.0874023 C172.86662,40.9816075 173.27604,40.9287109 173.686523,40.9287109 C174.515955,40.9287109 175.130613,41.1127911 175.530518,41.480957 C175.930422,41.8491229 176.130371,42.4394491 176.130371,43.2519531 L176.130371,48 L175.349609,48 Z M172.969238,47.2573242 C173.625166,47.2573242 174.140379,47.0774758 174.514893,46.7177734 C174.889406,46.3580711 175.07666,45.8544954 175.07666,45.2070312 L175.07666,44.5786133 L174.022949,44.6230469 C173.185054,44.6526694 172.580975,44.7827951 172.210693,45.0134277 C171.840412,45.2440604 171.655273,45.6026994 171.655273,46.0893555 C171.655273,46.4702167 171.770588,46.7600902 172.001221,46.9589844 C172.231853,47.1578786 172.554523,47.2573242 172.969238,47.2573242 Z M183.062012,48 L183.062012,43.4995117 C183.062012,42.9324516 182.932944,42.5092787 182.674805,42.2299805 C182.416665,41.9506822 182.012535,41.8110352 181.462402,41.8110352 C180.734534,41.8110352 180.201336,42.0078105 179.862793,42.4013672 C179.52425,42.7949238 179.35498,43.4444942 179.35498,44.3500977 L179.35498,48 L178.30127,48 L178.30127,41.0429688 L179.158203,41.0429688 L179.32959,41.9951172 L179.380371,41.9951172 C179.596192,41.652342 179.898761,41.3868011 180.288086,41.1984863 C180.677411,41.0101716 181.111163,40.9160156 181.589355,40.9160156 C182.42725,40.9160156 183.057778,41.1180807 183.480957,41.5222168 C183.904136,41.9263529 184.115723,42.5727495 184.115723,43.4614258 L184.115723,48 L183.062012,48 Z M188.527344,47.2573242 C188.713543,47.2573242 188.893391,47.2435711 189.066895,47.2160645 C189.240398,47.1885578 189.377929,47.1599936 189.479492,47.1303711 L189.479492,47.9365234 C189.365234,47.9915367 189.197023,48.0370278 188.974854,48.072998 C188.752684,48.1089683 188.552735,48.1269531 188.375,48.1269531 C187.02929,48.1269531 186.356445,47.4181386 186.356445,46.0004883 L186.356445,41.8618164 L185.359863,41.8618164 L185.359863,41.3540039 L186.356445,40.9160156 L186.800781,39.4306641 L187.410156,39.4306641 L187.410156,41.0429688 L189.428711,41.0429688 L189.428711,41.8618164 L187.410156,41.8618164 L187.410156,45.9560547 C187.410156,46.3750021 187.509602,46.6966135 187.708496,46.9208984 C187.90739,47.1451834 188.180337,47.2573242 188.527344,47.2573242 Z M197.483887,48.1269531 C197.031085,48.1269531 196.617434,48.0433765 196.24292,47.8762207 C195.868406,47.7090649 195.5542,47.4519874 195.300293,47.1049805 L195.224121,47.1049805 C195.274903,47.5112325 195.300293,47.8963198 195.300293,48.2602539 L195.300293,51.1230469 L194.246582,51.1230469 L194.246582,41.0429688 L195.103516,41.0429688 L195.249512,41.9951172 L195.300293,41.9951172 C195.571128,41.6142559 195.886391,41.3391936 196.246094,41.1699219 C196.605796,41.0006502 197.01839,40.9160156 197.483887,40.9160156 C198.406417,40.9160156 199.118406,41.2312794 199.619873,41.8618164 C200.12134,42.4923534 200.37207,43.3767847 200.37207,44.5151367 C200.37207,45.6577206 200.117109,46.5453256 199.607178,47.1779785 C199.097247,47.8106314 198.38949,48.1269531 197.483887,48.1269531 Z M197.331543,41.8110352 C196.620602,41.8110352 196.106447,42.0078105 195.789062,42.4013672 C195.471678,42.7949238 195.308757,43.4212197 195.300293,44.2802734 L195.300293,44.5151367 C195.300293,45.4926807 195.463215,46.1919738 195.789062,46.6130371 C196.11491,47.0341004 196.637529,47.2446289 197.356934,47.2446289 C197.957848,47.2446289 198.428628,47.0013045 198.769287,46.5146484 C199.109946,46.0279924 199.280273,45.3572634 199.280273,44.5024414 C199.280273,43.634924 199.109946,42.9694847 198.769287,42.5061035 C198.428628,42.0427223 197.949385,41.8110352 197.331543,41.8110352 Z M206.491211,48 L206.281738,47.0097656 L206.230957,47.0097656 C205.88395,47.4456402 205.538006,47.7408033 205.193115,47.8952637 C204.848224,48.0497241 204.417646,48.1269531 203.901367,48.1269531 C203.211585,48.1269531 202.670982,47.9492205 202.279541,47.59375 C201.8881,47.2382795 201.692383,46.7325879 201.692383,46.0766602 C201.692383,44.6717052 202.815907,43.9353845 205.062988,43.8676758 L206.243652,43.8295898 L206.243652,43.3979492 C206.243652,42.8520481 206.126222,42.4489759 205.891357,42.1887207 C205.656493,41.9284655 205.280927,41.7983398 204.764648,41.7983398 C204.184893,41.7983398 203.528975,41.9760724 202.796875,42.331543 L202.473145,41.5253906 C202.81592,41.3391918 203.191486,41.1931971 203.599854,41.0874023 C204.008221,40.9816075 204.417641,40.9287109 204.828125,40.9287109 C205.657556,40.9287109 206.272215,41.1127911 206.672119,41.480957 C207.072023,41.8491229 207.271973,42.4394491 207.271973,43.2519531 L207.271973,48 L206.491211,48 Z M204.11084,47.2573242 C204.766768,47.2573242 205.281981,47.0774758 205.656494,46.7177734 C206.031008,46.3580711 206.218262,45.8544954 206.218262,45.2070312 L206.218262,44.5786133 L205.164551,44.6230469 C204.326656,44.6526694 203.722577,44.7827951 203.352295,45.0134277 C202.982013,45.2440604 202.796875,45.6026994 202.796875,46.0893555 C202.796875,46.4702167 202.91219,46.7600902 203.142822,46.9589844 C203.373455,47.1578786 203.696124,47.2573242 204.11084,47.2573242 Z M212.616699,40.9160156 C212.92562,40.9160156 213.202798,40.941406 213.448242,40.9921875 L213.302246,41.9697266 C213.014484,41.9062497 212.760581,41.8745117 212.540527,41.8745117 C211.977699,41.8745117 211.49634,42.1030251 211.096436,42.5600586 C210.696531,43.0170921 210.496582,43.5862596 210.496582,44.2675781 L210.496582,48 L209.442871,48 L209.442871,41.0429688 L210.3125,41.0429688 L210.433105,42.331543 L210.483887,42.331543 C210.742026,41.8787412 211.053058,41.5296236 211.416992,41.2841797 C211.780926,41.0387358 212.180825,40.9160156 212.616699,40.9160156 Z M24.3642578,65.2573242 C24.5504567,65.2573242 24.7303051,65.2435711 24.9038086,65.2160645 C25.0773121,65.1885578 25.2148432,65.1599936 25.3164062,65.1303711 L25.3164062,65.9365234 C25.2021479,65.9915367 25.0339367,66.0370278 24.8117676,66.072998 C24.5895985,66.1089683 24.3896493,66.1269531 24.2119141,66.1269531 C22.8662042,66.1269531 22.1933594,65.4181386 22.1933594,64.0004883 L22.1933594,59.8618164 L21.1967773,59.8618164 L21.1967773,59.3540039 L22.1933594,58.9160156 L22.6376953,57.4306641 L23.2470703,57.4306641 L23.2470703,59.0429688 L25.265625,59.0429688 L25.265625,59.8618164 L23.2470703,59.8618164 L23.2470703,63.9560547 C23.2470703,64.3750021 23.3465159,64.6966135 23.5454102,64.9208984 C23.7443044,65.1451834 24.0172509,65.2573242 24.3642578,65.2573242 Z M29.6455078,66.1269531 C28.6171824,66.1269531 27.8057484,65.8138052 27.2111816,65.1875 C26.6166149,64.5611948 26.3193359,63.6915746 26.3193359,62.5786133 C26.3193359,61.4571884 26.5954562,60.5664096 27.1477051,59.90625 C27.6999539,59.2460904 28.4415644,58.9160156 29.3725586,58.9160156 C30.2443077,58.9160156 30.9340795,59.2027152 31.4418945,59.776123 C31.9497096,60.3495309 32.2036133,61.1059523 32.2036133,62.0454102 L32.2036133,62.7119141 L27.4111328,62.7119141 C27.4322918,63.5286499 27.6385885,64.1485981 28.0300293,64.5717773 C28.4214701,64.9949565 28.9726527,65.206543 29.6835938,65.206543 C30.4326209,65.206543 31.1731734,65.049969 31.9052734,64.7368164 L31.9052734,65.6762695 C31.5328757,65.8370776 31.1805843,65.9523922 30.8483887,66.0222168 C30.516193,66.0920414 30.1152367,66.1269531 29.6455078,66.1269531 Z M29.3598633,59.7983398 C28.8012667,59.7983398 28.3558773,59.9803042 28.0236816,60.3442383 C27.691486,60.7081724 27.4957685,61.2117481 27.4365234,61.8549805 L31.0737305,61.8549805 C31.0737305,61.1905891 30.92562,60.6817238 30.6293945,60.3283691 C30.3331691,59.9750145 29.9099962,59.7983398 29.3598633,59.7983398 Z M35.6757812,62.4389648 L33.2573242,59.0429688 L34.4570312,59.0429688 L36.2915039,61.7089844 L38.1196289,59.0429688 L39.3066406,59.0429688 L36.8881836,62.4389648 L39.4335938,66 L38.2402344,66 L36.2915039,63.1816406 L34.3237305,66 L33.1303711,66 L35.6757812,62.4389648 Z M43.0581055,65.2573242 C43.2443043,65.2573242 43.4241528,65.2435711 43.5976562,65.2160645 C43.7711597,65.1885578 43.9086909,65.1599936 44.0102539,65.1303711 L44.0102539,65.9365234 C43.8959955,65.9915367 43.7277843,66.0370278 43.5056152,66.072998 C43.2834462,66.1089683 43.083497,66.1269531 42.9057617,66.1269531 C41.5600519,66.1269531 40.887207,65.4181386 40.887207,64.0004883 L40.887207,59.8618164 L39.890625,59.8618164 L39.890625,59.3540039 L40.887207,58.9160156 L41.331543,57.4306641 L41.940918,57.4306641 L41.940918,59.0429688 L43.9594727,59.0429688 L43.9594727,59.8618164 L41.940918,59.8618164 L41.940918,63.9560547 C41.940918,64.3750021 42.0403636,64.6966135 42.2392578,64.9208984 C42.438152,65.1451834 42.7110985,65.2573242 43.0581055,65.2573242 Z M51.4052734,62.5151367 C51.4052734,63.649257 51.1196318,64.5347462 50.5483398,65.1716309 C49.9770479,65.8085156 49.1878306,66.1269531 48.1806641,66.1269531 C47.5585906,66.1269531 47.0063501,65.9809585 46.5239258,65.6889648 C46.0415015,65.3969712 45.6691094,64.9780301 45.4067383,64.4321289 C45.1443672,63.8862277 45.0131836,63.2472367 45.0131836,62.5151367 C45.0131836,61.3810165 45.2967094,60.4976431 45.8637695,59.8649902 C46.4308297,59.2323373 47.2179312,58.9160156 48.2250977,58.9160156 C49.1984098,58.9160156 49.9717582,59.2397429 50.545166,59.887207 C51.1185738,60.5346712 51.4052734,61.410639 51.4052734,62.5151367 Z M46.1049805,62.5151367 C46.1049805,63.403813 46.2827131,64.0808896 46.6381836,64.5463867 C46.9936541,65.0118838 47.5162726,65.2446289 48.2060547,65.2446289 C48.8958368,65.2446289 49.4195132,65.0129418 49.7770996,64.5495605 C50.134686,64.0861793 50.3134766,63.4080448 50.3134766,62.5151367 C50.3134766,61.6306922 50.134686,60.9589053 49.7770996,60.4997559 C49.4195132,60.0406064 48.8916051,59.8110352 48.1933594,59.8110352 C47.5035773,59.8110352 46.9830747,60.0374326 46.6318359,60.4902344 C46.2805972,60.9430361 46.1049805,61.6179968 46.1049805,62.5151367 Z M53.1000977,65.3271484 C53.1000977,65.0436184 53.1646315,64.8288582 53.2937012,64.6828613 C53.4227708,64.5368645 53.607909,64.4638672 53.8491211,64.4638672 C54.094565,64.4638672 54.2860507,64.5368645 54.423584,64.6828613 C54.5611172,64.8288582 54.6298828,65.0436184 54.6298828,65.3271484 C54.6298828,65.6022149 54.5600593,65.8138013 54.4204102,65.9619141 C54.280761,66.1100268 54.0903332,66.184082 53.8491211,66.184082 C53.6332997,66.184082 53.4545092,66.1174323 53.3127441,65.9841309 C53.1709791,65.8508294 53.1000977,65.6318375 53.1000977,65.3271484 Z" id="Faites-des-choix-col-Copy-2" fill="#FFFFFF"></path>
                    </g>
                </g>
            </g>
        </g>
    </g>
</svg>