<?xml version="1.0" encoding="UTF-8" standalone="no"?>
<svg width="360px" height="601px" viewBox="0 0 360 601" version="1.1" xmlns="http://www.w3.org/2000/svg" xmlns:xlink="http://www.w3.org/1999/xlink">
    <!-- Generator: Sketch 41.2 (35397) - http://www.bohemiancoding.com/sketch -->
    <title>Phone</title>
    <desc>Created with Sketch.</desc>
    <defs>
        <rect id="path-1" x="0" y="0" width="354" height="595" rx="4"></rect>
        <filter x="-50%" y="-50%" width="200%" height="200%" filterUnits="objectBoundingBox" id="filter-2">
            <feOffset dx="0" dy="2" in="SourceAlpha" result="shadowOffsetOuter1"></feOffset>
            <feGaussianBlur stdDeviation="1.5" in="shadowOffsetOuter1" result="shadowBlurOuter1"></feGaussianBlur>
            <feColorMatrix values="0 0 0 0 0.929411765   0 0 0 0 0.929411765   0 0 0 0 0.929411765  0 0 0 0.5 0" type="matrix" in="shadowBlurOuter1"></feColorMatrix>
        </filter>
    </defs>
    <g id="Page-1" stroke="none" stroke-width="1" fill="none" fill-rule="evenodd">
        <g id="Desktop-HD" transform="translate(-438.000000, -398.000000)">
            <g id="PREMIERE-LAME" transform="translate(-155.000000, -21.000000)">
                <g id="Phone" transform="translate(596.000000, 420.000000)">
                    <g id="Rectangle-14">
                        <use fill="black" fill-opacity="1" filter="url(#filter-2)" xlink:href="#path-1"></use>
                        <use fill="#FFFFFF" fill-rule="evenodd" xlink:href="#path-1"></use>
                    </g>
                    <g id="Group-11" transform="translate(121.000000, 15.000000)" fill="#3D3D3D">
                        <path d="M10.765625,24.2578125 C10.765625,26.2630309 10.4596385,27.747391 9.84765625,28.7109375 C9.23567402,29.674484 8.30990203,30.15625 7.0703125,30.15625 C5.8775982,30.15625 4.97135727,29.6601612 4.3515625,28.6679688 C3.73176773,27.6757763 3.421875,26.2057389 3.421875,24.2578125 C3.421875,22.2682192 3.72265324,20.7942756 4.32421875,19.8359375 C4.92578426,18.8775994 5.84113969,18.3984375 7.0703125,18.3984375 C8.27344352,18.3984375 9.19010102,18.8945263 9.8203125,19.8867188 C10.450524,20.8789112 10.765625,22.3359279 10.765625,24.2578125 Z M4.265625,24.2578125 C4.265625,26.0286547 4.49739352,27.3372354 4.9609375,28.1835938 C5.42448148,29.0299521 6.12759945,29.453125 7.0703125,29.453125 C8.05469242,29.453125 8.77213316,29.0156294 9.22265625,28.140625 C9.67317934,27.2656206 9.8984375,25.9713627 9.8984375,24.2578125 C9.8984375,22.5703041 9.67317934,21.2890669 9.22265625,20.4140625 C8.77213316,19.5390581 8.05469242,19.1015625 7.0703125,19.1015625 C6.08593258,19.1015625 5.37239805,19.5390581 4.9296875,20.4140625 C4.48697695,21.2890669 4.265625,22.5703041 4.265625,24.2578125 Z M12.6796875,25.1328125 C12.6796875,23.6484301 12.8815084,22.3997446 13.2851562,21.3867188 C13.6888041,20.3736929 14.261715,19.6223983 15.0039062,19.1328125 C15.7460975,18.6432267 16.6406198,18.3984375 17.6875,18.3984375 C18.1770858,18.3984375 18.624998,18.4583327 19.03125,18.578125 L19.03125,19.265625 C18.6510398,19.1249993 18.192711,19.0546875 17.65625,19.0546875 C16.3697852,19.0546875 15.3684932,19.5182245 14.6523438,20.4453125 C13.9361943,21.3724005 13.5338546,22.7213453 13.4453125,24.4921875 L13.546875,24.4921875 C13.9427103,23.9817683 14.3958308,23.5963555 14.90625,23.3359375 C15.4166692,23.0755195 15.9557263,22.9453125 16.5234375,22.9453125 C17.5911512,22.9453125 18.4257782,23.249997 19.0273438,23.859375 C19.6289093,24.468753 19.9296875,25.3098905 19.9296875,26.3828125 C19.9296875,27.549485 19.6132844,28.4700487 18.9804688,29.1445312 C18.3476531,29.8190138 17.494797,30.15625 16.421875,30.15625 C15.2656192,30.15625 14.3528679,29.7148482 13.6835938,28.8320312 C13.0143196,27.9492143 12.6796875,26.7161538 12.6796875,25.1328125 Z M16.421875,29.46875 C17.2760459,29.46875 17.9401018,29.2005235 18.4140625,28.6640625 C18.8880232,28.1276015 19.125,27.3619841 19.125,26.3671875 C19.125,25.4921831 18.8906273,24.8098983 18.421875,24.3203125 C17.9531227,23.8307267 17.3151082,23.5859375 16.5078125,23.5859375 C15.9765598,23.5859375 15.4830752,23.7031238 15.0273438,23.9375 C14.5716123,24.1718762 14.2083347,24.483071 13.9375,24.8710938 C13.6666653,25.2591165 13.53125,25.656248 13.53125,26.0625 C13.53125,26.6406279 13.660155,27.1966119 13.9179688,27.7304688 C14.1757825,28.2643256 14.5247374,28.6874984 14.9648438,29 C15.4049501,29.3125016 15.8906223,29.46875 16.421875,29.46875 Z M33.859375,27.0859375 L31.890625,27.0859375 L31.890625,30 L31.15625,30 L31.15625,27.0859375 L25.28125,27.0859375 L25.28125,26.5625 L30.9453125,18.515625 L31.890625,18.515625 L31.890625,26.4140625 L33.859375,26.4140625 L33.859375,27.0859375 Z M31.15625,26.4140625 L31.15625,23.1484375 C31.15625,21.575513 31.192708,20.2552137 31.265625,19.1875 L31.203125,19.1875 C31.0989578,19.3802093 30.7786485,19.8697877 30.2421875,20.65625 L26.2109375,26.4140625 L31.15625,26.4140625 Z M42.9921875,27.0859375 L41.0234375,27.0859375 L41.0234375,30 L40.2890625,30 L40.2890625,27.0859375 L34.4140625,27.0859375 L34.4140625,26.5625 L40.078125,18.515625 L41.0234375,18.515625 L41.0234375,26.4140625 L42.9921875,26.4140625 L42.9921875,27.0859375 Z M40.2890625,26.4140625 L40.2890625,23.1484375 C40.2890625,21.575513 40.3255205,20.2552137 40.3984375,19.1875 L40.3359375,19.1875 C40.2317703,19.3802093 39.911461,19.8697877 39.375,20.65625 L35.34375,26.4140625 L40.2890625,26.4140625 Z M48.390625,25.1328125 C48.390625,23.6484301 48.5924459,22.3997446 48.9960938,21.3867188 C49.3997416,20.3736929 49.9726525,19.6223983 50.7148438,19.1328125 C51.457035,18.6432267 52.3515573,18.3984375 53.3984375,18.3984375 C53.8880233,18.3984375 54.3359355,18.4583327 54.7421875,18.578125 L54.7421875,19.265625 C54.3619773,19.1249993 53.9036485,19.0546875 53.3671875,19.0546875 C52.0807227,19.0546875 51.0794307,19.5182245 50.3632812,20.4453125 C49.6471318,21.3724005 49.2447921,22.7213453 49.15625,24.4921875 L49.2578125,24.4921875 C49.6536478,23.9817683 50.1067683,23.5963555 50.6171875,23.3359375 C51.1276067,23.0755195 51.6666638,22.9453125 52.234375,22.9453125 C53.3020887,22.9453125 54.1367157,23.249997 54.7382812,23.859375 C55.3398468,24.468753 55.640625,25.3098905 55.640625,26.3828125 C55.640625,27.549485 55.3242219,28.4700487 54.6914062,29.1445312 C54.0585906,29.8190138 53.2057345,30.15625 52.1328125,30.15625 C50.9765567,30.15625 50.0638054,29.7148482 49.3945312,28.8320312 C48.7252571,27.9492143 48.390625,26.7161538 48.390625,25.1328125 Z M52.1328125,29.46875 C52.9869834,29.46875 53.6510393,29.2005235 54.125,28.6640625 C54.5989607,28.1276015 54.8359375,27.3619841 54.8359375,26.3671875 C54.8359375,25.4921831 54.6015648,24.8098983 54.1328125,24.3203125 C53.6640602,23.8307267 53.0260457,23.5859375 52.21875,23.5859375 C51.6874973,23.5859375 51.1940127,23.7031238 50.7382812,23.9375 C50.2825498,24.1718762 49.9192722,24.483071 49.6484375,24.8710938 C49.3776028,25.2591165 49.2421875,25.656248 49.2421875,26.0625 C49.2421875,26.6406279 49.3710925,27.1966119 49.6289062,27.7304688 C49.88672,28.2643256 50.2356749,28.6874984 50.6757812,29 C51.1158876,29.3125016 51.6015598,29.46875 52.1328125,29.46875 Z M64.1484375,21.265625 C64.1484375,21.9739619 63.9257835,22.5703101 63.4804688,23.0546875 C63.035154,23.5390649 62.4375037,23.8489577 61.6875,23.984375 L61.6875,24.03125 C62.6041713,24.1458339 63.3020809,24.4374977 63.78125,24.90625 C64.2604191,25.3750023 64.5,26.0052044 64.5,26.796875 C64.5,27.8645887 64.1367224,28.6914033 63.4101562,29.2773438 C62.6835901,29.8632842 61.6380277,30.15625 60.2734375,30.15625 C59.1119734,30.15625 58.0989627,29.9401063 57.234375,29.5078125 L57.234375,28.734375 C57.6718772,28.9635428 58.1627577,29.1432285 58.7070312,29.2734375 C59.2513048,29.4036465 59.7630184,29.46875 60.2421875,29.46875 C61.3932349,29.46875 62.2578096,29.2356794 62.8359375,28.7695312 C63.4140654,28.3033831 63.703125,27.6458376 63.703125,26.796875 C63.703125,26.0416629 63.407555,25.4609395 62.8164062,25.0546875 C62.2252575,24.6484355 61.3567766,24.4453125 60.2109375,24.4453125 L58.9765625,24.4453125 L58.9765625,23.6953125 L60.2265625,23.6953125 C61.1744839,23.6953125 61.9257785,23.4700543 62.4804688,23.0195312 C63.035159,22.5690082 63.3125,21.9583372 63.3125,21.1875 C63.3125,20.5520802 63.0872418,20.0429707 62.6367188,19.6601562 C62.1861957,19.2773418 61.5963578,19.0859375 60.8671875,19.0859375 C60.2994763,19.0859375 59.7812523,19.1653638 59.3125,19.3242188 C58.8437477,19.4830737 58.3177113,19.7552064 57.734375,20.140625 L57.3515625,19.6171875 C57.794273,19.247394 58.3281219,18.9544282 58.953125,18.7382812 C59.5781281,18.5221343 60.2109343,18.4140625 60.8515625,18.4140625 C61.9036511,18.4140625 62.716143,18.6627579 63.2890625,19.1601562 C63.861982,19.6575546 64.1484375,20.3593705 64.1484375,21.265625 Z M75.1171875,30 L74.3515625,30 L74.3515625,21.6796875 C74.3515625,20.9244754 74.3828122,20.1406291 74.4453125,19.328125 C74.3671871,19.4062504 74.2864588,19.4817705 74.203125,19.5546875 C74.1197912,19.6276045 73.3151118,20.2604107 71.7890625,21.453125 L71.34375,20.8984375 L74.4453125,18.578125 L75.1171875,18.578125 L75.1171875,30 Z M84.25,30 L83.484375,30 L83.484375,21.6796875 C83.484375,20.9244754 83.5156247,20.1406291 83.578125,19.328125 C83.4999996,19.4062504 83.4192713,19.4817705 83.3359375,19.5546875 C83.2526037,19.6276045 82.4479243,20.2604107 80.921875,21.453125 L80.4765625,20.8984375 L83.578125,18.578125 L84.25,18.578125 L84.25,30 Z M100.242188,30 L93.09375,30 L93.09375,29.3125 L96.1328125,26.140625 C96.9869834,25.2552039 97.5859358,24.5781273 97.9296875,24.109375 C98.2734392,23.6406227 98.5260409,23.1927105 98.6875,22.765625 C98.8489591,22.3385395 98.9296875,21.8906273 98.9296875,21.421875 C98.9296875,20.7395799 98.7057314,20.184898 98.2578125,19.7578125 C97.8098936,19.330727 97.2291702,19.1171875 96.515625,19.1171875 C95.5624952,19.1171875 94.651046,19.4635382 93.78125,20.15625 L93.359375,19.6171875 C94.3125048,18.8151002 95.3697859,18.4140625 96.53125,18.4140625 C97.5260466,18.4140625 98.3085909,18.6796848 98.8789062,19.2109375 C99.4492216,19.7421902 99.734375,20.4739537 99.734375,21.40625 C99.734375,22.1614621 99.5429707,22.8919236 99.1601562,23.5976562 C98.7773418,24.3033889 98.0781301,25.174474 97.0625,26.2109375 L94.1328125,29.21875 L94.1328125,29.25 L100.242188,29.25 L100.242188,30 Z M109.4375,23.421875 C109.4375,24.9218825 109.240887,26.1770783 108.847656,27.1875 C108.454425,28.1979217 107.881514,28.9453101 107.128906,29.4296875 C106.376298,29.9140649 105.466151,30.15625 104.398438,30.15625 C103.856768,30.15625 103.356773,30.0885423 102.898438,29.953125 L102.898438,29.28125 C103.122397,29.354167 103.391926,29.4101561 103.707031,29.4492188 C104.022137,29.4882814 104.26302,29.5078125 104.429688,29.5078125 C105.716152,29.5078125 106.723955,29.0429734 107.453125,28.1132812 C108.182295,27.1835891 108.588541,25.8281339 108.671875,24.046875 L108.578125,24.046875 C108.197915,24.5468775 107.744794,24.9309882 107.21875,25.1992188 C106.692706,25.4674493 106.143232,25.6015625 105.570312,25.6015625 C104.513016,25.6015625 103.688805,25.3098988 103.097656,24.7265625 C102.506507,24.1432262 102.210938,23.3151095 102.210938,22.2421875 C102.210938,21.0963484 102.535153,20.1692744 103.183594,19.4609375 C103.832034,18.7526006 104.674474,18.3984375 105.710938,18.3984375 C106.460941,18.3984375 107.117185,18.5950501 107.679688,18.9882812 C108.24219,19.3815124 108.67578,19.9583295 108.980469,20.71875 C109.285158,21.4791705 109.4375,22.3802031 109.4375,23.421875 Z M105.710938,19.0859375 C104.888017,19.0859375 104.231773,19.3632785 103.742188,19.9179688 C103.252602,20.472659 103.007812,21.231766 103.007812,22.1953125 C103.007812,23.101567 103.234373,23.7890602 103.6875,24.2578125 C104.140627,24.7265648 104.789058,24.9609375 105.632812,24.9609375 C106.158857,24.9609375 106.649737,24.8437512 107.105469,24.609375 C107.5612,24.3749988 107.923176,24.063804 108.191406,23.6757812 C108.459637,23.2877585 108.59375,22.8932312 108.59375,22.4921875 C108.59375,21.8828095 108.472657,21.3125027 108.230469,20.78125 C107.98828,20.2499973 107.649742,19.8346369 107.214844,19.5351562 C106.779946,19.2356756 106.278649,19.0859375 105.710938,19.0859375 Z" id="06-44-63-11-29-copy"></path>
                        <path d="M44.0895996,10 L41.6945801,4.06738281 L41.6594238,4.06738281 C41.6828614,4.43066588 41.6945801,4.80273247 41.6945801,5.18359375 L41.6945801,10 L41.263916,10 L41.263916,3.57519531 L41.958252,3.57519531 L44.2346191,9.2265625 L44.2609863,9.2265625 L46.5373535,3.57519531 L47.2141113,3.57519531 L47.2141113,10 L46.7614746,10 L46.7614746,5.13085938 C46.7614746,4.79101393 46.7790526,4.43945494 46.814209,4.07617188 L46.7790527,4.07617188 L44.3752441,10 L44.0895996,10 Z M50.8000488,5.13085938 C51.0021983,5.13085938 51.218993,5.15136698 51.4504395,5.19238281 L51.3669434,5.60986328 C51.1677236,5.56005834 50.9611827,5.53515625 50.7473145,5.53515625 C50.3400859,5.53515625 50.0061048,5.70800608 49.7453613,6.05371094 C49.4846178,6.39941579 49.354248,6.83593486 49.354248,7.36328125 L49.354248,10 L48.9191895,10 L48.9191895,5.22314453 L49.2883301,5.22314453 L49.3322754,6.08447266 L49.3630371,6.08447266 C49.5593272,5.7329084 49.7687977,5.48608469 49.9914551,5.34399414 C50.2141124,5.20190359 50.483641,5.13085938 50.8000488,5.13085938 Z M59.9890137,10 L59.619873,10 L58.2092285,5.04296875 C58.0920404,4.63574015 58.0041507,4.30175912 57.9455566,4.04101562 C57.8986814,4.29589971 57.8320317,4.58886553 57.7456055,4.91992188 C57.6591793,5.25097822 57.1867719,6.94432066 56.3283691,10 L55.9504395,10 L54.1838379,3.57519531 L54.6540527,3.57519531 L55.7790527,7.71484375 C55.8229983,7.88183677 55.8640135,8.03637624 55.9020996,8.1784668 C55.9401857,8.32055735 55.9746092,8.4538568 56.0053711,8.57836914 C56.036133,8.70288148 56.0639647,8.82299747 56.0888672,8.9387207 C56.1137697,9.05444394 56.1364745,9.17089785 56.1569824,9.28808594 C56.2272953,8.88964645 56.3767078,8.28467203 56.6052246,7.47314453 L57.7038574,3.57519531 L58.2004395,3.57519531 L59.4880371,8.04882812 C59.6374519,8.5644557 59.7443844,8.98046717 59.8088379,9.296875 C59.846924,9.08593645 59.8959958,8.86181759 59.9560547,8.62451172 C60.0161136,8.38720584 60.4680134,6.70411721 61.3117676,3.57519531 L61.7644043,3.57519531 L59.9890137,10 Z M65.5085449,10 L65.3986816,9.24414062 L65.3635254,9.24414062 C65.1232898,9.55175935 64.8764661,9.76928647 64.6230469,9.89672852 C64.3696276,10.0241706 64.0700701,10.0878906 63.7243652,10.0878906 C63.2556129,10.0878906 62.8908704,9.96777464 62.630127,9.72753906 C62.3693835,9.48730349 62.2390137,9.15478728 62.2390137,8.72998047 C62.2390137,8.26415783 62.4331035,7.90234504 62.8212891,7.64453125 C63.2094746,7.38671746 63.7712366,7.25048835 64.5065918,7.23583984 L65.4162598,7.20947266 L65.4162598,6.89306641 C65.4162598,6.43896257 65.3239755,6.09619256 65.1394043,5.86474609 C64.9548331,5.63329962 64.6574728,5.51757812 64.2473145,5.51757812 C63.8049294,5.51757812 63.3464379,5.64062377 62.8718262,5.88671875 L62.7092285,5.50878906 C63.2336452,5.26269408 63.7521947,5.13964844 64.2648926,5.13964844 C64.7893093,5.13964844 65.181151,5.27587754 65.4404297,5.54833984 C65.6997083,5.82080214 65.8293457,6.24560258 65.8293457,6.82275391 L65.8293457,10 L65.5085449,10 Z M63.7507324,9.69238281 C64.2605006,9.69238281 64.6625962,9.54663232 64.9570312,9.25512695 C65.2514663,8.96362159 65.3986816,8.55859634 65.3986816,8.04003906 L65.3986816,7.56982422 L64.5637207,7.60498047 C63.8928189,7.63720719 63.4145522,7.74194247 63.1289062,7.91918945 C62.8432603,8.09643643 62.7004395,8.37255672 62.7004395,8.74755859 C62.7004395,9.04638821 62.7919913,9.27856363 62.9750977,9.4440918 C63.158204,9.60961997 63.4167464,9.69238281 63.7507324,9.69238281 Z M67.8112793,10 L67.3762207,10 L67.3762207,3.16210938 L67.8112793,3.16210938 L67.8112793,10 Z M69.8459473,10 L69.4108887,10 L69.4108887,3.16210938 L69.8459473,3.16210938 L69.8459473,10 Z" id="Mr-Wall-Copy"></path>
                    </g>
                    <path d="M0,65 L353,65" id="Line" stroke-opacity="0.2" stroke="#979797" stroke-linecap="square"></path>
                    <g id="Page-1" transform="translate(18.000000, 26.000000)" fill="#50E2C1">
                        <path d="M0.0034379746,6.92652997 C0.0206553753,7.05385246 0.0847986326,7.17008117 0.182701499,7.25183382 L7.6099843,13.5667563 C7.80325807,13.7712232 8.12380556,13.7785622 8.32585682,13.5829702 C8.52807687,13.387549 8.53533519,13.0634399 8.34206143,12.8589729 C8.31691052,12.8325185 8.28889004,12.8086242 8.25867519,12.7881434 L1.29052307,6.86252738 L8.25867519,0.936911377 C8.49077251,0.779038316 8.55238379,0.460902764 8.3962456,0.226226592 C8.24010741,-0.00844958001 7.92529905,-0.0705747629 7.69320174,0.0872982981 C7.66298689,0.107779128 7.63513521,0.131673429 7.6099843,0.158298507 L0.182870297,6.47322095 C0.0510390235,6.58381743 -0.0164801948,6.75449101 0.0034379746,6.92652997" id="Fill-1"></path>
                    </g>
                    <g id="DOWN" transform="translate(0.000000, 484.000000)">
                        <path d="M0,1 L353,1" id="Line-Copy" stroke-opacity="0.2" stroke="#979797" stroke-linecap="square"></path>
                        <g id="REDIGER" transform="translate(24.000000, 20.000000)">
                            <path d="M2.53613281,11.84375 L2.53613281,16 L1.37402344,16 L1.37402344,6.00585938 L4.11523438,6.00585938 C5.34115196,6.00585938 6.24690462,6.24055755 6.83251953,6.70996094 C7.41813444,7.17936433 7.7109375,7.88573747 7.7109375,8.82910156 C7.7109375,10.1507228 7.04102232,11.043943 5.70117188,11.5087891 L8.41503906,16 L7.04101562,16 L4.62109375,11.84375 L2.53613281,11.84375 Z M2.53613281,10.8457031 L4.12890625,10.8457031 C4.94922285,10.8457031 5.55077934,10.6827816 5.93359375,10.3569336 C6.31640816,10.0310856 6.5078125,9.54232097 6.5078125,8.890625 C6.5078125,8.2298144 6.31299023,7.75358219 5.92333984,7.46191406 C5.53368946,7.17024594 4.90820743,7.02441406 4.046875,7.02441406 L2.53613281,7.02441406 L2.53613281,10.8457031 Z M13.0224609,16.1367188 C11.9150335,16.1367188 11.0411816,15.7994825 10.4008789,15.125 C9.76057623,14.4505175 9.44042969,13.5140034 9.44042969,12.3154297 C9.44042969,11.1077414 9.73779,10.1484411 10.3325195,9.4375 C10.9272491,8.72655895 11.7259064,8.37109375 12.7285156,8.37109375 C13.6673224,8.37109375 14.4101535,8.67984717 14.9570312,9.29736328 C15.503909,9.91487939 15.7773438,10.7294871 15.7773438,11.7412109 L15.7773438,12.4589844 L10.6162109,12.4589844 C10.6389975,13.3385461 10.8611633,14.0061826 11.2827148,14.4619141 C11.7042664,14.9176455 12.2978477,15.1455078 13.0634766,15.1455078 C13.8701212,15.1455078 14.6676393,14.9768897 15.4560547,14.6396484 L15.4560547,15.6513672 C15.055011,15.8245451 14.6756203,15.9487301 14.3178711,16.0239258 C13.9601219,16.0991215 13.5283228,16.1367188 13.0224609,16.1367188 Z M12.7148438,9.32128906 C12.1132782,9.32128906 11.6336281,9.51725064 11.2758789,9.90917969 C10.9181297,10.3011087 10.7073571,10.843421 10.6435547,11.5361328 L14.5605469,11.5361328 C14.5605469,10.8206344 14.4010433,10.2726256 14.0820312,9.89208984 C13.7630192,9.51155409 13.3072946,9.32128906 12.7148438,9.32128906 Z M11.8740234,7.34570312 C12.0927745,7.06314963 12.328612,6.72135617 12.581543,6.3203125 C12.8344739,5.91926883 13.0338534,5.5706395 13.1796875,5.27441406 L14.5605469,5.27441406 L14.5605469,5.41796875 C14.360025,5.71419419 14.0615254,6.07877388 13.6650391,6.51171875 C13.2685527,6.94466362 12.9244806,7.27962121 12.6328125,7.51660156 L11.8740234,7.51660156 L11.8740234,7.34570312 Z M22.8115234,14.9951172 L22.75,14.9951172 C22.2259088,15.7561887 21.4420625,16.1367188 20.3984375,16.1367188 C19.4186149,16.1367188 18.6564155,15.8017612 18.1118164,15.1318359 C17.5672173,14.4619107 17.2949219,13.5094463 17.2949219,12.2744141 C17.2949219,11.0393818 17.5683566,10.0800815 18.1152344,9.39648438 C18.6621121,8.71288721 19.4231722,8.37109375 20.3984375,8.37109375 C21.4147186,8.37109375 22.1940077,8.74023068 22.7363281,9.47851562 L22.8251953,9.47851562 L22.7773438,8.93847656 L22.75,8.41210938 L22.75,5.36328125 L23.8847656,5.36328125 L23.8847656,16 L22.9619141,16 L22.8115234,14.9951172 Z M20.5419922,15.1865234 C21.3167356,15.1865234 21.8784162,14.9757508 22.2270508,14.5541992 C22.5756853,14.1326476 22.75,13.4524787 22.75,12.5136719 L22.75,12.2744141 C22.75,11.2125598 22.5734067,10.4549176 22.2202148,10.0014648 C21.867023,9.54801206 21.3030638,9.32128906 20.5283203,9.32128906 C19.8629524,9.32128906 19.3536802,9.57991278 19.0004883,10.097168 C18.6472964,10.6144232 18.4707031,11.3447218 18.4707031,12.2880859 C18.4707031,13.245122 18.6461571,13.9674455 18.9970703,14.4550781 C19.3479835,14.9427108 19.8629523,15.1865234 20.5419922,15.1865234 Z M27.4257812,16 L26.2910156,16 L26.2910156,8.5078125 L27.4257812,8.5078125 L27.4257812,16 Z M26.1953125,6.47753906 C26.1953125,6.21777214 26.2591139,6.02750711 26.3867188,5.90673828 C26.5143236,5.78596945 26.6738272,5.72558594 26.8652344,5.72558594 C27.047527,5.72558594 27.2047519,5.78710876 27.3369141,5.91015625 C27.4690762,6.03320374 27.5351562,6.22232945 27.5351562,6.47753906 C27.5351562,6.73274867 27.4690762,6.9230137 27.3369141,7.04833984 C27.2047519,7.17366599 27.047527,7.23632812 26.8652344,7.23632812 C26.6738272,7.23632812 26.5143236,7.17366599 26.3867188,7.04833984 C26.2591139,6.9230137 26.1953125,6.73274867 26.1953125,6.47753906 Z M35.9638672,8.5078125 L35.9638672,9.22558594 L34.5761719,9.38964844 C34.7037767,9.54915444 34.8177078,9.75764845 34.9179688,10.0151367 C35.0182297,10.272625 35.0683594,10.5631494 35.0683594,10.8867188 C35.0683594,11.6204464 34.8177108,12.2060525 34.3164062,12.6435547 C33.8151017,13.0810569 33.1269575,13.2998047 32.2519531,13.2998047 C32.0286447,13.2998047 31.8190114,13.2815757 31.6230469,13.2451172 C31.1399715,13.5003268 30.8984375,13.8216126 30.8984375,14.2089844 C30.8984375,14.4140635 30.9827466,14.565592 31.1513672,14.6635742 C31.3199878,14.7615565 31.6093729,14.8105469 32.0195312,14.8105469 L33.3457031,14.8105469 C34.1569051,14.8105469 34.7801085,14.9814436 35.215332,15.3232422 C35.6505556,15.6650408 35.8681641,16.1617806 35.8681641,16.8134766 C35.8681641,17.6429078 35.5354851,18.2752257 34.8701172,18.7104492 C34.2047493,19.1456727 33.2340559,19.3632812 31.9580078,19.3632812 C30.9781852,19.3632812 30.2228217,19.1809914 29.6918945,18.8164062 C29.1609674,18.4518211 28.8955078,17.9368523 28.8955078,17.2714844 C28.8955078,16.8157529 29.0413397,16.4215511 29.3330078,16.0888672 C29.6246759,15.7561832 30.0348281,15.5305996 30.5634766,15.4121094 C30.3720694,15.3255204 30.2114264,15.1910816 30.081543,15.0087891 C29.9516595,14.8264965 29.8867188,14.6145845 29.8867188,14.3730469 C29.8867188,14.099608 29.9596347,13.8603526 30.1054688,13.6552734 C30.2513028,13.4501943 30.4814437,13.2519541 30.7958984,13.0605469 C30.4085267,12.9010409 30.0929374,12.6298847 29.8491211,12.2470703 C29.6053048,11.8642559 29.4833984,11.4267603 29.4833984,10.9345703 C29.4833984,10.1142537 29.7294897,9.48193582 30.2216797,9.03759766 C30.7138696,8.5932595 31.4111283,8.37109375 32.3134766,8.37109375 C32.7054056,8.37109375 33.0585922,8.41666621 33.3730469,8.5078125 L35.9638672,8.5078125 Z M29.9892578,17.2578125 C29.9892578,17.6634135 30.1601545,17.9710276 30.5019531,18.1806641 C30.8437517,18.3903005 31.3336557,18.4951172 31.9716797,18.4951172 C32.9241584,18.4951172 33.6293922,18.3527032 34.0874023,18.0678711 C34.5454124,17.7830389 34.7744141,17.3968123 34.7744141,16.9091797 C34.7744141,16.5035787 34.6490898,16.2221688 34.3984375,16.0649414 C34.1477852,15.9077141 33.6761102,15.8291016 32.9833984,15.8291016 L31.6230469,15.8291016 C31.1080703,15.8291016 30.7070327,15.9521472 30.4199219,16.1982422 C30.1328111,16.4443372 29.9892578,16.7975237 29.9892578,17.2578125 Z M30.6044922,10.9072266 C30.6044922,11.4313177 30.7526027,11.8277981 31.0488281,12.0966797 C31.3450536,12.3655612 31.7574843,12.5 32.2861328,12.5 C33.3935602,12.5 33.9472656,11.962245 33.9472656,10.8867188 C33.9472656,9.76106208 33.3867244,9.19824219 32.265625,9.19824219 C31.7324192,9.19824219 31.3222671,9.34179544 31.0351562,9.62890625 C30.7480454,9.91601706 30.6044922,10.3421196 30.6044922,10.9072266 Z M40.6669922,16.1367188 C39.5595648,16.1367188 38.6857128,15.7994825 38.0454102,15.125 C37.4051075,14.4505175 37.0849609,13.5140034 37.0849609,12.3154297 C37.0849609,11.1077414 37.3823212,10.1484411 37.9770508,9.4375 C38.5717803,8.72655895 39.3704377,8.37109375 40.3730469,8.37109375 C41.3118537,8.37109375 42.0546848,8.67984717 42.6015625,9.29736328 C43.1484402,9.91487939 43.421875,10.7294871 43.421875,11.7412109 L43.421875,12.4589844 L38.2607422,12.4589844 C38.2835288,13.3385461 38.5056945,14.0061826 38.9272461,14.4619141 C39.3487977,14.9176455 39.942379,15.1455078 40.7080078,15.1455078 C41.5146525,15.1455078 42.3121705,14.9768897 43.1005859,14.6396484 L43.1005859,15.6513672 C42.6995423,15.8245451 42.3201515,15.9487301 41.9624023,16.0239258 C41.6046532,16.0991215 41.1728541,16.1367188 40.6669922,16.1367188 Z M40.359375,9.32128906 C39.7578095,9.32128906 39.2781593,9.51725064 38.9204102,9.90917969 C38.562661,10.3011087 38.3518883,10.843421 38.2880859,11.5361328 L42.2050781,11.5361328 C42.2050781,10.8206344 42.0455745,10.2726256 41.7265625,9.89208984 C41.4075505,9.51155409 40.9518259,9.32128906 40.359375,9.32128906 Z M48.7744141,8.37109375 C49.107098,8.37109375 49.4055976,8.39843723 49.6699219,8.453125 L49.5126953,9.50585938 C49.2027979,9.43749966 48.9293632,9.40332031 48.6923828,9.40332031 C48.08626,9.40332031 47.5678732,9.6494116 47.137207,10.1416016 C46.7065408,10.6337915 46.4912109,11.2467411 46.4912109,11.9804688 L46.4912109,16 L45.3564453,16 L45.3564453,8.5078125 L46.2929688,8.5078125 L46.4228516,9.89550781 L46.4775391,9.89550781 C46.7555352,9.40787517 47.0904928,9.03190236 47.4824219,8.76757812 C47.8743509,8.50325389 48.3050107,8.37109375 48.7744141,8.37109375 Z M55.7744141,8.5078125 L55.7744141,13.3681641 C55.7744141,13.9788442 55.9134101,14.4345688 56.1914063,14.7353516 C56.4694024,15.0361343 56.9046194,15.1865234 57.4970703,15.1865234 C58.2809284,15.1865234 58.8540021,14.9723329 59.2163086,14.5439453 C59.5786151,14.1155578 59.7597656,13.4160205 59.7597656,12.4453125 L59.7597656,8.5078125 L60.8945313,8.5078125 L60.8945313,16 L59.9580078,16 L59.7939453,14.9951172 L59.7324219,14.9951172 C59.4999988,15.3642597 59.1775737,15.6468089 58.7651367,15.8427734 C58.3526998,16.038738 57.8821641,16.1367188 57.3535156,16.1367188 C56.4420527,16.1367188 55.7596051,15.9202496 55.3061523,15.4873047 C54.8526996,15.0543598 54.6259766,14.3616584 54.6259766,13.4091797 L54.6259766,8.5078125 L55.7744141,8.5078125 Z M68.4277344,16 L68.4277344,11.1533203 C68.4277344,10.5426402 68.2887384,10.0869156 68.0107422,9.78613281 C67.732746,9.48535006 67.297529,9.33496094 66.7050781,9.33496094 C65.92122,9.33496094 65.347007,9.54687288 64.9824219,9.97070312 C64.6178367,10.3945334 64.4355469,11.0940706 64.4355469,12.0693359 L64.4355469,16 L63.3007812,16 L63.3007812,8.5078125 L64.2236328,8.5078125 L64.4082031,9.53320312 L64.4628906,9.53320312 C64.6953137,9.16406065 65.0211568,8.87809346 65.4404297,8.67529297 C65.8597026,8.47249248 66.3268203,8.37109375 66.8417969,8.37109375 C67.7441451,8.37109375 68.4231748,8.58870225 68.8789062,9.02392578 C69.3346377,9.45914931 69.5625,10.1552687 69.5625,11.1123047 L69.5625,16 L68.4277344,16 Z M85.0800781,16 L85.0800781,11.1259766 C85.0800781,10.5289684 84.9524752,10.0812189 84.6972656,9.78271484 C84.442056,9.48421075 84.0455756,9.33496094 83.5078125,9.33496094 C82.8014288,9.33496094 82.2796241,9.53775839 81.9423828,9.94335938 C81.6051415,10.3489604 81.4365234,10.9733031 81.4365234,11.8164062 L81.4365234,16 L80.3017578,16 L80.3017578,11.1259766 C80.3017578,10.5289684 80.1741549,10.0812189 79.9189453,9.78271484 C79.6637357,9.48421075 79.2649767,9.33496094 78.7226562,9.33496094 C78.0117152,9.33496094 77.4910498,9.54801219 77.1606445,9.97412109 C76.8302392,10.40023 76.6650391,11.098628 76.6650391,12.0693359 L76.6650391,16 L75.5302734,16 L75.5302734,8.5078125 L76.453125,8.5078125 L76.6376953,9.53320312 L76.6923828,9.53320312 C76.9065766,9.16861797 77.2084941,8.88379009 77.5981445,8.67871094 C77.9877949,8.47363179 78.4241512,8.37109375 78.9072266,8.37109375 C80.0784564,8.37109375 80.8440737,8.79491764 81.2041016,9.64257812 L81.2587891,9.64257812 C81.4820975,9.25064908 81.8056619,8.94075635 82.2294922,8.71289062 C82.6533224,8.4850249 83.1363905,8.37109375 83.6787109,8.37109375 C84.5263714,8.37109375 85.1609679,8.58870225 85.5825195,9.02392578 C86.0040711,9.45914931 86.2148438,10.1552687 86.2148438,11.1123047 L86.2148438,16 L85.0800781,16 Z M91.7177734,16.1367188 C90.610346,16.1367188 89.7364941,15.7994825 89.0961914,15.125 C88.4558887,14.4505175 88.1357422,13.5140034 88.1357422,12.3154297 C88.1357422,11.1077414 88.4331025,10.1484411 89.027832,9.4375 C89.6225616,8.72655895 90.4212189,8.37109375 91.4238281,8.37109375 C92.3626349,8.37109375 93.105466,8.67984717 93.6523438,9.29736328 C94.1992215,9.91487939 94.4726562,10.7294871 94.4726562,11.7412109 L94.4726562,12.4589844 L89.3115234,12.4589844 C89.33431,13.3385461 89.5564758,14.0061826 89.9780273,14.4619141 C90.3995789,14.9176455 90.9931602,15.1455078 91.7587891,15.1455078 C92.5654337,15.1455078 93.3629518,14.9768897 94.1513672,14.6396484 L94.1513672,15.6513672 C93.7503235,15.8245451 93.3709328,15.9487301 93.0131836,16.0239258 C92.6554344,16.0991215 92.2236353,16.1367188 91.7177734,16.1367188 Z M91.4101562,9.32128906 C90.8085907,9.32128906 90.3289406,9.51725064 89.9711914,9.90917969 C89.6134422,10.3011087 89.4026696,10.843421 89.3388672,11.5361328 L93.2558594,11.5361328 C93.2558594,10.8206344 93.0963558,10.2726256 92.7773438,9.89208984 C92.4583317,9.51155409 92.0026071,9.32128906 91.4101562,9.32128906 Z M101.240234,13.9560547 C101.240234,14.6533238 100.980471,15.1910788 100.460938,15.5693359 C99.9414037,15.947593 99.2122443,16.1367188 98.2734375,16.1367188 C97.2799429,16.1367188 96.5052111,15.9794938 95.9492188,15.6650391 L95.9492188,14.6123047 C96.3092466,14.7945973 96.6954732,14.9381505 97.1079102,15.0429688 C97.5203471,15.147787 97.9179668,15.2001953 98.3007813,15.2001953 C98.8932321,15.2001953 99.3489567,15.1056325 99.6679688,14.9165039 C99.9869808,14.7273754 100.146484,14.4391295 100.146484,14.0517578 C100.146484,13.7600897 100.020021,13.5105805 99.7670898,13.3032227 C99.5141589,13.0958648 99.020837,12.8509129 98.2871094,12.5683594 C97.5898403,12.3085925 97.0942398,12.0818695 96.800293,11.8881836 C96.5063462,11.6944977 96.2875984,11.4746106 96.144043,11.2285156 C96.0004876,10.9824206 95.9287109,10.6884783 95.9287109,10.3466797 C95.9287109,9.73599955 96.1770808,9.25407078 96.6738281,8.90087891 C97.1705754,8.54768704 97.8518837,8.37109375 98.7177734,8.37109375 C99.5244181,8.37109375 100.312822,8.53515461 101.083008,8.86328125 L100.679688,9.78613281 C99.9277306,9.47623543 99.2464223,9.32128906 98.6357422,9.32128906 C98.0979791,9.32128906 97.6923842,9.40559812 97.4189453,9.57421875 C97.1455064,9.74283938 97.0087891,9.97525894 97.0087891,10.2714844 C97.0087891,10.4720062 97.0600581,10.6429029 97.1625977,10.7841797 C97.2651372,10.9254564 97.4303374,11.0598952 97.6582031,11.1875 C97.8860688,11.3151048 98.3235645,11.4996733 98.9707031,11.7412109 C99.8593794,12.0647803 100.459797,12.3906234 100.771973,12.71875 C101.084149,13.0468766 101.240234,13.4593074 101.240234,13.9560547 Z M107.918945,13.9560547 C107.918945,14.6533238 107.659182,15.1910788 107.139648,15.5693359 C106.620115,15.947593 105.890955,16.1367188 104.952148,16.1367188 C103.958654,16.1367188 103.183922,15.9794938 102.62793,15.6650391 L102.62793,14.6123047 C102.987958,14.7945973 103.374184,14.9381505 103.786621,15.0429688 C104.199058,15.147787 104.596678,15.2001953 104.979492,15.2001953 C105.571943,15.2001953 106.027668,15.1056325 106.34668,14.9165039 C106.665692,14.7273754 106.825195,14.4391295 106.825195,14.0517578 C106.825195,13.7600897 106.698732,13.5105805 106.445801,13.3032227 C106.19287,13.0958648 105.699548,12.8509129 104.96582,12.5683594 C104.268551,12.3085925 103.772951,12.0818695 103.479004,11.8881836 C103.185057,11.6944977 102.966309,11.4746106 102.822754,11.2285156 C102.679199,10.9824206 102.607422,10.6884783 102.607422,10.3466797 C102.607422,9.73599955 102.855792,9.25407078 103.352539,8.90087891 C103.849286,8.54768704 104.530595,8.37109375 105.396484,8.37109375 C106.203129,8.37109375 106.991533,8.53515461 107.761719,8.86328125 L107.358398,9.78613281 C106.606442,9.47623543 105.925133,9.32128906 105.314453,9.32128906 C104.77669,9.32128906 104.371095,9.40559812 104.097656,9.57421875 C103.824217,9.74283938 103.6875,9.97525894 103.6875,10.2714844 C103.6875,10.4720062 103.738769,10.6429029 103.841309,10.7841797 C103.943848,10.9254564 104.109048,11.0598952 104.336914,11.1875 C104.56478,11.3151048 105.002275,11.4996733 105.649414,11.7412109 C106.53809,12.0647803 107.138508,12.3906234 107.450684,12.71875 C107.76286,13.0468766 107.918945,13.4593074 107.918945,13.9560547 Z M114.37207,16 L114.146484,14.9335938 L114.091797,14.9335938 C113.718097,15.4029971 113.345542,15.7208651 112.974121,15.887207 C112.6027,16.053549 112.139,16.1367188 111.583008,16.1367188 C110.840166,16.1367188 110.257977,15.9453144 109.836426,15.5625 C109.414874,15.1796856 109.204102,14.6350947 109.204102,13.9287109 C109.204102,12.4156825 110.41405,11.6227217 112.833984,11.5498047 L114.105469,11.5087891 L114.105469,11.0439453 C114.105469,10.4560517 113.979005,10.0219741 113.726074,9.74169922 C113.473143,9.46142438 113.068688,9.32128906 112.512695,9.32128906 C111.888343,9.32128906 111.18197,9.5126934 110.393555,9.89550781 L110.044922,9.02734375 C110.414064,8.82682191 110.81852,8.66959692 111.258301,8.55566406 C111.698082,8.4417312 112.138995,8.38476562 112.581055,8.38476562 C113.474288,8.38476562 114.136228,8.58300583 114.566895,8.97949219 C114.997561,9.37597854 115.212891,10.0117144 115.212891,10.8867188 L115.212891,16 L114.37207,16 Z M111.808594,15.2001953 C112.514977,15.2001953 113.069822,15.0065124 113.473145,14.6191406 C113.876467,14.2317689 114.078125,13.6894566 114.078125,12.9921875 L114.078125,12.3154297 L112.943359,12.3632812 C112.041011,12.3951825 111.390464,12.5353178 110.991699,12.7836914 C110.592934,13.032065 110.393555,13.4182917 110.393555,13.9423828 C110.393555,14.3525411 110.51774,14.6647125 110.766113,14.8789062 C111.014487,15.0931 111.361977,15.2001953 111.808594,15.2001953 Z M123.682617,8.5078125 L123.682617,9.22558594 L122.294922,9.38964844 C122.422527,9.54915444 122.536458,9.75764845 122.636719,10.0151367 C122.73698,10.272625 122.787109,10.5631494 122.787109,10.8867188 C122.787109,11.6204464 122.536461,12.2060525 122.035156,12.6435547 C121.533852,13.0810569 120.845708,13.2998047 119.970703,13.2998047 C119.747395,13.2998047 119.537761,13.2815757 119.341797,13.2451172 C118.858722,13.5003268 118.617188,13.8216126 118.617188,14.2089844 C118.617188,14.4140635 118.701497,14.565592 118.870117,14.6635742 C119.038738,14.7615565 119.328123,14.8105469 119.738281,14.8105469 L121.064453,14.8105469 C121.875655,14.8105469 122.498859,14.9814436 122.934082,15.3232422 C123.369306,15.6650408 123.586914,16.1617806 123.586914,16.8134766 C123.586914,17.6429078 123.254235,18.2752257 122.588867,18.7104492 C121.923499,19.1456727 120.952806,19.3632812 119.676758,19.3632812 C118.696935,19.3632812 117.941572,19.1809914 117.410645,18.8164062 C116.879717,18.4518211 116.614258,17.9368523 116.614258,17.2714844 C116.614258,16.8157529 116.76009,16.4215511 117.051758,16.0888672 C117.343426,15.7561832 117.753578,15.5305996 118.282227,15.4121094 C118.090819,15.3255204 117.930176,15.1910816 117.800293,15.0087891 C117.67041,14.8264965 117.605469,14.6145845 117.605469,14.3730469 C117.605469,14.099608 117.678385,13.8603526 117.824219,13.6552734 C117.970053,13.4501943 118.200194,13.2519541 118.514648,13.0605469 C118.127277,12.9010409 117.811687,12.6298847 117.567871,12.2470703 C117.324055,11.8642559 117.202148,11.4267603 117.202148,10.9345703 C117.202148,10.1142537 117.44824,9.48193582 117.94043,9.03759766 C118.43262,8.5932595 119.129878,8.37109375 120.032227,8.37109375 C120.424156,8.37109375 120.777342,8.41666621 121.091797,8.5078125 L123.682617,8.5078125 Z M117.708008,17.2578125 C117.708008,17.6634135 117.878905,17.9710276 118.220703,18.1806641 C118.562502,18.3903005 119.052406,18.4951172 119.69043,18.4951172 C120.642908,18.4951172 121.348142,18.3527032 121.806152,18.0678711 C122.264162,17.7830389 122.493164,17.3968123 122.493164,16.9091797 C122.493164,16.5035787 122.36784,16.2221688 122.117188,16.0649414 C121.866535,15.9077141 121.39486,15.8291016 120.702148,15.8291016 L119.341797,15.8291016 C118.82682,15.8291016 118.425783,15.9521472 118.138672,16.1982422 C117.851561,16.4443372 117.708008,16.7975237 117.708008,17.2578125 Z M118.323242,10.9072266 C118.323242,11.4313177 118.471353,11.8277981 118.767578,12.0966797 C119.063804,12.3655612 119.476234,12.5 120.004883,12.5 C121.11231,12.5 121.666016,11.962245 121.666016,10.8867188 C121.666016,9.76106208 121.105474,9.19824219 119.984375,9.19824219 C119.451169,9.19824219 119.041017,9.34179544 118.753906,9.62890625 C118.466795,9.91601706 118.323242,10.3421196 118.323242,10.9072266 Z M128.385742,16.1367188 C127.278315,16.1367188 126.404463,15.7994825 125.76416,15.125 C125.123857,14.4505175 124.803711,13.5140034 124.803711,12.3154297 C124.803711,11.1077414 125.101071,10.1484411 125.695801,9.4375 C126.29053,8.72655895 127.089188,8.37109375 128.091797,8.37109375 C129.030604,8.37109375 129.773435,8.67984717 130.320312,9.29736328 C130.86719,9.91487939 131.140625,10.7294871 131.140625,11.7412109 L131.140625,12.4589844 L125.979492,12.4589844 C126.002279,13.3385461 126.224445,14.0061826 126.645996,14.4619141 C127.067548,14.9176455 127.661129,15.1455078 128.426758,15.1455078 C129.233402,15.1455078 130.030921,14.9768897 130.819336,14.6396484 L130.819336,15.6513672 C130.418292,15.8245451 130.038902,15.9487301 129.681152,16.0239258 C129.323403,16.0991215 128.891604,16.1367188 128.385742,16.1367188 Z M128.078125,9.32128906 C127.476559,9.32128906 126.996909,9.51725064 126.63916,9.90917969 C126.281411,10.3011087 126.070638,10.843421 126.006836,11.5361328 L129.923828,11.5361328 C129.923828,10.8206344 129.764325,10.2726256 129.445312,9.89208984 C129.1263,9.51155409 128.670576,9.32128906 128.078125,9.32128906 Z" id="Rédiger-un-message-Copy" fill-opacity="0.579483696" fill="#3D3D3D"></path>
                            <path d="M1.5,0.5 L1.5,22.5" id="Line" stroke="#3D3D3D" stroke-linecap="round" stroke-linejoin="round"></path>
                        </g>
                        <g id="SEND" transform="translate(298.000000, 25.000000)" fill="#DEDEDE">
                            <path d="M18.5929639,29.5956819 L14.891759,25.8944771 L10.9206747,21.9233928 L20.3279036,12.5161639 C20.6363373,12.2077301 20.6363373,11.7450795 20.3279036,11.4366458 C20.0194699,11.128212 19.5568193,11.128212 19.2483855,11.4366458 L9.80260241,20.8053205 L2.13031325,13.1330313 L29.5809157,2.14507952 L18.5929639,29.5956819 Z M7.14236145,25.6631518 L9.80260241,23.0029108 L12.4628434,25.6631518 L7.14236145,25.6631518 Z M30.6604337,0.0631518072 L0.472481928,12.1306217 C0.241156627,12.2077301 0.0483855422,12.4390554 0.0098313253,12.7089349 C-0.0287228916,12.9788145 0.0483855422,13.2101398 0.20260241,13.4029108 L8.72308434,21.9233928 L4.752,25.8944771 C4.5206747,26.1258024 4.48212048,26.4342361 4.59778313,26.7426699 C4.71344578,27.0125494 4.9833253,27.2053205 5.29175904,27.2053205 L14.0435663,27.2053205 L18.3616386,31.5233928 C18.5158554,31.6776096 18.7086265,31.7547181 18.9013976,31.7547181 L19.0556145,31.7547181 C19.325494,31.7161639 19.5182651,31.5233928 19.6339277,31.2920675 L31.6628434,1.06556145 C31.778506,0.795681928 31.7013976,0.448693976 31.5086265,0.217368675 C31.2773012,-0.0139566265 30.9688675,-0.0525108434 30.6604337,0.0631518072 L30.6604337,0.0631518072 Z" id="Fill-1"></path>
                        </g>
                        <g id="ICONS" transform="translate(24.000000, 70.000000)" fill="#DEDEDE">
                            <g id="CAMERA" transform="translate(87.000000, 3.000000)">
                                <path d="M11.8181818,7.60008 C14.0738245,7.60008 15.8934169,9.38608 15.8934169,11.60008 C15.8934169,13.81408 14.0738245,15.60008 11.8181818,15.60008 C9.56253918,15.60008 7.74294671,13.81408 7.74294671,11.60008 C7.74294671,9.38608 9.56253918,7.60008 11.8181818,7.60008 L11.8181818,7.60008 Z M11.8181818,6.80008 C9.12241379,6.80008 6.92789969,8.95408 6.92789969,11.60008 C6.92789969,14.24648 9.12241379,16.40008 11.8181818,16.40008 C14.5143574,16.40008 16.7084639,14.24648 16.7084639,11.60008 C16.7084639,8.95368 14.5143574,6.80008 11.8181818,6.80008 L11.8181818,6.80008 Z M8.40517241,0.80008 L15.2311912,0.80008 L16.7467712,3.77488 C16.813605,3.91008 16.9631661,4.00128 17.1159875,4.00008 L21.2804702,4.00008 C22.1403448,4.00008 22.8213166,4.66808 22.8213166,5.52528 L22.8213166,17.67488 C22.8213166,18.53208 22.1403448,19.20008 21.2804702,19.20008 L2.35589342,19.20008 C1.49601881,19.20008 0.815047022,18.53208 0.815047022,17.67488 L0.815047022,5.52528 C0.815047022,4.66808 1.49601881,4.00008 2.35589342,4.00008 L6.52037618,4.00008 C6.67319749,4.00128 6.82275862,3.91008 6.88959248,3.77488 L8.40517241,0.80008 L8.40517241,0.80008 Z M8.15047022,8e-05 C7.96137931,0.00088 7.83382445,0.12528 7.78125392,0.21248 L6.26567398,3.20008 L2.35589342,3.20008 C1.05752351,3.20008 0,4.24248 0,5.52528 L0,17.67488 C0,18.95768 1.05752351,20.00008 2.35589342,20.00008 L21.2804702,20.00008 C22.5788401,20.00008 23.6363636,18.95768 23.6363636,17.67488 L23.6363636,5.52528 C23.6363636,4.24248 22.5788401,3.20008 21.2804702,3.20008 L17.3706897,3.20008 L15.8551097,0.21248 C15.7850157,0.08248 15.6362696,-0.00312 15.4858934,8e-05 L8.15047022,8e-05 Z" id="Fill-1"></path>
                            </g>
                            <g id="SMILEY" transform="translate(0.000000, 3.000000)">
                                <path d="M10,19.2857143 C4.88,19.2857143 0.714285714,15.12 0.714285714,10 C0.714285714,4.88 4.88,0.714285714 10,0.714285714 C15.12,0.714285714 19.2857143,4.88 19.2857143,10 C19.2857143,15.12 15.12,19.2857143 10,19.2857143 M10,0 C4.48607143,0 0,4.48607143 0,10 C0,15.5139286 4.48607143,20 10,20 C15.5139286,20 20,15.5139286 20,10 C20,4.48607143 15.5139286,0 10,0" id="Fill-1"></path>
                                <path d="M14.1307143,10.3925 C14.1164286,10.3992857 12.6807143,11.0714286 10,11.0714286 C7.31928571,11.0714286 5.88357143,10.3992857 5.86928571,10.3925 C5.69214286,10.3075 5.47892857,10.3814286 5.39285714,10.5585714 C5.30678571,10.7360714 5.38107143,10.9496429 5.55857143,11.0357143 C5.62178571,11.0660714 7.13821429,11.7857143 10,11.7857143 C12.8617857,11.7857143 14.3782143,11.0660714 14.4414286,11.0357143 C14.6185714,10.9496429 14.6925,10.7371429 14.6071429,10.5596429 C14.5214286,10.3817857 14.3085714,10.3071429 14.1307143,10.3925" id="Fill-3"></path>
                                <path d="M4.64285714,7.14285714 C4.64285714,6.55214286 5.12357143,6.07142857 5.71428571,6.07142857 C6.305,6.07142857 6.78571429,6.55214286 6.78571429,7.14285714 C6.78571429,7.73357143 6.305,8.21428571 5.71428571,8.21428571 C5.12357143,8.21428571 4.64285714,7.73357143 4.64285714,7.14285714 M7.5,7.14285714 C7.5,6.15821429 6.69892857,5.35714286 5.71428571,5.35714286 C4.72964286,5.35714286 3.92857143,6.15821429 3.92857143,7.14285714 C3.92857143,8.1275 4.72964286,8.92857143 5.71428571,8.92857143 C6.69892857,8.92857143 7.5,8.1275 7.5,7.14285714" id="Fill-5"></path>
                                <path d="M14.2857143,8.21428571 C13.695,8.21428571 13.2142857,7.73357143 13.2142857,7.14285714 C13.2142857,6.55214286 13.695,6.07142857 14.2857143,6.07142857 C14.8764286,6.07142857 15.3571429,6.55214286 15.3571429,7.14285714 C15.3571429,7.73357143 14.8764286,8.21428571 14.2857143,8.21428571 M14.2857143,5.35714286 C13.3010714,5.35714286 12.5,6.15821429 12.5,7.14285714 C12.5,8.1275 13.3010714,8.92857143 14.2857143,8.92857143 C15.2703571,8.92857143 16.0714286,8.1275 16.0714286,7.14285714 C16.0714286,6.15821429 15.2703571,5.35714286 14.2857143,5.35714286" id="Fill-7"></path>
                            </g>
                            <g id="Image" transform="translate(40.000000, 3.000000)">
                                <path d="M1.25,0.833333333 C1,0.833333333 0.833333333,1 0.833333333,1.25 L0.833333333,18.625 C0.833333333,18.875 1,19.0416667 1.25,19.0416667 L25.5,19.0416667 C25.75,19.0416667 25.9166667,18.875 25.9166667,18.625 L25.9166667,1.25 C25.9166667,1 25.75,0.833333333 25.5,0.833333333 L1.25,0.833333333 Z M25.5,19.8333333 L1.25,19.8333333 C0.541666667,19.8333333 0,19.2916667 0,18.5833333 L0,1.25 C0,0.541666667 0.541666667,0 1.25,0 L25.5,0 C26.2083333,0 26.75,0.541666667 26.75,1.25 L26.75,18.625 C26.75,19.2916667 26.2083333,19.8333333 25.5,19.8333333 L25.5,19.8333333 Z" id="Fill-1"></path>
                                <path d="M19.9583333,17.0833333 C19.8333333,17.0833333 19.75,17.0416667 19.6666667,16.9583333 L11.125,8.45833333 L3.41666667,16.125 C3.25,16.2916667 3,16.2916667 2.83333333,16.125 C2.66666667,15.9583333 2.66666667,15.7083333 2.83333333,15.5416667 L10.8333333,7.54166667 C11,7.375 11.25,7.375 11.4166667,7.54166667 L20.25,16.375 C20.4166667,16.5416667 20.4166667,16.7916667 20.25,16.9583333 C20.1666667,17.0416667 20.0416667,17.0833333 19.9583333,17.0833333" id="Fill-3"></path>
                                <path d="M23.5416667,15.7916667 C23.4166667,15.7916667 23.3333333,15.75 23.25,15.6666667 L19.875,12.2916667 L17.7083333,14.4583333 C17.5416667,14.625 17.2916667,14.625 17.125,14.4583333 C16.9583333,14.2916667 16.9583333,14.0416667 17.125,13.875 L19.5833333,11.4166667 C19.75,11.25 20,11.25 20.1666667,11.4166667 L23.8333333,15.0833333 C24,15.25 24,15.5 23.8333333,15.6666667 C23.7916667,15.75 23.6666667,15.7916667 23.5416667,15.7916667" id="Fill-5"></path>
                                <path d="M18.5833333,3.20833333 C17.875,3.20833333 17.3333333,3.79166667 17.3333333,4.45833333 C17.3333333,5.16666667 17.9166667,5.70833333 18.5833333,5.70833333 C19.25,5.70833333 19.8333333,5.125 19.8333333,4.45833333 C19.8333333,3.75 19.2916667,3.20833333 18.5833333,3.20833333 M18.5833333,6.54166667 C17.4166667,6.54166667 16.5,5.58333333 16.5,4.45833333 C16.5,3.33333333 17.4583333,2.375 18.5833333,2.375 C19.7083333,2.375 20.6666667,3.33333333 20.6666667,4.45833333 C20.6666667,5.58333333 19.75,6.54166667 18.5833333,6.54166667" id="Fill-7"></path>
                            </g>
                            <g id="CAMERA" transform="translate(131.000000, 3.000000)">
                                <path d="M22.7586207,10.7867335 L22.7586207,18.1681129 L17.2413793,16.6270784 L17.2413793,12.327768 L22.7586207,10.7867335 Z M0.689655172,19.3105266 L16.5517241,19.3105266 L16.5517241,9.65535423 L0.689655172,9.65535423 L0.689655172,19.3105266 Z M0.344827586,8.96569906 C0.164137931,8.96569906 0,9.12983699 0,9.31052665 L0,19.6553542 C0,19.8356991 0.164137931,20.0001818 0.344827586,20.0001818 L16.8965517,20.0001818 C17.0772414,20.0001818 17.2413793,19.8356991 17.2413793,19.6553542 L17.2413793,17.3384577 L23.0065517,18.9439749 C23.2086207,19.0032853 23.4434483,18.8315611 23.4482759,18.6208715 L23.4482759,10.3450094 C23.4275862,10.0388025 23.2251724,9.96604389 23.0065517,10.0108715 L17.2413793,11.6163887 L17.2413793,9.31052665 C17.237931,9.14156113 17.1248276,8.97431975 16.8965517,8.96569906 L0.344827586,8.96569906 Z M13.1034483,0.689836991 C14.8213793,0.689836991 16.2068966,2.0750094 16.2068966,3.79328527 C16.2068966,5.5112163 14.8213793,6.89673354 13.1034483,6.89673354 C11.3855172,6.89673354 10,5.5112163 10,3.79328527 C10,2.0750094 11.3855172,0.689836991 13.1034483,0.689836991 L13.1034483,0.689836991 Z M4.13793103,0.689836991 C5.85586207,0.689836991 7.24137931,2.0750094 7.24137931,3.79328527 C7.24137931,5.5112163 5.85586207,6.89673354 4.13793103,6.89673354 C2.42,6.89673354 1.03448276,5.5112163 1.03448276,3.79328527 C1.03448276,2.0750094 2.42,0.689836991 4.13793103,0.689836991 L4.13793103,0.689836991 Z M13.1034483,0.000181818182 C11.0127586,0.000181818182 9.31034483,1.70259561 9.31034483,3.79328527 C9.31034483,5.88397492 11.0127586,7.58638871 13.1034483,7.58638871 C15.1941379,7.58638871 16.8965517,5.88397492 16.8965517,3.79328527 C16.8965517,1.70259561 15.1941379,0.000181818182 13.1034483,0.000181818182 L13.1034483,0.000181818182 Z M4.13793103,0.000181818182 C2.04724138,0.000181818182 0.344827586,1.70259561 0.344827586,3.79328527 C0.344827586,5.88397492 2.04724138,7.58638871 4.13793103,7.58638871 C6.22862069,7.58638871 7.93103448,5.88397492 7.93103448,3.79328527 C7.93103448,1.70259561 6.22862069,0.000181818182 4.13793103,0.000181818182 L4.13793103,0.000181818182 Z" id="Fill-1"></path>
                            </g>
                            <g id="Locate" transform="translate(175.000000, 0.000000)">
                                <path d="M22.2668927,13.9989758 C22.2594726,14.0706242 22.2507466,14.1421836 22.2416347,14.2136539 C22.242347,14.2058479 22.2309498,14.2889826 22.2302374,14.2935534 C22.2243607,14.3337406 22.2179795,14.3738982 22.2115685,14.414026 C22.1840251,14.5870329 22.1506941,14.75909 22.1138014,14.930316 C22.0436073,15.2560877 21.9545068,15.5776151 21.8509817,15.8943046 C21.8017123,16.0449918 21.7477831,16.1941356 21.691153,16.342211 C21.6629269,16.4159667 21.6333653,16.4892178 21.6033288,16.5622909 C21.6008059,16.5684347 21.5986986,16.5735397 21.5968288,16.5781402 C21.5940388,16.5845215 21.5898836,16.5941379 21.5837991,16.6082658 C21.5630525,16.6564963 21.5416233,16.7044005 21.520105,16.7523046 C21.2527443,17.346832 20.9216895,17.9120648 20.5408607,18.4408502 C20.4276895,18.5980078 20.3976233,18.6356721 20.2989954,18.7586676 C20.1936301,18.8900329 20.0841096,19.0179849 19.9720662,19.1437406 C19.7567648,19.3854279 19.5280776,19.6150352 19.2899224,19.8341059 C19.1755342,19.9393228 19.0580297,20.0411265 18.938774,20.1407338 C18.8790868,20.1905968 18.8185388,20.2393616 18.7576941,20.2877703 C18.7550228,20.2898776 18.7157854,20.3204484 18.7015091,20.3316676 C18.6661005,20.3586767 18.6305434,20.3855078 18.5948082,20.4121014 C18.3342443,20.6061516 18.0629064,20.7855397 17.7842968,20.9525215 C17.5042032,21.1203936 17.21479,21.2723571 16.9192626,21.4110831 C16.6322831,21.5457726 16.4095616,21.6349621 16.0669909,21.753268 C15.752468,21.8618388 15.4318311,21.9521265 15.1078699,22.0276333 C14.9507123,22.0642589 14.7924863,22.0959575 14.633726,22.1246584 C14.5538858,22.1390831 14.4737489,22.1520237 14.3935822,22.1644301 C14.3605183,22.1695648 14.327395,22.1742543 14.2942717,22.1789735 C14.3099132,22.176421 14.1932991,22.1919438 14.1808333,22.1934575 C13.9349909,22.2231379 13.6879909,22.2427269 13.440605,22.2529667 L13.440605,21.1483228 L13.440605,20.0738936 C13.440605,19.8473731 13.2516005,19.6583685 13.0250799,19.6583685 C12.7985594,19.6583685 12.6095548,19.8473731 12.6095548,20.0738936 L12.6095548,22.2523137 C12.4440274,22.2452795 12.2787078,22.2343274 12.113774,22.2193091 C11.7711142,22.1881744 11.5497877,22.1542795 11.1782192,22.0790397 C10.8510822,22.0128228 10.5279521,21.9275808 10.2095114,21.8278251 C10.0580228,21.7803365 9.90804795,21.7282475 9.75908219,21.6733388 C9.68488128,21.6460032 9.61121461,21.6173023 9.53769635,21.5881562 C9.50101142,21.5735831 9.46447489,21.5585945 9.42796804,21.5435763 C9.42155708,21.540905 9.41621461,21.538679 9.41149543,21.5367201 C9.38959132,21.5273411 9.36771689,21.5178731 9.34584247,21.508316 C9.04595205,21.3778411 8.75363014,21.2303594 8.46855023,21.0702338 C8.1850137,20.9109689 7.91055936,20.7357954 7.64444521,20.5489575 C7.36491553,20.352711 7.2087968,20.2286174 6.9338379,19.989453 C6.68959817,19.7770603 6.45728995,19.5511037 6.23536986,19.3155603 C6.12881735,19.2024187 6.0256484,19.0861607 5.92461644,18.9681219 C5.87407078,18.9090877 5.82459361,18.8491037 5.7754726,18.7888822 C5.75089726,18.7587269 5.72667808,18.7283046 5.70248858,18.6979119 C5.68895434,18.680816 5.67547945,18.6636311 5.66203425,18.6464461 C5.65838356,18.6416379 5.65399087,18.6359096 5.64823288,18.6283708 C5.25309817,18.1108639 4.91340639,17.5518046 4.62969178,16.9660032 C4.59544064,16.8952452 4.56243607,16.8238639 4.52990639,16.7523046 C4.51361187,16.7164804 4.49776256,16.6804187 4.48191324,16.6443868 C4.48039954,16.6409438 4.45707078,16.5863913 4.45178767,16.5744005 C4.38925114,16.4243662 4.33119635,16.2724918 4.27625799,16.1195192 C4.16394749,15.8068365 4.06983105,15.4878023 3.99040639,15.1652954 C3.95191096,15.0089096 3.91828311,14.8513662 3.88765297,14.6932886 C3.87224886,14.6137749 3.85835845,14.5339941 3.84494292,14.4541242 C3.83820548,14.4140557 3.83200228,14.3739575 3.82576941,14.3338 C3.82398858,14.3224324 3.80989041,14.2230329 3.80905936,14.219679 C3.77264155,13.9412772 3.74972831,13.6612726 3.7377968,13.3807635 L4.84965297,13.3807635 L5.92411187,13.3807635 C6.15063242,13.3807635 6.33963699,13.1917589 6.33963699,12.9652384 C6.33963699,12.7387178 6.15063242,12.5497132 5.92411187,12.5497132 L3.73767808,12.5497132 C3.74302055,12.4253228 3.75055936,12.3010511 3.76026484,12.1769575 C3.77228539,12.0233616 3.78893607,11.870211 3.80834703,11.7173571 C3.80828767,11.7198799 3.81909132,11.6413753 3.81974429,11.6369233 C3.825621,11.5967361 3.83203196,11.5565785 3.83841324,11.5164507 C3.85328311,11.4231059 3.87008219,11.3301174 3.88768265,11.2372772 C4.00990639,10.5919963 4.2023242,9.96078402 4.45291553,9.35396895 C4.45968265,9.3384758 4.48051826,9.28941416 4.48194292,9.28614932 C4.49764384,9.25005799 4.51378995,9.21414475 4.52993607,9.17826119 C4.56216895,9.10655342 4.59573744,9.03543927 4.62972146,8.96456256 C4.70318037,8.81135251 4.78156621,8.66054658 4.86294977,8.51143242 C5.01886073,8.22581826 5.19079909,7.9491379 5.37455023,7.68064932 C5.46249315,7.55213333 5.55429452,7.42628858 5.64829224,7.3021653 C5.65274429,7.29628858 5.6563653,7.29151005 5.6595411,7.28729543 C5.66381507,7.28189361 5.66972146,7.27438447 5.67847717,7.26319498 C5.7024589,7.23256484 5.72676712,7.20223151 5.75110502,7.17192785 C5.80785388,7.10116986 5.86599772,7.03156941 5.92470548,6.96241416 C6.13421918,6.7156516 6.35738584,6.48064247 6.59028767,6.25593242 C6.8233379,6.03107397 7.06879452,5.81930457 7.32297717,5.61872466 C7.33001142,5.61317443 7.33550228,5.6088411 7.34013242,5.60516073 C7.34547489,5.6011242 7.35218265,5.59601918 7.36197717,5.58853973 C7.39290411,5.56491416 7.42409817,5.54167443 7.45532192,5.5184347 C7.51776941,5.47192557 7.58104795,5.42654429 7.64456393,5.38154886 C7.78242922,5.28393014 7.92338128,5.19073379 8.06611416,5.10044612 C8.34166667,4.92613333 8.62692466,4.76740274 8.91856393,4.62176119 C9.05924886,4.55147808 9.20201142,4.48552831 9.34593151,4.42222009 C9.34934475,4.42070639 9.40312557,4.39773379 9.41565068,4.39221324 C9.44408447,4.38043014 9.47257763,4.36867671 9.50110046,4.35710137 C9.58655023,4.32237534 9.67271233,4.28943014 9.75914155,4.25716758 C10.3851598,4.02355342 11.0362877,3.85951005 11.6967352,3.76002146 C11.7005936,3.75945753 11.7612306,3.75096895 11.7746758,3.74889132 C11.8061667,3.74485479 11.8376872,3.74087763 11.8692671,3.73707854 C11.9506507,3.72725434 12.032242,3.71897352 12.1138333,3.71119726 C12.2787078,3.69552603 12.4440868,3.6851379 12.6095548,3.67795525 L12.6095548,4.84762877 L12.6095548,5.92208767 C12.6095548,6.14860822 12.7985594,6.33761279 13.0250799,6.33761279 C13.2516005,6.33761279 13.440605,6.14860822 13.440605,5.92208767 L13.440605,3.67798493 C13.5237694,3.68151689 13.6069041,3.68596895 13.6899795,3.69140046 C14.0697397,3.7162726 14.294895,3.74604201 14.6337557,3.80584795 C14.9635342,3.86402146 15.2898105,3.94142785 15.6116644,4.03355571 C15.9296005,4.12455571 16.2421644,4.23389817 16.549,4.35707169 C16.5769292,4.36829087 16.6047397,4.37986621 16.6325799,4.39141187 C16.6237648,4.38802831 16.7000137,4.42040959 16.7041393,4.42219041 C16.7763219,4.45359224 16.8478813,4.4863 16.9192626,4.51945297 C17.0734521,4.59107169 17.2253265,4.66770639 17.3755388,4.74733881 C17.6631416,4.89986621 17.9420776,5.06856941 18.2128813,5.24917443 C18.3424954,5.33560365 18.4694977,5.425921 18.5947785,5.5184347 C18.6260913,5.54155571 18.6571073,5.56503288 18.6881233,5.58853973 C18.694,5.59299178 18.6988082,5.59664247 18.7030525,5.59981826 C18.7084247,5.60409224 18.7159041,5.60996895 18.7270936,5.61872466 C18.7985342,5.67464247 18.868847,5.73195525 18.9387146,5.78983196 C19.4373447,6.20301233 19.8918699,6.66851918 20.2989361,7.17189817 C20.3980982,7.29447808 20.4270068,7.3330032 20.5408014,7.48971553 C20.6400525,7.62633425 20.7348516,7.76609909 20.8268311,7.90767443 C21.0043493,8.18091187 21.1663744,8.46406256 21.3155183,8.75371324 C21.6426256,9.38919954 21.8761804,10.0205009 22.0595457,10.7652703 C22.2137352,11.3911995 22.2899543,11.9308479 22.3132534,12.5497132 L21.150347,12.5497132 L20.0758881,12.5497132 C19.8493676,12.5497132 19.660363,12.7387178 19.660363,12.9652384 C19.660363,13.1917589 19.8493973,13.3807635 20.0758881,13.3807635 L22.3112352,13.3807635 C22.3024498,13.5871607 22.2882032,13.7932909 22.2668927,13.9989758 M25.5823973,12.5497132 L23.1420776,12.5497132 C23.0295,9.95814247 21.9201073,7.47508311 20.0474543,5.66820183 C18.2714703,3.95460594 15.893984,2.9541105 13.440605,2.84856712 L13.440605,1.48997808 L13.440605,0.415519178 C13.440605,0.18899863 13.2516005,-5.93607297e-06 13.0250799,-5.93607297e-06 C12.7985594,-5.93607297e-06 12.6095548,0.18899863 12.6095548,0.415519178 L12.6095548,2.84666758 C12.6091096,2.84666758 12.6086347,2.84666758 12.6081895,2.84669726 C9.88560959,2.95595068 7.27643836,4.19439361 5.46457078,6.22812192 C3.90949772,7.9736242 3.00742237,10.228768 2.90840868,12.5497132 L1.49203196,12.5497132 L0.417573059,12.5497132 C0.191052511,12.5497132 0.00204794521,12.7387178 0.00204794521,12.9652384 C0.00204794521,13.1917589 0.191082192,13.3807635 0.417573059,13.3807635 L2.90742922,13.3807635 C2.91303881,13.5186881 2.92134932,13.6566425 2.93271689,13.7945374 C3.15588356,16.5013274 4.48422831,19.052147 6.58372831,20.7777635 C8.2891621,22.1795078 10.4211027,22.9884758 12.6095548,23.0815237 L12.6095548,24.5059142 L12.6095548,25.5803434 C12.6095548,25.8068639 12.7985594,25.9958685 13.0250799,25.9958685 C13.2516005,25.9958685 13.440605,25.8068639 13.440605,25.5803434 L13.440605,23.0821767 C13.7144954,23.0709575 13.9885639,23.0486082 14.2620388,23.0144164 C16.9935228,22.6730329 19.4520068,21.2315466 21.1193904,19.0477543 C22.359258,17.4238525 23.0555,15.4170146 23.1429087,13.3807635 L24.5079384,13.3807635 L25.5823973,13.3807635 C25.8089178,13.3807635 25.9979224,13.1917589 25.9979224,12.9652384 C25.9979224,12.7387178 25.8089178,12.5497132 25.5823973,12.5497132" id="Fill-1"></path>
                                <path d="M15.8002237,13.2133662 C15.79779,13.2479142 15.7941986,13.2824027 15.7904589,13.316832 C15.7950297,13.2719553 15.7816142,13.3799621 15.7806644,13.3857795 C15.75321,13.556768 15.7086301,13.7246402 15.6538105,13.8887132 C15.6412854,13.9261699 15.6273653,13.9631219 15.6135046,14.0000443 C15.6121986,14.0034872 15.5932032,14.0488982 15.5861986,14.0662018 C15.5573196,14.1309644 15.5258288,14.1944804 15.4929132,14.2572247 C15.4190388,14.3980283 15.332016,14.53159 15.2378995,14.6596311 C15.2351986,14.6620055 15.192637,14.7166174 15.1898174,14.7200009 C15.1652123,14.749889 15.1395388,14.7788571 15.1138356,14.8078251 C15.0624886,14.8657315 15.0080548,14.9208479 14.9526712,14.9748959 C14.8972877,15.0289735 14.8389954,15.0800237 14.7798721,15.1299758 C14.7767557,15.1325877 14.729089,15.1703411 14.7207192,15.1774941 C14.6864977,15.2029598 14.6516826,15.2276242 14.6166005,15.2518731 C14.3177192,15.4584484 14.1126279,15.5490032 13.797274,15.6414279 C13.7205502,15.6639256 13.6426393,15.6820306 13.5644612,15.6986813 C13.5250753,15.7070808 13.4853333,15.7139667 13.4456507,15.7208525 C13.441347,15.7215945 13.3790479,15.7298753 13.3673242,15.7317452 C13.1986804,15.7504438 13.0285228,15.7532338 12.859137,15.7456356 C12.8180594,15.7437954 12.7770708,15.7403822 12.7360822,15.7369986 C12.7315708,15.7366128 12.6531256,15.7277384 12.6548767,15.7287772 C12.5849795,15.7184187 12.5155571,15.7050329 12.4464315,15.6903411 C12.2781142,15.6545169 12.1137146,15.6018936 11.9535594,15.5393571 C11.9483356,15.5373091 11.9439132,15.5355877 11.9398174,15.5340146 C11.9336735,15.5310763 11.9237009,15.5265055 11.9083562,15.5196196 C11.8726507,15.5035922 11.8375388,15.4862589 11.8024566,15.4689256 C11.7325,15.4344073 11.664532,15.3960306 11.5973059,15.3564963 C11.5303174,15.3170511 11.4655548,15.2740146 11.4016233,15.2298205 C11.3697169,15.207768 11.3386119,15.184558 11.3075365,15.1613479 C11.37129,15.2089553 11.2517078,15.1142749 11.240726,15.1050146 C11.1224201,15.0051105 11.0133151,14.8946995 10.9106507,14.7789164 C10.8849772,14.7499187 10.8603425,14.7200603 10.8357374,14.6901721 C10.8298904,14.6830489 10.825379,14.677647 10.8215502,14.6730763 C10.8176621,14.6677338 10.8128242,14.6611744 10.80579,14.6517361 C10.7515936,14.5791082 10.7018493,14.5032749 10.6540046,14.4263137 C10.6128379,14.3601265 10.5753516,14.2917132 10.5391416,14.2227064 C10.5209772,14.1880694 10.504089,14.1528091 10.4872009,14.1175192 C10.4854795,14.1138982 10.462032,14.0608297 10.4561553,14.0486904 C10.3946279,13.8977064 10.3467534,13.7414096 10.3088219,13.5829758 C10.2900936,13.5046493 10.2758174,13.4253434 10.2630548,13.345889 C10.2623425,13.3413479 10.2616895,13.3373114 10.2610662,13.3335717 C10.2605616,13.3268639 10.2594041,13.3148731 10.2572374,13.2949872 C10.2528151,13.2542064 10.2499064,13.2132772 10.2470571,13.1723776 C10.2345023,12.9935534 10.2401416,12.8137795 10.2572374,12.6355192 C10.2585434,12.6218365 10.2594338,12.6120123 10.2599977,12.6049187 C10.2608584,12.5993091 10.2618676,12.5926311 10.2630548,12.5846174 C10.2689315,12.5446676 10.2763516,12.5049553 10.283742,12.4652726 C10.2984338,12.3865603 10.3175776,12.3087384 10.3381461,12.2313913 C10.3585365,12.1547269 10.3832306,12.0792795 10.40929,12.0043959 C10.4222603,11.9671767 10.4365959,11.9304324 10.4509315,11.8937178 C10.4528311,11.8890283 10.4544635,11.8850511 10.4559772,11.8812521 C10.4660982,11.8583685 10.4764863,11.8356037 10.4871416,11.8129575 C10.5527352,11.6714416 10.63121,11.5361881 10.7166895,11.4058616 C10.8187009,11.2503365 10.8466895,11.218163 10.988621,11.0656059 C11.0876644,10.9592018 11.1957009,10.8615831 11.3082785,10.7697521 C11.3111279,10.7683274 11.3663037,10.7256767 11.3698653,10.7230648 C11.4012671,10.7002406 11.4334703,10.6785443 11.4656735,10.6568776 C11.5410023,10.6061539 11.6193288,10.5600603 11.6986644,10.5159256 C11.7669886,10.477905 11.8373607,10.4437132 11.9082968,10.4108274 C11.9184772,10.4061082 11.9261941,10.4024872 11.9321301,10.3996676 C11.9377991,10.3974119 11.9447146,10.3946516 11.9535,10.39109 C11.9900365,10.3762795 12.0271073,10.3628639 12.0641781,10.3494484 C12.2267374,10.2905626 12.3948767,10.248179 12.5646781,10.2164804 C12.6044498,10.2090603 12.6444886,10.2031539 12.6844977,10.1972772 C12.5966438,10.2102475 12.7299977,10.194042 12.7360228,10.1934484 C12.8182374,10.1855534 12.9008082,10.1824073 12.9833493,10.1808342 C13.0663356,10.1792612 13.1493219,10.1824073 13.2321598,10.1871562 C13.2731187,10.1895306 13.3139589,10.1934187 13.3547694,10.1973365 C13.3809772,10.2004826 13.394274,10.201937 13.3951941,10.2018183 C13.4120228,10.2043411 13.4288219,10.2067749 13.4455913,10.2095648 C13.7877763,10.2645032 14.0692945,10.3673753 14.3170365,10.4973457 C14.7819795,10.7412589 15.1338105,11.0822566 15.3960662,11.5041037 C15.6749132,11.9524849 15.8063973,12.4489484 15.8096918,12.9652384 C15.8091575,13.0481356 15.8060114,13.1306767 15.8002237,13.2133662 M14.3901986,9.61966758 C13.0533356,9.05909452 11.4726187,9.40436621 10.4547306,10.4222543 C9.40855708,11.4684279 9.13724886,13.0834553 9.72141781,14.4296379 C10.291726,15.7439438 11.6423607,16.5897155 13.0667511,16.580663 C14.0125457,16.5746379 14.9289863,16.1745466 15.5953402,15.5081927 C16.2652557,14.8382772 16.6347169,13.9088068 16.640742,12.9652384 C16.6313927,11.4974256 15.7395274,10.1854941 14.3901986,9.61966758" id="Fill-4"></path>
                            </g>
                        </g>
                    </g>
                </g>
            </g>
        </g>
    </g>
</svg>