<?xml version="1.0" encoding="UTF-8" standalone="no"?>
<svg width="360px" height="601px" viewBox="0 0 360 601" version="1.1" xmlns="http://www.w3.org/2000/svg" xmlns:xlink="http://www.w3.org/1999/xlink">
    <!-- Generator: Sketch 41.2 (35397) - http://www.bohemiancoding.com/sketch -->
    <title>Phone</title>
    <desc>Created with Sketch.</desc>
    <defs>
        <rect id="path-1" x="0" y="0" width="354" height="595" rx="4"></rect>
        <filter x="-50%" y="-50%" width="200%" height="200%" filterUnits="objectBoundingBox" id="filter-2">
            <feOffset dx="0" dy="2" in="SourceAlpha" result="shadowOffsetOuter1"></feOffset>
            <feGaussianBlur stdDeviation="1.5" in="shadowOffsetOuter1" result="shadowBlurOuter1"></feGaussianBlur>
            <feColorMatrix values="0 0 0 0 0.929411765   0 0 0 0 0.929411765   0 0 0 0 0.929411765  0 0 0 0.5 0" type="matrix" in="shadowBlurOuter1"></feColorMatrix>
        </filter>
    </defs>
    <g id="Page-1" stroke="none" stroke-width="1" fill="none" fill-rule="evenodd">
        <g id="Desktop-HD" transform="translate(-540.000000, -419.000000)">
            <g id="PREMIERE-LAME" transform="translate(-57.000000, 0.000000)">
                <g id="HEADER" transform="translate(57.000000, 0.000000)">
                    <g id="Phone" transform="translate(543.000000, 420.000000)">
                        <g id="Rectangle-14">
                            <use fill="black" fill-opacity="1" filter="url(#filter-2)" xlink:href="#path-1"></use>
                            <use fill="#FFFFFF" fill-rule="evenodd" xlink:href="#path-1"></use>
                        </g>
                        <g id="Group-11" transform="translate(121.000000, 15.000000)" font-family="OpenSans-Light, Open Sans" fill="#3D3D3D" font-weight="300">
                            <text id="06-44-63-11-29" font-size="16">
                                <tspan x="2.5234375" y="30">06 44 63 11 29 </tspan>
                            </text>
                            <text id="Mr-Wall" font-size="9">
                                <tspan x="40.354248" y="10">Mr Wall </tspan>
                            </text>
                        </g>
                        <path d="M0,65 L353,65" id="Line" stroke-opacity="0.2" stroke="#979797" stroke-linecap="square"></path>
                        <g id="Page-1" transform="translate(18.000000, 26.000000)" fill="#50E2C1">
                            <path d="M0.0034379746,6.92652997 C0.0206553753,7.05385246 0.0847986326,7.17008117 0.182701499,7.25183382 L7.6099843,13.5667563 C7.80325807,13.7712232 8.12380556,13.7785622 8.32585682,13.5829702 C8.52807687,13.387549 8.53533519,13.0634399 8.34206143,12.8589729 C8.31691052,12.8325185 8.28889004,12.8086242 8.25867519,12.7881434 L1.29052307,6.86252738 L8.25867519,0.936911377 C8.49077251,0.779038316 8.55238379,0.460902764 8.3962456,0.226226592 C8.24010741,-0.00844958001 7.92529905,-0.0705747629 7.69320174,0.0872982981 C7.66298689,0.107779128 7.63513521,0.131673429 7.6099843,0.158298507 L0.182870297,6.47322095 C0.0510390235,6.58381743 -0.0164801948,6.75449101 0.0034379746,6.92652997" id="Fill-1"></path>
                        </g>
                        <g id="DOWN" transform="translate(0.000000, 484.000000)">
                            <path d="M0,1 L353,1" id="Line-Copy" stroke-opacity="0.2" stroke="#979797" stroke-linecap="square"></path>
                            <g id="REDIGER" transform="translate(24.000000, 20.000000)">
                                <text id="Rédiger-un-message" font-family="OpenSans, Open Sans" font-size="14" font-weight="normal" line-spacing="18" fill-opacity="0.579483696" fill="#3D3D3D">
                                    <tspan x="0" y="17">Rédiger un message</tspan>
                                </text>
                                <path d="M1.5,0.5 L1.5,22.5" id="Line" stroke="#3D3D3D" stroke-linecap="round" stroke-linejoin="round"></path>
                            </g>
                            <g id="SEND" transform="translate(298.000000, 25.000000)" fill="#DEDEDE">
                                <path d="M18.5929639,29.5956819 L14.891759,25.8944771 L10.9206747,21.9233928 L20.3279036,12.5161639 C20.6363373,12.2077301 20.6363373,11.7450795 20.3279036,11.4366458 C20.0194699,11.128212 19.5568193,11.128212 19.2483855,11.4366458 L9.80260241,20.8053205 L2.13031325,13.1330313 L29.5809157,2.14507952 L18.5929639,29.5956819 Z M7.14236145,25.6631518 L9.80260241,23.0029108 L12.4628434,25.6631518 L7.14236145,25.6631518 Z M30.6604337,0.0631518072 L0.472481928,12.1306217 C0.241156627,12.2077301 0.0483855422,12.4390554 0.0098313253,12.7089349 C-0.0287228916,12.9788145 0.0483855422,13.2101398 0.20260241,13.4029108 L8.72308434,21.9233928 L4.752,25.8944771 C4.5206747,26.1258024 4.48212048,26.4342361 4.59778313,26.7426699 C4.71344578,27.0125494 4.9833253,27.2053205 5.29175904,27.2053205 L14.0435663,27.2053205 L18.3616386,31.5233928 C18.5158554,31.6776096 18.7086265,31.7547181 18.9013976,31.7547181 L19.0556145,31.7547181 C19.325494,31.7161639 19.5182651,31.5233928 19.6339277,31.2920675 L31.6628434,1.06556145 C31.778506,0.795681928 31.7013976,0.448693976 31.5086265,0.217368675 C31.2773012,-0.0139566265 30.9688675,-0.0525108434 30.6604337,0.0631518072 L30.6604337,0.0631518072 Z" id="Fill-1"></path>
                            </g>
                            <g id="ICONS" transform="translate(24.000000, 70.000000)" fill="#DEDEDE">
                                <g id="CAMERA" transform="translate(87.000000, 3.000000)">
                                    <path d="M11.8181818,7.60008 C14.0738245,7.60008 15.8934169,9.38608 15.8934169,11.60008 C15.8934169,13.81408 14.0738245,15.60008 11.8181818,15.60008 C9.56253918,15.60008 7.74294671,13.81408 7.74294671,11.60008 C7.74294671,9.38608 9.56253918,7.60008 11.8181818,7.60008 L11.8181818,7.60008 Z M11.8181818,6.80008 C9.12241379,6.80008 6.92789969,8.95408 6.92789969,11.60008 C6.92789969,14.24648 9.12241379,16.40008 11.8181818,16.40008 C14.5143574,16.40008 16.7084639,14.24648 16.7084639,11.60008 C16.7084639,8.95368 14.5143574,6.80008 11.8181818,6.80008 L11.8181818,6.80008 Z M8.40517241,0.80008 L15.2311912,0.80008 L16.7467712,3.77488 C16.813605,3.91008 16.9631661,4.00128 17.1159875,4.00008 L21.2804702,4.00008 C22.1403448,4.00008 22.8213166,4.66808 22.8213166,5.52528 L22.8213166,17.67488 C22.8213166,18.53208 22.1403448,19.20008 21.2804702,19.20008 L2.35589342,19.20008 C1.49601881,19.20008 0.815047022,18.53208 0.815047022,17.67488 L0.815047022,5.52528 C0.815047022,4.66808 1.49601881,4.00008 2.35589342,4.00008 L6.52037618,4.00008 C6.67319749,4.00128 6.82275862,3.91008 6.88959248,3.77488 L8.40517241,0.80008 L8.40517241,0.80008 Z M8.15047022,8e-05 C7.96137931,0.00088 7.83382445,0.12528 7.78125392,0.21248 L6.26567398,3.20008 L2.35589342,3.20008 C1.05752351,3.20008 0,4.24248 0,5.52528 L0,17.67488 C0,18.95768 1.05752351,20.00008 2.35589342,20.00008 L21.2804702,20.00008 C22.5788401,20.00008 23.6363636,18.95768 23.6363636,17.67488 L23.6363636,5.52528 C23.6363636,4.24248 22.5788401,3.20008 21.2804702,3.20008 L17.3706897,3.20008 L15.8551097,0.21248 C15.7850157,0.08248 15.6362696,-0.00312 15.4858934,8e-05 L8.15047022,8e-05 Z" id="Fill-1"></path>
                                </g>
                                <g id="SMILEY" transform="translate(0.000000, 3.000000)">
                                    <path d="M10,19.2857143 C4.88,19.2857143 0.714285714,15.12 0.714285714,10 C0.714285714,4.88 4.88,0.714285714 10,0.714285714 C15.12,0.714285714 19.2857143,4.88 19.2857143,10 C19.2857143,15.12 15.12,19.2857143 10,19.2857143 M10,0 C4.48607143,0 0,4.48607143 0,10 C0,15.5139286 4.48607143,20 10,20 C15.5139286,20 20,15.5139286 20,10 C20,4.48607143 15.5139286,0 10,0" id="Fill-1"></path>
                                    <path d="M14.1307143,10.3925 C14.1164286,10.3992857 12.6807143,11.0714286 10,11.0714286 C7.31928571,11.0714286 5.88357143,10.3992857 5.86928571,10.3925 C5.69214286,10.3075 5.47892857,10.3814286 5.39285714,10.5585714 C5.30678571,10.7360714 5.38107143,10.9496429 5.55857143,11.0357143 C5.62178571,11.0660714 7.13821429,11.7857143 10,11.7857143 C12.8617857,11.7857143 14.3782143,11.0660714 14.4414286,11.0357143 C14.6185714,10.9496429 14.6925,10.7371429 14.6071429,10.5596429 C14.5214286,10.3817857 14.3085714,10.3071429 14.1307143,10.3925" id="Fill-3"></path>
                                    <path d="M4.64285714,7.14285714 C4.64285714,6.55214286 5.12357143,6.07142857 5.71428571,6.07142857 C6.305,6.07142857 6.78571429,6.55214286 6.78571429,7.14285714 C6.78571429,7.73357143 6.305,8.21428571 5.71428571,8.21428571 C5.12357143,8.21428571 4.64285714,7.73357143 4.64285714,7.14285714 M7.5,7.14285714 C7.5,6.15821429 6.69892857,5.35714286 5.71428571,5.35714286 C4.72964286,5.35714286 3.92857143,6.15821429 3.92857143,7.14285714 C3.92857143,8.1275 4.72964286,8.92857143 5.71428571,8.92857143 C6.69892857,8.92857143 7.5,8.1275 7.5,7.14285714" id="Fill-5"></path>
                                    <path d="M14.2857143,8.21428571 C13.695,8.21428571 13.2142857,7.73357143 13.2142857,7.14285714 C13.2142857,6.55214286 13.695,6.07142857 14.2857143,6.07142857 C14.8764286,6.07142857 15.3571429,6.55214286 15.3571429,7.14285714 C15.3571429,7.73357143 14.8764286,8.21428571 14.2857143,8.21428571 M14.2857143,5.35714286 C13.3010714,5.35714286 12.5,6.15821429 12.5,7.14285714 C12.5,8.1275 13.3010714,8.92857143 14.2857143,8.92857143 C15.2703571,8.92857143 16.0714286,8.1275 16.0714286,7.14285714 C16.0714286,6.15821429 15.2703571,5.35714286 14.2857143,5.35714286" id="Fill-7"></path>
                                </g>
                                <g id="Image" transform="translate(40.000000, 3.000000)">
                                    <path d="M1.25,0.833333333 C1,0.833333333 0.833333333,1 0.833333333,1.25 L0.833333333,18.625 C0.833333333,18.875 1,19.0416667 1.25,19.0416667 L25.5,19.0416667 C25.75,19.0416667 25.9166667,18.875 25.9166667,18.625 L25.9166667,1.25 C25.9166667,1 25.75,0.833333333 25.5,0.833333333 L1.25,0.833333333 Z M25.5,19.8333333 L1.25,19.8333333 C0.541666667,19.8333333 0,19.2916667 0,18.5833333 L0,1.25 C0,0.541666667 0.541666667,0 1.25,0 L25.5,0 C26.2083333,0 26.75,0.541666667 26.75,1.25 L26.75,18.625 C26.75,19.2916667 26.2083333,19.8333333 25.5,19.8333333 L25.5,19.8333333 Z" id="Fill-1"></path>
                                    <path d="M19.9583333,17.0833333 C19.8333333,17.0833333 19.75,17.0416667 19.6666667,16.9583333 L11.125,8.45833333 L3.41666667,16.125 C3.25,16.2916667 3,16.2916667 2.83333333,16.125 C2.66666667,15.9583333 2.66666667,15.7083333 2.83333333,15.5416667 L10.8333333,7.54166667 C11,7.375 11.25,7.375 11.4166667,7.54166667 L20.25,16.375 C20.4166667,16.5416667 20.4166667,16.7916667 20.25,16.9583333 C20.1666667,17.0416667 20.0416667,17.0833333 19.9583333,17.0833333" id="Fill-3"></path>
                                    <path d="M23.5416667,15.7916667 C23.4166667,15.7916667 23.3333333,15.75 23.25,15.6666667 L19.875,12.2916667 L17.7083333,14.4583333 C17.5416667,14.625 17.2916667,14.625 17.125,14.4583333 C16.9583333,14.2916667 16.9583333,14.0416667 17.125,13.875 L19.5833333,11.4166667 C19.75,11.25 20,11.25 20.1666667,11.4166667 L23.8333333,15.0833333 C24,15.25 24,15.5 23.8333333,15.6666667 C23.7916667,15.75 23.6666667,15.7916667 23.5416667,15.7916667" id="Fill-5"></path>
                                    <path d="M18.5833333,3.20833333 C17.875,3.20833333 17.3333333,3.79166667 17.3333333,4.45833333 C17.3333333,5.16666667 17.9166667,5.70833333 18.5833333,5.70833333 C19.25,5.70833333 19.8333333,5.125 19.8333333,4.45833333 C19.8333333,3.75 19.2916667,3.20833333 18.5833333,3.20833333 M18.5833333,6.54166667 C17.4166667,6.54166667 16.5,5.58333333 16.5,4.45833333 C16.5,3.33333333 17.4583333,2.375 18.5833333,2.375 C19.7083333,2.375 20.6666667,3.33333333 20.6666667,4.45833333 C20.6666667,5.58333333 19.75,6.54166667 18.5833333,6.54166667" id="Fill-7"></path>
                                </g>
                                <g id="CAMERA" transform="translate(131.000000, 3.000000)">
                                    <path d="M22.7586207,10.7867335 L22.7586207,18.1681129 L17.2413793,16.6270784 L17.2413793,12.327768 L22.7586207,10.7867335 Z M0.689655172,19.3105266 L16.5517241,19.3105266 L16.5517241,9.65535423 L0.689655172,9.65535423 L0.689655172,19.3105266 Z M0.344827586,8.96569906 C0.164137931,8.96569906 0,9.12983699 0,9.31052665 L0,19.6553542 C0,19.8356991 0.164137931,20.0001818 0.344827586,20.0001818 L16.8965517,20.0001818 C17.0772414,20.0001818 17.2413793,19.8356991 17.2413793,19.6553542 L17.2413793,17.3384577 L23.0065517,18.9439749 C23.2086207,19.0032853 23.4434483,18.8315611 23.4482759,18.6208715 L23.4482759,10.3450094 C23.4275862,10.0388025 23.2251724,9.96604389 23.0065517,10.0108715 L17.2413793,11.6163887 L17.2413793,9.31052665 C17.237931,9.14156113 17.1248276,8.97431975 16.8965517,8.96569906 L0.344827586,8.96569906 Z M13.1034483,0.689836991 C14.8213793,0.689836991 16.2068966,2.0750094 16.2068966,3.79328527 C16.2068966,5.5112163 14.8213793,6.89673354 13.1034483,6.89673354 C11.3855172,6.89673354 10,5.5112163 10,3.79328527 C10,2.0750094 11.3855172,0.689836991 13.1034483,0.689836991 L13.1034483,0.689836991 Z M4.13793103,0.689836991 C5.85586207,0.689836991 7.24137931,2.0750094 7.24137931,3.79328527 C7.24137931,5.5112163 5.85586207,6.89673354 4.13793103,6.89673354 C2.42,6.89673354 1.03448276,5.5112163 1.03448276,3.79328527 C1.03448276,2.0750094 2.42,0.689836991 4.13793103,0.689836991 L4.13793103,0.689836991 Z M13.1034483,0.000181818182 C11.0127586,0.000181818182 9.31034483,1.70259561 9.31034483,3.79328527 C9.31034483,5.88397492 11.0127586,7.58638871 13.1034483,7.58638871 C15.1941379,7.58638871 16.8965517,5.88397492 16.8965517,3.79328527 C16.8965517,1.70259561 15.1941379,0.000181818182 13.1034483,0.000181818182 L13.1034483,0.000181818182 Z M4.13793103,0.000181818182 C2.04724138,0.000181818182 0.344827586,1.70259561 0.344827586,3.79328527 C0.344827586,5.88397492 2.04724138,7.58638871 4.13793103,7.58638871 C6.22862069,7.58638871 7.93103448,5.88397492 7.93103448,3.79328527 C7.93103448,1.70259561 6.22862069,0.000181818182 4.13793103,0.000181818182 L4.13793103,0.000181818182 Z" id="Fill-1"></path>
                                </g>
                                <g id="Locate" transform="translate(175.000000, 0.000000)">
                                    <path d="M22.2668927,13.9989758 C22.2594726,14.0706242 22.2507466,14.1421836 22.2416347,14.2136539 C22.242347,14.2058479 22.2309498,14.2889826 22.2302374,14.2935534 C22.2243607,14.3337406 22.2179795,14.3738982 22.2115685,14.414026 C22.1840251,14.5870329 22.1506941,14.75909 22.1138014,14.930316 C22.0436073,15.2560877 21.9545068,15.5776151 21.8509817,15.8943046 C21.8017123,16.0449918 21.7477831,16.1941356 21.691153,16.342211 C21.6629269,16.4159667 21.6333653,16.4892178 21.6033288,16.5622909 C21.6008059,16.5684347 21.5986986,16.5735397 21.5968288,16.5781402 C21.5940388,16.5845215 21.5898836,16.5941379 21.5837991,16.6082658 C21.5630525,16.6564963 21.5416233,16.7044005 21.520105,16.7523046 C21.2527443,17.346832 20.9216895,17.9120648 20.5408607,18.4408502 C20.4276895,18.5980078 20.3976233,18.6356721 20.2989954,18.7586676 C20.1936301,18.8900329 20.0841096,19.0179849 19.9720662,19.1437406 C19.7567648,19.3854279 19.5280776,19.6150352 19.2899224,19.8341059 C19.1755342,19.9393228 19.0580297,20.0411265 18.938774,20.1407338 C18.8790868,20.1905968 18.8185388,20.2393616 18.7576941,20.2877703 C18.7550228,20.2898776 18.7157854,20.3204484 18.7015091,20.3316676 C18.6661005,20.3586767 18.6305434,20.3855078 18.5948082,20.4121014 C18.3342443,20.6061516 18.0629064,20.7855397 17.7842968,20.9525215 C17.5042032,21.1203936 17.21479,21.2723571 16.9192626,21.4110831 C16.6322831,21.5457726 16.4095616,21.6349621 16.0669909,21.753268 C15.752468,21.8618388 15.4318311,21.9521265 15.1078699,22.0276333 C14.9507123,22.0642589 14.7924863,22.0959575 14.633726,22.1246584 C14.5538858,22.1390831 14.4737489,22.1520237 14.3935822,22.1644301 C14.3605183,22.1695648 14.327395,22.1742543 14.2942717,22.1789735 C14.3099132,22.176421 14.1932991,22.1919438 14.1808333,22.1934575 C13.9349909,22.2231379 13.6879909,22.2427269 13.440605,22.2529667 L13.440605,21.1483228 L13.440605,20.0738936 C13.440605,19.8473731 13.2516005,19.6583685 13.0250799,19.6583685 C12.7985594,19.6583685 12.6095548,19.8473731 12.6095548,20.0738936 L12.6095548,22.2523137 C12.4440274,22.2452795 12.2787078,22.2343274 12.113774,22.2193091 C11.7711142,22.1881744 11.5497877,22.1542795 11.1782192,22.0790397 C10.8510822,22.0128228 10.5279521,21.9275808 10.2095114,21.8278251 C10.0580228,21.7803365 9.90804795,21.7282475 9.75908219,21.6733388 C9.68488128,21.6460032 9.61121461,21.6173023 9.53769635,21.5881562 C9.50101142,21.5735831 9.46447489,21.5585945 9.42796804,21.5435763 C9.42155708,21.540905 9.41621461,21.538679 9.41149543,21.5367201 C9.38959132,21.5273411 9.36771689,21.5178731 9.34584247,21.508316 C9.04595205,21.3778411 8.75363014,21.2303594 8.46855023,21.0702338 C8.1850137,20.9109689 7.91055936,20.7357954 7.64444521,20.5489575 C7.36491553,20.352711 7.2087968,20.2286174 6.9338379,19.989453 C6.68959817,19.7770603 6.45728995,19.5511037 6.23536986,19.3155603 C6.12881735,19.2024187 6.0256484,19.0861607 5.92461644,18.9681219 C5.87407078,18.9090877 5.82459361,18.8491037 5.7754726,18.7888822 C5.75089726,18.7587269 5.72667808,18.7283046 5.70248858,18.6979119 C5.68895434,18.680816 5.67547945,18.6636311 5.66203425,18.6464461 C5.65838356,18.6416379 5.65399087,18.6359096 5.64823288,18.6283708 C5.25309817,18.1108639 4.91340639,17.5518046 4.62969178,16.9660032 C4.59544064,16.8952452 4.56243607,16.8238639 4.52990639,16.7523046 C4.51361187,16.7164804 4.49776256,16.6804187 4.48191324,16.6443868 C4.48039954,16.6409438 4.45707078,16.5863913 4.45178767,16.5744005 C4.38925114,16.4243662 4.33119635,16.2724918 4.27625799,16.1195192 C4.16394749,15.8068365 4.06983105,15.4878023 3.99040639,15.1652954 C3.95191096,15.0089096 3.91828311,14.8513662 3.88765297,14.6932886 C3.87224886,14.6137749 3.85835845,14.5339941 3.84494292,14.4541242 C3.83820548,14.4140557 3.83200228,14.3739575 3.82576941,14.3338 C3.82398858,14.3224324 3.80989041,14.2230329 3.80905936,14.219679 C3.77264155,13.9412772 3.74972831,13.6612726 3.7377968,13.3807635 L4.84965297,13.3807635 L5.92411187,13.3807635 C6.15063242,13.3807635 6.33963699,13.1917589 6.33963699,12.9652384 C6.33963699,12.7387178 6.15063242,12.5497132 5.92411187,12.5497132 L3.73767808,12.5497132 C3.74302055,12.4253228 3.75055936,12.3010511 3.76026484,12.1769575 C3.77228539,12.0233616 3.78893607,11.870211 3.80834703,11.7173571 C3.80828767,11.7198799 3.81909132,11.6413753 3.81974429,11.6369233 C3.825621,11.5967361 3.83203196,11.5565785 3.83841324,11.5164507 C3.85328311,11.4231059 3.87008219,11.3301174 3.88768265,11.2372772 C4.00990639,10.5919963 4.2023242,9.96078402 4.45291553,9.35396895 C4.45968265,9.3384758 4.48051826,9.28941416 4.48194292,9.28614932 C4.49764384,9.25005799 4.51378995,9.21414475 4.52993607,9.17826119 C4.56216895,9.10655342 4.59573744,9.03543927 4.62972146,8.96456256 C4.70318037,8.81135251 4.78156621,8.66054658 4.86294977,8.51143242 C5.01886073,8.22581826 5.19079909,7.9491379 5.37455023,7.68064932 C5.46249315,7.55213333 5.55429452,7.42628858 5.64829224,7.3021653 C5.65274429,7.29628858 5.6563653,7.29151005 5.6595411,7.28729543 C5.66381507,7.28189361 5.66972146,7.27438447 5.67847717,7.26319498 C5.7024589,7.23256484 5.72676712,7.20223151 5.75110502,7.17192785 C5.80785388,7.10116986 5.86599772,7.03156941 5.92470548,6.96241416 C6.13421918,6.7156516 6.35738584,6.48064247 6.59028767,6.25593242 C6.8233379,6.03107397 7.06879452,5.81930457 7.32297717,5.61872466 C7.33001142,5.61317443 7.33550228,5.6088411 7.34013242,5.60516073 C7.34547489,5.6011242 7.35218265,5.59601918 7.36197717,5.58853973 C7.39290411,5.56491416 7.42409817,5.54167443 7.45532192,5.5184347 C7.51776941,5.47192557 7.58104795,5.42654429 7.64456393,5.38154886 C7.78242922,5.28393014 7.92338128,5.19073379 8.06611416,5.10044612 C8.34166667,4.92613333 8.62692466,4.76740274 8.91856393,4.62176119 C9.05924886,4.55147808 9.20201142,4.48552831 9.34593151,4.42222009 C9.34934475,4.42070639 9.40312557,4.39773379 9.41565068,4.39221324 C9.44408447,4.38043014 9.47257763,4.36867671 9.50110046,4.35710137 C9.58655023,4.32237534 9.67271233,4.28943014 9.75914155,4.25716758 C10.3851598,4.02355342 11.0362877,3.85951005 11.6967352,3.76002146 C11.7005936,3.75945753 11.7612306,3.75096895 11.7746758,3.74889132 C11.8061667,3.74485479 11.8376872,3.74087763 11.8692671,3.73707854 C11.9506507,3.72725434 12.032242,3.71897352 12.1138333,3.71119726 C12.2787078,3.69552603 12.4440868,3.6851379 12.6095548,3.67795525 L12.6095548,4.84762877 L12.6095548,5.92208767 C12.6095548,6.14860822 12.7985594,6.33761279 13.0250799,6.33761279 C13.2516005,6.33761279 13.440605,6.14860822 13.440605,5.92208767 L13.440605,3.67798493 C13.5237694,3.68151689 13.6069041,3.68596895 13.6899795,3.69140046 C14.0697397,3.7162726 14.294895,3.74604201 14.6337557,3.80584795 C14.9635342,3.86402146 15.2898105,3.94142785 15.6116644,4.03355571 C15.9296005,4.12455571 16.2421644,4.23389817 16.549,4.35707169 C16.5769292,4.36829087 16.6047397,4.37986621 16.6325799,4.39141187 C16.6237648,4.38802831 16.7000137,4.42040959 16.7041393,4.42219041 C16.7763219,4.45359224 16.8478813,4.4863 16.9192626,4.51945297 C17.0734521,4.59107169 17.2253265,4.66770639 17.3755388,4.74733881 C17.6631416,4.89986621 17.9420776,5.06856941 18.2128813,5.24917443 C18.3424954,5.33560365 18.4694977,5.425921 18.5947785,5.5184347 C18.6260913,5.54155571 18.6571073,5.56503288 18.6881233,5.58853973 C18.694,5.59299178 18.6988082,5.59664247 18.7030525,5.59981826 C18.7084247,5.60409224 18.7159041,5.60996895 18.7270936,5.61872466 C18.7985342,5.67464247 18.868847,5.73195525 18.9387146,5.78983196 C19.4373447,6.20301233 19.8918699,6.66851918 20.2989361,7.17189817 C20.3980982,7.29447808 20.4270068,7.3330032 20.5408014,7.48971553 C20.6400525,7.62633425 20.7348516,7.76609909 20.8268311,7.90767443 C21.0043493,8.18091187 21.1663744,8.46406256 21.3155183,8.75371324 C21.6426256,9.38919954 21.8761804,10.0205009 22.0595457,10.7652703 C22.2137352,11.3911995 22.2899543,11.9308479 22.3132534,12.5497132 L21.150347,12.5497132 L20.0758881,12.5497132 C19.8493676,12.5497132 19.660363,12.7387178 19.660363,12.9652384 C19.660363,13.1917589 19.8493973,13.3807635 20.0758881,13.3807635 L22.3112352,13.3807635 C22.3024498,13.5871607 22.2882032,13.7932909 22.2668927,13.9989758 M25.5823973,12.5497132 L23.1420776,12.5497132 C23.0295,9.95814247 21.9201073,7.47508311 20.0474543,5.66820183 C18.2714703,3.95460594 15.893984,2.9541105 13.440605,2.84856712 L13.440605,1.48997808 L13.440605,0.415519178 C13.440605,0.18899863 13.2516005,-5.93607297e-06 13.0250799,-5.93607297e-06 C12.7985594,-5.93607297e-06 12.6095548,0.18899863 12.6095548,0.415519178 L12.6095548,2.84666758 C12.6091096,2.84666758 12.6086347,2.84666758 12.6081895,2.84669726 C9.88560959,2.95595068 7.27643836,4.19439361 5.46457078,6.22812192 C3.90949772,7.9736242 3.00742237,10.228768 2.90840868,12.5497132 L1.49203196,12.5497132 L0.417573059,12.5497132 C0.191052511,12.5497132 0.00204794521,12.7387178 0.00204794521,12.9652384 C0.00204794521,13.1917589 0.191082192,13.3807635 0.417573059,13.3807635 L2.90742922,13.3807635 C2.91303881,13.5186881 2.92134932,13.6566425 2.93271689,13.7945374 C3.15588356,16.5013274 4.48422831,19.052147 6.58372831,20.7777635 C8.2891621,22.1795078 10.4211027,22.9884758 12.6095548,23.0815237 L12.6095548,24.5059142 L12.6095548,25.5803434 C12.6095548,25.8068639 12.7985594,25.9958685 13.0250799,25.9958685 C13.2516005,25.9958685 13.440605,25.8068639 13.440605,25.5803434 L13.440605,23.0821767 C13.7144954,23.0709575 13.9885639,23.0486082 14.2620388,23.0144164 C16.9935228,22.6730329 19.4520068,21.2315466 21.1193904,19.0477543 C22.359258,17.4238525 23.0555,15.4170146 23.1429087,13.3807635 L24.5079384,13.3807635 L25.5823973,13.3807635 C25.8089178,13.3807635 25.9979224,13.1917589 25.9979224,12.9652384 C25.9979224,12.7387178 25.8089178,12.5497132 25.5823973,12.5497132" id="Fill-1"></path>
                                    <path d="M15.8002237,13.2133662 C15.79779,13.2479142 15.7941986,13.2824027 15.7904589,13.316832 C15.7950297,13.2719553 15.7816142,13.3799621 15.7806644,13.3857795 C15.75321,13.556768 15.7086301,13.7246402 15.6538105,13.8887132 C15.6412854,13.9261699 15.6273653,13.9631219 15.6135046,14.0000443 C15.6121986,14.0034872 15.5932032,14.0488982 15.5861986,14.0662018 C15.5573196,14.1309644 15.5258288,14.1944804 15.4929132,14.2572247 C15.4190388,14.3980283 15.332016,14.53159 15.2378995,14.6596311 C15.2351986,14.6620055 15.192637,14.7166174 15.1898174,14.7200009 C15.1652123,14.749889 15.1395388,14.7788571 15.1138356,14.8078251 C15.0624886,14.8657315 15.0080548,14.9208479 14.9526712,14.9748959 C14.8972877,15.0289735 14.8389954,15.0800237 14.7798721,15.1299758 C14.7767557,15.1325877 14.729089,15.1703411 14.7207192,15.1774941 C14.6864977,15.2029598 14.6516826,15.2276242 14.6166005,15.2518731 C14.3177192,15.4584484 14.1126279,15.5490032 13.797274,15.6414279 C13.7205502,15.6639256 13.6426393,15.6820306 13.5644612,15.6986813 C13.5250753,15.7070808 13.4853333,15.7139667 13.4456507,15.7208525 C13.441347,15.7215945 13.3790479,15.7298753 13.3673242,15.7317452 C13.1986804,15.7504438 13.0285228,15.7532338 12.859137,15.7456356 C12.8180594,15.7437954 12.7770708,15.7403822 12.7360822,15.7369986 C12.7315708,15.7366128 12.6531256,15.7277384 12.6548767,15.7287772 C12.5849795,15.7184187 12.5155571,15.7050329 12.4464315,15.6903411 C12.2781142,15.6545169 12.1137146,15.6018936 11.9535594,15.5393571 C11.9483356,15.5373091 11.9439132,15.5355877 11.9398174,15.5340146 C11.9336735,15.5310763 11.9237009,15.5265055 11.9083562,15.5196196 C11.8726507,15.5035922 11.8375388,15.4862589 11.8024566,15.4689256 C11.7325,15.4344073 11.664532,15.3960306 11.5973059,15.3564963 C11.5303174,15.3170511 11.4655548,15.2740146 11.4016233,15.2298205 C11.3697169,15.207768 11.3386119,15.184558 11.3075365,15.1613479 C11.37129,15.2089553 11.2517078,15.1142749 11.240726,15.1050146 C11.1224201,15.0051105 11.0133151,14.8946995 10.9106507,14.7789164 C10.8849772,14.7499187 10.8603425,14.7200603 10.8357374,14.6901721 C10.8298904,14.6830489 10.825379,14.677647 10.8215502,14.6730763 C10.8176621,14.6677338 10.8128242,14.6611744 10.80579,14.6517361 C10.7515936,14.5791082 10.7018493,14.5032749 10.6540046,14.4263137 C10.6128379,14.3601265 10.5753516,14.2917132 10.5391416,14.2227064 C10.5209772,14.1880694 10.504089,14.1528091 10.4872009,14.1175192 C10.4854795,14.1138982 10.462032,14.0608297 10.4561553,14.0486904 C10.3946279,13.8977064 10.3467534,13.7414096 10.3088219,13.5829758 C10.2900936,13.5046493 10.2758174,13.4253434 10.2630548,13.345889 C10.2623425,13.3413479 10.2616895,13.3373114 10.2610662,13.3335717 C10.2605616,13.3268639 10.2594041,13.3148731 10.2572374,13.2949872 C10.2528151,13.2542064 10.2499064,13.2132772 10.2470571,13.1723776 C10.2345023,12.9935534 10.2401416,12.8137795 10.2572374,12.6355192 C10.2585434,12.6218365 10.2594338,12.6120123 10.2599977,12.6049187 C10.2608584,12.5993091 10.2618676,12.5926311 10.2630548,12.5846174 C10.2689315,12.5446676 10.2763516,12.5049553 10.283742,12.4652726 C10.2984338,12.3865603 10.3175776,12.3087384 10.3381461,12.2313913 C10.3585365,12.1547269 10.3832306,12.0792795 10.40929,12.0043959 C10.4222603,11.9671767 10.4365959,11.9304324 10.4509315,11.8937178 C10.4528311,11.8890283 10.4544635,11.8850511 10.4559772,11.8812521 C10.4660982,11.8583685 10.4764863,11.8356037 10.4871416,11.8129575 C10.5527352,11.6714416 10.63121,11.5361881 10.7166895,11.4058616 C10.8187009,11.2503365 10.8466895,11.218163 10.988621,11.0656059 C11.0876644,10.9592018 11.1957009,10.8615831 11.3082785,10.7697521 C11.3111279,10.7683274 11.3663037,10.7256767 11.3698653,10.7230648 C11.4012671,10.7002406 11.4334703,10.6785443 11.4656735,10.6568776 C11.5410023,10.6061539 11.6193288,10.5600603 11.6986644,10.5159256 C11.7669886,10.477905 11.8373607,10.4437132 11.9082968,10.4108274 C11.9184772,10.4061082 11.9261941,10.4024872 11.9321301,10.3996676 C11.9377991,10.3974119 11.9447146,10.3946516 11.9535,10.39109 C11.9900365,10.3762795 12.0271073,10.3628639 12.0641781,10.3494484 C12.2267374,10.2905626 12.3948767,10.248179 12.5646781,10.2164804 C12.6044498,10.2090603 12.6444886,10.2031539 12.6844977,10.1972772 C12.5966438,10.2102475 12.7299977,10.194042 12.7360228,10.1934484 C12.8182374,10.1855534 12.9008082,10.1824073 12.9833493,10.1808342 C13.0663356,10.1792612 13.1493219,10.1824073 13.2321598,10.1871562 C13.2731187,10.1895306 13.3139589,10.1934187 13.3547694,10.1973365 C13.3809772,10.2004826 13.394274,10.201937 13.3951941,10.2018183 C13.4120228,10.2043411 13.4288219,10.2067749 13.4455913,10.2095648 C13.7877763,10.2645032 14.0692945,10.3673753 14.3170365,10.4973457 C14.7819795,10.7412589 15.1338105,11.0822566 15.3960662,11.5041037 C15.6749132,11.9524849 15.8063973,12.4489484 15.8096918,12.9652384 C15.8091575,13.0481356 15.8060114,13.1306767 15.8002237,13.2133662 M14.3901986,9.61966758 C13.0533356,9.05909452 11.4726187,9.40436621 10.4547306,10.4222543 C9.40855708,11.4684279 9.13724886,13.0834553 9.72141781,14.4296379 C10.291726,15.7439438 11.6423607,16.5897155 13.0667511,16.580663 C14.0125457,16.5746379 14.9289863,16.1745466 15.5953402,15.5081927 C16.2652557,14.8382772 16.6347169,13.9088068 16.640742,12.9652384 C16.6313927,11.4974256 15.7395274,10.1854941 14.3901986,9.61966758" id="Fill-4"></path>
                                </g>
                            </g>
                        </g>
                    </g>
                </g>
            </g>
        </g>
    </g>
</svg>