<?xml version="1.0" encoding="UTF-8" standalone="no"?>
<svg width="11px" height="8px" viewBox="0 0 11 8" version="1.1" xmlns="http://www.w3.org/2000/svg" xmlns:xlink="http://www.w3.org/1999/xlink">
    <!-- Generator: Sketch 41.2 (35397) - http://www.bohemiancoding.com/sketch -->
    <title>Fill 1</title>
    <desc>Created with Sketch.</desc>
    <defs></defs>
    <g id="Page-1" stroke="none" stroke-width="1" fill="none" fill-rule="evenodd">
        <g id="Desktop-HD" transform="translate(-1264.000000, -37.000000)" stroke="#FFFFFF" fill="#FFFFFF">
            <g id="PREMIERE-LAME" transform="translate(-53.000000, 0.000000)">
                <g id="HEADER" transform="translate(53.000000, 0.000000)">
                    <g id="Button-Copy" transform="translate(1225.000000, 18.000000)">
                        <g id="Group-4" transform="translate(40.000000, 7.000000)">
                            <g id="ICON" transform="translate(4.500000, 16.000000) rotate(180.000000) translate(-4.500000, -16.000000) translate(0.000000, 13.000000)">
                                <path d="M4.4580182,0.00227945603 C4.37452813,0.0136949876 4.29831267,0.0562234387 4.24470444,0.121135285 L0.103776311,5.04559417 C-0.0303002265,5.1737391 -0.0351126564,5.38626944 0.0931441986,5.52023406 C0.221289137,5.6543106 0.433819475,5.65912303 0.567896013,5.53097809 C0.585243144,5.51430246 0.600911521,5.49572425 0.614341558,5.47569111 L4.49998706,0.855646402 L8.38563257,5.47569111 C8.48915577,5.62957695 8.69776902,5.67042665 8.85165486,5.56690344 C9.0055407,5.46338024 9.04627848,5.25465508 8.94275528,5.10076924 C8.92932524,5.0807361 8.91365686,5.0622698 8.89619782,5.04559417 L4.75526969,0.121247202 C4.68274749,0.0338400434 4.57083051,-0.0109267472 4.4580182,0.00227945603" id="Fill-1"></path>
                            </g>
                        </g>
                    </g>
                </g>
            </g>
        </g>
    </g>
</svg>