<?xml version="1.0" encoding="UTF-8" standalone="no"?>
<svg width="57px" height="60px" viewBox="0 0 57 60" version="1.1" xmlns="http://www.w3.org/2000/svg" xmlns:xlink="http://www.w3.org/1999/xlink">
    <!-- Generator: sketchtool 42 (36781) - http://www.bohemiancoding.com/sketch -->
    <title>67CBC729-C78F-4189-A736-45FFA8912C96</title>
    <desc>Created with sketchtool.</desc>
    <defs></defs>
    <g id="Page-1" stroke="none" stroke-width="1" fill="none" fill-rule="evenodd">
        <g id="Desktop-HD" transform="translate(-186.000000, -6531.000000)" fill="#2CB4E8">
            <g id="02_PRICING" transform="translate(127.000000, 5367.000000)">
                <g id="FREE" transform="translate(14.000000, 1121.000000)">
                    <g id="ICON" transform="translate(45.116883, 43.000000)">
                        <path d="M42.1672208,42.1886494 C41.2952727,41.7117662 40.4295584,41.1904675 39.6324156,40.5818961 C38.6108571,39.8018961 37.6656623,38.9174805 36.8054026,37.9621558 C36.3487792,37.4556623 35.9155325,36.9289091 35.5111169,36.3803377 C35.3085195,36.1052727 35.1129351,35.8247532 34.9251429,35.5395584 C34.8417662,35.4133247 34.7007273,35.2434545 34.6508571,35.1094286 C34.5472208,34.8257922 34.5292987,34.9987792 34.6944935,34.7743636 C34.9804675,34.3878701 35.5508571,34.0699481 35.9217662,33.7613766 C36.3877403,33.3756623 36.7672208,32.9198182 37.1685195,32.4756623 C37.9461818,31.616961 38.7760519,30.752026 39.4485195,29.8037143 C40.893974,27.7668312 42.0994286,25.4034545 42.9347532,23.0470909 C43.329039,21.9359221 43.6103377,20.7842338 43.7918961,19.6185195 C44.0170909,18.1761818 43.9477403,16.7798182 43.9477403,15.3328052 C49.0165714,15.3982597 53.2041039,19.2382597 54.4882597,24.0125455 C55.8931948,29.2364416 53.529039,34.5444935 50.1098182,38.4561818 C48.640987,40.1361818 46.7872208,41.9821558 44.4152727,42.5276104 C43.1833247,42.8026753 42.6059221,42.4286494 42.1672208,42.1886494 L42.1672208,42.1886494 Z M47.2742338,45.5057922 L44.3373506,46.6582597 L44.8672208,44.2941039 C44.9147532,44.0805974 45.1500779,43.9699481 45.3448831,44.0681299 L47.2742338,45.5057922 Z M26.4830649,35.6665714 C24.8996883,35.1943636 23.5804675,33.9982597 22.3563117,32.905013 C19.8503377,30.6663117 17.7955325,27.8696883 16.3321558,24.8486494 C14.8298182,21.7473506 13.9500779,18.2930649 14.3724156,14.838 C14.7292987,11.912026 15.7874805,9.11774026 17.6334545,6.80033766 C21.1968312,2.32683117 27.2957922,0.356961039 32.7402078,2.30111688 C38.5002078,4.35825974 42.0565714,10.0426753 42.3682597,16.0076104 C42.5911169,20.2683896 40.9547532,24.4395584 38.6552727,27.9538442 C36.6035844,31.0878701 33.669039,34.5257922 29.9996883,35.7483896 C28.4373506,36.1855325 27.7033247,36.0304675 26.4830649,35.6665714 L26.4830649,35.6665714 Z M33.1944935,41.2029351 C33.2747532,41.2637143 33.3261818,41.3416364 33.3503377,41.4367013 C33.0144935,41.4865714 29.9217662,41.8099481 29.9217662,41.9821558 C29.9217662,41.2387792 29.9583896,40.5024156 29.9957922,39.7598182 C30.0168312,39.3530649 30.0121558,38.9361818 30.0589091,38.5317662 C30.1056623,38.1312468 30.0581299,37.4291688 30.3892987,37.7743636 C31.3243636,38.9174805 32.2594286,40.0605974 33.1944935,41.2029351 L33.1944935,41.2029351 Z M13.5581299,43.150987 C11.4674805,43.719039 9.37527273,42.0592987 7.92280519,40.7252727 C5.94592208,38.9112468 4.32124675,36.6686494 3.16722078,34.2499481 C0.774233766,29.2333247 1.02124675,23.1943636 5.03033766,19.0567013 C7.03838961,16.9855325 9.80228571,15.7224156 12.700987,15.7224156 C12.700987,18.2502078 13.0555325,20.5808571 13.8698182,22.9691688 C14.6747532,25.3302078 15.8918961,27.4691688 17.2983896,29.5146234 C18.5560519,31.3434545 20.042026,33.0842338 21.7399481,34.5218961 C22.1817662,34.8959221 21.8996883,35.0844935 21.6059221,35.5255325 C21.2841039,36.0078701 20.9365714,36.4730649 20.575013,36.9257922 C19.8417662,37.8437143 19.0485195,38.7141039 18.2194286,39.5447532 C17.3887792,40.376961 16.5199481,41.178 15.5934545,41.9034545 C14.9973506,42.370987 14.3077403,42.9507273 13.5581299,43.150987 C12.926961,43.3231948 15.1633247,42.7208571 13.5581299,43.150987 L13.5581299,43.150987 Z M12.1555325,47.8263117 C12.0776104,47.7873506 12.0776104,47.7873506 12.1555325,47.8263117 C11.8711169,47.5418961 11.2064416,47.3642338 10.8518961,47.192026 C10.3773506,46.9621558 9.90280519,46.7322857 9.42825974,46.5016364 C9.7454026,46.2000779 10.2596883,45.9865714 10.646961,45.7613766 C10.9812468,45.5681299 11.5376104,45.0592987 11.9217662,45.0211169 C12.422026,44.972026 12.2178701,45.7582597 12.2061818,46.1494286 C12.1898182,46.7081299 12.1726753,47.2676104 12.1555325,47.8263117 L12.1555325,47.8263117 Z M43.7918961,13.5405974 C43.4989091,13.5405974 43.3243636,12.1255325 43.2246234,11.7803377 C43.0189091,11.0704675 42.7687792,10.3738442 42.4742338,9.6967013 C41.8991688,8.37514286 41.1573506,7.12683117 40.2682597,5.99306494 C38.5399481,3.79254545 36.2505974,2.03306494 33.6425455,1.00527273 C28.4622857,-1.03706494 22.4848831,0.103714286 18.3308571,3.7792987 C16.2386494,5.63150649 14.6661818,8.03228571 13.7334545,10.6613766 C13.5137143,11.2816364 13.329039,11.9135844 13.1786494,12.5541039 C13.0944935,12.9164416 13.0204675,13.2818961 12.9581299,13.6496883 C12.940987,13.7533247 12.9355325,13.9878701 12.888,14.0954026 C12.7235844,14.4702078 12.888,14.2263117 12.5965714,14.3213766 C12.0363117,14.5029351 11.2407273,14.3930649 10.6415065,14.4982597 C9.97683117,14.6135844 9.32228571,14.7865714 8.68722078,15.0125455 C3.33007792,16.9208571 -0.00732467532,22.3761818 -0.000311688312,27.9561818 C0.00436363636,31.4728052 1.40462338,34.8928052 3.33319481,37.7829351 C5.04202597,40.345013 7.32592208,42.865013 10.1295584,44.2418961 C9.49838961,44.5933247 8.59761039,44.9205974 8.15501299,45.5151429 C7.4505974,46.4618961 8.12384416,47.5325455 9.03085714,47.9735844 C9.75864935,48.3281299 10.4957922,48.6647532 11.2165714,49.0333247 C11.7308571,49.2967013 12.2046234,49.5195584 12.782026,49.2694286 C13.2534545,49.0660519 13.713974,48.5159221 13.713974,47.9821558 C15.7399481,50.8255325 18.3776104,53.3026753 21.5022857,54.8954026 C22.1124156,55.2063117 22.7981299,55.5764416 23.4737143,55.7315065 C24.5615065,55.9808571 25.0555325,54.7192987 23.9903377,54.2704675 C22.2830649,53.5512468 20.7324156,52.7237143 19.2705974,51.5564416 C17.9357922,50.4912468 16.7365714,49.2585195 15.6861818,47.912026 C15.0752727,47.1296883 14.3381299,46.2499481 13.9321558,45.339039 C13.6103377,44.6151429 13.9570909,44.7016364 14.5446234,44.4125455 C16.2370909,43.5795584 17.7363117,42.2338442 19.0812468,40.9333247 C20.7059221,39.3631948 22.2176104,37.616961 23.3763117,35.6704675 C24.8716364,36.7263117 26.6537143,37.6185195 28.5191688,37.6185195 C24.1454026,43.5702078 27.6043636,51.236961 31.3983896,56.4998182 C31.9999481,57.3335844 32.6342338,58.143974 33.3012468,58.9263117 C33.4313766,59.0782597 33.5576104,59.2644935 33.7087792,59.3977403 C34.2581299,59.8808571 35.260987,59.5325455 35.0389091,58.698 C34.8815065,58.1065714 34.0407273,57.4543636 33.6737143,56.9992987 C32.7347532,55.8367013 31.8674805,54.6133247 31.0898182,53.3361818 C28.9305974,49.7891688 27.108,45.2930649 28.4412468,41.125013 C28.3446234,42.092026 28.5487792,43.2896883 29.695013,43.4502078 C30.1851429,43.5187792 30.7492987,43.3535844 31.240987,43.2772208 L33.2303377,42.9670909 C33.6791688,42.8977403 34.188,42.8930649 34.5433247,42.5868312 C35.853974,41.4546234 34.4194286,40.0847532 33.6557922,39.152026 C32.9825455,38.3291688 32.3092987,37.5063117 31.6360519,36.6834545 C32.2267013,36.430987 32.7534545,36.0421558 33.2724156,35.6704675 C34.8378701,38.2418961 36.9861818,40.5452727 39.4734545,42.2455325 C39.9604675,42.5782597 40.4661818,42.8696883 40.9828052,43.1525455 C41.2625455,43.3052727 42.8194286,43.8483896 42.9347532,44.0081299 C43.1957922,44.3198182 42.2170909,46.5234545 41.8602078,47.259039 C40.7615065,49.5218961 39.4282597,51.6686494 37.9477403,53.7000779 C37.6905974,54.0522857 37.1708571,54.5603377 37.2129351,55.023974 C37.2643636,55.599039 37.8846234,55.8678701 38.3654026,55.5803377 C38.5430649,55.4743636 38.6942338,55.2421558 38.8251429,55.0792987 C40.646961,52.8047532 42.1781299,50.230987 43.4022857,47.5925455 C44.1542338,48.3444935 45.048,47.7748831 45.8544935,47.4974805 C46.4887792,47.2792987 47.1978701,47.0774805 47.8181299,46.8226753 C48.9152727,46.2733247 48.828,45.2385195 47.9155325,44.4257922 C47.4729351,44.0315065 46.8861818,43.4564416 46.5191688,43.150987 C49.0781299,41.9229351 51.1196883,39.6826753 52.7630649,37.4229351 C54.2731948,35.3447532 55.4638442,32.9821558 56.0989091,30.4878701 C57.4196883,25.3005974 55.622026,19.6754026 51.4352727,16.2974805 C49.2768312,14.5559221 46.5737143,13.5405974 43.7918961,13.5405974 L43.7918961,13.5405974 Z" id="Fill-1"></path>
                        <path d="M4.17257143,29.0444416 C3.88815584,29.0444416 3.63802597,28.8356104 3.59516883,28.5457403 C3.21802597,26.0187273 4.16555844,23.0475584 6.12841558,20.5984675 C6.33023377,20.346 6.69724675,20.3047013 6.94971429,20.5080779 C7.20218182,20.7098961 7.24192208,21.0769091 7.04088312,21.3293766 C5.304,23.4963896 4.4265974,26.1956104 4.75153247,28.3743117 C4.79906494,28.693013 4.57854545,28.9906753 4.25984416,29.0382078 C4.23023377,29.0421039 4.2014026,29.0444416 4.17257143,29.0444416" id="Fill-4"></path>
                        <path d="M17.4292208,16.3075325 C17.4151948,16.3075325 17.4019481,16.3067532 17.3879221,16.305974 C17.0661039,16.2841558 16.822987,16.0044156 16.8455844,15.6825974 C17.1066234,11.9158442 18.1328571,10.0885714 20.0598701,7.84597403 C20.2702597,7.60051948 20.6396104,7.57324675 20.8842857,7.78363636 C21.128961,7.99402597 21.157013,8.3625974 20.9466234,8.60727273 C19.1123377,10.7423377 18.2528571,12.2820779 18.0112987,15.7636364 C17.9902597,16.0714286 17.7338961,16.3075325 17.4292208,16.3075325" id="Fill-6"></path>
                        <path d="M51.7545195,30.0786234 C51.7023117,30.0786234 51.6501039,30.0716104 51.5971169,30.0575844 C51.2862078,29.9703117 51.1046494,29.6484935 51.1911429,29.3375844 C51.9204935,26.7178442 51.0875065,23.6235584 49.8875065,21.920961 C49.7020519,21.6575844 49.7651688,21.2936883 50.0285455,21.1066753 C50.2927013,20.9204416 50.6565974,20.9835584 50.8428312,21.2484935 C52.1597143,23.1155065 53.1828312,26.5425195 52.3171169,29.6508312 C52.2454286,29.9095325 52.0101039,30.0786234 51.7545195,30.0786234" id="Fill-8"></path>
                    </g>
                </g>
            </g>
        </g>
    </g>
</svg>