<?xml version="1.0" encoding="UTF-8" standalone="no"?>
<svg width="1440px" height="709px" viewBox="0 0 1440 709" version="1.1" xmlns="http://www.w3.org/2000/svg" xmlns:xlink="http://www.w3.org/1999/xlink">
    <!-- Generator: Sketch 43.2 (39069) - http://www.bohemiancoding.com/sketch -->
    <title>PREMIERE LAME</title>
    <desc>Created with Sketch.</desc>
    <defs></defs>
    <g id="Page-1" stroke="none" stroke-width="1" fill="none" fill-rule="evenodd">
        <g id="Desktop-HD-404" transform="translate(0.000000, -225.000000)">
            <g id="PREMIERE-LAME" transform="translate(-434.000000, 0.000000)">
                <g id="CLOUD" opacity="0.5" transform="translate(0.000000, 225.000000)" fill="#EFF1F6">
                    <path d="M658.171533,62.2274054 L731.410684,62.2274054 C748.586843,62.2274054 762.510414,48.3038353 762.510414,31.1276759 L762.510414,31.1276759 C762.510414,13.9515165 748.586843,0.0270448109 731.410684,0.0270448109 L82.9374201,0 C65.7621622,0 51.8376906,13.9235701 51.8376906,31.0997296 L51.8376906,31.0997296 C51.8376906,48.275889 65.7621622,62.1994591 82.9374201,62.1994591 L392.739335,62.2274054 C409.915494,62.2274054 423.839065,76.1509756 423.839065,93.327135 L423.839065,93.327135 C423.839065,110.138189 410.498761,123.824667 393.827438,124.39982 L173.08679,124.390805 C155.911532,124.390805 141.98706,138.314375 141.98706,155.490534 L141.98706,155.490534 C141.98706,172.666694 155.911532,186.590264 173.08679,186.590264 L192.597818,186.60018 C209.773977,186.60018 223.698449,200.52375 223.698449,217.69991 L223.698449,217.69991 C223.698449,234.314439 210.669161,247.884623 194.27099,248.753663 L31.100631,248.799639 C13.9244716,248.799639 0,262.72321 0,279.899369 L0,279.899369 C0,297.075528 13.9244716,311 31.100631,311 L534.341457,310.954024 C551.517617,310.954024 565.441187,297.029552 565.441187,279.853393 L565.441187,279.853393 C565.441187,262.677233 551.517617,248.753663 534.341457,248.753663 L506.982025,248.753663 C490.583855,247.884623 477.554566,234.314439 477.554566,217.69991 L477.554566,217.69991 C477.554566,200.52375 491.478137,186.60018 508.654296,186.60018 L703.165083,186.60018 C720.341243,186.60018 734.265715,172.675709 734.265715,155.499549 L734.265715,155.499549 C734.265715,138.32339 720.341243,124.39982 703.165083,124.39982 L657.082529,124.39982 C640.412107,123.824667 627.071804,110.138189 627.071804,93.327135 L627.071804,93.327135 C627.071804,76.1509756 640.995374,62.2274054 658.171533,62.2274054" id="Fill-1"></path>
                </g>
                <rect id="Rectangle-21" fill="#F7F8FB" x="302" y="874" width="428" height="60" rx="30"></rect>
                <g id="CLOUD" opacity="0.5" transform="translate(1538.000000, 721.000000)" fill="#EFF1F6">
                    <path d="M599.759722,0 L30.3730863,0 C13.5982468,0 0,13.5982468 0,30.3730863 C0,47.1479259 13.5982468,60.7470531 30.3730863,60.7470531 L178.474678,60.7470531 C195.249518,60.7470531 208.848645,74.3452999 208.848645,91.1201394 L208.848645,91.1201394 C208.848645,107.894979 195.249518,121.493226 178.474678,121.493226 L81.6044482,121.493226 C64.8296087,121.493226 51.2313618,135.091473 51.2313618,151.866312 L51.2313618,151.866312 C51.2313618,168.641152 64.8296087,182.240279 81.6044482,182.240279 L466.856119,182.240279 C483.630958,182.240279 497.229205,168.641152 497.229205,151.866312 L497.229205,151.866312 C497.229205,135.091473 483.630958,121.493226 466.856119,121.493226 L412.579348,121.493226 C395.805389,121.492345 382.208023,107.894099 382.208023,91.1201394 L382.208023,91.1201394 C382.208023,74.3452999 395.80627,60.7470531 412.581109,60.7470531 L599.759722,60.7470531 C616.534562,60.7470531 630.132808,47.1479259 630.132808,30.3730863 C630.132808,13.5982468 616.534562,0 599.759722,0" id="Fill-1"></path>
                </g>
            </g>
        </g>
    </g>
</svg>