<?xml version="1.0" encoding="UTF-8" standalone="no"?>
<svg width="746px" height="304px" viewBox="0 0 746 304" version="1.1" xmlns="http://www.w3.org/2000/svg" xmlns:xlink="http://www.w3.org/1999/xlink">
    <!-- Generator: Sketch 41.2 (35397) - http://www.bohemiancoding.com/sketch -->
    <title>CLOUD</title>
    <desc>Created with Sketch.</desc>
    <defs></defs>
    <g id="Page-1" stroke="none" stroke-width="1" fill="none" fill-rule="evenodd" opacity="0.354827425">
        <g id="Desktop-HD" transform="translate(-315.000000, -512.000000)" fill="#D2DAE7">
            <g id="PREMIERE-LAME" transform="translate(-53.000000, 0.000000)">
                <g id="CLOUD" transform="translate(741.000000, 664.000000) scale(-1, -1) translate(-741.000000, -664.000000) translate(368.000000, 512.000000)">
                    <path d="M643.790946,60.8237913 L715.429872,60.8237913 C732.230745,60.8237913 745.850095,47.2142841 745.850095,30.4255536 L745.850095,30.4255536 C745.850095,13.6368232 732.230745,0.0264347826 715.429872,0.0264347826 L81.1252955,0 C64.325305,0 50.7050733,13.6095072 50.7050733,30.3982377 L50.7050733,30.3982377 C50.7050733,47.1869681 64.325305,60.7964754 81.1252955,60.7964754 L384.158255,60.8237913 C400.959128,60.8237913 414.578478,74.4332986 414.578478,91.222029 L414.578478,91.222029 C414.578478,107.65389 401.52965,121.031652 385.222584,121.593832 L169.304965,121.58502 C152.504974,121.58502 138.884742,135.194528 138.884742,151.983258 L138.884742,151.983258 C138.884742,168.771988 152.504974,182.381496 169.304965,182.381496 L188.38969,182.391188 C205.190563,182.391188 218.810794,196.000696 218.810794,212.789426 L218.810794,212.789426 C218.810794,229.029194 206.066187,242.293287 190.026305,243.142725 L30.421104,243.187664 C13.6202317,243.187664 0,256.797171 0,273.585901 L0,273.585901 C0,290.374632 13.6202317,303.98502 30.421104,303.98502 L522.66647,303.940081 C539.467343,303.940081 553.086693,290.329693 553.086693,273.540962 L553.086693,273.540962 C553.086693,256.752232 539.467343,243.142725 522.66647,243.142725 L495.904823,243.142725 C479.864941,242.293287 467.120333,229.029194 467.120333,212.789426 L467.120333,212.789426 C467.120333,196.000696 480.739683,182.391188 497.540556,182.391188 L687.801418,182.391188 C704.602291,182.391188 718.222522,168.7808 718.222522,151.99207 L718.222522,151.99207 C718.222522,135.203339 704.602291,121.593832 687.801418,121.593832 L642.725735,121.593832 C626.419551,121.031652 613.370723,107.65389 613.370723,91.222029 L613.370723,91.222029 C613.370723,74.4332986 626.990073,60.8237913 643.790946,60.8237913" id="Fill-1"></path>
                </g>
            </g>
        </g>
    </g>
</svg>