<?xml version="1.0" encoding="UTF-8" standalone="no"?>
<svg width="18px" height="14px" viewBox="0 0 18 14" version="1.1" xmlns="http://www.w3.org/2000/svg" xmlns:xlink="http://www.w3.org/1999/xlink">
    <!-- Generator: Sketch 42 (36781) - http://www.bohemiancoding.com/sketch -->
    <title>Fill 1</title>
    <desc>Created with Sketch.</desc>
    <defs></defs>
    <g id="Page-1" stroke="none" stroke-width="1" fill="none" fill-rule="evenodd">
        <g id="Desktop-HD" transform="translate(-476.000000, -6139.000000)" fill="#00C3A6">
            <g id="02_PRICING" transform="translate(127.000000, 5367.000000)">
                <g id="02" transform="translate(0.000000, 244.000000)">
                    <g transform="translate(185.000000, 77.000000)" id="Group-8">
                        <g transform="translate(9.000000, 0.000000)">
                            <g id="INFOS-Copy-2" transform="translate(6.000000, 195.000000)">
                                <g id="ICON-Copy-5" transform="translate(149.000000, 116.000000)">
                                    <path d="M16.1778098,140.282817 C15.9488779,140.296665 15.7340885,140.399198 15.5794048,140.568319 C12.4521425,143.839953 8.93036307,147.872336 5.80103828,151.184335 L1.42746731,147.841989 C1.04267321,147.541755 0.487285089,147.610405 0.186756768,147.995494 C-0.113476916,148.380288 -0.0448268194,148.935676 0.34026192,149.236204 C0.346449268,149.241213 0.352931251,149.245927 0.359413235,149.250641 L5.36821857,153.080904 C5.72531693,153.350496 6.227376,153.311015 6.5376273,152.988978 C9.83548366,149.5385 13.6003375,145.192625 16.8498736,141.792825 C17.1963651,141.448985 17.1984275,140.889177 16.8545877,140.542686 C16.6766278,140.363253 16.4303125,140.268675 16.1778098,140.282817" id="Fill-1"></path>
                                </g>
                            </g>
                        </g>
                    </g>
                </g>
            </g>
        </g>
    </g>
</svg>