<?xml version="1.0" encoding="UTF-8" standalone="no"?>
<svg width="40px" height="40px" viewBox="0 0 40 40" version="1.1" xmlns="http://www.w3.org/2000/svg" xmlns:xlink="http://www.w3.org/1999/xlink">
    <!-- Generator: Sketch 43.2 (39069) - http://www.bohemiancoding.com/sketch -->
    <title>Shape</title>
    <desc>Created with Sketch.</desc>
    <defs></defs>
    <g id="Page-1" stroke="none" stroke-width="1" fill="none" fill-rule="evenodd">
        <g id="Desktop-HD" transform="translate(-952.000000, -3452.000000)" fill-rule="nonzero" fill="#7E8890">
            <g id="Footer" transform="translate(0.000000, 3309.000000)">
                <g id="Group-10" transform="translate(1.000000, 0.000000)">
                    <g id="Social_Network" transform="translate(891.000000, 102.000000)">
                        <path d="M79.8608,41 C68.9096,41 60,49.9096 60,60.8608 C60,71.8112 68.9096,80.7216 79.8608,80.7216 C90.8112,80.7216 99.7216,71.8112 99.7216,60.8608 C99.7216,49.9096 90.8128,41 79.8608,41 Z M84.8,61.56 L81.5688,61.56 L81.5688,73.0768 L76.7808,73.0768 L76.7808,61.56 L74.5048,61.56 L74.5048,57.4896 L76.7808,57.4896 L76.7808,54.8568 C76.7808,52.9712 77.6768,50.0248 81.6128,50.0248 L85.1608,50.0384 L85.1608,53.9896 L82.5856,53.9896 C82.1664,53.9896 81.5704,54.1992 81.5704,55.0984 L81.5704,57.4904 L85.2184,57.4904 L84.8,61.56 Z" id="Shape"></path>
                    </g>
                </g>
            </g>
        </g>
    </g>
</svg>