<?xml version="1.0" encoding="UTF-8" standalone="no"?>
<svg width="14px" height="12px" viewBox="0 0 14 12" version="1.1" xmlns="http://www.w3.org/2000/svg" xmlns:xlink="http://www.w3.org/1999/xlink">
    <!-- Generator: sketchtool 42 (36781) - http://www.bohemiancoding.com/sketch -->
    <title>B1573441-3C5F-44BB-8CFB-502EF40F43B9</title>
    <desc>Created with sketchtool.</desc>
    <defs></defs>
    <g id="Page-1" stroke="none" stroke-width="1" fill="none" fill-rule="evenodd">
        <g id="Desktop-HD" transform="translate(-565.000000, -10032.000000)" fill="#FF8383">
            <g id="Footer" transform="translate(-1.000000, 9724.000000)">
                <g id="Made" transform="translate(0.000000, 282.000000)">
                    <g id="Page-1" transform="translate(565.993478, 26.000000)">
                        <path d="M3.53582131,0.193230228 C2.54396457,0.243966878 1.71327103,0.621964283 1.18110798,1.23454849 C-0.0798949056,2.58496715 -0.0730445683,4.73837287 1.20364199,6.07905608 L6.60044592,11.7482683 C6.66714657,11.8166036 6.78738802,11.8166036 6.8539084,11.7482683 C8.65356413,9.86221287 10.4512369,7.97671913 12.2508926,6.09066373 C13.5374941,4.74211727 13.5374941,2.55969243 12.2508926,1.21133319 C10.9642911,-0.137213268 8.88431233,-0.137213268 7.59753055,1.21133319 L6.73006151,2.11804019 L5.8624122,1.20534215 C5.21920158,0.531162529 4.37805226,0.193230228 3.53582131,0.193230228 L3.53582131,0.193230228 Z" id="Fill-1"></path>
                    </g>
                </g>
            </g>
        </g>
    </g>
</svg>