<?xml version="1.0" encoding="UTF-8" standalone="no"?>
<svg width="40px" height="40px" viewBox="0 0 40 40" version="1.1" xmlns="http://www.w3.org/2000/svg" xmlns:xlink="http://www.w3.org/1999/xlink">
    <!-- Generator: Sketch 43.2 (39069) - http://www.bohemiancoding.com/sketch -->
    <title>linkedin-logo-button</title>
    <desc>Created with Sketch.</desc>
    <defs></defs>
    <g id="Page-1" stroke="none" stroke-width="1" fill="none" fill-rule="evenodd">
        <g id="Desktop-HD" transform="translate(-1012.000000, -3452.000000)" fill-rule="nonzero">
            <g id="Footer" transform="translate(0.000000, 3309.000000)">
                <g id="Group-10" transform="translate(1.000000, 0.000000)">
                    <g id="Social_Network" transform="translate(891.000000, 102.000000)">
                        <g id="linkedin-logo-button" transform="translate(120.000000, 41.000000)">
                            <path d="M19.8608,0 C8.9096,0 0,8.9096 0,19.8608 C0,30.8112 8.9096,39.7216 19.8608,39.7216 C30.8112,39.7216 39.7216,30.8112 39.7216,19.8608 C39.7216,8.9096 30.8128,0 19.8608,0 Z" id="Shape" fill="#7E8890"></path>
                            <path d="M23.48,15.0384 C21.78,15.0384 21.0208,15.9728 20.596,16.6288 L20.596,15.2656 L17.3944,15.2656 C17.436,16.168 17.3944,24.8984 17.3944,24.8984 L20.596,24.8984 L20.596,19.5168 C20.596,19.2296 20.6144,18.9408 20.7008,18.7352 C20.9328,18.1592 21.4592,17.5632 22.344,17.5632 C23.5024,17.5632 23.9656,18.4464 23.9656,19.7424 L23.9656,24.896 L27.1672,24.896 L27.168,24.896 L27.168,19.372 C27.1664,16.4152 25.5864,15.0384 23.48,15.0384 Z M20.5936,16.6624 L20.5736,16.6624 C20.58,16.6512 20.5896,16.6408 20.5936,16.6296 L20.5936,16.6624 Z" id="Shape" fill="#FFFFFF"></path>
                            <rect id="Rectangle-path" fill="#FFFFFF" x="12.4184" y="15.2656" width="3.2016" height="9.6328"></rect>
                            <path d="M14.0408,10.6216 C12.9464,10.6216 12.2296,11.34 12.2296,12.2856 C12.2296,13.2096 12.9248,13.9496 13.9984,13.9496 L14.0192,13.9496 C15.136,13.9496 15.8312,13.2096 15.8312,12.2856 C15.8096,11.3408 15.1368,10.6216 14.0408,10.6216 Z" id="Shape" fill="#FFFFFF"></path>
                        </g>
                    </g>
                </g>
            </g>
        </g>
    </g>
</svg>