<?xml version="1.0" encoding="UTF-8" standalone="no"?>
<svg width="14px" height="18px" viewBox="0 0 14 18" version="1.1" xmlns="http://www.w3.org/2000/svg" xmlns:xlink="http://www.w3.org/1999/xlink">
    <!-- Generator: sketchtool 42 (36781) - http://www.bohemiancoding.com/sketch -->
    <title>D363BBEA-768E-4300-8AF0-4FB5041D2C89</title>
    <desc>Created with sketchtool.</desc>
    <defs></defs>
    <g id="Page-1" stroke="none" stroke-width="1" fill="none" fill-rule="evenodd">
        <g id="Desktop-HD" transform="translate(-1351.000000, -32.000000)" fill="#3D3D3D">
            <g id="PREMIERE-LAME" transform="translate(-53.000000, 0.000000)">
                <g id="HEADER" transform="translate(53.000000, 0.000000)">
                    <g id="LOG-IN" transform="translate(1351.000000, 26.000000)">
                        <g id="Icon" transform="translate(0.000000, 6.000000)">
                            <path d="M9.57337112,7.17028836 L3.56018143,7.17342094 L3.55685306,4.76309378 C3.55606991,3.10536978 4.90425551,1.75581368 6.56197951,1.75503053 C8.21970351,1.75424738 9.56925961,3.10243298 9.57004275,4.76015698 L9.57337112,7.17028836 Z M7.17165856,12.6771743 L7.17263749,14.7096335 L6.43178151,14.7100251 L6.43080258,12.6775658 C6.02356673,12.5266145 5.73164911,12.1381741 5.73145332,11.6784675 C5.73106175,11.0879755 6.20975966,10.608886 6.80025164,10.6086903 C7.39074361,10.6082987 7.86983309,11.0869966 7.87002888,11.6774886 C7.87022467,12.1369994 7.57869862,12.5258313 7.17165856,12.6771743 L7.17165856,12.6771743 Z M11.8112104,7.16911364 L11.3282052,7.16930943 L11.3248768,4.75898226 C11.3235063,2.13348577 9.18649707,-0.00136984576 6.56100058,6.59494577e-07 C3.93550408,0.00137116475 1.80064847,2.13818464 1.80201898,4.76387692 L1.80534735,7.17420409 L1.63442576,7.17420409 C0.731262799,7.17459566 -0.000587006095,7.90722861 3.53299649e-07,8.81039158 L0.00137085855,15.9863571 C0.00176243148,16.88952 0.734395383,17.6213699 1.63755835,17.6207825 L11.8141472,17.615692 C12.7173102,17.6153005 13.44916,16.8826675 13.4485726,15.9795046 L13.4472021,8.80353905 C13.4468105,7.90037609 12.7143734,7.16872207 11.8112104,7.16911364 L11.8112104,7.16911364 Z" id="Fill-1"></path>
                        </g>
                    </g>
                </g>
            </g>
        </g>
    </g>
</svg>