<?xml version="1.0" encoding="UTF-8" standalone="no"?>
<svg width="114px" height="34px" viewBox="0 0 114 34" version="1.1" xmlns="http://www.w3.org/2000/svg" xmlns:xlink="http://www.w3.org/1999/xlink">
    <!-- Generator: Sketch 41.2 (35397) - http://www.bohemiancoding.com/sketch -->
    <title>Page 1</title>
    <desc>Created with Sketch.</desc>
    <defs></defs>
    <g id="Page-1" stroke="none" stroke-width="1" fill="none" fill-rule="evenodd">
        <g>
            <polygon id="Fill-1" fill="#3D3D3D" points="1.94952846 33.6114732 7.84910569 33.6114732 7.84910569 13.646335 1.94952846 13.646335"></polygon>
            <g id="Group-13" transform="translate(0.000000, 0.305132)">
                <path d="M19.2629528,33.306478 L13.3205789,33.306478 L13.3205789,13.3408846 L19.2629528,13.3408846 L19.2629528,16.2483317 C20.331961,14.2387057 22.6830504,12.9133724 25.0345951,12.9133724 C29.5237008,12.9133724 32.3450992,15.6924293 32.3450992,21.378478 L32.3450992,33.306478 L26.4027252,33.306478 L26.4027252,22.6610146 C26.4027252,20.010348 24.9490016,18.6854699 22.9398309,18.6854699 C20.8450667,18.6854699 19.2629528,19.711226 19.2629528,22.7466081 L19.2629528,33.306478 L19.2629528,33.306478 Z" id="Fill-2" fill="#3D3D3D"></path>
                <polygon id="Fill-4" fill="#3D3D3D" points="59.8764293 33.306478 54.9165593 33.306478 50.9838114 20.6090472 47.2213398 33.306478 42.2623805 33.306478 35.0370146 13.3408846 41.3645593 13.3408846 44.9130472 25.2260878 48.4187382 13.3408846 53.5060878 13.3408846 57.0117789 25.2260878 60.5602667 13.3408846 66.8873561 13.3408846"></polygon>
                <g id="Group-8" transform="translate(68.292683, 12.747967)" fill="#3D3D3D">
                    <path d="M11.4182179,15.300065 C13.8553561,15.300065 16.2492423,13.5467642 16.2492423,10.5541789 C16.2492423,7.56204878 13.8553561,5.80874797 11.4182179,5.80874797 C8.93873821,5.80874797 6.41646179,7.68998374 6.41646179,10.5541789 C6.41646179,13.4188293 8.93873821,15.300065 11.4182179,15.300065 L11.4182179,15.300065 Z M16.2492423,18.2926504 C14.9667057,20.2166829 11.9741203,20.9433171 10.4352585,20.9433171 C5.34745366,20.9433171 0.26055935,16.9673171 0.26055935,10.5541789 C0.26055935,4.14149593 5.34745366,0.165495935 10.4352585,0.165495935 C11.7173398,0.165495935 14.7099252,0.59300813 16.2492423,2.8161626 L16.2492423,0.59300813 L22.1492748,0.59300813 L22.1492748,20.5586016 L16.2492423,20.5586016 L16.2492423,18.2926504 Z" id="Fill-6"></path>
                </g>
                <polygon id="Fill-9" fill="#3D3D3D" points="95.9125203 33.3063415 101.85535 33.3063415 101.85535 2.4817561 95.9125203 2.4817561"></polygon>
                <polygon id="Fill-11" fill="#3D3D3D" points="107.326504 33.3063415 113.269333 33.3063415 113.269333 2.4817561 107.326504 2.4817561"></polygon>
                <path d="M5.25698862,0.150107317 C8.16033821,0.150107317 10.5141593,2.34230244 10.5141593,5.0462374 C10.5141593,6.58692033 9.74973659,7.96005854 8.5555252,8.85787967 L8.81230569,11.2285463 L6.7635252,9.7384 L6.76489106,9.73703415 C6.28729756,9.87043252 5.78102114,9.94282276 5.25698862,9.94282276 C2.35363902,9.94282276 -0.000182113821,7.75062764 -0.000182113821,5.0462374 C-0.000182113821,2.34230244 2.35363902,0.150107317 5.25698862,0.150107317" id="Fill-12" fill="#50E2C1"></path>
            </g>
        </g>
    </g>
</svg>