<?xml version="1.0" encoding="UTF-8" standalone="no"?>
<svg width="55px" height="41px" viewBox="0 0 55 41" version="1.1" xmlns="http://www.w3.org/2000/svg" xmlns:xlink="http://www.w3.org/1999/xlink">
    <!-- Generator: sketchtool 42 (36781) - http://www.bohemiancoding.com/sketch -->
    <title>F0D836AB-0A0E-4941-96DE-502FE14AC2BC</title>
    <desc>Created with sketchtool.</desc>
    <defs></defs>
    <g id="Page-1" stroke="none" stroke-width="1" fill="none" fill-rule="evenodd">
        <g id="Desktop-HD" transform="translate(-193.000000, -6711.000000)" fill="#50E2C1">
            <g id="02_PRICING" transform="translate(127.000000, 5367.000000)">
                <g id="CRAZY-" transform="translate(14.000000, 1293.000000)">
                    <g id="ICON" transform="translate(52.000000, 51.000000)">
                        <path d="M14.5291667,5.10222222 C18.5625,5.10222222 21.725,6.33222222 21.725,7.88111111 C21.725,9.43 18.5625,10.66 14.5291667,10.66 C10.4958333,10.66 7.33333333,9.43 7.33333333,7.88111111 C7.33333333,6.33222222 10.4958333,5.10222222 14.5291667,5.10222222 M14.5291667,12.4822222 C19.9375,12.4822222 23.5583333,10.66 23.5583333,7.88111111 C23.5583333,5.14777778 19.9375,3.28 14.5291667,3.28 C9.12083333,3.28 5.5,5.14777778 5.5,7.88111111 C5.5,10.6144444 9.12083333,12.4822222 14.5291667,12.4822222" id="Fill-1"></path>
                        <path d="M53.1666667,37.3555556 C53.1666667,38.1755556 52.525,38.8133333 51.7,38.8133333 L45.4666667,38.8133333 L45.4666667,31.2055556 C45.4666667,30.7044444 45.0541667,30.2944444 44.55,30.2944444 C44.0458333,30.2944444 43.6333333,30.7044444 43.6333333,31.2055556 L43.6333333,38.8133333 L40.7,38.8133333 L40.7,35.9888889 C40.7,35.4877778 40.2875,35.0777778 39.7833333,35.0777778 C39.2791667,35.0777778 38.8666667,35.4877778 38.8666667,35.9888889 L38.8666667,38.8133333 L35.9333333,38.8133333 L35.9333333,31.2055556 C35.9333333,30.7044444 35.5208333,30.2944444 35.0166667,30.2944444 C34.5125,30.2944444 34.1,30.7044444 34.1,31.2055556 L34.1,38.8133333 L31.1666667,38.8133333 L31.1666667,35.9888889 C31.1666667,35.4877778 30.7541667,35.0777778 30.25,35.0777778 C29.7458333,35.0777778 29.3333333,35.4877778 29.3333333,35.9888889 L29.3333333,38.8133333 L26.4,38.8133333 L26.4,31.2055556 C26.4,30.7044444 25.9875,30.2944444 25.4833333,30.2944444 C24.9791667,30.2944444 24.5666667,30.7044444 24.5666667,31.2055556 L24.5666667,38.8133333 L21.6333333,38.8133333 L21.6333333,35.9888889 C21.6333333,35.4877778 21.2208333,35.0777778 20.7166667,35.0777778 C20.2125,35.0777778 19.8,35.4877778 19.8,35.9888889 L19.8,38.8133333 L16.8666667,38.8133333 L16.8666667,31.2055556 C16.8666667,30.7044444 16.4541667,30.2944444 15.95,30.2944444 C15.4458333,30.2944444 15.0333333,30.7044444 15.0333333,31.2055556 L15.0333333,38.8133333 L14.5291667,38.8133333 C13.7041667,38.8133333 12.8791667,38.7677778 12.1,38.6766667 L12.1,35.7611111 C12.1,35.26 11.6875,34.85 11.1833333,34.85 C10.6791667,34.85 10.2666667,35.26 10.2666667,35.7611111 L10.2666667,38.4488889 C9.2125,38.2666667 8.25,37.9933333 7.33333333,37.72 L7.33333333,29.8388889 C7.33333333,29.3377778 6.92083333,28.9277778 6.41666667,28.9277778 C5.9125,28.9277778 5.5,29.3377778 5.5,29.8388889 L5.5,36.9455556 C3.25416667,35.8522222 1.83333333,34.3488889 1.83333333,32.7088889 L1.83333333,11.7533333 C4.30833333,14.1677778 8.98333333,15.7622222 14.5291667,15.7622222 L51.7,15.7622222 C52.525,15.7622222 53.1666667,16.4 53.1666667,17.22 L53.1666667,37.3555556 Z M14.5291667,1.82222222 C21.4041667,1.82222222 27.225,4.60111111 27.225,7.88111111 C27.225,11.1611111 21.4041667,13.94 14.5291667,13.94 C7.65416667,13.94 1.83333333,11.1611111 1.83333333,7.88111111 C1.83333333,4.60111111 7.65416667,1.82222222 14.5291667,1.82222222 L14.5291667,1.82222222 Z M23.8791667,13.94 C25.2083333,13.3477778 26.3541667,12.6188889 27.1791667,11.7533333 L27.1791667,13.94 L23.8791667,13.94 Z M51.7,13.94 L29.0583333,13.94 L29.0583333,7.88111111 C29.0583333,3.46222222 22.6875,0 14.5291667,0 C6.37083333,0 0,3.46222222 0,7.88111111 L0,32.7544444 C0,37.1733333 6.37083333,40.6355556 14.5291667,40.6355556 L51.7,40.6355556 C53.5333333,40.6355556 55,39.1777778 55,37.3555556 L55,17.22 C55,15.4433333 53.5333333,13.94 51.7,13.94 L51.7,13.94 Z" id="Fill-3"></path>
                    </g>
                </g>
            </g>
        </g>
    </g>
</svg>