<?xml version="1.0" encoding="UTF-8" standalone="no"?>
<svg width="342px" height="207px" viewBox="0 0 342 207" version="1.1" xmlns="http://www.w3.org/2000/svg" xmlns:xlink="http://www.w3.org/1999/xlink">
    <!-- Generator: Sketch 43.2 (39069) - http://www.bohemiancoding.com/sketch -->
    <title>Mr Wall</title>
    <desc>Created with Sketch.</desc>
    <defs>
        <path d="M0.544304126,17.6489083 C5.87415317,19.7659941 12.1541869,21.2820328 19.4348166,21.5758763 L19.4348179,5.88157557 C11.4172868,5.41906642 5.1739528,2.99788767 0.544304126,0.222215526 L0.544304126,17.6489083 L0.544304126,17.6489083 Z" id="path-1"></path>
        <path d="M0.498630621,0.581689181 C1.7913989,3.43243891 2.90335171,6.80521889 3.52495691,10.6970465 L19.3467329,10.6970465 C18.9273358,7.03465099 18.1786256,3.66173426 17.2196793,0.581689181 L0.498630621,0.581689181 L0.498630621,0.581689181 Z" id="path-3"></path>
    </defs>
    <g id="Page-1" stroke="none" stroke-width="1" fill="none" fill-rule="evenodd">
        <g id="Desktop-HD-404" transform="translate(-806.000000, -450.000000)">
            <g id="PREMIERE-LAME" transform="translate(-434.000000, 0.000000)">
                <g id="Infos" transform="translate(728.000000, 408.000000)">
                    <g id="Mr-Wall" transform="translate(512.000000, 42.000000)">
                        <path d="M225.583401,140.41219 C229.416726,140.274662 232.659284,137.326922 233.065042,133.39824 C233.509343,129.100476 230.389423,125.256696 226.09708,124.811834 C216.084183,123.774757 204.734177,122.598748 196.845376,116.752386 C190.265653,111.877143 185.815632,103.412127 181.890503,95.9441924 C179.881336,92.121463 175.157306,90.6528557 171.336595,92.6652617 C167.517987,94.6776677 166.051933,99.4090671 168.0618,103.232498 C172.534247,111.739615 178.099926,122.3272 187.549388,129.329924 C198.874165,137.722667 213.077791,139.193379 224.489466,140.375001 C224.858082,140.413593 225.223194,140.42482 225.583401,140.41219" id="Fill-1" fill="#48E2C1"></path>
                        <g id="Group-5" transform="translate(197.622974, 117.391753)">
                            <mask id="mask-2" fill="white">
                                <use xlink:href="#path-1"></use>
                            </mask>
                            <g id="Clip-4"></g>
                            <polygon id="Fill-3" fill="#2BC2A0" mask="url(#mask-2)" points="19.4348179 -48.2707294 10.5859339 32.3104132 0.544304126 31.2045723 9.39318813 -49.3765703"></polygon>
                        </g>
                        <g id="Group-20" transform="translate(0.000000, 0.211906)">
                            <path d="M40.4436116,0.496435579 C40.4436116,6.08387942 35.919307,10.6138979 30.3389107,10.6138979 C24.7578137,10.6138979 20.2342098,6.08387942 20.2342098,0.496435579" id="Fill-6" fill="#48E2C1"></path>
                            <path d="M36.779948,165.475696 L195.99749,165.475696 C199.887579,165.475696 203.041137,162.318156 203.041137,158.423154 L203.041137,20.7424468 C203.041137,9.56054233 193.988323,0.496295244 182.820522,0.496295244 L29.7363008,0.496295244 L29.7363008,158.423154 C29.7363008,162.318156 32.8898589,165.475696 36.779948,165.475696" id="Fill-8" fill="#48E2C1"></path>
                            <path d="M7.80820983,142.497079 C10.5293801,142.497079 13.1748649,141.069871 14.6128874,138.529103 C19.575887,129.75956 25.2004331,119.821025 33.7122368,114.926836 C40.8133488,110.84589 50.3427006,110.158248 58.7493856,109.550597 C63.0529412,109.239755 66.2898934,105.493508 65.9794431,101.184517 C65.6696937,96.8741232 61.898739,93.6450115 57.6239158,93.944627 C48.0469103,94.6364793 36.1285631,95.4974354 25.9327594,101.357831 C13.7123714,108.383009 6.67362971,120.820913 1.01754808,130.81488 C-1.11075324,134.574459 0.208134834,139.34866 3.96227054,141.478246 C5.18024476,142.168695 6.50263678,142.497079 7.80820983,142.497079" id="Fill-10" fill="#48E2C1"></path>
                            <g id="Group-14" transform="translate(118.433626, 139.633470)" fill="#48E2C1">
                                <path d="M20.7743793,66.6591944 C24.1907339,66.6598961 27.3281738,64.3997986 28.2945641,60.9433439 C38.8870154,23.0788165 14.2409077,2.88809731 13.1862177,2.04748978 C9.81050898,-0.644138321 4.8951631,-0.0877094663 2.20763082,3.29226253 C-0.470090393,6.65679766 0.0695184361,11.5516876 3.40808527,14.2510341 C4.21679772,14.9211344 20.9439706,29.2093573 13.2471865,56.7248694 C12.0824724,60.8851048 14.5093105,65.2025156 18.6635977,66.367999 C19.3685932,66.5651699 20.0777933,66.6591944 20.7743793,66.6591944" id="Fill-12"></path>
                            </g>
                            <g id="Group-17" transform="translate(81.291720, 139.633470)" fill="#48E2C1">
                                <path d="M20.395672,66.6591944 C23.8120266,66.6598961 26.9494665,64.3997986 27.9158568,60.9433439 C38.5083081,23.0788165 13.8622004,2.88809731 12.8075104,2.04748978 C9.43180169,-0.644138321 4.51645582,-0.0877094663 1.82892353,3.29226253 C-0.84879768,6.65679766 -0.309188851,11.5516876 3.02937798,14.2510341 C3.83809043,14.9211344 20.5652633,29.2093573 12.8684792,56.7248694 C11.7037651,60.8851048 14.1306032,65.2025156 18.2848904,66.367999 C18.9898859,66.5651699 19.699086,66.6591944 20.395672,66.6591944" id="Fill-15"></path>
                            </g>
                            <path d="M29.7227055,10.6139681 C29.7227055,5.02652426 25.1984008,0.496505747 19.6180046,0.496505747 C15.8007977,0.496505747 12.478349,2.61556645 10.7593095,5.74293519 C9.55605188,7.93146179 11.0984922,10.6139681 13.593307,10.6139681 L29.7227055,10.6139681 Z" id="Fill-18" fill="#2BC2A0"></path>
                        </g>
                        <g id="Group-23" transform="translate(129.646277, 165.105703)">
                            <mask id="mask-4" fill="white">
                                <use xlink:href="#path-3"></use>
                            </mask>
                            <g id="Clip-22"></g>
                            <polygon id="Fill-21" fill="#2BC2A0" mask="url(#mask-4)" points="-49.4113497 10.6970465 31.5531007 10.6970465 31.5531007 0.581689181 -49.4113497 0.581689181"></polygon>
                        </g>
                        <g id="Group-76" transform="translate(90.401999, 25.472232)">
                            <path d="M135.036759,69.10692 C137.305218,70.26679 140.112586,69.388292 142.228273,67.9673986 C144.343259,66.5458036 146.101543,64.612687 148.328656,63.3742293 C153.684799,60.3935108 161.069031,62.4276688 164.638858,67.4144782 C168.208686,72.4019893 167.976724,79.6067957 164.601016,84.7276252 C161.225307,89.8484546 155.106003,92.8474167 148.981092,93.0509027 C144.257763,93.2073764 139.063502,91.9619019 135.118751,94.5679256" id="Stroke-24" stroke="#B1E8FF" stroke-width="4" stroke-linecap="round"></path>
                            <path d="M75.6363388,75.339274 C75.6363388,78.8532661 78.481549,81.7027712 81.9918095,81.7027712 C85.5013693,81.7027712 88.3465795,78.8532661 88.3465795,75.339274 C88.3465795,71.825282 85.5013693,68.9757768 81.9918095,68.9757768 C78.481549,68.9757768 75.6363388,71.825282 75.6363388,75.339274" id="Fill-26" fill="#000000"></path>
                            <path d="M25.4054144,75.339274 C25.4054144,78.8532661 28.2506246,81.7027712 31.7608851,81.7027712 C35.2704449,81.7027712 38.115655,78.8532661 38.115655,75.339274 C38.115655,71.825282 35.2704449,68.9757768 31.7608851,68.9757768 C28.2506246,68.9757768 25.4054144,71.825282 25.4054144,75.339274" id="Fill-28" fill="#000000"></path>
                            <path d="M5.72679141,71.2356639 C5.72679141,60.3709169 14.5539509,51.5326093 25.4063955,51.5326093 C36.2567377,51.5326093 45.0838972,60.3709169 45.0838972,71.2356639 C45.0838972,82.0997092 36.2567377,90.9380167 25.4063955,90.9380167 C14.5539509,90.9380167 5.72679141,82.0997092 5.72679141,71.2356639 M66.4264775,71.2356639 C66.4264775,60.3709169 75.253637,51.5326093 86.1039792,51.5326093 C96.9543214,51.5326093 105.782182,60.3709169 105.782182,71.2356639 C105.782182,82.0997092 96.9543214,90.9380167 86.1039792,90.9380167 C75.253637,90.9380167 66.4264775,82.0997092 66.4264775,71.2356639 M0.517814238,71.2356639 C0.517814238,84.975878 11.6835122,96.1535724 25.4063955,96.1535724 C38.3794327,96.1535724 49.0524748,86.1589033 50.1807478,73.4571692 C53.0841236,70.3866362 57.9370991,70.2210408 61.0324916,73.1042263 C61.1186889,73.1842174 61.2280122,73.2150911 61.3212174,73.2810486 C62.3660963,86.0655804 73.070674,96.1535724 86.1039792,96.1535724 C99.8268624,96.1535724 110.990458,84.975878 110.990458,71.2356639 C110.990458,57.4954497 99.8268624,46.3170536 86.1039792,46.3170536 C73.7553465,46.3170536 63.5076843,55.3791957 61.573502,67.2045368 C57.9083667,65.3640414 53.5725747,65.3956168 49.9410774,67.2340072 C48.0195093,55.3946326 37.76554,46.3170536 25.4063955,46.3170536 C11.6835122,46.3170536 0.517814238,57.4954497 0.517814238,71.2356639" id="Fill-30" fill="#2BC2A0"></path>
                            <path d="M7.46356097,67.7580888 C7.46356097,78.6228358 16.2907205,87.4611433 27.1410627,87.4611433 C37.9935072,87.4611433 46.8206667,78.6228358 46.8206667,67.7580888 C46.8206667,56.8940434 37.9935072,48.0557359 27.1410627,48.0557359 C16.2907205,48.0557359 7.46356097,56.8940434 7.46356097,67.7580888 M2.2545838,67.7580888 C2.2545838,54.0178746 13.4188802,42.8401802 27.1410627,42.8401802 C40.8639459,42.8401802 52.0296439,54.0178746 52.0296439,67.7580888 C52.0296439,81.4983029 40.8639459,92.676699 27.1410627,92.676699 C13.4188802,92.676699 2.2545838,81.4983029 2.2545838,67.7580888" id="Fill-32" fill="#FFFFFF"></path>
                            <path d="M68.1624762,67.7580888 C68.1624762,78.6228358 76.9896357,87.4611433 87.8399779,87.4611433 C98.6910209,87.4611433 107.518881,78.6228358 107.518881,67.7580888 C107.518881,56.8940434 98.6910209,48.0557359 87.8399779,48.0557359 C76.9896357,48.0557359 68.1624762,56.8940434 68.1624762,67.7580888 M62.953499,67.7580888 C62.953499,54.0178746 74.1177955,42.8401802 87.8399779,42.8401802 C101.562861,42.8401802 112.727858,54.0178746 112.727858,67.7580888 C112.727858,81.4983029 101.562861,92.676699 87.8399779,92.676699 C74.1177955,92.676699 62.953499,81.4983029 62.953499,67.7580888" id="Fill-34" fill="#FFFFFF"></path>
                            <path d="M102.302055,69.1281808 C103.260737,69.1281808 104.038614,68.3500224 104.038614,67.3894283 C104.038614,64.4311635 103.278957,61.5121924 101.840935,58.946866 C101.371405,58.1097668 100.313912,57.812958 99.4771679,58.2809757 C98.6404238,58.7503968 98.3425878,59.8106288 98.8128183,60.6477279 C99.9593119,62.6952177 100.565496,65.0261845 100.565496,67.3894283 C100.565496,68.3500224 101.343373,69.1281808 102.302055,69.1281808" id="Fill-36" fill="#FFFFFF"></path>
                            <path d="M97.2948356,57.6954975 C97.7636646,57.6954975 98.2296904,57.5067467 98.572377,57.1355602 C99.2227108,56.4289728 99.1771594,55.3287452 98.472164,54.6782918 C98.3172892,54.5358516 98.1596113,54.3962182 98.0005318,54.2586897 C97.2745127,53.6313916 96.1763737,53.7169961 95.5519692,54.4453355 C94.9268639,55.1736749 95.0109588,56.2710957 95.7383795,56.8969905 C95.867325,57.0071536 95.9941681,57.1201234 96.1189088,57.2351982 C96.453186,57.5432338 96.8743612,57.6954975 97.2948356,57.6954975" id="Fill-38" fill="#FFFFFF"></path>
                            <path d="M41.5946603,68.7105434 C41.6710465,68.7105434 41.7488343,68.7056317 41.8287244,68.6951065 C42.7782958,68.5674016 43.4447477,67.6910086 43.3172038,66.7395363 C42.9226587,63.8079351 41.7796691,61.0173707 40.0129758,58.6674587 C39.4376266,57.9012288 38.3507002,57.7447551 37.5812321,58.3243392 C36.8145671,58.9018184 36.6617947,59.9922225 37.2385454,60.759154 C38.6478355,62.6333299 39.560265,64.861852 39.8756208,67.2047473 C39.9926528,68.0769302 40.7382941,68.7105434 41.5946603,68.7105434" id="Fill-40" fill="#FFFFFF"></path>
                            <path d="M35.1072307,58.0520189 C35.655249,58.0520189 36.1927555,57.7938022 36.5298358,57.311751 C37.0806573,56.5258742 36.890743,55.4410835 36.1058574,54.8902681 C35.9292582,54.7667731 35.7533597,54.6481899 35.5718549,54.5317118 C34.7666464,54.009665 33.6916335,54.2475331 33.1723476,55.0544602 C32.6551641,55.8627906 32.8892282,56.9384595 33.6965391,57.4569979 C33.837398,57.547514 33.9761545,57.6408369 34.1121079,57.7369665 C34.4155503,57.9502759 34.7631425,58.0520189 35.1072307,58.0520189" id="Fill-42" fill="#FFFFFF"></path>
                            <path d="M49.9557239,70.8607585 C50.6544122,70.8607585 51.3509982,70.5807899 51.8632762,70.0278694 C53.2669599,68.5164599 55.1731106,67.6414703 57.2334352,67.566391 C59.2951614,67.464648 61.2587769,68.2224578 62.7675793,69.6272126 C63.8222693,70.6074536 65.4698282,70.5457061 66.4488327,69.4917892 C67.4271365,68.4364689 67.3668685,66.7861276 66.3135801,65.8058866 C63.7844266,63.4531678 60.518742,62.2210253 57.0414186,62.3543436 C53.591426,62.4806453 50.3965213,63.9457442 48.0481717,66.4780919 C47.0677655,67.5334122 47.1294351,69.1830519 48.1841251,70.1639945 C48.6837888,70.6299072 49.3215084,70.8607585 49.9557239,70.8607585" id="Fill-44" fill="#FFFFFF"></path>
                            <path d="M132.29877,116.597877 L132.29877,116.597877 C130.944141,116.597877 129.846002,115.498351 129.846002,114.142012 L129.846002,97.9747016 C129.846002,96.6183624 130.944141,95.5188365 132.29877,95.5188365 L132.29877,95.5188365 C133.653398,95.5188365 134.751537,96.6183624 134.751537,97.9747016 L134.751537,114.142012 C134.751537,115.498351 133.653398,116.597877 132.29877,116.597877" id="Fill-46" fill="#48E2C1"></path>
                            <path d="M56.6037748,104.974268 L56.6037748,104.974268 C53.6646586,104.974268 51.2602458,102.566818 51.2602458,99.6239904 L51.2602458,92.8114207 C51.2602458,89.8692944 53.6646586,87.4611433 56.6037748,87.4611433 L56.6037748,87.4611433 C59.5428909,87.4611433 61.9473038,89.8692944 61.9473038,92.8114207 L61.9473038,99.6239904 C61.9473038,102.566818 59.5428909,104.974268 56.6037748,104.974268" id="Fill-48" fill="#000000"></path>
                            <path d="M132.29912,95.4906292 L132.29912,95.4906292 C126.565952,95.4906292 121.874859,90.7936118 121.874859,85.0532027 L121.874859,79.0531735 C121.874859,73.3127644 126.565952,68.615747 132.29912,68.615747 L132.29912,68.615747 C138.032289,68.615747 142.723382,73.3127644 142.723382,79.0531735 L142.723382,85.0532027 C142.723382,90.7936118 138.032289,95.4906292 132.29912,95.4906292 L132.29912,95.4906292 Z" id="Stroke-50" stroke="#48E2C1" stroke-width="7"></path>
                            <path d="M187.595009,33.4106408 C187.101653,35.4153283 186.194829,37.296521 184.941816,38.9272153" id="Stroke-52" stroke="#B1E8FF" stroke-width="4" stroke-linecap="round"></path>
                            <path d="M181.567929,42.1194189 C180.357664,42.9466946 179.003035,43.6055681 177.52717,44.0553423 C169.708448,46.4368297 161.441921,42.0204826 159.063438,34.1918865 C156.684954,26.3632904 161.095731,18.0863235 168.914452,15.704836 C176.733875,13.3233486 185.000402,17.7396957 187.378185,25.5682918" id="Stroke-54" stroke="#B1E8FF" stroke-width="4" stroke-linecap="round"></path>
                            <path d="M169.817631,22.3223399 C170.136491,22.1784963 170.467965,22.053598 170.811353,21.9490484" id="Stroke-56" stroke="#B1E8FF" stroke-width="4" stroke-linecap="round"></path>
                            <path d="M165.300195,32.2923801 C164.593097,29.9642201 164.958909,27.5658924 166.113112,25.6292674 C166.268687,25.368244 166.438279,25.1163424 166.621886,24.8735626" id="Stroke-58" stroke="#B1E8FF" stroke-width="4" stroke-linecap="round"></path>
                            <path d="M248.44074,18.2508664 C248.616639,19.3574091 248.707741,20.4920187 248.707741,21.6476786 C248.707741,25.9566693 247.438609,29.9681495 245.253544,33.3284745" id="Stroke-60" stroke="#B1E8FF" stroke-width="4" stroke-linecap="round"></path>
                            <path d="M241.091618,38.0440161 C237.365514,41.1896284 232.552484,43.0855562 227.297254,43.0855562 C215.472813,43.0855562 205.886697,33.4873339 205.886697,21.6479593 C205.886697,9.80788303 215.472813,0.210362384 227.297254,0.210362384 C235.687121,0.210362384 242.949414,5.04139979 246.461077,12.0764007" id="Stroke-62" stroke="#B1E8FF" stroke-width="4" stroke-linecap="round"></path>
                            <path d="M217.582473,11.05441 C217.820042,10.8551341 218.064617,10.6635766 218.316201,10.4811409" id="Stroke-64" stroke="#B1E8FF" stroke-width="4" stroke-linecap="round"></path>
                            <path d="M212.795162,21.3161369 C212.795162,18.7318651 213.526788,16.3188023 214.793817,14.2734175" id="Stroke-66" stroke="#B1E8FF" stroke-width="4" stroke-linecap="round"></path>
                            <path d="M140.270264,85.0532729 C140.270264,89.454183 136.694129,93.0348343 132.29877,93.0348343 C127.903411,93.0348343 124.327276,89.454183 124.327276,85.0532729 L124.327276,79.0532437 C124.327276,74.6523335 127.903411,71.0716822 132.29877,71.0716822 C136.694129,71.0716822 140.270264,74.6523335 140.270264,79.0532437 L140.270264,85.0532729 Z M131.801909,66.1697756 C124.833247,66.4336057 119.421741,72.3880259 119.421741,79.3704011 L119.421741,85.0532729 C119.421741,91.3220438 123.915912,96.5544398 129.846002,97.705188 L129.846002,114.141942 C129.846002,115.498281 130.944141,116.597807 132.29877,116.597807 L132.29877,116.597807 C133.653398,116.597807 134.751537,115.498281 134.751537,114.141942 L134.751537,97.705188 C140.681628,96.5544398 145.175799,91.3220438 145.175799,85.0532729 L145.175799,79.0532437 C145.175799,71.7789714 139.127274,65.891912 131.801909,66.1697756 L131.801909,66.1697756 Z" id="Fill-68" fill="#2BC2A0"></path>
                            <path d="M146.080309,71.269625 C147.560379,70.3777951 149.04115,69.4859653 150.52122,68.5941354" id="Stroke-70" stroke="#B1E8FF" stroke-width="4" stroke-linecap="round"></path>
                            <path d="M153.573023,67.0108041 C153.529574,67.0030857 153.533078,67.0936019 153.575826,67.0830767" id="Stroke-72" stroke="#B1E8FF" stroke-width="4" stroke-linecap="round"></path>
                            <path d="M129.218024,108.994519 L125.889969,108.994519 C123.681777,108.994519 121.875139,107.185599 121.875139,104.974619 L121.875139,104.974619 C121.875139,102.762937 123.681777,100.954017 125.889969,100.954017 L129.218024,100.954017 C131.426215,100.954017 133.232854,102.762937 133.232854,104.974619 L133.232854,104.974619 C133.232854,107.185599 131.426215,108.994519 129.218024,108.994519" id="Fill-74" fill="#48E2C1"></path>
                        </g>
                    </g>
                </g>
            </g>
        </g>
    </g>
</svg>