<?xml version="1.0" encoding="UTF-8" standalone="no"?>
<svg width="50px" height="52px" viewBox="0 0 50 52" version="1.1" xmlns="http://www.w3.org/2000/svg" xmlns:xlink="http://www.w3.org/1999/xlink">
    <!-- Generator: Sketch 43.2 (39069) - http://www.bohemiancoding.com/sketch -->
    <title>ui-16px-2_link-69</title>
    <desc>Created with Sketch.</desc>
    <defs></defs>
    <g id="Page-1" stroke="none" stroke-width="1" fill="none" fill-rule="evenodd">
        <g id="Desktop-HD" transform="translate(-227.000000, -3225.000000)">
            <g id="Group-11" transform="translate(0.000000, 3193.000000)">
                <g id="ui-16px-2_link-69" transform="translate(227.000000, 32.000000)">
                    <ellipse id="Oval" fill="#4C5F78" cx="25" cy="26" rx="25" ry="26"></ellipse>
                    <path d="M28,17.68 C26.7,17.68 25.4,18.2 24.5,19.24 L23.3,20.384 C22.9,20.8 22.9,21.424 23.3,21.84 C23.7,22.256 24.3,22.256 24.7,21.84 L25.9,20.592 C27,19.448 29,19.448 30.1,20.592 C30.7,21.216 31,22.048 31,22.88 C31,23.712 30.7,24.544 30.1,25.064 L29,26.312 C28.6,26.728 28.6,27.352 29,27.768 C29.2,27.976 29.5,28.08 29.7,28.08 C29.9,28.08 30.2,27.976 30.4,27.768 L31.6,26.52 C32.5,25.584 33,24.232 33,22.88 C33,21.528 32.5,20.176 31.5,19.24 C30.6,18.2 29.3,17.68 28,17.68 Z" id="Shape" fill="#FFFFFF" fill-rule="nonzero"></path>
                    <path d="M25.3,30.16 L24.1,31.408 C23,32.552 21,32.552 19.9,31.408 C19.3,30.784 19,29.952 19,29.12 C19,28.288 19.3,27.456 19.9,26.936 L21,25.688 C21.4,25.272 21.4,24.648 21,24.232 C20.6,23.816 20,23.816 19.6,24.232 L18.5,25.48 C17.5,26.416 17,27.768 17,29.12 C17,30.472 17.5,31.824 18.5,32.76 C19.4,33.8 20.7,34.32 22,34.32 C23.3,34.32 24.6,33.8 25.5,32.76 L26.7,31.512 C27.1,31.096 27.1,30.472 26.7,30.056 C26.3,29.64 25.7,29.744 25.3,30.16 Z" id="Shape" fill="#FFFFFF" fill-rule="nonzero"></path>
                    <path d="M26.4,23.088 L22.2,27.456 C21.8,27.872 21.8,28.496 22.2,28.912 C22.4,29.12 22.7,29.224 22.9,29.224 C23.1,29.224 23.4,29.12 23.6,28.912 L27.8,24.544 C28.2,24.128 28.2,23.504 27.8,23.088 C27.4,22.672 26.8,22.672 26.4,23.088 Z" id="Shape" fill="#FFFFFF" fill-rule="nonzero"></path>
                </g>
            </g>
        </g>
    </g>
</svg>